<?xml version="1.0" encoding="utf-8"?>
<svg xmlns="http://www.w3.org/2000/svg" xmlns:xlink="http://www.w3.org/1999/xlink" width="600" height="400" viewBox="0 0 2400 1600">
<defs>
  <clipPath id="clip270">
    <rect x="0" y="0" width="2400" height="1600"/>
  </clipPath>
</defs>
<path clip-path="url(#clip270)" d="M0 1600 L2400 1600 L2400 0 L0 0  Z" fill="#ffffff" fill-rule="evenodd" fill-opacity="1"/>
<defs>
  <clipPath id="clip271">
    <rect x="480" y="0" width="1681" height="1600"/>
  </clipPath>
</defs>
<path clip-path="url(#clip270)" d="M194.098 1486.45 L2352.76 1486.45 L2352.76 47.2441 L194.098 47.2441  Z" fill="#ffffff" fill-rule="evenodd" fill-opacity="1"/>
<defs>
  <clipPath id="clip272">
    <rect x="194" y="47" width="2160" height="1440"/>
  </clipPath>
</defs>
<polyline clip-path="url(#clip272)" style="stroke:#000000; stroke-linecap:round; stroke-linejoin:round; stroke-width:2; stroke-opacity:0.1; fill:none" points="535.687,1486.45 535.687,47.2441 "/>
<polyline clip-path="url(#clip272)" style="stroke:#000000; stroke-linecap:round; stroke-linejoin:round; stroke-width:2; stroke-opacity:0.1; fill:none" points="904.557,1486.45 904.557,47.2441 "/>
<polyline clip-path="url(#clip272)" style="stroke:#000000; stroke-linecap:round; stroke-linejoin:round; stroke-width:2; stroke-opacity:0.1; fill:none" points="1273.43,1486.45 1273.43,47.2441 "/>
<polyline clip-path="url(#clip272)" style="stroke:#000000; stroke-linecap:round; stroke-linejoin:round; stroke-width:2; stroke-opacity:0.1; fill:none" points="1642.3,1486.45 1642.3,47.2441 "/>
<polyline clip-path="url(#clip272)" style="stroke:#000000; stroke-linecap:round; stroke-linejoin:round; stroke-width:2; stroke-opacity:0.1; fill:none" points="2011.17,1486.45 2011.17,47.2441 "/>
<polyline clip-path="url(#clip272)" style="stroke:#000000; stroke-linecap:round; stroke-linejoin:round; stroke-width:2; stroke-opacity:0.1; fill:none" points="194.098,1258.71 2352.76,1258.71 "/>
<polyline clip-path="url(#clip272)" style="stroke:#000000; stroke-linecap:round; stroke-linejoin:round; stroke-width:2; stroke-opacity:0.1; fill:none" points="194.098,1012.78 2352.76,1012.78 "/>
<polyline clip-path="url(#clip272)" style="stroke:#000000; stroke-linecap:round; stroke-linejoin:round; stroke-width:2; stroke-opacity:0.1; fill:none" points="194.098,766.846 2352.76,766.846 "/>
<polyline clip-path="url(#clip272)" style="stroke:#000000; stroke-linecap:round; stroke-linejoin:round; stroke-width:2; stroke-opacity:0.1; fill:none" points="194.098,520.916 2352.76,520.916 "/>
<polyline clip-path="url(#clip272)" style="stroke:#000000; stroke-linecap:round; stroke-linejoin:round; stroke-width:2; stroke-opacity:0.1; fill:none" points="194.098,274.986 2352.76,274.986 "/>
<polyline clip-path="url(#clip270)" style="stroke:#000000; stroke-linecap:round; stroke-linejoin:round; stroke-width:4; stroke-opacity:1; fill:none" points="194.098,1486.45 2352.76,1486.45 "/>
<polyline clip-path="url(#clip270)" style="stroke:#000000; stroke-linecap:round; stroke-linejoin:round; stroke-width:4; stroke-opacity:1; fill:none" points="535.687,1486.45 535.687,1467.55 "/>
<polyline clip-path="url(#clip270)" style="stroke:#000000; stroke-linecap:round; stroke-linejoin:round; stroke-width:4; stroke-opacity:1; fill:none" points="904.557,1486.45 904.557,1467.55 "/>
<polyline clip-path="url(#clip270)" style="stroke:#000000; stroke-linecap:round; stroke-linejoin:round; stroke-width:4; stroke-opacity:1; fill:none" points="1273.43,1486.45 1273.43,1467.55 "/>
<polyline clip-path="url(#clip270)" style="stroke:#000000; stroke-linecap:round; stroke-linejoin:round; stroke-width:4; stroke-opacity:1; fill:none" points="1642.3,1486.45 1642.3,1467.55 "/>
<polyline clip-path="url(#clip270)" style="stroke:#000000; stroke-linecap:round; stroke-linejoin:round; stroke-width:4; stroke-opacity:1; fill:none" points="2011.17,1486.45 2011.17,1467.55 "/>
<path clip-path="url(#clip270)" d="M482.134 1532.02 L511.81 1532.02 L511.81 1535.95 L482.134 1535.95 L482.134 1532.02 Z" fill="#000000" fill-rule="nonzero" fill-opacity="1" /><path clip-path="url(#clip270)" d="M531.902 1517.37 Q528.291 1517.37 526.463 1520.93 Q524.657 1524.47 524.657 1531.6 Q524.657 1538.71 526.463 1542.27 Q528.291 1545.82 531.902 1545.82 Q535.537 1545.82 537.342 1542.27 Q539.171 1538.71 539.171 1531.6 Q539.171 1524.47 537.342 1520.93 Q535.537 1517.37 531.902 1517.37 M531.902 1513.66 Q537.712 1513.66 540.768 1518.27 Q543.847 1522.85 543.847 1531.6 Q543.847 1540.33 540.768 1544.94 Q537.712 1549.52 531.902 1549.52 Q526.092 1549.52 523.013 1544.94 Q519.958 1540.33 519.958 1531.6 Q519.958 1522.85 523.013 1518.27 Q526.092 1513.66 531.902 1513.66 Z" fill="#000000" fill-rule="nonzero" fill-opacity="1" /><path clip-path="url(#clip270)" d="M552.064 1542.97 L556.948 1542.97 L556.948 1548.85 L552.064 1548.85 L552.064 1542.97 Z" fill="#000000" fill-rule="nonzero" fill-opacity="1" /><path clip-path="url(#clip270)" d="M577.712 1529.7 Q574.564 1529.7 572.712 1531.86 Q570.884 1534.01 570.884 1537.76 Q570.884 1541.49 572.712 1543.66 Q574.564 1545.82 577.712 1545.82 Q580.86 1545.82 582.689 1543.66 Q584.541 1541.49 584.541 1537.76 Q584.541 1534.01 582.689 1531.86 Q580.86 1529.7 577.712 1529.7 M586.995 1515.05 L586.995 1519.31 Q585.235 1518.48 583.43 1518.04 Q581.647 1517.6 579.888 1517.6 Q575.259 1517.6 572.805 1520.72 Q570.374 1523.85 570.027 1530.17 Q571.393 1528.15 573.453 1527.09 Q575.513 1526 577.99 1526 Q583.198 1526 586.208 1529.17 Q589.24 1532.32 589.24 1537.76 Q589.24 1543.08 586.092 1546.3 Q582.944 1549.52 577.712 1549.52 Q571.717 1549.52 568.546 1544.94 Q565.374 1540.33 565.374 1531.6 Q565.374 1523.41 569.263 1518.55 Q573.152 1513.66 579.703 1513.66 Q581.462 1513.66 583.245 1514.01 Q585.05 1514.36 586.995 1515.05 Z" fill="#000000" fill-rule="nonzero" fill-opacity="1" /><path clip-path="url(#clip270)" d="M851.409 1532.02 L881.085 1532.02 L881.085 1535.95 L851.409 1535.95 L851.409 1532.02 Z" fill="#000000" fill-rule="nonzero" fill-opacity="1" /><path clip-path="url(#clip270)" d="M901.177 1517.37 Q897.566 1517.37 895.738 1520.93 Q893.932 1524.47 893.932 1531.6 Q893.932 1538.71 895.738 1542.27 Q897.566 1545.82 901.177 1545.82 Q904.812 1545.82 906.617 1542.27 Q908.446 1538.71 908.446 1531.6 Q908.446 1524.47 906.617 1520.93 Q904.812 1517.37 901.177 1517.37 M901.177 1513.66 Q906.988 1513.66 910.043 1518.27 Q913.122 1522.85 913.122 1531.6 Q913.122 1540.33 910.043 1544.94 Q906.988 1549.52 901.177 1549.52 Q895.367 1549.52 892.289 1544.94 Q889.233 1540.33 889.233 1531.6 Q889.233 1522.85 892.289 1518.27 Q895.367 1513.66 901.177 1513.66 Z" fill="#000000" fill-rule="nonzero" fill-opacity="1" /><path clip-path="url(#clip270)" d="M921.339 1542.97 L926.224 1542.97 L926.224 1548.85 L921.339 1548.85 L921.339 1542.97 Z" fill="#000000" fill-rule="nonzero" fill-opacity="1" /><path clip-path="url(#clip270)" d="M950.575 1530.21 Q953.932 1530.93 955.807 1533.2 Q957.705 1535.47 957.705 1538.8 Q957.705 1543.92 954.186 1546.72 Q950.668 1549.52 944.186 1549.52 Q942.01 1549.52 939.696 1549.08 Q937.404 1548.66 934.95 1547.81 L934.95 1543.29 Q936.895 1544.43 939.21 1545.01 Q941.524 1545.58 944.048 1545.58 Q948.446 1545.58 950.737 1543.85 Q953.052 1542.11 953.052 1538.8 Q953.052 1535.75 950.899 1534.03 Q948.77 1532.3 944.95 1532.3 L940.923 1532.3 L940.923 1528.45 L945.135 1528.45 Q948.585 1528.45 950.413 1527.09 Q952.242 1525.7 952.242 1523.11 Q952.242 1520.45 950.344 1519.03 Q948.469 1517.6 944.95 1517.6 Q943.029 1517.6 940.83 1518.01 Q938.631 1518.43 935.992 1519.31 L935.992 1515.14 Q938.654 1514.4 940.969 1514.03 Q943.307 1513.66 945.367 1513.66 Q950.691 1513.66 953.793 1516.09 Q956.895 1518.5 956.895 1522.62 Q956.895 1525.49 955.251 1527.48 Q953.608 1529.45 950.575 1530.21 Z" fill="#000000" fill-rule="nonzero" fill-opacity="1" /><path clip-path="url(#clip270)" d="M1250.81 1517.37 Q1247.2 1517.37 1245.37 1520.93 Q1243.57 1524.47 1243.57 1531.6 Q1243.57 1538.71 1245.37 1542.27 Q1247.2 1545.82 1250.81 1545.82 Q1254.45 1545.82 1256.25 1542.27 Q1258.08 1538.71 1258.08 1531.6 Q1258.08 1524.47 1256.25 1520.93 Q1254.45 1517.37 1250.81 1517.37 M1250.81 1513.66 Q1256.62 1513.66 1259.68 1518.27 Q1262.76 1522.85 1262.76 1531.6 Q1262.76 1540.33 1259.68 1544.94 Q1256.62 1549.52 1250.81 1549.52 Q1245 1549.52 1241.92 1544.94 Q1238.87 1540.33 1238.87 1531.6 Q1238.87 1522.85 1241.92 1518.27 Q1245 1513.66 1250.81 1513.66 Z" fill="#000000" fill-rule="nonzero" fill-opacity="1" /><path clip-path="url(#clip270)" d="M1270.97 1542.97 L1275.86 1542.97 L1275.86 1548.85 L1270.97 1548.85 L1270.97 1542.97 Z" fill="#000000" fill-rule="nonzero" fill-opacity="1" /><path clip-path="url(#clip270)" d="M1296.04 1517.37 Q1292.43 1517.37 1290.6 1520.93 Q1288.8 1524.47 1288.8 1531.6 Q1288.8 1538.71 1290.6 1542.27 Q1292.43 1545.82 1296.04 1545.82 Q1299.68 1545.82 1301.48 1542.27 Q1303.31 1538.71 1303.31 1531.6 Q1303.31 1524.47 1301.48 1520.93 Q1299.68 1517.37 1296.04 1517.37 M1296.04 1513.66 Q1301.85 1513.66 1304.91 1518.27 Q1307.99 1522.85 1307.99 1531.6 Q1307.99 1540.33 1304.91 1544.94 Q1301.85 1549.52 1296.04 1549.52 Q1290.23 1549.52 1287.15 1544.94 Q1284.1 1540.33 1284.1 1531.6 Q1284.1 1522.85 1287.15 1518.27 Q1290.23 1513.66 1296.04 1513.66 Z" fill="#000000" fill-rule="nonzero" fill-opacity="1" /><path clip-path="url(#clip270)" d="M1620.01 1517.37 Q1616.39 1517.37 1614.57 1520.93 Q1612.76 1524.47 1612.76 1531.6 Q1612.76 1538.71 1614.57 1542.27 Q1616.39 1545.82 1620.01 1545.82 Q1623.64 1545.82 1625.45 1542.27 Q1627.27 1538.71 1627.27 1531.6 Q1627.27 1524.47 1625.45 1520.93 Q1623.64 1517.37 1620.01 1517.37 M1620.01 1513.66 Q1625.82 1513.66 1628.87 1518.27 Q1631.95 1522.85 1631.95 1531.6 Q1631.95 1540.33 1628.87 1544.94 Q1625.82 1549.52 1620.01 1549.52 Q1614.2 1549.52 1611.12 1544.94 Q1608.06 1540.33 1608.06 1531.6 Q1608.06 1522.85 1611.12 1518.27 Q1614.2 1513.66 1620.01 1513.66 Z" fill="#000000" fill-rule="nonzero" fill-opacity="1" /><path clip-path="url(#clip270)" d="M1640.17 1542.97 L1645.05 1542.97 L1645.05 1548.85 L1640.17 1548.85 L1640.17 1542.97 Z" fill="#000000" fill-rule="nonzero" fill-opacity="1" /><path clip-path="url(#clip270)" d="M1669.4 1530.21 Q1672.76 1530.93 1674.63 1533.2 Q1676.53 1535.47 1676.53 1538.8 Q1676.53 1543.92 1673.01 1546.72 Q1669.5 1549.52 1663.01 1549.52 Q1660.84 1549.52 1658.52 1549.08 Q1656.23 1548.66 1653.78 1547.81 L1653.78 1543.29 Q1655.72 1544.43 1658.04 1545.01 Q1660.35 1545.58 1662.88 1545.58 Q1667.27 1545.58 1669.57 1543.85 Q1671.88 1542.11 1671.88 1538.8 Q1671.88 1535.75 1669.73 1534.03 Q1667.6 1532.3 1663.78 1532.3 L1659.75 1532.3 L1659.75 1528.45 L1663.96 1528.45 Q1667.41 1528.45 1669.24 1527.09 Q1671.07 1525.7 1671.07 1523.11 Q1671.07 1520.45 1669.17 1519.03 Q1667.3 1517.6 1663.78 1517.6 Q1661.86 1517.6 1659.66 1518.01 Q1657.46 1518.43 1654.82 1519.31 L1654.82 1515.14 Q1657.48 1514.4 1659.8 1514.03 Q1662.13 1513.66 1664.19 1513.66 Q1669.52 1513.66 1672.62 1516.09 Q1675.72 1518.5 1675.72 1522.62 Q1675.72 1525.49 1674.08 1527.48 Q1672.44 1529.45 1669.4 1530.21 Z" fill="#000000" fill-rule="nonzero" fill-opacity="1" /><path clip-path="url(#clip270)" d="M1988.47 1517.37 Q1984.86 1517.37 1983.03 1520.93 Q1981.22 1524.47 1981.22 1531.6 Q1981.22 1538.71 1983.03 1542.27 Q1984.86 1545.82 1988.47 1545.82 Q1992.1 1545.82 1993.91 1542.27 Q1995.74 1538.71 1995.74 1531.6 Q1995.74 1524.47 1993.91 1520.93 Q1992.1 1517.37 1988.47 1517.37 M1988.47 1513.66 Q1994.28 1513.66 1997.34 1518.27 Q2000.41 1522.85 2000.41 1531.6 Q2000.41 1540.33 1997.34 1544.94 Q1994.28 1549.52 1988.47 1549.52 Q1982.66 1549.52 1979.58 1544.94 Q1976.53 1540.33 1976.53 1531.6 Q1976.53 1522.85 1979.58 1518.27 Q1982.66 1513.66 1988.47 1513.66 Z" fill="#000000" fill-rule="nonzero" fill-opacity="1" /><path clip-path="url(#clip270)" d="M2008.63 1542.97 L2013.52 1542.97 L2013.52 1548.85 L2008.63 1548.85 L2008.63 1542.97 Z" fill="#000000" fill-rule="nonzero" fill-opacity="1" /><path clip-path="url(#clip270)" d="M2034.28 1529.7 Q2031.13 1529.7 2029.28 1531.86 Q2027.45 1534.01 2027.45 1537.76 Q2027.45 1541.49 2029.28 1543.66 Q2031.13 1545.82 2034.28 1545.82 Q2037.43 1545.82 2039.26 1543.66 Q2041.11 1541.49 2041.11 1537.76 Q2041.11 1534.01 2039.26 1531.86 Q2037.43 1529.7 2034.28 1529.7 M2043.56 1515.05 L2043.56 1519.31 Q2041.8 1518.48 2040 1518.04 Q2038.22 1517.6 2036.46 1517.6 Q2031.83 1517.6 2029.37 1520.72 Q2026.94 1523.85 2026.6 1530.17 Q2027.96 1528.15 2030.02 1527.09 Q2032.08 1526 2034.56 1526 Q2039.77 1526 2042.78 1529.17 Q2045.81 1532.32 2045.81 1537.76 Q2045.81 1543.08 2042.66 1546.3 Q2039.51 1549.52 2034.28 1549.52 Q2028.28 1549.52 2025.11 1544.94 Q2021.94 1540.33 2021.94 1531.6 Q2021.94 1523.41 2025.83 1518.55 Q2029.72 1513.66 2036.27 1513.66 Q2038.03 1513.66 2039.81 1514.01 Q2041.62 1514.36 2043.56 1515.05 Z" fill="#000000" fill-rule="nonzero" fill-opacity="1" /><polyline clip-path="url(#clip270)" style="stroke:#000000; stroke-linecap:round; stroke-linejoin:round; stroke-width:4; stroke-opacity:1; fill:none" points="194.098,1486.45 194.098,47.2441 "/>
<polyline clip-path="url(#clip270)" style="stroke:#000000; stroke-linecap:round; stroke-linejoin:round; stroke-width:4; stroke-opacity:1; fill:none" points="194.098,1258.71 212.996,1258.71 "/>
<polyline clip-path="url(#clip270)" style="stroke:#000000; stroke-linecap:round; stroke-linejoin:round; stroke-width:4; stroke-opacity:1; fill:none" points="194.098,1012.78 212.996,1012.78 "/>
<polyline clip-path="url(#clip270)" style="stroke:#000000; stroke-linecap:round; stroke-linejoin:round; stroke-width:4; stroke-opacity:1; fill:none" points="194.098,766.846 212.996,766.846 "/>
<polyline clip-path="url(#clip270)" style="stroke:#000000; stroke-linecap:round; stroke-linejoin:round; stroke-width:4; stroke-opacity:1; fill:none" points="194.098,520.916 212.996,520.916 "/>
<polyline clip-path="url(#clip270)" style="stroke:#000000; stroke-linecap:round; stroke-linejoin:round; stroke-width:4; stroke-opacity:1; fill:none" points="194.098,274.986 212.996,274.986 "/>
<path clip-path="url(#clip270)" d="M50.9921 1259.16 L80.6679 1259.16 L80.6679 1263.09 L50.9921 1263.09 L50.9921 1259.16 Z" fill="#000000" fill-rule="nonzero" fill-opacity="1" /><path clip-path="url(#clip270)" d="M100.76 1244.5 Q97.1493 1244.5 95.3206 1248.07 Q93.515 1251.61 93.515 1258.74 Q93.515 1265.85 95.3206 1269.41 Q97.1493 1272.95 100.76 1272.95 Q104.395 1272.95 106.2 1269.41 Q108.029 1265.85 108.029 1258.74 Q108.029 1251.61 106.2 1248.07 Q104.395 1244.5 100.76 1244.5 M100.76 1240.8 Q106.571 1240.8 109.626 1245.41 Q112.705 1249.99 112.705 1258.74 Q112.705 1267.47 109.626 1272.07 Q106.571 1276.66 100.76 1276.66 Q94.9502 1276.66 91.8715 1272.07 Q88.816 1267.47 88.816 1258.74 Q88.816 1249.99 91.8715 1245.41 Q94.9502 1240.8 100.76 1240.8 Z" fill="#000000" fill-rule="nonzero" fill-opacity="1" /><path clip-path="url(#clip270)" d="M120.922 1270.11 L125.807 1270.11 L125.807 1275.99 L120.922 1275.99 L120.922 1270.11 Z" fill="#000000" fill-rule="nonzero" fill-opacity="1" /><path clip-path="url(#clip270)" d="M146.57 1256.84 Q143.422 1256.84 141.57 1259 Q139.742 1261.15 139.742 1264.9 Q139.742 1268.63 141.57 1270.8 Q143.422 1272.95 146.57 1272.95 Q149.718 1272.95 151.547 1270.8 Q153.399 1268.63 153.399 1264.9 Q153.399 1261.15 151.547 1259 Q149.718 1256.84 146.57 1256.84 M155.853 1242.19 L155.853 1246.45 Q154.093 1245.62 152.288 1245.18 Q150.505 1244.74 148.746 1244.74 Q144.117 1244.74 141.663 1247.86 Q139.232 1250.99 138.885 1257.31 Q140.251 1255.29 142.311 1254.23 Q144.371 1253.14 146.848 1253.14 Q152.056 1253.14 155.066 1256.31 Q158.098 1259.46 158.098 1264.9 Q158.098 1270.22 154.95 1273.44 Q151.802 1276.66 146.57 1276.66 Q140.575 1276.66 137.404 1272.07 Q134.232 1267.47 134.232 1258.74 Q134.232 1250.55 138.121 1245.69 Q142.01 1240.8 148.561 1240.8 Q150.32 1240.8 152.103 1241.15 Q153.908 1241.5 155.853 1242.19 Z" fill="#000000" fill-rule="nonzero" fill-opacity="1" /><path clip-path="url(#clip270)" d="M51.8023 1013.23 L81.4781 1013.23 L81.4781 1017.16 L51.8023 1017.16 L51.8023 1013.23 Z" fill="#000000" fill-rule="nonzero" fill-opacity="1" /><path clip-path="url(#clip270)" d="M101.571 998.575 Q97.9595 998.575 96.1308 1002.14 Q94.3252 1005.68 94.3252 1012.81 Q94.3252 1019.92 96.1308 1023.48 Q97.9595 1027.02 101.571 1027.02 Q105.205 1027.02 107.01 1023.48 Q108.839 1019.92 108.839 1012.81 Q108.839 1005.68 107.01 1002.14 Q105.205 998.575 101.571 998.575 M101.571 994.871 Q107.381 994.871 110.436 999.478 Q113.515 1004.06 113.515 1012.81 Q113.515 1021.54 110.436 1026.14 Q107.381 1030.73 101.571 1030.73 Q95.7604 1030.73 92.6817 1026.14 Q89.6262 1021.54 89.6262 1012.81 Q89.6262 1004.06 92.6817 999.478 Q95.7604 994.871 101.571 994.871 Z" fill="#000000" fill-rule="nonzero" fill-opacity="1" /><path clip-path="url(#clip270)" d="M121.732 1024.18 L126.617 1024.18 L126.617 1030.06 L121.732 1030.06 L121.732 1024.18 Z" fill="#000000" fill-rule="nonzero" fill-opacity="1" /><path clip-path="url(#clip270)" d="M150.968 1011.42 Q154.325 1012.14 156.2 1014.41 Q158.098 1016.68 158.098 1020.01 Q158.098 1025.13 154.58 1027.93 Q151.061 1030.73 144.58 1030.73 Q142.404 1030.73 140.089 1030.29 Q137.797 1029.87 135.344 1029.01 L135.344 1024.5 Q137.288 1025.63 139.603 1026.21 Q141.918 1026.79 144.441 1026.79 Q148.839 1026.79 151.13 1025.06 Q153.445 1023.32 153.445 1020.01 Q153.445 1016.95 151.293 1015.24 Q149.163 1013.51 145.343 1013.51 L141.316 1013.51 L141.316 1009.66 L145.529 1009.66 Q148.978 1009.66 150.806 1008.3 Q152.635 1006.91 152.635 1004.32 Q152.635 1001.65 150.737 1000.24 Q148.862 998.806 145.343 998.806 Q143.422 998.806 141.223 999.223 Q139.024 999.64 136.385 1000.52 L136.385 996.353 Q139.047 995.612 141.362 995.242 Q143.7 994.871 145.76 994.871 Q151.084 994.871 154.186 997.302 Q157.288 999.709 157.288 1003.83 Q157.288 1006.7 155.644 1008.69 Q154.001 1010.66 150.968 1011.42 Z" fill="#000000" fill-rule="nonzero" fill-opacity="1" /><path clip-path="url(#clip270)" d="M100.922 752.645 Q97.3113 752.645 95.4826 756.209 Q93.6771 759.751 93.6771 766.881 Q93.6771 773.987 95.4826 777.552 Q97.3113 781.094 100.922 781.094 Q104.557 781.094 106.362 777.552 Q108.191 773.987 108.191 766.881 Q108.191 759.751 106.362 756.209 Q104.557 752.645 100.922 752.645 M100.922 748.941 Q106.733 748.941 109.788 753.547 Q112.867 758.131 112.867 766.881 Q112.867 775.608 109.788 780.214 Q106.733 784.797 100.922 784.797 Q95.1123 784.797 92.0336 780.214 Q88.978 775.608 88.978 766.881 Q88.978 758.131 92.0336 753.547 Q95.1123 748.941 100.922 748.941 Z" fill="#000000" fill-rule="nonzero" fill-opacity="1" /><path clip-path="url(#clip270)" d="M121.084 778.246 L125.969 778.246 L125.969 784.126 L121.084 784.126 L121.084 778.246 Z" fill="#000000" fill-rule="nonzero" fill-opacity="1" /><path clip-path="url(#clip270)" d="M146.154 752.645 Q142.543 752.645 140.714 756.209 Q138.908 759.751 138.908 766.881 Q138.908 773.987 140.714 777.552 Q142.543 781.094 146.154 781.094 Q149.788 781.094 151.593 777.552 Q153.422 773.987 153.422 766.881 Q153.422 759.751 151.593 756.209 Q149.788 752.645 146.154 752.645 M146.154 748.941 Q151.964 748.941 155.019 753.547 Q158.098 758.131 158.098 766.881 Q158.098 775.608 155.019 780.214 Q151.964 784.797 146.154 784.797 Q140.343 784.797 137.265 780.214 Q134.209 775.608 134.209 766.881 Q134.209 758.131 137.265 753.547 Q140.343 748.941 146.154 748.941 Z" fill="#000000" fill-rule="nonzero" fill-opacity="1" /><path clip-path="url(#clip270)" d="M101.571 506.715 Q97.9595 506.715 96.1308 510.279 Q94.3252 513.821 94.3252 520.951 Q94.3252 528.057 96.1308 531.622 Q97.9595 535.163 101.571 535.163 Q105.205 535.163 107.01 531.622 Q108.839 528.057 108.839 520.951 Q108.839 513.821 107.01 510.279 Q105.205 506.715 101.571 506.715 M101.571 503.011 Q107.381 503.011 110.436 507.617 Q113.515 512.201 113.515 520.951 Q113.515 529.677 110.436 534.284 Q107.381 538.867 101.571 538.867 Q95.7604 538.867 92.6817 534.284 Q89.6262 529.677 89.6262 520.951 Q89.6262 512.201 92.6817 507.617 Q95.7604 503.011 101.571 503.011 Z" fill="#000000" fill-rule="nonzero" fill-opacity="1" /><path clip-path="url(#clip270)" d="M121.732 532.316 L126.617 532.316 L126.617 538.196 L121.732 538.196 L121.732 532.316 Z" fill="#000000" fill-rule="nonzero" fill-opacity="1" /><path clip-path="url(#clip270)" d="M150.968 519.562 Q154.325 520.279 156.2 522.548 Q158.098 524.816 158.098 528.15 Q158.098 533.265 154.58 536.066 Q151.061 538.867 144.58 538.867 Q142.404 538.867 140.089 538.427 Q137.797 538.011 135.344 537.154 L135.344 532.64 Q137.288 533.775 139.603 534.353 Q141.918 534.932 144.441 534.932 Q148.839 534.932 151.13 533.196 Q153.445 531.46 153.445 528.15 Q153.445 525.094 151.293 523.381 Q149.163 521.645 145.343 521.645 L141.316 521.645 L141.316 517.802 L145.529 517.802 Q148.978 517.802 150.806 516.437 Q152.635 515.048 152.635 512.455 Q152.635 509.793 150.737 508.381 Q148.862 506.946 145.343 506.946 Q143.422 506.946 141.223 507.363 Q139.024 507.779 136.385 508.659 L136.385 504.492 Q139.047 503.752 141.362 503.381 Q143.7 503.011 145.76 503.011 Q151.084 503.011 154.186 505.441 Q157.288 507.849 157.288 511.969 Q157.288 514.839 155.644 516.83 Q154.001 518.798 150.968 519.562 Z" fill="#000000" fill-rule="nonzero" fill-opacity="1" /><path clip-path="url(#clip270)" d="M100.76 260.784 Q97.1493 260.784 95.3206 264.349 Q93.515 267.891 93.515 275.02 Q93.515 282.127 95.3206 285.692 Q97.1493 289.233 100.76 289.233 Q104.395 289.233 106.2 285.692 Q108.029 282.127 108.029 275.02 Q108.029 267.891 106.2 264.349 Q104.395 260.784 100.76 260.784 M100.76 257.081 Q106.571 257.081 109.626 261.687 Q112.705 266.27 112.705 275.02 Q112.705 283.747 109.626 288.354 Q106.571 292.937 100.76 292.937 Q94.9502 292.937 91.8715 288.354 Q88.816 283.747 88.816 275.02 Q88.816 266.27 91.8715 261.687 Q94.9502 257.081 100.76 257.081 Z" fill="#000000" fill-rule="nonzero" fill-opacity="1" /><path clip-path="url(#clip270)" d="M120.922 286.386 L125.807 286.386 L125.807 292.266 L120.922 292.266 L120.922 286.386 Z" fill="#000000" fill-rule="nonzero" fill-opacity="1" /><path clip-path="url(#clip270)" d="M146.57 273.122 Q143.422 273.122 141.57 275.275 Q139.742 277.428 139.742 281.178 Q139.742 284.905 141.57 287.081 Q143.422 289.233 146.57 289.233 Q149.718 289.233 151.547 287.081 Q153.399 284.905 153.399 281.178 Q153.399 277.428 151.547 275.275 Q149.718 273.122 146.57 273.122 M155.853 258.47 L155.853 262.729 Q154.093 261.895 152.288 261.456 Q150.505 261.016 148.746 261.016 Q144.117 261.016 141.663 264.141 Q139.232 267.266 138.885 273.585 Q140.251 271.571 142.311 270.507 Q144.371 269.419 146.848 269.419 Q152.056 269.419 155.066 272.59 Q158.098 275.738 158.098 281.178 Q158.098 286.502 154.95 289.719 Q151.802 292.937 146.57 292.937 Q140.575 292.937 137.404 288.354 Q134.232 283.747 134.232 275.02 Q134.232 266.826 138.121 261.965 Q142.01 257.081 148.561 257.081 Q150.32 257.081 152.103 257.428 Q153.908 257.775 155.853 258.47 Z" fill="#000000" fill-rule="nonzero" fill-opacity="1" /><polyline clip-path="url(#clip272)" style="stroke:#008000; stroke-linecap:round; stroke-linejoin:round; stroke-width:8; stroke-opacity:1; fill:none" points="658.644,1176.73 677.856,1176.73 677.856,1163.92 697.068,1163.92 697.068,1176.73 697.068,1189.54 716.28,1189.54 716.28,1176.73 735.492,1176.73 735.492,1163.92 716.28,1163.92 716.28,1151.11 735.492,1151.11 754.704,1151.11 754.704,1138.3 735.492,1138.3 735.492,1125.49 754.704,1125.49 754.704,1112.69 773.916,1112.69 773.916,1125.49 773.916,1138.3 793.128,1138.3 793.128,1125.49 812.339,1125.49 812.339,1138.3 831.551,1138.3 831.551,1151.11 812.339,1151.11 793.128,1151.11 793.128,1163.92 812.339,1163.92 812.339,1176.73 812.339,1189.54 831.551,1189.54 831.551,1202.35 812.339,1202.35 793.128,1202.35 793.128,1215.16 812.339,1215.16 812.339,1227.97 831.551,1227.97 831.551,1215.16 850.763,1215.16 850.763,1227.97 850.763,1240.77 869.975,1240.77 869.975,1227.97 889.187,1227.97 889.187,1215.16 869.975,1215.16 869.975,1202.35 889.187,1202.35 908.399,1202.35 908.399,1189.54 889.187,1189.54 889.187,1176.73 908.399,1176.73 908.399,1163.92 927.611,1163.92 927.611,1176.73 927.611,1189.54 946.823,1189.54 946.823,1176.73 966.035,1176.73 966.035,1163.92 946.823,1163.92 946.823,1151.11 966.035,1151.11 985.247,1151.11 985.247,1138.3 966.035,1138.3 966.035,1125.49 946.823,1125.49 946.823,1138.3 927.611,1138.3 927.611,1125.49 927.611,1112.69 908.399,1112.69 908.399,1125.49 889.187,1125.49 889.187,1112.69 869.975,1112.69 869.975,1099.88 889.187,1099.88 908.399,1099.88 908.399,1087.07 889.187,1087.07 889.187,1074.26 908.399,1074.26 908.399,1061.45 927.611,1061.45 927.611,1074.26 927.611,1087.07 946.823,1087.07 946.823,1074.26 966.035,1074.26 985.247,1074.26 985.247,1061.45 1004.46,1061.45 1004.46,1074.26 1004.46,1087.07 1023.67,1087.07 1023.67,1074.26 1042.88,1074.26 1042.88,1061.45 1023.67,1061.45 1023.67,1048.64 1042.88,1048.64 1062.1,1048.64 1062.1,1035.83 1042.88,1035.83 1042.88,1023.02 1023.67,1023.02 1023.67,1035.83 1004.46,1035.83 1004.46,1023.02 1004.46,1010.21 985.247,1010.21 985.247,1023.02 966.035,1023.02 966.035,1010.21 946.823,1010.21 946.823,997.406 966.035,997.406 985.247,997.406 985.247,984.597 966.035,984.597 966.035,971.788 985.247,971.788 985.247,958.979 1004.46,958.979 1004.46,971.788 1004.46,984.597 1023.67,984.597 1023.67,971.788 1042.88,971.788 1042.88,958.979 1023.67,958.979 1023.67,946.17 1042.88,946.17 1062.1,946.17 1062.1,933.361 1042.88,933.361 1042.88,920.552 1062.1,920.552 1062.1,907.743 1081.31,907.743 1081.31,920.552 1081.31,933.361 1100.52,933.361 1100.52,920.552 1119.73,920.552 1119.73,933.361 1138.94,933.361 1138.94,946.17 1119.73,946.17 1100.52,946.17 1100.52,958.979 1119.73,958.979 1119.73,971.788 1119.73,984.597 1138.94,984.597 1138.94,997.406 1119.73,997.406 1100.52,997.406 1100.52,1010.21 1119.73,1010.21 1119.73,1023.02 1138.94,1023.02 1138.94,1010.21 1158.16,1010.21 1158.16,1023.02 1158.16,1035.83 1177.37,1035.83 1177.37,1023.02 1196.58,1023.02 1196.58,1010.21 1177.37,1010.21 1177.37,997.406 1196.58,997.406 1215.79,997.406 1215.79,984.597 1196.58,984.597 1196.58,971.788 1215.79,971.788 1215.79,958.979 1235,958.979 1235,971.788 1235,984.597 1254.21,984.597 1254.21,971.788 1273.43,971.788 1273.43,984.597 1292.64,984.597 1292.64,997.406 1273.43,997.406 1254.21,997.406 1254.21,1010.21 1273.43,1010.21 1273.43,1023.02 1292.64,1023.02 1292.64,1010.21 1311.85,1010.21 1311.85,1023.02 1311.85,1035.83 1331.06,1035.83 1331.06,1023.02 1350.27,1023.02 1350.27,1035.83 1369.49,1035.83 1369.49,1048.64 1350.27,1048.64 1331.06,1048.64 1331.06,1061.45 1350.27,1061.45 1350.27,1074.26 1331.06,1074.26 1331.06,1087.07 1311.85,1087.07 1311.85,1074.26 1311.85,1061.45 1292.64,1061.45 1292.64,1074.26 1273.43,1074.26 1254.21,1074.26 1254.21,1087.07 1235,1087.07 1235,1074.26 1235,1061.45 1215.79,1061.45 1215.79,1074.26 1196.58,1074.26 1196.58,1087.07 1215.79,1087.07 1215.79,1099.88 1196.58,1099.88 1177.37,1099.88 1177.37,1112.69 1196.58,1112.69 1196.58,1125.49 1215.79,1125.49 1215.79,1112.69 1235,1112.69 1235,1125.49 1235,1138.3 1254.21,1138.3 1254.21,1125.49 1273.43,1125.49 1273.43,1138.3 1292.64,1138.3 1292.64,1151.11 1273.43,1151.11 1254.21,1151.11 1254.21,1163.92 1273.43,1163.92 1273.43,1176.73 1273.43,1189.54 1292.64,1189.54 1292.64,1202.35 1273.43,1202.35 1254.21,1202.35 1254.21,1215.16 1273.43,1215.16 1273.43,1227.97 1292.64,1227.97 1292.64,1215.16 1311.85,1215.16 1311.85,1227.97 1311.85,1240.77 1331.06,1240.77 1331.06,1227.97 1350.27,1227.97 1350.27,1240.77 1369.49,1240.77 1369.49,1253.58 1350.27,1253.58 1331.06,1253.58 1331.06,1266.39 1350.27,1266.39 1350.27,1279.2 1331.06,1279.2 1331.06,1292.01 1311.85,1292.01 1311.85,1279.2 1311.85,1266.39 1292.64,1266.39 1292.64,1279.2 1273.43,1279.2 1254.21,1279.2 1254.21,1292.01 1235,1292.01 1235,1279.2 1235,1266.39 1215.79,1266.39 1215.79,1279.2 1196.58,1279.2 1196.58,1292.01 1215.79,1292.01 1215.79,1304.82 1196.58,1304.82 1177.37,1304.82 1177.37,1317.63 1196.58,1317.63 1196.58,1330.44 1215.79,1330.44 1215.79,1317.63 1235,1317.63 1235,1330.44 1235,1343.24 1254.21,1343.24 1254.21,1330.44 1273.43,1330.44 1273.43,1343.24 1292.64,1343.24 1292.64,1356.05 1273.43,1356.05 1254.21,1356.05 1254.21,1368.86 1273.43,1368.86 1273.43,1381.67 1292.64,1381.67 1292.64,1368.86 1311.85,1368.86 1311.85,1381.67 1311.85,1394.48 1331.06,1394.48 1331.06,1381.67 1350.27,1381.67 1350.27,1368.86 1331.06,1368.86 1331.06,1356.05 1350.27,1356.05 1369.49,1356.05 1369.49,1343.24 1350.27,1343.24 1350.27,1330.44 1369.49,1330.44 1369.49,1317.63 1388.7,1317.63 1388.7,1330.44 1388.7,1343.24 1407.91,1343.24 1407.91,1330.44 1427.12,1330.44 1427.12,1343.24 1446.33,1343.24 1446.33,1356.05 1427.12,1356.05 1407.91,1356.05 1407.91,1368.86 1427.12,1368.86 1427.12,1381.67 1427.12,1394.48 1446.33,1394.48 1446.33,1407.29 1427.12,1407.29 1407.91,1407.29 1407.91,1420.1 1427.12,1420.1 1427.12,1432.91 1446.33,1432.91 1446.33,1420.1 1465.55,1420.1 1465.55,1432.91 1465.55,1445.72 1484.76,1445.72 1484.76,1432.91 1503.97,1432.91 1503.97,1420.1 1484.76,1420.1 1484.76,1407.29 1503.97,1407.29 1523.18,1407.29 1523.18,1394.48 1503.97,1394.48 1503.97,1381.67 1523.18,1381.67 1523.18,1368.86 1542.39,1368.86 1542.39,1381.67 1542.39,1394.48 1561.61,1394.48 1561.61,1381.67 1580.82,1381.67 1580.82,1368.86 1561.61,1368.86 1561.61,1356.05 1580.82,1356.05 1600.03,1356.05 1600.03,1343.24 1580.82,1343.24 1580.82,1330.44 1561.61,1330.44 1561.61,1343.24 1542.39,1343.24 1542.39,1330.44 1542.39,1317.63 1523.18,1317.63 1523.18,1330.44 1503.97,1330.44 1503.97,1317.63 1484.76,1317.63 1484.76,1304.82 1503.97,1304.82 1523.18,1304.82 1523.18,1292.01 1503.97,1292.01 1503.97,1279.2 1523.18,1279.2 1523.18,1266.39 1542.39,1266.39 1542.39,1279.2 1542.39,1292.01 1561.61,1292.01 1561.61,1279.2 1580.82,1279.2 1600.03,1279.2 1600.03,1266.39 1619.24,1266.39 1619.24,1279.2 1619.24,1292.01 1638.45,1292.01 1638.45,1279.2 1657.67,1279.2 1657.67,1266.39 1638.45,1266.39 1638.45,1253.58 1657.67,1253.58 1676.88,1253.58 1676.88,1240.77 1657.67,1240.77 1657.67,1227.97 1638.45,1227.97 1638.45,1240.77 1619.24,1240.77 1619.24,1227.97 1619.24,1215.16 1600.03,1215.16 1600.03,1227.97 1580.82,1227.97 1580.82,1215.16 1561.61,1215.16 1561.61,1202.35 1580.82,1202.35 1600.03,1202.35 1600.03,1189.54 1580.82,1189.54 1580.82,1176.73 1600.03,1176.73 1600.03,1163.92 1619.24,1163.92 1619.24,1176.73 1619.24,1189.54 1638.45,1189.54 1638.45,1176.73 1657.67,1176.73 1657.67,1163.92 1638.45,1163.92 1638.45,1151.11 1657.67,1151.11 1676.88,1151.11 1676.88,1138.3 1657.67,1138.3 1657.67,1125.49 1676.88,1125.49 1676.88,1112.69 1696.09,1112.69 1696.09,1125.49 1696.09,1138.3 1715.3,1138.3 1715.3,1125.49 1734.51,1125.49 1734.51,1138.3 1753.73,1138.3 1753.73,1151.11 1734.51,1151.11 1715.3,1151.11 1715.3,1163.92 1734.51,1163.92 1734.51,1176.73 1734.51,1189.54 1753.73,1189.54 1753.73,1202.35 1734.51,1202.35 1715.3,1202.35 1715.3,1215.16 1734.51,1215.16 1734.51,1227.97 1753.73,1227.97 1753.73,1215.16 1772.94,1215.16 1772.94,1227.97 1772.94,1240.77 1792.15,1240.77 1792.15,1227.97 1811.36,1227.97 1811.36,1215.16 1792.15,1215.16 1792.15,1202.35 1811.36,1202.35 1830.57,1202.35 1830.57,1189.54 1811.36,1189.54 1811.36,1176.73 1830.57,1176.73 1830.57,1163.92 1849.79,1163.92 1849.79,1176.73 1849.79,1189.54 1869,1189.54 1869,1176.73 1888.21,1176.73 1888.21,1163.92 1869,1163.92 1869,1151.11 1888.21,1151.11 1907.42,1151.11 1907.42,1138.3 1888.21,1138.3 1888.21,1125.49 1869,1125.49 1869,1138.3 1849.79,1138.3 1849.79,1125.49 1849.79,1112.69 1830.57,1112.69 1830.57,1125.49 1811.36,1125.49 1811.36,1112.69 1792.15,1112.69 1792.15,1099.88 1811.36,1099.88 1830.57,1099.88 1830.57,1087.07 1811.36,1087.07 1811.36,1074.26 1830.57,1074.26 1830.57,1061.45 1849.79,1061.45 1849.79,1074.26 1849.79,1087.07 1869,1087.07 1869,1074.26 1888.21,1074.26 1907.42,1074.26 1907.42,1061.45 1926.63,1061.45 1926.63,1074.26 1926.63,1087.07 1945.85,1087.07 1945.85,1074.26 1965.06,1074.26 1965.06,1061.45 1945.85,1061.45 1945.85,1048.64 1965.06,1048.64 1984.27,1048.64 1984.27,1035.83 1965.06,1035.83 1965.06,1023.02 1945.85,1023.02 1945.85,1035.83 1926.63,1035.83 1926.63,1023.02 1926.63,1010.21 1907.42,1010.21 1907.42,1023.02 1888.21,1023.02 1888.21,1010.21 1869,1010.21 1869,997.406 1888.21,997.406 1907.42,997.406 1907.42,984.597 1888.21,984.597 1888.21,971.788 1869,971.788 1869,984.597 1849.79,984.597 1849.79,971.788 1849.79,958.979 1830.57,958.979 1830.57,971.788 1811.36,971.788 1811.36,984.597 1830.57,984.597 1830.57,997.406 1811.36,997.406 1792.15,997.406 1792.15,1010.21 1811.36,1010.21 1811.36,1023.02 1792.15,1023.02 1792.15,1035.83 1772.94,1035.83 1772.94,1023.02 1772.94,1010.21 1753.73,1010.21 1753.73,1023.02 1734.51,1023.02 1734.51,1010.21 1715.3,1010.21 1715.3,997.406 1734.51,997.406 1753.73,997.406 1753.73,984.597 1734.51,984.597 1734.51,971.788 1734.51,958.979 1715.3,958.979 1715.3,946.17 1734.51,946.17 1753.73,946.17 1753.73,933.361 1734.51,933.361 1734.51,920.552 1715.3,920.552 1715.3,933.361 1696.09,933.361 1696.09,920.552 1696.09,907.743 1676.88,907.743 1676.88,920.552 1657.67,920.552 1657.67,933.361 1676.88,933.361 1676.88,946.17 1657.67,946.17 1638.45,946.17 1638.45,958.979 1657.67,958.979 1657.67,971.788 1638.45,971.788 1638.45,984.597 1619.24,984.597 1619.24,971.788 1619.24,958.979 1600.03,958.979 1600.03,971.788 1580.82,971.788 1580.82,958.979 1561.61,958.979 1561.61,946.17 1580.82,946.17 1600.03,946.17 1600.03,933.361 1580.82,933.361 1580.82,920.552 1561.61,920.552 1561.61,933.361 1542.39,933.361 1542.39,920.552 1542.39,907.743 1523.18,907.743 1523.18,920.552 1503.97,920.552 1503.97,907.743 1484.76,907.743 1484.76,894.935 1503.97,894.935 1523.18,894.935 1523.18,882.126 1503.97,882.126 1503.97,869.317 1523.18,869.317 1523.18,856.508 1542.39,856.508 1542.39,869.317 1542.39,882.126 1561.61,882.126 1561.61,869.317 1580.82,869.317 1600.03,869.317 1600.03,856.508 1619.24,856.508 1619.24,869.317 1619.24,882.126 1638.45,882.126 1638.45,869.317 1657.67,869.317 1657.67,856.508 1638.45,856.508 1638.45,843.699 1657.67,843.699 1676.88,843.699 1676.88,830.89 1657.67,830.89 1657.67,818.081 1638.45,818.081 1638.45,830.89 1619.24,830.89 1619.24,818.081 1619.24,805.273 1600.03,805.273 1600.03,818.081 1580.82,818.081 1580.82,805.273 1561.61,805.273 1561.61,792.464 1580.82,792.464 1600.03,792.464 1600.03,779.655 1580.82,779.655 1580.82,766.846 1600.03,766.846 1600.03,754.037 1619.24,754.037 1619.24,766.846 1619.24,779.655 1638.45,779.655 1638.45,766.846 1657.67,766.846 1657.67,754.037 1638.45,754.037 1638.45,741.228 1657.67,741.228 1676.88,741.228 1676.88,728.419 1657.67,728.419 1657.67,715.611 1676.88,715.611 1676.88,702.802 1696.09,702.802 1696.09,715.611 1696.09,728.419 1715.3,728.419 1715.3,715.611 1734.51,715.611 1734.51,728.419 1753.73,728.419 1753.73,741.228 1734.51,741.228 1715.3,741.228 1715.3,754.037 1734.51,754.037 1734.51,766.846 1734.51,779.655 1753.73,779.655 1753.73,792.464 1734.51,792.464 1715.3,792.464 1715.3,805.273 1734.51,805.273 1734.51,818.081 1753.73,818.081 1753.73,805.273 1772.94,805.273 1772.94,818.081 1772.94,830.89 1792.15,830.89 1792.15,818.081 1811.36,818.081 1811.36,805.273 1792.15,805.273 1792.15,792.464 1811.36,792.464 1830.57,792.464 1830.57,779.655 1811.36,779.655 1811.36,766.846 1830.57,766.846 1830.57,754.037 1849.79,754.037 1849.79,766.846 1849.79,779.655 1869,779.655 1869,766.846 1888.21,766.846 1907.42,766.846 1907.42,754.037 1926.63,754.037 1926.63,766.846 1926.63,779.655 1945.85,779.655 1945.85,766.846 1965.06,766.846 1965.06,754.037 1945.85,754.037 1945.85,741.228 1965.06,741.228 1984.27,741.228 1984.27,728.419 1965.06,728.419 1965.06,715.611 1984.27,715.611 1984.27,702.802 2003.48,702.802 2003.48,715.611 2003.48,728.419 2022.69,728.419 2022.69,715.611 2041.91,715.611 2041.91,728.419 2061.12,728.419 2061.12,741.228 2041.91,741.228 2022.69,741.228 2022.69,754.037 2041.91,754.037 2041.91,766.846 2041.91,779.655 2061.12,779.655 2061.12,792.464 2041.91,792.464 2022.69,792.464 2022.69,805.273 2041.91,805.273 2041.91,818.081 2061.12,818.081 2061.12,805.273 2080.33,805.273 2080.33,818.081 2080.33,830.89 2099.54,830.89 2099.54,818.081 2118.75,818.081 2118.75,805.273 2099.54,805.273 2099.54,792.464 2118.75,792.464 2137.97,792.464 2137.97,779.655 2118.75,779.655 2118.75,766.846 2137.97,766.846 2137.97,754.037 2157.18,754.037 2157.18,766.846 2157.18,779.655 2176.39,779.655 2176.39,766.846 2195.6,766.846 2195.6,754.037 2176.39,754.037 2176.39,741.228 2195.6,741.228 2214.81,741.228 2214.81,728.419 2195.6,728.419 2195.6,715.611 2176.39,715.611 2176.39,728.419 2157.18,728.419 2157.18,715.611 2157.18,702.802 2137.97,702.802 2137.97,715.611 2118.75,715.611 2118.75,702.802 2099.54,702.802 2099.54,689.993 2118.75,689.993 2137.97,689.993 2137.97,677.184 2118.75,677.184 2118.75,664.375 2137.97,664.375 2137.97,651.566 2157.18,651.566 2157.18,664.375 2157.18,677.184 2176.39,677.184 2176.39,664.375 2195.6,664.375 2214.81,664.375 2214.81,651.566 2234.03,651.566 2234.03,664.375 2234.03,677.184 2253.24,677.184 2253.24,664.375 2272.45,664.375 2272.45,651.566 2253.24,651.566 2253.24,638.757 2272.45,638.757 2291.66,638.757 2291.66,625.948 2272.45,625.948 2272.45,613.14 2253.24,613.14 2253.24,625.948 2234.03,625.948 2234.03,613.14 2234.03,600.331 2214.81,600.331 2214.81,613.14 2195.6,613.14 2195.6,600.331 2176.39,600.331 2176.39,587.522 2195.6,587.522 2214.81,587.522 2214.81,574.713 2195.6,574.713 2195.6,561.904 2176.39,561.904 2176.39,574.713 2157.18,574.713 2157.18,561.904 2157.18,549.095 2137.97,549.095 2137.97,561.904 2118.75,561.904 2118.75,574.713 2137.97,574.713 2137.97,587.522 2118.75,587.522 2099.54,587.522 2099.54,600.331 2118.75,600.331 2118.75,613.14 2099.54,613.14 2099.54,625.948 2080.33,625.948 2080.33,613.14 2080.33,600.331 2061.12,600.331 2061.12,613.14 2041.91,613.14 2041.91,600.331 2022.69,600.331 2022.69,587.522 2041.91,587.522 2061.12,587.522 2061.12,574.713 2041.91,574.713 2041.91,561.904 2041.91,549.095 2022.69,549.095 2022.69,536.286 2041.91,536.286 2061.12,536.286 2061.12,523.478 2041.91,523.478 2041.91,510.669 2022.69,510.669 2022.69,523.478 2003.48,523.478 2003.48,510.669 2003.48,497.86 1984.27,497.86 1984.27,510.669 1965.06,510.669 1965.06,523.478 1984.27,523.478 1984.27,536.286 1965.06,536.286 1945.85,536.286 1945.85,549.095 1965.06,549.095 1965.06,561.904 1945.85,561.904 1945.85,574.713 1926.63,574.713 1926.63,561.904 1926.63,549.095 1907.42,549.095 1907.42,561.904 1888.21,561.904 1888.21,549.095 1869,549.095 1869,536.286 1888.21,536.286 1907.42,536.286 1907.42,523.478 1888.21,523.478 1888.21,510.669 1869,510.669 1869,523.478 1849.79,523.478 1849.79,510.669 1849.79,497.86 1830.57,497.86 1830.57,510.669 1811.36,510.669 1811.36,497.86 1792.15,497.86 1792.15,485.051 1811.36,485.051 1830.57,485.051 1830.57,472.242 1811.36,472.242 1811.36,459.433 1830.57,459.433 1830.57,446.624 1849.79,446.624 1849.79,459.433 1849.79,472.242 1869,472.242 1869,459.433 1888.21,459.433 1907.42,459.433 1907.42,446.624 1926.63,446.624 1926.63,459.433 1926.63,472.242 1945.85,472.242 1945.85,459.433 1965.06,459.433 1965.06,446.624 1945.85,446.624 1945.85,433.816 1965.06,433.816 1984.27,433.816 1984.27,421.007 1965.06,421.007 1965.06,408.198 1945.85,408.198 1945.85,421.007 1926.63,421.007 1926.63,408.198 1926.63,395.389 1907.42,395.389 1907.42,408.198 1888.21,408.198 1888.21,395.389 1869,395.389 1869,382.58 1888.21,382.58 1907.42,382.58 1907.42,369.771 1888.21,369.771 1888.21,356.962 1869,356.962 1869,369.771 1849.79,369.771 1849.79,356.962 1849.79,344.154 1830.57,344.154 1830.57,356.962 1811.36,356.962 1811.36,369.771 1830.57,369.771 1830.57,382.58 1811.36,382.58 1792.15,382.58 1792.15,395.389 1811.36,395.389 1811.36,408.198 1792.15,408.198 1792.15,421.007 1772.94,421.007 1772.94,408.198 1772.94,395.389 1753.73,395.389 1753.73,408.198 1734.51,408.198 1734.51,395.389 1715.3,395.389 1715.3,382.58 1734.51,382.58 1753.73,382.58 1753.73,369.771 1734.51,369.771 1734.51,356.962 1734.51,344.154 1715.3,344.154 1715.3,331.345 1734.51,331.345 1753.73,331.345 1753.73,318.536 1734.51,318.536 1734.51,305.727 1715.3,305.727 1715.3,318.536 1696.09,318.536 1696.09,305.727 1696.09,292.918 1676.88,292.918 1676.88,305.727 1657.67,305.727 1657.67,318.536 1676.88,318.536 1676.88,331.345 1657.67,331.345 1638.45,331.345 1638.45,344.154 1657.67,344.154 1657.67,356.962 1638.45,356.962 1638.45,369.771 1619.24,369.771 1619.24,356.962 1619.24,344.154 1600.03,344.154 1600.03,356.962 1580.82,356.962 1580.82,369.771 1600.03,369.771 1600.03,382.58 1580.82,382.58 1561.61,382.58 1561.61,395.389 1580.82,395.389 1580.82,408.198 1600.03,408.198 1600.03,395.389 1619.24,395.389 1619.24,408.198 1619.24,421.007 1638.45,421.007 1638.45,408.198 1657.67,408.198 1657.67,421.007 1676.88,421.007 1676.88,433.816 1657.67,433.816 1638.45,433.816 1638.45,446.624 1657.67,446.624 1657.67,459.433 1638.45,459.433 1638.45,472.242 1619.24,472.242 1619.24,459.433 1619.24,446.624 1600.03,446.624 1600.03,459.433 1580.82,459.433 1561.61,459.433 1561.61,472.242 1542.39,472.242 1542.39,459.433 1542.39,446.624 1523.18,446.624 1523.18,459.433 1503.97,459.433 1503.97,472.242 1523.18,472.242 1523.18,485.051 1503.97,485.051 1484.76,485.051 1484.76,497.86 1503.97,497.86 1503.97,510.669 1523.18,510.669 1523.18,497.86 1542.39,497.86 1542.39,510.669 1542.39,523.478 1561.61,523.478 1561.61,510.669 1580.82,510.669 1580.82,523.478 1600.03,523.478 1600.03,536.286 1580.82,536.286 1561.61,536.286 1561.61,549.095 1580.82,549.095 1580.82,561.904 1561.61,561.904 1561.61,574.713 1542.39,574.713 1542.39,561.904 1542.39,549.095 1523.18,549.095 1523.18,561.904 1503.97,561.904 1503.97,574.713 1523.18,574.713 1523.18,587.522 1503.97,587.522 1484.76,587.522 1484.76,600.331 1503.97,600.331 1503.97,613.14 1484.76,613.14 1484.76,625.948 1465.55,625.948 1465.55,613.14 1465.55,600.331 1446.33,600.331 1446.33,613.14 1427.12,613.14 1427.12,600.331 1407.91,600.331 1407.91,587.522 1427.12,587.522 1446.33,587.522 1446.33,574.713 1427.12,574.713 1427.12,561.904 1427.12,549.095 1407.91,549.095 1407.91,536.286 1427.12,536.286 1446.33,536.286 1446.33,523.478 1427.12,523.478 1427.12,510.669 1407.91,510.669 1407.91,523.478 1388.7,523.478 1388.7,510.669 1388.7,497.86 1369.49,497.86 1369.49,510.669 1350.27,510.669 1350.27,523.478 1369.49,523.478 1369.49,536.286 1350.27,536.286 1331.06,536.286 1331.06,549.095 1350.27,549.095 1350.27,561.904 1331.06,561.904 1331.06,574.713 1311.85,574.713 1311.85,561.904 1311.85,549.095 1292.64,549.095 1292.64,561.904 1273.43,561.904 1273.43,549.095 1254.21,549.095 1254.21,536.286 1273.43,536.286 1292.64,536.286 1292.64,523.478 1273.43,523.478 1273.43,510.669 1254.21,510.669 1254.21,523.478 1235,523.478 1235,510.669 1235,497.86 1215.79,497.86 1215.79,510.669 1196.58,510.669 1196.58,497.86 1177.37,497.86 1177.37,485.051 1196.58,485.051 1215.79,485.051 1215.79,472.242 1196.58,472.242 1196.58,459.433 1215.79,459.433 1215.79,446.624 1235,446.624 1235,459.433 1235,472.242 1254.21,472.242 1254.21,459.433 1273.43,459.433 1292.64,459.433 1292.64,446.624 1311.85,446.624 1311.85,459.433 1311.85,472.242 1331.06,472.242 1331.06,459.433 1350.27,459.433 1350.27,446.624 1331.06,446.624 1331.06,433.816 1350.27,433.816 1369.49,433.816 1369.49,421.007 1350.27,421.007 1350.27,408.198 1331.06,408.198 1331.06,421.007 1311.85,421.007 1311.85,408.198 1311.85,395.389 1292.64,395.389 1292.64,408.198 1273.43,408.198 1273.43,395.389 1254.21,395.389 1254.21,382.58 1273.43,382.58 1292.64,382.58 1292.64,369.771 1273.43,369.771 1273.43,356.962 1273.43,344.154 1254.21,344.154 1254.21,331.345 1273.43,331.345 1292.64,331.345 1292.64,318.536 1273.43,318.536 1273.43,305.727 1254.21,305.727 1254.21,318.536 1235,318.536 1235,305.727 1235,292.918 1215.79,292.918 1215.79,305.727 1196.58,305.727 1196.58,292.918 1177.37,292.918 1177.37,280.109 1196.58,280.109 1215.79,280.109 1215.79,267.3 1196.58,267.3 1196.58,254.491 1215.79,254.491 1215.79,241.683 1235,241.683 1235,254.491 1235,267.3 1254.21,267.3 1254.21,254.491 1273.43,254.491 1292.64,254.491 1292.64,241.683 1311.85,241.683 1311.85,254.491 1311.85,267.3 1331.06,267.3 1331.06,254.491 1350.27,254.491 1350.27,241.683 1331.06,241.683 1331.06,228.874 1350.27,228.874 1369.49,228.874 1369.49,216.065 1350.27,216.065 1350.27,203.256 1331.06,203.256 1331.06,216.065 1311.85,216.065 1311.85,203.256 1311.85,190.447 1292.64,190.447 1292.64,203.256 1273.43,203.256 1273.43,190.447 1254.21,190.447 1254.21,177.638 1273.43,177.638 1292.64,177.638 1292.64,164.829 1273.43,164.829 1273.43,152.021 1254.21,152.021 1254.21,164.829 1235,164.829 1235,152.021 1235,139.212 1215.79,139.212 1215.79,152.021 1196.58,152.021 1196.58,164.829 1215.79,164.829 1215.79,177.638 1196.58,177.638 1177.37,177.638 1177.37,190.447 1196.58,190.447 1196.58,203.256 1177.37,203.256 1177.37,216.065 1158.16,216.065 1158.16,203.256 1158.16,190.447 1138.94,190.447 1138.94,203.256 1119.73,203.256 1119.73,190.447 1100.52,190.447 1100.52,177.638 1119.73,177.638 1138.94,177.638 1138.94,164.829 1119.73,164.829 1119.73,152.021 1119.73,139.212 1100.52,139.212 1100.52,126.403 1119.73,126.403 1138.94,126.403 1138.94,113.594 1119.73,113.594 1119.73,100.785 1100.52,100.785 1100.52,113.594 1081.31,113.594 1081.31,100.785 1081.31,87.9763 1062.1,87.9763 1062.1,100.785 1042.88,100.785 1042.88,113.594 1062.1,113.594 1062.1,126.403 1042.88,126.403 1023.67,126.403 1023.67,139.212 1042.88,139.212 1042.88,152.021 1023.67,152.021 1023.67,164.829 1004.46,164.829 1004.46,152.021 1004.46,139.212 985.247,139.212 985.247,152.021 966.035,152.021 966.035,164.829 985.247,164.829 985.247,177.638 966.035,177.638 946.823,177.638 946.823,190.447 966.035,190.447 966.035,203.256 985.247,203.256 985.247,190.447 1004.46,190.447 1004.46,203.256 1004.46,216.065 1023.67,216.065 1023.67,203.256 1042.88,203.256 1042.88,216.065 1062.1,216.065 1062.1,228.874 1042.88,228.874 1023.67,228.874 1023.67,241.683 1042.88,241.683 1042.88,254.491 1023.67,254.491 1023.67,267.3 1004.46,267.3 1004.46,254.491 1004.46,241.683 985.247,241.683 985.247,254.491 966.035,254.491 946.823,254.491 946.823,267.3 927.611,267.3 927.611,254.491 927.611,241.683 908.399,241.683 908.399,254.491 889.187,254.491 889.187,267.3 908.399,267.3 908.399,280.109 889.187,280.109 869.975,280.109 869.975,292.918 889.187,292.918 889.187,305.727 908.399,305.727 908.399,292.918 927.611,292.918 927.611,305.727 927.611,318.536 946.823,318.536 946.823,305.727 966.035,305.727 966.035,318.536 985.247,318.536 985.247,331.345 966.035,331.345 946.823,331.345 946.823,344.154 966.035,344.154 966.035,356.962 946.823,356.962 946.823,369.771 927.611,369.771 927.611,356.962 927.611,344.154 908.399,344.154 908.399,356.962 889.187,356.962 889.187,369.771 908.399,369.771 908.399,382.58 889.187,382.58 869.975,382.58 869.975,395.389 889.187,395.389 889.187,408.198 869.975,408.198 869.975,421.007 850.763,421.007 850.763,408.198 850.763,395.389 831.551,395.389 831.551,408.198 812.339,408.198 812.339,395.389 793.128,395.389 793.128,382.58 812.339,382.58 831.551,382.58 831.551,369.771 812.339,369.771 812.339,356.962 812.339,344.154 793.128,344.154 793.128,331.345 812.339,331.345 831.551,331.345 831.551,318.536 812.339,318.536 812.339,305.727 793.128,305.727 793.128,318.536 773.916,318.536 773.916,305.727 773.916,292.918 754.704,292.918 754.704,305.727 735.492,305.727 735.492,318.536 754.704,318.536 754.704,331.345 735.492,331.345 716.28,331.345 716.28,344.154 735.492,344.154 735.492,356.962 716.28,356.962 716.28,369.771 697.068,369.771 697.068,356.962 697.068,344.154 677.856,344.154 677.856,356.962 658.644,356.962 658.644,369.771 677.856,369.771 677.856,382.58 658.644,382.58 639.432,382.58 639.432,395.389 658.644,395.389 658.644,408.198 677.856,408.198 677.856,395.389 697.068,395.389 697.068,408.198 697.068,421.007 716.28,421.007 716.28,408.198 735.492,408.198 735.492,421.007 754.704,421.007 754.704,433.816 735.492,433.816 716.28,433.816 716.28,446.624 735.492,446.624 735.492,459.433 716.28,459.433 716.28,472.242 697.068,472.242 697.068,459.433 697.068,446.624 677.856,446.624 677.856,459.433 658.644,459.433 639.432,459.433 639.432,472.242 620.22,472.242 620.22,459.433 620.22,446.624 601.008,446.624 601.008,459.433 581.796,459.433 581.796,472.242 601.008,472.242 601.008,485.051 581.796,485.051 562.584,485.051 562.584,497.86 581.796,497.86 581.796,510.669 601.008,510.669 601.008,497.86 620.22,497.86 620.22,510.669 620.22,523.478 639.432,523.478 639.432,510.669 658.644,510.669 658.644,523.478 677.856,523.478 677.856,536.286 658.644,536.286 639.432,536.286 639.432,549.095 658.644,549.095 658.644,561.904 677.856,561.904 677.856,549.095 697.068,549.095 697.068,561.904 697.068,574.713 716.28,574.713 716.28,561.904 735.492,561.904 735.492,549.095 716.28,549.095 716.28,536.286 735.492,536.286 754.704,536.286 754.704,523.478 735.492,523.478 735.492,510.669 754.704,510.669 754.704,497.86 773.916,497.86 773.916,510.669 773.916,523.478 793.128,523.478 793.128,510.669 812.339,510.669 812.339,523.478 831.551,523.478 831.551,536.286 812.339,536.286 793.128,536.286 793.128,549.095 812.339,549.095 812.339,561.904 812.339,574.713 831.551,574.713 831.551,587.522 812.339,587.522 793.128,587.522 793.128,600.331 812.339,600.331 812.339,613.14 831.551,613.14 831.551,600.331 850.763,600.331 850.763,613.14 850.763,625.948 869.975,625.948 869.975,613.14 889.187,613.14 889.187,600.331 869.975,600.331 869.975,587.522 889.187,587.522 908.399,587.522 908.399,574.713 889.187,574.713 889.187,561.904 908.399,561.904 908.399,549.095 927.611,549.095 927.611,561.904 927.611,574.713 946.823,574.713 946.823,561.904 966.035,561.904 966.035,574.713 985.247,574.713 985.247,587.522 966.035,587.522 946.823,587.522 946.823,600.331 966.035,600.331 966.035,613.14 985.247,613.14 985.247,600.331 1004.46,600.331 1004.46,613.14 1004.46,625.948 1023.67,625.948 1023.67,613.14 1042.88,613.14 1042.88,625.948 1062.1,625.948 1062.1,638.757 1042.88,638.757 1023.67,638.757 1023.67,651.566 1042.88,651.566 1042.88,664.375 1023.67,664.375 1023.67,677.184 1004.46,677.184 1004.46,664.375 1004.46,651.566 985.247,651.566 985.247,664.375 966.035,664.375 946.823,664.375 946.823,677.184 927.611,677.184 927.611,664.375 927.611,651.566 908.399,651.566 908.399,664.375 889.187,664.375 889.187,677.184 908.399,677.184 908.399,689.993 889.187,689.993 869.975,689.993 869.975,702.802 889.187,702.802 889.187,715.611 908.399,715.611 908.399,702.802 927.611,702.802 927.611,715.611 927.611,728.419 946.823,728.419 946.823,715.611 966.035,715.611 966.035,728.419 985.247,728.419 985.247,741.228 966.035,741.228 946.823,741.228 946.823,754.037 966.035,754.037 966.035,766.846 946.823,766.846 946.823,779.655 927.611,779.655 927.611,766.846 927.611,754.037 908.399,754.037 908.399,766.846 889.187,766.846 889.187,779.655 908.399,779.655 908.399,792.464 889.187,792.464 869.975,792.464 869.975,805.273 889.187,805.273 889.187,818.081 869.975,818.081 869.975,830.89 850.763,830.89 850.763,818.081 850.763,805.273 831.551,805.273 831.551,818.081 812.339,818.081 812.339,805.273 793.128,805.273 793.128,792.464 812.339,792.464 831.551,792.464 831.551,779.655 812.339,779.655 812.339,766.846 812.339,754.037 793.128,754.037 793.128,741.228 812.339,741.228 831.551,741.228 831.551,728.419 812.339,728.419 812.339,715.611 793.128,715.611 793.128,728.419 773.916,728.419 773.916,715.611 773.916,702.802 754.704,702.802 754.704,715.611 735.492,715.611 735.492,728.419 754.704,728.419 754.704,741.228 735.492,741.228 716.28,741.228 716.28,754.037 735.492,754.037 735.492,766.846 716.28,766.846 716.28,779.655 697.068,779.655 697.068,766.846 697.068,754.037 677.856,754.037 677.856,766.846 658.644,766.846 639.432,766.846 639.432,779.655 620.22,779.655 620.22,766.846 620.22,754.037 601.008,754.037 601.008,766.846 581.796,766.846 581.796,779.655 601.008,779.655 601.008,792.464 581.796,792.464 562.584,792.464 562.584,805.273 581.796,805.273 581.796,818.081 562.584,818.081 562.584,830.89 543.372,830.89 543.372,818.081 543.372,805.273 524.16,805.273 524.16,818.081 504.948,818.081 504.948,805.273 485.736,805.273 485.736,792.464 504.948,792.464 524.16,792.464 524.16,779.655 504.948,779.655 504.948,766.846 504.948,754.037 485.736,754.037 485.736,741.228 504.948,741.228 524.16,741.228 524.16,728.419 504.948,728.419 504.948,715.611 485.736,715.611 485.736,728.419 466.524,728.419 466.524,715.611 466.524,702.802 447.312,702.802 447.312,715.611 428.1,715.611 428.1,728.419 447.312,728.419 447.312,741.228 428.1,741.228 408.888,741.228 408.888,754.037 428.1,754.037 428.1,766.846 408.888,766.846 408.888,779.655 389.676,779.655 389.676,766.846 389.676,754.037 370.464,754.037 370.464,766.846 351.252,766.846 351.252,779.655 370.464,779.655 370.464,792.464 351.252,792.464 332.04,792.464 332.04,805.273 351.252,805.273 351.252,818.081 370.464,818.081 370.464,805.273 389.676,805.273 389.676,818.081 389.676,830.89 408.888,830.89 408.888,818.081 428.1,818.081 428.1,830.89 447.312,830.89 447.312,843.699 428.1,843.699 408.888,843.699 408.888,856.508 428.1,856.508 428.1,869.317 408.888,869.317 408.888,882.126 389.676,882.126 389.676,869.317 389.676,856.508 370.464,856.508 370.464,869.317 351.252,869.317 332.04,869.317 332.04,882.126 312.828,882.126 312.828,869.317 312.828,856.508 293.616,856.508 293.616,869.317 274.404,869.317 274.404,882.126 293.616,882.126 293.616,894.935 274.404,894.935 255.192,894.935 255.192,907.743 274.404,907.743 274.404,920.552 293.616,920.552 293.616,907.743 312.828,907.743 312.828,920.552 312.828,933.361 332.04,933.361 332.04,920.552 351.252,920.552 351.252,933.361 370.464,933.361 370.464,946.17 351.252,946.17 332.04,946.17 332.04,958.979 351.252,958.979 351.252,971.788 370.464,971.788 370.464,958.979 389.676,958.979 389.676,971.788 389.676,984.597 408.888,984.597 408.888,971.788 428.1,971.788 428.1,958.979 408.888,958.979 408.888,946.17 428.1,946.17 447.312,946.17 447.312,933.361 428.1,933.361 428.1,920.552 447.312,920.552 447.312,907.743 466.524,907.743 466.524,920.552 466.524,933.361 485.736,933.361 485.736,920.552 504.948,920.552 504.948,933.361 524.16,933.361 524.16,946.17 504.948,946.17 485.736,946.17 485.736,958.979 504.948,958.979 504.948,971.788 504.948,984.597 524.16,984.597 524.16,997.406 504.948,997.406 485.736,997.406 485.736,1010.21 504.948,1010.21 504.948,1023.02 524.16,1023.02 524.16,1010.21 543.372,1010.21 543.372,1023.02 543.372,1035.83 562.584,1035.83 562.584,1023.02 581.796,1023.02 581.796,1010.21 562.584,1010.21 562.584,997.406 581.796,997.406 601.008,997.406 601.008,984.597 581.796,984.597 581.796,971.788 601.008,971.788 601.008,958.979 620.22,958.979 620.22,971.788 620.22,984.597 639.432,984.597 639.432,971.788 658.644,971.788 658.644,984.597 677.856,984.597 677.856,997.406 658.644,997.406 639.432,997.406 639.432,1010.21 658.644,1010.21 658.644,1023.02 677.856,1023.02 677.856,1010.21 697.068,1010.21 697.068,1023.02 697.068,1035.83 716.28,1035.83 716.28,1023.02 735.492,1023.02 735.492,1035.83 754.704,1035.83 754.704,1048.64 735.492,1048.64 716.28,1048.64 716.28,1061.45 735.492,1061.45 735.492,1074.26 716.28,1074.26 716.28,1087.07 697.068,1087.07 697.068,1074.26 697.068,1061.45 677.856,1061.45 677.856,1074.26 658.644,1074.26 639.432,1074.26 639.432,1087.07 620.22,1087.07 620.22,1074.26 620.22,1061.45 601.008,1061.45 601.008,1074.26 581.796,1074.26 581.796,1087.07 601.008,1087.07 601.008,1099.88 581.796,1099.88 562.584,1099.88 562.584,1112.69 581.796,1112.69 581.796,1125.49 601.008,1125.49 601.008,1112.69 620.22,1112.69 620.22,1125.49 620.22,1138.3 639.432,1138.3 639.432,1125.49 658.644,1125.49 658.644,1138.3 677.856,1138.3 677.856,1151.11 658.644,1151.11 639.432,1151.11 639.432,1163.92 658.644,1163.92 658.644,1176.73 "/>
<polyline clip-path="url(#clip272)" style="stroke:#0000ff; stroke-linecap:round; stroke-linejoin:round; stroke-width:8; stroke-opacity:1; fill:none" points="658.644,1176.73 1888.21,1176.73 1888.21,356.962 658.644,356.962 658.644,1176.73 "/>
<path clip-path="url(#clip270)" d="M266.053 1438.47 L632.057 1438.47 L632.057 1282.95 L266.053 1282.95  Z" fill="#ffffff" fill-rule="evenodd" fill-opacity="1"/>
<polyline clip-path="url(#clip270)" style="stroke:#000000; stroke-linecap:round; stroke-linejoin:round; stroke-width:4; stroke-opacity:1; fill:none" points="266.053,1438.47 632.057,1438.47 632.057,1282.95 266.053,1282.95 266.053,1438.47 "/>
<polyline clip-path="url(#clip270)" style="stroke:#008000; stroke-linecap:round; stroke-linejoin:round; stroke-width:8; stroke-opacity:1; fill:none" points="290.038,1334.79 433.949,1334.79 "/>
<path clip-path="url(#clip270)" d="M457.934 1317.51 L477.795 1317.51 L477.795 1321.45 L462.61 1321.45 L462.61 1331.63 L476.314 1331.63 L476.314 1335.57 L462.61 1335.57 L462.61 1352.07 L457.934 1352.07 L457.934 1317.51 Z" fill="#000000" fill-rule="nonzero" fill-opacity="1" /><path clip-path="url(#clip270)" d="M496.591 1330.13 Q495.874 1329.71 495.017 1329.53 Q494.184 1329.32 493.165 1329.32 Q489.554 1329.32 487.61 1331.68 Q485.688 1334.02 485.688 1338.42 L485.688 1352.07 L481.406 1352.07 L481.406 1326.15 L485.688 1326.15 L485.688 1330.18 Q487.031 1327.82 489.184 1326.68 Q491.337 1325.52 494.415 1325.52 Q494.855 1325.52 495.387 1325.59 Q495.92 1325.64 496.568 1325.76 L496.591 1330.13 Z" fill="#000000" fill-rule="nonzero" fill-opacity="1" /><path clip-path="url(#clip270)" d="M512.841 1339.04 Q507.679 1339.04 505.688 1340.22 Q503.698 1341.4 503.698 1344.25 Q503.698 1346.52 505.179 1347.86 Q506.684 1349.18 509.253 1349.18 Q512.795 1349.18 514.924 1346.68 Q517.077 1344.16 517.077 1339.99 L517.077 1339.04 L512.841 1339.04 M521.336 1337.28 L521.336 1352.07 L517.077 1352.07 L517.077 1348.14 Q515.619 1350.5 513.443 1351.63 Q511.267 1352.75 508.119 1352.75 Q504.137 1352.75 501.776 1350.52 Q499.438 1348.28 499.438 1344.53 Q499.438 1340.15 502.355 1337.93 Q505.295 1335.71 511.105 1335.71 L517.077 1335.71 L517.077 1335.29 Q517.077 1332.35 515.133 1330.76 Q513.211 1329.13 509.716 1329.13 Q507.494 1329.13 505.387 1329.67 Q503.281 1330.2 501.337 1331.26 L501.337 1327.33 Q503.674 1326.43 505.874 1325.99 Q508.073 1325.52 510.156 1325.52 Q515.781 1325.52 518.559 1328.44 Q521.336 1331.36 521.336 1337.28 Z" fill="#000000" fill-rule="nonzero" fill-opacity="1" /><path clip-path="url(#clip270)" d="M548.767 1327.14 L548.767 1331.13 Q546.961 1330.13 545.133 1329.64 Q543.327 1329.13 541.475 1329.13 Q537.332 1329.13 535.04 1331.77 Q532.748 1334.39 532.748 1339.13 Q532.748 1343.88 535.04 1346.52 Q537.332 1349.13 541.475 1349.13 Q543.327 1349.13 545.133 1348.65 Q546.961 1348.14 548.767 1347.14 L548.767 1351.08 Q546.984 1351.91 545.063 1352.33 Q543.165 1352.75 541.012 1352.75 Q535.156 1352.75 531.707 1349.07 Q528.258 1345.38 528.258 1339.13 Q528.258 1332.79 531.73 1329.16 Q535.225 1325.52 541.29 1325.52 Q543.258 1325.52 545.133 1325.94 Q547.008 1326.33 548.767 1327.14 Z" fill="#000000" fill-rule="nonzero" fill-opacity="1" /><path clip-path="url(#clip270)" d="M560.387 1318.79 L560.387 1326.15 L569.16 1326.15 L569.16 1329.46 L560.387 1329.46 L560.387 1343.53 Q560.387 1346.7 561.244 1347.61 Q562.123 1348.51 564.785 1348.51 L569.16 1348.51 L569.16 1352.07 L564.785 1352.07 Q559.855 1352.07 557.98 1350.25 Q556.105 1348.39 556.105 1343.53 L556.105 1329.46 L552.98 1329.46 L552.98 1326.15 L556.105 1326.15 L556.105 1318.79 L560.387 1318.79 Z" fill="#000000" fill-rule="nonzero" fill-opacity="1" /><path clip-path="url(#clip270)" d="M586.544 1339.04 Q581.382 1339.04 579.392 1340.22 Q577.401 1341.4 577.401 1344.25 Q577.401 1346.52 578.882 1347.86 Q580.387 1349.18 582.956 1349.18 Q586.498 1349.18 588.628 1346.68 Q590.781 1344.16 590.781 1339.99 L590.781 1339.04 L586.544 1339.04 M595.04 1337.28 L595.04 1352.07 L590.781 1352.07 L590.781 1348.14 Q589.322 1350.5 587.146 1351.63 Q584.97 1352.75 581.822 1352.75 Q577.841 1352.75 575.48 1350.52 Q573.142 1348.28 573.142 1344.53 Q573.142 1340.15 576.058 1337.93 Q578.998 1335.71 584.808 1335.71 L590.781 1335.71 L590.781 1335.29 Q590.781 1332.35 588.836 1330.76 Q586.915 1329.13 583.419 1329.13 Q581.197 1329.13 579.091 1329.67 Q576.984 1330.2 575.04 1331.26 L575.04 1327.33 Q577.378 1326.43 579.577 1325.99 Q581.776 1325.52 583.859 1325.52 Q589.484 1325.52 592.262 1328.44 Q595.04 1331.36 595.04 1337.28 Z" fill="#000000" fill-rule="nonzero" fill-opacity="1" /><path clip-path="url(#clip270)" d="M603.813 1316.06 L608.072 1316.06 L608.072 1352.07 L603.813 1352.07 L603.813 1316.06 Z" fill="#000000" fill-rule="nonzero" fill-opacity="1" /><polyline clip-path="url(#clip270)" style="stroke:#0000ff; stroke-linecap:round; stroke-linejoin:round; stroke-width:8; stroke-opacity:1; fill:none" points="290.038,1386.63 433.949,1386.63 "/>
<path clip-path="url(#clip270)" d="M476.707 1390.97 Q476.707 1386.28 474.763 1383.61 Q472.841 1380.93 469.462 1380.93 Q466.082 1380.93 464.138 1383.61 Q462.216 1386.28 462.216 1390.97 Q462.216 1395.67 464.138 1398.36 Q466.082 1401.02 469.462 1401.02 Q472.841 1401.02 474.763 1398.36 Q476.707 1395.67 476.707 1390.97 M462.216 1381.92 Q463.559 1379.61 465.596 1378.5 Q467.656 1377.36 470.503 1377.36 Q475.226 1377.36 478.165 1381.11 Q481.128 1384.86 481.128 1390.97 Q481.128 1397.09 478.165 1400.84 Q475.226 1404.59 470.503 1404.59 Q467.656 1404.59 465.596 1403.47 Q463.559 1402.34 462.216 1400.03 L462.216 1403.91 L457.934 1403.91 L457.934 1367.9 L462.216 1367.9 L462.216 1381.92 Z" fill="#000000" fill-rule="nonzero" fill-opacity="1" /><path clip-path="url(#clip270)" d="M498.235 1380.97 Q494.809 1380.97 492.818 1383.66 Q490.827 1386.32 490.827 1390.97 Q490.827 1395.63 492.795 1398.31 Q494.786 1400.97 498.235 1400.97 Q501.637 1400.97 503.628 1398.29 Q505.619 1395.6 505.619 1390.97 Q505.619 1386.37 503.628 1383.68 Q501.637 1380.97 498.235 1380.97 M498.235 1377.36 Q503.79 1377.36 506.962 1380.97 Q510.133 1384.59 510.133 1390.97 Q510.133 1397.34 506.962 1400.97 Q503.79 1404.59 498.235 1404.59 Q492.656 1404.59 489.485 1400.97 Q486.337 1397.34 486.337 1390.97 Q486.337 1384.59 489.485 1380.97 Q492.656 1377.36 498.235 1377.36 Z" fill="#000000" fill-rule="nonzero" fill-opacity="1" /><path clip-path="url(#clip270)" d="M537.285 1377.99 L527.91 1390.6 L537.772 1403.91 L532.748 1403.91 L525.202 1393.73 L517.656 1403.91 L512.633 1403.91 L522.702 1390.35 L513.489 1377.99 L518.512 1377.99 L525.387 1387.22 L532.262 1377.99 L537.285 1377.99 Z" fill="#000000" fill-rule="nonzero" fill-opacity="1" /></svg>
