<?xml version="1.0" encoding="utf-8"?>
<svg xmlns="http://www.w3.org/2000/svg" xmlns:xlink="http://www.w3.org/1999/xlink" width="600" height="400" viewBox="0 0 2400 1600">
<defs>
  <clipPath id="clip890">
    <rect x="0" y="0" width="2400" height="1600"/>
  </clipPath>
</defs>
<path clip-path="url(#clip890)" d="M0 1600 L2400 1600 L2400 0 L0 0  Z" fill="#ffffff" fill-rule="evenodd" fill-opacity="1"/>
<defs>
  <clipPath id="clip891">
    <rect x="480" y="0" width="1681" height="1600"/>
  </clipPath>
</defs>
<path clip-path="url(#clip890)" d="M257.366 1423.18 L2112.76 1423.18 L2112.76 123.472 L257.366 123.472  Z" fill="#ffffff" fill-rule="evenodd" fill-opacity="1"/>
<defs>
  <clipPath id="clip892">
    <rect x="257" y="123" width="1856" height="1301"/>
  </clipPath>
</defs>
<polyline clip-path="url(#clip892)" style="stroke:#000000; stroke-linecap:round; stroke-linejoin:round; stroke-width:2; stroke-opacity:0.1; fill:none" points="538.771,1423.18 538.771,123.472 "/>
<polyline clip-path="url(#clip892)" style="stroke:#000000; stroke-linecap:round; stroke-linejoin:round; stroke-width:2; stroke-opacity:0.1; fill:none" points="861.916,1423.18 861.916,123.472 "/>
<polyline clip-path="url(#clip892)" style="stroke:#000000; stroke-linecap:round; stroke-linejoin:round; stroke-width:2; stroke-opacity:0.1; fill:none" points="1185.06,1423.18 1185.06,123.472 "/>
<polyline clip-path="url(#clip892)" style="stroke:#000000; stroke-linecap:round; stroke-linejoin:round; stroke-width:2; stroke-opacity:0.1; fill:none" points="1508.21,1423.18 1508.21,123.472 "/>
<polyline clip-path="url(#clip892)" style="stroke:#000000; stroke-linecap:round; stroke-linejoin:round; stroke-width:2; stroke-opacity:0.1; fill:none" points="1831.35,1423.18 1831.35,123.472 "/>
<polyline clip-path="url(#clip892)" style="stroke:#000000; stroke-linecap:round; stroke-linejoin:round; stroke-width:2; stroke-opacity:0.1; fill:none" points="257.366,1226.05 2112.76,1226.05 "/>
<polyline clip-path="url(#clip892)" style="stroke:#000000; stroke-linecap:round; stroke-linejoin:round; stroke-width:2; stroke-opacity:0.1; fill:none" points="257.366,999.69 2112.76,999.69 "/>
<polyline clip-path="url(#clip892)" style="stroke:#000000; stroke-linecap:round; stroke-linejoin:round; stroke-width:2; stroke-opacity:0.1; fill:none" points="257.366,773.326 2112.76,773.326 "/>
<polyline clip-path="url(#clip892)" style="stroke:#000000; stroke-linecap:round; stroke-linejoin:round; stroke-width:2; stroke-opacity:0.1; fill:none" points="257.366,546.962 2112.76,546.962 "/>
<polyline clip-path="url(#clip892)" style="stroke:#000000; stroke-linecap:round; stroke-linejoin:round; stroke-width:2; stroke-opacity:0.1; fill:none" points="257.366,320.598 2112.76,320.598 "/>
<polyline clip-path="url(#clip890)" style="stroke:#000000; stroke-linecap:round; stroke-linejoin:round; stroke-width:4; stroke-opacity:1; fill:none" points="257.366,1423.18 2112.76,1423.18 "/>
<polyline clip-path="url(#clip890)" style="stroke:#000000; stroke-linecap:round; stroke-linejoin:round; stroke-width:4; stroke-opacity:1; fill:none" points="538.771,1423.18 538.771,1404.28 "/>
<polyline clip-path="url(#clip890)" style="stroke:#000000; stroke-linecap:round; stroke-linejoin:round; stroke-width:4; stroke-opacity:1; fill:none" points="861.916,1423.18 861.916,1404.28 "/>
<polyline clip-path="url(#clip890)" style="stroke:#000000; stroke-linecap:round; stroke-linejoin:round; stroke-width:4; stroke-opacity:1; fill:none" points="1185.06,1423.18 1185.06,1404.28 "/>
<polyline clip-path="url(#clip890)" style="stroke:#000000; stroke-linecap:round; stroke-linejoin:round; stroke-width:4; stroke-opacity:1; fill:none" points="1508.21,1423.18 1508.21,1404.28 "/>
<polyline clip-path="url(#clip890)" style="stroke:#000000; stroke-linecap:round; stroke-linejoin:round; stroke-width:4; stroke-opacity:1; fill:none" points="1831.35,1423.18 1831.35,1404.28 "/>
<path clip-path="url(#clip890)" d="M485.218 1468.75 L514.894 1468.75 L514.894 1472.69 L485.218 1472.69 L485.218 1468.75 Z" fill="#000000" fill-rule="nonzero" fill-opacity="1" /><path clip-path="url(#clip890)" d="M534.987 1454.1 Q531.376 1454.1 529.547 1457.66 Q527.741 1461.2 527.741 1468.33 Q527.741 1475.44 529.547 1479.01 Q531.376 1482.55 534.987 1482.55 Q538.621 1482.55 540.426 1479.01 Q542.255 1475.44 542.255 1468.33 Q542.255 1461.2 540.426 1457.66 Q538.621 1454.1 534.987 1454.1 M534.987 1450.39 Q540.797 1450.39 543.852 1455 Q546.931 1459.58 546.931 1468.33 Q546.931 1477.06 543.852 1481.67 Q540.797 1486.25 534.987 1486.25 Q529.176 1486.25 526.098 1481.67 Q523.042 1477.06 523.042 1468.33 Q523.042 1459.58 526.098 1455 Q529.176 1450.39 534.987 1450.39 Z" fill="#000000" fill-rule="nonzero" fill-opacity="1" /><path clip-path="url(#clip890)" d="M555.149 1479.7 L560.033 1479.7 L560.033 1485.58 L555.149 1485.58 L555.149 1479.7 Z" fill="#000000" fill-rule="nonzero" fill-opacity="1" /><path clip-path="url(#clip890)" d="M580.797 1466.44 Q577.648 1466.44 575.797 1468.59 Q573.968 1470.74 573.968 1474.49 Q573.968 1478.22 575.797 1480.39 Q577.648 1482.55 580.797 1482.55 Q583.945 1482.55 585.773 1480.39 Q587.625 1478.22 587.625 1474.49 Q587.625 1470.74 585.773 1468.59 Q583.945 1466.44 580.797 1466.44 M590.079 1451.78 L590.079 1456.04 Q588.32 1455.21 586.514 1454.77 Q584.732 1454.33 582.972 1454.33 Q578.343 1454.33 575.889 1457.45 Q573.459 1460.58 573.111 1466.9 Q574.477 1464.89 576.537 1463.82 Q578.598 1462.73 581.074 1462.73 Q586.283 1462.73 589.292 1465.9 Q592.324 1469.05 592.324 1474.49 Q592.324 1479.82 589.176 1483.03 Q586.028 1486.25 580.797 1486.25 Q574.801 1486.25 571.63 1481.67 Q568.459 1477.06 568.459 1468.33 Q568.459 1460.14 572.348 1455.28 Q576.236 1450.39 582.787 1450.39 Q584.547 1450.39 586.329 1450.74 Q588.135 1451.09 590.079 1451.78 Z" fill="#000000" fill-rule="nonzero" fill-opacity="1" /><path clip-path="url(#clip890)" d="M808.768 1468.75 L838.444 1468.75 L838.444 1472.69 L808.768 1472.69 L808.768 1468.75 Z" fill="#000000" fill-rule="nonzero" fill-opacity="1" /><path clip-path="url(#clip890)" d="M858.537 1454.1 Q854.925 1454.1 853.097 1457.66 Q851.291 1461.2 851.291 1468.33 Q851.291 1475.44 853.097 1479.01 Q854.925 1482.55 858.537 1482.55 Q862.171 1482.55 863.976 1479.01 Q865.805 1475.44 865.805 1468.33 Q865.805 1461.2 863.976 1457.66 Q862.171 1454.1 858.537 1454.1 M858.537 1450.39 Q864.347 1450.39 867.402 1455 Q870.481 1459.58 870.481 1468.33 Q870.481 1477.06 867.402 1481.67 Q864.347 1486.25 858.537 1486.25 Q852.726 1486.25 849.648 1481.67 Q846.592 1477.06 846.592 1468.33 Q846.592 1459.58 849.648 1455 Q852.726 1450.39 858.537 1450.39 Z" fill="#000000" fill-rule="nonzero" fill-opacity="1" /><path clip-path="url(#clip890)" d="M878.698 1479.7 L883.583 1479.7 L883.583 1485.58 L878.698 1485.58 L878.698 1479.7 Z" fill="#000000" fill-rule="nonzero" fill-opacity="1" /><path clip-path="url(#clip890)" d="M907.934 1466.95 Q911.291 1467.66 913.166 1469.93 Q915.064 1472.2 915.064 1475.53 Q915.064 1480.65 911.546 1483.45 Q908.027 1486.25 901.546 1486.25 Q899.37 1486.25 897.055 1485.81 Q894.763 1485.39 892.31 1484.54 L892.31 1480.02 Q894.254 1481.16 896.569 1481.74 Q898.884 1482.32 901.407 1482.32 Q905.805 1482.32 908.096 1480.58 Q910.411 1478.84 910.411 1475.53 Q910.411 1472.48 908.259 1470.77 Q906.129 1469.03 902.309 1469.03 L898.282 1469.03 L898.282 1465.19 L902.495 1465.19 Q905.944 1465.19 907.772 1463.82 Q909.601 1462.43 909.601 1459.84 Q909.601 1457.18 907.703 1455.77 Q905.828 1454.33 902.309 1454.33 Q900.388 1454.33 898.189 1454.75 Q895.99 1455.16 893.351 1456.04 L893.351 1451.88 Q896.013 1451.14 898.328 1450.77 Q900.666 1450.39 902.726 1450.39 Q908.05 1450.39 911.152 1452.83 Q914.254 1455.23 914.254 1459.35 Q914.254 1462.22 912.61 1464.21 Q910.967 1466.18 907.934 1466.95 Z" fill="#000000" fill-rule="nonzero" fill-opacity="1" /><path clip-path="url(#clip890)" d="M1162.45 1454.1 Q1158.83 1454.1 1157.01 1457.66 Q1155.2 1461.2 1155.2 1468.33 Q1155.2 1475.44 1157.01 1479.01 Q1158.83 1482.55 1162.45 1482.55 Q1166.08 1482.55 1167.89 1479.01 Q1169.71 1475.44 1169.71 1468.33 Q1169.71 1461.2 1167.89 1457.66 Q1166.08 1454.1 1162.45 1454.1 M1162.45 1450.39 Q1168.26 1450.39 1171.31 1455 Q1174.39 1459.58 1174.39 1468.33 Q1174.39 1477.06 1171.31 1481.67 Q1168.26 1486.25 1162.45 1486.25 Q1156.64 1486.25 1153.56 1481.67 Q1150.5 1477.06 1150.5 1468.33 Q1150.5 1459.58 1153.56 1455 Q1156.64 1450.39 1162.45 1450.39 Z" fill="#000000" fill-rule="nonzero" fill-opacity="1" /><path clip-path="url(#clip890)" d="M1182.61 1479.7 L1187.49 1479.7 L1187.49 1485.58 L1182.61 1485.58 L1182.61 1479.7 Z" fill="#000000" fill-rule="nonzero" fill-opacity="1" /><path clip-path="url(#clip890)" d="M1207.68 1454.1 Q1204.07 1454.1 1202.24 1457.66 Q1200.43 1461.2 1200.43 1468.33 Q1200.43 1475.44 1202.24 1479.01 Q1204.07 1482.55 1207.68 1482.55 Q1211.31 1482.55 1213.12 1479.01 Q1214.95 1475.44 1214.95 1468.33 Q1214.95 1461.2 1213.12 1457.66 Q1211.31 1454.1 1207.68 1454.1 M1207.68 1450.39 Q1213.49 1450.39 1216.54 1455 Q1219.62 1459.58 1219.62 1468.33 Q1219.62 1477.06 1216.54 1481.67 Q1213.49 1486.25 1207.68 1486.25 Q1201.87 1486.25 1198.79 1481.67 Q1195.73 1477.06 1195.73 1468.33 Q1195.73 1459.58 1198.79 1455 Q1201.87 1450.39 1207.68 1450.39 Z" fill="#000000" fill-rule="nonzero" fill-opacity="1" /><path clip-path="url(#clip890)" d="M1485.91 1454.1 Q1482.3 1454.1 1480.47 1457.66 Q1478.67 1461.2 1478.67 1468.33 Q1478.67 1475.44 1480.47 1479.01 Q1482.3 1482.55 1485.91 1482.55 Q1489.55 1482.55 1491.35 1479.01 Q1493.18 1475.44 1493.18 1468.33 Q1493.18 1461.2 1491.35 1457.66 Q1489.55 1454.1 1485.91 1454.1 M1485.91 1450.39 Q1491.72 1450.39 1494.78 1455 Q1497.86 1459.58 1497.86 1468.33 Q1497.86 1477.06 1494.78 1481.67 Q1491.72 1486.25 1485.91 1486.25 Q1480.1 1486.25 1477.03 1481.67 Q1473.97 1477.06 1473.97 1468.33 Q1473.97 1459.58 1477.03 1455 Q1480.1 1450.39 1485.91 1450.39 Z" fill="#000000" fill-rule="nonzero" fill-opacity="1" /><path clip-path="url(#clip890)" d="M1506.08 1479.7 L1510.96 1479.7 L1510.96 1485.58 L1506.08 1485.58 L1506.08 1479.7 Z" fill="#000000" fill-rule="nonzero" fill-opacity="1" /><path clip-path="url(#clip890)" d="M1535.31 1466.95 Q1538.67 1467.66 1540.54 1469.93 Q1542.44 1472.2 1542.44 1475.53 Q1542.44 1480.65 1538.92 1483.45 Q1535.4 1486.25 1528.92 1486.25 Q1526.75 1486.25 1524.43 1485.81 Q1522.14 1485.39 1519.69 1484.54 L1519.69 1480.02 Q1521.63 1481.16 1523.95 1481.74 Q1526.26 1482.32 1528.78 1482.32 Q1533.18 1482.32 1535.47 1480.58 Q1537.79 1478.84 1537.79 1475.53 Q1537.79 1472.48 1535.64 1470.77 Q1533.51 1469.03 1529.69 1469.03 L1525.66 1469.03 L1525.66 1465.19 L1529.87 1465.19 Q1533.32 1465.19 1535.15 1463.82 Q1536.98 1462.43 1536.98 1459.84 Q1536.98 1457.18 1535.08 1455.77 Q1533.21 1454.33 1529.69 1454.33 Q1527.77 1454.33 1525.57 1454.75 Q1523.37 1455.16 1520.73 1456.04 L1520.73 1451.88 Q1523.39 1451.14 1525.71 1450.77 Q1528.04 1450.39 1530.1 1450.39 Q1535.43 1450.39 1538.53 1452.83 Q1541.63 1455.23 1541.63 1459.35 Q1541.63 1462.22 1539.99 1464.21 Q1538.34 1466.18 1535.31 1466.95 Z" fill="#000000" fill-rule="nonzero" fill-opacity="1" /><path clip-path="url(#clip890)" d="M1808.65 1454.1 Q1805.04 1454.1 1803.21 1457.66 Q1801.41 1461.2 1801.41 1468.33 Q1801.41 1475.44 1803.21 1479.01 Q1805.04 1482.55 1808.65 1482.55 Q1812.29 1482.55 1814.09 1479.01 Q1815.92 1475.44 1815.92 1468.33 Q1815.92 1461.2 1814.09 1457.66 Q1812.29 1454.1 1808.65 1454.1 M1808.65 1450.39 Q1814.46 1450.39 1817.52 1455 Q1820.6 1459.58 1820.6 1468.33 Q1820.6 1477.06 1817.52 1481.67 Q1814.46 1486.25 1808.65 1486.25 Q1802.84 1486.25 1799.77 1481.67 Q1796.71 1477.06 1796.71 1468.33 Q1796.71 1459.58 1799.77 1455 Q1802.84 1450.39 1808.65 1450.39 Z" fill="#000000" fill-rule="nonzero" fill-opacity="1" /><path clip-path="url(#clip890)" d="M1828.82 1479.7 L1833.7 1479.7 L1833.7 1485.58 L1828.82 1485.58 L1828.82 1479.7 Z" fill="#000000" fill-rule="nonzero" fill-opacity="1" /><path clip-path="url(#clip890)" d="M1854.46 1466.44 Q1851.32 1466.44 1849.46 1468.59 Q1847.64 1470.74 1847.64 1474.49 Q1847.64 1478.22 1849.46 1480.39 Q1851.32 1482.55 1854.46 1482.55 Q1857.61 1482.55 1859.44 1480.39 Q1861.29 1478.22 1861.29 1474.49 Q1861.29 1470.74 1859.44 1468.59 Q1857.61 1466.44 1854.46 1466.44 M1863.75 1451.78 L1863.75 1456.04 Q1861.99 1455.21 1860.18 1454.77 Q1858.4 1454.33 1856.64 1454.33 Q1852.01 1454.33 1849.56 1457.45 Q1847.13 1460.58 1846.78 1466.9 Q1848.14 1464.89 1850.2 1463.82 Q1852.26 1462.73 1854.74 1462.73 Q1859.95 1462.73 1862.96 1465.9 Q1865.99 1469.05 1865.99 1474.49 Q1865.99 1479.82 1862.84 1483.03 Q1859.7 1486.25 1854.46 1486.25 Q1848.47 1486.25 1845.3 1481.67 Q1842.13 1477.06 1842.13 1468.33 Q1842.13 1460.14 1846.01 1455.28 Q1849.9 1450.39 1856.45 1450.39 Q1858.21 1450.39 1860 1450.74 Q1861.8 1451.09 1863.75 1451.78 Z" fill="#000000" fill-rule="nonzero" fill-opacity="1" /><path clip-path="url(#clip890)" d="M1166.89 1520.52 L1173.79 1520.52 L1185.6 1538.19 L1197.47 1520.52 L1204.38 1520.52 L1189.1 1543.34 L1205.4 1568.04 L1198.49 1568.04 L1185.12 1547.83 L1171.66 1568.04 L1164.72 1568.04 L1181.69 1542.68 L1166.89 1520.52 Z" fill="#000000" fill-rule="nonzero" fill-opacity="1" /><polyline clip-path="url(#clip890)" style="stroke:#000000; stroke-linecap:round; stroke-linejoin:round; stroke-width:4; stroke-opacity:1; fill:none" points="257.366,1423.18 257.366,123.472 "/>
<polyline clip-path="url(#clip890)" style="stroke:#000000; stroke-linecap:round; stroke-linejoin:round; stroke-width:4; stroke-opacity:1; fill:none" points="257.366,1226.05 274.099,1226.05 "/>
<polyline clip-path="url(#clip890)" style="stroke:#000000; stroke-linecap:round; stroke-linejoin:round; stroke-width:4; stroke-opacity:1; fill:none" points="257.366,999.69 274.099,999.69 "/>
<polyline clip-path="url(#clip890)" style="stroke:#000000; stroke-linecap:round; stroke-linejoin:round; stroke-width:4; stroke-opacity:1; fill:none" points="257.366,773.326 274.099,773.326 "/>
<polyline clip-path="url(#clip890)" style="stroke:#000000; stroke-linecap:round; stroke-linejoin:round; stroke-width:4; stroke-opacity:1; fill:none" points="257.366,546.962 274.099,546.962 "/>
<polyline clip-path="url(#clip890)" style="stroke:#000000; stroke-linecap:round; stroke-linejoin:round; stroke-width:4; stroke-opacity:1; fill:none" points="257.366,320.598 274.099,320.598 "/>
<path clip-path="url(#clip890)" d="M114.26 1226.51 L143.936 1226.51 L143.936 1230.44 L114.26 1230.44 L114.26 1226.51 Z" fill="#000000" fill-rule="nonzero" fill-opacity="1" /><path clip-path="url(#clip890)" d="M164.028 1211.85 Q160.417 1211.85 158.589 1215.42 Q156.783 1218.96 156.783 1226.09 Q156.783 1233.2 158.589 1236.76 Q160.417 1240.3 164.028 1240.3 Q167.663 1240.3 169.468 1236.76 Q171.297 1233.2 171.297 1226.09 Q171.297 1218.96 169.468 1215.42 Q167.663 1211.85 164.028 1211.85 M164.028 1208.15 Q169.839 1208.15 172.894 1212.76 Q175.973 1217.34 175.973 1226.09 Q175.973 1234.82 172.894 1239.42 Q169.839 1244.01 164.028 1244.01 Q158.218 1244.01 155.14 1239.42 Q152.084 1234.82 152.084 1226.09 Q152.084 1217.34 155.14 1212.76 Q158.218 1208.15 164.028 1208.15 Z" fill="#000000" fill-rule="nonzero" fill-opacity="1" /><path clip-path="url(#clip890)" d="M184.19 1237.45 L189.075 1237.45 L189.075 1243.33 L184.19 1243.33 L184.19 1237.45 Z" fill="#000000" fill-rule="nonzero" fill-opacity="1" /><path clip-path="url(#clip890)" d="M209.838 1224.19 Q206.69 1224.19 204.838 1226.34 Q203.01 1228.5 203.01 1232.25 Q203.01 1235.97 204.838 1238.15 Q206.69 1240.3 209.838 1240.3 Q212.986 1240.3 214.815 1238.15 Q216.667 1235.97 216.667 1232.25 Q216.667 1228.5 214.815 1226.34 Q212.986 1224.19 209.838 1224.19 M219.121 1209.54 L219.121 1213.8 Q217.361 1212.96 215.556 1212.52 Q213.774 1212.08 212.014 1212.08 Q207.385 1212.08 204.931 1215.21 Q202.5 1218.33 202.153 1224.65 Q203.519 1222.64 205.579 1221.58 Q207.639 1220.49 210.116 1220.49 Q215.324 1220.49 218.334 1223.66 Q221.366 1226.81 221.366 1232.25 Q221.366 1237.57 218.218 1240.79 Q215.07 1244.01 209.838 1244.01 Q203.843 1244.01 200.672 1239.42 Q197.5 1234.82 197.5 1226.09 Q197.5 1217.89 201.389 1213.03 Q205.278 1208.15 211.829 1208.15 Q213.588 1208.15 215.371 1208.5 Q217.176 1208.84 219.121 1209.54 Z" fill="#000000" fill-rule="nonzero" fill-opacity="1" /><path clip-path="url(#clip890)" d="M115.07 1000.14 L144.746 1000.14 L144.746 1004.08 L115.07 1004.08 L115.07 1000.14 Z" fill="#000000" fill-rule="nonzero" fill-opacity="1" /><path clip-path="url(#clip890)" d="M164.839 985.489 Q161.227 985.489 159.399 989.054 Q157.593 992.595 157.593 999.725 Q157.593 1006.83 159.399 1010.4 Q161.227 1013.94 164.839 1013.94 Q168.473 1013.94 170.278 1010.4 Q172.107 1006.83 172.107 999.725 Q172.107 992.595 170.278 989.054 Q168.473 985.489 164.839 985.489 M164.839 981.785 Q170.649 981.785 173.704 986.392 Q176.783 990.975 176.783 999.725 Q176.783 1008.45 173.704 1013.06 Q170.649 1017.64 164.839 1017.64 Q159.028 1017.64 155.95 1013.06 Q152.894 1008.45 152.894 999.725 Q152.894 990.975 155.95 986.392 Q159.028 981.785 164.839 981.785 Z" fill="#000000" fill-rule="nonzero" fill-opacity="1" /><path clip-path="url(#clip890)" d="M185.001 1011.09 L189.885 1011.09 L189.885 1016.97 L185.001 1016.97 L185.001 1011.09 Z" fill="#000000" fill-rule="nonzero" fill-opacity="1" /><path clip-path="url(#clip890)" d="M214.236 998.336 Q217.593 999.054 219.468 1001.32 Q221.366 1003.59 221.366 1006.92 Q221.366 1012.04 217.848 1014.84 Q214.329 1017.64 207.848 1017.64 Q205.672 1017.64 203.357 1017.2 Q201.065 1016.78 198.612 1015.93 L198.612 1011.41 Q200.556 1012.55 202.871 1013.13 Q205.186 1013.71 207.709 1013.71 Q212.107 1013.71 214.399 1011.97 Q216.713 1010.23 216.713 1006.92 Q216.713 1003.87 214.561 1002.16 Q212.431 1000.42 208.612 1000.42 L204.584 1000.42 L204.584 996.577 L208.797 996.577 Q212.246 996.577 214.074 995.211 Q215.903 993.822 215.903 991.23 Q215.903 988.568 214.005 987.156 Q212.13 985.72 208.612 985.72 Q206.69 985.72 204.491 986.137 Q202.292 986.554 199.653 987.433 L199.653 983.267 Q202.315 982.526 204.63 982.156 Q206.968 981.785 209.028 981.785 Q214.352 981.785 217.454 984.216 Q220.556 986.623 220.556 990.743 Q220.556 993.614 218.912 995.605 Q217.269 997.572 214.236 998.336 Z" fill="#000000" fill-rule="nonzero" fill-opacity="1" /><path clip-path="url(#clip890)" d="M164.19 759.125 Q160.579 759.125 158.751 762.689 Q156.945 766.231 156.945 773.361 Q156.945 780.467 158.751 784.032 Q160.579 787.574 164.19 787.574 Q167.825 787.574 169.63 784.032 Q171.459 780.467 171.459 773.361 Q171.459 766.231 169.63 762.689 Q167.825 759.125 164.19 759.125 M164.19 755.421 Q170.001 755.421 173.056 760.027 Q176.135 764.611 176.135 773.361 Q176.135 782.088 173.056 786.694 Q170.001 791.277 164.19 791.277 Q158.38 791.277 155.302 786.694 Q152.246 782.088 152.246 773.361 Q152.246 764.611 155.302 760.027 Q158.38 755.421 164.19 755.421 Z" fill="#000000" fill-rule="nonzero" fill-opacity="1" /><path clip-path="url(#clip890)" d="M184.352 784.726 L189.237 784.726 L189.237 790.606 L184.352 790.606 L184.352 784.726 Z" fill="#000000" fill-rule="nonzero" fill-opacity="1" /><path clip-path="url(#clip890)" d="M209.422 759.125 Q205.811 759.125 203.982 762.689 Q202.176 766.231 202.176 773.361 Q202.176 780.467 203.982 784.032 Q205.811 787.574 209.422 787.574 Q213.056 787.574 214.861 784.032 Q216.69 780.467 216.69 773.361 Q216.69 766.231 214.861 762.689 Q213.056 759.125 209.422 759.125 M209.422 755.421 Q215.232 755.421 218.287 760.027 Q221.366 764.611 221.366 773.361 Q221.366 782.088 218.287 786.694 Q215.232 791.277 209.422 791.277 Q203.612 791.277 200.533 786.694 Q197.477 782.088 197.477 773.361 Q197.477 764.611 200.533 760.027 Q203.612 755.421 209.422 755.421 Z" fill="#000000" fill-rule="nonzero" fill-opacity="1" /><path clip-path="url(#clip890)" d="M164.839 532.76 Q161.227 532.76 159.399 536.325 Q157.593 539.867 157.593 546.997 Q157.593 554.103 159.399 557.668 Q161.227 561.209 164.839 561.209 Q168.473 561.209 170.278 557.668 Q172.107 554.103 172.107 546.997 Q172.107 539.867 170.278 536.325 Q168.473 532.76 164.839 532.76 M164.839 529.057 Q170.649 529.057 173.704 533.663 Q176.783 538.247 176.783 546.997 Q176.783 555.723 173.704 560.33 Q170.649 564.913 164.839 564.913 Q159.028 564.913 155.95 560.33 Q152.894 555.723 152.894 546.997 Q152.894 538.247 155.95 533.663 Q159.028 529.057 164.839 529.057 Z" fill="#000000" fill-rule="nonzero" fill-opacity="1" /><path clip-path="url(#clip890)" d="M185.001 558.362 L189.885 558.362 L189.885 564.242 L185.001 564.242 L185.001 558.362 Z" fill="#000000" fill-rule="nonzero" fill-opacity="1" /><path clip-path="url(#clip890)" d="M214.236 545.608 Q217.593 546.325 219.468 548.594 Q221.366 550.862 221.366 554.196 Q221.366 559.311 217.848 562.112 Q214.329 564.913 207.848 564.913 Q205.672 564.913 203.357 564.473 Q201.065 564.057 198.612 563.2 L198.612 558.686 Q200.556 559.821 202.871 560.399 Q205.186 560.978 207.709 560.978 Q212.107 560.978 214.399 559.242 Q216.713 557.506 216.713 554.196 Q216.713 551.14 214.561 549.427 Q212.431 547.691 208.612 547.691 L204.584 547.691 L204.584 543.848 L208.797 543.848 Q212.246 543.848 214.074 542.483 Q215.903 541.094 215.903 538.501 Q215.903 535.839 214.005 534.427 Q212.13 532.992 208.612 532.992 Q206.69 532.992 204.491 533.409 Q202.292 533.825 199.653 534.705 L199.653 530.538 Q202.315 529.798 204.63 529.427 Q206.968 529.057 209.028 529.057 Q214.352 529.057 217.454 531.487 Q220.556 533.895 220.556 538.015 Q220.556 540.885 218.912 542.876 Q217.269 544.844 214.236 545.608 Z" fill="#000000" fill-rule="nonzero" fill-opacity="1" /><path clip-path="url(#clip890)" d="M164.028 306.396 Q160.417 306.396 158.589 309.961 Q156.783 313.503 156.783 320.632 Q156.783 327.739 158.589 331.304 Q160.417 334.845 164.028 334.845 Q167.663 334.845 169.468 331.304 Q171.297 327.739 171.297 320.632 Q171.297 313.503 169.468 309.961 Q167.663 306.396 164.028 306.396 M164.028 302.693 Q169.839 302.693 172.894 307.299 Q175.973 311.882 175.973 320.632 Q175.973 329.359 172.894 333.966 Q169.839 338.549 164.028 338.549 Q158.218 338.549 155.14 333.966 Q152.084 329.359 152.084 320.632 Q152.084 311.882 155.14 307.299 Q158.218 302.693 164.028 302.693 Z" fill="#000000" fill-rule="nonzero" fill-opacity="1" /><path clip-path="url(#clip890)" d="M184.19 331.998 L189.075 331.998 L189.075 337.878 L184.19 337.878 L184.19 331.998 Z" fill="#000000" fill-rule="nonzero" fill-opacity="1" /><path clip-path="url(#clip890)" d="M209.838 318.734 Q206.69 318.734 204.838 320.887 Q203.01 323.04 203.01 326.79 Q203.01 330.517 204.838 332.692 Q206.69 334.845 209.838 334.845 Q212.986 334.845 214.815 332.692 Q216.667 330.517 216.667 326.79 Q216.667 323.04 214.815 320.887 Q212.986 318.734 209.838 318.734 M219.121 304.081 L219.121 308.341 Q217.361 307.507 215.556 307.068 Q213.774 306.628 212.014 306.628 Q207.385 306.628 204.931 309.753 Q202.5 312.878 202.153 319.197 Q203.519 317.183 205.579 316.118 Q207.639 315.031 210.116 315.031 Q215.324 315.031 218.334 318.202 Q221.366 321.35 221.366 326.79 Q221.366 332.114 218.218 335.331 Q215.07 338.549 209.838 338.549 Q203.843 338.549 200.672 333.966 Q197.5 329.359 197.5 320.632 Q197.5 312.438 201.389 307.577 Q205.278 302.693 211.829 302.693 Q213.588 302.693 215.371 303.04 Q217.176 303.387 219.121 304.081 Z" fill="#000000" fill-rule="nonzero" fill-opacity="1" /><path clip-path="url(#clip890)" d="M16.4842 793.362 L16.4842 786.455 L36.0269 773.278 L16.4842 760.197 L16.4842 753.29 L41.3741 770.095 L64.0042 770.095 L64.0042 776.557 L41.3741 776.557 L16.4842 793.362 Z" fill="#000000" fill-rule="nonzero" fill-opacity="1" /><path clip-path="url(#clip890)" d="M776.548 12.096 L784.73 12.096 L784.73 65.6895 L814.18 65.6895 L814.18 72.576 L776.548 72.576 L776.548 12.096 Z" fill="#000000" fill-rule="nonzero" fill-opacity="1" /><path clip-path="url(#clip890)" d="M843.063 49.7694 Q834.03 49.7694 830.546 51.8354 Q827.062 53.9013 827.062 58.8839 Q827.062 62.8538 829.655 65.2034 Q832.288 67.5124 836.784 67.5124 Q842.982 67.5124 846.709 63.1374 Q850.477 58.7219 850.477 51.4303 L850.477 49.7694 L843.063 49.7694 M857.93 46.6907 L857.93 72.576 L850.477 72.576 L850.477 65.6895 Q847.924 69.8214 844.117 71.8063 Q840.309 73.7508 834.8 73.7508 Q827.832 73.7508 823.7 69.8619 Q819.609 65.9325 819.609 59.3701 Q819.609 51.7138 824.713 47.825 Q829.857 43.9361 840.025 43.9361 L850.477 43.9361 L850.477 43.2069 Q850.477 38.0623 847.074 35.2672 Q843.712 32.4315 837.595 32.4315 Q833.706 32.4315 830.019 33.3632 Q826.333 34.295 822.93 36.1584 L822.93 29.2718 Q827.022 27.692 830.87 26.9223 Q834.719 26.1121 838.364 26.1121 Q848.208 26.1121 853.069 31.2163 Q857.93 36.3204 857.93 46.6907 Z" fill="#000000" fill-rule="nonzero" fill-opacity="1" /><path clip-path="url(#clip890)" d="M880.656 14.324 L880.656 27.2059 L896.009 27.2059 L896.009 32.9987 L880.656 32.9987 L880.656 57.6282 Q880.656 63.1779 882.155 64.7578 Q883.694 66.3376 888.353 66.3376 L896.009 66.3376 L896.009 72.576 L888.353 72.576 Q879.724 72.576 876.443 69.3758 Q873.162 66.1351 873.162 57.6282 L873.162 32.9987 L867.693 32.9987 L867.693 27.2059 L873.162 27.2059 L873.162 14.324 L880.656 14.324 Z" fill="#000000" fill-rule="nonzero" fill-opacity="1" /><path clip-path="url(#clip890)" d="M913.185 14.324 L913.185 27.2059 L928.537 27.2059 L928.537 32.9987 L913.185 32.9987 L913.185 57.6282 Q913.185 63.1779 914.683 64.7578 Q916.223 66.3376 920.881 66.3376 L928.537 66.3376 L928.537 72.576 L920.881 72.576 Q912.253 72.576 908.972 69.3758 Q905.69 66.1351 905.69 57.6282 L905.69 32.9987 L900.222 32.9987 L900.222 27.2059 L905.69 27.2059 L905.69 14.324 L913.185 14.324 Z" fill="#000000" fill-rule="nonzero" fill-opacity="1" /><path clip-path="url(#clip890)" d="M938.341 27.2059 L945.794 27.2059 L945.794 72.576 L938.341 72.576 L938.341 27.2059 M938.341 9.54393 L945.794 9.54393 L945.794 18.9825 L938.341 18.9825 L938.341 9.54393 Z" fill="#000000" fill-rule="nonzero" fill-opacity="1" /><path clip-path="url(#clip890)" d="M994.041 28.9478 L994.041 35.9153 Q990.881 34.1734 987.681 33.3227 Q984.521 32.4315 981.28 32.4315 Q974.029 32.4315 970.019 37.0496 Q966.008 41.6271 966.008 49.9314 Q966.008 58.2358 970.019 62.8538 Q974.029 67.4314 981.28 67.4314 Q984.521 67.4314 987.681 66.5807 Q990.881 65.6895 994.041 63.9476 L994.041 70.8341 Q990.921 72.2924 987.559 73.0216 Q984.237 73.7508 980.47 73.7508 Q970.221 73.7508 964.185 67.3098 Q958.15 60.8689 958.15 49.9314 Q958.15 38.832 964.226 32.472 Q970.343 26.1121 980.956 26.1121 Q984.399 26.1121 987.681 26.8413 Q990.962 27.5299 994.041 28.9478 Z" fill="#000000" fill-rule="nonzero" fill-opacity="1" /><path clip-path="url(#clip890)" d="M1045.81 48.0275 L1045.81 51.6733 L1011.54 51.6733 Q1012.03 59.3701 1016.16 63.421 Q1020.33 67.4314 1027.74 67.4314 Q1032.04 67.4314 1036.05 66.3781 Q1040.1 65.3249 1044.07 63.2184 L1044.07 70.267 Q1040.06 71.9684 1035.85 72.8596 Q1031.63 73.7508 1027.3 73.7508 Q1016.44 73.7508 1010.08 67.4314 Q1003.76 61.1119 1003.76 50.3365 Q1003.76 39.1965 1009.76 32.6746 Q1015.79 26.1121 1026 26.1121 Q1035.16 26.1121 1040.46 32.0264 Q1045.81 37.9003 1045.81 48.0275 M1038.36 45.84 Q1038.28 39.7232 1034.91 36.0774 Q1031.59 32.4315 1026.08 32.4315 Q1019.84 32.4315 1016.08 35.9558 Q1012.35 39.4801 1011.78 45.8805 L1038.36 45.84 Z" fill="#000000" fill-rule="nonzero" fill-opacity="1" /><path clip-path="url(#clip890)" d="M1100.34 72.576 L1077.25 12.096 L1085.79 12.096 L1104.95 63.0159 L1124.16 12.096 L1132.66 12.096 L1109.61 72.576 L1100.34 72.576 Z" fill="#000000" fill-rule="nonzero" fill-opacity="1" /><path clip-path="url(#clip890)" d="M1139.35 27.2059 L1146.8 27.2059 L1146.8 72.576 L1139.35 72.576 L1139.35 27.2059 M1139.35 9.54393 L1146.8 9.54393 L1146.8 18.9825 L1139.35 18.9825 L1139.35 9.54393 Z" fill="#000000" fill-rule="nonzero" fill-opacity="1" /><path clip-path="url(#clip890)" d="M1191.32 28.5427 L1191.32 35.5912 Q1188.16 33.9709 1184.76 33.1607 Q1181.35 32.3505 1177.71 32.3505 Q1172.16 32.3505 1169.36 34.0519 Q1166.61 35.7533 1166.61 39.156 Q1166.61 41.7486 1168.59 43.2475 Q1170.58 44.7058 1176.57 46.0426 L1179.13 46.6097 Q1187.07 48.3111 1190.39 51.4303 Q1193.75 54.509 1193.75 60.0587 Q1193.75 66.3781 1188.73 70.0644 Q1183.74 73.7508 1174.99 73.7508 Q1171.35 73.7508 1167.38 73.0216 Q1163.45 72.3329 1159.07 70.9151 L1159.07 63.2184 Q1163.21 65.3654 1167.22 66.4591 Q1171.23 67.5124 1175.16 67.5124 Q1180.42 67.5124 1183.26 65.73 Q1186.09 63.9071 1186.09 60.6258 Q1186.09 57.5877 1184.03 55.9673 Q1182 54.3469 1175.08 52.8481 L1172.48 52.2405 Q1165.56 50.7821 1162.48 47.7845 Q1159.4 44.7463 1159.4 39.4801 Q1159.4 33.0797 1163.94 29.5959 Q1168.47 26.1121 1176.82 26.1121 Q1180.95 26.1121 1184.6 26.7198 Q1188.24 27.3274 1191.32 28.5427 Z" fill="#000000" fill-rule="nonzero" fill-opacity="1" /><path clip-path="url(#clip890)" d="M1204.85 54.671 L1204.85 27.2059 L1212.3 27.2059 L1212.3 54.3874 Q1212.3 60.8284 1214.81 64.0691 Q1217.33 67.2693 1222.35 67.2693 Q1228.39 67.2693 1231.87 63.421 Q1235.39 59.5726 1235.39 52.9291 L1235.39 27.2059 L1242.85 27.2059 L1242.85 72.576 L1235.39 72.576 L1235.39 65.6084 Q1232.68 69.7404 1229.07 71.7658 Q1225.51 73.7508 1220.77 73.7508 Q1212.95 73.7508 1208.9 68.8897 Q1204.85 64.0286 1204.85 54.671 M1223.61 26.1121 L1223.61 26.1121 Z" fill="#000000" fill-rule="nonzero" fill-opacity="1" /><path clip-path="url(#clip890)" d="M1278.82 49.7694 Q1269.79 49.7694 1266.3 51.8354 Q1262.82 53.9013 1262.82 58.8839 Q1262.82 62.8538 1265.41 65.2034 Q1268.04 67.5124 1272.54 67.5124 Q1278.74 67.5124 1282.46 63.1374 Q1286.23 58.7219 1286.23 51.4303 L1286.23 49.7694 L1278.82 49.7694 M1293.69 46.6907 L1293.69 72.576 L1286.23 72.576 L1286.23 65.6895 Q1283.68 69.8214 1279.87 71.8063 Q1276.06 73.7508 1270.56 73.7508 Q1263.59 73.7508 1259.46 69.8619 Q1255.36 65.9325 1255.36 59.3701 Q1255.36 51.7138 1260.47 47.825 Q1265.61 43.9361 1275.78 43.9361 L1286.23 43.9361 L1286.23 43.2069 Q1286.23 38.0623 1282.83 35.2672 Q1279.47 32.4315 1273.35 32.4315 Q1269.46 32.4315 1265.78 33.3632 Q1262.09 34.295 1258.69 36.1584 L1258.69 29.2718 Q1262.78 27.692 1266.63 26.9223 Q1270.47 26.1121 1274.12 26.1121 Q1283.96 26.1121 1288.82 31.2163 Q1293.69 36.3204 1293.69 46.6907 Z" fill="#000000" fill-rule="nonzero" fill-opacity="1" /><path clip-path="url(#clip890)" d="M1309.04 9.54393 L1316.49 9.54393 L1316.49 72.576 L1309.04 72.576 L1309.04 9.54393 Z" fill="#000000" fill-rule="nonzero" fill-opacity="1" /><path clip-path="url(#clip890)" d="M1332.09 27.2059 L1339.54 27.2059 L1339.54 72.576 L1332.09 72.576 L1332.09 27.2059 M1332.09 9.54393 L1339.54 9.54393 L1339.54 18.9825 L1332.09 18.9825 L1332.09 9.54393 Z" fill="#000000" fill-rule="nonzero" fill-opacity="1" /><path clip-path="url(#clip890)" d="M1351.9 27.2059 L1387.3 27.2059 L1387.3 34.0114 L1359.27 66.6212 L1387.3 66.6212 L1387.3 72.576 L1350.88 72.576 L1350.88 65.7705 L1378.92 33.1607 L1351.9 33.1607 L1351.9 27.2059 Z" fill="#000000" fill-rule="nonzero" fill-opacity="1" /><path clip-path="url(#clip890)" d="M1419.3 49.7694 Q1410.27 49.7694 1406.79 51.8354 Q1403.3 53.9013 1403.3 58.8839 Q1403.3 62.8538 1405.9 65.2034 Q1408.53 67.5124 1413.03 67.5124 Q1419.22 67.5124 1422.95 63.1374 Q1426.72 58.7219 1426.72 51.4303 L1426.72 49.7694 L1419.3 49.7694 M1434.17 46.6907 L1434.17 72.576 L1426.72 72.576 L1426.72 65.6895 Q1424.17 69.8214 1420.36 71.8063 Q1416.55 73.7508 1411.04 73.7508 Q1404.07 73.7508 1399.94 69.8619 Q1395.85 65.9325 1395.85 59.3701 Q1395.85 51.7138 1400.95 47.825 Q1406.1 43.9361 1416.27 43.9361 L1426.72 43.9361 L1426.72 43.2069 Q1426.72 38.0623 1423.31 35.2672 Q1419.95 32.4315 1413.84 32.4315 Q1409.95 32.4315 1406.26 33.3632 Q1402.57 34.295 1399.17 36.1584 L1399.17 29.2718 Q1403.26 27.692 1407.11 26.9223 Q1410.96 26.1121 1414.61 26.1121 Q1424.45 26.1121 1429.31 31.2163 Q1434.17 36.3204 1434.17 46.6907 Z" fill="#000000" fill-rule="nonzero" fill-opacity="1" /><path clip-path="url(#clip890)" d="M1456.9 14.324 L1456.9 27.2059 L1472.25 27.2059 L1472.25 32.9987 L1456.9 32.9987 L1456.9 57.6282 Q1456.9 63.1779 1458.4 64.7578 Q1459.94 66.3376 1464.59 66.3376 L1472.25 66.3376 L1472.25 72.576 L1464.59 72.576 Q1455.97 72.576 1452.68 69.3758 Q1449.4 66.1351 1449.4 57.6282 L1449.4 32.9987 L1443.93 32.9987 L1443.93 27.2059 L1449.4 27.2059 L1449.4 14.324 L1456.9 14.324 Z" fill="#000000" fill-rule="nonzero" fill-opacity="1" /><path clip-path="url(#clip890)" d="M1482.05 27.2059 L1489.51 27.2059 L1489.51 72.576 L1482.05 72.576 L1482.05 27.2059 M1482.05 9.54393 L1489.51 9.54393 L1489.51 18.9825 L1482.05 18.9825 L1482.05 9.54393 Z" fill="#000000" fill-rule="nonzero" fill-opacity="1" /><path clip-path="url(#clip890)" d="M1522.68 32.4315 Q1516.69 32.4315 1513.2 37.1306 Q1509.72 41.7891 1509.72 49.9314 Q1509.72 58.0738 1513.16 62.7728 Q1516.65 67.4314 1522.68 67.4314 Q1528.64 67.4314 1532.12 62.7323 Q1535.61 58.0333 1535.61 49.9314 Q1535.61 41.8701 1532.12 37.1711 Q1528.64 32.4315 1522.68 32.4315 M1522.68 26.1121 Q1532.41 26.1121 1537.96 32.4315 Q1543.51 38.7509 1543.51 49.9314 Q1543.51 61.0714 1537.96 67.4314 Q1532.41 73.7508 1522.68 73.7508 Q1512.92 73.7508 1507.37 67.4314 Q1501.86 61.0714 1501.86 49.9314 Q1501.86 38.7509 1507.37 32.4315 Q1512.92 26.1121 1522.68 26.1121 Z" fill="#000000" fill-rule="nonzero" fill-opacity="1" /><path clip-path="url(#clip890)" d="M1593.57 45.1919 L1593.57 72.576 L1586.12 72.576 L1586.12 45.4349 Q1586.12 38.994 1583.61 35.7938 Q1581.1 32.5936 1576.07 32.5936 Q1570.04 32.5936 1566.55 36.4419 Q1563.07 40.2903 1563.07 46.9338 L1563.07 72.576 L1555.58 72.576 L1555.58 27.2059 L1563.07 27.2059 L1563.07 34.2544 Q1565.74 30.163 1569.35 28.1376 Q1573 26.1121 1577.74 26.1121 Q1585.55 26.1121 1589.56 30.9732 Q1593.57 35.7938 1593.57 45.1919 Z" fill="#000000" fill-rule="nonzero" fill-opacity="1" /><polyline clip-path="url(#clip892)" style="stroke:#e3c8c0; stroke-linecap:round; stroke-linejoin:round; stroke-width:4; stroke-opacity:1; fill:none" points="781.13,1068.03 764.351,1056.28 739.619,1009.12 716.651,961.963 781.13,947.191 848.452,960.519 853.658,961.963 880.068,1009.12 848.452,1031.27 797.909,1056.28 781.13,1068.03 "/>
<polyline clip-path="url(#clip892)" style="stroke:#d7a392; stroke-linecap:round; stroke-linejoin:round; stroke-width:4; stroke-opacity:1; fill:none" points="781.13,1031.6 765.43,1009.12 781.13,969.177 837.783,1009.12 781.13,1031.6 "/>
<polyline clip-path="url(#clip892)" style="stroke:#c4d0d5; stroke-linecap:round; stroke-linejoin:round; stroke-width:4; stroke-opacity:1; fill:none" points="915.774,920.983 848.452,926.059 785.777,914.804 781.13,912.8 718.128,867.644 781.13,843.033 848.452,841.739 899.147,867.644 915.774,901.887 924.595,914.804 915.774,920.983 "/>
<polyline clip-path="url(#clip892)" style="stroke:#f0eceb; stroke-linecap:round; stroke-linejoin:round; stroke-width:4; stroke-opacity:1; fill:none" points="915.774,961.963 848.452,943.289 781.13,930.595 713.808,915.231 713.157,914.804 675.146,867.644 664.707,820.485 713.808,773.326 781.13,820.485 848.452,820.485 915.774,831.864 931.294,867.644 983.095,914.804 915.774,961.963 "/>
<polyline clip-path="url(#clip892)" style="stroke:#e3c8c0; stroke-linecap:round; stroke-linejoin:round; stroke-width:4; stroke-opacity:1; fill:none" points="983.095,891.263 957.152,867.644 983.095,821.674 984.259,820.485 1050.42,807.402 1117.74,796.576 1185.06,793.364 1246.02,773.326 1252.38,772.173 1319.7,756.993 1387.03,751.087 1429.97,773.326 1435.34,820.485 1387.03,854.326 1319.7,851.206 1252.38,833.833 1185.06,839.289 1145.95,867.644 1117.74,888.654 1050.42,901.516 983.095,891.263 "/>
<polyline clip-path="url(#clip892)" style="stroke:#d7a392; stroke-linecap:round; stroke-linejoin:round; stroke-width:4; stroke-opacity:1; fill:none" points="983.095,867.723 983.009,867.644 983.095,867.491 1029.12,820.485 1050.42,816.273 1117.74,807.625 1185.06,813.403 1252.38,803.909 1287.1,773.326 1319.7,765.865 1387.03,763.711 1405.59,773.326 1416.32,820.485 1387.03,841.007 1319.7,841.521 1252.38,824.847 1185.06,825.396 1126.78,867.644 1117.74,874.38 1050.42,888.229 983.095,867.723 "/>
<polyline clip-path="url(#clip892)" style="stroke:#f0eceb; stroke-linecap:round; stroke-linejoin:round; stroke-width:4; stroke-opacity:1; fill:none" points="1050.42,914.804 1117.74,961.963 1185.06,961.963 1252.38,1009.12 1294.79,961.963 1319.7,945.994 1387.03,914.804 1387.03,867.644 1319.7,860.89 1252.38,842.819 1185.06,853.182 1165.11,867.644 1117.74,902.929 1050.42,914.804 "/>
<polyline clip-path="url(#clip892)" style="stroke:#cc7f65; stroke-linecap:round; stroke-linejoin:round; stroke-width:4; stroke-opacity:1; fill:none" points="1050.42,874.941 1026.5,867.644 1050.42,843.54 1084.73,867.644 1050.42,874.941 "/>
<polyline clip-path="url(#clip892)" style="stroke:#3586b9; stroke-linecap:round; stroke-linejoin:round; stroke-width:4; stroke-opacity:1; fill:none" points="1182.99,914.804 1185.06,915.962 1252.38,942.017 1295.32,914.804 1252.38,884.832 1185.06,913.251 1182.99,914.804 "/>
<polyline clip-path="url(#clip892)" style="stroke:#61a0bb; stroke-linecap:round; stroke-linejoin:round; stroke-width:4; stroke-opacity:1; fill:none" points="1162.39,914.804 1185.06,927.462 1252.38,954.632 1315.23,914.804 1252.38,870.939 1185.06,897.838 1162.39,914.804 "/>
<polyline clip-path="url(#clip892)" style="stroke:#94b8c4; stroke-linecap:round; stroke-linejoin:round; stroke-width:4; stroke-opacity:1; fill:none" points="1141.8,914.804 1185.06,938.963 1240.73,961.963 1252.38,970.129 1259.73,961.963 1319.7,923.514 1338.51,914.804 1319.7,897.212 1277.25,867.644 1252.38,860.79 1222.56,867.644 1185.06,882.426 1141.8,914.804 "/>
<polyline clip-path="url(#clip892)" style="stroke:#c4d0d5; stroke-linecap:round; stroke-linejoin:round; stroke-width:4; stroke-opacity:1; fill:none" points="1121.2,914.804 1185.06,950.463 1212.89,961.963 1252.38,989.625 1277.26,961.963 1319.7,934.754 1362.77,914.804 1319.7,874.513 1309.84,867.644 1252.38,851.804 1185.06,867.076 1184.28,867.644 1121.2,914.804 "/>
<polyline clip-path="url(#clip892)" style="stroke:#2646ac; stroke-linecap:round; stroke-linejoin:round; stroke-width:4; stroke-opacity:1; fill:none" points="1247.23,914.804 1252.38,916.789 1255.51,914.804 1252.38,912.617 1247.23,914.804 "/>
<polyline clip-path="url(#clip892)" style="stroke:#0c68bc; stroke-linecap:round; stroke-linejoin:round; stroke-width:4; stroke-opacity:1; fill:none" points="1214.5,914.804 1252.38,929.403 1275.42,914.804 1252.38,898.725 1214.5,914.804 "/>
<polyline clip-path="url(#clip892)" style="stroke:#cc7f65; stroke-linecap:round; stroke-linejoin:round; stroke-width:4; stroke-opacity:1; fill:none" points="1117.74,831.657 1101.72,820.485 1117.74,818.673 1131.36,820.485 1117.74,831.657 "/>
<polyline clip-path="url(#clip892)" style="stroke:#f0eceb; stroke-linecap:round; stroke-linejoin:round; stroke-width:4; stroke-opacity:1; fill:none" points="1185.06,773.326 1117.74,785.527 1050.42,798.53 983.095,808.189 915.774,773.326 915.774,726.167 983.095,679.008 1050.42,685.762 1117.74,703.833 1185.06,693.47 1205.01,679.008 1252.38,643.723 1319.7,631.848 1387.03,631.848 1438.83,679.008 1454.35,714.788 1521.67,726.167 1454.35,773.326 1387.03,738.463 1319.7,748.122 1252.38,761.125 1185.06,773.326 1185.06,773.326 "/>
<polyline clip-path="url(#clip892)" style="stroke:#cc7f65; stroke-linecap:round; stroke-linejoin:round; stroke-width:4; stroke-opacity:1; fill:none" points="1272.92,820.485 1319.7,831.837 1387.03,827.689 1397.31,820.485 1387.03,787.753 1319.7,778.959 1272.92,820.485 "/>
<polyline clip-path="url(#clip892)" style="stroke:#c0593c; stroke-linecap:round; stroke-linejoin:round; stroke-width:4; stroke-opacity:1; fill:none" points="1312.83,820.485 1319.7,822.152 1338.06,820.485 1319.7,814.386 1312.83,820.485 "/>
<polyline clip-path="url(#clip892)" style="stroke:#94b8c4; stroke-linecap:round; stroke-linejoin:round; stroke-width:4; stroke-opacity:1; fill:none" points="1319.7,730.379 1252.38,739.027 1185.06,733.249 1117.74,742.743 1083.02,773.326 1050.42,780.787 983.095,782.941 964.529,773.326 953.799,726.167 983.095,705.645 1050.42,705.131 1117.74,721.805 1185.06,721.256 1243.34,679.008 1252.38,672.272 1319.7,658.423 1387.03,678.929 1387.11,679.008 1387.03,679.16 1341,726.167 1319.7,730.379 "/>
<polyline clip-path="url(#clip892)" style="stroke:#c4d0d5; stroke-linecap:round; stroke-linejoin:round; stroke-width:4; stroke-opacity:1; fill:none" points="1319.7,739.25 1252.38,750.076 1185.06,753.288 1124.1,773.326 1117.74,774.479 1050.42,789.659 983.095,795.565 940.151,773.326 934.786,726.167 983.095,692.326 1050.42,695.446 1117.74,712.819 1185.06,707.363 1224.18,679.008 1252.38,657.998 1319.7,645.136 1387.03,655.389 1412.97,679.008 1387.03,724.978 1385.86,726.167 1319.7,739.25 "/>
<polyline clip-path="url(#clip892)" style="stroke:#61a0bb; stroke-linecap:round; stroke-linejoin:round; stroke-width:4; stroke-opacity:1; fill:none" points="1319.7,703.112 1285.39,679.008 1319.7,671.711 1343.62,679.008 1319.7,703.112 "/>
<polyline clip-path="url(#clip892)" style="stroke:#61a0bb; stroke-linecap:round; stroke-linejoin:round; stroke-width:4; stroke-opacity:1; fill:none" points="1268.4,726.167 1252.38,727.978 1238.76,726.167 1252.38,714.995 1268.4,726.167 "/>
<polyline clip-path="url(#clip892)" style="stroke:#e3c8c0; stroke-linecap:round; stroke-linejoin:round; stroke-width:4; stroke-opacity:1; fill:none" points="1185.85,679.008 1185.06,679.576 1117.74,694.848 1060.28,679.008 1050.42,672.139 1007.36,631.848 1050.42,611.898 1092.86,584.689 1117.74,557.027 1157.23,584.689 1185.06,596.189 1248.92,631.848 1185.85,679.008 "/>
<polyline clip-path="url(#clip892)" style="stroke:#d7a392; stroke-linecap:round; stroke-linejoin:round; stroke-width:4; stroke-opacity:1; fill:none" points="1185.06,664.226 1147.56,679.008 1117.74,685.862 1092.87,679.008 1050.42,649.44 1031.62,631.848 1050.42,623.138 1110.4,584.689 1117.74,576.523 1129.4,584.689 1185.06,607.689 1228.33,631.848 1185.06,664.226 "/>
<polyline clip-path="url(#clip892)" style="stroke:#cc7f65; stroke-linecap:round; stroke-linejoin:round; stroke-width:4; stroke-opacity:1; fill:none" points="1185.06,648.814 1117.74,675.713 1054.9,631.848 1117.74,592.02 1185.06,619.19 1207.73,631.848 1185.06,648.814 "/>
<polyline clip-path="url(#clip892)" style="stroke:#c0593c; stroke-linecap:round; stroke-linejoin:round; stroke-width:4; stroke-opacity:1; fill:none" points="1185.06,633.401 1117.74,661.82 1074.8,631.848 1117.74,604.635 1185.06,630.69 1187.14,631.848 1185.06,633.401 "/>
<polyline clip-path="url(#clip892)" style="stroke:#af3024; stroke-linecap:round; stroke-linejoin:round; stroke-width:4; stroke-opacity:1; fill:none" points="1155.62,631.848 1117.74,647.927 1094.7,631.848 1117.74,617.249 1155.62,631.848 "/>
<polyline clip-path="url(#clip892)" style="stroke:#8f1028; stroke-linecap:round; stroke-linejoin:round; stroke-width:4; stroke-opacity:1; fill:none" points="1122.89,631.848 1117.74,634.035 1114.61,631.848 1117.74,629.863 1122.89,631.848 "/>
<polyline clip-path="url(#clip892)" style="stroke:#c4d0d5; stroke-linecap:round; stroke-linejoin:round; stroke-width:4; stroke-opacity:1; fill:none" points="1057.8,584.689 1050.42,589.419 983.095,614.535 940.489,584.689 952.823,537.53 970.561,490.371 983.095,463.905 1013.49,443.212 1050.42,428.496 1114.51,443.212 1104.14,490.371 1104.92,537.53 1057.8,584.689 "/>
<polyline clip-path="url(#clip892)" style="stroke:#f0eceb; stroke-linecap:round; stroke-linejoin:round; stroke-width:4; stroke-opacity:1; fill:none" points="1075.33,584.689 1050.42,600.658 983.095,631.848 915.774,584.689 942.432,537.53 960.552,490.371 982.486,443.212 983.095,442.755 1050.42,416.128 1117.74,408.816 1185.06,443.212 1117.74,490.371 1117.74,537.53 1075.33,584.689 "/>
<polyline clip-path="url(#clip892)" style="stroke:#0c68bc; stroke-linecap:round; stroke-linejoin:round; stroke-width:4; stroke-opacity:1; fill:none" points="1050.42,540.633 1037.74,537.53 1050.42,498.098 1053.65,537.53 1050.42,540.633 "/>
<polyline clip-path="url(#clip892)" style="stroke:#3586b9; stroke-linecap:round; stroke-linejoin:round; stroke-width:4; stroke-opacity:1; fill:none" points="1050.42,552.942 987.457,537.53 1026.7,490.371 1050.42,474.132 1063.34,490.371 1066.47,537.53 1050.42,552.942 "/>
<polyline clip-path="url(#clip892)" style="stroke:#61a0bb; stroke-linecap:round; stroke-linejoin:round; stroke-width:4; stroke-opacity:1; fill:none" points="1050.42,565.251 983.095,573.743 973.606,537.53 983.095,511.599 1001.75,490.371 1050.42,457.05 1076.94,490.371 1079.28,537.53 1050.42,565.251 "/>
<polyline clip-path="url(#clip892)" style="stroke:#94b8c4; stroke-linecap:round; stroke-linejoin:round; stroke-width:4; stroke-opacity:1; fill:none" points="1050.42,577.56 1020.49,584.689 983.095,597.223 965.203,584.689 963.214,537.53 980.569,490.371 983.095,485.037 1044.52,443.212 1050.42,440.863 1060.65,443.212 1090.54,490.371 1092.1,537.53 1050.42,577.56 "/>
<polyline clip-path="url(#clip892)" style="stroke:#e3c8c0; stroke-linecap:round; stroke-linejoin:round; stroke-width:4; stroke-opacity:1; fill:none" points="950.544,490.371 932.04,537.53 915.774,566.307 848.452,574.122 796.215,537.53 781.13,522.572 735.161,490.371 781.13,458.169 848.452,450.85 878.055,443.212 915.774,416.79 947.418,396.052 942.036,348.893 983.095,320.131 1028.67,301.734 1050.42,286.503 1072.16,301.734 1094.46,348.893 1083.34,396.052 1050.42,403.761 983.095,420.803 953.151,443.212 950.544,490.371 "/>
<polyline clip-path="url(#clip892)" style="stroke:#d7a392; stroke-linecap:round; stroke-linejoin:round; stroke-width:4; stroke-opacity:1; fill:none" points="940.535,490.371 921.649,537.53 915.774,547.924 848.452,563.555 811.3,537.53 781.13,507.614 756.514,490.371 781.13,473.127 848.452,458.489 907.658,443.212 915.774,437.527 923.815,443.212 940.535,490.371 "/>
<polyline clip-path="url(#clip892)" style="stroke:#cc7f65; stroke-linecap:round; stroke-linejoin:round; stroke-width:4; stroke-opacity:1; fill:none" points="930.526,490.371 915.774,526.792 900.355,537.53 848.452,552.988 826.384,537.53 781.13,492.656 777.867,490.371 781.13,488.085 848.452,466.127 915.774,458.772 930.526,490.371 "/>
<polyline clip-path="url(#clip892)" style="stroke:#c0593c; stroke-linecap:round; stroke-linejoin:round; stroke-width:4; stroke-opacity:1; fill:none" points="920.518,490.371 915.774,502.083 864.875,537.53 848.452,542.421 841.469,537.53 800.009,490.371 848.452,473.766 915.774,480.21 920.518,490.371 "/>
<polyline clip-path="url(#clip892)" style="stroke:#d7a392; stroke-linecap:round; stroke-linejoin:round; stroke-width:4; stroke-opacity:1; fill:none" points="983.095,398.85 979.063,396.052 968.298,348.893 983.095,338.527 1050.42,319.16 1071.19,348.893 1050.42,382.054 1000.11,396.052 983.095,398.85 "/>
<polyline clip-path="url(#clip892)" style="stroke:#af3024; stroke-linecap:round; stroke-linejoin:round; stroke-width:4; stroke-opacity:1; fill:none" points="894.942,490.371 848.452,522.726 822.293,490.371 848.452,481.404 894.942,490.371 "/>
<polyline clip-path="url(#clip892)" style="stroke:#8f1028; stroke-linecap:round; stroke-linejoin:round; stroke-width:4; stroke-opacity:1; fill:none" points="855.337,490.371 848.452,495.163 844.578,490.371 848.452,489.043 855.337,490.371 "/>
<polyline clip-path="url(#clip892)" style="stroke:#61a0bb; stroke-linecap:round; stroke-linejoin:round; stroke-width:4; stroke-opacity:1; fill:none" points="972.812,726.167 983.095,758.899 1050.42,767.693 1097.2,726.167 1050.42,714.815 983.095,718.963 972.812,726.167 "/>
<polyline clip-path="url(#clip892)" style="stroke:#3586b9; stroke-linecap:round; stroke-linejoin:round; stroke-width:4; stroke-opacity:1; fill:none" points="1032.06,726.167 1050.42,732.266 1057.29,726.167 1050.42,724.5 1032.06,726.167 "/>
<polyline clip-path="url(#clip892)" style="stroke:#94b8c4; stroke-linecap:round; stroke-linejoin:round; stroke-width:4; stroke-opacity:1; fill:none" points="781.13,865.581 775.849,867.644 781.13,871.429 848.452,885.892 857.554,867.644 848.452,862.993 781.13,865.581 "/>
<polyline clip-path="url(#clip892)" style="stroke:#e3c8c0; stroke-linecap:round; stroke-linejoin:round; stroke-width:4; stroke-opacity:1; fill:none" points="607.032,867.644 609.494,914.804 579.164,918.417 574.006,914.804 554.177,867.644 579.164,859.079 607.032,867.644 "/>
<polyline clip-path="url(#clip892)" style="stroke:#f0eceb; stroke-linecap:round; stroke-linejoin:round; stroke-width:4; stroke-opacity:1; fill:none" points="1185.06,1150.6 1252.38,1197.76 1252.38,1244.92 1319.7,1292.08 1387.03,1244.92 1454.35,1197.76 1454.35,1150.6 1521.67,1103.44 1588.99,1103.44 1656.31,1056.28 1588.99,1009.12 1521.67,961.963 1454.35,961.963 1427.69,1009.12 1409.57,1056.28 1387.64,1103.44 1387.03,1103.9 1319.7,1130.52 1252.38,1137.84 1185.06,1150.6 "/>
<polyline clip-path="url(#clip892)" style="stroke:#c4d0d5; stroke-linecap:round; stroke-linejoin:round; stroke-width:4; stroke-opacity:1; fill:none" points="1286.78,1150.6 1275.66,1197.76 1297.96,1244.92 1319.7,1260.15 1341.45,1244.92 1387.03,1226.52 1428.09,1197.76 1422.7,1150.6 1454.35,1129.86 1492.07,1103.44 1521.67,1095.8 1588.99,1088.48 1634.96,1056.28 1588.99,1024.08 1573.91,1009.12 1521.67,972.53 1454.35,980.345 1438.08,1009.12 1419.58,1056.28 1416.97,1103.44 1387.03,1125.85 1319.7,1142.89 1286.78,1150.6 "/>
<polyline clip-path="url(#clip892)" style="stroke:#94b8c4; stroke-linecap:round; stroke-linejoin:round; stroke-width:4; stroke-opacity:1; fill:none" points="1370.01,1150.6 1319.7,1164.6 1298.93,1197.76 1319.7,1227.49 1387.03,1208.12 1401.82,1197.76 1391.06,1150.6 1387.03,1147.8 1370.01,1150.6 "/>
<polyline clip-path="url(#clip892)" style="stroke:#e3c8c0; stroke-linecap:round; stroke-linejoin:round; stroke-width:4; stroke-opacity:1; fill:none" points="1319.7,1118.16 1255.61,1103.44 1265.98,1056.28 1265.2,1009.12 1312.33,961.963 1319.7,957.233 1387.03,932.116 1429.63,961.963 1417.3,1009.12 1399.56,1056.28 1387.03,1082.75 1356.63,1103.44 1319.7,1118.16 "/>
<polyline clip-path="url(#clip892)" style="stroke:#d7a392; stroke-linecap:round; stroke-linejoin:round; stroke-width:4; stroke-opacity:1; fill:none" points="1319.7,1105.79 1309.48,1103.44 1279.58,1056.28 1278.02,1009.12 1319.7,969.092 1349.63,961.963 1387.03,949.429 1404.92,961.963 1406.91,1009.12 1389.55,1056.28 1387.03,1061.61 1325.6,1103.44 1319.7,1105.79 "/>
<polyline clip-path="url(#clip892)" style="stroke:#94b8c4; stroke-linecap:round; stroke-linejoin:round; stroke-width:4; stroke-opacity:1; fill:none" points="1446.31,1103.44 1454.35,1109.13 1462.46,1103.44 1521.67,1088.16 1588.99,1073.52 1613.61,1056.28 1588.99,1039.04 1558.82,1009.12 1521.67,983.097 1454.35,998.728 1448.47,1009.12 1429.59,1056.28 1446.31,1103.44 "/>
<polyline clip-path="url(#clip892)" style="stroke:#3586b9; stroke-linecap:round; stroke-linejoin:round; stroke-width:4; stroke-opacity:1; fill:none" points="1454.35,1066.44 1449.6,1056.28 1454.35,1044.57 1505.25,1009.12 1521.67,1004.23 1528.65,1009.12 1570.11,1056.28 1521.67,1072.89 1454.35,1066.44 "/>
<polyline clip-path="url(#clip892)" style="stroke:#61a0bb; stroke-linecap:round; stroke-linejoin:round; stroke-width:4; stroke-opacity:1; fill:none" points="1454.35,1087.88 1439.6,1056.28 1454.35,1019.86 1469.77,1009.12 1521.67,993.664 1543.74,1009.12 1588.99,1054 1592.25,1056.28 1588.99,1058.57 1521.67,1080.52 1454.35,1087.88 "/>
<polyline clip-path="url(#clip892)" style="stroke:#2646ac; stroke-linecap:round; stroke-linejoin:round; stroke-width:4; stroke-opacity:1; fill:none" points="1521.67,1057.61 1514.78,1056.28 1521.67,1051.49 1525.54,1056.28 1521.67,1057.61 "/>
<polyline clip-path="url(#clip892)" style="stroke:#0c68bc; stroke-linecap:round; stroke-linejoin:round; stroke-width:4; stroke-opacity:1; fill:none" points="1521.67,1065.25 1475.18,1056.28 1521.67,1023.93 1547.83,1056.28 1521.67,1065.25 "/>
<polyline clip-path="url(#clip892)" style="stroke:#cc7f65; stroke-linecap:round; stroke-linejoin:round; stroke-width:4; stroke-opacity:1; fill:none" points="1396.52,1009.12 1387.03,1035.05 1368.37,1056.28 1319.7,1089.6 1293.18,1056.28 1290.84,1009.12 1319.7,981.401 1387.03,972.909 1396.52,1009.12 "/>
<polyline clip-path="url(#clip892)" style="stroke:#c0593c; stroke-linecap:round; stroke-linejoin:round; stroke-width:4; stroke-opacity:1; fill:none" points="1382.66,1009.12 1343.42,1056.28 1319.7,1072.52 1306.78,1056.28 1303.66,1009.12 1319.7,993.71 1382.66,1009.12 "/>
<polyline clip-path="url(#clip892)" style="stroke:#af3024; stroke-linecap:round; stroke-linejoin:round; stroke-width:4; stroke-opacity:1; fill:none" points="1332.38,1009.12 1319.7,1048.55 1316.47,1009.12 1319.7,1006.02 1332.38,1009.12 "/>
<polyline clip-path="url(#clip892)" style="stroke:#f0eceb; stroke-linecap:round; stroke-linejoin:round; stroke-width:4; stroke-opacity:1; fill:none" points="1723.64,773.326 1705.42,726.167 1694.98,679.008 1656.96,631.848 1656.31,631.421 1588.99,616.057 1521.67,603.363 1454.35,584.689 1454.35,537.53 1521.67,490.371 1588.99,443.212 1656.31,490.371 1656.31,537.53 1723.64,584.689 1790.96,584.689 1858.28,631.848 1925.6,679.008 1858.28,726.167 1790.96,726.167 1723.64,773.326 "/>
<polyline clip-path="url(#clip892)" style="stroke:#c4d0d5; stroke-linecap:round; stroke-linejoin:round; stroke-width:4; stroke-opacity:1; fill:none" points="1790.96,687.573 1763.09,679.008 1760.63,631.848 1790.96,628.235 1796.12,631.848 1815.94,679.008 1790.96,687.573 "/>
<polyline clip-path="url(#clip892)" style="stroke:#c4d0d5; stroke-linecap:round; stroke-linejoin:round; stroke-width:4; stroke-opacity:1; fill:none" points="1653.47,584.689 1588.99,599.461 1521.67,586.133 1516.46,584.689 1490.05,537.53 1521.67,515.383 1572.21,490.371 1588.99,478.617 1605.77,490.371 1630.5,537.53 1653.47,584.689 "/>
<polyline clip-path="url(#clip892)" style="stroke:#94b8c4; stroke-linecap:round; stroke-linejoin:round; stroke-width:4; stroke-opacity:1; fill:none" points="1588.99,577.475 1532.34,537.53 1588.99,515.054 1604.69,537.53 1588.99,577.475 "/>
<polyline clip-path="url(#clip892)" style="stroke:#e3c8c0; stroke-linecap:round; stroke-linejoin:round; stroke-width:4; stroke-opacity:1; fill:none" points="1584.35,631.848 1588.99,633.852 1651.99,679.008 1588.99,703.619 1521.67,704.913 1470.98,679.008 1454.35,644.765 1445.53,631.848 1454.35,625.669 1521.67,620.593 1584.35,631.848 "/>
<polyline clip-path="url(#clip892)" style="stroke:#d7a392; stroke-linecap:round; stroke-linejoin:round; stroke-width:4; stroke-opacity:1; fill:none" points="1512.57,679.008 1521.67,683.659 1588.99,681.071 1594.27,679.008 1588.99,675.223 1521.67,660.76 1512.57,679.008 "/>
<polyline clip-path="url(#clip892)" style="stroke:#000000; stroke-linecap:round; stroke-linejoin:round; stroke-width:4; stroke-opacity:1; fill:none" points="646.486,1150.6 713.808,1150.6 713.808,1103.44 781.13,1103.44 781.13,1150.6 781.13,1197.76 848.452,1197.76 848.452,1150.6 915.774,1150.6 915.774,1103.44 848.452,1103.44 848.452,1056.28 915.774,1056.28 983.095,1056.28 983.095,1009.12 915.774,1009.12 915.774,961.963 983.095,961.963 983.095,914.804 1050.42,914.804 1050.42,961.963 1050.42,1009.12 1117.74,1009.12 1117.74,961.963 1185.06,961.963 1185.06,1009.12 1252.38,1009.12 1252.38,1056.28 1185.06,1056.28 1117.74,1056.28 1117.74,1103.44 1185.06,1103.44 1185.06,1150.6 1185.06,1197.76 1252.38,1197.76 1252.38,1244.92 1185.06,1244.92 1117.74,1244.92 1117.74,1292.08 1185.06,1292.08 1185.06,1339.24 1252.38,1339.24 1252.38,1292.08 1319.7,1292.08 1319.7,1339.24 1319.7,1386.4 1387.03,1386.4 1387.03,1339.24 1454.35,1339.24 1454.35,1292.08 1387.03,1292.08 1387.03,1244.92 1454.35,1244.92 1521.67,1244.92 1521.67,1197.76 1454.35,1197.76 1454.35,1150.6 1521.67,1150.6 1521.67,1103.44 1588.99,1103.44 1588.99,1150.6 1588.99,1197.76 1656.31,1197.76 1656.31,1150.6 1723.64,1150.6 1723.64,1103.44 1656.31,1103.44 1656.31,1056.28 1723.64,1056.28 1790.96,1056.28 1790.96,1009.12 1723.64,1009.12 1723.64,961.963 1656.31,961.963 1656.31,1009.12 1588.99,1009.12 1588.99,961.963 1588.99,914.804 1521.67,914.804 1521.67,961.963 1454.35,961.963 1454.35,914.804 1387.03,914.804 1387.03,867.644 1454.35,867.644 1521.67,867.644 1521.67,820.485 1454.35,820.485 1454.35,773.326 1521.67,773.326 1521.67,726.167 1588.99,726.167 1588.99,773.326 1588.99,820.485 1656.31,820.485 1656.31,773.326 1723.64,773.326 1790.96,773.326 1790.96,726.167 1858.28,726.167 1858.28,773.326 1858.28,820.485 1925.6,820.485 1925.6,773.326 1992.92,773.326 1992.92,726.167 1925.6,726.167 1925.6,679.008 1992.92,679.008 2060.24,679.008 2060.24,631.848 1992.92,631.848 1992.92,584.689 1925.6,584.689 1925.6,631.848 1858.28,631.848 1858.28,584.689 1858.28,537.53 1790.96,537.53 1790.96,584.689 1723.64,584.689 1723.64,537.53 1656.31,537.53 1656.31,490.371 1723.64,490.371 1790.96,490.371 1790.96,443.212 1723.64,443.212 1723.64,396.052 1656.31,396.052 1656.31,443.212 1588.99,443.212 1588.99,396.052 1588.99,348.893 1521.67,348.893 1521.67,396.052 1454.35,396.052 1454.35,443.212 1521.67,443.212 1521.67,490.371 1454.35,490.371 1387.03,490.371 1387.03,537.53 1454.35,537.53 1454.35,584.689 1387.03,584.689 1387.03,631.848 1319.7,631.848 1319.7,584.689 1319.7,537.53 1252.38,537.53 1252.38,584.689 1185.06,584.689 1185.06,537.53 1117.74,537.53 1117.74,490.371 1185.06,490.371 1252.38,490.371 1252.38,443.212 1185.06,443.212 1185.06,396.052 1185.06,348.893 1117.74,348.893 1117.74,301.734 1185.06,301.734 1252.38,301.734 1252.38,254.575 1185.06,254.575 1185.06,207.416 1117.74,207.416 1117.74,254.575 1050.42,254.575 1050.42,207.416 1050.42,160.256 983.095,160.256 983.095,207.416 915.774,207.416 915.774,254.575 983.095,254.575 983.095,301.734 915.774,301.734 848.452,301.734 848.452,348.893 915.774,348.893 915.774,396.052 848.452,396.052 848.452,443.212 781.13,443.212 781.13,396.052 781.13,348.893 713.808,348.893 713.808,396.052 646.486,396.052 646.486,443.212 713.808,443.212 713.808,490.371 646.486,490.371 579.164,490.371 579.164,537.53 646.486,537.53 646.486,584.689 713.808,584.689 713.808,537.53 781.13,537.53 781.13,584.689 781.13,631.848 848.452,631.848 848.452,584.689 915.774,584.689 915.774,631.848 983.095,631.848 983.095,679.008 915.774,679.008 848.452,679.008 848.452,726.167 915.774,726.167 915.774,773.326 848.452,773.326 848.452,820.485 781.13,820.485 781.13,773.326 781.13,726.167 713.808,726.167 713.808,773.326 646.486,773.326 579.164,773.326 579.164,820.485 511.843,820.485 511.843,773.326 511.843,726.167 444.521,726.167 444.521,773.326 377.199,773.326 377.199,820.485 444.521,820.485 444.521,867.644 377.199,867.644 309.877,867.644 309.877,914.804 377.199,914.804 377.199,961.963 444.521,961.963 444.521,914.804 511.843,914.804 511.843,961.963 511.843,1009.12 579.164,1009.12 579.164,961.963 646.486,961.963 646.486,1009.12 713.808,1009.12 713.808,1056.28 646.486,1056.28 579.164,1056.28 579.164,1103.44 646.486,1103.44 646.486,1150.6 "/>
<defs>
  <clipPath id="clip893">
    <rect x="2160" y="123" width="73" height="1301"/>
  </clipPath>
</defs>
<polyline clip-path="url(#clip893)" style="stroke:#263176; stroke-linecap:round; stroke-linejoin:round; stroke-width:4; stroke-opacity:1; fill:none" points="2160.76,1341.95 2232.76,1341.95 "/>
<polyline clip-path="url(#clip893)" style="stroke:#2448af; stroke-linecap:round; stroke-linejoin:round; stroke-width:4; stroke-opacity:1; fill:none" points="2160.76,1260.72 2232.76,1260.72 "/>
<polyline clip-path="url(#clip893)" style="stroke:#0e6abc; stroke-linecap:round; stroke-linejoin:round; stroke-width:4; stroke-opacity:1; fill:none" points="2160.76,1179.48 2232.76,1179.48 "/>
<polyline clip-path="url(#clip893)" style="stroke:#3887b9; stroke-linecap:round; stroke-linejoin:round; stroke-width:4; stroke-opacity:1; fill:none" points="2160.76,1098.25 2232.76,1098.25 "/>
<polyline clip-path="url(#clip893)" style="stroke:#64a2bb; stroke-linecap:round; stroke-linejoin:round; stroke-width:4; stroke-opacity:1; fill:none" points="2160.76,1017.02 2232.76,1017.02 "/>
<polyline clip-path="url(#clip893)" style="stroke:#97b9c5; stroke-linecap:round; stroke-linejoin:round; stroke-width:4; stroke-opacity:1; fill:none" points="2160.76,935.789 2232.76,935.789 "/>
<polyline clip-path="url(#clip893)" style="stroke:#c7d2d6; stroke-linecap:round; stroke-linejoin:round; stroke-width:4; stroke-opacity:1; fill:none" points="2160.76,854.558 2232.76,854.558 "/>
<polyline clip-path="url(#clip893)" style="stroke:#f0eceb; stroke-linecap:round; stroke-linejoin:round; stroke-width:4; stroke-opacity:1; fill:none" points="2160.76,773.326 2232.76,773.326 "/>
<polyline clip-path="url(#clip893)" style="stroke:#e3c8c0; stroke-linecap:round; stroke-linejoin:round; stroke-width:4; stroke-opacity:1; fill:none" points="2160.76,692.094 2232.76,692.094 "/>
<polyline clip-path="url(#clip893)" style="stroke:#d7a392; stroke-linecap:round; stroke-linejoin:round; stroke-width:4; stroke-opacity:1; fill:none" points="2160.76,610.863 2232.76,610.863 "/>
<polyline clip-path="url(#clip893)" style="stroke:#cc7f65; stroke-linecap:round; stroke-linejoin:round; stroke-width:4; stroke-opacity:1; fill:none" points="2160.76,529.631 2232.76,529.631 "/>
<polyline clip-path="url(#clip893)" style="stroke:#c0593c; stroke-linecap:round; stroke-linejoin:round; stroke-width:4; stroke-opacity:1; fill:none" points="2160.76,448.399 2232.76,448.399 "/>
<polyline clip-path="url(#clip893)" style="stroke:#af3024; stroke-linecap:round; stroke-linejoin:round; stroke-width:4; stroke-opacity:1; fill:none" points="2160.76,367.167 2232.76,367.167 "/>
<polyline clip-path="url(#clip893)" style="stroke:#8f1028; stroke-linecap:round; stroke-linejoin:round; stroke-width:4; stroke-opacity:1; fill:none" points="2160.76,285.936 2232.76,285.936 "/>
<polyline clip-path="url(#clip893)" style="stroke:#650e23; stroke-linecap:round; stroke-linejoin:round; stroke-width:4; stroke-opacity:1; fill:none" points="2160.76,204.704 2232.76,204.704 "/>
<path clip-path="url(#clip890)" d="M2268.76 1244.44 L2298.43 1244.44 L2298.43 1248.37 L2268.76 1248.37 L2268.76 1244.44 Z" fill="#000000" fill-rule="nonzero" fill-opacity="1" /><path clip-path="url(#clip890)" d="M2318.52 1229.78 Q2314.91 1229.78 2313.08 1233.35 Q2311.28 1236.89 2311.28 1244.02 Q2311.28 1251.13 2313.08 1254.69 Q2314.91 1258.23 2318.52 1258.23 Q2322.16 1258.23 2323.96 1254.69 Q2325.79 1251.13 2325.79 1244.02 Q2325.79 1236.89 2323.96 1233.35 Q2322.16 1229.78 2318.52 1229.78 M2318.52 1226.08 Q2324.33 1226.08 2327.39 1230.69 Q2330.47 1235.27 2330.47 1244.02 Q2330.47 1252.75 2327.39 1257.35 Q2324.33 1261.94 2318.52 1261.94 Q2312.71 1261.94 2309.64 1257.35 Q2306.58 1252.75 2306.58 1244.02 Q2306.58 1235.27 2309.64 1230.69 Q2312.71 1226.08 2318.52 1226.08 Z" fill="#000000" fill-rule="nonzero" fill-opacity="1" /><path clip-path="url(#clip890)" d="M2338.69 1255.38 L2343.57 1255.38 L2343.57 1261.26 L2338.69 1261.26 L2338.69 1255.38 Z" fill="#000000" fill-rule="nonzero" fill-opacity="1" /><path clip-path="url(#clip890)" d="M2357.78 1257.33 L2374.1 1257.33 L2374.1 1261.26 L2352.16 1261.26 L2352.16 1257.33 Q2354.82 1254.57 2359.4 1249.94 Q2364.01 1245.29 2365.19 1243.95 Q2367.44 1241.43 2368.32 1239.69 Q2369.22 1237.93 2369.22 1236.24 Q2369.22 1233.49 2367.27 1231.75 Q2365.35 1230.01 2362.25 1230.01 Q2360.05 1230.01 2357.6 1230.78 Q2355.17 1231.54 2352.39 1233.09 L2352.39 1228.37 Q2355.21 1227.24 2357.67 1226.66 Q2360.12 1226.08 2362.16 1226.08 Q2367.53 1226.08 2370.72 1228.76 Q2373.92 1231.45 2373.92 1235.94 Q2373.92 1238.07 2373.11 1239.99 Q2372.32 1241.89 2370.21 1244.48 Q2369.63 1245.15 2366.53 1248.37 Q2363.43 1251.57 2357.78 1257.33 Z" fill="#000000" fill-rule="nonzero" fill-opacity="1" /><polyline clip-path="url(#clip890)" style="stroke:#000000; stroke-linecap:round; stroke-linejoin:round; stroke-width:4; stroke-opacity:1; fill:none" points="2232.76,1247.61 2256.76,1247.61 "/>
<path clip-path="url(#clip890)" d="M2268.76 1007.29 L2298.43 1007.29 L2298.43 1011.23 L2268.76 1011.23 L2268.76 1007.29 Z" fill="#000000" fill-rule="nonzero" fill-opacity="1" /><path clip-path="url(#clip890)" d="M2318.52 992.639 Q2314.91 992.639 2313.08 996.204 Q2311.28 999.746 2311.28 1006.88 Q2311.28 1013.98 2313.08 1017.55 Q2314.91 1021.09 2318.52 1021.09 Q2322.16 1021.09 2323.96 1017.55 Q2325.79 1013.98 2325.79 1006.88 Q2325.79 999.746 2323.96 996.204 Q2322.16 992.639 2318.52 992.639 M2318.52 988.936 Q2324.33 988.936 2327.39 993.542 Q2330.47 998.126 2330.47 1006.88 Q2330.47 1015.6 2327.39 1020.21 Q2324.33 1024.79 2318.52 1024.79 Q2312.71 1024.79 2309.64 1020.21 Q2306.58 1015.6 2306.58 1006.88 Q2306.58 998.126 2309.64 993.542 Q2312.71 988.936 2318.52 988.936 Z" fill="#000000" fill-rule="nonzero" fill-opacity="1" /><path clip-path="url(#clip890)" d="M2338.69 1018.24 L2343.57 1018.24 L2343.57 1024.12 L2338.69 1024.12 L2338.69 1018.24 Z" fill="#000000" fill-rule="nonzero" fill-opacity="1" /><path clip-path="url(#clip890)" d="M2354.57 1020.19 L2362.2 1020.19 L2362.2 993.82 L2353.89 995.487 L2353.89 991.227 L2362.16 989.561 L2366.83 989.561 L2366.83 1020.19 L2374.47 1020.19 L2374.47 1024.12 L2354.57 1024.12 L2354.57 1020.19 Z" fill="#000000" fill-rule="nonzero" fill-opacity="1" /><polyline clip-path="url(#clip890)" style="stroke:#000000; stroke-linecap:round; stroke-linejoin:round; stroke-width:4; stroke-opacity:1; fill:none" points="2232.76,1010.47 2256.76,1010.47 "/>
<path clip-path="url(#clip890)" d="M2280.7 755.496 Q2277.09 755.496 2275.26 759.061 Q2273.45 762.602 2273.45 769.732 Q2273.45 776.838 2275.26 780.403 Q2277.09 783.945 2280.7 783.945 Q2284.33 783.945 2286.14 780.403 Q2287.97 776.838 2287.97 769.732 Q2287.97 762.602 2286.14 759.061 Q2284.33 755.496 2280.7 755.496 M2280.7 751.792 Q2286.51 751.792 2289.57 756.399 Q2292.64 760.982 2292.64 769.732 Q2292.64 778.459 2289.57 783.065 Q2286.51 787.648 2280.7 787.648 Q2274.89 787.648 2271.81 783.065 Q2268.76 778.459 2268.76 769.732 Q2268.76 760.982 2271.81 756.399 Q2274.89 751.792 2280.7 751.792 Z" fill="#000000" fill-rule="nonzero" fill-opacity="1" /><polyline clip-path="url(#clip890)" style="stroke:#000000; stroke-linecap:round; stroke-linejoin:round; stroke-width:4; stroke-opacity:1; fill:none" points="2232.76,773.326 2256.76,773.326 "/>
<path clip-path="url(#clip890)" d="M2280.7 518.352 Q2277.09 518.352 2275.26 521.917 Q2273.45 525.459 2273.45 532.588 Q2273.45 539.695 2275.26 543.26 Q2277.09 546.801 2280.7 546.801 Q2284.33 546.801 2286.14 543.26 Q2287.97 539.695 2287.97 532.588 Q2287.97 525.459 2286.14 521.917 Q2284.33 518.352 2280.7 518.352 M2280.7 514.649 Q2286.51 514.649 2289.57 519.255 Q2292.64 523.838 2292.64 532.588 Q2292.64 541.315 2289.57 545.922 Q2286.51 550.505 2280.7 550.505 Q2274.89 550.505 2271.81 545.922 Q2268.76 541.315 2268.76 532.588 Q2268.76 523.838 2271.81 519.255 Q2274.89 514.649 2280.7 514.649 Z" fill="#000000" fill-rule="nonzero" fill-opacity="1" /><path clip-path="url(#clip890)" d="M2300.86 543.954 L2305.75 543.954 L2305.75 549.834 L2300.86 549.834 L2300.86 543.954 Z" fill="#000000" fill-rule="nonzero" fill-opacity="1" /><path clip-path="url(#clip890)" d="M2316.74 545.898 L2324.38 545.898 L2324.38 519.533 L2316.07 521.2 L2316.07 516.94 L2324.33 515.274 L2329.01 515.274 L2329.01 545.898 L2336.65 545.898 L2336.65 549.834 L2316.74 549.834 L2316.74 545.898 Z" fill="#000000" fill-rule="nonzero" fill-opacity="1" /><polyline clip-path="url(#clip890)" style="stroke:#000000; stroke-linecap:round; stroke-linejoin:round; stroke-width:4; stroke-opacity:1; fill:none" points="2232.76,536.182 2256.76,536.182 "/>
<path clip-path="url(#clip890)" d="M2280.7 281.209 Q2277.09 281.209 2275.26 284.774 Q2273.45 288.315 2273.45 295.445 Q2273.45 302.551 2275.26 306.116 Q2277.09 309.658 2280.7 309.658 Q2284.33 309.658 2286.14 306.116 Q2287.97 302.551 2287.97 295.445 Q2287.97 288.315 2286.14 284.774 Q2284.33 281.209 2280.7 281.209 M2280.7 277.505 Q2286.51 277.505 2289.57 282.112 Q2292.64 286.695 2292.64 295.445 Q2292.64 304.172 2289.57 308.778 Q2286.51 313.361 2280.7 313.361 Q2274.89 313.361 2271.81 308.778 Q2268.76 304.172 2268.76 295.445 Q2268.76 286.695 2271.81 282.112 Q2274.89 277.505 2280.7 277.505 Z" fill="#000000" fill-rule="nonzero" fill-opacity="1" /><path clip-path="url(#clip890)" d="M2300.86 306.81 L2305.75 306.81 L2305.75 312.69 L2300.86 312.69 L2300.86 306.81 Z" fill="#000000" fill-rule="nonzero" fill-opacity="1" /><path clip-path="url(#clip890)" d="M2319.96 308.755 L2336.28 308.755 L2336.28 312.69 L2314.33 312.69 L2314.33 308.755 Q2317 306 2321.58 301.371 Q2326.19 296.718 2327.37 295.375 Q2329.61 292.852 2330.49 291.116 Q2331.39 289.357 2331.39 287.667 Q2331.39 284.912 2329.45 283.176 Q2327.53 281.44 2324.43 281.44 Q2322.23 281.44 2319.77 282.204 Q2317.34 282.968 2314.57 284.519 L2314.57 279.797 Q2317.39 278.662 2319.84 278.084 Q2322.3 277.505 2324.33 277.505 Q2329.7 277.505 2332.9 280.19 Q2336.09 282.875 2336.09 287.366 Q2336.09 289.496 2335.28 291.417 Q2334.5 293.315 2332.39 295.908 Q2331.81 296.579 2328.71 299.797 Q2325.61 302.991 2319.96 308.755 Z" fill="#000000" fill-rule="nonzero" fill-opacity="1" /><polyline clip-path="url(#clip890)" style="stroke:#000000; stroke-linecap:round; stroke-linejoin:round; stroke-width:4; stroke-opacity:1; fill:none" points="2232.76,299.039 2256.76,299.039 "/>
<polyline clip-path="url(#clip890)" style="stroke:#000000; stroke-linecap:round; stroke-linejoin:round; stroke-width:4; stroke-opacity:1; fill:none" points="2232.76,1423.18 2232.76,123.472 "/>
<path clip-path="url(#clip890)" d="M319.212 270.476 L654.889 270.476 L654.889 166.796 L319.212 166.796  Z" fill="#ffffff" fill-rule="evenodd" fill-opacity="1"/>
<polyline clip-path="url(#clip890)" style="stroke:#000000; stroke-linecap:round; stroke-linejoin:round; stroke-width:4; stroke-opacity:1; fill:none" points="319.212,270.476 654.889,270.476 654.889,166.796 319.212,166.796 319.212,270.476 "/>
<polyline clip-path="url(#clip890)" style="stroke:#000000; stroke-linecap:round; stroke-linejoin:round; stroke-width:4; stroke-opacity:1; fill:none" points="339.828,218.636 463.52,218.636 "/>
<path clip-path="url(#clip890)" d="M484.136 201.356 L503.997 201.356 L503.997 205.291 L488.812 205.291 L488.812 215.476 L502.515 215.476 L502.515 219.411 L488.812 219.411 L488.812 235.916 L484.136 235.916 L484.136 201.356 Z" fill="#000000" fill-rule="nonzero" fill-opacity="1" /><path clip-path="url(#clip890)" d="M522.793 213.971 Q522.076 213.555 521.219 213.37 Q520.386 213.161 519.367 213.161 Q515.756 213.161 513.812 215.522 Q511.89 217.86 511.89 222.258 L511.89 235.916 L507.608 235.916 L507.608 209.99 L511.89 209.99 L511.89 214.018 Q513.233 211.657 515.386 210.522 Q517.539 209.365 520.617 209.365 Q521.057 209.365 521.589 209.434 Q522.122 209.481 522.77 209.596 L522.793 213.971 Z" fill="#000000" fill-rule="nonzero" fill-opacity="1" /><path clip-path="url(#clip890)" d="M539.043 222.883 Q533.881 222.883 531.89 224.064 Q529.9 225.244 529.9 228.092 Q529.9 230.36 531.381 231.703 Q532.886 233.022 535.455 233.022 Q538.997 233.022 541.126 230.522 Q543.279 227.999 543.279 223.832 L543.279 222.883 L539.043 222.883 M547.538 221.124 L547.538 235.916 L543.279 235.916 L543.279 231.981 Q541.821 234.342 539.645 235.476 Q537.469 236.587 534.321 236.587 Q530.339 236.587 527.978 234.365 Q525.64 232.119 525.64 228.369 Q525.64 223.994 528.557 221.772 Q531.497 219.55 537.307 219.55 L543.279 219.55 L543.279 219.133 Q543.279 216.194 541.335 214.596 Q539.413 212.976 535.918 212.976 Q533.696 212.976 531.589 213.508 Q529.483 214.041 527.538 215.106 L527.538 211.17 Q529.876 210.268 532.075 209.828 Q534.275 209.365 536.358 209.365 Q541.983 209.365 544.761 212.282 Q547.538 215.198 547.538 221.124 Z" fill="#000000" fill-rule="nonzero" fill-opacity="1" /><path clip-path="url(#clip890)" d="M574.969 210.985 L574.969 214.967 Q573.163 213.971 571.335 213.485 Q569.529 212.976 567.677 212.976 Q563.534 212.976 561.242 215.615 Q558.95 218.231 558.95 222.976 Q558.95 227.721 561.242 230.36 Q563.534 232.976 567.677 232.976 Q569.529 232.976 571.335 232.49 Q573.163 231.981 574.969 230.985 L574.969 234.92 Q573.186 235.754 571.265 236.17 Q569.367 236.587 567.214 236.587 Q561.358 236.587 557.909 232.906 Q554.46 229.226 554.46 222.976 Q554.46 216.633 557.932 212.999 Q561.427 209.365 567.492 209.365 Q569.46 209.365 571.335 209.782 Q573.21 210.175 574.969 210.985 Z" fill="#000000" fill-rule="nonzero" fill-opacity="1" /><path clip-path="url(#clip890)" d="M586.589 202.629 L586.589 209.99 L595.362 209.99 L595.362 213.3 L586.589 213.3 L586.589 227.374 Q586.589 230.545 587.446 231.448 Q588.325 232.351 590.987 232.351 L595.362 232.351 L595.362 235.916 L590.987 235.916 Q586.057 235.916 584.182 234.087 Q582.307 232.235 582.307 227.374 L582.307 213.3 L579.182 213.3 L579.182 209.99 L582.307 209.99 L582.307 202.629 L586.589 202.629 Z" fill="#000000" fill-rule="nonzero" fill-opacity="1" /><path clip-path="url(#clip890)" d="M612.746 222.883 Q607.584 222.883 605.594 224.064 Q603.603 225.244 603.603 228.092 Q603.603 230.36 605.084 231.703 Q606.589 233.022 609.158 233.022 Q612.7 233.022 614.83 230.522 Q616.982 227.999 616.982 223.832 L616.982 222.883 L612.746 222.883 M621.242 221.124 L621.242 235.916 L616.982 235.916 L616.982 231.981 Q615.524 234.342 613.348 235.476 Q611.172 236.587 608.024 236.587 Q604.043 236.587 601.682 234.365 Q599.344 232.119 599.344 228.369 Q599.344 223.994 602.26 221.772 Q605.2 219.55 611.01 219.55 L616.982 219.55 L616.982 219.133 Q616.982 216.194 615.038 214.596 Q613.117 212.976 609.621 212.976 Q607.399 212.976 605.293 213.508 Q603.186 214.041 601.242 215.106 L601.242 211.17 Q603.58 210.268 605.779 209.828 Q607.978 209.365 610.061 209.365 Q615.686 209.365 618.464 212.282 Q621.242 215.198 621.242 221.124 Z" fill="#000000" fill-rule="nonzero" fill-opacity="1" /><path clip-path="url(#clip890)" d="M630.015 199.897 L634.274 199.897 L634.274 235.916 L630.015 235.916 L630.015 199.897 Z" fill="#000000" fill-rule="nonzero" fill-opacity="1" /></svg>
