<?xml version="1.0" encoding="utf-8"?>
<svg xmlns="http://www.w3.org/2000/svg" xmlns:xlink="http://www.w3.org/1999/xlink" width="600" height="400" viewBox="0 0 2400 1600">
<defs>
  <clipPath id="clip600">
    <rect x="0" y="0" width="2400" height="1600"/>
  </clipPath>
</defs>
<path clip-path="url(#clip600)" d="M0 1600 L2400 1600 L2400 0 L0 0  Z" fill="#ffffff" fill-rule="evenodd" fill-opacity="1"/>
<defs>
  <clipPath id="clip601">
    <rect x="480" y="0" width="1681" height="1600"/>
  </clipPath>
</defs>
<path clip-path="url(#clip600)" d="M202.227 1423.18 L2352.76 1423.18 L2352.76 47.2441 L202.227 47.2441  Z" fill="#ffffff" fill-rule="evenodd" fill-opacity="1"/>
<defs>
  <clipPath id="clip602">
    <rect x="202" y="47" width="2152" height="1377"/>
  </clipPath>
</defs>
<polyline clip-path="url(#clip602)" style="stroke:#000000; stroke-linecap:round; stroke-linejoin:round; stroke-width:2; stroke-opacity:0.1; fill:none" points="610.975,1423.18 610.975,47.2441 "/>
<polyline clip-path="url(#clip602)" style="stroke:#000000; stroke-linecap:round; stroke-linejoin:round; stroke-width:2; stroke-opacity:0.1; fill:none" points="1051.52,1423.18 1051.52,47.2441 "/>
<polyline clip-path="url(#clip602)" style="stroke:#000000; stroke-linecap:round; stroke-linejoin:round; stroke-width:2; stroke-opacity:0.1; fill:none" points="1492.07,1423.18 1492.07,47.2441 "/>
<polyline clip-path="url(#clip602)" style="stroke:#000000; stroke-linecap:round; stroke-linejoin:round; stroke-width:2; stroke-opacity:0.1; fill:none" points="1932.62,1423.18 1932.62,47.2441 "/>
<polyline clip-path="url(#clip602)" style="stroke:#000000; stroke-linecap:round; stroke-linejoin:round; stroke-width:2; stroke-opacity:0.1; fill:none" points="202.227,1364.65 2352.76,1364.65 "/>
<polyline clip-path="url(#clip602)" style="stroke:#000000; stroke-linecap:round; stroke-linejoin:round; stroke-width:2; stroke-opacity:0.1; fill:none" points="202.227,1041.1 2352.76,1041.1 "/>
<polyline clip-path="url(#clip602)" style="stroke:#000000; stroke-linecap:round; stroke-linejoin:round; stroke-width:2; stroke-opacity:0.1; fill:none" points="202.227,717.55 2352.76,717.55 "/>
<polyline clip-path="url(#clip602)" style="stroke:#000000; stroke-linecap:round; stroke-linejoin:round; stroke-width:2; stroke-opacity:0.1; fill:none" points="202.227,394.001 2352.76,394.001 "/>
<polyline clip-path="url(#clip602)" style="stroke:#000000; stroke-linecap:round; stroke-linejoin:round; stroke-width:2; stroke-opacity:0.1; fill:none" points="202.227,70.4519 2352.76,70.4519 "/>
<polyline clip-path="url(#clip600)" style="stroke:#000000; stroke-linecap:round; stroke-linejoin:round; stroke-width:4; stroke-opacity:1; fill:none" points="202.227,1423.18 2352.76,1423.18 "/>
<polyline clip-path="url(#clip600)" style="stroke:#000000; stroke-linecap:round; stroke-linejoin:round; stroke-width:4; stroke-opacity:1; fill:none" points="610.975,1423.18 610.975,1404.28 "/>
<polyline clip-path="url(#clip600)" style="stroke:#000000; stroke-linecap:round; stroke-linejoin:round; stroke-width:4; stroke-opacity:1; fill:none" points="1051.52,1423.18 1051.52,1404.28 "/>
<polyline clip-path="url(#clip600)" style="stroke:#000000; stroke-linecap:round; stroke-linejoin:round; stroke-width:4; stroke-opacity:1; fill:none" points="1492.07,1423.18 1492.07,1404.28 "/>
<polyline clip-path="url(#clip600)" style="stroke:#000000; stroke-linecap:round; stroke-linejoin:round; stroke-width:4; stroke-opacity:1; fill:none" points="1932.62,1423.18 1932.62,1404.28 "/>
<path clip-path="url(#clip600)" d="M578.139 1451.02 L596.496 1451.02 L596.496 1454.96 L582.422 1454.96 L582.422 1463.43 Q583.44 1463.08 584.459 1462.92 Q585.477 1462.73 586.496 1462.73 Q592.283 1462.73 595.662 1465.9 Q599.042 1469.08 599.042 1474.49 Q599.042 1480.07 595.57 1483.17 Q592.098 1486.25 585.778 1486.25 Q583.602 1486.25 581.334 1485.88 Q579.088 1485.51 576.681 1484.77 L576.681 1480.07 Q578.764 1481.2 580.987 1481.76 Q583.209 1482.32 585.686 1482.32 Q589.69 1482.32 592.028 1480.21 Q594.366 1478.1 594.366 1474.49 Q594.366 1470.88 592.028 1468.77 Q589.69 1466.67 585.686 1466.67 Q583.811 1466.67 581.936 1467.08 Q580.084 1467.5 578.139 1468.38 L578.139 1451.02 Z" fill="#000000" fill-rule="nonzero" fill-opacity="1" /><path clip-path="url(#clip600)" d="M608.255 1479.7 L613.139 1479.7 L613.139 1485.58 L608.255 1485.58 L608.255 1479.7 Z" fill="#000000" fill-rule="nonzero" fill-opacity="1" /><path clip-path="url(#clip600)" d="M633.324 1454.1 Q629.713 1454.1 627.884 1457.66 Q626.079 1461.2 626.079 1468.33 Q626.079 1475.44 627.884 1479.01 Q629.713 1482.55 633.324 1482.55 Q636.958 1482.55 638.764 1479.01 Q640.593 1475.44 640.593 1468.33 Q640.593 1461.2 638.764 1457.66 Q636.958 1454.1 633.324 1454.1 M633.324 1450.39 Q639.134 1450.39 642.19 1455 Q645.269 1459.58 645.269 1468.33 Q645.269 1477.06 642.19 1481.67 Q639.134 1486.25 633.324 1486.25 Q627.514 1486.25 624.435 1481.67 Q621.38 1477.06 621.38 1468.33 Q621.38 1459.58 624.435 1455 Q627.514 1450.39 633.324 1450.39 Z" fill="#000000" fill-rule="nonzero" fill-opacity="1" /><path clip-path="url(#clip600)" d="M1019.19 1451.02 L1037.54 1451.02 L1037.54 1454.96 L1023.47 1454.96 L1023.47 1463.43 Q1024.49 1463.08 1025.5 1462.92 Q1026.52 1462.73 1027.54 1462.73 Q1033.33 1462.73 1036.71 1465.9 Q1040.09 1469.08 1040.09 1474.49 Q1040.09 1480.07 1036.62 1483.17 Q1033.14 1486.25 1026.82 1486.25 Q1024.65 1486.25 1022.38 1485.88 Q1020.13 1485.51 1017.73 1484.77 L1017.73 1480.07 Q1019.81 1481.2 1022.03 1481.76 Q1024.25 1482.32 1026.73 1482.32 Q1030.74 1482.32 1033.07 1480.21 Q1035.41 1478.1 1035.41 1474.49 Q1035.41 1470.88 1033.07 1468.77 Q1030.74 1466.67 1026.73 1466.67 Q1024.86 1466.67 1022.98 1467.08 Q1021.13 1467.5 1019.19 1468.38 L1019.19 1451.02 Z" fill="#000000" fill-rule="nonzero" fill-opacity="1" /><path clip-path="url(#clip600)" d="M1049.3 1479.7 L1054.19 1479.7 L1054.19 1485.58 L1049.3 1485.58 L1049.3 1479.7 Z" fill="#000000" fill-rule="nonzero" fill-opacity="1" /><path clip-path="url(#clip600)" d="M1064.42 1451.02 L1082.77 1451.02 L1082.77 1454.96 L1068.7 1454.96 L1068.7 1463.43 Q1069.72 1463.08 1070.74 1462.92 Q1071.75 1462.73 1072.77 1462.73 Q1078.56 1462.73 1081.94 1465.9 Q1085.32 1469.08 1085.32 1474.49 Q1085.32 1480.07 1081.85 1483.17 Q1078.37 1486.25 1072.06 1486.25 Q1069.88 1486.25 1067.61 1485.88 Q1065.37 1485.51 1062.96 1484.77 L1062.96 1480.07 Q1065.04 1481.2 1067.26 1481.76 Q1069.49 1482.32 1071.96 1482.32 Q1075.97 1482.32 1078.31 1480.21 Q1080.64 1478.1 1080.64 1474.49 Q1080.64 1470.88 1078.31 1468.77 Q1075.97 1466.67 1071.96 1466.67 Q1070.09 1466.67 1068.21 1467.08 Q1066.36 1467.5 1064.42 1468.38 L1064.42 1451.02 Z" fill="#000000" fill-rule="nonzero" fill-opacity="1" /><path clip-path="url(#clip600)" d="M1469.94 1466.44 Q1466.79 1466.44 1464.94 1468.59 Q1463.11 1470.74 1463.11 1474.49 Q1463.11 1478.22 1464.94 1480.39 Q1466.79 1482.55 1469.94 1482.55 Q1473.09 1482.55 1474.92 1480.39 Q1476.77 1478.22 1476.77 1474.49 Q1476.77 1470.74 1474.92 1468.59 Q1473.09 1466.44 1469.94 1466.44 M1479.22 1451.78 L1479.22 1456.04 Q1477.47 1455.21 1475.66 1454.77 Q1473.88 1454.33 1472.12 1454.33 Q1467.49 1454.33 1465.03 1457.45 Q1462.6 1460.58 1462.26 1466.9 Q1463.62 1464.89 1465.68 1463.82 Q1467.74 1462.73 1470.22 1462.73 Q1475.43 1462.73 1478.44 1465.9 Q1481.47 1469.05 1481.47 1474.49 Q1481.47 1479.82 1478.32 1483.03 Q1475.17 1486.25 1469.94 1486.25 Q1463.95 1486.25 1460.78 1481.67 Q1457.6 1477.06 1457.6 1468.33 Q1457.6 1460.14 1461.49 1455.28 Q1465.38 1450.39 1471.93 1450.39 Q1473.69 1450.39 1475.47 1450.74 Q1477.28 1451.09 1479.22 1451.78 Z" fill="#000000" fill-rule="nonzero" fill-opacity="1" /><path clip-path="url(#clip600)" d="M1489.53 1479.7 L1494.41 1479.7 L1494.41 1485.58 L1489.53 1485.58 L1489.53 1479.7 Z" fill="#000000" fill-rule="nonzero" fill-opacity="1" /><path clip-path="url(#clip600)" d="M1514.59 1454.1 Q1510.98 1454.1 1509.15 1457.66 Q1507.35 1461.2 1507.35 1468.33 Q1507.35 1475.44 1509.15 1479.01 Q1510.98 1482.55 1514.59 1482.55 Q1518.23 1482.55 1520.03 1479.01 Q1521.86 1475.44 1521.86 1468.33 Q1521.86 1461.2 1520.03 1457.66 Q1518.23 1454.1 1514.59 1454.1 M1514.59 1450.39 Q1520.4 1450.39 1523.46 1455 Q1526.54 1459.58 1526.54 1468.33 Q1526.54 1477.06 1523.46 1481.67 Q1520.4 1486.25 1514.59 1486.25 Q1508.78 1486.25 1505.71 1481.67 Q1502.65 1477.06 1502.65 1468.33 Q1502.65 1459.58 1505.71 1455 Q1508.78 1450.39 1514.59 1450.39 Z" fill="#000000" fill-rule="nonzero" fill-opacity="1" /><path clip-path="url(#clip600)" d="M1910.99 1466.44 Q1907.84 1466.44 1905.99 1468.59 Q1904.16 1470.74 1904.16 1474.49 Q1904.16 1478.22 1905.99 1480.39 Q1907.84 1482.55 1910.99 1482.55 Q1914.14 1482.55 1915.97 1480.39 Q1917.82 1478.22 1917.82 1474.49 Q1917.82 1470.74 1915.97 1468.59 Q1914.14 1466.44 1910.99 1466.44 M1920.27 1451.78 L1920.27 1456.04 Q1918.51 1455.21 1916.71 1454.77 Q1914.92 1454.33 1913.16 1454.33 Q1908.53 1454.33 1906.08 1457.45 Q1903.65 1460.58 1903.3 1466.9 Q1904.67 1464.89 1906.73 1463.82 Q1908.79 1462.73 1911.27 1462.73 Q1916.47 1462.73 1919.48 1465.9 Q1922.52 1469.05 1922.52 1474.49 Q1922.52 1479.82 1919.37 1483.03 Q1916.22 1486.25 1910.99 1486.25 Q1904.99 1486.25 1901.82 1481.67 Q1898.65 1477.06 1898.65 1468.33 Q1898.65 1460.14 1902.54 1455.28 Q1906.43 1450.39 1912.98 1450.39 Q1914.74 1450.39 1916.52 1450.74 Q1918.33 1451.09 1920.27 1451.78 Z" fill="#000000" fill-rule="nonzero" fill-opacity="1" /><path clip-path="url(#clip600)" d="M1930.57 1479.7 L1935.46 1479.7 L1935.46 1485.58 L1930.57 1485.58 L1930.57 1479.7 Z" fill="#000000" fill-rule="nonzero" fill-opacity="1" /><path clip-path="url(#clip600)" d="M1945.69 1451.02 L1964.04 1451.02 L1964.04 1454.96 L1949.97 1454.96 L1949.97 1463.43 Q1950.99 1463.08 1952.01 1462.92 Q1953.02 1462.73 1954.04 1462.73 Q1959.83 1462.73 1963.21 1465.9 Q1966.59 1469.08 1966.59 1474.49 Q1966.59 1480.07 1963.12 1483.17 Q1959.65 1486.25 1953.33 1486.25 Q1951.15 1486.25 1948.88 1485.88 Q1946.64 1485.51 1944.23 1484.77 L1944.23 1480.07 Q1946.31 1481.2 1948.53 1481.76 Q1950.76 1482.32 1953.23 1482.32 Q1957.24 1482.32 1959.58 1480.21 Q1961.91 1478.1 1961.91 1474.49 Q1961.91 1470.88 1959.58 1468.77 Q1957.24 1466.67 1953.23 1466.67 Q1951.36 1466.67 1949.48 1467.08 Q1947.63 1467.5 1945.69 1468.38 L1945.69 1451.02 Z" fill="#000000" fill-rule="nonzero" fill-opacity="1" /><path clip-path="url(#clip600)" d="M1207.13 1510.81 L1197.63 1548.94 Q1197.25 1550.46 1197.25 1552.1 Q1197.25 1555.13 1199.24 1555.13 Q1200.18 1555.13 1200.95 1554.52 Q1201.72 1553.87 1202.3 1552.61 Q1202.92 1551.33 1203.3 1550.1 Q1203.72 1548.88 1204.24 1546.98 Q1204.4 1546.24 1204.56 1546.01 Q1204.72 1545.79 1205.17 1545.79 Q1205.98 1545.79 1205.98 1546.43 Q1205.17 1550.39 1203.98 1552.9 Q1202.24 1556.61 1199.02 1556.61 Q1196.6 1556.61 1194.8 1554.93 Q1193.03 1553.23 1193.03 1550.52 Q1193.03 1549.49 1193.35 1548.27 L1201.66 1515.29 L1201.89 1514 Q1201.89 1513.65 1201.76 1513.45 Q1201.63 1513.26 1200.85 1513.07 Q1200.11 1512.87 1198.63 1512.87 Q1198.02 1512.87 1197.73 1512.84 Q1197.47 1512.81 1197.22 1512.65 Q1196.99 1512.49 1196.99 1512.13 Q1196.99 1511.55 1197.22 1511.23 Q1197.47 1510.91 1197.67 1510.84 Q1197.86 1510.78 1198.25 1510.75 Q1198.79 1510.72 1200.63 1510.55 Q1202.47 1510.36 1204.04 1510.23 Q1205.62 1510.1 1206.3 1510.1 Q1206.68 1510.1 1206.88 1510.3 Q1207.1 1510.46 1207.13 1510.65 L1207.13 1510.81 Z" fill="#000000" fill-rule="nonzero" fill-opacity="1" /><path clip-path="url(#clip600)" d="M1242.84 1537.86 Q1242.84 1541.38 1241.3 1544.85 Q1239.75 1548.3 1237.27 1550.88 Q1234.82 1553.42 1231.6 1555.03 Q1228.38 1556.61 1225.16 1556.61 Q1220.56 1556.61 1217.56 1553.48 Q1214.6 1550.33 1214.6 1545.43 Q1214.6 1540.86 1217.14 1536.51 Q1219.72 1532.13 1223.84 1529.43 Q1227.96 1526.72 1232.28 1526.72 Q1236.82 1526.72 1239.82 1529.78 Q1242.84 1532.84 1242.84 1537.86 M1238.01 1535.29 Q1238.01 1532.16 1236.5 1530.17 Q1234.99 1528.17 1232.22 1528.17 Q1231.41 1528.17 1230.48 1528.43 Q1229.54 1528.65 1228.32 1529.27 Q1227.13 1529.88 1225.77 1531.17 Q1224.45 1532.42 1223.29 1534.23 Q1221.78 1536.61 1220.62 1540.99 Q1219.49 1545.34 1219.49 1547.95 Q1219.49 1551.55 1221.17 1553.36 Q1222.84 1555.13 1225.23 1555.13 Q1227.55 1555.13 1229.99 1553.52 Q1232.47 1551.87 1234.18 1549.07 Q1235.89 1546.17 1236.95 1541.92 Q1238.01 1537.64 1238.01 1535.29 Z" fill="#000000" fill-rule="nonzero" fill-opacity="1" /><path clip-path="url(#clip600)" d="M1274.17 1529.81 Q1274.17 1529.85 1273.98 1531 L1266.64 1560.28 Q1266.25 1561.83 1265.15 1563.37 Q1264.09 1564.95 1262.38 1566.3 Q1260.71 1567.69 1258.13 1568.52 Q1255.59 1569.39 1252.66 1569.39 Q1247.99 1569.39 1245.93 1568.4 Q1243.9 1567.43 1243.9 1565.37 Q1243.9 1563.56 1245.03 1562.53 Q1246.15 1561.54 1247.44 1561.54 Q1248.66 1561.54 1249.31 1562.24 Q1249.95 1562.95 1249.95 1563.85 Q1249.95 1564.85 1249.28 1565.85 Q1248.6 1566.88 1247.25 1567.27 Q1249.41 1567.94 1252.53 1567.94 Q1259.13 1567.94 1261.97 1560.96 Q1262.03 1560.86 1262.03 1560.83 L1264.22 1552.1 L1264.12 1552.04 Q1263.58 1552.68 1262.71 1553.42 Q1261.87 1554.13 1260.07 1555 Q1258.26 1555.87 1256.49 1555.87 Q1252.79 1555.87 1250.24 1553.03 Q1247.73 1550.17 1247.73 1545.43 Q1247.73 1541.99 1249.12 1538.54 Q1250.53 1535.06 1252.72 1532.52 Q1254.94 1529.94 1257.78 1528.33 Q1260.65 1526.72 1263.41 1526.72 Q1265.35 1526.72 1266.99 1527.88 Q1268.63 1529.01 1269.53 1530.88 Q1269.69 1529.33 1270.56 1528.69 Q1271.47 1528.04 1272.24 1528.04 Q1273.11 1528.04 1273.62 1528.53 Q1274.17 1528.98 1274.17 1529.81 M1268.76 1533.84 Q1268.76 1533.65 1268.63 1533.13 Q1268.5 1532.58 1268.12 1531.71 Q1267.76 1530.84 1267.22 1530.07 Q1266.67 1529.3 1265.67 1528.75 Q1264.7 1528.17 1263.48 1528.17 Q1261.48 1528.17 1259.49 1529.85 Q1257.49 1531.49 1256.1 1534.03 Q1254.82 1536.48 1253.59 1541.21 Q1252.4 1545.95 1252.4 1548.36 Q1252.4 1550.75 1253.43 1552.58 Q1254.46 1554.42 1256.68 1554.42 Q1259.26 1554.42 1262.03 1552.04 Q1264.9 1549.56 1265.38 1547.43 L1268.57 1534.84 Q1268.76 1534.06 1268.76 1533.84 Z" fill="#000000" fill-rule="nonzero" fill-opacity="1" /><path clip-path="url(#clip600)" d="M1283.21 1539.38 Q1283.21 1528.24 1287.37 1519.25 Q1289.14 1515.48 1291.62 1512.33 Q1294.1 1509.17 1295.74 1507.78 Q1297.39 1506.4 1297.84 1506.4 Q1298.48 1506.4 1298.51 1507.04 Q1298.51 1507.37 1297.64 1508.17 Q1287.02 1518.99 1287.05 1539.38 Q1287.05 1559.83 1297.39 1570.23 Q1298.51 1571.36 1298.51 1571.71 Q1298.51 1572.36 1297.84 1572.36 Q1297.39 1572.36 1295.81 1571.04 Q1294.23 1569.72 1291.78 1566.69 Q1289.33 1563.66 1287.56 1559.96 Q1283.21 1550.97 1283.21 1539.38 Z" fill="#000000" fill-rule="nonzero" fill-opacity="1" /><path clip-path="url(#clip600)" d="M1331.42 1516.83 Q1331.42 1518.86 1325.56 1518.86 Q1324.56 1518.86 1324.01 1518.83 Q1323.46 1518.77 1322.66 1518.44 Q1321.88 1518.09 1321.34 1517.41 Q1317.86 1519.12 1315.93 1522.34 Q1314.03 1525.56 1314.03 1528.62 Q1314.03 1531.81 1315.99 1533.77 Q1318.44 1532.97 1321.53 1532.97 Q1324.01 1532.97 1325.46 1533.32 Q1326.94 1533.68 1326.94 1534.77 Q1326.94 1535.26 1326.65 1535.64 Q1326.36 1536 1325.75 1536.22 Q1325.17 1536.42 1324.62 1536.54 Q1324.11 1536.67 1323.27 1536.74 Q1322.43 1536.77 1321.98 1536.8 Q1321.53 1536.8 1320.82 1536.8 Q1317.34 1536.8 1314.99 1535.96 Q1311.22 1537.86 1309.07 1541.31 Q1306.91 1544.72 1306.91 1547.17 Q1306.91 1551.04 1311.84 1553.03 L1315.8 1554.61 Q1316.7 1554.9 1319.82 1556.13 L1323.85 1557.64 Q1327 1559.02 1327 1562.34 Q1327 1564.92 1325.01 1567.14 Q1323.04 1569.39 1320.14 1569.39 Q1318.44 1569.39 1316.67 1568.75 Q1314.93 1568.14 1313.93 1567.4 Q1312.96 1566.66 1312.96 1566.24 Q1312.96 1565.5 1313.61 1565.5 Q1313.86 1565.5 1314.35 1565.82 Q1317.41 1567.94 1320.14 1567.94 Q1321.56 1567.94 1322.46 1566.82 Q1323.4 1565.69 1323.4 1564.43 Q1323.4 1563.76 1323.2 1563.28 Q1323.04 1562.79 1322.56 1562.44 Q1322.11 1562.12 1321.88 1561.99 Q1321.69 1561.89 1321.08 1561.6 Q1319.79 1561.12 1317.57 1560.25 Q1315.35 1559.41 1313.09 1558.51 Q1309.29 1557.09 1308.13 1556.45 Q1307 1555.84 1305.43 1554.23 L1305.3 1554.06 Q1305.14 1553.87 1304.98 1553.65 Q1304.85 1553.42 1304.62 1553.1 Q1304.43 1552.74 1304.23 1552.33 Q1304.04 1551.91 1303.88 1551.42 Q1303.72 1550.91 1303.62 1550.3 Q1303.53 1549.65 1303.53 1549.01 Q1303.53 1547.95 1303.88 1546.56 Q1304.27 1545.14 1305.1 1543.28 Q1305.97 1541.41 1307.81 1539.38 Q1309.65 1537.35 1312.16 1535.67 L1313.03 1535.03 Q1310.84 1533.77 1309.77 1531.91 Q1308.74 1530.04 1308.74 1528.04 Q1308.74 1524.15 1311.9 1520.67 Q1315.09 1517.16 1320.27 1515.71 Q1319.82 1513.9 1319.82 1513.13 Q1319.82 1512.84 1319.85 1512.52 Q1319.89 1512.16 1319.95 1511.49 Q1320.05 1510.78 1320.31 1510.36 Q1320.6 1509.91 1321.01 1509.91 Q1321.79 1509.91 1321.79 1510.75 Q1321.46 1512.26 1321.46 1513.2 Q1321.46 1514.42 1321.79 1515.39 Q1323.65 1515.03 1325.94 1515.03 Q1328.49 1515.03 1329.94 1515.39 Q1331.42 1515.71 1331.42 1516.83 M1329.71 1516.9 Q1328.16 1516.48 1326.01 1516.48 Q1324.01 1516.48 1322.85 1516.83 Q1323.37 1517.22 1323.91 1517.32 Q1324.49 1517.41 1325.62 1517.41 Q1328.32 1517.41 1329.71 1516.9 M1325.23 1534.84 Q1323.69 1534.42 1321.46 1534.42 Q1319.34 1534.42 1317.7 1534.84 Q1318.53 1535.19 1319.11 1535.29 Q1319.73 1535.35 1321.01 1535.35 Q1324.2 1535.35 1325.23 1534.84 Z" fill="#000000" fill-rule="nonzero" fill-opacity="1" /><path clip-path="url(#clip600)" d="M1336.63 1571.71 Q1336.63 1571.39 1337.46 1570.59 Q1348.09 1559.76 1348.09 1539.38 Q1348.09 1518.93 1337.88 1508.59 Q1336.63 1507.4 1336.63 1507.04 Q1336.63 1506.4 1337.27 1506.4 Q1337.72 1506.4 1339.3 1507.72 Q1340.91 1509.04 1343.33 1512.07 Q1345.77 1515.1 1347.58 1518.8 Q1351.93 1527.78 1351.93 1539.38 Q1351.93 1550.52 1347.77 1559.51 Q1346 1563.28 1343.52 1566.43 Q1341.04 1569.59 1339.4 1570.97 Q1337.75 1572.36 1337.27 1572.36 Q1336.63 1572.36 1336.63 1571.71 Z" fill="#000000" fill-rule="nonzero" fill-opacity="1" /><polyline clip-path="url(#clip600)" style="stroke:#000000; stroke-linecap:round; stroke-linejoin:round; stroke-width:4; stroke-opacity:1; fill:none" points="202.227,1423.18 202.227,47.2441 "/>
<polyline clip-path="url(#clip600)" style="stroke:#000000; stroke-linecap:round; stroke-linejoin:round; stroke-width:4; stroke-opacity:1; fill:none" points="202.227,1364.65 221.125,1364.65 "/>
<polyline clip-path="url(#clip600)" style="stroke:#000000; stroke-linecap:round; stroke-linejoin:round; stroke-width:4; stroke-opacity:1; fill:none" points="202.227,1041.1 221.125,1041.1 "/>
<polyline clip-path="url(#clip600)" style="stroke:#000000; stroke-linecap:round; stroke-linejoin:round; stroke-width:4; stroke-opacity:1; fill:none" points="202.227,717.55 221.125,717.55 "/>
<polyline clip-path="url(#clip600)" style="stroke:#000000; stroke-linecap:round; stroke-linejoin:round; stroke-width:4; stroke-opacity:1; fill:none" points="202.227,394.001 221.125,394.001 "/>
<polyline clip-path="url(#clip600)" style="stroke:#000000; stroke-linecap:round; stroke-linejoin:round; stroke-width:4; stroke-opacity:1; fill:none" points="202.227,70.4519 221.125,70.4519 "/>
<path clip-path="url(#clip600)" d="M154.7 1362.78 Q151.552 1362.78 149.7 1364.94 Q147.871 1367.09 147.871 1370.84 Q147.871 1374.57 149.7 1376.74 Q151.552 1378.9 154.7 1378.9 Q157.848 1378.9 159.677 1376.74 Q161.528 1374.57 161.528 1370.84 Q161.528 1367.09 159.677 1364.94 Q157.848 1362.78 154.7 1362.78 M163.982 1348.13 L163.982 1352.39 Q162.223 1351.56 160.417 1351.12 Q158.635 1350.68 156.876 1350.68 Q152.246 1350.68 149.792 1353.8 Q147.362 1356.93 147.015 1363.25 Q148.38 1361.23 150.441 1360.17 Q152.501 1359.08 154.978 1359.08 Q160.186 1359.08 163.195 1362.25 Q166.227 1365.4 166.227 1370.84 Q166.227 1376.16 163.079 1379.38 Q159.931 1382.6 154.7 1382.6 Q148.704 1382.6 145.533 1378.02 Q142.362 1373.41 142.362 1364.68 Q142.362 1356.49 146.251 1351.63 Q150.14 1346.74 156.69 1346.74 Q158.45 1346.74 160.232 1347.09 Q162.038 1347.44 163.982 1348.13 Z" fill="#000000" fill-rule="nonzero" fill-opacity="1" /><path clip-path="url(#clip600)" d="M144.005 1023.82 L166.227 1023.82 L166.227 1025.81 L153.681 1058.38 L148.797 1058.38 L160.603 1027.75 L144.005 1027.75 L144.005 1023.82 Z" fill="#000000" fill-rule="nonzero" fill-opacity="1" /><path clip-path="url(#clip600)" d="M154.376 718.418 Q151.042 718.418 149.121 720.2 Q147.223 721.983 147.223 725.108 Q147.223 728.233 149.121 730.015 Q151.042 731.797 154.376 731.797 Q157.709 731.797 159.63 730.015 Q161.552 728.209 161.552 725.108 Q161.552 721.983 159.63 720.2 Q157.732 718.418 154.376 718.418 M149.7 716.427 Q146.691 715.686 145.001 713.626 Q143.334 711.566 143.334 708.603 Q143.334 704.46 146.274 702.052 Q149.237 699.645 154.376 699.645 Q159.538 699.645 162.477 702.052 Q165.417 704.46 165.417 708.603 Q165.417 711.566 163.727 713.626 Q162.061 715.686 159.075 716.427 Q162.454 717.214 164.329 719.506 Q166.227 721.797 166.227 725.108 Q166.227 730.131 163.149 732.816 Q160.093 735.501 154.376 735.501 Q148.658 735.501 145.579 732.816 Q142.524 730.131 142.524 725.108 Q142.524 721.797 144.422 719.506 Q146.32 717.214 149.7 716.427 M147.987 709.043 Q147.987 711.728 149.653 713.233 Q151.343 714.737 154.376 714.737 Q157.385 714.737 159.075 713.233 Q160.788 711.728 160.788 709.043 Q160.788 706.358 159.075 704.853 Q157.385 703.348 154.376 703.348 Q151.343 703.348 149.653 704.853 Q147.987 706.358 147.987 709.043 Z" fill="#000000" fill-rule="nonzero" fill-opacity="1" /><path clip-path="url(#clip600)" d="M144.607 410.563 L144.607 406.304 Q146.366 407.137 148.172 407.577 Q149.978 408.017 151.714 408.017 Q156.343 408.017 158.774 404.915 Q161.227 401.79 161.575 395.448 Q160.232 397.438 158.172 398.503 Q156.112 399.568 153.612 399.568 Q148.427 399.568 145.394 396.443 Q142.385 393.295 142.385 387.855 Q142.385 382.531 145.533 379.313 Q148.681 376.096 153.913 376.096 Q159.908 376.096 163.056 380.702 Q166.227 385.286 166.227 394.036 Q166.227 402.207 162.339 407.091 Q158.473 411.952 151.922 411.952 Q150.163 411.952 148.357 411.605 Q146.552 411.258 144.607 410.563 M153.913 395.911 Q157.061 395.911 158.89 393.758 Q160.741 391.605 160.741 387.855 Q160.741 384.128 158.89 381.975 Q157.061 379.8 153.913 379.8 Q150.765 379.8 148.913 381.975 Q147.084 384.128 147.084 387.855 Q147.084 391.605 148.913 393.758 Q150.765 395.911 153.913 395.911 Z" fill="#000000" fill-rule="nonzero" fill-opacity="1" /><path clip-path="url(#clip600)" d="M114.931 83.7967 L122.57 83.7967 L122.57 57.4311 L114.26 59.0977 L114.26 54.8385 L122.524 53.1719 L127.2 53.1719 L127.2 83.7967 L134.839 83.7967 L134.839 87.7319 L114.931 87.7319 L114.931 83.7967 Z" fill="#000000" fill-rule="nonzero" fill-opacity="1" /><path clip-path="url(#clip600)" d="M154.283 56.2505 Q150.672 56.2505 148.843 59.8153 Q147.038 63.357 147.038 70.4866 Q147.038 77.593 148.843 81.1578 Q150.672 84.6995 154.283 84.6995 Q157.917 84.6995 159.723 81.1578 Q161.552 77.593 161.552 70.4866 Q161.552 63.357 159.723 59.8153 Q157.917 56.2505 154.283 56.2505 M154.283 52.5469 Q160.093 52.5469 163.149 57.1533 Q166.227 61.7366 166.227 70.4866 Q166.227 79.2134 163.149 83.8198 Q160.093 88.4031 154.283 88.4031 Q148.473 88.4031 145.394 83.8198 Q142.339 79.2134 142.339 70.4866 Q142.339 61.7366 145.394 57.1533 Q148.473 52.5469 154.283 52.5469 Z" fill="#000000" fill-rule="nonzero" fill-opacity="1" /><path clip-path="url(#clip600)" d="M21.0281 921.391 L59.1598 930.891 Q60.6735 931.278 62.316 931.278 Q65.3434 931.278 65.3434 929.281 Q65.3434 928.347 64.7314 927.574 Q64.0873 926.801 62.8313 926.221 Q61.5431 925.61 60.3192 925.223 Q59.0954 924.804 57.1953 924.289 Q56.4545 924.128 56.2291 923.967 Q56.0037 923.806 56.0037 923.355 Q56.0037 922.55 56.6478 922.55 Q60.6091 923.355 63.1212 924.547 Q66.8248 926.286 66.8248 929.506 Q66.8248 931.922 65.1501 933.725 Q63.4432 935.497 60.7379 935.497 Q59.7073 935.497 58.4835 935.175 L25.5047 926.866 L24.2165 926.64 Q23.8622 926.64 23.669 926.769 Q23.4757 926.898 23.2825 927.671 Q23.0893 928.411 23.0893 929.893 Q23.0893 930.505 23.0571 930.795 Q23.0249 931.052 22.8638 931.31 Q22.7028 931.535 22.3485 931.535 Q21.7688 931.535 21.4468 931.31 Q21.1247 931.052 21.0603 930.859 Q20.9959 930.666 20.9637 930.279 Q20.9315 929.732 20.7704 927.896 Q20.5772 926.06 20.4484 924.482 Q20.3196 922.904 20.3196 922.228 Q20.3196 921.841 20.5128 921.648 Q20.6738 921.423 20.8671 921.391 L21.0281 921.391 Z" fill="#000000" fill-rule="nonzero" fill-opacity="1" /><path clip-path="url(#clip600)" d="M48.081 885.682 Q51.5915 885.682 55.0697 887.228 Q58.5157 888.774 61.0922 891.254 Q63.6364 893.701 65.2467 896.922 Q66.8248 900.143 66.8248 903.363 Q66.8248 907.969 63.7009 910.964 Q60.5447 913.927 55.6494 913.927 Q51.0762 913.927 46.7284 911.382 Q42.3484 908.806 39.6431 904.684 Q36.9378 900.561 36.9378 896.246 Q36.9378 891.705 39.9973 888.709 Q43.0569 885.682 48.081 885.682 M45.5045 890.513 Q42.3806 890.513 40.3838 892.027 Q38.3871 893.54 38.3871 896.31 Q38.3871 897.115 38.6447 898.049 Q38.8701 898.983 39.4821 900.207 Q40.094 901.399 41.3822 902.751 Q42.6382 904.072 44.4418 905.231 Q46.825 906.745 51.205 907.904 Q55.5528 909.031 58.1615 909.031 Q61.7685 909.031 63.572 907.357 Q65.3434 905.682 65.3434 903.299 Q65.3434 900.98 63.7331 898.532 Q62.0906 896.052 59.2887 894.345 Q56.3901 892.639 52.139 891.576 Q47.8556 890.513 45.5045 890.513 Z" fill="#000000" fill-rule="nonzero" fill-opacity="1" /><path clip-path="url(#clip600)" d="M40.0296 854.354 Q40.0618 854.354 41.2212 854.547 L70.4963 861.89 Q72.0422 862.277 73.5881 863.372 Q75.1661 864.434 76.5188 866.141 Q77.9036 867.816 78.741 870.392 Q79.6106 872.937 79.6106 875.867 Q79.6106 880.537 78.6122 882.598 Q77.646 884.627 75.5848 884.627 Q73.7813 884.627 72.7507 883.5 Q71.7523 882.373 71.7523 881.085 Q71.7523 879.861 72.4609 879.217 Q73.1694 878.573 74.0711 878.573 Q75.0695 878.573 76.0679 879.249 Q77.0985 879.925 77.485 881.278 Q78.1613 879.12 78.1613 875.996 Q78.1613 869.394 71.1726 866.56 Q71.076 866.496 71.0438 866.496 L62.316 864.306 L62.2516 864.402 Q62.8957 864.95 63.6364 865.819 Q64.345 866.657 65.2145 868.46 Q66.0841 870.264 66.0841 872.035 Q66.0841 875.739 63.25 878.283 Q60.3837 880.795 55.6494 880.795 Q52.2034 880.795 48.7573 879.41 Q45.2791 877.993 42.7348 875.803 Q40.1584 873.581 38.5481 870.747 Q36.9378 867.88 36.9378 865.111 Q36.9378 863.178 38.0972 861.536 Q39.2244 859.893 41.0923 858.992 Q39.5465 858.831 38.9023 857.961 Q38.2582 857.059 38.2582 856.286 Q38.2582 855.417 38.7413 854.901 Q39.1922 854.354 40.0296 854.354 M44.0553 859.765 Q43.8621 859.765 43.3468 859.893 Q42.7993 860.022 41.9297 860.409 Q41.0601 860.763 40.2872 861.31 Q39.5143 861.858 38.9668 862.856 Q38.3871 863.822 38.3871 865.046 Q38.3871 867.043 40.0618 869.04 Q41.7043 871.037 44.2485 872.421 Q46.6962 873.71 51.4304 874.933 Q56.1647 876.125 58.5801 876.125 Q60.9634 876.125 62.7991 875.095 Q64.6348 874.064 64.6348 871.842 Q64.6348 869.265 62.2516 866.496 Q59.7717 863.629 57.6462 863.146 L45.0537 859.958 Q44.2807 859.765 44.0553 859.765 Z" fill="#000000" fill-rule="nonzero" fill-opacity="1" /><path clip-path="url(#clip600)" d="M49.5947 845.311 Q38.4515 845.311 29.466 841.156 Q25.6979 839.385 22.5418 836.905 Q19.3856 834.425 18.0007 832.782 Q16.6159 831.14 16.6159 830.689 Q16.6159 830.045 17.26 830.013 Q17.5821 830.013 18.3872 830.882 Q29.2084 841.51 49.5947 841.478 Q70.0454 841.478 80.4479 831.14 Q81.5751 830.013 81.9294 830.013 Q82.5735 830.013 82.5735 830.689 Q82.5735 831.14 81.2531 832.718 Q79.9326 834.296 76.9053 836.744 Q73.8779 839.191 70.1742 840.963 Q61.1888 845.311 49.5947 845.311 Z" fill="#000000" fill-rule="nonzero" fill-opacity="1" /><path clip-path="url(#clip600)" d="M56.6478 770.958 Q56.9054 770.958 57.9038 771.248 Q58.9022 771.537 60.4481 772.246 Q61.994 772.922 63.411 773.888 Q64.7959 774.822 65.8264 776.368 Q66.8248 777.882 66.8248 779.621 Q66.8248 781.94 65.2789 783.486 Q63.7331 785.032 61.4142 785.032 Q60.1582 785.032 57.775 784.162 Q46.8894 780.072 42.9925 780.072 Q38.3871 780.072 38.3871 783.647 Q38.3871 785.676 39.2244 787.511 Q40.0618 789.347 41.2212 790.539 Q42.3806 791.73 43.701 792.664 Q45.0215 793.598 45.891 794.017 Q46.7606 794.404 47.147 794.5 L63.0567 798.461 Q64.4094 798.784 65.0535 799.009 Q65.6976 799.234 66.2451 799.846 Q66.8248 800.458 66.8248 801.424 Q66.8248 802.23 66.3417 802.809 Q65.8587 803.357 65.0213 803.357 Q64.8925 803.357 64.2162 803.196 Q63.5398 803.035 62.6059 802.809 Q61.6719 802.584 61.1244 802.487 Q56.7444 801.328 56.1325 801.167 L48.4675 799.331 Q44.6672 798.333 42.9925 798.333 Q38.3871 798.333 38.3871 801.907 Q38.3871 803.679 39.0634 805.354 Q39.7075 806.996 40.6093 808.123 Q41.511 809.25 42.7671 810.281 Q43.9909 811.279 44.8282 811.795 Q45.6334 812.278 46.4385 812.664 L49.7235 813.502 Q50.6253 813.695 54.1357 814.629 L60.0938 816.078 Q64.5382 817.109 64.9569 817.334 Q65.8587 817.656 66.3417 818.365 Q66.8248 819.073 66.8248 819.782 Q66.8248 820.587 66.3417 821.134 Q65.8587 821.682 65.0213 821.682 Q64.8925 821.682 64.4094 821.585 Q63.9263 821.489 63.25 821.328 Q62.5737 821.167 62.1872 821.102 L46.9538 817.27 Q44.1841 816.561 43.3146 816.4 Q42.4128 816.207 41.4144 816.207 Q38.3871 816.207 38.3871 818.268 Q38.3871 819.943 40.3838 821.038 Q42.3806 822.133 46.2453 823.067 Q47.3081 823.357 47.5335 823.55 Q47.759 823.711 47.759 824.194 Q47.7268 824.999 47.0826 824.999 Q46.9216 824.999 45.891 824.741 Q44.8604 824.484 43.3146 824.001 Q41.7365 823.485 40.7059 822.938 Q40.0296 822.616 39.5787 822.326 Q39.1278 822.036 38.4193 821.456 Q37.7107 820.877 37.3243 820.007 Q36.9378 819.138 36.9378 818.075 Q36.9378 815.724 38.4515 813.985 Q39.9651 812.213 42.6704 811.988 Q36.9378 807.705 36.9378 801.714 Q36.9378 798.333 38.6447 796.304 Q40.2872 794.404 43.3146 794.178 Q36.9378 789.734 36.9378 783.421 Q36.9378 779.782 38.8379 777.818 Q40.7059 775.853 43.9909 775.853 Q45.6978 775.853 48.9506 776.723 Q52.1712 777.592 53.7815 778.172 Q55.3917 778.751 58.4835 779.879 Q61.4465 781.07 63.1856 781.07 Q64.3128 781.07 64.8281 780.684 Q65.3434 780.297 65.3434 779.46 Q65.3434 778.172 64.6026 777.045 Q63.8297 775.917 62.5737 775.112 Q61.2854 774.275 59.9972 773.727 Q58.6767 773.18 57.1953 772.761 Q56.3901 772.504 56.1969 772.375 Q56.0037 772.214 56.0037 771.763 Q56.0037 770.958 56.6478 770.958 Z" fill="#000000" fill-rule="nonzero" fill-opacity="1" /><path clip-path="url(#clip600)" d="M56.6478 736.645 Q60.8023 737.514 63.1856 738.641 Q66.8248 740.445 66.8248 743.504 Q66.8248 745.823 65.4078 747.466 Q63.9907 749.108 61.8651 749.495 Q66.8248 753.714 66.8248 758.094 Q66.8248 761.958 63.8941 764.406 Q60.9312 766.854 56.2613 766.854 Q51.5593 766.854 47.0504 764.535 Q42.5416 762.184 39.7397 758.48 Q36.9378 754.776 36.9378 750.976 Q36.9378 746.95 41.1568 744.889 Q39.9973 744.728 39.1278 743.987 Q38.2582 743.247 38.2582 742.119 Q38.2582 741.25 38.7413 740.735 Q39.1922 740.219 40.0296 740.219 Q40.4482 740.219 42.284 740.67 L51.4948 743.053 L57.4529 744.503 Q59.6429 745.05 60.4481 745.211 Q61.2532 745.34 62.316 745.34 Q65.3434 745.34 65.3434 743.376 Q65.3434 742.409 64.7314 741.636 Q64.1195 740.863 62.8313 740.252 Q61.5431 739.64 60.3515 739.253 Q59.1276 738.867 57.1953 738.351 Q56.4223 738.19 56.2291 738.062 Q56.0037 737.901 56.0037 737.45 Q56.0037 736.645 56.6478 736.645 M44.1841 745.694 Q43.8943 745.694 43.0891 745.92 Q42.284 746.145 41.1568 746.661 Q40.0296 747.176 39.2244 748.303 Q38.3871 749.398 38.3871 750.879 Q38.3871 752.876 40.094 754.97 Q41.8009 757.031 44.6994 758.544 Q47.0182 759.704 51.8813 760.96 Q56.7444 762.184 59.1598 762.184 Q60.6413 762.184 61.9617 761.862 Q63.25 761.507 64.3128 760.509 Q65.3434 759.511 65.3434 757.965 Q65.3434 754.197 60.6735 750.493 Q59.8684 749.784 59.5463 749.623 Q59.192 749.43 58.2259 749.173 L45.3113 745.888 Q44.3451 745.694 44.1841 745.694 Z" fill="#000000" fill-rule="nonzero" fill-opacity="1" /><path clip-path="url(#clip600)" d="M41.2856 701.042 Q43.0891 701.042 44.1197 702.169 Q45.1181 703.296 45.1181 704.584 Q45.1181 705.808 44.4096 706.452 Q43.701 707.096 42.7993 707.096 Q41.5754 707.096 40.5126 706.194 Q39.4498 705.293 39.2244 703.94 Q38.3871 705.261 38.3871 707.225 Q38.3871 708.513 39.0634 709.641 Q39.7397 710.736 40.6093 711.412 Q41.4788 712.056 42.7348 712.636 Q43.9587 713.183 44.6994 713.409 Q45.4079 713.602 46.1809 713.763 L55.1985 716.017 Q59.4819 717.112 60.9956 717.112 Q62.8635 717.112 64.1195 716.211 Q65.3434 715.309 65.3434 713.505 Q65.3434 712.797 65.1501 711.992 Q64.9247 711.186 64.345 710.156 Q63.7331 709.093 62.8313 708.159 Q61.8973 707.193 60.3192 706.259 Q58.7412 705.325 56.7122 704.713 Q56.0037 704.52 56.0037 703.876 Q56.0037 703.071 56.6478 703.071 Q57.1953 703.071 58.3547 703.521 Q59.4819 703.94 60.9634 704.874 Q62.4126 705.776 63.7331 706.967 Q65.0213 708.159 65.9231 709.93 Q66.8248 711.702 66.8248 713.634 Q66.8248 716.404 65.3434 718.239 Q63.8619 720.075 61.8007 720.752 Q62.0906 720.913 62.477 721.138 Q62.8635 721.363 63.7331 722.04 Q64.5704 722.684 65.2145 723.425 Q65.8264 724.165 66.3095 725.325 Q66.8248 726.452 66.8248 727.676 Q66.8248 729.222 66.3739 730.607 Q65.9231 731.959 64.8925 732.925 Q63.8619 733.892 62.4448 733.892 Q60.8667 733.892 59.7717 732.829 Q58.6445 731.734 58.6445 730.252 Q58.6445 729.318 59.192 728.578 Q59.7395 727.805 60.9312 727.805 Q62.2516 727.805 63.25 728.706 Q64.2484 729.608 64.506 730.896 Q65.3434 729.576 65.3434 727.611 Q65.3434 725.486 63.4754 723.811 Q61.6075 722.136 58.4835 721.331 Q50.9795 719.334 47.6301 718.562 Q44.2485 717.789 42.7993 717.789 Q41.4466 717.789 40.5126 718.143 Q39.5787 718.497 39.16 719.109 Q38.7091 719.689 38.5481 720.236 Q38.3871 720.752 38.3871 721.331 Q38.3871 722.297 38.7735 723.392 Q39.16 724.455 40.0618 725.743 Q40.9313 726.999 42.7348 728.191 Q44.5384 729.383 47.0182 730.188 Q47.759 730.349 47.759 731.057 Q47.7268 731.83 47.0826 731.83 Q46.5351 731.83 45.4079 731.412 Q44.2485 730.961 42.7993 730.059 Q41.35 729.125 40.0618 727.933 Q38.7413 726.71 37.8396 724.938 Q36.9378 723.135 36.9378 721.202 Q36.9378 720.333 37.131 719.496 Q37.2921 718.626 37.7751 717.595 Q38.2582 716.533 39.321 715.599 Q40.3838 714.665 41.9297 714.085 Q41.189 713.698 40.4804 713.183 Q39.7719 712.636 38.9023 711.798 Q38.0006 710.929 37.4853 709.737 Q36.9378 708.513 36.9378 707.161 Q36.9378 705.84 37.2921 704.552 Q37.6141 703.264 38.6769 702.169 Q39.7075 701.042 41.2856 701.042 Z" fill="#000000" fill-rule="nonzero" fill-opacity="1" /><path clip-path="url(#clip600)" d="M49.5947 692.314 Q38.4515 692.314 29.466 688.16 Q25.6979 686.389 22.5418 683.909 Q19.3856 681.429 18.0007 679.786 Q16.6159 678.144 16.6159 677.693 Q16.6159 677.049 17.26 677.017 Q17.5821 677.017 18.3872 677.886 Q29.2084 688.514 49.5947 688.482 Q70.0454 688.482 80.4479 678.144 Q81.5751 677.017 81.9294 677.017 Q82.5735 677.017 82.5735 677.693 Q82.5735 678.144 81.2531 679.722 Q79.9326 681.3 76.9053 683.748 Q73.8779 686.195 70.1742 687.967 Q61.1888 692.314 49.5947 692.314 Z" fill="#000000" fill-rule="nonzero" fill-opacity="1" /><path clip-path="url(#clip600)" d="M81.2531 652.076 Q81.8006 652.076 82.187 652.462 Q82.5735 652.849 82.5735 653.396 Q82.5735 654.33 81.7039 654.652 L50.0456 666.923 Q49.9168 666.987 49.5947 666.987 Q49.2726 666.987 49.1438 666.923 L17.4855 654.652 Q16.6159 654.33 16.6159 653.396 Q16.6159 652.849 17.0024 652.462 Q17.3888 652.076 17.9363 652.076 Q18.2584 652.076 18.3872 652.14 L49.5947 664.282 L80.8022 652.14 Q80.931 652.076 81.2531 652.076 Z" fill="#000000" fill-rule="nonzero" fill-opacity="1" /><path clip-path="url(#clip600)" d="M42.606 617.313 Q44.4096 617.313 45.3757 618.214 Q46.3097 619.116 46.3097 620.34 Q46.3097 621.338 45.73 621.886 Q45.1503 622.401 44.3773 622.401 Q43.2501 622.401 42.3484 621.499 Q41.4466 620.565 41.4144 619.213 Q40.2228 619.664 39.5143 620.855 Q38.7735 622.047 38.5803 623.11 Q38.3871 624.14 38.3871 625.171 Q38.3871 627.2 39.0312 628.746 Q39.6753 630.292 40.6737 631.064 Q41.6398 631.837 42.5738 632.192 Q43.5078 632.546 44.3129 632.546 Q45.0215 632.546 45.6012 632.385 Q46.1487 632.192 46.5673 631.741 Q46.9538 631.29 47.2115 630.968 Q47.4691 630.614 47.6945 629.841 Q47.92 629.068 48.0166 628.746 Q48.081 628.424 48.2743 627.522 Q48.6607 625.654 48.8862 624.817 Q49.0794 623.979 49.6269 622.884 Q50.1744 621.757 51.044 620.92 Q53.0729 618.891 55.8748 618.891 Q56.9054 618.891 58.1615 619.245 Q59.4175 619.567 60.9956 620.501 Q62.5737 621.435 63.8297 622.852 Q65.0857 624.269 65.9553 626.717 Q66.8248 629.132 66.8248 632.159 Q66.8248 636.378 65.0535 638.987 Q63.25 641.596 60.4159 641.596 Q58.3547 641.596 57.2275 640.469 Q56.0681 639.341 56.0681 637.892 Q56.0681 636.797 56.68 636.121 Q57.2597 635.444 58.3547 635.444 Q59.8362 635.444 60.9634 636.636 Q62.0906 637.828 61.8651 639.599 Q65.3434 638.085 65.3434 632.095 Q65.3434 629.841 64.7637 628.102 Q64.1517 626.33 63.3144 625.364 Q62.4448 624.366 61.382 623.722 Q60.3192 623.077 59.5141 622.884 Q58.709 622.659 58.097 622.659 Q57.0342 622.659 56.2291 623.077 Q55.424 623.496 54.9731 624.076 Q54.49 624.623 54.1035 625.686 Q53.6848 626.717 53.5238 627.457 Q53.3628 628.198 53.1051 629.519 Q52.9763 630.131 52.9119 630.517 Q52.8153 630.903 52.5576 631.709 Q52.2678 632.482 51.9779 633.029 Q51.6881 633.544 51.1728 634.221 Q50.6575 634.897 50.0456 635.316 Q49.4337 635.734 48.5319 636.024 Q47.6301 636.314 46.5673 636.314 Q45.6012 636.314 44.4418 636.024 Q43.2823 635.702 41.9297 634.897 Q40.5771 634.06 39.4821 632.868 Q38.3871 631.676 37.6785 629.68 Q36.9378 627.651 36.9378 625.171 Q36.9378 621.564 38.6125 619.438 Q40.255 617.313 42.606 617.313 Z" fill="#000000" fill-rule="nonzero" fill-opacity="1" /><path clip-path="url(#clip600)" d="M49.1438 596.159 Q49.2726 596.094 49.5947 596.094 Q49.9168 596.094 50.0456 596.159 L81.7039 608.429 Q82.5735 608.751 82.5735 609.653 Q82.5735 610.2 82.187 610.587 Q81.8006 610.973 81.2531 610.973 Q80.931 610.973 80.8022 610.909 L49.5947 598.799 L18.3872 610.909 Q18.2584 610.973 17.9363 610.973 Q17.3888 610.973 17.0024 610.587 Q16.6159 610.2 16.6159 609.653 Q16.6159 608.751 17.4855 608.429 L49.1438 596.159 Z" fill="#000000" fill-rule="nonzero" fill-opacity="1" /><path clip-path="url(#clip600)" d="M81.9294 585.582 Q81.6073 585.582 80.8022 584.745 Q69.981 574.117 49.5947 574.117 Q29.144 574.117 18.8059 584.326 Q17.6143 585.582 17.26 585.582 Q16.6159 585.582 16.6159 584.938 Q16.6159 584.487 17.9363 582.909 Q19.2568 581.299 22.2841 578.883 Q25.3115 576.436 29.0151 574.632 Q38.0006 570.284 49.5947 570.284 Q60.7379 570.284 69.7234 574.439 Q73.4914 576.21 76.6476 578.69 Q79.8038 581.17 81.1886 582.812 Q82.5735 584.455 82.5735 584.938 Q82.5735 585.582 81.9294 585.582 Z" fill="#000000" fill-rule="nonzero" fill-opacity="1" /><path clip-path="url(#clip600)" d="M81.9294 560.255 Q81.6073 560.255 80.8022 559.417 Q69.981 548.789 49.5947 548.789 Q29.144 548.789 18.8059 558.999 Q17.6143 560.255 17.26 560.255 Q16.6159 560.255 16.6159 559.61 Q16.6159 559.16 17.9363 557.582 Q19.2568 555.971 22.2841 553.556 Q25.3115 551.108 29.0151 549.305 Q38.0006 544.957 49.5947 544.957 Q60.7379 544.957 69.7234 549.111 Q73.4914 550.883 76.6476 553.363 Q79.8038 555.842 81.1886 557.485 Q82.5735 559.127 82.5735 559.61 Q82.5735 560.255 81.9294 560.255 Z" fill="#000000" fill-rule="nonzero" fill-opacity="1" /><circle clip-path="url(#clip602)" cx="263.091" cy="1384.24" r="14.4" fill="#008000" fill-rule="evenodd" fill-opacity="1" stroke="#000000" stroke-opacity="1" stroke-width="3.2"/>
<circle clip-path="url(#clip602)" cx="873.821" cy="989.345" r="14.4" fill="#008000" fill-rule="evenodd" fill-opacity="1" stroke="#000000" stroke-opacity="1" stroke-width="3.2"/>
<circle clip-path="url(#clip602)" cx="1231.08" cy="753.914" r="14.4" fill="#008000" fill-rule="evenodd" fill-opacity="1" stroke="#000000" stroke-opacity="1" stroke-width="3.2"/>
<circle clip-path="url(#clip602)" cx="1484.55" cy="614.474" r="14.4" fill="#008000" fill-rule="evenodd" fill-opacity="1" stroke="#000000" stroke-opacity="1" stroke-width="3.2"/>
<circle clip-path="url(#clip602)" cx="1681.16" cy="504.526" r="14.4" fill="#008000" fill-rule="evenodd" fill-opacity="1" stroke="#000000" stroke-opacity="1" stroke-width="3.2"/>
<circle clip-path="url(#clip602)" cx="1841.81" cy="368.488" r="14.4" fill="#008000" fill-rule="evenodd" fill-opacity="1" stroke="#000000" stroke-opacity="1" stroke-width="3.2"/>
<circle clip-path="url(#clip602)" cx="2095.28" cy="205.659" r="14.4" fill="#008000" fill-rule="evenodd" fill-opacity="1" stroke="#000000" stroke-opacity="1" stroke-width="3.2"/>
<circle clip-path="url(#clip602)" cx="2199.06" cy="155.196" r="14.4" fill="#008000" fill-rule="evenodd" fill-opacity="1" stroke="#000000" stroke-opacity="1" stroke-width="3.2"/>
<circle clip-path="url(#clip602)" cx="2291.89" cy="86.1857" r="14.4" fill="#008000" fill-rule="evenodd" fill-opacity="1" stroke="#000000" stroke-opacity="1" stroke-width="3.2"/>
<polyline clip-path="url(#clip602)" style="stroke:#ff0000; stroke-linecap:round; stroke-linejoin:round; stroke-width:4; stroke-opacity:1; fill:none" points="263.091,1382.98 873.821,993.972 1231.08,766.418 1484.55,604.966 1681.16,479.734 1841.81,377.412 2095.28,215.959 2199.06,149.858 2291.89,90.7274 "/>
<path clip-path="url(#clip600)" d="M273.912 248.629 L991.112 248.629 L991.112 93.1086 L273.912 93.1086  Z" fill="#ffffff" fill-rule="evenodd" fill-opacity="1"/>
<polyline clip-path="url(#clip600)" style="stroke:#000000; stroke-linecap:round; stroke-linejoin:round; stroke-width:4; stroke-opacity:1; fill:none" points="273.912,248.629 991.112,248.629 991.112,93.1086 273.912,93.1086 273.912,248.629 "/>
<circle clip-path="url(#clip600)" cx="369.491" cy="144.949" r="20.48" fill="#008000" fill-rule="evenodd" fill-opacity="1" stroke="#000000" stroke-opacity="1" stroke-width="4.55111"/>
<path clip-path="url(#clip600)" d="M465.07 122.264 L469.746 122.264 L469.746 136.43 L486.736 136.43 L486.736 122.264 L491.412 122.264 L491.412 156.824 L486.736 156.824 L486.736 140.365 L469.746 140.365 L469.746 156.824 L465.07 156.824 L465.07 122.264 Z" fill="#000000" fill-rule="nonzero" fill-opacity="1" /><path clip-path="url(#clip600)" d="M510.579 133.884 Q507.153 133.884 505.162 136.569 Q503.171 139.231 503.171 143.884 Q503.171 148.537 505.139 151.222 Q507.13 153.884 510.579 153.884 Q513.982 153.884 515.972 151.199 Q517.963 148.513 517.963 143.884 Q517.963 139.277 515.972 136.592 Q513.982 133.884 510.579 133.884 M510.579 130.273 Q516.134 130.273 519.306 133.884 Q522.477 137.495 522.477 143.884 Q522.477 150.25 519.306 153.884 Q516.134 157.495 510.579 157.495 Q505 157.495 501.829 153.884 Q498.681 150.25 498.681 143.884 Q498.681 137.495 501.829 133.884 Q505 130.273 510.579 130.273 Z" fill="#000000" fill-rule="nonzero" fill-opacity="1" /><path clip-path="url(#clip600)" d="M551.088 141.176 L551.088 156.824 L546.829 156.824 L546.829 141.314 Q546.829 137.634 545.393 135.805 Q543.958 133.977 541.088 133.977 Q537.639 133.977 535.648 136.176 Q533.657 138.375 533.657 142.171 L533.657 156.824 L529.375 156.824 L529.375 130.898 L533.657 130.898 L533.657 134.926 Q535.185 132.588 537.245 131.43 Q539.329 130.273 542.037 130.273 Q546.505 130.273 548.796 133.051 Q551.088 135.805 551.088 141.176 Z" fill="#000000" fill-rule="nonzero" fill-opacity="1" /><path clip-path="url(#clip600)" d="M581.759 142.796 L581.759 144.879 L562.176 144.879 Q562.454 149.277 564.815 151.592 Q567.199 153.884 571.435 153.884 Q573.889 153.884 576.18 153.282 Q578.495 152.68 580.764 151.476 L580.764 155.504 Q578.472 156.476 576.065 156.986 Q573.657 157.495 571.18 157.495 Q564.977 157.495 561.342 153.884 Q557.731 150.273 557.731 144.115 Q557.731 137.75 561.157 134.023 Q564.606 130.273 570.44 130.273 Q575.671 130.273 578.703 133.652 Q581.759 137.009 581.759 142.796 M577.5 141.546 Q577.453 138.051 575.532 135.967 Q573.634 133.884 570.486 133.884 Q566.921 133.884 564.768 135.898 Q562.639 137.912 562.315 141.569 L577.5 141.546 Z" fill="#000000" fill-rule="nonzero" fill-opacity="1" /><path clip-path="url(#clip600)" d="M599.537 159.231 Q597.731 163.861 596.018 165.273 Q594.305 166.685 591.435 166.685 L588.032 166.685 L588.032 163.12 L590.532 163.12 Q592.291 163.12 593.264 162.287 Q594.236 161.453 595.416 158.351 L596.18 156.407 L585.694 130.898 L590.208 130.898 L598.31 151.176 L606.412 130.898 L610.926 130.898 L599.537 159.231 Z" fill="#000000" fill-rule="nonzero" fill-opacity="1" /><path clip-path="url(#clip600)" d="M635.462 131.893 L635.462 135.875 Q633.657 134.879 631.828 134.393 Q630.023 133.884 628.171 133.884 Q624.027 133.884 621.736 136.523 Q619.444 139.139 619.444 143.884 Q619.444 148.629 621.736 151.268 Q624.027 153.884 628.171 153.884 Q630.023 153.884 631.828 153.398 Q633.657 152.888 635.462 151.893 L635.462 155.828 Q633.68 156.662 631.759 157.078 Q629.861 157.495 627.708 157.495 Q621.851 157.495 618.402 153.814 Q614.953 150.134 614.953 143.884 Q614.953 137.541 618.425 133.907 Q621.921 130.273 627.986 130.273 Q629.953 130.273 631.828 130.69 Q633.703 131.083 635.462 131.893 Z" fill="#000000" fill-rule="nonzero" fill-opacity="1" /><path clip-path="url(#clip600)" d="M652.916 133.884 Q649.49 133.884 647.499 136.569 Q645.509 139.231 645.509 143.884 Q645.509 148.537 647.476 151.222 Q649.467 153.884 652.916 153.884 Q656.319 153.884 658.31 151.199 Q660.3 148.513 660.3 143.884 Q660.3 139.277 658.31 136.592 Q656.319 133.884 652.916 133.884 M652.916 130.273 Q658.472 130.273 661.643 133.884 Q664.814 137.495 664.814 143.884 Q664.814 150.25 661.643 153.884 Q658.472 157.495 652.916 157.495 Q647.337 157.495 644.166 153.884 Q641.018 150.25 641.018 143.884 Q641.018 137.495 644.166 133.884 Q647.337 130.273 652.916 130.273 Z" fill="#000000" fill-rule="nonzero" fill-opacity="1" /><path clip-path="url(#clip600)" d="M692.059 135.875 Q693.657 133.004 695.879 131.639 Q698.101 130.273 701.11 130.273 Q705.161 130.273 707.36 133.12 Q709.559 135.944 709.559 141.176 L709.559 156.824 L705.277 156.824 L705.277 141.314 Q705.277 137.588 703.957 135.782 Q702.638 133.977 699.93 133.977 Q696.62 133.977 694.698 136.176 Q692.777 138.375 692.777 142.171 L692.777 156.824 L688.495 156.824 L688.495 141.314 Q688.495 137.564 687.175 135.782 Q685.856 133.977 683.101 133.977 Q679.837 133.977 677.916 136.199 Q675.995 138.398 675.995 142.171 L675.995 156.824 L671.712 156.824 L671.712 130.898 L675.995 130.898 L675.995 134.926 Q677.453 132.541 679.49 131.407 Q681.527 130.273 684.328 130.273 Q687.152 130.273 689.12 131.708 Q691.11 133.143 692.059 135.875 Z" fill="#000000" fill-rule="nonzero" fill-opacity="1" /><path clip-path="url(#clip600)" d="M736.666 143.884 Q736.666 139.185 734.721 136.523 Q732.8 133.838 729.42 133.838 Q726.041 133.838 724.096 136.523 Q722.175 139.185 722.175 143.884 Q722.175 148.583 724.096 151.268 Q726.041 153.93 729.42 153.93 Q732.8 153.93 734.721 151.268 Q736.666 148.583 736.666 143.884 M722.175 134.833 Q723.518 132.518 725.555 131.407 Q727.615 130.273 730.462 130.273 Q735.184 130.273 738.124 134.023 Q741.087 137.773 741.087 143.884 Q741.087 149.995 738.124 153.745 Q735.184 157.495 730.462 157.495 Q727.615 157.495 725.555 156.384 Q723.518 155.25 722.175 152.935 L722.175 156.824 L717.893 156.824 L717.893 120.805 L722.175 120.805 L722.175 134.833 Z" fill="#000000" fill-rule="nonzero" fill-opacity="1" /><path clip-path="url(#clip600)" d="M749.235 150.944 L754.119 150.944 L754.119 156.824 L749.235 156.824 L749.235 150.944 M749.235 132.31 L754.119 132.31 L754.119 138.189 L749.235 138.189 L749.235 132.31 Z" fill="#000000" fill-rule="nonzero" fill-opacity="1" /><path clip-path="url(#clip600)" d="M814.024 149.961 Q814.024 150.148 813.813 150.874 Q813.602 151.6 813.087 152.725 Q812.595 153.849 811.892 154.88 Q811.213 155.887 810.089 156.636 Q808.988 157.362 807.723 157.362 Q806.037 157.362 804.912 156.238 Q803.788 155.114 803.788 153.427 Q803.788 152.514 804.421 150.781 Q807.395 142.864 807.395 140.03 Q807.395 136.68 804.795 136.68 Q803.32 136.68 801.985 137.289 Q800.65 137.898 799.783 138.741 Q798.916 139.585 798.237 140.545 Q797.558 141.505 797.253 142.138 Q796.972 142.77 796.902 143.051 L794.021 154.622 Q793.787 155.606 793.623 156.074 Q793.459 156.543 793.014 156.941 Q792.569 157.362 791.866 157.362 Q791.281 157.362 790.859 157.011 Q790.461 156.66 790.461 156.051 Q790.461 155.957 790.578 155.465 Q790.695 154.973 790.859 154.294 Q791.023 153.615 791.093 153.217 Q791.936 150.031 792.054 149.586 L793.389 144.012 Q794.115 141.248 794.115 140.03 Q794.115 136.68 791.515 136.68 Q790.227 136.68 789.009 137.172 Q787.814 137.641 786.994 138.296 Q786.175 138.952 785.425 139.866 Q784.699 140.756 784.324 141.365 Q783.973 141.95 783.692 142.536 L783.083 144.925 Q782.942 145.581 782.263 148.134 L781.209 152.467 Q780.459 155.699 780.295 156.004 Q780.061 156.66 779.546 157.011 Q779.031 157.362 778.515 157.362 Q777.93 157.362 777.532 157.011 Q777.133 156.66 777.133 156.051 Q777.133 155.957 777.204 155.606 Q777.274 155.254 777.391 154.762 Q777.508 154.271 777.555 153.99 L780.342 142.911 Q780.858 140.896 780.975 140.264 Q781.115 139.608 781.115 138.882 Q781.115 136.68 779.616 136.68 Q778.398 136.68 777.602 138.133 Q776.806 139.585 776.126 142.395 Q775.915 143.168 775.775 143.332 Q775.658 143.496 775.307 143.496 Q774.721 143.473 774.721 143.004 Q774.721 142.887 774.908 142.138 Q775.096 141.388 775.447 140.264 Q775.822 139.116 776.22 138.367 Q776.454 137.875 776.665 137.547 Q776.876 137.219 777.297 136.704 Q777.719 136.188 778.351 135.907 Q778.984 135.626 779.757 135.626 Q781.467 135.626 782.731 136.727 Q784.02 137.828 784.184 139.796 Q787.299 135.626 791.655 135.626 Q794.115 135.626 795.59 136.868 Q796.972 138.062 797.136 140.264 Q800.369 135.626 804.959 135.626 Q807.606 135.626 809.035 137.008 Q810.464 138.367 810.464 140.756 Q810.464 141.997 809.831 144.363 Q809.199 146.705 808.777 147.876 Q808.356 149.047 807.536 151.296 Q806.669 153.451 806.669 154.716 Q806.669 155.535 806.95 155.91 Q807.231 156.285 807.84 156.285 Q808.777 156.285 809.597 155.746 Q810.417 155.184 811.002 154.271 Q811.611 153.334 812.009 152.397 Q812.408 151.436 812.712 150.359 Q812.9 149.773 812.993 149.633 Q813.11 149.492 813.438 149.492 Q814.024 149.492 814.024 149.961 Z" fill="#000000" fill-rule="nonzero" fill-opacity="1" /><path clip-path="url(#clip600)" d="M838.969 149.961 Q838.336 152.982 837.517 154.716 Q836.205 157.362 833.98 157.362 Q832.293 157.362 831.099 156.332 Q829.904 155.301 829.623 153.755 Q826.555 157.362 823.37 157.362 Q820.559 157.362 818.779 155.231 Q816.999 153.076 816.999 149.68 Q816.999 146.26 818.685 142.981 Q820.395 139.702 823.088 137.664 Q825.782 135.626 828.546 135.626 Q831.474 135.626 832.973 138.695 Q833.09 137.851 833.629 137.219 Q834.167 136.587 834.987 136.587 Q835.619 136.587 835.994 136.938 Q836.369 137.266 836.369 137.875 Q836.369 138.179 836.041 139.514 L834.308 146.213 L833.254 150.546 Q832.856 152.139 832.738 152.725 Q832.645 153.31 832.645 154.083 Q832.645 156.285 834.074 156.285 Q834.776 156.285 835.338 155.84 Q835.901 155.395 836.346 154.458 Q836.791 153.521 837.072 152.654 Q837.353 151.764 837.727 150.359 Q837.845 149.797 837.938 149.656 Q838.055 149.492 838.383 149.492 Q838.969 149.492 838.969 149.961 M832.387 140.896 Q832.387 140.686 832.223 140.1 Q832.059 139.514 831.684 138.695 Q831.31 137.875 830.49 137.289 Q829.694 136.68 828.616 136.68 Q827.164 136.68 825.641 137.922 Q824.142 139.163 823.042 141.271 Q822.198 142.958 821.285 146.494 Q820.395 150.031 820.395 151.788 Q820.395 152.865 820.629 153.826 Q820.887 154.762 821.613 155.535 Q822.339 156.285 823.463 156.285 Q826.204 156.285 828.897 152.889 Q829.413 152.303 829.53 152.069 Q829.67 151.811 829.858 151.109 L832.247 141.716 Q832.387 141.013 832.387 140.896 Z" fill="#000000" fill-rule="nonzero" fill-opacity="1" /><path clip-path="url(#clip600)" d="M864.856 138.788 Q864.856 140.1 864.036 140.85 Q863.216 141.576 862.279 141.576 Q861.389 141.576 860.921 141.06 Q860.452 140.545 860.452 139.889 Q860.452 138.999 861.108 138.226 Q861.764 137.453 862.748 137.289 Q861.788 136.68 860.359 136.68 Q859.422 136.68 858.602 137.172 Q857.806 137.664 857.314 138.296 Q856.845 138.929 856.424 139.842 Q856.026 140.732 855.862 141.271 Q855.721 141.786 855.604 142.349 L853.964 148.907 Q853.168 152.022 853.168 153.123 Q853.168 154.481 853.824 155.395 Q854.48 156.285 855.791 156.285 Q856.307 156.285 856.892 156.144 Q857.478 155.98 858.227 155.559 Q859 155.114 859.68 154.458 Q860.382 153.779 861.061 152.631 Q861.741 151.483 862.186 150.008 Q862.326 149.492 862.795 149.492 Q863.38 149.492 863.38 149.961 Q863.38 150.359 863.052 151.202 Q862.748 152.022 862.069 153.099 Q861.413 154.153 860.546 155.114 Q859.68 156.051 858.391 156.707 Q857.103 157.362 855.698 157.362 Q853.683 157.362 852.348 156.285 Q851.013 155.207 850.521 153.708 Q850.404 153.919 850.24 154.2 Q850.076 154.481 849.584 155.114 Q849.116 155.723 848.577 156.191 Q848.039 156.636 847.195 156.988 Q846.376 157.362 845.486 157.362 Q844.361 157.362 843.354 157.034 Q842.37 156.707 841.668 155.957 Q840.965 155.207 840.965 154.177 Q840.965 153.029 841.738 152.233 Q842.534 151.413 843.612 151.413 Q844.291 151.413 844.83 151.811 Q845.392 152.209 845.392 153.076 Q845.392 154.036 844.736 154.762 Q844.08 155.489 843.143 155.676 Q844.104 156.285 845.532 156.285 Q847.078 156.285 848.296 154.926 Q849.514 153.568 850.1 151.296 Q851.552 145.838 852.114 143.403 Q852.676 140.943 852.676 139.889 Q852.676 138.905 852.419 138.226 Q852.161 137.547 851.716 137.242 Q851.294 136.915 850.896 136.797 Q850.521 136.68 850.1 136.68 Q849.397 136.68 848.601 136.961 Q847.828 137.242 846.891 137.898 Q845.977 138.531 845.111 139.842 Q844.244 141.154 843.659 142.958 Q843.541 143.496 843.026 143.496 Q842.464 143.473 842.464 143.004 Q842.464 142.606 842.769 141.786 Q843.096 140.943 843.752 139.889 Q844.432 138.835 845.298 137.898 Q846.188 136.938 847.476 136.282 Q848.788 135.626 850.193 135.626 Q850.826 135.626 851.435 135.767 Q852.067 135.884 852.817 136.235 Q853.59 136.587 854.269 137.36 Q854.948 138.133 855.37 139.257 Q855.651 138.718 856.026 138.203 Q856.424 137.687 857.033 137.055 Q857.665 136.399 858.532 136.024 Q859.422 135.626 860.406 135.626 Q861.366 135.626 862.303 135.884 Q863.24 136.118 864.036 136.891 Q864.856 137.641 864.856 138.788 Z" fill="#000000" fill-rule="nonzero" fill-opacity="1" /><path clip-path="url(#clip600)" d="M871.196 144.831 Q871.196 136.727 874.218 130.192 Q875.506 127.452 877.31 125.156 Q879.113 122.861 880.308 121.854 Q881.502 120.847 881.83 120.847 Q882.299 120.847 882.322 121.315 Q882.322 121.549 881.69 122.135 Q873.96 130.005 873.984 144.831 Q873.984 159.705 881.502 167.27 Q882.322 168.09 882.322 168.347 Q882.322 168.816 881.83 168.816 Q881.502 168.816 880.355 167.856 Q879.207 166.895 877.427 164.694 Q875.647 162.492 874.358 159.798 Q871.196 153.263 871.196 144.831 Z" fill="#000000" fill-rule="nonzero" fill-opacity="1" /><path clip-path="url(#clip600)" d="M900.457 167.856 Q900.457 168.254 900.175 168.535 Q899.894 168.816 899.496 168.816 Q898.817 168.816 898.583 168.184 L889.659 145.159 Q889.612 145.066 889.612 144.831 Q889.612 144.597 889.659 144.503 L898.583 121.479 Q898.817 120.847 899.496 120.847 Q899.894 120.847 900.175 121.128 Q900.457 121.409 900.457 121.807 Q900.457 122.041 900.41 122.135 L891.579 144.831 L900.41 167.528 Q900.457 167.621 900.457 167.856 Z" fill="#000000" fill-rule="nonzero" fill-opacity="1" /><path clip-path="url(#clip600)" d="M925.734 139.749 Q925.734 141.06 925.079 141.763 Q924.423 142.442 923.533 142.442 Q922.807 142.442 922.408 142.021 Q922.034 141.599 922.034 141.037 Q922.034 140.217 922.689 139.561 Q923.369 138.905 924.352 138.882 Q924.025 138.015 923.158 137.5 Q922.291 136.961 921.518 136.821 Q920.769 136.68 920.019 136.68 Q918.544 136.68 917.419 137.149 Q916.295 137.617 915.733 138.343 Q915.171 139.046 914.913 139.725 Q914.656 140.404 914.656 140.99 Q914.656 141.505 914.773 141.927 Q914.913 142.325 915.241 142.63 Q915.569 142.911 915.803 143.098 Q916.061 143.285 916.623 143.449 Q917.185 143.613 917.419 143.684 Q917.654 143.73 918.309 143.871 Q919.668 144.152 920.277 144.316 Q920.886 144.457 921.682 144.855 Q922.502 145.253 923.111 145.885 Q924.587 147.361 924.587 149.399 Q924.587 150.148 924.329 151.062 Q924.095 151.975 923.416 153.123 Q922.736 154.271 921.706 155.184 Q920.675 156.098 918.895 156.73 Q917.138 157.362 914.937 157.362 Q911.868 157.362 909.971 156.074 Q908.074 154.762 908.074 152.701 Q908.074 151.202 908.894 150.382 Q909.713 149.539 910.767 149.539 Q911.564 149.539 912.056 149.984 Q912.548 150.406 912.548 151.202 Q912.548 152.28 911.681 153.099 Q910.814 153.919 909.526 153.755 Q910.627 156.285 914.984 156.285 Q916.623 156.285 917.888 155.863 Q919.176 155.418 919.879 154.809 Q920.605 154.177 921.073 153.404 Q921.542 152.631 921.682 152.045 Q921.846 151.46 921.846 151.015 Q921.846 150.242 921.542 149.656 Q921.237 149.071 920.816 148.743 Q920.418 148.392 919.645 148.11 Q918.895 147.806 918.356 147.689 Q917.818 147.572 916.857 147.384 Q916.412 147.291 916.131 147.244 Q915.85 147.174 915.265 146.986 Q914.702 146.775 914.304 146.565 Q913.929 146.354 913.438 145.979 Q912.946 145.604 912.641 145.159 Q912.337 144.714 912.126 144.058 Q911.915 143.403 911.915 142.63 Q911.915 141.927 912.126 141.084 Q912.36 140.241 912.946 139.257 Q913.555 138.273 914.421 137.477 Q915.288 136.68 916.74 136.165 Q918.216 135.626 920.019 135.626 Q922.643 135.626 924.189 136.844 Q925.734 138.039 925.734 139.749 Z" fill="#000000" fill-rule="nonzero" fill-opacity="1" /><path clip-path="url(#clip600)" d="M941.114 144.503 Q941.161 144.597 941.161 144.831 Q941.161 145.066 941.114 145.159 L932.19 168.184 Q931.956 168.816 931.3 168.816 Q930.902 168.816 930.621 168.535 Q930.34 168.254 930.34 167.856 Q930.34 167.621 930.386 167.528 L939.193 144.831 L930.386 122.135 Q930.34 122.041 930.34 121.807 Q930.34 121.409 930.621 121.128 Q930.902 120.847 931.3 120.847 Q931.956 120.847 932.19 121.479 L941.114 144.503 Z" fill="#000000" fill-rule="nonzero" fill-opacity="1" /><path clip-path="url(#clip600)" d="M948.801 168.347 Q948.801 168.113 949.41 167.528 Q957.14 159.658 957.14 144.831 Q957.14 129.958 949.715 122.439 Q948.801 121.573 948.801 121.315 Q948.801 120.847 949.27 120.847 Q949.598 120.847 950.745 121.807 Q951.917 122.767 953.673 124.969 Q955.453 127.171 956.765 129.864 Q959.927 136.399 959.927 144.831 Q959.927 152.935 956.906 159.47 Q955.617 162.211 953.814 164.506 Q952.01 166.802 950.816 167.809 Q949.621 168.816 949.27 168.816 Q948.801 168.816 948.801 168.347 Z" fill="#000000" fill-rule="nonzero" fill-opacity="1" /><polyline clip-path="url(#clip600)" style="stroke:#ff0000; stroke-linecap:round; stroke-linejoin:round; stroke-width:4; stroke-opacity:1; fill:none" points="297.807,196.789 441.175,196.789 "/>
<path clip-path="url(#clip600)" d="M469.746 197.564 L469.746 210.226 L477.246 210.226 Q481.019 210.226 482.824 208.675 Q484.653 207.101 484.653 203.883 Q484.653 200.643 482.824 199.115 Q481.019 197.564 477.246 197.564 L469.746 197.564 M469.746 183.351 L469.746 193.768 L476.667 193.768 Q480.093 193.768 481.76 192.495 Q483.449 191.198 483.449 188.559 Q483.449 185.944 481.76 184.647 Q480.093 183.351 476.667 183.351 L469.746 183.351 M465.07 179.509 L477.014 179.509 Q482.361 179.509 485.255 181.731 Q488.148 183.953 488.148 188.05 Q488.148 191.222 486.667 193.097 Q485.185 194.971 482.315 195.434 Q485.764 196.175 487.662 198.536 Q489.584 200.874 489.584 204.393 Q489.584 209.022 486.435 211.545 Q483.287 214.069 477.477 214.069 L465.07 214.069 L465.07 179.509 Z" fill="#000000" fill-rule="nonzero" fill-opacity="1" /><path clip-path="url(#clip600)" d="M519.583 200.041 L519.583 202.124 L500 202.124 Q500.278 206.522 502.639 208.837 Q505.023 211.129 509.259 211.129 Q511.713 211.129 514.005 210.527 Q516.32 209.925 518.588 208.721 L518.588 212.749 Q516.296 213.721 513.889 214.231 Q511.482 214.74 509.005 214.74 Q502.801 214.74 499.167 211.129 Q495.556 207.518 495.556 201.36 Q495.556 194.995 498.982 191.268 Q502.431 187.518 508.264 187.518 Q513.496 187.518 516.528 190.897 Q519.583 194.254 519.583 200.041 M515.324 198.791 Q515.278 195.296 513.357 193.212 Q511.458 191.129 508.31 191.129 Q504.746 191.129 502.593 193.143 Q500.463 195.157 500.139 198.814 L515.324 198.791 Z" fill="#000000" fill-rule="nonzero" fill-opacity="1" /><path clip-path="url(#clip600)" d="M543.102 188.907 L543.102 192.934 Q541.296 192.009 539.352 191.546 Q537.407 191.083 535.324 191.083 Q532.153 191.083 530.556 192.055 Q528.982 193.027 528.982 194.971 Q528.982 196.453 530.116 197.309 Q531.25 198.143 534.676 198.907 L536.134 199.231 Q540.671 200.203 542.569 201.985 Q544.491 203.745 544.491 206.916 Q544.491 210.527 541.62 212.633 Q538.773 214.74 533.773 214.74 Q531.69 214.74 529.421 214.323 Q527.176 213.93 524.676 213.12 L524.676 208.721 Q527.037 209.948 529.329 210.573 Q531.62 211.175 533.866 211.175 Q536.875 211.175 538.495 210.157 Q540.116 209.115 540.116 207.24 Q540.116 205.504 538.935 204.578 Q537.778 203.652 533.819 202.796 L532.338 202.448 Q528.38 201.615 526.62 199.902 Q524.861 198.166 524.861 195.157 Q524.861 191.499 527.454 189.509 Q530.046 187.518 534.815 187.518 Q537.176 187.518 539.259 187.865 Q541.343 188.212 543.102 188.907 Z" fill="#000000" fill-rule="nonzero" fill-opacity="1" /><path clip-path="url(#clip600)" d="M555.486 180.782 L555.486 188.143 L564.259 188.143 L564.259 191.453 L555.486 191.453 L555.486 205.527 Q555.486 208.698 556.342 209.601 Q557.222 210.504 559.884 210.504 L564.259 210.504 L564.259 214.069 L559.884 214.069 Q554.954 214.069 553.079 212.24 Q551.204 210.388 551.204 205.527 L551.204 191.453 L548.079 191.453 L548.079 188.143 L551.204 188.143 L551.204 180.782 L555.486 180.782 Z" fill="#000000" fill-rule="nonzero" fill-opacity="1" /><path clip-path="url(#clip600)" d="M598.055 178.05 L598.055 181.592 L593.981 181.592 Q591.69 181.592 590.787 182.518 Q589.907 183.444 589.907 185.851 L589.907 188.143 L596.921 188.143 L596.921 191.453 L589.907 191.453 L589.907 214.069 L585.625 214.069 L585.625 191.453 L581.551 191.453 L581.551 188.143 L585.625 188.143 L585.625 186.337 Q585.625 182.009 587.639 180.041 Q589.653 178.05 594.027 178.05 L598.055 178.05 Z" fill="#000000" fill-rule="nonzero" fill-opacity="1" /><path clip-path="url(#clip600)" d="M601.62 188.143 L605.879 188.143 L605.879 214.069 L601.62 214.069 L601.62 188.143 M601.62 178.05 L605.879 178.05 L605.879 183.444 L601.62 183.444 L601.62 178.05 Z" fill="#000000" fill-rule="nonzero" fill-opacity="1" /><path clip-path="url(#clip600)" d="M619.004 180.782 L619.004 188.143 L627.777 188.143 L627.777 191.453 L619.004 191.453 L619.004 205.527 Q619.004 208.698 619.861 209.601 Q620.74 210.504 623.402 210.504 L627.777 210.504 L627.777 214.069 L623.402 214.069 Q618.472 214.069 616.597 212.24 Q614.722 210.388 614.722 205.527 L614.722 191.453 L611.597 191.453 L611.597 188.143 L614.722 188.143 L614.722 180.782 L619.004 180.782 Z" fill="#000000" fill-rule="nonzero" fill-opacity="1" /><path clip-path="url(#clip600)" d="M350.026 353.016 Q351.531 353.525 352.943 355.192 Q354.378 356.858 355.813 359.775 L360.559 369.219 L355.535 369.219 L351.114 360.354 Q349.401 356.882 347.781 355.747 Q346.184 354.613 343.406 354.613 L338.313 354.613 L338.313 369.219 L333.637 369.219 L333.637 334.659 L344.193 334.659 Q350.119 334.659 353.035 337.136 Q355.952 339.613 355.952 344.613 Q355.952 347.877 354.424 350.03 Q352.92 352.183 350.026 353.016 M338.313 338.502 L338.313 350.77 L344.193 350.77 Q347.573 350.77 349.285 349.22 Q351.022 347.645 351.022 344.613 Q351.022 341.581 349.285 340.053 Q347.573 338.502 344.193 338.502 L338.313 338.502 Z" fill="#000000" fill-rule="nonzero" fill-opacity="1" /><path clip-path="url(#clip600)" d="M384.054 334.659 L396.623 347.553 L391.97 347.553 L381.785 338.409 L371.6 347.553 L366.947 347.553 L379.517 334.659 L384.054 334.659 Z" fill="#000000" fill-rule="nonzero" fill-opacity="1" /><path clip-path="url(#clip600)" d="M410.743 365.284 L427.063 365.284 L427.063 369.219 L405.119 369.219 L405.119 365.284 Q407.781 362.53 412.364 357.9 Q416.97 353.247 418.151 351.905 Q420.396 349.382 421.276 347.645 Q422.179 345.886 422.179 344.196 Q422.179 341.442 420.234 339.706 Q418.313 337.97 415.211 337.97 Q413.012 337.97 410.558 338.734 Q408.128 339.497 405.35 341.048 L405.35 336.326 Q408.174 335.192 410.628 334.613 Q413.081 334.034 415.118 334.034 Q420.489 334.034 423.683 336.72 Q426.878 339.405 426.878 343.896 Q426.878 346.025 426.067 347.946 Q425.28 349.845 423.174 352.437 Q422.595 353.108 419.493 356.326 Q416.392 359.52 410.743 365.284 Z" fill="#000000" fill-rule="nonzero" fill-opacity="1" /><path clip-path="url(#clip600)" d="M437.364 363.34 L442.248 363.34 L442.248 369.219 L437.364 369.219 L437.364 363.34 M437.364 344.706 L442.248 344.706 L442.248 350.585 L437.364 350.585 L437.364 344.706 Z" fill="#000000" fill-rule="nonzero" fill-opacity="1" /><path clip-path="url(#clip600)" d="M477.919 337.738 Q474.308 337.738 472.479 341.303 Q470.674 344.845 470.674 351.974 Q470.674 359.081 472.479 362.645 Q474.308 366.187 477.919 366.187 Q481.553 366.187 483.359 362.645 Q485.188 359.081 485.188 351.974 Q485.188 344.845 483.359 341.303 Q481.553 337.738 477.919 337.738 M477.919 334.034 Q483.729 334.034 486.785 338.641 Q489.863 343.224 489.863 351.974 Q489.863 360.701 486.785 365.307 Q483.729 369.891 477.919 369.891 Q472.109 369.891 469.03 365.307 Q465.975 360.701 465.975 351.974 Q465.975 343.224 469.03 338.641 Q472.109 334.034 477.919 334.034 Z" fill="#000000" fill-rule="nonzero" fill-opacity="1" /><path clip-path="url(#clip600)" d="M498.081 363.34 L502.965 363.34 L502.965 369.219 L498.081 369.219 L498.081 363.34 Z" fill="#000000" fill-rule="nonzero" fill-opacity="1" /><path clip-path="url(#clip600)" d="M513.289 368.502 L513.289 364.243 Q515.048 365.076 516.854 365.516 Q518.66 365.956 520.396 365.956 Q525.025 365.956 527.456 362.854 Q529.91 359.729 530.257 353.386 Q528.914 355.377 526.854 356.442 Q524.794 357.507 522.294 357.507 Q517.109 357.507 514.076 354.382 Q511.067 351.233 511.067 345.794 Q511.067 340.47 514.215 337.252 Q517.363 334.034 522.595 334.034 Q528.59 334.034 531.738 338.641 Q534.909 343.224 534.909 351.974 Q534.909 360.145 531.021 365.03 Q527.155 369.891 520.604 369.891 Q518.845 369.891 517.039 369.544 Q515.234 369.196 513.289 368.502 M522.595 353.849 Q525.743 353.849 527.572 351.696 Q529.423 349.544 529.423 345.794 Q529.423 342.067 527.572 339.914 Q525.743 337.738 522.595 337.738 Q519.447 337.738 517.595 339.914 Q515.766 342.067 515.766 345.794 Q515.766 349.544 517.595 351.696 Q519.447 353.849 522.595 353.849 Z" fill="#000000" fill-rule="nonzero" fill-opacity="1" /><path clip-path="url(#clip600)" d="M543.451 368.502 L543.451 364.243 Q545.21 365.076 547.016 365.516 Q548.821 365.956 550.558 365.956 Q555.187 365.956 557.618 362.854 Q560.071 359.729 560.419 353.386 Q559.076 355.377 557.016 356.442 Q554.956 357.507 552.456 357.507 Q547.271 357.507 544.238 354.382 Q541.229 351.233 541.229 345.794 Q541.229 340.47 544.377 337.252 Q547.525 334.034 552.757 334.034 Q558.752 334.034 561.9 338.641 Q565.071 343.224 565.071 351.974 Q565.071 360.145 561.182 365.03 Q557.317 369.891 550.766 369.891 Q549.007 369.891 547.201 369.544 Q545.396 369.196 543.451 368.502 M552.757 353.849 Q555.905 353.849 557.733 351.696 Q559.585 349.544 559.585 345.794 Q559.585 342.067 557.733 339.914 Q555.905 337.738 552.757 337.738 Q549.608 337.738 547.757 339.914 Q545.928 342.067 545.928 345.794 Q545.928 349.544 547.757 351.696 Q549.608 353.849 552.757 353.849 Z" fill="#000000" fill-rule="nonzero" fill-opacity="1" /><path clip-path="url(#clip600)" d="M573.613 368.502 L573.613 364.243 Q575.372 365.076 577.178 365.516 Q578.983 365.956 580.719 365.956 Q585.349 365.956 587.78 362.854 Q590.233 359.729 590.58 353.386 Q589.238 355.377 587.178 356.442 Q585.118 357.507 582.618 357.507 Q577.432 357.507 574.4 354.382 Q571.391 351.233 571.391 345.794 Q571.391 340.47 574.539 337.252 Q577.687 334.034 582.918 334.034 Q588.914 334.034 592.062 338.641 Q595.233 343.224 595.233 351.974 Q595.233 360.145 591.344 365.03 Q587.479 369.891 580.928 369.891 Q579.169 369.891 577.363 369.544 Q575.557 369.196 573.613 368.502 M582.918 353.849 Q586.067 353.849 587.895 351.696 Q589.747 349.544 589.747 345.794 Q589.747 342.067 587.895 339.914 Q586.067 337.738 582.918 337.738 Q579.77 337.738 577.919 339.914 Q576.09 342.067 576.09 345.794 Q576.09 349.544 577.919 351.696 Q579.77 353.849 582.918 353.849 Z" fill="#000000" fill-rule="nonzero" fill-opacity="1" /><path clip-path="url(#clip600)" d="M607.664 365.284 L623.983 365.284 L623.983 369.219 L602.039 369.219 L602.039 365.284 Q604.701 362.53 609.284 357.9 Q613.891 353.247 615.071 351.905 Q617.316 349.382 618.196 347.645 Q619.099 345.886 619.099 344.196 Q619.099 341.442 617.154 339.706 Q615.233 337.97 612.131 337.97 Q609.932 337.97 607.479 338.734 Q605.048 339.497 602.27 341.048 L602.27 336.326 Q605.094 335.192 607.548 334.613 Q610.002 334.034 612.039 334.034 Q617.409 334.034 620.603 336.72 Q623.798 339.405 623.798 343.896 Q623.798 346.025 622.988 347.946 Q622.201 349.845 620.094 352.437 Q619.516 353.108 616.414 356.326 Q613.312 359.52 607.664 365.284 Z" fill="#000000" fill-rule="nonzero" fill-opacity="1" /></svg>
