<?xml version="1.0" encoding="utf-8"?>
<svg xmlns="http://www.w3.org/2000/svg" xmlns:xlink="http://www.w3.org/1999/xlink" width="600" height="400" viewBox="0 0 2400 1600">
<defs>
  <clipPath id="clip120">
    <rect x="0" y="0" width="2400" height="1600"/>
  </clipPath>
</defs>
<path clip-path="url(#clip120)" d="M0 1600 L2400 1600 L2400 0 L0 0  Z" fill="#ffffff" fill-rule="evenodd" fill-opacity="1"/>
<defs>
  <clipPath id="clip121">
    <rect x="480" y="0" width="1681" height="1600"/>
  </clipPath>
</defs>
<path clip-path="url(#clip120)" d="M219.866 1423.18 L2352.76 1423.18 L2352.76 47.2441 L219.866 47.2441  Z" fill="#ffffff" fill-rule="evenodd" fill-opacity="1"/>
<defs>
  <clipPath id="clip122">
    <rect x="219" y="47" width="2134" height="1377"/>
  </clipPath>
</defs>
<polyline clip-path="url(#clip122)" style="stroke:#000000; stroke-linecap:round; stroke-linejoin:round; stroke-width:2; stroke-opacity:0.1; fill:none" points="283.551,1423.18 283.551,47.2441 "/>
<polyline clip-path="url(#clip122)" style="stroke:#000000; stroke-linecap:round; stroke-linejoin:round; stroke-width:2; stroke-opacity:0.1; fill:none" points="535.046,1423.18 535.046,47.2441 "/>
<polyline clip-path="url(#clip122)" style="stroke:#000000; stroke-linecap:round; stroke-linejoin:round; stroke-width:2; stroke-opacity:0.1; fill:none" points="786.541,1423.18 786.541,47.2441 "/>
<polyline clip-path="url(#clip122)" style="stroke:#000000; stroke-linecap:round; stroke-linejoin:round; stroke-width:2; stroke-opacity:0.1; fill:none" points="1038.04,1423.18 1038.04,47.2441 "/>
<polyline clip-path="url(#clip122)" style="stroke:#000000; stroke-linecap:round; stroke-linejoin:round; stroke-width:2; stroke-opacity:0.1; fill:none" points="1289.53,1423.18 1289.53,47.2441 "/>
<polyline clip-path="url(#clip122)" style="stroke:#000000; stroke-linecap:round; stroke-linejoin:round; stroke-width:2; stroke-opacity:0.1; fill:none" points="1541.03,1423.18 1541.03,47.2441 "/>
<polyline clip-path="url(#clip122)" style="stroke:#000000; stroke-linecap:round; stroke-linejoin:round; stroke-width:2; stroke-opacity:0.1; fill:none" points="1792.52,1423.18 1792.52,47.2441 "/>
<polyline clip-path="url(#clip122)" style="stroke:#000000; stroke-linecap:round; stroke-linejoin:round; stroke-width:2; stroke-opacity:0.1; fill:none" points="2044.02,1423.18 2044.02,47.2441 "/>
<polyline clip-path="url(#clip122)" style="stroke:#000000; stroke-linecap:round; stroke-linejoin:round; stroke-width:2; stroke-opacity:0.1; fill:none" points="2295.51,1423.18 2295.51,47.2441 "/>
<polyline clip-path="url(#clip122)" style="stroke:#000000; stroke-linecap:round; stroke-linejoin:round; stroke-width:2; stroke-opacity:0.1; fill:none" points="219.866,1384.24 2352.76,1384.24 "/>
<polyline clip-path="url(#clip122)" style="stroke:#000000; stroke-linecap:round; stroke-linejoin:round; stroke-width:2; stroke-opacity:0.1; fill:none" points="219.866,1250.5 2352.76,1250.5 "/>
<polyline clip-path="url(#clip122)" style="stroke:#000000; stroke-linecap:round; stroke-linejoin:round; stroke-width:2; stroke-opacity:0.1; fill:none" points="219.866,1116.76 2352.76,1116.76 "/>
<polyline clip-path="url(#clip122)" style="stroke:#000000; stroke-linecap:round; stroke-linejoin:round; stroke-width:2; stroke-opacity:0.1; fill:none" points="219.866,983.014 2352.76,983.014 "/>
<polyline clip-path="url(#clip122)" style="stroke:#000000; stroke-linecap:round; stroke-linejoin:round; stroke-width:2; stroke-opacity:0.1; fill:none" points="219.866,849.273 2352.76,849.273 "/>
<polyline clip-path="url(#clip122)" style="stroke:#000000; stroke-linecap:round; stroke-linejoin:round; stroke-width:2; stroke-opacity:0.1; fill:none" points="219.866,715.531 2352.76,715.531 "/>
<polyline clip-path="url(#clip122)" style="stroke:#000000; stroke-linecap:round; stroke-linejoin:round; stroke-width:2; stroke-opacity:0.1; fill:none" points="219.866,581.79 2352.76,581.79 "/>
<polyline clip-path="url(#clip122)" style="stroke:#000000; stroke-linecap:round; stroke-linejoin:round; stroke-width:2; stroke-opacity:0.1; fill:none" points="219.866,448.048 2352.76,448.048 "/>
<polyline clip-path="url(#clip122)" style="stroke:#000000; stroke-linecap:round; stroke-linejoin:round; stroke-width:2; stroke-opacity:0.1; fill:none" points="219.866,314.307 2352.76,314.307 "/>
<polyline clip-path="url(#clip122)" style="stroke:#000000; stroke-linecap:round; stroke-linejoin:round; stroke-width:2; stroke-opacity:0.1; fill:none" points="219.866,180.565 2352.76,180.565 "/>
<polyline clip-path="url(#clip120)" style="stroke:#000000; stroke-linecap:round; stroke-linejoin:round; stroke-width:4; stroke-opacity:1; fill:none" points="219.866,1423.18 2352.76,1423.18 "/>
<polyline clip-path="url(#clip120)" style="stroke:#000000; stroke-linecap:round; stroke-linejoin:round; stroke-width:4; stroke-opacity:1; fill:none" points="283.551,1423.18 283.551,1404.28 "/>
<polyline clip-path="url(#clip120)" style="stroke:#000000; stroke-linecap:round; stroke-linejoin:round; stroke-width:4; stroke-opacity:1; fill:none" points="535.046,1423.18 535.046,1404.28 "/>
<polyline clip-path="url(#clip120)" style="stroke:#000000; stroke-linecap:round; stroke-linejoin:round; stroke-width:4; stroke-opacity:1; fill:none" points="786.541,1423.18 786.541,1404.28 "/>
<polyline clip-path="url(#clip120)" style="stroke:#000000; stroke-linecap:round; stroke-linejoin:round; stroke-width:4; stroke-opacity:1; fill:none" points="1038.04,1423.18 1038.04,1404.28 "/>
<polyline clip-path="url(#clip120)" style="stroke:#000000; stroke-linecap:round; stroke-linejoin:round; stroke-width:4; stroke-opacity:1; fill:none" points="1289.53,1423.18 1289.53,1404.28 "/>
<polyline clip-path="url(#clip120)" style="stroke:#000000; stroke-linecap:round; stroke-linejoin:round; stroke-width:4; stroke-opacity:1; fill:none" points="1541.03,1423.18 1541.03,1404.28 "/>
<polyline clip-path="url(#clip120)" style="stroke:#000000; stroke-linecap:round; stroke-linejoin:round; stroke-width:4; stroke-opacity:1; fill:none" points="1792.52,1423.18 1792.52,1404.28 "/>
<polyline clip-path="url(#clip120)" style="stroke:#000000; stroke-linecap:round; stroke-linejoin:round; stroke-width:4; stroke-opacity:1; fill:none" points="2044.02,1423.18 2044.02,1404.28 "/>
<polyline clip-path="url(#clip120)" style="stroke:#000000; stroke-linecap:round; stroke-linejoin:round; stroke-width:4; stroke-opacity:1; fill:none" points="2295.51,1423.18 2295.51,1404.28 "/>
<path clip-path="url(#clip120)" d="M230.774 1454.1 Q227.163 1454.1 225.334 1457.66 Q223.528 1461.2 223.528 1468.33 Q223.528 1475.44 225.334 1479.01 Q227.163 1482.55 230.774 1482.55 Q234.408 1482.55 236.213 1479.01 Q238.042 1475.44 238.042 1468.33 Q238.042 1461.2 236.213 1457.66 Q234.408 1454.1 230.774 1454.1 M230.774 1450.39 Q236.584 1450.39 239.639 1455 Q242.718 1459.58 242.718 1468.33 Q242.718 1477.06 239.639 1481.67 Q236.584 1486.25 230.774 1486.25 Q224.963 1486.25 221.885 1481.67 Q218.829 1477.06 218.829 1468.33 Q218.829 1459.58 221.885 1455 Q224.963 1450.39 230.774 1450.39 Z" fill="#000000" fill-rule="nonzero" fill-opacity="1" /><path clip-path="url(#clip120)" d="M250.936 1479.7 L255.82 1479.7 L255.82 1485.58 L250.936 1485.58 L250.936 1479.7 Z" fill="#000000" fill-rule="nonzero" fill-opacity="1" /><path clip-path="url(#clip120)" d="M280.172 1466.95 Q283.528 1467.66 285.403 1469.93 Q287.301 1472.2 287.301 1475.53 Q287.301 1480.65 283.783 1483.45 Q280.264 1486.25 273.783 1486.25 Q271.607 1486.25 269.292 1485.81 Q267 1485.39 264.547 1484.54 L264.547 1480.02 Q266.491 1481.16 268.806 1481.74 Q271.121 1482.32 273.644 1482.32 Q278.042 1482.32 280.334 1480.58 Q282.648 1478.84 282.648 1475.53 Q282.648 1472.48 280.496 1470.77 Q278.366 1469.03 274.547 1469.03 L270.519 1469.03 L270.519 1465.19 L274.732 1465.19 Q278.181 1465.19 280.009 1463.82 Q281.838 1462.43 281.838 1459.84 Q281.838 1457.18 279.94 1455.77 Q278.065 1454.33 274.547 1454.33 Q272.625 1454.33 270.426 1454.75 Q268.227 1455.16 265.588 1456.04 L265.588 1451.88 Q268.25 1451.14 270.565 1450.77 Q272.903 1450.39 274.963 1450.39 Q280.287 1450.39 283.389 1452.83 Q286.491 1455.23 286.491 1459.35 Q286.491 1462.22 284.847 1464.21 Q283.204 1466.18 280.172 1466.95 Z" fill="#000000" fill-rule="nonzero" fill-opacity="1" /><path clip-path="url(#clip120)" d="M309.014 1455.09 L297.208 1473.54 L309.014 1473.54 L309.014 1455.09 M307.787 1451.02 L313.667 1451.02 L313.667 1473.54 L318.597 1473.54 L318.597 1477.43 L313.667 1477.43 L313.667 1485.58 L309.014 1485.58 L309.014 1477.43 L293.412 1477.43 L293.412 1472.92 L307.787 1451.02 Z" fill="#000000" fill-rule="nonzero" fill-opacity="1" /><path clip-path="url(#clip120)" d="M336.329 1454.1 Q332.718 1454.1 330.889 1457.66 Q329.083 1461.2 329.083 1468.33 Q329.083 1475.44 330.889 1479.01 Q332.718 1482.55 336.329 1482.55 Q339.963 1482.55 341.768 1479.01 Q343.597 1475.44 343.597 1468.33 Q343.597 1461.2 341.768 1457.66 Q339.963 1454.1 336.329 1454.1 M336.329 1450.39 Q342.139 1450.39 345.194 1455 Q348.273 1459.58 348.273 1468.33 Q348.273 1477.06 345.194 1481.67 Q342.139 1486.25 336.329 1486.25 Q330.518 1486.25 327.44 1481.67 Q324.384 1477.06 324.384 1468.33 Q324.384 1459.58 327.44 1455 Q330.518 1450.39 336.329 1450.39 Z" fill="#000000" fill-rule="nonzero" fill-opacity="1" /><path clip-path="url(#clip120)" d="M482.766 1454.1 Q479.155 1454.1 477.326 1457.66 Q475.521 1461.2 475.521 1468.33 Q475.521 1475.44 477.326 1479.01 Q479.155 1482.55 482.766 1482.55 Q486.4 1482.55 488.206 1479.01 Q490.035 1475.44 490.035 1468.33 Q490.035 1461.2 488.206 1457.66 Q486.4 1454.1 482.766 1454.1 M482.766 1450.39 Q488.576 1450.39 491.632 1455 Q494.711 1459.58 494.711 1468.33 Q494.711 1477.06 491.632 1481.67 Q488.576 1486.25 482.766 1486.25 Q476.956 1486.25 473.877 1481.67 Q470.822 1477.06 470.822 1468.33 Q470.822 1459.58 473.877 1455 Q476.956 1450.39 482.766 1450.39 Z" fill="#000000" fill-rule="nonzero" fill-opacity="1" /><path clip-path="url(#clip120)" d="M502.928 1479.7 L507.812 1479.7 L507.812 1485.58 L502.928 1485.58 L502.928 1479.7 Z" fill="#000000" fill-rule="nonzero" fill-opacity="1" /><path clip-path="url(#clip120)" d="M532.164 1466.95 Q535.521 1467.66 537.396 1469.93 Q539.294 1472.2 539.294 1475.53 Q539.294 1480.65 535.775 1483.45 Q532.257 1486.25 525.775 1486.25 Q523.599 1486.25 521.284 1485.81 Q518.993 1485.39 516.539 1484.54 L516.539 1480.02 Q518.484 1481.16 520.798 1481.74 Q523.113 1482.32 525.636 1482.32 Q530.034 1482.32 532.326 1480.58 Q534.641 1478.84 534.641 1475.53 Q534.641 1472.48 532.488 1470.77 Q530.359 1469.03 526.539 1469.03 L522.511 1469.03 L522.511 1465.19 L526.724 1465.19 Q530.173 1465.19 532.002 1463.82 Q533.831 1462.43 533.831 1459.84 Q533.831 1457.18 531.933 1455.77 Q530.058 1454.33 526.539 1454.33 Q524.618 1454.33 522.419 1454.75 Q520.22 1455.16 517.581 1456.04 L517.581 1451.88 Q520.243 1451.14 522.558 1450.77 Q524.896 1450.39 526.956 1450.39 Q532.28 1450.39 535.382 1452.83 Q538.483 1455.23 538.483 1459.35 Q538.483 1462.22 536.84 1464.21 Q535.196 1466.18 532.164 1466.95 Z" fill="#000000" fill-rule="nonzero" fill-opacity="1" /><path clip-path="url(#clip120)" d="M561.006 1455.09 L549.201 1473.54 L561.006 1473.54 L561.006 1455.09 M559.78 1451.02 L565.659 1451.02 L565.659 1473.54 L570.59 1473.54 L570.59 1477.43 L565.659 1477.43 L565.659 1485.58 L561.006 1485.58 L561.006 1477.43 L545.405 1477.43 L545.405 1472.92 L559.78 1451.02 Z" fill="#000000" fill-rule="nonzero" fill-opacity="1" /><path clip-path="url(#clip120)" d="M578.368 1451.02 L596.724 1451.02 L596.724 1454.96 L582.65 1454.96 L582.65 1463.43 Q583.668 1463.08 584.687 1462.92 Q585.705 1462.73 586.724 1462.73 Q592.511 1462.73 595.891 1465.9 Q599.27 1469.08 599.27 1474.49 Q599.27 1480.07 595.798 1483.17 Q592.326 1486.25 586.006 1486.25 Q583.83 1486.25 581.562 1485.88 Q579.317 1485.51 576.909 1484.77 L576.909 1480.07 Q578.993 1481.2 581.215 1481.76 Q583.437 1482.32 585.914 1482.32 Q589.918 1482.32 592.256 1480.21 Q594.594 1478.1 594.594 1474.49 Q594.594 1470.88 592.256 1468.77 Q589.918 1466.67 585.914 1466.67 Q584.039 1466.67 582.164 1467.08 Q580.312 1467.5 578.368 1468.38 L578.368 1451.02 Z" fill="#000000" fill-rule="nonzero" fill-opacity="1" /><path clip-path="url(#clip120)" d="M733.763 1454.1 Q730.152 1454.1 728.324 1457.66 Q726.518 1461.2 726.518 1468.33 Q726.518 1475.44 728.324 1479.01 Q730.152 1482.55 733.763 1482.55 Q737.398 1482.55 739.203 1479.01 Q741.032 1475.44 741.032 1468.33 Q741.032 1461.2 739.203 1457.66 Q737.398 1454.1 733.763 1454.1 M733.763 1450.39 Q739.573 1450.39 742.629 1455 Q745.708 1459.58 745.708 1468.33 Q745.708 1477.06 742.629 1481.67 Q739.573 1486.25 733.763 1486.25 Q727.953 1486.25 724.875 1481.67 Q721.819 1477.06 721.819 1468.33 Q721.819 1459.58 724.875 1455 Q727.953 1450.39 733.763 1450.39 Z" fill="#000000" fill-rule="nonzero" fill-opacity="1" /><path clip-path="url(#clip120)" d="M753.925 1479.7 L758.81 1479.7 L758.81 1485.58 L753.925 1485.58 L753.925 1479.7 Z" fill="#000000" fill-rule="nonzero" fill-opacity="1" /><path clip-path="url(#clip120)" d="M783.161 1466.95 Q786.518 1467.66 788.393 1469.93 Q790.291 1472.2 790.291 1475.53 Q790.291 1480.65 786.772 1483.45 Q783.254 1486.25 776.772 1486.25 Q774.596 1486.25 772.282 1485.81 Q769.99 1485.39 767.536 1484.54 L767.536 1480.02 Q769.481 1481.16 771.796 1481.74 Q774.11 1482.32 776.633 1482.32 Q781.032 1482.32 783.323 1480.58 Q785.638 1478.84 785.638 1475.53 Q785.638 1472.48 783.485 1470.77 Q781.356 1469.03 777.536 1469.03 L773.508 1469.03 L773.508 1465.19 L777.721 1465.19 Q781.17 1465.19 782.999 1463.82 Q784.828 1462.43 784.828 1459.84 Q784.828 1457.18 782.93 1455.77 Q781.055 1454.33 777.536 1454.33 Q775.615 1454.33 773.416 1454.75 Q771.217 1455.16 768.578 1456.04 L768.578 1451.88 Q771.24 1451.14 773.555 1450.77 Q775.893 1450.39 777.953 1450.39 Q783.277 1450.39 786.379 1452.83 Q789.481 1455.23 789.481 1459.35 Q789.481 1462.22 787.837 1464.21 Q786.194 1466.18 783.161 1466.95 Z" fill="#000000" fill-rule="nonzero" fill-opacity="1" /><path clip-path="url(#clip120)" d="M799.203 1451.02 L817.559 1451.02 L817.559 1454.96 L803.485 1454.96 L803.485 1463.43 Q804.504 1463.08 805.522 1462.92 Q806.541 1462.73 807.559 1462.73 Q813.346 1462.73 816.726 1465.9 Q820.105 1469.08 820.105 1474.49 Q820.105 1480.07 816.633 1483.17 Q813.161 1486.25 806.842 1486.25 Q804.666 1486.25 802.397 1485.88 Q800.152 1485.51 797.744 1484.77 L797.744 1480.07 Q799.828 1481.2 802.05 1481.76 Q804.272 1482.32 806.749 1482.32 Q810.754 1482.32 813.092 1480.21 Q815.43 1478.1 815.43 1474.49 Q815.43 1470.88 813.092 1468.77 Q810.754 1466.67 806.749 1466.67 Q804.874 1466.67 802.999 1467.08 Q801.147 1467.5 799.203 1468.38 L799.203 1451.02 Z" fill="#000000" fill-rule="nonzero" fill-opacity="1" /><path clip-path="url(#clip120)" d="M839.318 1454.1 Q835.707 1454.1 833.879 1457.66 Q832.073 1461.2 832.073 1468.33 Q832.073 1475.44 833.879 1479.01 Q835.707 1482.55 839.318 1482.55 Q842.953 1482.55 844.758 1479.01 Q846.587 1475.44 846.587 1468.33 Q846.587 1461.2 844.758 1457.66 Q842.953 1454.1 839.318 1454.1 M839.318 1450.39 Q845.128 1450.39 848.184 1455 Q851.263 1459.58 851.263 1468.33 Q851.263 1477.06 848.184 1481.67 Q845.128 1486.25 839.318 1486.25 Q833.508 1486.25 830.429 1481.67 Q827.374 1477.06 827.374 1468.33 Q827.374 1459.58 830.429 1455 Q833.508 1450.39 839.318 1450.39 Z" fill="#000000" fill-rule="nonzero" fill-opacity="1" /><path clip-path="url(#clip120)" d="M985.756 1454.1 Q982.145 1454.1 980.316 1457.66 Q978.511 1461.2 978.511 1468.33 Q978.511 1475.44 980.316 1479.01 Q982.145 1482.55 985.756 1482.55 Q989.39 1482.55 991.196 1479.01 Q993.024 1475.44 993.024 1468.33 Q993.024 1461.2 991.196 1457.66 Q989.39 1454.1 985.756 1454.1 M985.756 1450.39 Q991.566 1450.39 994.622 1455 Q997.7 1459.58 997.7 1468.33 Q997.7 1477.06 994.622 1481.67 Q991.566 1486.25 985.756 1486.25 Q979.946 1486.25 976.867 1481.67 Q973.811 1477.06 973.811 1468.33 Q973.811 1459.58 976.867 1455 Q979.946 1450.39 985.756 1450.39 Z" fill="#000000" fill-rule="nonzero" fill-opacity="1" /><path clip-path="url(#clip120)" d="M1005.92 1479.7 L1010.8 1479.7 L1010.8 1485.58 L1005.92 1485.58 L1005.92 1479.7 Z" fill="#000000" fill-rule="nonzero" fill-opacity="1" /><path clip-path="url(#clip120)" d="M1035.15 1466.95 Q1038.51 1467.66 1040.39 1469.93 Q1042.28 1472.2 1042.28 1475.53 Q1042.28 1480.65 1038.76 1483.45 Q1035.25 1486.25 1028.76 1486.25 Q1026.59 1486.25 1024.27 1485.81 Q1021.98 1485.39 1019.53 1484.54 L1019.53 1480.02 Q1021.47 1481.16 1023.79 1481.74 Q1026.1 1482.32 1028.63 1482.32 Q1033.02 1482.32 1035.32 1480.58 Q1037.63 1478.84 1037.63 1475.53 Q1037.63 1472.48 1035.48 1470.77 Q1033.35 1469.03 1029.53 1469.03 L1025.5 1469.03 L1025.5 1465.19 L1029.71 1465.19 Q1033.16 1465.19 1034.99 1463.82 Q1036.82 1462.43 1036.82 1459.84 Q1036.82 1457.18 1034.92 1455.77 Q1033.05 1454.33 1029.53 1454.33 Q1027.61 1454.33 1025.41 1454.75 Q1023.21 1455.16 1020.57 1456.04 L1020.57 1451.88 Q1023.23 1451.14 1025.55 1450.77 Q1027.89 1450.39 1029.95 1450.39 Q1035.27 1450.39 1038.37 1452.83 Q1041.47 1455.23 1041.47 1459.35 Q1041.47 1462.22 1039.83 1464.21 Q1038.19 1466.18 1035.15 1466.95 Z" fill="#000000" fill-rule="nonzero" fill-opacity="1" /><path clip-path="url(#clip120)" d="M1051.2 1451.02 L1069.55 1451.02 L1069.55 1454.96 L1055.48 1454.96 L1055.48 1463.43 Q1056.5 1463.08 1057.51 1462.92 Q1058.53 1462.73 1059.55 1462.73 Q1065.34 1462.73 1068.72 1465.9 Q1072.1 1469.08 1072.1 1474.49 Q1072.1 1480.07 1068.63 1483.17 Q1065.15 1486.25 1058.83 1486.25 Q1056.66 1486.25 1054.39 1485.88 Q1052.14 1485.51 1049.74 1484.77 L1049.74 1480.07 Q1051.82 1481.2 1054.04 1481.76 Q1056.26 1482.32 1058.74 1482.32 Q1062.75 1482.32 1065.08 1480.21 Q1067.42 1478.1 1067.42 1474.49 Q1067.42 1470.88 1065.08 1468.77 Q1062.75 1466.67 1058.74 1466.67 Q1056.87 1466.67 1054.99 1467.08 Q1053.14 1467.5 1051.2 1468.38 L1051.2 1451.02 Z" fill="#000000" fill-rule="nonzero" fill-opacity="1" /><path clip-path="url(#clip120)" d="M1081.36 1451.02 L1099.71 1451.02 L1099.71 1454.96 L1085.64 1454.96 L1085.64 1463.43 Q1086.66 1463.08 1087.68 1462.92 Q1088.7 1462.73 1089.71 1462.73 Q1095.5 1462.73 1098.88 1465.9 Q1102.26 1469.08 1102.26 1474.49 Q1102.26 1480.07 1098.79 1483.17 Q1095.32 1486.25 1089 1486.25 Q1086.82 1486.25 1084.55 1485.88 Q1082.31 1485.51 1079.9 1484.77 L1079.9 1480.07 Q1081.98 1481.2 1084.2 1481.76 Q1086.43 1482.32 1088.9 1482.32 Q1092.91 1482.32 1095.25 1480.21 Q1097.58 1478.1 1097.58 1474.49 Q1097.58 1470.88 1095.25 1468.77 Q1092.91 1466.67 1088.9 1466.67 Q1087.03 1466.67 1085.15 1467.08 Q1083.3 1467.5 1081.36 1468.38 L1081.36 1451.02 Z" fill="#000000" fill-rule="nonzero" fill-opacity="1" /><path clip-path="url(#clip120)" d="M1236.75 1454.1 Q1233.14 1454.1 1231.31 1457.66 Q1229.51 1461.2 1229.51 1468.33 Q1229.51 1475.44 1231.31 1479.01 Q1233.14 1482.55 1236.75 1482.55 Q1240.39 1482.55 1242.19 1479.01 Q1244.02 1475.44 1244.02 1468.33 Q1244.02 1461.2 1242.19 1457.66 Q1240.39 1454.1 1236.75 1454.1 M1236.75 1450.39 Q1242.56 1450.39 1245.62 1455 Q1248.7 1459.58 1248.7 1468.33 Q1248.7 1477.06 1245.62 1481.67 Q1242.56 1486.25 1236.75 1486.25 Q1230.94 1486.25 1227.86 1481.67 Q1224.81 1477.06 1224.81 1468.33 Q1224.81 1459.58 1227.86 1455 Q1230.94 1450.39 1236.75 1450.39 Z" fill="#000000" fill-rule="nonzero" fill-opacity="1" /><path clip-path="url(#clip120)" d="M1256.91 1479.7 L1261.8 1479.7 L1261.8 1485.58 L1256.91 1485.58 L1256.91 1479.7 Z" fill="#000000" fill-rule="nonzero" fill-opacity="1" /><path clip-path="url(#clip120)" d="M1286.15 1466.95 Q1289.51 1467.66 1291.38 1469.93 Q1293.28 1472.2 1293.28 1475.53 Q1293.28 1480.65 1289.76 1483.45 Q1286.24 1486.25 1279.76 1486.25 Q1277.59 1486.25 1275.27 1485.81 Q1272.98 1485.39 1270.53 1484.54 L1270.53 1480.02 Q1272.47 1481.16 1274.79 1481.74 Q1277.1 1482.32 1279.62 1482.32 Q1284.02 1482.32 1286.31 1480.58 Q1288.63 1478.84 1288.63 1475.53 Q1288.63 1472.48 1286.48 1470.77 Q1284.35 1469.03 1280.53 1469.03 L1276.5 1469.03 L1276.5 1465.19 L1280.71 1465.19 Q1284.16 1465.19 1285.99 1463.82 Q1287.82 1462.43 1287.82 1459.84 Q1287.82 1457.18 1285.92 1455.77 Q1284.04 1454.33 1280.53 1454.33 Q1278.6 1454.33 1276.41 1454.75 Q1274.21 1455.16 1271.57 1456.04 L1271.57 1451.88 Q1274.23 1451.14 1276.54 1450.77 Q1278.88 1450.39 1280.94 1450.39 Q1286.27 1450.39 1289.37 1452.83 Q1292.47 1455.23 1292.47 1459.35 Q1292.47 1462.22 1290.83 1464.21 Q1289.18 1466.18 1286.15 1466.95 Z" fill="#000000" fill-rule="nonzero" fill-opacity="1" /><path clip-path="url(#clip120)" d="M1312.72 1466.44 Q1309.58 1466.44 1307.72 1468.59 Q1305.9 1470.74 1305.9 1474.49 Q1305.9 1478.22 1307.72 1480.39 Q1309.58 1482.55 1312.72 1482.55 Q1315.87 1482.55 1317.7 1480.39 Q1319.55 1478.22 1319.55 1474.49 Q1319.55 1470.74 1317.7 1468.59 Q1315.87 1466.44 1312.72 1466.44 M1322.01 1451.78 L1322.01 1456.04 Q1320.25 1455.21 1318.44 1454.77 Q1316.66 1454.33 1314.9 1454.33 Q1310.27 1454.33 1307.82 1457.45 Q1305.39 1460.58 1305.04 1466.9 Q1306.41 1464.89 1308.47 1463.82 Q1310.53 1462.73 1313 1462.73 Q1318.21 1462.73 1321.22 1465.9 Q1324.25 1469.05 1324.25 1474.49 Q1324.25 1479.82 1321.1 1483.03 Q1317.96 1486.25 1312.72 1486.25 Q1306.73 1486.25 1303.56 1481.67 Q1300.39 1477.06 1300.39 1468.33 Q1300.39 1460.14 1304.28 1455.28 Q1308.16 1450.39 1314.72 1450.39 Q1316.47 1450.39 1318.26 1450.74 Q1320.06 1451.09 1322.01 1451.78 Z" fill="#000000" fill-rule="nonzero" fill-opacity="1" /><path clip-path="url(#clip120)" d="M1342.31 1454.1 Q1338.7 1454.1 1336.87 1457.66 Q1335.06 1461.2 1335.06 1468.33 Q1335.06 1475.44 1336.87 1479.01 Q1338.7 1482.55 1342.31 1482.55 Q1345.94 1482.55 1347.75 1479.01 Q1349.58 1475.44 1349.58 1468.33 Q1349.58 1461.2 1347.75 1457.66 Q1345.94 1454.1 1342.31 1454.1 M1342.31 1450.39 Q1348.12 1450.39 1351.17 1455 Q1354.25 1459.58 1354.25 1468.33 Q1354.25 1477.06 1351.17 1481.67 Q1348.12 1486.25 1342.31 1486.25 Q1336.5 1486.25 1333.42 1481.67 Q1330.36 1477.06 1330.36 1468.33 Q1330.36 1459.58 1333.42 1455 Q1336.5 1450.39 1342.31 1450.39 Z" fill="#000000" fill-rule="nonzero" fill-opacity="1" /><path clip-path="url(#clip120)" d="M1488.75 1454.1 Q1485.13 1454.1 1483.31 1457.66 Q1481.5 1461.2 1481.5 1468.33 Q1481.5 1475.44 1483.31 1479.01 Q1485.13 1482.55 1488.75 1482.55 Q1492.38 1482.55 1494.19 1479.01 Q1496.01 1475.44 1496.01 1468.33 Q1496.01 1461.2 1494.19 1457.66 Q1492.38 1454.1 1488.75 1454.1 M1488.75 1450.39 Q1494.56 1450.39 1497.61 1455 Q1500.69 1459.58 1500.69 1468.33 Q1500.69 1477.06 1497.61 1481.67 Q1494.56 1486.25 1488.75 1486.25 Q1482.94 1486.25 1479.86 1481.67 Q1476.8 1477.06 1476.8 1468.33 Q1476.8 1459.58 1479.86 1455 Q1482.94 1450.39 1488.75 1450.39 Z" fill="#000000" fill-rule="nonzero" fill-opacity="1" /><path clip-path="url(#clip120)" d="M1508.91 1479.7 L1513.79 1479.7 L1513.79 1485.58 L1508.91 1485.58 L1508.91 1479.7 Z" fill="#000000" fill-rule="nonzero" fill-opacity="1" /><path clip-path="url(#clip120)" d="M1538.14 1466.95 Q1541.5 1467.66 1543.37 1469.93 Q1545.27 1472.2 1545.27 1475.53 Q1545.27 1480.65 1541.75 1483.45 Q1538.24 1486.25 1531.75 1486.25 Q1529.58 1486.25 1527.26 1485.81 Q1524.97 1485.39 1522.52 1484.54 L1522.52 1480.02 Q1524.46 1481.16 1526.78 1481.74 Q1529.09 1482.32 1531.62 1482.32 Q1536.01 1482.32 1538.31 1480.58 Q1540.62 1478.84 1540.62 1475.53 Q1540.62 1472.48 1538.47 1470.77 Q1536.34 1469.03 1532.52 1469.03 L1528.49 1469.03 L1528.49 1465.19 L1532.7 1465.19 Q1536.15 1465.19 1537.98 1463.82 Q1539.81 1462.43 1539.81 1459.84 Q1539.81 1457.18 1537.91 1455.77 Q1536.04 1454.33 1532.52 1454.33 Q1530.6 1454.33 1528.4 1454.75 Q1526.2 1455.16 1523.56 1456.04 L1523.56 1451.88 Q1526.22 1451.14 1528.54 1450.77 Q1530.87 1450.39 1532.94 1450.39 Q1538.26 1450.39 1541.36 1452.83 Q1544.46 1455.23 1544.46 1459.35 Q1544.46 1462.22 1542.82 1464.21 Q1541.18 1466.18 1538.14 1466.95 Z" fill="#000000" fill-rule="nonzero" fill-opacity="1" /><path clip-path="url(#clip120)" d="M1564.72 1466.44 Q1561.57 1466.44 1559.72 1468.59 Q1557.89 1470.74 1557.89 1474.49 Q1557.89 1478.22 1559.72 1480.39 Q1561.57 1482.55 1564.72 1482.55 Q1567.87 1482.55 1569.69 1480.39 Q1571.55 1478.22 1571.55 1474.49 Q1571.55 1470.74 1569.69 1468.59 Q1567.87 1466.44 1564.72 1466.44 M1574 1451.78 L1574 1456.04 Q1572.24 1455.21 1570.43 1454.77 Q1568.65 1454.33 1566.89 1454.33 Q1562.26 1454.33 1559.81 1457.45 Q1557.38 1460.58 1557.03 1466.9 Q1558.4 1464.89 1560.46 1463.82 Q1562.52 1462.73 1565 1462.73 Q1570.2 1462.73 1573.21 1465.9 Q1576.25 1469.05 1576.25 1474.49 Q1576.25 1479.82 1573.1 1483.03 Q1569.95 1486.25 1564.72 1486.25 Q1558.72 1486.25 1555.55 1481.67 Q1552.38 1477.06 1552.38 1468.33 Q1552.38 1460.14 1556.27 1455.28 Q1560.16 1450.39 1566.71 1450.39 Q1568.47 1450.39 1570.25 1450.74 Q1572.06 1451.09 1574 1451.78 Z" fill="#000000" fill-rule="nonzero" fill-opacity="1" /><path clip-path="url(#clip120)" d="M1584.35 1451.02 L1602.7 1451.02 L1602.7 1454.96 L1588.63 1454.96 L1588.63 1463.43 Q1589.65 1463.08 1590.67 1462.92 Q1591.68 1462.73 1592.7 1462.73 Q1598.49 1462.73 1601.87 1465.9 Q1605.25 1469.08 1605.25 1474.49 Q1605.25 1480.07 1601.78 1483.17 Q1598.31 1486.25 1591.99 1486.25 Q1589.81 1486.25 1587.54 1485.88 Q1585.3 1485.51 1582.89 1484.77 L1582.89 1480.07 Q1584.97 1481.2 1587.19 1481.76 Q1589.42 1482.32 1591.89 1482.32 Q1595.9 1482.32 1598.24 1480.21 Q1600.57 1478.1 1600.57 1474.49 Q1600.57 1470.88 1598.24 1468.77 Q1595.9 1466.67 1591.89 1466.67 Q1590.02 1466.67 1588.14 1467.08 Q1586.29 1467.5 1584.35 1468.38 L1584.35 1451.02 Z" fill="#000000" fill-rule="nonzero" fill-opacity="1" /><path clip-path="url(#clip120)" d="M1739.74 1454.1 Q1736.13 1454.1 1734.3 1457.66 Q1732.5 1461.2 1732.5 1468.33 Q1732.5 1475.44 1734.3 1479.01 Q1736.13 1482.55 1739.74 1482.55 Q1743.38 1482.55 1745.18 1479.01 Q1747.01 1475.44 1747.01 1468.33 Q1747.01 1461.2 1745.18 1457.66 Q1743.38 1454.1 1739.74 1454.1 M1739.74 1450.39 Q1745.55 1450.39 1748.61 1455 Q1751.69 1459.58 1751.69 1468.33 Q1751.69 1477.06 1748.61 1481.67 Q1745.55 1486.25 1739.74 1486.25 Q1733.93 1486.25 1730.85 1481.67 Q1727.8 1477.06 1727.8 1468.33 Q1727.8 1459.58 1730.85 1455 Q1733.93 1450.39 1739.74 1450.39 Z" fill="#000000" fill-rule="nonzero" fill-opacity="1" /><path clip-path="url(#clip120)" d="M1759.9 1479.7 L1764.79 1479.7 L1764.79 1485.58 L1759.9 1485.58 L1759.9 1479.7 Z" fill="#000000" fill-rule="nonzero" fill-opacity="1" /><path clip-path="url(#clip120)" d="M1789.14 1466.95 Q1792.5 1467.66 1794.37 1469.93 Q1796.27 1472.2 1796.27 1475.53 Q1796.27 1480.65 1792.75 1483.45 Q1789.23 1486.25 1782.75 1486.25 Q1780.58 1486.25 1778.26 1485.81 Q1775.97 1485.39 1773.52 1484.54 L1773.52 1480.02 Q1775.46 1481.16 1777.77 1481.74 Q1780.09 1482.32 1782.61 1482.32 Q1787.01 1482.32 1789.3 1480.58 Q1791.62 1478.84 1791.62 1475.53 Q1791.62 1472.48 1789.46 1470.77 Q1787.34 1469.03 1783.52 1469.03 L1779.49 1469.03 L1779.49 1465.19 L1783.7 1465.19 Q1787.15 1465.19 1788.98 1463.82 Q1790.81 1462.43 1790.81 1459.84 Q1790.81 1457.18 1788.91 1455.77 Q1787.03 1454.33 1783.52 1454.33 Q1781.59 1454.33 1779.4 1454.75 Q1777.2 1455.16 1774.56 1456.04 L1774.56 1451.88 Q1777.22 1451.14 1779.53 1450.77 Q1781.87 1450.39 1783.93 1450.39 Q1789.26 1450.39 1792.36 1452.83 Q1795.46 1455.23 1795.46 1459.35 Q1795.46 1462.22 1793.82 1464.21 Q1792.17 1466.18 1789.14 1466.95 Z" fill="#000000" fill-rule="nonzero" fill-opacity="1" /><path clip-path="url(#clip120)" d="M1803.96 1451.02 L1826.18 1451.02 L1826.18 1453.01 L1813.63 1485.58 L1808.75 1485.58 L1820.55 1454.96 L1803.96 1454.96 L1803.96 1451.02 Z" fill="#000000" fill-rule="nonzero" fill-opacity="1" /><path clip-path="url(#clip120)" d="M1845.3 1454.1 Q1841.69 1454.1 1839.86 1457.66 Q1838.05 1461.2 1838.05 1468.33 Q1838.05 1475.44 1839.86 1479.01 Q1841.69 1482.55 1845.3 1482.55 Q1848.93 1482.55 1850.74 1479.01 Q1852.57 1475.44 1852.57 1468.33 Q1852.57 1461.2 1850.74 1457.66 Q1848.93 1454.1 1845.3 1454.1 M1845.3 1450.39 Q1851.11 1450.39 1854.16 1455 Q1857.24 1459.58 1857.24 1468.33 Q1857.24 1477.06 1854.16 1481.67 Q1851.11 1486.25 1845.3 1486.25 Q1839.49 1486.25 1836.41 1481.67 Q1833.35 1477.06 1833.35 1468.33 Q1833.35 1459.58 1836.41 1455 Q1839.49 1450.39 1845.3 1450.39 Z" fill="#000000" fill-rule="nonzero" fill-opacity="1" /><path clip-path="url(#clip120)" d="M1991.74 1454.1 Q1988.12 1454.1 1986.3 1457.66 Q1984.49 1461.2 1984.49 1468.33 Q1984.49 1475.44 1986.3 1479.01 Q1988.12 1482.55 1991.74 1482.55 Q1995.37 1482.55 1997.18 1479.01 Q1999 1475.44 1999 1468.33 Q1999 1461.2 1997.18 1457.66 Q1995.37 1454.1 1991.74 1454.1 M1991.74 1450.39 Q1997.55 1450.39 2000.6 1455 Q2003.68 1459.58 2003.68 1468.33 Q2003.68 1477.06 2000.6 1481.67 Q1997.55 1486.25 1991.74 1486.25 Q1985.93 1486.25 1982.85 1481.67 Q1979.79 1477.06 1979.79 1468.33 Q1979.79 1459.58 1982.85 1455 Q1985.93 1450.39 1991.74 1450.39 Z" fill="#000000" fill-rule="nonzero" fill-opacity="1" /><path clip-path="url(#clip120)" d="M2011.9 1479.7 L2016.78 1479.7 L2016.78 1485.58 L2011.9 1485.58 L2011.9 1479.7 Z" fill="#000000" fill-rule="nonzero" fill-opacity="1" /><path clip-path="url(#clip120)" d="M2041.13 1466.95 Q2044.49 1467.66 2046.36 1469.93 Q2048.26 1472.2 2048.26 1475.53 Q2048.26 1480.65 2044.74 1483.45 Q2041.23 1486.25 2034.74 1486.25 Q2032.57 1486.25 2030.25 1485.81 Q2027.96 1485.39 2025.51 1484.54 L2025.51 1480.02 Q2027.45 1481.16 2029.77 1481.74 Q2032.08 1482.32 2034.61 1482.32 Q2039 1482.32 2041.3 1480.58 Q2043.61 1478.84 2043.61 1475.53 Q2043.61 1472.48 2041.46 1470.77 Q2039.33 1469.03 2035.51 1469.03 L2031.48 1469.03 L2031.48 1465.19 L2035.69 1465.19 Q2039.14 1465.19 2040.97 1463.82 Q2042.8 1462.43 2042.8 1459.84 Q2042.8 1457.18 2040.9 1455.77 Q2039.03 1454.33 2035.51 1454.33 Q2033.59 1454.33 2031.39 1454.75 Q2029.19 1455.16 2026.55 1456.04 L2026.55 1451.88 Q2029.21 1451.14 2031.53 1450.77 Q2033.86 1450.39 2035.92 1450.39 Q2041.25 1450.39 2044.35 1452.83 Q2047.45 1455.23 2047.45 1459.35 Q2047.45 1462.22 2045.81 1464.21 Q2044.17 1466.18 2041.13 1466.95 Z" fill="#000000" fill-rule="nonzero" fill-opacity="1" /><path clip-path="url(#clip120)" d="M2055.95 1451.02 L2078.17 1451.02 L2078.17 1453.01 L2065.62 1485.58 L2060.74 1485.58 L2072.55 1454.96 L2055.95 1454.96 L2055.95 1451.02 Z" fill="#000000" fill-rule="nonzero" fill-opacity="1" /><path clip-path="url(#clip120)" d="M2087.34 1451.02 L2105.69 1451.02 L2105.69 1454.96 L2091.62 1454.96 L2091.62 1463.43 Q2092.64 1463.08 2093.66 1462.92 Q2094.67 1462.73 2095.69 1462.73 Q2101.48 1462.73 2104.86 1465.9 Q2108.24 1469.08 2108.24 1474.49 Q2108.24 1480.07 2104.77 1483.17 Q2101.29 1486.25 2094.98 1486.25 Q2092.8 1486.25 2090.53 1485.88 Q2088.29 1485.51 2085.88 1484.77 L2085.88 1480.07 Q2087.96 1481.2 2090.18 1481.76 Q2092.41 1482.32 2094.88 1482.32 Q2098.89 1482.32 2101.23 1480.21 Q2103.56 1478.1 2103.56 1474.49 Q2103.56 1470.88 2101.23 1468.77 Q2098.89 1466.67 2094.88 1466.67 Q2093.01 1466.67 2091.13 1467.08 Q2089.28 1467.5 2087.34 1468.38 L2087.34 1451.02 Z" fill="#000000" fill-rule="nonzero" fill-opacity="1" /><path clip-path="url(#clip120)" d="M2242.73 1454.1 Q2239.12 1454.1 2237.29 1457.66 Q2235.49 1461.2 2235.49 1468.33 Q2235.49 1475.44 2237.29 1479.01 Q2239.12 1482.55 2242.73 1482.55 Q2246.37 1482.55 2248.17 1479.01 Q2250 1475.44 2250 1468.33 Q2250 1461.2 2248.17 1457.66 Q2246.37 1454.1 2242.73 1454.1 M2242.73 1450.39 Q2248.54 1450.39 2251.6 1455 Q2254.68 1459.58 2254.68 1468.33 Q2254.68 1477.06 2251.6 1481.67 Q2248.54 1486.25 2242.73 1486.25 Q2236.92 1486.25 2233.84 1481.67 Q2230.79 1477.06 2230.79 1468.33 Q2230.79 1459.58 2233.84 1455 Q2236.92 1450.39 2242.73 1450.39 Z" fill="#000000" fill-rule="nonzero" fill-opacity="1" /><path clip-path="url(#clip120)" d="M2262.89 1479.7 L2267.78 1479.7 L2267.78 1485.58 L2262.89 1485.58 L2262.89 1479.7 Z" fill="#000000" fill-rule="nonzero" fill-opacity="1" /><path clip-path="url(#clip120)" d="M2292.13 1466.95 Q2295.49 1467.66 2297.36 1469.93 Q2299.26 1472.2 2299.26 1475.53 Q2299.26 1480.65 2295.74 1483.45 Q2292.22 1486.25 2285.74 1486.25 Q2283.57 1486.25 2281.25 1485.81 Q2278.96 1485.39 2276.51 1484.54 L2276.51 1480.02 Q2278.45 1481.16 2280.76 1481.74 Q2283.08 1482.32 2285.6 1482.32 Q2290 1482.32 2292.29 1480.58 Q2294.61 1478.84 2294.61 1475.53 Q2294.61 1472.48 2292.45 1470.77 Q2290.32 1469.03 2286.51 1469.03 L2282.48 1469.03 L2282.48 1465.19 L2286.69 1465.19 Q2290.14 1465.19 2291.97 1463.82 Q2293.8 1462.43 2293.8 1459.84 Q2293.8 1457.18 2291.9 1455.77 Q2290.02 1454.33 2286.51 1454.33 Q2284.58 1454.33 2282.39 1454.75 Q2280.19 1455.16 2277.55 1456.04 L2277.55 1451.88 Q2280.21 1451.14 2282.52 1450.77 Q2284.86 1450.39 2286.92 1450.39 Q2292.25 1450.39 2295.35 1452.83 Q2298.45 1455.23 2298.45 1459.35 Q2298.45 1462.22 2296.81 1464.21 Q2295.16 1466.18 2292.13 1466.95 Z" fill="#000000" fill-rule="nonzero" fill-opacity="1" /><path clip-path="url(#clip120)" d="M2318.13 1469.17 Q2314.79 1469.17 2312.87 1470.95 Q2310.97 1472.73 2310.97 1475.86 Q2310.97 1478.98 2312.87 1480.77 Q2314.79 1482.55 2318.13 1482.55 Q2321.46 1482.55 2323.38 1480.77 Q2325.3 1478.96 2325.3 1475.86 Q2325.3 1472.73 2323.38 1470.95 Q2321.48 1469.17 2318.13 1469.17 M2313.45 1467.18 Q2310.44 1466.44 2308.75 1464.38 Q2307.08 1462.32 2307.08 1459.35 Q2307.08 1455.21 2310.02 1452.8 Q2312.99 1450.39 2318.13 1450.39 Q2323.29 1450.39 2326.23 1452.8 Q2329.17 1455.21 2329.17 1459.35 Q2329.17 1462.32 2327.48 1464.38 Q2325.81 1466.44 2322.82 1467.18 Q2326.2 1467.96 2328.08 1470.26 Q2329.98 1472.55 2329.98 1475.86 Q2329.98 1480.88 2326.9 1483.57 Q2323.84 1486.25 2318.13 1486.25 Q2312.41 1486.25 2309.33 1483.57 Q2306.27 1480.88 2306.27 1475.86 Q2306.27 1472.55 2308.17 1470.26 Q2310.07 1467.96 2313.45 1467.18 M2311.74 1459.79 Q2311.74 1462.48 2313.4 1463.98 Q2315.09 1465.49 2318.13 1465.49 Q2321.13 1465.49 2322.82 1463.98 Q2324.54 1462.48 2324.54 1459.79 Q2324.54 1457.11 2322.82 1455.6 Q2321.13 1454.1 2318.13 1454.1 Q2315.09 1454.1 2313.4 1455.6 Q2311.74 1457.11 2311.74 1459.79 Z" fill="#000000" fill-rule="nonzero" fill-opacity="1" /><path clip-path="url(#clip120)" d="M2348.29 1454.1 Q2344.68 1454.1 2342.85 1457.66 Q2341.04 1461.2 2341.04 1468.33 Q2341.04 1475.44 2342.85 1479.01 Q2344.68 1482.55 2348.29 1482.55 Q2351.92 1482.55 2353.73 1479.01 Q2355.56 1475.44 2355.56 1468.33 Q2355.56 1461.2 2353.73 1457.66 Q2351.92 1454.1 2348.29 1454.1 M2348.29 1450.39 Q2354.1 1450.39 2357.15 1455 Q2360.23 1459.58 2360.23 1468.33 Q2360.23 1477.06 2357.15 1481.67 Q2354.1 1486.25 2348.29 1486.25 Q2342.48 1486.25 2339.4 1481.67 Q2336.34 1477.06 2336.34 1468.33 Q2336.34 1459.58 2339.4 1455 Q2342.48 1450.39 2348.29 1450.39 Z" fill="#000000" fill-rule="nonzero" fill-opacity="1" /><path clip-path="url(#clip120)" d="M1276.43 1550.25 Q1276.43 1556.71 1279.07 1560.4 Q1281.74 1564.07 1286.39 1564.07 Q1291.04 1564.07 1293.71 1560.4 Q1296.38 1556.71 1296.38 1550.25 Q1296.38 1543.79 1293.71 1540.13 Q1291.04 1536.44 1286.39 1536.44 Q1281.74 1536.44 1279.07 1540.13 Q1276.43 1543.79 1276.43 1550.25 M1296.38 1562.7 Q1294.54 1565.88 1291.71 1567.44 Q1288.91 1568.97 1284.96 1568.97 Q1278.5 1568.97 1274.42 1563.81 Q1270.38 1558.65 1270.38 1550.25 Q1270.38 1541.85 1274.42 1536.69 Q1278.5 1531.54 1284.96 1531.54 Q1288.91 1531.54 1291.71 1533.1 Q1294.54 1534.62 1296.38 1537.81 L1296.38 1532.4 L1302.24 1532.4 L1302.24 1581.6 L1296.38 1581.6 L1296.38 1562.7 Z" fill="#000000" fill-rule="nonzero" fill-opacity="1" /><polyline clip-path="url(#clip120)" style="stroke:#000000; stroke-linecap:round; stroke-linejoin:round; stroke-width:4; stroke-opacity:1; fill:none" points="219.866,1423.18 219.866,47.2441 "/>
<polyline clip-path="url(#clip120)" style="stroke:#000000; stroke-linecap:round; stroke-linejoin:round; stroke-width:4; stroke-opacity:1; fill:none" points="219.866,1384.24 238.764,1384.24 "/>
<polyline clip-path="url(#clip120)" style="stroke:#000000; stroke-linecap:round; stroke-linejoin:round; stroke-width:4; stroke-opacity:1; fill:none" points="219.866,1250.5 238.764,1250.5 "/>
<polyline clip-path="url(#clip120)" style="stroke:#000000; stroke-linecap:round; stroke-linejoin:round; stroke-width:4; stroke-opacity:1; fill:none" points="219.866,1116.76 238.764,1116.76 "/>
<polyline clip-path="url(#clip120)" style="stroke:#000000; stroke-linecap:round; stroke-linejoin:round; stroke-width:4; stroke-opacity:1; fill:none" points="219.866,983.014 238.764,983.014 "/>
<polyline clip-path="url(#clip120)" style="stroke:#000000; stroke-linecap:round; stroke-linejoin:round; stroke-width:4; stroke-opacity:1; fill:none" points="219.866,849.273 238.764,849.273 "/>
<polyline clip-path="url(#clip120)" style="stroke:#000000; stroke-linecap:round; stroke-linejoin:round; stroke-width:4; stroke-opacity:1; fill:none" points="219.866,715.531 238.764,715.531 "/>
<polyline clip-path="url(#clip120)" style="stroke:#000000; stroke-linecap:round; stroke-linejoin:round; stroke-width:4; stroke-opacity:1; fill:none" points="219.866,581.79 238.764,581.79 "/>
<polyline clip-path="url(#clip120)" style="stroke:#000000; stroke-linecap:round; stroke-linejoin:round; stroke-width:4; stroke-opacity:1; fill:none" points="219.866,448.048 238.764,448.048 "/>
<polyline clip-path="url(#clip120)" style="stroke:#000000; stroke-linecap:round; stroke-linejoin:round; stroke-width:4; stroke-opacity:1; fill:none" points="219.866,314.307 238.764,314.307 "/>
<polyline clip-path="url(#clip120)" style="stroke:#000000; stroke-linecap:round; stroke-linejoin:round; stroke-width:4; stroke-opacity:1; fill:none" points="219.866,180.565 238.764,180.565 "/>
<path clip-path="url(#clip120)" d="M126.691 1370.04 Q123.08 1370.04 121.251 1373.6 Q119.445 1377.14 119.445 1384.27 Q119.445 1391.38 121.251 1394.94 Q123.08 1398.49 126.691 1398.49 Q130.325 1398.49 132.13 1394.94 Q133.959 1391.38 133.959 1384.27 Q133.959 1377.14 132.13 1373.6 Q130.325 1370.04 126.691 1370.04 M126.691 1366.33 Q132.501 1366.33 135.556 1370.94 Q138.635 1375.52 138.635 1384.27 Q138.635 1393 135.556 1397.61 Q132.501 1402.19 126.691 1402.19 Q120.88 1402.19 117.802 1397.61 Q114.746 1393 114.746 1384.27 Q114.746 1375.52 117.802 1370.94 Q120.88 1366.33 126.691 1366.33 Z" fill="#000000" fill-rule="nonzero" fill-opacity="1" /><path clip-path="url(#clip120)" d="M146.853 1395.64 L151.737 1395.64 L151.737 1401.52 L146.853 1401.52 L146.853 1395.64 Z" fill="#000000" fill-rule="nonzero" fill-opacity="1" /><path clip-path="url(#clip120)" d="M171.922 1370.04 Q168.311 1370.04 166.482 1373.6 Q164.677 1377.14 164.677 1384.27 Q164.677 1391.38 166.482 1394.94 Q168.311 1398.49 171.922 1398.49 Q175.556 1398.49 177.362 1394.94 Q179.19 1391.38 179.19 1384.27 Q179.19 1377.14 177.362 1373.6 Q175.556 1370.04 171.922 1370.04 M171.922 1366.33 Q177.732 1366.33 180.788 1370.94 Q183.866 1375.52 183.866 1384.27 Q183.866 1393 180.788 1397.61 Q177.732 1402.19 171.922 1402.19 Q166.112 1402.19 163.033 1397.61 Q159.978 1393 159.978 1384.27 Q159.978 1375.52 163.033 1370.94 Q166.112 1366.33 171.922 1366.33 Z" fill="#000000" fill-rule="nonzero" fill-opacity="1" /><path clip-path="url(#clip120)" d="M127.917 1236.3 Q124.306 1236.3 122.478 1239.86 Q120.672 1243.4 120.672 1250.53 Q120.672 1257.64 122.478 1261.2 Q124.306 1264.74 127.917 1264.74 Q131.552 1264.74 133.357 1261.2 Q135.186 1257.64 135.186 1250.53 Q135.186 1243.4 133.357 1239.86 Q131.552 1236.3 127.917 1236.3 M127.917 1232.59 Q133.728 1232.59 136.783 1237.2 Q139.862 1241.78 139.862 1250.53 Q139.862 1259.26 136.783 1263.86 Q133.728 1268.45 127.917 1268.45 Q122.107 1268.45 119.029 1263.86 Q115.973 1259.26 115.973 1250.53 Q115.973 1241.78 119.029 1237.2 Q122.107 1232.59 127.917 1232.59 Z" fill="#000000" fill-rule="nonzero" fill-opacity="1" /><path clip-path="url(#clip120)" d="M148.079 1261.9 L152.964 1261.9 L152.964 1267.78 L148.079 1267.78 L148.079 1261.9 Z" fill="#000000" fill-rule="nonzero" fill-opacity="1" /><path clip-path="url(#clip120)" d="M163.959 1263.84 L171.598 1263.84 L171.598 1237.48 L163.288 1239.14 L163.288 1234.88 L171.552 1233.22 L176.227 1233.22 L176.227 1263.84 L183.866 1263.84 L183.866 1267.78 L163.959 1267.78 L163.959 1263.84 Z" fill="#000000" fill-rule="nonzero" fill-opacity="1" /><path clip-path="url(#clip120)" d="M128.288 1102.55 Q124.677 1102.55 122.848 1106.12 Q121.043 1109.66 121.043 1116.79 Q121.043 1123.9 122.848 1127.46 Q124.677 1131 128.288 1131 Q131.922 1131 133.728 1127.46 Q135.556 1123.9 135.556 1116.79 Q135.556 1109.66 133.728 1106.12 Q131.922 1102.55 128.288 1102.55 M128.288 1098.85 Q134.098 1098.85 137.154 1103.46 Q140.232 1108.04 140.232 1116.79 Q140.232 1125.52 137.154 1130.12 Q134.098 1134.71 128.288 1134.71 Q122.478 1134.71 119.399 1130.12 Q116.343 1125.52 116.343 1116.79 Q116.343 1108.04 119.399 1103.46 Q122.478 1098.85 128.288 1098.85 Z" fill="#000000" fill-rule="nonzero" fill-opacity="1" /><path clip-path="url(#clip120)" d="M148.45 1128.16 L153.334 1128.16 L153.334 1134.04 L148.45 1134.04 L148.45 1128.16 Z" fill="#000000" fill-rule="nonzero" fill-opacity="1" /><path clip-path="url(#clip120)" d="M167.547 1130.1 L183.866 1130.1 L183.866 1134.04 L161.922 1134.04 L161.922 1130.1 Q164.584 1127.35 169.167 1122.72 Q173.774 1118.06 174.954 1116.72 Q177.2 1114.2 178.079 1112.46 Q178.982 1110.7 178.982 1109.01 Q178.982 1106.26 177.038 1104.52 Q175.116 1102.79 172.014 1102.79 Q169.815 1102.79 167.362 1103.55 Q164.931 1104.31 162.153 1105.86 L162.153 1101.14 Q164.977 1100.01 167.431 1099.43 Q169.885 1098.85 171.922 1098.85 Q177.292 1098.85 180.487 1101.54 Q183.681 1104.22 183.681 1108.71 Q183.681 1110.84 182.871 1112.76 Q182.084 1114.66 179.977 1117.25 Q179.399 1117.92 176.297 1121.14 Q173.195 1124.34 167.547 1130.1 Z" fill="#000000" fill-rule="nonzero" fill-opacity="1" /><path clip-path="url(#clip120)" d="M127.339 968.813 Q123.728 968.813 121.899 972.377 Q120.093 975.919 120.093 983.049 Q120.093 990.155 121.899 993.72 Q123.728 997.262 127.339 997.262 Q130.973 997.262 132.779 993.72 Q134.607 990.155 134.607 983.049 Q134.607 975.919 132.779 972.377 Q130.973 968.813 127.339 968.813 M127.339 965.109 Q133.149 965.109 136.204 969.715 Q139.283 974.299 139.283 983.049 Q139.283 991.776 136.204 996.382 Q133.149 1000.97 127.339 1000.97 Q121.529 1000.97 118.45 996.382 Q115.394 991.776 115.394 983.049 Q115.394 974.299 118.45 969.715 Q121.529 965.109 127.339 965.109 Z" fill="#000000" fill-rule="nonzero" fill-opacity="1" /><path clip-path="url(#clip120)" d="M147.501 994.414 L152.385 994.414 L152.385 1000.29 L147.501 1000.29 L147.501 994.414 Z" fill="#000000" fill-rule="nonzero" fill-opacity="1" /><path clip-path="url(#clip120)" d="M176.737 981.66 Q180.093 982.377 181.968 984.646 Q183.866 986.914 183.866 990.248 Q183.866 995.363 180.348 998.164 Q176.829 1000.97 170.348 1000.97 Q168.172 1000.97 165.857 1000.53 Q163.565 1000.11 161.112 999.252 L161.112 994.738 Q163.056 995.873 165.371 996.451 Q167.686 997.03 170.209 997.03 Q174.607 997.03 176.899 995.294 Q179.214 993.558 179.214 990.248 Q179.214 987.192 177.061 985.479 Q174.931 983.743 171.112 983.743 L167.084 983.743 L167.084 979.901 L171.297 979.901 Q174.746 979.901 176.575 978.535 Q178.403 977.146 178.403 974.553 Q178.403 971.891 176.505 970.479 Q174.63 969.044 171.112 969.044 Q169.19 969.044 166.991 969.461 Q164.792 969.877 162.153 970.757 L162.153 966.59 Q164.815 965.85 167.13 965.479 Q169.468 965.109 171.528 965.109 Q176.852 965.109 179.954 967.54 Q183.056 969.947 183.056 974.067 Q183.056 976.938 181.413 978.928 Q179.769 980.896 176.737 981.66 Z" fill="#000000" fill-rule="nonzero" fill-opacity="1" /><path clip-path="url(#clip120)" d="M126.205 835.071 Q122.593 835.071 120.765 838.636 Q118.959 842.178 118.959 849.307 Q118.959 856.414 120.765 859.979 Q122.593 863.52 126.205 863.52 Q129.839 863.52 131.644 859.979 Q133.473 856.414 133.473 849.307 Q133.473 842.178 131.644 838.636 Q129.839 835.071 126.205 835.071 M126.205 831.368 Q132.015 831.368 135.07 835.974 Q138.149 840.557 138.149 849.307 Q138.149 858.034 135.07 862.641 Q132.015 867.224 126.205 867.224 Q120.394 867.224 117.316 862.641 Q114.26 858.034 114.26 849.307 Q114.26 840.557 117.316 835.974 Q120.394 831.368 126.205 831.368 Z" fill="#000000" fill-rule="nonzero" fill-opacity="1" /><path clip-path="url(#clip120)" d="M146.366 860.673 L151.251 860.673 L151.251 866.553 L146.366 866.553 L146.366 860.673 Z" fill="#000000" fill-rule="nonzero" fill-opacity="1" /><path clip-path="url(#clip120)" d="M174.283 836.067 L162.477 854.516 L174.283 854.516 L174.283 836.067 M173.056 831.993 L178.936 831.993 L178.936 854.516 L183.866 854.516 L183.866 858.404 L178.936 858.404 L178.936 866.553 L174.283 866.553 L174.283 858.404 L158.681 858.404 L158.681 853.891 L173.056 831.993 Z" fill="#000000" fill-rule="nonzero" fill-opacity="1" /><path clip-path="url(#clip120)" d="M127.686 701.33 Q124.075 701.33 122.246 704.895 Q120.441 708.436 120.441 715.566 Q120.441 722.672 122.246 726.237 Q124.075 729.779 127.686 729.779 Q131.32 729.779 133.126 726.237 Q134.954 722.672 134.954 715.566 Q134.954 708.436 133.126 704.895 Q131.32 701.33 127.686 701.33 M127.686 697.626 Q133.496 697.626 136.552 702.233 Q139.63 706.816 139.63 715.566 Q139.63 724.293 136.552 728.899 Q133.496 733.482 127.686 733.482 Q121.876 733.482 118.797 728.899 Q115.742 724.293 115.742 715.566 Q115.742 706.816 118.797 702.233 Q121.876 697.626 127.686 697.626 Z" fill="#000000" fill-rule="nonzero" fill-opacity="1" /><path clip-path="url(#clip120)" d="M147.848 726.931 L152.732 726.931 L152.732 732.811 L147.848 732.811 L147.848 726.931 Z" fill="#000000" fill-rule="nonzero" fill-opacity="1" /><path clip-path="url(#clip120)" d="M162.964 698.251 L181.32 698.251 L181.32 702.186 L167.246 702.186 L167.246 710.658 Q168.264 710.311 169.283 710.149 Q170.302 709.964 171.32 709.964 Q177.107 709.964 180.487 713.135 Q183.866 716.307 183.866 721.723 Q183.866 727.302 180.394 730.404 Q176.922 733.482 170.602 733.482 Q168.427 733.482 166.158 733.112 Q163.913 732.742 161.505 732.001 L161.505 727.302 Q163.589 728.436 165.811 728.992 Q168.033 729.547 170.51 729.547 Q174.514 729.547 176.852 727.441 Q179.19 725.334 179.19 721.723 Q179.19 718.112 176.852 716.006 Q174.514 713.899 170.51 713.899 Q168.635 713.899 166.76 714.316 Q164.908 714.732 162.964 715.612 L162.964 698.251 Z" fill="#000000" fill-rule="nonzero" fill-opacity="1" /><path clip-path="url(#clip120)" d="M126.529 567.588 Q122.918 567.588 121.089 571.153 Q119.283 574.695 119.283 581.824 Q119.283 588.931 121.089 592.496 Q122.918 596.037 126.529 596.037 Q130.163 596.037 131.968 592.496 Q133.797 588.931 133.797 581.824 Q133.797 574.695 131.968 571.153 Q130.163 567.588 126.529 567.588 M126.529 563.885 Q132.339 563.885 135.394 568.491 Q138.473 573.074 138.473 581.824 Q138.473 590.551 135.394 595.158 Q132.339 599.741 126.529 599.741 Q120.718 599.741 117.64 595.158 Q114.584 590.551 114.584 581.824 Q114.584 573.074 117.64 568.491 Q120.718 563.885 126.529 563.885 Z" fill="#000000" fill-rule="nonzero" fill-opacity="1" /><path clip-path="url(#clip120)" d="M146.691 593.19 L151.575 593.19 L151.575 599.07 L146.691 599.07 L146.691 593.19 Z" fill="#000000" fill-rule="nonzero" fill-opacity="1" /><path clip-path="url(#clip120)" d="M172.339 579.926 Q169.19 579.926 167.339 582.079 Q165.51 584.232 165.51 587.982 Q165.51 591.709 167.339 593.884 Q169.19 596.037 172.339 596.037 Q175.487 596.037 177.315 593.884 Q179.167 591.709 179.167 587.982 Q179.167 584.232 177.315 582.079 Q175.487 579.926 172.339 579.926 M181.621 565.274 L181.621 569.533 Q179.862 568.699 178.056 568.26 Q176.274 567.82 174.514 567.82 Q169.885 567.82 167.431 570.945 Q165.001 574.07 164.653 580.389 Q166.019 578.375 168.079 577.311 Q170.139 576.223 172.616 576.223 Q177.825 576.223 180.834 579.394 Q183.866 582.542 183.866 587.982 Q183.866 593.306 180.718 596.523 Q177.57 599.741 172.339 599.741 Q166.343 599.741 163.172 595.158 Q160.001 590.551 160.001 581.824 Q160.001 573.63 163.89 568.769 Q167.778 563.885 174.329 563.885 Q176.089 563.885 177.871 564.232 Q179.676 564.579 181.621 565.274 Z" fill="#000000" fill-rule="nonzero" fill-opacity="1" /><path clip-path="url(#clip120)" d="M127.593 433.847 Q123.982 433.847 122.154 437.412 Q120.348 440.953 120.348 448.083 Q120.348 455.189 122.154 458.754 Q123.982 462.296 127.593 462.296 Q131.228 462.296 133.033 458.754 Q134.862 455.189 134.862 448.083 Q134.862 440.953 133.033 437.412 Q131.228 433.847 127.593 433.847 M127.593 430.143 Q133.404 430.143 136.459 434.75 Q139.538 439.333 139.538 448.083 Q139.538 456.81 136.459 461.416 Q133.404 465.999 127.593 465.999 Q121.783 465.999 118.705 461.416 Q115.649 456.81 115.649 448.083 Q115.649 439.333 118.705 434.75 Q121.783 430.143 127.593 430.143 Z" fill="#000000" fill-rule="nonzero" fill-opacity="1" /><path clip-path="url(#clip120)" d="M147.755 459.449 L152.64 459.449 L152.64 465.328 L147.755 465.328 L147.755 459.449 Z" fill="#000000" fill-rule="nonzero" fill-opacity="1" /><path clip-path="url(#clip120)" d="M161.644 430.768 L183.866 430.768 L183.866 432.759 L171.32 465.328 L166.436 465.328 L178.241 434.703 L161.644 434.703 L161.644 430.768 Z" fill="#000000" fill-rule="nonzero" fill-opacity="1" /><path clip-path="url(#clip120)" d="M126.783 300.105 Q123.172 300.105 121.343 303.67 Q119.538 307.212 119.538 314.341 Q119.538 321.448 121.343 325.013 Q123.172 328.554 126.783 328.554 Q130.417 328.554 132.223 325.013 Q134.052 321.448 134.052 314.341 Q134.052 307.212 132.223 303.67 Q130.417 300.105 126.783 300.105 M126.783 296.402 Q132.593 296.402 135.649 301.008 Q138.728 305.592 138.728 314.341 Q138.728 323.068 135.649 327.675 Q132.593 332.258 126.783 332.258 Q120.973 332.258 117.894 327.675 Q114.839 323.068 114.839 314.341 Q114.839 305.592 117.894 301.008 Q120.973 296.402 126.783 296.402 Z" fill="#000000" fill-rule="nonzero" fill-opacity="1" /><path clip-path="url(#clip120)" d="M146.945 325.707 L151.829 325.707 L151.829 331.587 L146.945 331.587 L146.945 325.707 Z" fill="#000000" fill-rule="nonzero" fill-opacity="1" /><path clip-path="url(#clip120)" d="M172.014 315.175 Q168.681 315.175 166.76 316.957 Q164.862 318.74 164.862 321.865 Q164.862 324.99 166.76 326.772 Q168.681 328.554 172.014 328.554 Q175.348 328.554 177.269 326.772 Q179.19 324.966 179.19 321.865 Q179.19 318.74 177.269 316.957 Q175.371 315.175 172.014 315.175 M167.339 313.184 Q164.329 312.443 162.64 310.383 Q160.973 308.323 160.973 305.36 Q160.973 301.217 163.913 298.809 Q166.876 296.402 172.014 296.402 Q177.176 296.402 180.116 298.809 Q183.056 301.217 183.056 305.36 Q183.056 308.323 181.366 310.383 Q179.7 312.443 176.714 313.184 Q180.093 313.971 181.968 316.263 Q183.866 318.554 183.866 321.865 Q183.866 326.888 180.788 329.573 Q177.732 332.258 172.014 332.258 Q166.297 332.258 163.218 329.573 Q160.163 326.888 160.163 321.865 Q160.163 318.554 162.061 316.263 Q163.959 313.971 167.339 313.184 M165.626 305.8 Q165.626 308.485 167.292 309.99 Q168.982 311.494 172.014 311.494 Q175.024 311.494 176.714 309.99 Q178.426 308.485 178.426 305.8 Q178.426 303.115 176.714 301.61 Q175.024 300.105 172.014 300.105 Q168.982 300.105 167.292 301.61 Q165.626 303.115 165.626 305.8 Z" fill="#000000" fill-rule="nonzero" fill-opacity="1" /><path clip-path="url(#clip120)" d="M126.876 166.364 Q123.265 166.364 121.436 169.929 Q119.63 173.47 119.63 180.6 Q119.63 187.706 121.436 191.271 Q123.265 194.813 126.876 194.813 Q130.51 194.813 132.316 191.271 Q134.144 187.706 134.144 180.6 Q134.144 173.47 132.316 169.929 Q130.51 166.364 126.876 166.364 M126.876 162.66 Q132.686 162.66 135.742 167.267 Q138.82 171.85 138.82 180.6 Q138.82 189.327 135.742 193.933 Q132.686 198.517 126.876 198.517 Q121.066 198.517 117.987 193.933 Q114.931 189.327 114.931 180.6 Q114.931 171.85 117.987 167.267 Q121.066 162.66 126.876 162.66 Z" fill="#000000" fill-rule="nonzero" fill-opacity="1" /><path clip-path="url(#clip120)" d="M147.038 191.966 L151.922 191.966 L151.922 197.845 L147.038 197.845 L147.038 191.966 Z" fill="#000000" fill-rule="nonzero" fill-opacity="1" /><path clip-path="url(#clip120)" d="M162.246 197.128 L162.246 192.868 Q164.005 193.702 165.811 194.142 Q167.616 194.581 169.352 194.581 Q173.982 194.581 176.413 191.48 Q178.866 188.355 179.214 182.012 Q177.871 184.003 175.811 185.068 Q173.751 186.132 171.251 186.132 Q166.065 186.132 163.033 183.007 Q160.024 179.859 160.024 174.419 Q160.024 169.095 163.172 165.878 Q166.32 162.66 171.552 162.66 Q177.547 162.66 180.695 167.267 Q183.866 171.85 183.866 180.6 Q183.866 188.771 179.977 193.655 Q176.112 198.517 169.561 198.517 Q167.802 198.517 165.996 198.169 Q164.19 197.822 162.246 197.128 M171.552 182.475 Q174.7 182.475 176.528 180.322 Q178.38 178.169 178.38 174.419 Q178.38 170.693 176.528 168.54 Q174.7 166.364 171.552 166.364 Q168.403 166.364 166.552 168.54 Q164.723 170.693 164.723 174.419 Q164.723 178.169 166.552 180.322 Q168.403 182.475 171.552 182.475 Z" fill="#000000" fill-rule="nonzero" fill-opacity="1" /><path clip-path="url(#clip120)" d="M45.514 914.556 Q44.4512 914.556 43.5816 914.846 Q42.6799 915.104 42.068 915.522 Q41.4239 915.909 40.9408 916.65 Q40.4255 917.39 40.1034 918.002 Q39.7814 918.614 39.5881 919.645 Q39.3627 920.675 39.2661 921.352 Q39.1372 922.028 39.0728 923.187 Q39.0084 924.347 39.0084 924.927 Q39.0084 925.474 39.0084 926.569 Q39.0084 930.015 39.0728 930.595 Q39.2016 931.464 39.7169 931.786 Q40.2 932.108 41.5205 932.431 L58.7184 936.714 L58.7184 929.339 Q58.7184 925.313 57.5912 922.543 Q56.464 919.774 54.8859 918.196 Q53.1468 916.456 50.3449 915.522 Q47.543 914.556 45.514 914.556 M75.8841 907.374 Q76.2384 907.374 77.0435 907.664 Q77.8487 907.922 78.9759 908.566 Q80.0709 909.21 81.0693 910.08 Q82.0676 910.949 82.744 912.334 Q83.4525 913.719 83.4525 915.297 Q83.4525 915.684 83.4203 916.07 Q83.4203 916.456 83.2593 917.423 Q83.1304 918.357 82.8728 919.13 Q82.6474 919.902 82.0999 920.869 Q81.5846 921.835 80.876 922.511 Q80.1353 923.155 78.9759 923.606 Q77.7843 924.057 76.335 924.057 Q75.0468 924.057 70.7312 922.994 Q67.0597 922.06 66.158 922.06 Q65.1596 922.06 64.2256 922.382 Q63.2916 922.672 62.3255 923.413 Q61.3593 924.121 60.7796 925.635 Q60.1677 927.149 60.1677 929.274 L60.1677 937.1 L77.6554 941.48 Q77.6877 941.48 78.1385 941.577 Q78.5572 941.674 78.7826 941.674 Q79.2013 941.674 79.459 941.416 Q79.7166 941.126 79.8454 940.418 Q79.9421 939.709 79.9743 939.162 Q79.9743 938.582 79.9743 937.39 Q79.9743 935.909 80.2319 935.651 Q80.3929 935.522 80.6828 935.522 Q81.1337 935.522 81.4557 935.651 Q81.7456 935.748 81.8422 936.005 Q81.9388 936.231 81.971 936.392 Q82.0032 936.553 82.0032 936.843 L81.81 945.216 L82.0032 953.525 Q82.0032 954.459 81.2625 954.459 Q80.6184 954.459 80.3607 954.234 Q80.0709 954.008 80.0387 953.719 Q79.9743 953.429 79.9743 952.688 Q79.9743 951.078 79.8776 950.112 Q79.781 949.145 79.6522 948.533 Q79.4912 947.889 79.0403 947.567 Q78.5894 947.213 78.2029 947.052 Q77.7843 946.891 76.8503 946.666 L41.4239 937.841 Q40.3611 937.583 40.2 937.583 Q39.5881 937.583 39.4271 937.97 Q39.2339 938.324 39.1372 939.355 L39.0084 941.867 Q39.0084 942.64 38.9762 942.962 Q38.944 943.252 38.783 943.477 Q38.6219 943.703 38.2677 943.703 Q37.3659 943.703 37.1727 943.316 Q36.9472 942.93 36.9472 941.802 L36.9472 922.994 Q36.9472 916.585 39.7491 912.527 Q42.5511 908.437 46.8344 908.437 Q48.7668 908.437 50.5703 909.307 Q52.3738 910.176 53.7909 911.626 Q55.208 913.043 56.3996 914.943 Q57.559 916.843 58.3641 918.872 Q59.1371 920.869 59.588 922.93 Q59.91 922.028 60.3931 921.191 Q60.8762 920.321 61.778 919.226 Q62.6797 918.099 64.129 917.423 Q65.5782 916.746 67.3496 916.746 Q68.6056 916.746 70.4735 917.004 Q75.7875 917.648 77.9775 917.648 Q80.0709 917.648 81.0371 917.101 Q82.0032 916.553 82.0032 915.007 Q82.0032 913.494 80.6506 911.819 Q79.2657 910.112 76.0129 909.017 Q75.079 908.759 75.079 908.147 Q75.079 908.115 75.079 908.083 Q75.079 908.019 75.1434 907.89 Q75.1756 907.761 75.2722 907.664 Q75.3366 907.535 75.4977 907.471 Q75.6587 907.374 75.8841 907.374 Z" fill="#000000" fill-rule="nonzero" fill-opacity="1" /><path clip-path="url(#clip120)" d="M46.5165 900.794 Q45.6824 900.794 45.4344 900.727 Q45.1864 900.637 44.8032 900.276 L34.9288 891.416 Q29.4732 886.569 24.7164 886.569 Q21.6278 886.569 19.4185 888.192 Q17.2092 889.793 17.2092 892.746 Q17.2092 894.775 18.4491 896.488 Q19.689 898.202 21.8984 898.991 Q21.8533 898.856 21.8533 898.382 Q21.8533 897.232 22.5747 896.601 Q23.2961 895.947 24.2655 895.947 Q25.5054 895.947 26.1141 896.759 Q26.7003 897.548 26.7003 898.337 Q26.7003 898.653 26.6326 899.081 Q26.565 899.487 25.9338 900.141 Q25.28 900.794 24.1302 900.794 Q20.9064 900.794 18.3364 898.36 Q15.7664 895.902 15.7664 892.16 Q15.7664 887.922 18.2913 885.149 Q20.7937 882.353 24.7164 882.353 Q26.0916 882.353 27.354 882.782 Q28.594 883.187 29.5634 883.751 Q30.5327 884.292 32.0883 885.78 Q33.6438 887.268 34.7485 888.463 Q35.8532 889.658 38.1977 892.34 L42.9545 897.232 L42.9545 888.914 Q42.9545 884.856 42.5938 884.54 Q41.9401 884.089 38.4908 883.526 L38.4908 882.353 L46.5165 883.661 L46.5165 900.794 Z" fill="#000000" fill-rule="nonzero" fill-opacity="1" /><path clip-path="url(#clip120)" d="M61.5375 875.5 L61.5375 858.344 L66.7574 858.344 L66.7574 875.5 L61.5375 875.5 Z" fill="#000000" fill-rule="nonzero" fill-opacity="1" /><path clip-path="url(#clip120)" d="M47.7239 823.365 L53.1984 823.365 Q51.8298 825.847 51.1614 828.362 Q50.4612 830.844 50.4612 833.391 Q50.4612 839.088 54.0896 842.239 Q57.6862 845.39 64.2111 845.39 Q70.7359 845.39 74.3644 842.239 Q77.961 839.088 77.961 833.391 Q77.961 830.844 77.2926 828.362 Q76.5924 825.847 75.2238 823.365 L80.6346 823.365 Q81.7804 825.815 82.3533 828.457 Q82.9263 831.067 82.9263 834.027 Q82.9263 842.08 77.8655 846.822 Q72.8048 851.565 64.2111 851.565 Q55.4901 851.565 50.493 846.79 Q45.4959 841.984 45.4959 833.645 Q45.4959 830.94 46.0688 828.362 Q46.6099 825.784 47.7239 823.365 Z" fill="#000000" fill-rule="nonzero" fill-opacity="1" /><path clip-path="url(#clip120)" d="M50.4612 799.366 Q50.4612 804.076 54.1533 806.814 Q57.8136 809.551 64.2111 809.551 Q70.6086 809.551 74.3007 806.846 Q77.961 804.108 77.961 799.366 Q77.961 794.687 74.2689 791.95 Q70.5768 789.213 64.2111 789.213 Q57.8772 789.213 54.1851 791.95 Q50.4612 794.687 50.4612 799.366 M45.4959 799.366 Q45.4959 791.727 50.4612 787.366 Q55.4264 783.006 64.2111 783.006 Q72.9639 783.006 77.961 787.366 Q82.9263 791.727 82.9263 799.366 Q82.9263 807.037 77.961 811.397 Q72.9639 815.726 64.2111 815.726 Q55.4264 815.726 50.4612 811.397 Q45.4959 807.037 45.4959 799.366 Z" fill="#000000" fill-rule="nonzero" fill-opacity="1" /><path clip-path="url(#clip120)" d="M62.7151 742.807 L65.5797 742.807 L65.5797 769.733 Q71.6271 769.352 74.81 766.105 Q77.961 762.827 77.961 757.002 Q77.961 753.628 77.1335 750.477 Q76.3059 747.294 74.6508 744.175 L80.189 744.175 Q81.5258 747.326 82.226 750.636 Q82.9263 753.947 82.9263 757.352 Q82.9263 765.882 77.961 770.879 Q72.9958 775.845 64.5294 775.845 Q55.7765 775.845 50.6521 771.134 Q45.4959 766.391 45.4959 758.371 Q45.4959 751.177 50.1429 747.008 Q54.758 742.807 62.7151 742.807 M60.9964 748.663 Q56.1903 748.727 53.3257 751.368 Q50.4612 753.978 50.4612 758.307 Q50.4612 763.209 53.2302 766.169 Q55.9993 769.097 61.0282 769.542 L60.9964 748.663 Z" fill="#000000" fill-rule="nonzero" fill-opacity="1" /><path clip-path="url(#clip120)" d="M32.478 715.148 L37.3478 715.148 L37.3478 720.749 Q37.3478 723.9 38.6209 725.142 Q39.8941 726.351 43.2043 726.351 L46.3553 726.351 L46.3553 716.707 L50.9068 716.707 L50.9068 726.351 L82.0032 726.351 L82.0032 732.239 L50.9068 732.239 L50.9068 737.841 L46.3553 737.841 L46.3553 732.239 L43.8727 732.239 Q37.9207 732.239 35.2153 729.47 Q32.478 726.701 32.478 720.686 L32.478 715.148 Z" fill="#000000" fill-rule="nonzero" fill-opacity="1" /><path clip-path="url(#clip120)" d="M32.478 692.199 L37.3478 692.199 L37.3478 697.801 Q37.3478 700.952 38.6209 702.193 Q39.8941 703.403 43.2043 703.403 L46.3553 703.403 L46.3553 693.759 L50.9068 693.759 L50.9068 703.403 L82.0032 703.403 L82.0032 709.291 L50.9068 709.291 L50.9068 714.893 L46.3553 714.893 L46.3553 709.291 L43.8727 709.291 Q37.9207 709.291 35.2153 706.522 Q32.478 703.753 32.478 697.737 L32.478 692.199 Z" fill="#000000" fill-rule="nonzero" fill-opacity="1" /><path clip-path="url(#clip120)" d="M46.3553 687.298 L46.3553 681.441 L82.0032 681.441 L82.0032 687.298 L46.3553 687.298 M32.478 687.298 L32.478 681.441 L39.8941 681.441 L39.8941 687.298 L32.478 687.298 Z" fill="#000000" fill-rule="nonzero" fill-opacity="1" /><path clip-path="url(#clip120)" d="M47.7239 643.533 L53.1984 643.533 Q51.8298 646.016 51.1614 648.53 Q50.4612 651.013 50.4612 653.559 Q50.4612 659.257 54.0896 662.408 Q57.6862 665.559 64.2111 665.559 Q70.7359 665.559 74.3644 662.408 Q77.961 659.257 77.961 653.559 Q77.961 651.013 77.2926 648.53 Q76.5924 646.016 75.2238 643.533 L80.6346 643.533 Q81.7804 645.984 82.3533 648.626 Q82.9263 651.236 82.9263 654.196 Q82.9263 662.249 77.8655 666.991 Q72.8048 671.733 64.2111 671.733 Q55.4901 671.733 50.493 666.959 Q45.4959 662.153 45.4959 653.814 Q45.4959 651.109 46.0688 648.53 Q46.6099 645.952 47.7239 643.533 Z" fill="#000000" fill-rule="nonzero" fill-opacity="1" /><path clip-path="url(#clip120)" d="M46.3553 633.348 L46.3553 627.492 L82.0032 627.492 L82.0032 633.348 L46.3553 633.348 M32.478 633.348 L32.478 627.492 L39.8941 627.492 L39.8941 633.348 L32.478 633.348 Z" fill="#000000" fill-rule="nonzero" fill-opacity="1" /><path clip-path="url(#clip120)" d="M62.7151 584.746 L65.5797 584.746 L65.5797 611.673 Q71.6271 611.291 74.81 608.045 Q77.961 604.766 77.961 598.942 Q77.961 595.568 77.1335 592.417 Q76.3059 589.234 74.6508 586.115 L80.189 586.115 Q81.5258 589.266 82.226 592.576 Q82.9263 595.886 82.9263 599.292 Q82.9263 607.822 77.961 612.819 Q72.9958 617.784 64.5294 617.784 Q55.7765 617.784 50.6521 613.073 Q45.4959 608.331 45.4959 600.31 Q45.4959 593.117 50.1429 588.947 Q54.758 584.746 62.7151 584.746 M60.9964 590.602 Q56.1903 590.666 53.3257 593.308 Q50.4612 595.918 50.4612 600.247 Q50.4612 605.148 53.2302 608.108 Q55.9993 611.036 61.0282 611.482 L60.9964 590.602 Z" fill="#000000" fill-rule="nonzero" fill-opacity="1" /><path clip-path="url(#clip120)" d="M60.4871 545.501 L82.0032 545.501 L82.0032 551.358 L60.6781 551.358 Q55.6174 551.358 53.1029 553.331 Q50.5885 555.305 50.5885 559.251 Q50.5885 563.994 53.6122 566.731 Q56.6359 569.468 61.8558 569.468 L82.0032 569.468 L82.0032 575.357 L46.3553 575.357 L46.3553 569.468 L51.8934 569.468 Q48.6788 567.368 47.0873 564.535 Q45.4959 561.67 45.4959 557.946 Q45.4959 551.803 49.3153 548.652 Q53.1029 545.501 60.4871 545.501 Z" fill="#000000" fill-rule="nonzero" fill-opacity="1" /><path clip-path="url(#clip120)" d="M36.2338 528.028 L46.3553 528.028 L46.3553 515.965 L50.9068 515.965 L50.9068 528.028 L70.2585 528.028 Q74.619 528.028 75.8603 526.85 Q77.1016 525.64 77.1016 521.98 L77.1016 515.965 L82.0032 515.965 L82.0032 521.98 Q82.0032 528.76 79.4888 531.338 Q76.9425 533.916 70.2585 533.916 L50.9068 533.916 L50.9068 538.213 L46.3553 538.213 L46.3553 533.916 L36.2338 533.916 L36.2338 528.028 Z" fill="#000000" fill-rule="nonzero" fill-opacity="1" /><polyline clip-path="url(#clip122)" style="stroke:#008000; stroke-linecap:round; stroke-linejoin:round; stroke-width:4; stroke-opacity:1; fill:none" points="280.231,90.4366 285.261,91.5742 290.292,92.6125 295.322,93.5933 300.353,94.5713 305.383,95.594 310.413,96.6866 315.444,97.8443 320.474,99.031 325.505,100.183 330.535,101.221 335.565,102.071 340.596,102.689 345.626,103.08 350.657,103.297 355.687,103.425 360.717,103.553 365.748,103.755 370.778,104.076 375.809,104.531 380.839,105.107 385.869,105.766 390.9,106.446 395.93,107.073 400.961,107.574 405.991,107.905 411.021,108.056 416.052,108.048 421.082,107.912 426.113,107.668 431.143,107.316 436.173,106.84 441.204,106.228 446.234,105.477 451.265,104.594 456.295,103.591 461.325,102.479 466.356,101.275 471.386,100.004 476.417,98.6928 481.447,97.3549 486.477,95.9937 491.508,94.6186 496.538,93.2637 501.569,91.9873 506.599,90.8544 511.629,89.9166 516.66,89.197 521.69,88.6833 526.721,88.3325 531.751,88.087 536.781,87.8961 541.812,87.7348 546.842,87.6104 551.873,87.5435 556.903,87.5326 561.933,87.5303 566.964,87.4616 571.994,87.2724 577.025,86.9699 582.055,86.6214 587.085,86.3253 592.116,86.1857 597.146,86.3033 602.177,86.7689 607.207,87.6378 612.237,88.8949 617.268,90.4504 622.298,92.1903 627.329,94.0387 632.359,95.9779 637.389,98.0307 642.42,100.249 647.45,102.722 652.481,105.58 657.511,109 662.541,113.2 667.572,118.447 672.602,125.07 677.633,133.47 682.663,144.125 687.693,157.573 692.724,174.341 697.754,194.855 702.785,219.305 707.815,247.538 712.845,278.962 717.876,312.459 722.906,346.364 727.937,378.621 732.967,407.278 737.997,431.178 743.028,450.451 748.058,466.468 753.089,481.246 758.119,496.683 763.149,514.013 768.18,533.682 773.21,555.558 778.241,579.243 783.271,604.311 788.301,630.429 793.332,657.377 798.362,684.971 803.393,712.93 808.423,740.815 813.453,768.118 818.484,794.505 823.514,820.014 828.545,845.041 833.575,870.052 838.605,895.162 843.636,919.848 848.666,943.014 853.697,963.395 858.727,980.073 863.757,992.821 868.788,1002.09 873.818,1008.71 878.849,1013.5 883.879,1016.94 888.909,1019.12 893.94,1019.86 898.97,1018.99 904.001,1016.49 909.031,1012.51 914.061,1007.18 919.092,1000.51 924.122,992.387 929.153,982.722 934.183,971.524 939.213,958.866 944.244,944.79 949.274,929.343 954.305,912.741 959.335,895.508 964.365,878.37 969.396,861.93 974.426,846.386 979.457,831.498 984.487,816.865 989.517,802.336 994.548,788.338 999.578,775.875 1004.61,766.168 1009.64,760.144 1014.67,758.1 1019.7,759.695 1024.73,764.231 1029.76,770.982 1034.79,779.447 1039.82,789.427 1044.85,800.93 1049.88,813.949 1054.91,828.228 1059.94,843.127 1064.97,857.674 1070,870.772 1075.03,881.428 1080.06,888.886 1085.1,892.649 1090.13,892.452 1095.16,888.309 1100.19,880.616 1105.22,870.254 1110.25,858.582 1115.28,847.235 1120.31,837.741 1125.34,831.098 1130.37,827.561 1135.4,826.753 1140.43,828.069 1145.46,831.079 1150.49,835.713 1155.52,842.131 1160.55,850.402 1165.58,860.197 1170.61,870.695 1175.64,880.786 1180.67,889.572 1185.7,896.941 1190.73,903.922 1195.76,912.549 1200.79,925.209 1205.82,943.751 1210.86,968.786 1215.89,999.516 1220.92,1034.12 1225.95,1070.44 1230.98,1106.47 1236.01,1140.72 1241.04,1172.17 1246.07,1200.26 1251.1,1224.77 1256.13,1245.68 1261.16,1263.14 1266.19,1277.38 1271.22,1288.73 1276.25,1297.51 1281.28,1304.03 1286.31,1308.54 1291.34,1311.31 1296.37,1312.67 1301.4,1313 1306.43,1312.76 1311.46,1312.39 1316.49,1312.2 1321.52,1312.32 1326.55,1312.76 1331.58,1313.46 1336.62,1314.38 1341.65,1315.5 1346.68,1316.78 1351.71,1318.22 1356.74,1319.79 1361.77,1321.55 1366.8,1323.58 1371.83,1325.95 1376.86,1328.66 1381.89,1331.67 1386.92,1334.9 1391.95,1338.3 1396.98,1341.86 1402.01,1345.58 1407.04,1349.45 1412.07,1353.41 1417.1,1357.35 1422.13,1361.17 1427.16,1364.77 1432.19,1368.11 1437.22,1371.14 1442.25,1373.85 1447.28,1376.23 1452.31,1378.28 1457.34,1379.99 1462.38,1381.36 1467.41,1382.43 1472.44,1383.22 1477.47,1383.76 1482.5,1384.07 1487.53,1384.21 1492.56,1384.24 1497.59,1384.21 1502.62,1384.19 1507.65,1384.19 1512.68,1384.21 1517.71,1384.23 1522.74,1384.24 1527.77,1384.24 1532.8,1384.24 1537.83,1384.24 1542.86,1384.23 1547.89,1384.22 1552.92,1384.2 1557.95,1384.18 1562.98,1384.19 1568.01,1384.22 1573.04,1384.24 1578.07,1384.2 1583.1,1384.05 1588.14,1383.71 1593.17,1383.1 1598.2,1382.11 1603.23,1380.6 1608.26,1378.43 1613.29,1375.43 1618.32,1371.52 1623.35,1366.65 1628.38,1360.84 1633.41,1354.06 1638.44,1346.18 1643.47,1336.91 1648.5,1325.83 1653.53,1312.48 1658.56,1296.51 1663.59,1277.7 1668.62,1255.97 1673.65,1231.41 1678.68,1204.25 1683.71,1174.9 1688.74,1143.98 1693.77,1112.27 1698.8,1080.65 1703.83,1050.01 1708.86,1021.09 1713.9,994.486 1718.93,970.562 1723.96,949.419 1728.99,930.869 1734.02,914.451 1739.05,899.503 1744.08,885.287 1749.11,871.141 1754.14,856.612 1759.17,841.544 1764.2,826.101 1769.23,810.698 1774.26,795.851 1779.29,781.999 1784.32,769.366 1789.35,757.907 1794.38,747.343 1799.41,737.249 1804.44,727.175 1809.47,716.782 1814.5,705.936 1819.53,694.746 1824.56,683.486 1829.59,672.461 1834.62,661.853 1839.66,651.623 1844.69,641.537 1849.72,631.288 1854.75,620.658 1859.78,609.631 1864.81,598.394 1869.84,587.252 1874.87,576.492 1879.9,566.276 1884.93,556.606 1889.96,547.353 1894.99,538.344 1900.02,529.451 1905.05,520.666 1910.08,512.133 1915.11,504.119 1920.14,496.966 1925.17,490.994 1930.2,486.398 1935.23,483.168 1940.26,481.079 1945.29,479.762 1950.32,478.827 1955.35,477.964 1960.38,476.992 1965.42,475.833 1970.45,474.486 1975.48,473.009 1980.51,471.521 1985.54,470.185 1990.57,469.138 1995.6,468.428 2000.63,467.993 2005.66,467.708 2010.69,467.496 2015.72,467.412 2020.75,467.665 2025.78,468.538 2030.81,470.257 2035.84,472.865 2040.87,476.17 2045.9,479.773 2050.93,483.157 2055.96,485.823 2060.99,487.426 2066.02,487.874 2071.05,487.338 2076.08,486.169 2081.11,484.752 2086.14,483.38 2091.18,482.194 2096.21,481.167 2101.24,480.142 2106.27,478.903 2111.3,477.28 2116.33,475.214 2121.36,472.771 2126.39,470.063 2131.42,467.144 2136.45,463.954 2141.48,460.352 2146.51,456.228 2151.54,451.606 2156.57,446.683 2161.6,441.785 2166.63,437.272 2171.66,433.441 2176.69,430.469 2181.72,428.402 2186.75,427.177 2191.78,426.66 2196.81,426.706 2201.84,427.232 2206.87,428.272 2211.9,429.971 2216.94,432.505 2221.97,435.957 2227,440.246 2232.03,445.126 2237.06,450.269 2242.09,455.369 2247.12,460.207 2252.15,464.666 2257.18,468.686 2262.21,472.203 2267.24,475.104 2272.27,477.209 2277.3,478.276 2282.33,478.023 2287.36,476.18 2292.39,472.556 "/>
<polyline clip-path="url(#clip122)" style="stroke:#ff0000; stroke-linecap:round; stroke-linejoin:round; stroke-width:4; stroke-opacity:1; fill:none" stroke-dasharray="16, 10" points="592.116,2799.12 592.116,-1328.69 "/>
<path clip-path="url(#clip120)" d="M1745 248.629 L2281.66 248.629 L2281.66 93.1086 L1745 93.1086  Z" fill="#ffffff" fill-rule="evenodd" fill-opacity="1"/>
<polyline clip-path="url(#clip120)" style="stroke:#000000; stroke-linecap:round; stroke-linejoin:round; stroke-width:4; stroke-opacity:1; fill:none" points="1745,248.629 2281.66,248.629 2281.66,93.1086 1745,93.1086 1745,248.629 "/>
<polyline clip-path="url(#clip120)" style="stroke:#008000; stroke-linecap:round; stroke-linejoin:round; stroke-width:4; stroke-opacity:1; fill:none" points="1768.7,144.949 1910.89,144.949 "/>
<path clip-path="url(#clip120)" d="M1934.59 133.844 L1963.82 133.844 L1963.82 137.779 L1951.56 137.779 L1951.56 168.404 L1946.86 168.404 L1946.86 137.779 L1934.59 137.779 L1934.59 133.844 Z" fill="#000000" fill-rule="nonzero" fill-opacity="1" /><path clip-path="url(#clip120)" d="M1976.21 146.459 Q1975.49 146.043 1974.63 145.858 Q1973.8 145.649 1972.78 145.649 Q1969.17 145.649 1967.23 148.01 Q1965.31 150.348 1965.31 154.746 L1965.31 168.404 L1961.02 168.404 L1961.02 142.478 L1965.31 142.478 L1965.31 146.506 Q1966.65 144.145 1968.8 143.01 Q1970.95 141.853 1974.03 141.853 Q1974.47 141.853 1975.01 141.922 Q1975.54 141.969 1976.19 142.084 L1976.21 146.459 Z" fill="#000000" fill-rule="nonzero" fill-opacity="1" /><path clip-path="url(#clip120)" d="M1980.68 142.478 L1984.94 142.478 L1984.94 168.404 L1980.68 168.404 L1980.68 142.478 M1980.68 132.385 L1984.94 132.385 L1984.94 137.779 L1980.68 137.779 L1980.68 132.385 Z" fill="#000000" fill-rule="nonzero" fill-opacity="1" /><path clip-path="url(#clip120)" d="M2005.63 155.371 Q2000.47 155.371 1998.48 156.552 Q1996.49 157.732 1996.49 160.58 Q1996.49 162.848 1997.97 164.191 Q1999.47 165.51 2002.04 165.51 Q2005.58 165.51 2007.71 163.01 Q2009.87 160.487 2009.87 156.32 L2009.87 155.371 L2005.63 155.371 M2014.13 153.612 L2014.13 168.404 L2009.87 168.404 L2009.87 164.469 Q2008.41 166.83 2006.23 167.964 Q2004.06 169.075 2000.91 169.075 Q1996.93 169.075 1994.57 166.853 Q1992.23 164.607 1992.23 160.857 Q1992.23 156.482 1995.14 154.26 Q1998.08 152.038 2003.89 152.038 L2009.87 152.038 L2009.87 151.621 Q2009.87 148.682 2007.92 147.084 Q2006 145.464 2002.51 145.464 Q2000.28 145.464 1998.18 145.996 Q1996.07 146.529 1994.13 147.594 L1994.13 143.658 Q1996.46 142.756 1998.66 142.316 Q2000.86 141.853 2002.94 141.853 Q2008.57 141.853 2011.35 144.77 Q2014.13 147.686 2014.13 153.612 Z" fill="#000000" fill-rule="nonzero" fill-opacity="1" /><path clip-path="url(#clip120)" d="M2044.45 152.756 L2044.45 168.404 L2040.19 168.404 L2040.19 152.895 Q2040.19 149.214 2038.75 147.385 Q2037.32 145.557 2034.45 145.557 Q2031 145.557 2029.01 147.756 Q2027.02 149.955 2027.02 153.751 L2027.02 168.404 L2022.74 168.404 L2022.74 142.478 L2027.02 142.478 L2027.02 146.506 Q2028.55 144.168 2030.61 143.01 Q2032.69 141.853 2035.4 141.853 Q2039.87 141.853 2042.16 144.631 Q2044.45 147.385 2044.45 152.756 Z" fill="#000000" fill-rule="nonzero" fill-opacity="1" /><path clip-path="url(#clip120)" d="M2070 155.14 Q2070 150.51 2068.08 147.964 Q2066.19 145.418 2062.74 145.418 Q2059.31 145.418 2057.39 147.964 Q2055.49 150.51 2055.49 155.14 Q2055.49 159.746 2057.39 162.293 Q2059.31 164.839 2062.74 164.839 Q2066.19 164.839 2068.08 162.293 Q2070 159.746 2070 155.14 M2074.26 165.186 Q2074.26 171.806 2071.32 175.024 Q2068.38 178.265 2062.32 178.265 Q2060.07 178.265 2058.08 177.918 Q2056.09 177.593 2054.22 176.899 L2054.22 172.756 Q2056.09 173.774 2057.92 174.26 Q2059.75 174.746 2061.65 174.746 Q2065.84 174.746 2067.92 172.547 Q2070 170.371 2070 165.95 L2070 163.844 Q2068.69 166.135 2066.63 167.269 Q2064.56 168.404 2061.69 168.404 Q2056.93 168.404 2054.01 164.769 Q2051.09 161.135 2051.09 155.14 Q2051.09 149.121 2054.01 145.487 Q2056.93 141.853 2061.69 141.853 Q2064.56 141.853 2066.63 142.987 Q2068.69 144.121 2070 146.413 L2070 142.478 L2074.26 142.478 L2074.26 165.186 Z" fill="#000000" fill-rule="nonzero" fill-opacity="1" /><path clip-path="url(#clip120)" d="M2082.6 158.172 L2082.6 142.478 L2086.86 142.478 L2086.86 158.01 Q2086.86 161.691 2088.29 163.543 Q2089.73 165.371 2092.6 165.371 Q2096.05 165.371 2098.04 163.172 Q2100.05 160.973 2100.05 157.177 L2100.05 142.478 L2104.31 142.478 L2104.31 168.404 L2100.05 168.404 L2100.05 164.422 Q2098.5 166.783 2096.44 167.941 Q2094.4 169.075 2091.69 169.075 Q2087.23 169.075 2084.91 166.297 Q2082.6 163.519 2082.6 158.172 M2093.31 141.853 L2093.31 141.853 Z" fill="#000000" fill-rule="nonzero" fill-opacity="1" /><path clip-path="url(#clip120)" d="M2113.08 132.385 L2117.34 132.385 L2117.34 168.404 L2113.08 168.404 L2113.08 132.385 Z" fill="#000000" fill-rule="nonzero" fill-opacity="1" /><path clip-path="url(#clip120)" d="M2138.04 155.371 Q2132.87 155.371 2130.88 156.552 Q2128.89 157.732 2128.89 160.58 Q2128.89 162.848 2130.37 164.191 Q2131.88 165.51 2134.45 165.51 Q2137.99 165.51 2140.12 163.01 Q2142.27 160.487 2142.27 156.32 L2142.27 155.371 L2138.04 155.371 M2146.53 153.612 L2146.53 168.404 L2142.27 168.404 L2142.27 164.469 Q2140.81 166.83 2138.64 167.964 Q2136.46 169.075 2133.31 169.075 Q2129.33 169.075 2126.97 166.853 Q2124.63 164.607 2124.63 160.857 Q2124.63 156.482 2127.55 154.26 Q2130.49 152.038 2136.3 152.038 L2142.27 152.038 L2142.27 151.621 Q2142.27 148.682 2140.33 147.084 Q2138.41 145.464 2134.91 145.464 Q2132.69 145.464 2130.58 145.996 Q2128.48 146.529 2126.53 147.594 L2126.53 143.658 Q2128.87 142.756 2131.07 142.316 Q2133.27 141.853 2135.35 141.853 Q2140.98 141.853 2143.75 144.77 Q2146.53 147.686 2146.53 153.612 Z" fill="#000000" fill-rule="nonzero" fill-opacity="1" /><path clip-path="url(#clip120)" d="M2170.33 146.459 Q2169.61 146.043 2168.75 145.858 Q2167.92 145.649 2166.9 145.649 Q2163.29 145.649 2161.35 148.01 Q2159.43 150.348 2159.43 154.746 L2159.43 168.404 L2155.14 168.404 L2155.14 142.478 L2159.43 142.478 L2159.43 146.506 Q2160.77 144.145 2162.92 143.01 Q2165.07 141.853 2168.15 141.853 Q2168.59 141.853 2169.12 141.922 Q2169.66 141.969 2170.31 142.084 L2170.33 146.459 Z" fill="#000000" fill-rule="nonzero" fill-opacity="1" /><path clip-path="url(#clip120)" d="M2175.05 162.524 L2179.93 162.524 L2179.93 168.404 L2175.05 168.404 L2175.05 162.524 M2175.05 143.89 L2179.93 143.89 L2179.93 149.77 L2175.05 149.77 L2175.05 143.89 Z" fill="#000000" fill-rule="nonzero" fill-opacity="1" /><path clip-path="url(#clip120)" d="M2229.56 141.866 Q2229.56 141.093 2229.35 140.461 Q2229.16 139.805 2228.85 139.36 Q2228.57 138.891 2228.03 138.54 Q2227.5 138.165 2227.05 137.931 Q2226.61 137.697 2225.86 137.556 Q2225.11 137.392 2224.61 137.322 Q2224.12 137.228 2223.28 137.182 Q2222.44 137.135 2222.01 137.135 Q2221.62 137.135 2220.82 137.135 Q2218.31 137.135 2217.89 137.182 Q2217.26 137.275 2217.03 137.65 Q2216.79 138.001 2216.56 138.962 L2213.44 151.469 L2218.81 151.469 Q2221.73 151.469 2223.75 150.649 Q2225.76 149.83 2226.91 148.682 Q2228.17 147.417 2228.85 145.379 Q2229.56 143.342 2229.56 141.866 M2234.78 163.953 Q2234.78 164.211 2234.57 164.797 Q2234.38 165.382 2233.91 166.202 Q2233.44 166.998 2232.81 167.724 Q2232.18 168.451 2231.17 168.942 Q2230.17 169.458 2229.02 169.458 Q2228.74 169.458 2228.46 169.434 Q2228.17 169.434 2227.47 169.317 Q2226.79 169.223 2226.23 169.036 Q2225.67 168.872 2224.97 168.474 Q2224.26 168.099 2223.77 167.584 Q2223.3 167.045 2222.98 166.202 Q2222.65 165.335 2222.65 164.281 Q2222.65 163.344 2223.42 160.206 Q2224.1 157.536 2224.1 156.88 Q2224.1 156.154 2223.87 155.475 Q2223.65 154.795 2223.12 154.093 Q2222.6 153.39 2221.5 152.968 Q2220.4 152.523 2218.85 152.523 L2213.16 152.523 L2209.98 165.242 Q2209.98 165.265 2209.91 165.593 Q2209.84 165.897 2209.84 166.061 Q2209.84 166.366 2210.02 166.553 Q2210.23 166.741 2210.75 166.834 Q2211.26 166.905 2211.66 166.928 Q2212.08 166.928 2212.95 166.928 Q2214.03 166.928 2214.22 167.115 Q2214.31 167.233 2214.31 167.443 Q2214.31 167.771 2214.22 168.006 Q2214.14 168.216 2213.96 168.287 Q2213.79 168.357 2213.68 168.38 Q2213.56 168.404 2213.35 168.404 L2207.26 168.263 L2201.22 168.404 Q2200.54 168.404 2200.54 167.865 Q2200.54 167.397 2200.7 167.209 Q2200.86 166.998 2201.08 166.975 Q2201.29 166.928 2201.82 166.928 Q2203 166.928 2203.7 166.858 Q2204.4 166.788 2204.85 166.694 Q2205.31 166.577 2205.55 166.249 Q2205.81 165.921 2205.92 165.64 Q2206.04 165.335 2206.2 164.656 L2212.62 138.891 Q2212.81 138.118 2212.81 138.001 Q2212.81 137.556 2212.53 137.439 Q2212.27 137.299 2211.52 137.228 L2209.69 137.135 Q2209.13 137.135 2208.9 137.111 Q2208.69 137.088 2208.52 136.971 Q2208.36 136.854 2208.36 136.596 Q2208.36 135.94 2208.64 135.8 Q2208.92 135.636 2209.74 135.636 L2223.42 135.636 Q2228.08 135.636 2231.03 137.673 Q2234.01 139.711 2234.01 142.826 Q2234.01 144.232 2233.37 145.543 Q2232.74 146.855 2231.69 147.886 Q2230.66 148.916 2229.28 149.783 Q2227.89 150.626 2226.42 151.212 Q2224.97 151.774 2223.47 152.102 Q2224.12 152.336 2224.73 152.687 Q2225.36 153.039 2226.16 153.694 Q2226.98 154.35 2227.47 155.404 Q2227.96 156.458 2227.96 157.746 Q2227.96 158.66 2227.78 160.018 Q2227.31 163.883 2227.31 165.476 Q2227.31 166.998 2227.71 167.701 Q2228.1 168.404 2229.23 168.404 Q2230.33 168.404 2231.55 167.42 Q2232.79 166.413 2233.59 164.047 Q2233.77 163.368 2234.22 163.368 Q2234.24 163.368 2234.26 163.368 Q2234.31 163.368 2234.41 163.415 Q2234.5 163.438 2234.57 163.508 Q2234.66 163.555 2234.71 163.672 Q2234.78 163.789 2234.78 163.953 Z" fill="#000000" fill-rule="nonzero" fill-opacity="1" /><path clip-path="url(#clip120)" d="M2239.56 142.595 Q2239.56 141.988 2239.61 141.808 Q2239.68 141.628 2239.94 141.349 L2246.38 134.168 Q2249.91 130.2 2249.91 126.74 Q2249.91 124.494 2248.73 122.887 Q2247.56 121.281 2245.42 121.281 Q2243.94 121.281 2242.69 122.182 Q2241.45 123.084 2240.87 124.691 Q2240.97 124.658 2241.32 124.658 Q2242.15 124.658 2242.61 125.183 Q2243.09 125.708 2243.09 126.413 Q2243.09 127.314 2242.5 127.757 Q2241.92 128.183 2241.35 128.183 Q2241.12 128.183 2240.81 128.134 Q2240.51 128.085 2240.04 127.626 Q2239.56 127.15 2239.56 126.314 Q2239.56 123.97 2241.33 122.1 Q2243.12 120.231 2245.84 120.231 Q2248.92 120.231 2250.94 122.068 Q2252.97 123.888 2252.97 126.74 Q2252.97 127.741 2252.66 128.659 Q2252.37 129.561 2251.96 130.266 Q2251.56 130.971 2250.48 132.102 Q2249.4 133.233 2248.53 134.037 Q2247.66 134.84 2245.71 136.545 L2242.15 140.005 L2248.2 140.005 Q2251.15 140.005 2251.38 139.742 Q2251.71 139.267 2252.12 136.758 L2252.97 136.758 L2252.02 142.595 L2239.56 142.595 Z" fill="#000000" fill-rule="nonzero" fill-opacity="1" /><polyline clip-path="url(#clip120)" style="stroke:#ff0000; stroke-linecap:round; stroke-linejoin:round; stroke-width:4; stroke-opacity:1; fill:none" stroke-dasharray="16, 10" points="1768.7,196.789 1910.89,196.789 "/>
<path clip-path="url(#clip120)" d="M1959.65 184.548 Q1959.65 187.968 1957.92 191.271 Q1956.21 194.573 1953.51 196.611 Q1950.82 198.625 1948.08 198.625 Q1946.44 198.625 1945.34 197.735 Q1944.26 196.822 1943.68 195.534 Q1943.23 197.126 1942.27 200.944 Q1941.31 204.762 1941.31 205.137 Q1941.31 205.348 1941.36 205.441 Q1941.4 205.535 1941.62 205.652 Q1941.83 205.793 1942.34 205.839 Q1942.86 205.91 1943.72 205.91 Q1944.17 205.91 1944.33 205.91 Q1944.52 205.933 1944.68 206.05 Q1944.87 206.167 1944.87 206.425 Q1944.87 207.385 1944 207.385 Q1943.23 207.385 1941.64 207.315 Q1940.05 207.245 1939.25 207.245 Q1938.57 207.245 1937.21 207.315 Q1935.85 207.385 1935.22 207.385 Q1934.59 207.385 1934.59 206.823 Q1934.59 206.495 1934.68 206.284 Q1934.75 206.097 1934.94 206.003 Q1935.13 205.933 1935.29 205.91 Q1935.43 205.91 1935.71 205.91 Q1936.79 205.91 1937.26 205.722 Q1937.73 205.558 1937.89 205.207 Q1938.08 204.879 1938.29 203.942 L1943.68 182.581 Q1944 181.152 1944 180.145 Q1944 178.88 1943.61 178.412 Q1943.21 177.943 1942.51 177.943 Q1941.29 177.943 1940.49 179.395 Q1939.69 180.848 1939.02 183.658 Q1938.8 184.431 1938.66 184.595 Q1938.55 184.759 1938.2 184.759 Q1937.61 184.736 1937.61 184.267 Q1937.61 184.15 1937.8 183.401 Q1937.99 182.628 1938.34 181.503 Q1938.71 180.356 1939.11 179.63 Q1939.34 179.138 1939.55 178.81 Q1939.77 178.482 1940.19 177.967 Q1940.63 177.451 1941.26 177.17 Q1941.9 176.889 1942.67 176.889 Q1944.17 176.889 1945.41 177.779 Q1946.65 178.669 1946.98 180.473 Q1948.31 178.904 1949.95 177.896 Q1951.59 176.889 1953.26 176.889 Q1956.02 176.889 1957.82 179.044 Q1959.65 181.176 1959.65 184.548 M1956.18 182.44 Q1956.18 180.309 1955.36 179.138 Q1954.57 177.943 1953.12 177.943 Q1951.31 177.943 1949.23 179.77 Q1947.17 181.503 1946.75 183.12 L1944.38 192.512 L1944.24 193.285 Q1944.24 193.426 1944.31 193.847 Q1944.4 194.245 1944.66 194.901 Q1944.94 195.557 1945.32 196.143 Q1945.71 196.705 1946.42 197.126 Q1947.14 197.548 1948.03 197.548 Q1949.46 197.548 1951.01 196.283 Q1952.58 195.018 1953.75 192.629 Q1954.47 191.083 1955.32 187.757 Q1956.18 184.408 1956.18 182.44 Z" fill="#000000" fill-rule="nonzero" fill-opacity="1" /><path clip-path="url(#clip120)" d="M1977.46 212.217 Q1977.59 212.365 1977.59 212.512 Q1977.59 212.66 1977.26 213.086 Q1976.95 213.513 1976.28 214.086 Q1975.6 214.66 1974.74 215.201 Q1973.87 215.742 1972.59 216.103 Q1971.31 216.48 1969.96 216.48 Q1967.46 216.48 1965.98 214.824 Q1964.52 213.168 1964.52 210.791 Q1964.52 208.479 1965.82 206.266 Q1967.11 204.036 1969.21 202.659 Q1971.31 201.265 1973.52 201.265 Q1975.28 201.265 1976.38 202.085 Q1977.47 202.905 1977.47 204.151 Q1977.47 205.118 1976.92 205.708 Q1976.36 206.299 1975.6 206.299 Q1975.08 206.299 1974.72 206.003 Q1974.36 205.692 1974.36 205.118 Q1974.36 204.38 1974.97 203.806 Q1975.19 203.577 1975.46 203.478 Q1975.74 203.364 1975.9 203.364 Q1976.06 203.347 1976.44 203.347 Q1976.1 202.708 1975.28 202.364 Q1974.47 202.003 1973.56 202.003 Q1972.19 202.003 1970.9 202.954 Q1969.6 203.888 1968.82 205.364 Q1968.03 206.807 1967.52 208.856 Q1967.01 210.889 1967.01 212.07 Q1967.01 213.693 1967.77 214.71 Q1968.52 215.726 1970.03 215.726 Q1970.33 215.726 1970.64 215.71 Q1970.96 215.693 1971.78 215.513 Q1972.62 215.333 1973.36 215.021 Q1974.1 214.71 1975.03 214.037 Q1975.98 213.349 1976.74 212.414 Q1977 212.07 1977.18 212.07 Q1977.33 212.07 1977.46 212.217 Z" fill="#000000" fill-rule="nonzero" fill-opacity="1" /></svg>
