<?xml version="1.0" encoding="utf-8"?>
<svg xmlns="http://www.w3.org/2000/svg" xmlns:xlink="http://www.w3.org/1999/xlink" width="600" height="400" viewBox="0 0 2400 1600">
<defs>
  <clipPath id="clip520">
    <rect x="0" y="0" width="2400" height="1600"/>
  </clipPath>
</defs>
<path clip-path="url(#clip520)" d="M0 1600 L2400 1600 L2400 0 L0 0  Z" fill="#ffffff" fill-rule="evenodd" fill-opacity="1"/>
<defs>
  <clipPath id="clip521">
    <rect x="480" y="0" width="1681" height="1600"/>
  </clipPath>
</defs>
<path clip-path="url(#clip520)" d="M249.542 1423.18 L2352.76 1423.18 L2352.76 47.2441 L249.542 47.2441  Z" fill="#ffffff" fill-rule="evenodd" fill-opacity="1"/>
<defs>
  <clipPath id="clip522">
    <rect x="249" y="47" width="2104" height="1377"/>
  </clipPath>
</defs>
<polyline clip-path="url(#clip522)" style="stroke:#000000; stroke-linecap:round; stroke-linejoin:round; stroke-width:2; stroke-opacity:0.1; fill:none" points="345.756,1423.18 345.756,47.2441 "/>
<polyline clip-path="url(#clip522)" style="stroke:#000000; stroke-linecap:round; stroke-linejoin:round; stroke-width:2; stroke-opacity:0.1; fill:none" points="522.896,1423.18 522.896,47.2441 "/>
<polyline clip-path="url(#clip522)" style="stroke:#000000; stroke-linecap:round; stroke-linejoin:round; stroke-width:2; stroke-opacity:0.1; fill:none" points="700.036,1423.18 700.036,47.2441 "/>
<polyline clip-path="url(#clip522)" style="stroke:#000000; stroke-linecap:round; stroke-linejoin:round; stroke-width:2; stroke-opacity:0.1; fill:none" points="877.176,1423.18 877.176,47.2441 "/>
<polyline clip-path="url(#clip522)" style="stroke:#000000; stroke-linecap:round; stroke-linejoin:round; stroke-width:2; stroke-opacity:0.1; fill:none" points="1054.32,1423.18 1054.32,47.2441 "/>
<polyline clip-path="url(#clip522)" style="stroke:#000000; stroke-linecap:round; stroke-linejoin:round; stroke-width:2; stroke-opacity:0.1; fill:none" points="1231.46,1423.18 1231.46,47.2441 "/>
<polyline clip-path="url(#clip522)" style="stroke:#000000; stroke-linecap:round; stroke-linejoin:round; stroke-width:2; stroke-opacity:0.1; fill:none" points="1408.59,1423.18 1408.59,47.2441 "/>
<polyline clip-path="url(#clip522)" style="stroke:#000000; stroke-linecap:round; stroke-linejoin:round; stroke-width:2; stroke-opacity:0.1; fill:none" points="1585.73,1423.18 1585.73,47.2441 "/>
<polyline clip-path="url(#clip522)" style="stroke:#000000; stroke-linecap:round; stroke-linejoin:round; stroke-width:2; stroke-opacity:0.1; fill:none" points="1762.87,1423.18 1762.87,47.2441 "/>
<polyline clip-path="url(#clip522)" style="stroke:#000000; stroke-linecap:round; stroke-linejoin:round; stroke-width:2; stroke-opacity:0.1; fill:none" points="1940.01,1423.18 1940.01,47.2441 "/>
<polyline clip-path="url(#clip522)" style="stroke:#000000; stroke-linecap:round; stroke-linejoin:round; stroke-width:2; stroke-opacity:0.1; fill:none" points="2117.15,1423.18 2117.15,47.2441 "/>
<polyline clip-path="url(#clip522)" style="stroke:#000000; stroke-linecap:round; stroke-linejoin:round; stroke-width:2; stroke-opacity:0.1; fill:none" points="2294.29,1423.18 2294.29,47.2441 "/>
<polyline clip-path="url(#clip522)" style="stroke:#000000; stroke-linecap:round; stroke-linejoin:round; stroke-width:2; stroke-opacity:0.1; fill:none" points="249.542,1384.24 2352.76,1384.24 "/>
<polyline clip-path="url(#clip522)" style="stroke:#000000; stroke-linecap:round; stroke-linejoin:round; stroke-width:2; stroke-opacity:0.1; fill:none" points="249.542,1051.67 2352.76,1051.67 "/>
<polyline clip-path="url(#clip522)" style="stroke:#000000; stroke-linecap:round; stroke-linejoin:round; stroke-width:2; stroke-opacity:0.1; fill:none" points="249.542,719.104 2352.76,719.104 "/>
<polyline clip-path="url(#clip522)" style="stroke:#000000; stroke-linecap:round; stroke-linejoin:round; stroke-width:2; stroke-opacity:0.1; fill:none" points="249.542,386.536 2352.76,386.536 "/>
<polyline clip-path="url(#clip522)" style="stroke:#000000; stroke-linecap:round; stroke-linejoin:round; stroke-width:2; stroke-opacity:0.1; fill:none" points="249.542,53.9685 2352.76,53.9685 "/>
<polyline clip-path="url(#clip520)" style="stroke:#000000; stroke-linecap:round; stroke-linejoin:round; stroke-width:4; stroke-opacity:1; fill:none" points="249.542,1423.18 2352.76,1423.18 "/>
<polyline clip-path="url(#clip520)" style="stroke:#000000; stroke-linecap:round; stroke-linejoin:round; stroke-width:4; stroke-opacity:1; fill:none" points="345.756,1423.18 345.756,1404.28 "/>
<polyline clip-path="url(#clip520)" style="stroke:#000000; stroke-linecap:round; stroke-linejoin:round; stroke-width:4; stroke-opacity:1; fill:none" points="522.896,1423.18 522.896,1404.28 "/>
<polyline clip-path="url(#clip520)" style="stroke:#000000; stroke-linecap:round; stroke-linejoin:round; stroke-width:4; stroke-opacity:1; fill:none" points="700.036,1423.18 700.036,1404.28 "/>
<polyline clip-path="url(#clip520)" style="stroke:#000000; stroke-linecap:round; stroke-linejoin:round; stroke-width:4; stroke-opacity:1; fill:none" points="877.176,1423.18 877.176,1404.28 "/>
<polyline clip-path="url(#clip520)" style="stroke:#000000; stroke-linecap:round; stroke-linejoin:round; stroke-width:4; stroke-opacity:1; fill:none" points="1054.32,1423.18 1054.32,1404.28 "/>
<polyline clip-path="url(#clip520)" style="stroke:#000000; stroke-linecap:round; stroke-linejoin:round; stroke-width:4; stroke-opacity:1; fill:none" points="1231.46,1423.18 1231.46,1404.28 "/>
<polyline clip-path="url(#clip520)" style="stroke:#000000; stroke-linecap:round; stroke-linejoin:round; stroke-width:4; stroke-opacity:1; fill:none" points="1408.59,1423.18 1408.59,1404.28 "/>
<polyline clip-path="url(#clip520)" style="stroke:#000000; stroke-linecap:round; stroke-linejoin:round; stroke-width:4; stroke-opacity:1; fill:none" points="1585.73,1423.18 1585.73,1404.28 "/>
<polyline clip-path="url(#clip520)" style="stroke:#000000; stroke-linecap:round; stroke-linejoin:round; stroke-width:4; stroke-opacity:1; fill:none" points="1762.87,1423.18 1762.87,1404.28 "/>
<polyline clip-path="url(#clip520)" style="stroke:#000000; stroke-linecap:round; stroke-linejoin:round; stroke-width:4; stroke-opacity:1; fill:none" points="1940.01,1423.18 1940.01,1404.28 "/>
<polyline clip-path="url(#clip520)" style="stroke:#000000; stroke-linecap:round; stroke-linejoin:round; stroke-width:4; stroke-opacity:1; fill:none" points="2117.15,1423.18 2117.15,1404.28 "/>
<polyline clip-path="url(#clip520)" style="stroke:#000000; stroke-linecap:round; stroke-linejoin:round; stroke-width:4; stroke-opacity:1; fill:none" points="2294.29,1423.18 2294.29,1404.28 "/>
<path clip-path="url(#clip520)" d="M293.476 1454.1 Q289.865 1454.1 288.037 1457.66 Q286.231 1461.2 286.231 1468.33 Q286.231 1475.44 288.037 1479.01 Q289.865 1482.55 293.476 1482.55 Q297.111 1482.55 298.916 1479.01 Q300.745 1475.44 300.745 1468.33 Q300.745 1461.2 298.916 1457.66 Q297.111 1454.1 293.476 1454.1 M293.476 1450.39 Q299.287 1450.39 302.342 1455 Q305.421 1459.58 305.421 1468.33 Q305.421 1477.06 302.342 1481.67 Q299.287 1486.25 293.476 1486.25 Q287.666 1486.25 284.588 1481.67 Q281.532 1477.06 281.532 1468.33 Q281.532 1459.58 284.588 1455 Q287.666 1450.39 293.476 1450.39 Z" fill="#000000" fill-rule="nonzero" fill-opacity="1" /><path clip-path="url(#clip520)" d="M313.638 1479.7 L318.523 1479.7 L318.523 1485.58 L313.638 1485.58 L313.638 1479.7 Z" fill="#000000" fill-rule="nonzero" fill-opacity="1" /><path clip-path="url(#clip520)" d="M339.286 1466.44 Q336.138 1466.44 334.286 1468.59 Q332.458 1470.74 332.458 1474.49 Q332.458 1478.22 334.286 1480.39 Q336.138 1482.55 339.286 1482.55 Q342.435 1482.55 344.263 1480.39 Q346.115 1478.22 346.115 1474.49 Q346.115 1470.74 344.263 1468.59 Q342.435 1466.44 339.286 1466.44 M348.569 1451.78 L348.569 1456.04 Q346.81 1455.21 345.004 1454.77 Q343.222 1454.33 341.462 1454.33 Q336.833 1454.33 334.379 1457.45 Q331.948 1460.58 331.601 1466.9 Q332.967 1464.89 335.027 1463.82 Q337.087 1462.73 339.564 1462.73 Q344.772 1462.73 347.782 1465.9 Q350.814 1469.05 350.814 1474.49 Q350.814 1479.82 347.666 1483.03 Q344.518 1486.25 339.286 1486.25 Q333.291 1486.25 330.12 1481.67 Q326.949 1477.06 326.949 1468.33 Q326.949 1460.14 330.837 1455.28 Q334.726 1450.39 341.277 1450.39 Q343.036 1450.39 344.819 1450.74 Q346.624 1451.09 348.569 1451.78 Z" fill="#000000" fill-rule="nonzero" fill-opacity="1" /><path clip-path="url(#clip520)" d="M371.717 1455.09 L359.911 1473.54 L371.717 1473.54 L371.717 1455.09 M370.49 1451.02 L376.37 1451.02 L376.37 1473.54 L381.3 1473.54 L381.3 1477.43 L376.37 1477.43 L376.37 1485.58 L371.717 1485.58 L371.717 1477.43 L356.115 1477.43 L356.115 1472.92 L370.49 1451.02 Z" fill="#000000" fill-rule="nonzero" fill-opacity="1" /><path clip-path="url(#clip520)" d="M389.078 1451.02 L407.434 1451.02 L407.434 1454.96 L393.36 1454.96 L393.36 1463.43 Q394.379 1463.08 395.397 1462.92 Q396.416 1462.73 397.434 1462.73 Q403.221 1462.73 406.601 1465.9 Q409.98 1469.08 409.98 1474.49 Q409.98 1480.07 406.508 1483.17 Q403.036 1486.25 396.717 1486.25 Q394.541 1486.25 392.272 1485.88 Q390.027 1485.51 387.619 1484.77 L387.619 1480.07 Q389.703 1481.2 391.925 1481.76 Q394.147 1482.32 396.624 1482.32 Q400.629 1482.32 402.967 1480.21 Q405.305 1478.1 405.305 1474.49 Q405.305 1470.88 402.967 1468.77 Q400.629 1466.67 396.624 1466.67 Q394.749 1466.67 392.874 1467.08 Q391.022 1467.5 389.078 1468.38 L389.078 1451.02 Z" fill="#000000" fill-rule="nonzero" fill-opacity="1" /><path clip-path="url(#clip520)" d="M470.119 1454.1 Q466.507 1454.1 464.679 1457.66 Q462.873 1461.2 462.873 1468.33 Q462.873 1475.44 464.679 1479.01 Q466.507 1482.55 470.119 1482.55 Q473.753 1482.55 475.558 1479.01 Q477.387 1475.44 477.387 1468.33 Q477.387 1461.2 475.558 1457.66 Q473.753 1454.1 470.119 1454.1 M470.119 1450.39 Q475.929 1450.39 478.984 1455 Q482.063 1459.58 482.063 1468.33 Q482.063 1477.06 478.984 1481.67 Q475.929 1486.25 470.119 1486.25 Q464.308 1486.25 461.23 1481.67 Q458.174 1477.06 458.174 1468.33 Q458.174 1459.58 461.23 1455 Q464.308 1450.39 470.119 1450.39 Z" fill="#000000" fill-rule="nonzero" fill-opacity="1" /><path clip-path="url(#clip520)" d="M490.28 1479.7 L495.165 1479.7 L495.165 1485.58 L490.28 1485.58 L490.28 1479.7 Z" fill="#000000" fill-rule="nonzero" fill-opacity="1" /><path clip-path="url(#clip520)" d="M515.929 1466.44 Q512.78 1466.44 510.929 1468.59 Q509.1 1470.74 509.1 1474.49 Q509.1 1478.22 510.929 1480.39 Q512.78 1482.55 515.929 1482.55 Q519.077 1482.55 520.905 1480.39 Q522.757 1478.22 522.757 1474.49 Q522.757 1470.74 520.905 1468.59 Q519.077 1466.44 515.929 1466.44 M525.211 1451.78 L525.211 1456.04 Q523.452 1455.21 521.646 1454.77 Q519.864 1454.33 518.104 1454.33 Q513.475 1454.33 511.021 1457.45 Q508.591 1460.58 508.243 1466.9 Q509.609 1464.89 511.669 1463.82 Q513.729 1462.73 516.206 1462.73 Q521.415 1462.73 524.424 1465.9 Q527.456 1469.05 527.456 1474.49 Q527.456 1479.82 524.308 1483.03 Q521.16 1486.25 515.929 1486.25 Q509.933 1486.25 506.762 1481.67 Q503.591 1477.06 503.591 1468.33 Q503.591 1460.14 507.479 1455.28 Q511.368 1450.39 517.919 1450.39 Q519.678 1450.39 521.461 1450.74 Q523.266 1451.09 525.211 1451.78 Z" fill="#000000" fill-rule="nonzero" fill-opacity="1" /><path clip-path="url(#clip520)" d="M535.558 1451.02 L553.914 1451.02 L553.914 1454.96 L539.84 1454.96 L539.84 1463.43 Q540.859 1463.08 541.877 1462.92 Q542.896 1462.73 543.914 1462.73 Q549.701 1462.73 553.081 1465.9 Q556.461 1469.08 556.461 1474.49 Q556.461 1480.07 552.988 1483.17 Q549.516 1486.25 543.197 1486.25 Q541.021 1486.25 538.752 1485.88 Q536.507 1485.51 534.1 1484.77 L534.1 1480.07 Q536.183 1481.2 538.405 1481.76 Q540.627 1482.32 543.104 1482.32 Q547.109 1482.32 549.447 1480.21 Q551.785 1478.1 551.785 1474.49 Q551.785 1470.88 549.447 1468.77 Q547.109 1466.67 543.104 1466.67 Q541.229 1466.67 539.354 1467.08 Q537.502 1467.5 535.558 1468.38 L535.558 1451.02 Z" fill="#000000" fill-rule="nonzero" fill-opacity="1" /><path clip-path="url(#clip520)" d="M575.674 1454.1 Q572.062 1454.1 570.234 1457.66 Q568.428 1461.2 568.428 1468.33 Q568.428 1475.44 570.234 1479.01 Q572.062 1482.55 575.674 1482.55 Q579.308 1482.55 581.113 1479.01 Q582.942 1475.44 582.942 1468.33 Q582.942 1461.2 581.113 1457.66 Q579.308 1454.1 575.674 1454.1 M575.674 1450.39 Q581.484 1450.39 584.539 1455 Q587.618 1459.58 587.618 1468.33 Q587.618 1477.06 584.539 1481.67 Q581.484 1486.25 575.674 1486.25 Q569.863 1486.25 566.785 1481.67 Q563.729 1477.06 563.729 1468.33 Q563.729 1459.58 566.785 1455 Q569.863 1450.39 575.674 1450.39 Z" fill="#000000" fill-rule="nonzero" fill-opacity="1" /><path clip-path="url(#clip520)" d="M647.756 1454.1 Q644.145 1454.1 642.316 1457.66 Q640.511 1461.2 640.511 1468.33 Q640.511 1475.44 642.316 1479.01 Q644.145 1482.55 647.756 1482.55 Q651.39 1482.55 653.196 1479.01 Q655.025 1475.44 655.025 1468.33 Q655.025 1461.2 653.196 1457.66 Q651.39 1454.1 647.756 1454.1 M647.756 1450.39 Q653.566 1450.39 656.622 1455 Q659.7 1459.58 659.7 1468.33 Q659.7 1477.06 656.622 1481.67 Q653.566 1486.25 647.756 1486.25 Q641.946 1486.25 638.867 1481.67 Q635.812 1477.06 635.812 1468.33 Q635.812 1459.58 638.867 1455 Q641.946 1450.39 647.756 1450.39 Z" fill="#000000" fill-rule="nonzero" fill-opacity="1" /><path clip-path="url(#clip520)" d="M667.918 1479.7 L672.802 1479.7 L672.802 1485.58 L667.918 1485.58 L667.918 1479.7 Z" fill="#000000" fill-rule="nonzero" fill-opacity="1" /><path clip-path="url(#clip520)" d="M693.566 1466.44 Q690.418 1466.44 688.566 1468.59 Q686.737 1470.74 686.737 1474.49 Q686.737 1478.22 688.566 1480.39 Q690.418 1482.55 693.566 1482.55 Q696.714 1482.55 698.543 1480.39 Q700.395 1478.22 700.395 1474.49 Q700.395 1470.74 698.543 1468.59 Q696.714 1466.44 693.566 1466.44 M702.848 1451.78 L702.848 1456.04 Q701.089 1455.21 699.284 1454.77 Q697.501 1454.33 695.742 1454.33 Q691.112 1454.33 688.659 1457.45 Q686.228 1460.58 685.881 1466.9 Q687.247 1464.89 689.307 1463.82 Q691.367 1462.73 693.844 1462.73 Q699.052 1462.73 702.061 1465.9 Q705.094 1469.05 705.094 1474.49 Q705.094 1479.82 701.946 1483.03 Q698.797 1486.25 693.566 1486.25 Q687.571 1486.25 684.399 1481.67 Q681.228 1477.06 681.228 1468.33 Q681.228 1460.14 685.117 1455.28 Q689.006 1450.39 695.557 1450.39 Q697.316 1450.39 699.098 1450.74 Q700.904 1451.09 702.848 1451.78 Z" fill="#000000" fill-rule="nonzero" fill-opacity="1" /><path clip-path="url(#clip520)" d="M713.195 1451.02 L731.552 1451.02 L731.552 1454.96 L717.478 1454.96 L717.478 1463.43 Q718.496 1463.08 719.515 1462.92 Q720.533 1462.73 721.552 1462.73 Q727.339 1462.73 730.719 1465.9 Q734.098 1469.08 734.098 1474.49 Q734.098 1480.07 730.626 1483.17 Q727.154 1486.25 720.834 1486.25 Q718.658 1486.25 716.39 1485.88 Q714.145 1485.51 711.737 1484.77 L711.737 1480.07 Q713.82 1481.2 716.043 1481.76 Q718.265 1482.32 720.742 1482.32 Q724.746 1482.32 727.084 1480.21 Q729.422 1478.1 729.422 1474.49 Q729.422 1470.88 727.084 1468.77 Q724.746 1466.67 720.742 1466.67 Q718.867 1466.67 716.992 1467.08 Q715.14 1467.5 713.195 1468.38 L713.195 1451.02 Z" fill="#000000" fill-rule="nonzero" fill-opacity="1" /><path clip-path="url(#clip520)" d="M743.357 1451.02 L761.714 1451.02 L761.714 1454.96 L747.64 1454.96 L747.64 1463.43 Q748.658 1463.08 749.677 1462.92 Q750.695 1462.73 751.714 1462.73 Q757.501 1462.73 760.88 1465.9 Q764.26 1469.08 764.26 1474.49 Q764.26 1480.07 760.788 1483.17 Q757.316 1486.25 750.996 1486.25 Q748.82 1486.25 746.552 1485.88 Q744.306 1485.51 741.899 1484.77 L741.899 1480.07 Q743.982 1481.2 746.205 1481.76 Q748.427 1482.32 750.904 1482.32 Q754.908 1482.32 757.246 1480.21 Q759.584 1478.1 759.584 1474.49 Q759.584 1470.88 757.246 1468.77 Q754.908 1466.67 750.904 1466.67 Q749.029 1466.67 747.154 1467.08 Q745.302 1467.5 743.357 1468.38 L743.357 1451.02 Z" fill="#000000" fill-rule="nonzero" fill-opacity="1" /><path clip-path="url(#clip520)" d="M824.398 1454.1 Q820.787 1454.1 818.958 1457.66 Q817.153 1461.2 817.153 1468.33 Q817.153 1475.44 818.958 1479.01 Q820.787 1482.55 824.398 1482.55 Q828.032 1482.55 829.838 1479.01 Q831.667 1475.44 831.667 1468.33 Q831.667 1461.2 829.838 1457.66 Q828.032 1454.1 824.398 1454.1 M824.398 1450.39 Q830.208 1450.39 833.264 1455 Q836.343 1459.58 836.343 1468.33 Q836.343 1477.06 833.264 1481.67 Q830.208 1486.25 824.398 1486.25 Q818.588 1486.25 815.509 1481.67 Q812.454 1477.06 812.454 1468.33 Q812.454 1459.58 815.509 1455 Q818.588 1450.39 824.398 1450.39 Z" fill="#000000" fill-rule="nonzero" fill-opacity="1" /><path clip-path="url(#clip520)" d="M844.56 1479.7 L849.444 1479.7 L849.444 1485.58 L844.56 1485.58 L844.56 1479.7 Z" fill="#000000" fill-rule="nonzero" fill-opacity="1" /><path clip-path="url(#clip520)" d="M870.208 1466.44 Q867.06 1466.44 865.208 1468.59 Q863.379 1470.74 863.379 1474.49 Q863.379 1478.22 865.208 1480.39 Q867.06 1482.55 870.208 1482.55 Q873.356 1482.55 875.185 1480.39 Q877.037 1478.22 877.037 1474.49 Q877.037 1470.74 875.185 1468.59 Q873.356 1466.44 870.208 1466.44 M879.49 1451.78 L879.49 1456.04 Q877.731 1455.21 875.926 1454.77 Q874.143 1454.33 872.384 1454.33 Q867.754 1454.33 865.301 1457.45 Q862.87 1460.58 862.523 1466.9 Q863.889 1464.89 865.949 1463.82 Q868.009 1462.73 870.486 1462.73 Q875.694 1462.73 878.703 1465.9 Q881.736 1469.05 881.736 1474.49 Q881.736 1479.82 878.588 1483.03 Q875.44 1486.25 870.208 1486.25 Q864.213 1486.25 861.041 1481.67 Q857.87 1477.06 857.87 1468.33 Q857.87 1460.14 861.759 1455.28 Q865.648 1450.39 872.199 1450.39 Q873.958 1450.39 875.74 1450.74 Q877.546 1451.09 879.49 1451.78 Z" fill="#000000" fill-rule="nonzero" fill-opacity="1" /><path clip-path="url(#clip520)" d="M900.37 1466.44 Q897.222 1466.44 895.37 1468.59 Q893.541 1470.74 893.541 1474.49 Q893.541 1478.22 895.37 1480.39 Q897.222 1482.55 900.37 1482.55 Q903.518 1482.55 905.347 1480.39 Q907.199 1478.22 907.199 1474.49 Q907.199 1470.74 905.347 1468.59 Q903.518 1466.44 900.37 1466.44 M909.652 1451.78 L909.652 1456.04 Q907.893 1455.21 906.088 1454.77 Q904.305 1454.33 902.546 1454.33 Q897.916 1454.33 895.463 1457.45 Q893.032 1460.58 892.685 1466.9 Q894.051 1464.89 896.111 1463.82 Q898.171 1462.73 900.648 1462.73 Q905.856 1462.73 908.865 1465.9 Q911.898 1469.05 911.898 1474.49 Q911.898 1479.82 908.75 1483.03 Q905.601 1486.25 900.37 1486.25 Q894.375 1486.25 891.203 1481.67 Q888.032 1477.06 888.032 1468.33 Q888.032 1460.14 891.921 1455.28 Q895.81 1450.39 902.361 1450.39 Q904.12 1450.39 905.902 1450.74 Q907.708 1451.09 909.652 1451.78 Z" fill="#000000" fill-rule="nonzero" fill-opacity="1" /><path clip-path="url(#clip520)" d="M929.953 1454.1 Q926.342 1454.1 924.513 1457.66 Q922.708 1461.2 922.708 1468.33 Q922.708 1475.44 924.513 1479.01 Q926.342 1482.55 929.953 1482.55 Q933.587 1482.55 935.393 1479.01 Q937.222 1475.44 937.222 1468.33 Q937.222 1461.2 935.393 1457.66 Q933.587 1454.1 929.953 1454.1 M929.953 1450.39 Q935.763 1450.39 938.819 1455 Q941.898 1459.58 941.898 1468.33 Q941.898 1477.06 938.819 1481.67 Q935.763 1486.25 929.953 1486.25 Q924.143 1486.25 921.064 1481.67 Q918.009 1477.06 918.009 1468.33 Q918.009 1459.58 921.064 1455 Q924.143 1450.39 929.953 1450.39 Z" fill="#000000" fill-rule="nonzero" fill-opacity="1" /><path clip-path="url(#clip520)" d="M1002.04 1454.1 Q998.425 1454.1 996.596 1457.66 Q994.79 1461.2 994.79 1468.33 Q994.79 1475.44 996.596 1479.01 Q998.425 1482.55 1002.04 1482.55 Q1005.67 1482.55 1007.48 1479.01 Q1009.3 1475.44 1009.3 1468.33 Q1009.3 1461.2 1007.48 1457.66 Q1005.67 1454.1 1002.04 1454.1 M1002.04 1450.39 Q1007.85 1450.39 1010.9 1455 Q1013.98 1459.58 1013.98 1468.33 Q1013.98 1477.06 1010.9 1481.67 Q1007.85 1486.25 1002.04 1486.25 Q996.225 1486.25 993.147 1481.67 Q990.091 1477.06 990.091 1468.33 Q990.091 1459.58 993.147 1455 Q996.225 1450.39 1002.04 1450.39 Z" fill="#000000" fill-rule="nonzero" fill-opacity="1" /><path clip-path="url(#clip520)" d="M1022.2 1479.7 L1027.08 1479.7 L1027.08 1485.58 L1022.2 1485.58 L1022.2 1479.7 Z" fill="#000000" fill-rule="nonzero" fill-opacity="1" /><path clip-path="url(#clip520)" d="M1047.85 1466.44 Q1044.7 1466.44 1042.85 1468.59 Q1041.02 1470.74 1041.02 1474.49 Q1041.02 1478.22 1042.85 1480.39 Q1044.7 1482.55 1047.85 1482.55 Q1050.99 1482.55 1052.82 1480.39 Q1054.67 1478.22 1054.67 1474.49 Q1054.67 1470.74 1052.82 1468.59 Q1050.99 1466.44 1047.85 1466.44 M1057.13 1451.78 L1057.13 1456.04 Q1055.37 1455.21 1053.56 1454.77 Q1051.78 1454.33 1050.02 1454.33 Q1045.39 1454.33 1042.94 1457.45 Q1040.51 1460.58 1040.16 1466.9 Q1041.53 1464.89 1043.59 1463.82 Q1045.65 1462.73 1048.12 1462.73 Q1053.33 1462.73 1056.34 1465.9 Q1059.37 1469.05 1059.37 1474.49 Q1059.37 1479.82 1056.23 1483.03 Q1053.08 1486.25 1047.85 1486.25 Q1041.85 1486.25 1038.68 1481.67 Q1035.51 1477.06 1035.51 1468.33 Q1035.51 1460.14 1039.4 1455.28 Q1043.29 1450.39 1049.84 1450.39 Q1051.6 1450.39 1053.38 1450.74 Q1055.18 1451.09 1057.13 1451.78 Z" fill="#000000" fill-rule="nonzero" fill-opacity="1" /><path clip-path="url(#clip520)" d="M1078.01 1466.44 Q1074.86 1466.44 1073.01 1468.59 Q1071.18 1470.74 1071.18 1474.49 Q1071.18 1478.22 1073.01 1480.39 Q1074.86 1482.55 1078.01 1482.55 Q1081.16 1482.55 1082.98 1480.39 Q1084.84 1478.22 1084.84 1474.49 Q1084.84 1470.74 1082.98 1468.59 Q1081.16 1466.44 1078.01 1466.44 M1087.29 1451.78 L1087.29 1456.04 Q1085.53 1455.21 1083.72 1454.77 Q1081.94 1454.33 1080.18 1454.33 Q1075.55 1454.33 1073.1 1457.45 Q1070.67 1460.58 1070.32 1466.9 Q1071.69 1464.89 1073.75 1463.82 Q1075.81 1462.73 1078.29 1462.73 Q1083.49 1462.73 1086.5 1465.9 Q1089.54 1469.05 1089.54 1474.49 Q1089.54 1479.82 1086.39 1483.03 Q1083.24 1486.25 1078.01 1486.25 Q1072.01 1486.25 1068.84 1481.67 Q1065.67 1477.06 1065.67 1468.33 Q1065.67 1460.14 1069.56 1455.28 Q1073.45 1450.39 1080 1450.39 Q1081.76 1450.39 1083.54 1450.74 Q1085.35 1451.09 1087.29 1451.78 Z" fill="#000000" fill-rule="nonzero" fill-opacity="1" /><path clip-path="url(#clip520)" d="M1097.64 1451.02 L1115.99 1451.02 L1115.99 1454.96 L1101.92 1454.96 L1101.92 1463.43 Q1102.94 1463.08 1103.96 1462.92 Q1104.97 1462.73 1105.99 1462.73 Q1111.78 1462.73 1115.16 1465.9 Q1118.54 1469.08 1118.54 1474.49 Q1118.54 1480.07 1115.07 1483.17 Q1111.6 1486.25 1105.28 1486.25 Q1103.1 1486.25 1100.83 1485.88 Q1098.59 1485.51 1096.18 1484.77 L1096.18 1480.07 Q1098.26 1481.2 1100.48 1481.76 Q1102.71 1482.32 1105.18 1482.32 Q1109.19 1482.32 1111.53 1480.21 Q1113.86 1478.1 1113.86 1474.49 Q1113.86 1470.88 1111.53 1468.77 Q1109.19 1466.67 1105.18 1466.67 Q1103.31 1466.67 1101.43 1467.08 Q1099.58 1467.5 1097.64 1468.38 L1097.64 1451.02 Z" fill="#000000" fill-rule="nonzero" fill-opacity="1" /><path clip-path="url(#clip520)" d="M1178.68 1454.1 Q1175.07 1454.1 1173.24 1457.66 Q1171.43 1461.2 1171.43 1468.33 Q1171.43 1475.44 1173.24 1479.01 Q1175.07 1482.55 1178.68 1482.55 Q1182.31 1482.55 1184.12 1479.01 Q1185.95 1475.44 1185.95 1468.33 Q1185.95 1461.2 1184.12 1457.66 Q1182.31 1454.1 1178.68 1454.1 M1178.68 1450.39 Q1184.49 1450.39 1187.54 1455 Q1190.62 1459.58 1190.62 1468.33 Q1190.62 1477.06 1187.54 1481.67 Q1184.49 1486.25 1178.68 1486.25 Q1172.87 1486.25 1169.79 1481.67 Q1166.73 1477.06 1166.73 1468.33 Q1166.73 1459.58 1169.79 1455 Q1172.87 1450.39 1178.68 1450.39 Z" fill="#000000" fill-rule="nonzero" fill-opacity="1" /><path clip-path="url(#clip520)" d="M1198.84 1479.7 L1203.72 1479.7 L1203.72 1485.58 L1198.84 1485.58 L1198.84 1479.7 Z" fill="#000000" fill-rule="nonzero" fill-opacity="1" /><path clip-path="url(#clip520)" d="M1224.49 1466.44 Q1221.34 1466.44 1219.49 1468.59 Q1217.66 1470.74 1217.66 1474.49 Q1217.66 1478.22 1219.49 1480.39 Q1221.34 1482.55 1224.49 1482.55 Q1227.64 1482.55 1229.46 1480.39 Q1231.32 1478.22 1231.32 1474.49 Q1231.32 1470.74 1229.46 1468.59 Q1227.64 1466.44 1224.49 1466.44 M1233.77 1451.78 L1233.77 1456.04 Q1232.01 1455.21 1230.21 1454.77 Q1228.42 1454.33 1226.66 1454.33 Q1222.03 1454.33 1219.58 1457.45 Q1217.15 1460.58 1216.8 1466.9 Q1218.17 1464.89 1220.23 1463.82 Q1222.29 1462.73 1224.77 1462.73 Q1229.97 1462.73 1232.98 1465.9 Q1236.02 1469.05 1236.02 1474.49 Q1236.02 1479.82 1232.87 1483.03 Q1229.72 1486.25 1224.49 1486.25 Q1218.49 1486.25 1215.32 1481.67 Q1212.15 1477.06 1212.15 1468.33 Q1212.15 1460.14 1216.04 1455.28 Q1219.93 1450.39 1226.48 1450.39 Q1228.24 1450.39 1230.02 1450.74 Q1231.83 1451.09 1233.77 1451.78 Z" fill="#000000" fill-rule="nonzero" fill-opacity="1" /><path clip-path="url(#clip520)" d="M1242.89 1451.02 L1265.11 1451.02 L1265.11 1453.01 L1252.57 1485.58 L1247.68 1485.58 L1259.49 1454.96 L1242.89 1454.96 L1242.89 1451.02 Z" fill="#000000" fill-rule="nonzero" fill-opacity="1" /><path clip-path="url(#clip520)" d="M1284.23 1454.1 Q1280.62 1454.1 1278.79 1457.66 Q1276.99 1461.2 1276.99 1468.33 Q1276.99 1475.44 1278.79 1479.01 Q1280.62 1482.55 1284.23 1482.55 Q1287.87 1482.55 1289.67 1479.01 Q1291.5 1475.44 1291.5 1468.33 Q1291.5 1461.2 1289.67 1457.66 Q1287.87 1454.1 1284.23 1454.1 M1284.23 1450.39 Q1290.04 1450.39 1293.1 1455 Q1296.18 1459.58 1296.18 1468.33 Q1296.18 1477.06 1293.1 1481.67 Q1290.04 1486.25 1284.23 1486.25 Q1278.42 1486.25 1275.34 1481.67 Q1272.29 1477.06 1272.29 1468.33 Q1272.29 1459.58 1275.34 1455 Q1278.42 1450.39 1284.23 1450.39 Z" fill="#000000" fill-rule="nonzero" fill-opacity="1" /><path clip-path="url(#clip520)" d="M1356.32 1454.1 Q1352.7 1454.1 1350.88 1457.66 Q1349.07 1461.2 1349.07 1468.33 Q1349.07 1475.44 1350.88 1479.01 Q1352.7 1482.55 1356.32 1482.55 Q1359.95 1482.55 1361.75 1479.01 Q1363.58 1475.44 1363.58 1468.33 Q1363.58 1461.2 1361.75 1457.66 Q1359.95 1454.1 1356.32 1454.1 M1356.32 1450.39 Q1362.13 1450.39 1365.18 1455 Q1368.26 1459.58 1368.26 1468.33 Q1368.26 1477.06 1365.18 1481.67 Q1362.13 1486.25 1356.32 1486.25 Q1350.51 1486.25 1347.43 1481.67 Q1344.37 1477.06 1344.37 1468.33 Q1344.37 1459.58 1347.43 1455 Q1350.51 1450.39 1356.32 1450.39 Z" fill="#000000" fill-rule="nonzero" fill-opacity="1" /><path clip-path="url(#clip520)" d="M1376.48 1479.7 L1381.36 1479.7 L1381.36 1485.58 L1376.48 1485.58 L1376.48 1479.7 Z" fill="#000000" fill-rule="nonzero" fill-opacity="1" /><path clip-path="url(#clip520)" d="M1402.13 1466.44 Q1398.98 1466.44 1397.13 1468.59 Q1395.3 1470.74 1395.3 1474.49 Q1395.3 1478.22 1397.13 1480.39 Q1398.98 1482.55 1402.13 1482.55 Q1405.27 1482.55 1407.1 1480.39 Q1408.95 1478.22 1408.95 1474.49 Q1408.95 1470.74 1407.1 1468.59 Q1405.27 1466.44 1402.13 1466.44 M1411.41 1451.78 L1411.41 1456.04 Q1409.65 1455.21 1407.84 1454.77 Q1406.06 1454.33 1404.3 1454.33 Q1399.67 1454.33 1397.22 1457.45 Q1394.79 1460.58 1394.44 1466.9 Q1395.81 1464.89 1397.87 1463.82 Q1399.93 1462.73 1402.4 1462.73 Q1407.61 1462.73 1410.62 1465.9 Q1413.65 1469.05 1413.65 1474.49 Q1413.65 1479.82 1410.5 1483.03 Q1407.36 1486.25 1402.13 1486.25 Q1396.13 1486.25 1392.96 1481.67 Q1389.79 1477.06 1389.79 1468.33 Q1389.79 1460.14 1393.68 1455.28 Q1397.56 1450.39 1404.12 1450.39 Q1405.88 1450.39 1407.66 1450.74 Q1409.46 1451.09 1411.41 1451.78 Z" fill="#000000" fill-rule="nonzero" fill-opacity="1" /><path clip-path="url(#clip520)" d="M1420.53 1451.02 L1442.75 1451.02 L1442.75 1453.01 L1430.2 1485.58 L1425.32 1485.58 L1437.12 1454.96 L1420.53 1454.96 L1420.53 1451.02 Z" fill="#000000" fill-rule="nonzero" fill-opacity="1" /><path clip-path="url(#clip520)" d="M1451.92 1451.02 L1470.27 1451.02 L1470.27 1454.96 L1456.2 1454.96 L1456.2 1463.43 Q1457.22 1463.08 1458.24 1462.92 Q1459.25 1462.73 1460.27 1462.73 Q1466.06 1462.73 1469.44 1465.9 Q1472.82 1469.08 1472.82 1474.49 Q1472.82 1480.07 1469.35 1483.17 Q1465.87 1486.25 1459.56 1486.25 Q1457.38 1486.25 1455.11 1485.88 Q1452.87 1485.51 1450.46 1484.77 L1450.46 1480.07 Q1452.54 1481.2 1454.76 1481.76 Q1456.99 1482.32 1459.46 1482.32 Q1463.47 1482.32 1465.81 1480.21 Q1468.14 1478.1 1468.14 1474.49 Q1468.14 1470.88 1465.81 1468.77 Q1463.47 1466.67 1459.46 1466.67 Q1457.59 1466.67 1455.71 1467.08 Q1453.86 1467.5 1451.92 1468.38 L1451.92 1451.02 Z" fill="#000000" fill-rule="nonzero" fill-opacity="1" /><path clip-path="url(#clip520)" d="M1532.96 1454.1 Q1529.35 1454.1 1527.52 1457.66 Q1525.71 1461.2 1525.71 1468.33 Q1525.71 1475.44 1527.52 1479.01 Q1529.35 1482.55 1532.96 1482.55 Q1536.59 1482.55 1538.4 1479.01 Q1540.23 1475.44 1540.23 1468.33 Q1540.23 1461.2 1538.4 1457.66 Q1536.59 1454.1 1532.96 1454.1 M1532.96 1450.39 Q1538.77 1450.39 1541.82 1455 Q1544.9 1459.58 1544.9 1468.33 Q1544.9 1477.06 1541.82 1481.67 Q1538.77 1486.25 1532.96 1486.25 Q1527.15 1486.25 1524.07 1481.67 Q1521.01 1477.06 1521.01 1468.33 Q1521.01 1459.58 1524.07 1455 Q1527.15 1450.39 1532.96 1450.39 Z" fill="#000000" fill-rule="nonzero" fill-opacity="1" /><path clip-path="url(#clip520)" d="M1553.12 1479.7 L1558 1479.7 L1558 1485.58 L1553.12 1485.58 L1553.12 1479.7 Z" fill="#000000" fill-rule="nonzero" fill-opacity="1" /><path clip-path="url(#clip520)" d="M1578.77 1466.44 Q1575.62 1466.44 1573.77 1468.59 Q1571.94 1470.74 1571.94 1474.49 Q1571.94 1478.22 1573.77 1480.39 Q1575.62 1482.55 1578.77 1482.55 Q1581.92 1482.55 1583.74 1480.39 Q1585.6 1478.22 1585.6 1474.49 Q1585.6 1470.74 1583.74 1468.59 Q1581.92 1466.44 1578.77 1466.44 M1588.05 1451.78 L1588.05 1456.04 Q1586.29 1455.21 1584.48 1454.77 Q1582.7 1454.33 1580.94 1454.33 Q1576.31 1454.33 1573.86 1457.45 Q1571.43 1460.58 1571.08 1466.9 Q1572.45 1464.89 1574.51 1463.82 Q1576.57 1462.73 1579.05 1462.73 Q1584.25 1462.73 1587.26 1465.9 Q1590.29 1469.05 1590.29 1474.49 Q1590.29 1479.82 1587.15 1483.03 Q1584 1486.25 1578.77 1486.25 Q1572.77 1486.25 1569.6 1481.67 Q1566.43 1477.06 1566.43 1468.33 Q1566.43 1460.14 1570.32 1455.28 Q1574.21 1450.39 1580.76 1450.39 Q1582.52 1450.39 1584.3 1450.74 Q1586.11 1451.09 1588.05 1451.78 Z" fill="#000000" fill-rule="nonzero" fill-opacity="1" /><path clip-path="url(#clip520)" d="M1608.35 1469.17 Q1605.02 1469.17 1603.1 1470.95 Q1601.2 1472.73 1601.2 1475.86 Q1601.2 1478.98 1603.1 1480.77 Q1605.02 1482.55 1608.35 1482.55 Q1611.68 1482.55 1613.61 1480.77 Q1615.53 1478.96 1615.53 1475.86 Q1615.53 1472.73 1613.61 1470.95 Q1611.71 1469.17 1608.35 1469.17 M1603.67 1467.18 Q1600.67 1466.44 1598.98 1464.38 Q1597.31 1462.32 1597.31 1459.35 Q1597.31 1455.21 1600.25 1452.8 Q1603.21 1450.39 1608.35 1450.39 Q1613.51 1450.39 1616.45 1452.8 Q1619.39 1455.21 1619.39 1459.35 Q1619.39 1462.32 1617.7 1464.38 Q1616.04 1466.44 1613.05 1467.18 Q1616.43 1467.96 1618.3 1470.26 Q1620.2 1472.55 1620.2 1475.86 Q1620.2 1480.88 1617.12 1483.57 Q1614.07 1486.25 1608.35 1486.25 Q1602.63 1486.25 1599.55 1483.57 Q1596.5 1480.88 1596.5 1475.86 Q1596.5 1472.55 1598.4 1470.26 Q1600.29 1467.96 1603.67 1467.18 M1601.96 1459.79 Q1601.96 1462.48 1603.63 1463.98 Q1605.32 1465.49 1608.35 1465.49 Q1611.36 1465.49 1613.05 1463.98 Q1614.76 1462.48 1614.76 1459.79 Q1614.76 1457.11 1613.05 1455.6 Q1611.36 1454.1 1608.35 1454.1 Q1605.32 1454.1 1603.63 1455.6 Q1601.96 1457.11 1601.96 1459.79 Z" fill="#000000" fill-rule="nonzero" fill-opacity="1" /><path clip-path="url(#clip520)" d="M1638.51 1454.1 Q1634.9 1454.1 1633.07 1457.66 Q1631.27 1461.2 1631.27 1468.33 Q1631.27 1475.44 1633.07 1479.01 Q1634.9 1482.55 1638.51 1482.55 Q1642.15 1482.55 1643.95 1479.01 Q1645.78 1475.44 1645.78 1468.33 Q1645.78 1461.2 1643.95 1457.66 Q1642.15 1454.1 1638.51 1454.1 M1638.51 1450.39 Q1644.32 1450.39 1647.38 1455 Q1650.46 1459.58 1650.46 1468.33 Q1650.46 1477.06 1647.38 1481.67 Q1644.32 1486.25 1638.51 1486.25 Q1632.7 1486.25 1629.62 1481.67 Q1626.57 1477.06 1626.57 1468.33 Q1626.57 1459.58 1629.62 1455 Q1632.7 1450.39 1638.51 1450.39 Z" fill="#000000" fill-rule="nonzero" fill-opacity="1" /><path clip-path="url(#clip520)" d="M1710.59 1454.1 Q1706.98 1454.1 1705.15 1457.66 Q1703.35 1461.2 1703.35 1468.33 Q1703.35 1475.44 1705.15 1479.01 Q1706.98 1482.55 1710.59 1482.55 Q1714.23 1482.55 1716.03 1479.01 Q1717.86 1475.44 1717.86 1468.33 Q1717.86 1461.2 1716.03 1457.66 Q1714.23 1454.1 1710.59 1454.1 M1710.59 1450.39 Q1716.4 1450.39 1719.46 1455 Q1722.54 1459.58 1722.54 1468.33 Q1722.54 1477.06 1719.46 1481.67 Q1716.4 1486.25 1710.59 1486.25 Q1704.78 1486.25 1701.71 1481.67 Q1698.65 1477.06 1698.65 1468.33 Q1698.65 1459.58 1701.71 1455 Q1704.78 1450.39 1710.59 1450.39 Z" fill="#000000" fill-rule="nonzero" fill-opacity="1" /><path clip-path="url(#clip520)" d="M1730.76 1479.7 L1735.64 1479.7 L1735.64 1485.58 L1730.76 1485.58 L1730.76 1479.7 Z" fill="#000000" fill-rule="nonzero" fill-opacity="1" /><path clip-path="url(#clip520)" d="M1756.4 1466.44 Q1753.26 1466.44 1751.4 1468.59 Q1749.58 1470.74 1749.58 1474.49 Q1749.58 1478.22 1751.4 1480.39 Q1753.26 1482.55 1756.4 1482.55 Q1759.55 1482.55 1761.38 1480.39 Q1763.23 1478.22 1763.23 1474.49 Q1763.23 1470.74 1761.38 1468.59 Q1759.55 1466.44 1756.4 1466.44 M1765.69 1451.78 L1765.69 1456.04 Q1763.93 1455.21 1762.12 1454.77 Q1760.34 1454.33 1758.58 1454.33 Q1753.95 1454.33 1751.5 1457.45 Q1749.07 1460.58 1748.72 1466.9 Q1750.09 1464.89 1752.15 1463.82 Q1754.21 1462.73 1756.68 1462.73 Q1761.89 1462.73 1764.9 1465.9 Q1767.93 1469.05 1767.93 1474.49 Q1767.93 1479.82 1764.78 1483.03 Q1761.64 1486.25 1756.4 1486.25 Q1750.41 1486.25 1747.24 1481.67 Q1744.07 1477.06 1744.07 1468.33 Q1744.07 1460.14 1747.96 1455.28 Q1751.84 1450.39 1758.4 1450.39 Q1760.15 1450.39 1761.94 1450.74 Q1763.74 1451.09 1765.69 1451.78 Z" fill="#000000" fill-rule="nonzero" fill-opacity="1" /><path clip-path="url(#clip520)" d="M1785.99 1469.17 Q1782.65 1469.17 1780.73 1470.95 Q1778.84 1472.73 1778.84 1475.86 Q1778.84 1478.98 1780.73 1480.77 Q1782.65 1482.55 1785.99 1482.55 Q1789.32 1482.55 1791.24 1480.77 Q1793.16 1478.96 1793.16 1475.86 Q1793.16 1472.73 1791.24 1470.95 Q1789.34 1469.17 1785.99 1469.17 M1781.31 1467.18 Q1778.3 1466.44 1776.61 1464.38 Q1774.95 1462.32 1774.95 1459.35 Q1774.95 1455.21 1777.89 1452.8 Q1780.85 1450.39 1785.99 1450.39 Q1791.15 1450.39 1794.09 1452.8 Q1797.03 1455.21 1797.03 1459.35 Q1797.03 1462.32 1795.34 1464.38 Q1793.67 1466.44 1790.69 1467.18 Q1794.07 1467.96 1795.94 1470.26 Q1797.84 1472.55 1797.84 1475.86 Q1797.84 1480.88 1794.76 1483.57 Q1791.71 1486.25 1785.99 1486.25 Q1780.27 1486.25 1777.19 1483.57 Q1774.14 1480.88 1774.14 1475.86 Q1774.14 1472.55 1776.03 1470.26 Q1777.93 1467.96 1781.31 1467.18 M1779.6 1459.79 Q1779.6 1462.48 1781.27 1463.98 Q1782.96 1465.49 1785.99 1465.49 Q1789 1465.49 1790.69 1463.98 Q1792.4 1462.48 1792.4 1459.79 Q1792.4 1457.11 1790.69 1455.6 Q1789 1454.1 1785.99 1454.1 Q1782.96 1454.1 1781.27 1455.6 Q1779.6 1457.11 1779.6 1459.79 Z" fill="#000000" fill-rule="nonzero" fill-opacity="1" /><path clip-path="url(#clip520)" d="M1806.2 1451.02 L1824.55 1451.02 L1824.55 1454.96 L1810.48 1454.96 L1810.48 1463.43 Q1811.5 1463.08 1812.52 1462.92 Q1813.53 1462.73 1814.55 1462.73 Q1820.34 1462.73 1823.72 1465.9 Q1827.1 1469.08 1827.1 1474.49 Q1827.1 1480.07 1823.63 1483.17 Q1820.15 1486.25 1813.83 1486.25 Q1811.66 1486.25 1809.39 1485.88 Q1807.15 1485.51 1804.74 1484.77 L1804.74 1480.07 Q1806.82 1481.2 1809.04 1481.76 Q1811.27 1482.32 1813.74 1482.32 Q1817.75 1482.32 1820.08 1480.21 Q1822.42 1478.1 1822.42 1474.49 Q1822.42 1470.88 1820.08 1468.77 Q1817.75 1466.67 1813.74 1466.67 Q1811.87 1466.67 1809.99 1467.08 Q1808.14 1467.5 1806.2 1468.38 L1806.2 1451.02 Z" fill="#000000" fill-rule="nonzero" fill-opacity="1" /><path clip-path="url(#clip520)" d="M1887.24 1454.1 Q1883.63 1454.1 1881.8 1457.66 Q1879.99 1461.2 1879.99 1468.33 Q1879.99 1475.44 1881.8 1479.01 Q1883.63 1482.55 1887.24 1482.55 Q1890.87 1482.55 1892.68 1479.01 Q1894.51 1475.44 1894.51 1468.33 Q1894.51 1461.2 1892.68 1457.66 Q1890.87 1454.1 1887.24 1454.1 M1887.24 1450.39 Q1893.05 1450.39 1896.1 1455 Q1899.18 1459.58 1899.18 1468.33 Q1899.18 1477.06 1896.1 1481.67 Q1893.05 1486.25 1887.24 1486.25 Q1881.43 1486.25 1878.35 1481.67 Q1875.29 1477.06 1875.29 1468.33 Q1875.29 1459.58 1878.35 1455 Q1881.43 1450.39 1887.24 1450.39 Z" fill="#000000" fill-rule="nonzero" fill-opacity="1" /><path clip-path="url(#clip520)" d="M1907.4 1479.7 L1912.28 1479.7 L1912.28 1485.58 L1907.4 1485.58 L1907.4 1479.7 Z" fill="#000000" fill-rule="nonzero" fill-opacity="1" /><path clip-path="url(#clip520)" d="M1933.05 1466.44 Q1929.9 1466.44 1928.05 1468.59 Q1926.22 1470.74 1926.22 1474.49 Q1926.22 1478.22 1928.05 1480.39 Q1929.9 1482.55 1933.05 1482.55 Q1936.19 1482.55 1938.02 1480.39 Q1939.88 1478.22 1939.88 1474.49 Q1939.88 1470.74 1938.02 1468.59 Q1936.19 1466.44 1933.05 1466.44 M1942.33 1451.78 L1942.33 1456.04 Q1940.57 1455.21 1938.76 1454.77 Q1936.98 1454.33 1935.22 1454.33 Q1930.59 1454.33 1928.14 1457.45 Q1925.71 1460.58 1925.36 1466.9 Q1926.73 1464.89 1928.79 1463.82 Q1930.85 1462.73 1933.32 1462.73 Q1938.53 1462.73 1941.54 1465.9 Q1944.57 1469.05 1944.57 1474.49 Q1944.57 1479.82 1941.43 1483.03 Q1938.28 1486.25 1933.05 1486.25 Q1927.05 1486.25 1923.88 1481.67 Q1920.71 1477.06 1920.71 1468.33 Q1920.71 1460.14 1924.6 1455.28 Q1928.49 1450.39 1935.04 1450.39 Q1936.8 1450.39 1938.58 1450.74 Q1940.38 1451.09 1942.33 1451.78 Z" fill="#000000" fill-rule="nonzero" fill-opacity="1" /><path clip-path="url(#clip520)" d="M1952.77 1484.86 L1952.77 1480.6 Q1954.53 1481.44 1956.33 1481.88 Q1958.14 1482.32 1959.88 1482.32 Q1964.5 1482.32 1966.94 1479.21 Q1969.39 1476.09 1969.74 1469.75 Q1968.39 1471.74 1966.33 1472.8 Q1964.27 1473.87 1961.77 1473.87 Q1956.59 1473.87 1953.56 1470.74 Q1950.55 1467.59 1950.55 1462.15 Q1950.55 1456.83 1953.69 1453.61 Q1956.84 1450.39 1962.07 1450.39 Q1968.07 1450.39 1971.22 1455 Q1974.39 1459.58 1974.39 1468.33 Q1974.39 1476.51 1970.5 1481.39 Q1966.63 1486.25 1960.08 1486.25 Q1958.32 1486.25 1956.52 1485.9 Q1954.71 1485.56 1952.77 1484.86 M1962.07 1470.21 Q1965.22 1470.21 1967.05 1468.06 Q1968.9 1465.9 1968.9 1462.15 Q1968.9 1458.43 1967.05 1456.27 Q1965.22 1454.1 1962.07 1454.1 Q1958.93 1454.1 1957.07 1456.27 Q1955.25 1458.43 1955.25 1462.15 Q1955.25 1465.9 1957.07 1468.06 Q1958.93 1470.21 1962.07 1470.21 Z" fill="#000000" fill-rule="nonzero" fill-opacity="1" /><path clip-path="url(#clip520)" d="M1992.79 1454.1 Q1989.18 1454.1 1987.35 1457.66 Q1985.55 1461.2 1985.55 1468.33 Q1985.55 1475.44 1987.35 1479.01 Q1989.18 1482.55 1992.79 1482.55 Q1996.43 1482.55 1998.23 1479.01 Q2000.06 1475.44 2000.06 1468.33 Q2000.06 1461.2 1998.23 1457.66 Q1996.43 1454.1 1992.79 1454.1 M1992.79 1450.39 Q1998.6 1450.39 2001.66 1455 Q2004.74 1459.58 2004.74 1468.33 Q2004.74 1477.06 2001.66 1481.67 Q1998.6 1486.25 1992.79 1486.25 Q1986.98 1486.25 1983.9 1481.67 Q1980.85 1477.06 1980.85 1468.33 Q1980.85 1459.58 1983.9 1455 Q1986.98 1450.39 1992.79 1450.39 Z" fill="#000000" fill-rule="nonzero" fill-opacity="1" /><path clip-path="url(#clip520)" d="M2064.87 1454.1 Q2061.26 1454.1 2059.43 1457.66 Q2057.63 1461.2 2057.63 1468.33 Q2057.63 1475.44 2059.43 1479.01 Q2061.26 1482.55 2064.87 1482.55 Q2068.51 1482.55 2070.31 1479.01 Q2072.14 1475.44 2072.14 1468.33 Q2072.14 1461.2 2070.31 1457.66 Q2068.51 1454.1 2064.87 1454.1 M2064.87 1450.39 Q2070.68 1450.39 2073.74 1455 Q2076.82 1459.58 2076.82 1468.33 Q2076.82 1477.06 2073.74 1481.67 Q2070.68 1486.25 2064.87 1486.25 Q2059.06 1486.25 2055.99 1481.67 Q2052.93 1477.06 2052.93 1468.33 Q2052.93 1459.58 2055.99 1455 Q2059.06 1450.39 2064.87 1450.39 Z" fill="#000000" fill-rule="nonzero" fill-opacity="1" /><path clip-path="url(#clip520)" d="M2085.04 1479.7 L2089.92 1479.7 L2089.92 1485.58 L2085.04 1485.58 L2085.04 1479.7 Z" fill="#000000" fill-rule="nonzero" fill-opacity="1" /><path clip-path="url(#clip520)" d="M2110.68 1466.44 Q2107.54 1466.44 2105.68 1468.59 Q2103.86 1470.74 2103.86 1474.49 Q2103.86 1478.22 2105.68 1480.39 Q2107.54 1482.55 2110.68 1482.55 Q2113.83 1482.55 2115.66 1480.39 Q2117.51 1478.22 2117.51 1474.49 Q2117.51 1470.74 2115.66 1468.59 Q2113.83 1466.44 2110.68 1466.44 M2119.97 1451.78 L2119.97 1456.04 Q2118.21 1455.21 2116.4 1454.77 Q2114.62 1454.33 2112.86 1454.33 Q2108.23 1454.33 2105.78 1457.45 Q2103.35 1460.58 2103 1466.9 Q2104.36 1464.89 2106.43 1463.82 Q2108.49 1462.73 2110.96 1462.73 Q2116.17 1462.73 2119.18 1465.9 Q2122.21 1469.05 2122.21 1474.49 Q2122.21 1479.82 2119.06 1483.03 Q2115.92 1486.25 2110.68 1486.25 Q2104.69 1486.25 2101.52 1481.67 Q2098.35 1477.06 2098.35 1468.33 Q2098.35 1460.14 2102.24 1455.28 Q2106.12 1450.39 2112.67 1450.39 Q2114.43 1450.39 2116.22 1450.74 Q2118.02 1451.09 2119.97 1451.78 Z" fill="#000000" fill-rule="nonzero" fill-opacity="1" /><path clip-path="url(#clip520)" d="M2130.41 1484.86 L2130.41 1480.6 Q2132.17 1481.44 2133.97 1481.88 Q2135.78 1482.32 2137.51 1482.32 Q2142.14 1482.32 2144.57 1479.21 Q2147.03 1476.09 2147.37 1469.75 Q2146.03 1471.74 2143.97 1472.8 Q2141.91 1473.87 2139.41 1473.87 Q2134.23 1473.87 2131.19 1470.74 Q2128.18 1467.59 2128.18 1462.15 Q2128.18 1456.83 2131.33 1453.61 Q2134.48 1450.39 2139.71 1450.39 Q2145.71 1450.39 2148.86 1455 Q2152.03 1459.58 2152.03 1468.33 Q2152.03 1476.51 2148.14 1481.39 Q2144.27 1486.25 2137.72 1486.25 Q2135.96 1486.25 2134.16 1485.9 Q2132.35 1485.56 2130.41 1484.86 M2139.71 1470.21 Q2142.86 1470.21 2144.69 1468.06 Q2146.54 1465.9 2146.54 1462.15 Q2146.54 1458.43 2144.69 1456.27 Q2142.86 1454.1 2139.71 1454.1 Q2136.56 1454.1 2134.71 1456.27 Q2132.88 1458.43 2132.88 1462.15 Q2132.88 1465.9 2134.71 1468.06 Q2136.56 1470.21 2139.71 1470.21 Z" fill="#000000" fill-rule="nonzero" fill-opacity="1" /><path clip-path="url(#clip520)" d="M2160.48 1451.02 L2178.83 1451.02 L2178.83 1454.96 L2164.76 1454.96 L2164.76 1463.43 Q2165.78 1463.08 2166.8 1462.92 Q2167.81 1462.73 2168.83 1462.73 Q2174.62 1462.73 2178 1465.9 Q2181.38 1469.08 2181.38 1474.49 Q2181.38 1480.07 2177.91 1483.17 Q2174.43 1486.25 2168.11 1486.25 Q2165.94 1486.25 2163.67 1485.88 Q2161.42 1485.51 2159.02 1484.77 L2159.02 1480.07 Q2161.1 1481.2 2163.32 1481.76 Q2165.55 1482.32 2168.02 1482.32 Q2172.03 1482.32 2174.36 1480.21 Q2176.7 1478.1 2176.7 1474.49 Q2176.7 1470.88 2174.36 1468.77 Q2172.03 1466.67 2168.02 1466.67 Q2166.15 1466.67 2164.27 1467.08 Q2162.42 1467.5 2160.48 1468.38 L2160.48 1451.02 Z" fill="#000000" fill-rule="nonzero" fill-opacity="1" /><path clip-path="url(#clip520)" d="M2241.52 1454.1 Q2237.91 1454.1 2236.08 1457.66 Q2234.27 1461.2 2234.27 1468.33 Q2234.27 1475.44 2236.08 1479.01 Q2237.91 1482.55 2241.52 1482.55 Q2245.15 1482.55 2246.96 1479.01 Q2248.78 1475.44 2248.78 1468.33 Q2248.78 1461.2 2246.96 1457.66 Q2245.15 1454.1 2241.52 1454.1 M2241.52 1450.39 Q2247.33 1450.39 2250.38 1455 Q2253.46 1459.58 2253.46 1468.33 Q2253.46 1477.06 2250.38 1481.67 Q2247.33 1486.25 2241.52 1486.25 Q2235.71 1486.25 2232.63 1481.67 Q2229.57 1477.06 2229.57 1468.33 Q2229.57 1459.58 2232.63 1455 Q2235.71 1450.39 2241.52 1450.39 Z" fill="#000000" fill-rule="nonzero" fill-opacity="1" /><path clip-path="url(#clip520)" d="M2261.68 1479.7 L2266.56 1479.7 L2266.56 1485.58 L2261.68 1485.58 L2261.68 1479.7 Z" fill="#000000" fill-rule="nonzero" fill-opacity="1" /><path clip-path="url(#clip520)" d="M2275.57 1451.02 L2297.79 1451.02 L2297.79 1453.01 L2285.24 1485.58 L2280.36 1485.58 L2292.16 1454.96 L2275.57 1454.96 L2275.57 1451.02 Z" fill="#000000" fill-rule="nonzero" fill-opacity="1" /><path clip-path="url(#clip520)" d="M2316.91 1454.1 Q2313.3 1454.1 2311.47 1457.66 Q2309.66 1461.2 2309.66 1468.33 Q2309.66 1475.44 2311.47 1479.01 Q2313.3 1482.55 2316.91 1482.55 Q2320.54 1482.55 2322.35 1479.01 Q2324.18 1475.44 2324.18 1468.33 Q2324.18 1461.2 2322.35 1457.66 Q2320.54 1454.1 2316.91 1454.1 M2316.91 1450.39 Q2322.72 1450.39 2325.78 1455 Q2328.85 1459.58 2328.85 1468.33 Q2328.85 1477.06 2325.78 1481.67 Q2322.72 1486.25 2316.91 1486.25 Q2311.1 1486.25 2308.02 1481.67 Q2304.97 1477.06 2304.97 1468.33 Q2304.97 1459.58 2308.02 1455 Q2311.1 1450.39 2316.91 1450.39 Z" fill="#000000" fill-rule="nonzero" fill-opacity="1" /><path clip-path="url(#clip520)" d="M2347.07 1454.1 Q2343.46 1454.1 2341.63 1457.66 Q2339.83 1461.2 2339.83 1468.33 Q2339.83 1475.44 2341.63 1479.01 Q2343.46 1482.55 2347.07 1482.55 Q2350.71 1482.55 2352.51 1479.01 Q2354.34 1475.44 2354.34 1468.33 Q2354.34 1461.2 2352.51 1457.66 Q2350.71 1454.1 2347.07 1454.1 M2347.07 1450.39 Q2352.88 1450.39 2355.94 1455 Q2359.02 1459.58 2359.02 1468.33 Q2359.02 1477.06 2355.94 1481.67 Q2352.88 1486.25 2347.07 1486.25 Q2341.26 1486.25 2338.18 1481.67 Q2335.13 1477.06 2335.13 1468.33 Q2335.13 1459.58 2338.18 1455 Q2341.26 1450.39 2347.07 1450.39 Z" fill="#000000" fill-rule="nonzero" fill-opacity="1" /><path clip-path="url(#clip520)" d="M1291.27 1550.25 Q1291.27 1556.71 1293.91 1560.4 Q1296.58 1564.07 1301.23 1564.07 Q1305.88 1564.07 1308.55 1560.4 Q1311.22 1556.71 1311.22 1550.25 Q1311.22 1543.79 1308.55 1540.13 Q1305.88 1536.44 1301.23 1536.44 Q1296.58 1536.44 1293.91 1540.13 Q1291.27 1543.79 1291.27 1550.25 M1311.22 1562.7 Q1309.38 1565.88 1306.54 1567.44 Q1303.74 1568.97 1299.8 1568.97 Q1293.34 1568.97 1289.26 1563.81 Q1285.22 1558.65 1285.22 1550.25 Q1285.22 1541.85 1289.26 1536.69 Q1293.34 1531.54 1299.8 1531.54 Q1303.74 1531.54 1306.54 1533.1 Q1309.38 1534.62 1311.22 1537.81 L1311.22 1532.4 L1317.08 1532.4 L1317.08 1581.6 L1311.22 1581.6 L1311.22 1562.7 Z" fill="#000000" fill-rule="nonzero" fill-opacity="1" /><polyline clip-path="url(#clip520)" style="stroke:#000000; stroke-linecap:round; stroke-linejoin:round; stroke-width:4; stroke-opacity:1; fill:none" points="249.542,1423.18 249.542,47.2441 "/>
<polyline clip-path="url(#clip520)" style="stroke:#000000; stroke-linecap:round; stroke-linejoin:round; stroke-width:4; stroke-opacity:1; fill:none" points="249.542,1384.24 268.44,1384.24 "/>
<polyline clip-path="url(#clip520)" style="stroke:#000000; stroke-linecap:round; stroke-linejoin:round; stroke-width:4; stroke-opacity:1; fill:none" points="249.542,1051.67 268.44,1051.67 "/>
<polyline clip-path="url(#clip520)" style="stroke:#000000; stroke-linecap:round; stroke-linejoin:round; stroke-width:4; stroke-opacity:1; fill:none" points="249.542,719.104 268.44,719.104 "/>
<polyline clip-path="url(#clip520)" style="stroke:#000000; stroke-linecap:round; stroke-linejoin:round; stroke-width:4; stroke-opacity:1; fill:none" points="249.542,386.536 268.44,386.536 "/>
<polyline clip-path="url(#clip520)" style="stroke:#000000; stroke-linecap:round; stroke-linejoin:round; stroke-width:4; stroke-opacity:1; fill:none" points="249.542,53.9685 268.44,53.9685 "/>
<path clip-path="url(#clip520)" d="M126.205 1370.04 Q122.593 1370.04 120.765 1373.6 Q118.959 1377.14 118.959 1384.27 Q118.959 1391.38 120.765 1394.94 Q122.593 1398.49 126.205 1398.49 Q129.839 1398.49 131.644 1394.94 Q133.473 1391.38 133.473 1384.27 Q133.473 1377.14 131.644 1373.6 Q129.839 1370.04 126.205 1370.04 M126.205 1366.33 Q132.015 1366.33 135.07 1370.94 Q138.149 1375.52 138.149 1384.27 Q138.149 1393 135.07 1397.61 Q132.015 1402.19 126.205 1402.19 Q120.394 1402.19 117.316 1397.61 Q114.26 1393 114.26 1384.27 Q114.26 1375.52 117.316 1370.94 Q120.394 1366.33 126.205 1366.33 Z" fill="#000000" fill-rule="nonzero" fill-opacity="1" /><path clip-path="url(#clip520)" d="M146.366 1395.64 L151.251 1395.64 L151.251 1401.52 L146.366 1401.52 L146.366 1395.64 Z" fill="#000000" fill-rule="nonzero" fill-opacity="1" /><path clip-path="url(#clip520)" d="M171.436 1370.04 Q167.825 1370.04 165.996 1373.6 Q164.19 1377.14 164.19 1384.27 Q164.19 1391.38 165.996 1394.94 Q167.825 1398.49 171.436 1398.49 Q175.07 1398.49 176.876 1394.94 Q178.704 1391.38 178.704 1384.27 Q178.704 1377.14 176.876 1373.6 Q175.07 1370.04 171.436 1370.04 M171.436 1366.33 Q177.246 1366.33 180.301 1370.94 Q183.38 1375.52 183.38 1384.27 Q183.38 1393 180.301 1397.61 Q177.246 1402.19 171.436 1402.19 Q165.626 1402.19 162.547 1397.61 Q159.491 1393 159.491 1384.27 Q159.491 1375.52 162.547 1370.94 Q165.626 1366.33 171.436 1366.33 Z" fill="#000000" fill-rule="nonzero" fill-opacity="1" /><path clip-path="url(#clip520)" d="M201.598 1370.04 Q197.987 1370.04 196.158 1373.6 Q194.352 1377.14 194.352 1384.27 Q194.352 1391.38 196.158 1394.94 Q197.987 1398.49 201.598 1398.49 Q205.232 1398.49 207.037 1394.94 Q208.866 1391.38 208.866 1384.27 Q208.866 1377.14 207.037 1373.6 Q205.232 1370.04 201.598 1370.04 M201.598 1366.33 Q207.408 1366.33 210.463 1370.94 Q213.542 1375.52 213.542 1384.27 Q213.542 1393 210.463 1397.61 Q207.408 1402.19 201.598 1402.19 Q195.787 1402.19 192.709 1397.61 Q189.653 1393 189.653 1384.27 Q189.653 1375.52 192.709 1370.94 Q195.787 1366.33 201.598 1366.33 Z" fill="#000000" fill-rule="nonzero" fill-opacity="1" /><path clip-path="url(#clip520)" d="M127.2 1037.47 Q123.589 1037.47 121.76 1041.03 Q119.955 1044.58 119.955 1051.71 Q119.955 1058.81 121.76 1062.38 Q123.589 1065.92 127.2 1065.92 Q130.834 1065.92 132.64 1062.38 Q134.468 1058.81 134.468 1051.71 Q134.468 1044.58 132.64 1041.03 Q130.834 1037.47 127.2 1037.47 M127.2 1033.77 Q133.01 1033.77 136.066 1038.37 Q139.144 1042.96 139.144 1051.71 Q139.144 1060.43 136.066 1065.04 Q133.01 1069.62 127.2 1069.62 Q121.39 1069.62 118.311 1065.04 Q115.256 1060.43 115.256 1051.71 Q115.256 1042.96 118.311 1038.37 Q121.39 1033.77 127.2 1033.77 Z" fill="#000000" fill-rule="nonzero" fill-opacity="1" /><path clip-path="url(#clip520)" d="M147.362 1063.07 L152.246 1063.07 L152.246 1068.95 L147.362 1068.95 L147.362 1063.07 Z" fill="#000000" fill-rule="nonzero" fill-opacity="1" /><path clip-path="url(#clip520)" d="M166.459 1065.02 L182.778 1065.02 L182.778 1068.95 L160.834 1068.95 L160.834 1065.02 Q163.496 1062.26 168.079 1057.63 Q172.686 1052.98 173.866 1051.64 Q176.112 1049.11 176.991 1047.38 Q177.894 1045.62 177.894 1043.93 Q177.894 1041.17 175.95 1039.44 Q174.028 1037.7 170.927 1037.7 Q168.727 1037.7 166.274 1038.47 Q163.843 1039.23 161.065 1040.78 L161.065 1036.06 Q163.89 1034.92 166.343 1034.35 Q168.797 1033.77 170.834 1033.77 Q176.204 1033.77 179.399 1036.45 Q182.593 1039.14 182.593 1043.63 Q182.593 1045.76 181.783 1047.68 Q180.996 1049.58 178.889 1052.17 Q178.311 1052.84 175.209 1056.06 Q172.107 1059.25 166.459 1065.02 Z" fill="#000000" fill-rule="nonzero" fill-opacity="1" /><path clip-path="url(#clip520)" d="M192.639 1034.39 L210.996 1034.39 L210.996 1038.33 L196.922 1038.33 L196.922 1046.8 Q197.94 1046.45 198.959 1046.29 Q199.977 1046.1 200.996 1046.1 Q206.783 1046.1 210.162 1049.28 Q213.542 1052.45 213.542 1057.86 Q213.542 1063.44 210.07 1066.54 Q206.598 1069.62 200.278 1069.62 Q198.102 1069.62 195.834 1069.25 Q193.588 1068.88 191.181 1068.14 L191.181 1063.44 Q193.264 1064.58 195.487 1065.13 Q197.709 1065.69 200.186 1065.69 Q204.19 1065.69 206.528 1063.58 Q208.866 1061.47 208.866 1057.86 Q208.866 1054.25 206.528 1052.15 Q204.19 1050.04 200.186 1050.04 Q198.311 1050.04 196.436 1050.46 Q194.584 1050.87 192.639 1051.75 L192.639 1034.39 Z" fill="#000000" fill-rule="nonzero" fill-opacity="1" /><path clip-path="url(#clip520)" d="M126.205 704.902 Q122.593 704.902 120.765 708.467 Q118.959 712.009 118.959 719.138 Q118.959 726.245 120.765 729.81 Q122.593 733.351 126.205 733.351 Q129.839 733.351 131.644 729.81 Q133.473 726.245 133.473 719.138 Q133.473 712.009 131.644 708.467 Q129.839 704.902 126.205 704.902 M126.205 701.199 Q132.015 701.199 135.07 705.805 Q138.149 710.389 138.149 719.138 Q138.149 727.865 135.07 732.472 Q132.015 737.055 126.205 737.055 Q120.394 737.055 117.316 732.472 Q114.26 727.865 114.26 719.138 Q114.26 710.389 117.316 705.805 Q120.394 701.199 126.205 701.199 Z" fill="#000000" fill-rule="nonzero" fill-opacity="1" /><path clip-path="url(#clip520)" d="M146.366 730.504 L151.251 730.504 L151.251 736.384 L146.366 736.384 L146.366 730.504 Z" fill="#000000" fill-rule="nonzero" fill-opacity="1" /><path clip-path="url(#clip520)" d="M161.482 701.824 L179.839 701.824 L179.839 705.759 L165.765 705.759 L165.765 714.231 Q166.783 713.884 167.802 713.722 Q168.82 713.537 169.839 713.537 Q175.626 713.537 179.005 716.708 Q182.385 719.879 182.385 725.296 Q182.385 730.875 178.913 733.976 Q175.44 737.055 169.121 737.055 Q166.945 737.055 164.677 736.685 Q162.431 736.314 160.024 735.574 L160.024 730.875 Q162.107 732.009 164.329 732.564 Q166.552 733.12 169.028 733.12 Q173.033 733.12 175.371 731.013 Q177.709 728.907 177.709 725.296 Q177.709 721.685 175.371 719.578 Q173.033 717.472 169.028 717.472 Q167.153 717.472 165.278 717.888 Q163.427 718.305 161.482 719.185 L161.482 701.824 Z" fill="#000000" fill-rule="nonzero" fill-opacity="1" /><path clip-path="url(#clip520)" d="M201.598 704.902 Q197.987 704.902 196.158 708.467 Q194.352 712.009 194.352 719.138 Q194.352 726.245 196.158 729.81 Q197.987 733.351 201.598 733.351 Q205.232 733.351 207.037 729.81 Q208.866 726.245 208.866 719.138 Q208.866 712.009 207.037 708.467 Q205.232 704.902 201.598 704.902 M201.598 701.199 Q207.408 701.199 210.463 705.805 Q213.542 710.389 213.542 719.138 Q213.542 727.865 210.463 732.472 Q207.408 737.055 201.598 737.055 Q195.787 737.055 192.709 732.472 Q189.653 727.865 189.653 719.138 Q189.653 710.389 192.709 705.805 Q195.787 701.199 201.598 701.199 Z" fill="#000000" fill-rule="nonzero" fill-opacity="1" /><path clip-path="url(#clip520)" d="M127.2 372.335 Q123.589 372.335 121.76 375.9 Q119.955 379.441 119.955 386.571 Q119.955 393.677 121.76 397.242 Q123.589 400.784 127.2 400.784 Q130.834 400.784 132.64 397.242 Q134.468 393.677 134.468 386.571 Q134.468 379.441 132.64 375.9 Q130.834 372.335 127.2 372.335 M127.2 368.631 Q133.01 368.631 136.066 373.238 Q139.144 377.821 139.144 386.571 Q139.144 395.298 136.066 399.904 Q133.01 404.487 127.2 404.487 Q121.39 404.487 118.311 399.904 Q115.256 395.298 115.256 386.571 Q115.256 377.821 118.311 373.238 Q121.39 368.631 127.2 368.631 Z" fill="#000000" fill-rule="nonzero" fill-opacity="1" /><path clip-path="url(#clip520)" d="M147.362 397.937 L152.246 397.937 L152.246 403.816 L147.362 403.816 L147.362 397.937 Z" fill="#000000" fill-rule="nonzero" fill-opacity="1" /><path clip-path="url(#clip520)" d="M161.251 369.256 L183.473 369.256 L183.473 371.247 L170.927 403.816 L166.042 403.816 L177.848 373.191 L161.251 373.191 L161.251 369.256 Z" fill="#000000" fill-rule="nonzero" fill-opacity="1" /><path clip-path="url(#clip520)" d="M192.639 369.256 L210.996 369.256 L210.996 373.191 L196.922 373.191 L196.922 381.663 Q197.94 381.316 198.959 381.154 Q199.977 380.969 200.996 380.969 Q206.783 380.969 210.162 384.14 Q213.542 387.312 213.542 392.728 Q213.542 398.307 210.07 401.409 Q206.598 404.487 200.278 404.487 Q198.102 404.487 195.834 404.117 Q193.588 403.747 191.181 403.006 L191.181 398.307 Q193.264 399.441 195.487 399.997 Q197.709 400.552 200.186 400.552 Q204.19 400.552 206.528 398.446 Q208.866 396.339 208.866 392.728 Q208.866 389.117 206.528 387.011 Q204.19 384.904 200.186 384.904 Q198.311 384.904 196.436 385.321 Q194.584 385.738 192.639 386.617 L192.639 369.256 Z" fill="#000000" fill-rule="nonzero" fill-opacity="1" /><path clip-path="url(#clip520)" d="M117.015 67.3134 L124.654 67.3134 L124.654 40.9478 L116.343 42.6144 L116.343 38.3552 L124.607 36.6885 L129.283 36.6885 L129.283 67.3134 L136.922 67.3134 L136.922 71.2485 L117.015 71.2485 L117.015 67.3134 Z" fill="#000000" fill-rule="nonzero" fill-opacity="1" /><path clip-path="url(#clip520)" d="M146.366 65.3689 L151.251 65.3689 L151.251 71.2485 L146.366 71.2485 L146.366 65.3689 Z" fill="#000000" fill-rule="nonzero" fill-opacity="1" /><path clip-path="url(#clip520)" d="M171.436 39.7672 Q167.825 39.7672 165.996 43.332 Q164.19 46.8737 164.19 54.0033 Q164.19 61.1097 165.996 64.6745 Q167.825 68.2161 171.436 68.2161 Q175.07 68.2161 176.876 64.6745 Q178.704 61.1097 178.704 54.0033 Q178.704 46.8737 176.876 43.332 Q175.07 39.7672 171.436 39.7672 M171.436 36.0635 Q177.246 36.0635 180.301 40.67 Q183.38 45.2533 183.38 54.0033 Q183.38 62.7301 180.301 67.3365 Q177.246 71.9198 171.436 71.9198 Q165.626 71.9198 162.547 67.3365 Q159.491 62.7301 159.491 54.0033 Q159.491 45.2533 162.547 40.67 Q165.626 36.0635 171.436 36.0635 Z" fill="#000000" fill-rule="nonzero" fill-opacity="1" /><path clip-path="url(#clip520)" d="M201.598 39.7672 Q197.987 39.7672 196.158 43.332 Q194.352 46.8737 194.352 54.0033 Q194.352 61.1097 196.158 64.6745 Q197.987 68.2161 201.598 68.2161 Q205.232 68.2161 207.037 64.6745 Q208.866 61.1097 208.866 54.0033 Q208.866 46.8737 207.037 43.332 Q205.232 39.7672 201.598 39.7672 M201.598 36.0635 Q207.408 36.0635 210.463 40.67 Q213.542 45.2533 213.542 54.0033 Q213.542 62.7301 210.463 67.3365 Q207.408 71.9198 201.598 71.9198 Q195.787 71.9198 192.709 67.3365 Q189.653 62.7301 189.653 54.0033 Q189.653 45.2533 192.709 40.67 Q195.787 36.0635 201.598 36.0635 Z" fill="#000000" fill-rule="nonzero" fill-opacity="1" /><path clip-path="url(#clip520)" d="M45.514 914.556 Q44.4512 914.556 43.5816 914.846 Q42.6799 915.104 42.068 915.522 Q41.4239 915.909 40.9408 916.65 Q40.4255 917.39 40.1034 918.002 Q39.7814 918.614 39.5881 919.645 Q39.3627 920.675 39.2661 921.352 Q39.1372 922.028 39.0728 923.187 Q39.0084 924.347 39.0084 924.927 Q39.0084 925.474 39.0084 926.569 Q39.0084 930.015 39.0728 930.595 Q39.2016 931.464 39.7169 931.786 Q40.2 932.108 41.5205 932.431 L58.7184 936.714 L58.7184 929.339 Q58.7184 925.313 57.5912 922.543 Q56.464 919.774 54.8859 918.196 Q53.1468 916.456 50.3449 915.522 Q47.543 914.556 45.514 914.556 M75.8841 907.374 Q76.2384 907.374 77.0435 907.664 Q77.8487 907.922 78.9759 908.566 Q80.0709 909.21 81.0693 910.08 Q82.0676 910.949 82.744 912.334 Q83.4525 913.719 83.4525 915.297 Q83.4525 915.684 83.4203 916.07 Q83.4203 916.456 83.2593 917.423 Q83.1304 918.357 82.8728 919.13 Q82.6474 919.902 82.0999 920.869 Q81.5846 921.835 80.876 922.511 Q80.1353 923.155 78.9759 923.606 Q77.7843 924.057 76.335 924.057 Q75.0468 924.057 70.7312 922.994 Q67.0597 922.06 66.158 922.06 Q65.1596 922.06 64.2256 922.382 Q63.2916 922.672 62.3255 923.413 Q61.3593 924.121 60.7796 925.635 Q60.1677 927.149 60.1677 929.274 L60.1677 937.1 L77.6554 941.48 Q77.6877 941.48 78.1385 941.577 Q78.5572 941.674 78.7826 941.674 Q79.2013 941.674 79.459 941.416 Q79.7166 941.126 79.8454 940.418 Q79.9421 939.709 79.9743 939.162 Q79.9743 938.582 79.9743 937.39 Q79.9743 935.909 80.2319 935.651 Q80.3929 935.522 80.6828 935.522 Q81.1337 935.522 81.4557 935.651 Q81.7456 935.748 81.8422 936.005 Q81.9388 936.231 81.971 936.392 Q82.0032 936.553 82.0032 936.843 L81.81 945.216 L82.0032 953.525 Q82.0032 954.459 81.2625 954.459 Q80.6184 954.459 80.3607 954.234 Q80.0709 954.008 80.0387 953.719 Q79.9743 953.429 79.9743 952.688 Q79.9743 951.078 79.8776 950.112 Q79.781 949.145 79.6522 948.533 Q79.4912 947.889 79.0403 947.567 Q78.5894 947.213 78.2029 947.052 Q77.7843 946.891 76.8503 946.666 L41.4239 937.841 Q40.3611 937.583 40.2 937.583 Q39.5881 937.583 39.4271 937.97 Q39.2339 938.324 39.1372 939.355 L39.0084 941.867 Q39.0084 942.64 38.9762 942.962 Q38.944 943.252 38.783 943.477 Q38.6219 943.703 38.2677 943.703 Q37.3659 943.703 37.1727 943.316 Q36.9472 942.93 36.9472 941.802 L36.9472 922.994 Q36.9472 916.585 39.7491 912.527 Q42.5511 908.437 46.8344 908.437 Q48.7668 908.437 50.5703 909.307 Q52.3738 910.176 53.7909 911.626 Q55.208 913.043 56.3996 914.943 Q57.559 916.843 58.3641 918.872 Q59.1371 920.869 59.588 922.93 Q59.91 922.028 60.3931 921.191 Q60.8762 920.321 61.778 919.226 Q62.6797 918.099 64.129 917.423 Q65.5782 916.746 67.3496 916.746 Q68.6056 916.746 70.4735 917.004 Q75.7875 917.648 77.9775 917.648 Q80.0709 917.648 81.0371 917.101 Q82.0032 916.553 82.0032 915.007 Q82.0032 913.494 80.6506 911.819 Q79.2657 910.112 76.0129 909.017 Q75.079 908.759 75.079 908.147 Q75.079 908.115 75.079 908.083 Q75.079 908.019 75.1434 907.89 Q75.1756 907.761 75.2722 907.664 Q75.3366 907.535 75.4977 907.471 Q75.6587 907.374 75.8841 907.374 Z" fill="#000000" fill-rule="nonzero" fill-opacity="1" /><path clip-path="url(#clip520)" d="M46.5165 900.794 Q45.6824 900.794 45.4344 900.727 Q45.1864 900.637 44.8032 900.276 L34.9288 891.416 Q29.4732 886.569 24.7164 886.569 Q21.6278 886.569 19.4185 888.192 Q17.2092 889.793 17.2092 892.746 Q17.2092 894.775 18.4491 896.488 Q19.689 898.202 21.8984 898.991 Q21.8533 898.856 21.8533 898.382 Q21.8533 897.232 22.5747 896.601 Q23.2961 895.947 24.2655 895.947 Q25.5054 895.947 26.1141 896.759 Q26.7003 897.548 26.7003 898.337 Q26.7003 898.653 26.6326 899.081 Q26.565 899.487 25.9338 900.141 Q25.28 900.794 24.1302 900.794 Q20.9064 900.794 18.3364 898.36 Q15.7664 895.902 15.7664 892.16 Q15.7664 887.922 18.2913 885.149 Q20.7937 882.353 24.7164 882.353 Q26.0916 882.353 27.354 882.782 Q28.594 883.187 29.5634 883.751 Q30.5327 884.292 32.0883 885.78 Q33.6438 887.268 34.7485 888.463 Q35.8532 889.658 38.1977 892.34 L42.9545 897.232 L42.9545 888.914 Q42.9545 884.856 42.5938 884.54 Q41.9401 884.089 38.4908 883.526 L38.4908 882.353 L46.5165 883.661 L46.5165 900.794 Z" fill="#000000" fill-rule="nonzero" fill-opacity="1" /><path clip-path="url(#clip520)" d="M61.5375 875.5 L61.5375 858.344 L66.7574 858.344 L66.7574 875.5 L61.5375 875.5 Z" fill="#000000" fill-rule="nonzero" fill-opacity="1" /><path clip-path="url(#clip520)" d="M47.7239 823.365 L53.1984 823.365 Q51.8298 825.847 51.1614 828.362 Q50.4612 830.844 50.4612 833.391 Q50.4612 839.088 54.0896 842.239 Q57.6862 845.39 64.2111 845.39 Q70.7359 845.39 74.3644 842.239 Q77.961 839.088 77.961 833.391 Q77.961 830.844 77.2926 828.362 Q76.5924 825.847 75.2238 823.365 L80.6346 823.365 Q81.7804 825.815 82.3533 828.457 Q82.9263 831.067 82.9263 834.027 Q82.9263 842.08 77.8655 846.822 Q72.8048 851.565 64.2111 851.565 Q55.4901 851.565 50.493 846.79 Q45.4959 841.984 45.4959 833.645 Q45.4959 830.94 46.0688 828.362 Q46.6099 825.784 47.7239 823.365 Z" fill="#000000" fill-rule="nonzero" fill-opacity="1" /><path clip-path="url(#clip520)" d="M50.4612 799.366 Q50.4612 804.076 54.1533 806.814 Q57.8136 809.551 64.2111 809.551 Q70.6086 809.551 74.3007 806.846 Q77.961 804.108 77.961 799.366 Q77.961 794.687 74.2689 791.95 Q70.5768 789.213 64.2111 789.213 Q57.8772 789.213 54.1851 791.95 Q50.4612 794.687 50.4612 799.366 M45.4959 799.366 Q45.4959 791.727 50.4612 787.366 Q55.4264 783.006 64.2111 783.006 Q72.9639 783.006 77.961 787.366 Q82.9263 791.727 82.9263 799.366 Q82.9263 807.037 77.961 811.397 Q72.9639 815.726 64.2111 815.726 Q55.4264 815.726 50.4612 811.397 Q45.4959 807.037 45.4959 799.366 Z" fill="#000000" fill-rule="nonzero" fill-opacity="1" /><path clip-path="url(#clip520)" d="M62.7151 742.807 L65.5797 742.807 L65.5797 769.733 Q71.6271 769.352 74.81 766.105 Q77.961 762.827 77.961 757.002 Q77.961 753.628 77.1335 750.477 Q76.3059 747.294 74.6508 744.175 L80.189 744.175 Q81.5258 747.326 82.226 750.636 Q82.9263 753.947 82.9263 757.352 Q82.9263 765.882 77.961 770.879 Q72.9958 775.845 64.5294 775.845 Q55.7765 775.845 50.6521 771.134 Q45.4959 766.391 45.4959 758.371 Q45.4959 751.177 50.1429 747.008 Q54.758 742.807 62.7151 742.807 M60.9964 748.663 Q56.1903 748.727 53.3257 751.368 Q50.4612 753.978 50.4612 758.307 Q50.4612 763.209 53.2302 766.169 Q55.9993 769.097 61.0282 769.542 L60.9964 748.663 Z" fill="#000000" fill-rule="nonzero" fill-opacity="1" /><path clip-path="url(#clip520)" d="M32.478 715.148 L37.3478 715.148 L37.3478 720.749 Q37.3478 723.9 38.6209 725.142 Q39.8941 726.351 43.2043 726.351 L46.3553 726.351 L46.3553 716.707 L50.9068 716.707 L50.9068 726.351 L82.0032 726.351 L82.0032 732.239 L50.9068 732.239 L50.9068 737.841 L46.3553 737.841 L46.3553 732.239 L43.8727 732.239 Q37.9207 732.239 35.2153 729.47 Q32.478 726.701 32.478 720.686 L32.478 715.148 Z" fill="#000000" fill-rule="nonzero" fill-opacity="1" /><path clip-path="url(#clip520)" d="M32.478 692.199 L37.3478 692.199 L37.3478 697.801 Q37.3478 700.952 38.6209 702.193 Q39.8941 703.403 43.2043 703.403 L46.3553 703.403 L46.3553 693.759 L50.9068 693.759 L50.9068 703.403 L82.0032 703.403 L82.0032 709.291 L50.9068 709.291 L50.9068 714.893 L46.3553 714.893 L46.3553 709.291 L43.8727 709.291 Q37.9207 709.291 35.2153 706.522 Q32.478 703.753 32.478 697.737 L32.478 692.199 Z" fill="#000000" fill-rule="nonzero" fill-opacity="1" /><path clip-path="url(#clip520)" d="M46.3553 687.298 L46.3553 681.441 L82.0032 681.441 L82.0032 687.298 L46.3553 687.298 M32.478 687.298 L32.478 681.441 L39.8941 681.441 L39.8941 687.298 L32.478 687.298 Z" fill="#000000" fill-rule="nonzero" fill-opacity="1" /><path clip-path="url(#clip520)" d="M47.7239 643.533 L53.1984 643.533 Q51.8298 646.016 51.1614 648.53 Q50.4612 651.013 50.4612 653.559 Q50.4612 659.257 54.0896 662.408 Q57.6862 665.559 64.2111 665.559 Q70.7359 665.559 74.3644 662.408 Q77.961 659.257 77.961 653.559 Q77.961 651.013 77.2926 648.53 Q76.5924 646.016 75.2238 643.533 L80.6346 643.533 Q81.7804 645.984 82.3533 648.626 Q82.9263 651.236 82.9263 654.196 Q82.9263 662.249 77.8655 666.991 Q72.8048 671.733 64.2111 671.733 Q55.4901 671.733 50.493 666.959 Q45.4959 662.153 45.4959 653.814 Q45.4959 651.109 46.0688 648.53 Q46.6099 645.952 47.7239 643.533 Z" fill="#000000" fill-rule="nonzero" fill-opacity="1" /><path clip-path="url(#clip520)" d="M46.3553 633.348 L46.3553 627.492 L82.0032 627.492 L82.0032 633.348 L46.3553 633.348 M32.478 633.348 L32.478 627.492 L39.8941 627.492 L39.8941 633.348 L32.478 633.348 Z" fill="#000000" fill-rule="nonzero" fill-opacity="1" /><path clip-path="url(#clip520)" d="M62.7151 584.746 L65.5797 584.746 L65.5797 611.673 Q71.6271 611.291 74.81 608.045 Q77.961 604.766 77.961 598.942 Q77.961 595.568 77.1335 592.417 Q76.3059 589.234 74.6508 586.115 L80.189 586.115 Q81.5258 589.266 82.226 592.576 Q82.9263 595.886 82.9263 599.292 Q82.9263 607.822 77.961 612.819 Q72.9958 617.784 64.5294 617.784 Q55.7765 617.784 50.6521 613.073 Q45.4959 608.331 45.4959 600.31 Q45.4959 593.117 50.1429 588.947 Q54.758 584.746 62.7151 584.746 M60.9964 590.602 Q56.1903 590.666 53.3257 593.308 Q50.4612 595.918 50.4612 600.247 Q50.4612 605.148 53.2302 608.108 Q55.9993 611.036 61.0282 611.482 L60.9964 590.602 Z" fill="#000000" fill-rule="nonzero" fill-opacity="1" /><path clip-path="url(#clip520)" d="M60.4871 545.501 L82.0032 545.501 L82.0032 551.358 L60.6781 551.358 Q55.6174 551.358 53.1029 553.331 Q50.5885 555.305 50.5885 559.251 Q50.5885 563.994 53.6122 566.731 Q56.6359 569.468 61.8558 569.468 L82.0032 569.468 L82.0032 575.357 L46.3553 575.357 L46.3553 569.468 L51.8934 569.468 Q48.6788 567.368 47.0873 564.535 Q45.4959 561.67 45.4959 557.946 Q45.4959 551.803 49.3153 548.652 Q53.1029 545.501 60.4871 545.501 Z" fill="#000000" fill-rule="nonzero" fill-opacity="1" /><path clip-path="url(#clip520)" d="M36.2338 528.028 L46.3553 528.028 L46.3553 515.965 L50.9068 515.965 L50.9068 528.028 L70.2585 528.028 Q74.619 528.028 75.8603 526.85 Q77.1016 525.64 77.1016 521.98 L77.1016 515.965 L82.0032 515.965 L82.0032 521.98 Q82.0032 528.76 79.4888 531.338 Q76.9425 533.916 70.2585 533.916 L50.9068 533.916 L50.9068 538.213 L46.3553 538.213 L46.3553 533.916 L36.2338 533.916 L36.2338 528.028 Z" fill="#000000" fill-rule="nonzero" fill-opacity="1" /><polyline clip-path="url(#clip522)" style="stroke:#008000; stroke-linecap:round; stroke-linejoin:round; stroke-width:4; stroke-opacity:1; fill:none" points="309.067,111.43 312.61,112.18 316.153,112.909 319.696,113.623 323.24,114.332 326.783,115.044 330.326,115.767 333.869,116.511 337.412,117.279 340.955,118.077 344.498,118.908 348.042,119.777 351.585,120.685 355.128,121.636 358.671,122.634 362.214,123.682 365.757,124.785 369.301,125.948 372.844,127.178 376.387,128.479 379.93,129.855 383.473,131.306 387.016,132.827 390.559,134.412 394.103,136.049 397.646,137.727 401.189,139.43 404.732,141.138 408.275,142.83 411.818,144.475 415.361,146.041 418.905,147.492 422.448,148.798 425.991,149.933 429.534,150.881 433.077,151.63 436.62,152.175 440.164,152.503 443.707,152.599 447.25,152.437 450.793,151.992 454.336,151.244 457.879,150.187 461.422,148.846 464.966,147.269 468.509,145.529 472.052,143.709 475.595,141.885 479.138,140.12 482.681,138.449 486.224,136.879 489.768,135.389 493.311,133.939 496.854,132.472 500.397,130.929 503.94,129.254 507.483,127.404 511.027,125.358 514.57,123.121 518.113,120.723 521.656,118.217 525.199,115.67 528.742,113.15 532.285,110.719 535.829,108.422 539.372,106.282 542.915,104.297 546.458,102.445 550.001,100.69 553.544,98.9905 557.087,97.3103 560.631,95.6256 564.174,93.9328 567.717,92.2529 571.26,90.6334 574.803,89.1451 578.346,87.8737 581.89,86.9076 585.433,86.3245 588.976,86.1857 592.519,86.5397 596.062,87.4314 599.605,88.9074 603.148,91.0075 606.692,93.7481 610.235,97.1123 613.778,101.063 617.321,105.579 620.864,110.684 624.407,116.462 627.95,123.029 631.494,130.508 635.037,139.014 638.58,148.666 642.123,159.61 645.666,172.032 649.209,186.145 652.753,202.163 656.296,220.262 659.839,240.575 663.382,263.196 666.925,288.194 670.468,315.633 674.011,345.568 677.555,378.02 681.098,412.94 684.641,450.163 688.184,489.381 691.727,530.128 695.27,571.8 698.813,613.703 702.357,655.133 705.9,695.469 709.443,734.263 712.986,771.308 716.529,806.652 720.072,840.566 723.616,873.475 727.159,905.861 730.702,938.173 734.245,970.755 737.788,1003.79 741.331,1037.25 744.874,1070.93 748.418,1104.39 751.961,1137.11 755.504,1168.48 759.047,1197.98 762.59,1225.23 766.133,1250.03 769.676,1272.4 773.22,1292.48 776.763,1310.47 780.306,1326.55 783.849,1340.82 787.392,1353.26 790.935,1363.79 794.479,1372.27 798.022,1378.56 801.565,1382.56 805.108,1384.2 808.651,1383.46 812.194,1380.37 815.737,1374.97 819.281,1367.33 822.824,1357.6 826.367,1346.02 829.91,1332.89 833.453,1318.56 836.996,1303.37 840.539,1287.58 844.083,1271.37 847.626,1254.83 851.169,1238.02 854.712,1221.03 858.255,1204.05 861.798,1187.37 865.342,1171.38 868.885,1156.52 872.428,1143.15 875.971,1131.5 879.514,1121.66 883.057,1113.54 886.6,1106.96 890.144,1101.68 893.687,1097.49 897.23,1094.18 900.773,1091.63 904.316,1089.74 907.859,1088.46 911.402,1087.73 914.946,1087.5 918.489,1087.69 922.032,1088.19 925.575,1088.83 929.118,1089.42 932.661,1089.74 936.205,1089.62 939.748,1088.92 943.291,1087.61 946.834,1085.73 950.377,1083.41 953.92,1080.82 957.463,1078.11 961.007,1075.44 964.55,1072.89 968.093,1070.49 971.636,1068.25 975.179,1066.12 978.722,1064.08 982.265,1062.11 985.809,1060.18 989.352,1058.28 992.895,1056.39 996.438,1054.49 999.981,1052.53 1003.52,1050.49 1007.07,1048.33 1010.61,1046.01 1014.15,1043.51 1017.7,1040.79 1021.24,1037.83 1024.78,1034.61 1028.33,1031.14 1031.87,1027.45 1035.41,1023.61 1038.96,1019.71 1042.5,1015.81 1046.04,1011.97 1049.59,1008.2 1053.13,1004.46 1056.67,1000.67 1060.21,996.725 1063.76,992.542 1067.3,988.072 1070.84,983.323 1074.39,978.364 1077.93,973.314 1081.47,968.325 1085.02,963.56 1088.56,959.161 1092.1,955.235 1095.65,951.834 1099.19,948.942 1102.73,946.484 1106.28,944.333 1109.82,942.345 1113.36,940.394 1116.91,938.408 1120.45,936.4 1123.99,934.469 1127.53,932.787 1131.08,931.551 1134.62,930.945 1138.16,931.091 1141.71,932.029 1145.25,933.721 1148.79,936.074 1152.34,938.969 1155.88,942.298 1159.42,945.975 1162.97,949.951 1166.51,954.199 1170.05,958.714 1173.6,963.495 1177.14,968.55 1180.68,973.883 1184.23,979.497 1187.77,985.388 1191.31,991.533 1194.85,997.883 1198.4,1004.36 1201.94,1010.84 1205.48,1017.2 1209.03,1023.27 1212.57,1028.9 1216.11,1033.96 1219.66,1038.35 1223.2,1041.99 1226.74,1044.87 1230.29,1046.98 1233.83,1048.36 1237.37,1049.06 1240.92,1049.15 1244.46,1048.72 1248,1047.85 1251.54,1046.6 1255.09,1045.06 1258.63,1043.31 1262.17,1041.47 1265.72,1039.67 1269.26,1038.07 1272.8,1036.82 1276.35,1036.04 1279.89,1035.79 1283.43,1036.03 1286.98,1036.65 1290.52,1037.49 1294.06,1038.36 1297.61,1039.12 1301.15,1039.69 1304.69,1040.11 1308.24,1040.52 1311.78,1041.19 1315.32,1042.38 1318.86,1044.37 1322.41,1047.37 1325.95,1051.42 1329.49,1056.46 1333.04,1062.27 1336.58,1068.54 1340.12,1074.93 1343.67,1081.15 1347.21,1086.99 1350.75,1092.36 1354.3,1097.27 1357.84,1101.78 1361.38,1106 1364.93,1110.02 1368.47,1113.91 1372.01,1117.69 1375.56,1121.39 1379.1,1125 1382.64,1128.54 1386.18,1132.03 1389.73,1135.52 1393.27,1139.09 1396.81,1142.87 1400.36,1147.02 1403.9,1151.73 1407.44,1157.16 1410.99,1163.47 1414.53,1170.71 1418.07,1178.84 1421.62,1187.71 1425.16,1197.1 1428.7,1206.75 1432.25,1216.37 1435.79,1225.73 1439.33,1234.67 1442.87,1243.07 1446.42,1250.91 1449.96,1258.21 1453.5,1265.02 1457.05,1271.43 1460.59,1277.55 1464.13,1283.47 1467.68,1289.28 1471.22,1295.06 1474.76,1300.82 1478.31,1306.57 1481.85,1312.28 1485.39,1317.93 1488.94,1323.48 1492.48,1328.9 1496.02,1334.18 1499.57,1339.29 1503.11,1344.22 1506.65,1348.93 1510.19,1353.42 1513.74,1357.66 1517.28,1361.62 1520.82,1365.29 1524.37,1368.64 1527.91,1371.65 1531.45,1374.31 1535,1376.62 1538.54,1378.58 1542.08,1380.21 1545.63,1381.52 1549.17,1382.55 1552.71,1383.32 1556.26,1383.85 1559.8,1384.15 1563.34,1384.24 1566.89,1384.12 1570.43,1383.79 1573.97,1383.26 1577.51,1382.55 1581.06,1381.67 1584.6,1380.63 1588.14,1379.45 1591.69,1378.14 1595.23,1376.7 1598.77,1375.12 1602.32,1373.38 1605.86,1371.47 1609.4,1369.39 1612.95,1367.14 1616.49,1364.73 1620.03,1362.16 1623.58,1359.47 1627.12,1356.69 1630.66,1353.83 1634.21,1350.94 1637.75,1348.03 1641.29,1345.13 1644.83,1342.26 1648.38,1339.44 1651.92,1336.67 1655.46,1333.97 1659.01,1331.32 1662.55,1328.74 1666.09,1326.21 1669.64,1323.72 1673.18,1321.25 1676.72,1318.8 1680.27,1316.37 1683.81,1313.97 1687.35,1311.61 1690.9,1309.32 1694.44,1307.14 1697.98,1305.08 1701.52,1303.17 1705.07,1301.38 1708.61,1299.72 1712.15,1298.13 1715.7,1296.59 1719.24,1295.06 1722.78,1293.49 1726.33,1291.86 1729.87,1290.13 1733.41,1288.27 1736.96,1286.26 1740.5,1284.05 1744.04,1281.64 1747.59,1279.01 1751.13,1276.16 1754.67,1273.14 1758.22,1269.99 1761.76,1266.77 1765.3,1263.56 1768.84,1260.43 1772.39,1257.43 1775.93,1254.6 1779.47,1251.97 1783.02,1249.53 1786.56,1247.3 1790.1,1245.26 1793.65,1243.4 1797.19,1241.71 1800.73,1240.18 1804.28,1238.76 1807.82,1237.4 1811.36,1236.05 1814.91,1234.64 1818.45,1233.1 1821.99,1231.41 1825.54,1229.51 1829.08,1227.4 1832.62,1225.07 1836.16,1222.53 1839.71,1219.8 1843.25,1216.9 1846.79,1213.87 1850.34,1210.75 1853.88,1207.56 1857.42,1204.33 1860.97,1201.1 1864.51,1197.87 1868.05,1194.66 1871.6,1191.48 1875.14,1188.36 1878.68,1185.3 1882.23,1182.33 1885.77,1179.48 1889.31,1176.76 1892.86,1174.17 1896.4,1171.68 1899.94,1169.25 1903.48,1166.78 1907.03,1164.2 1910.57,1161.41 1914.11,1158.35 1917.66,1154.96 1921.2,1151.27 1924.74,1147.3 1928.29,1143.13 1931.83,1138.87 1935.37,1134.6 1938.92,1130.4 1942.46,1126.33 1946,1122.4 1949.55,1118.6 1953.09,1114.86 1956.63,1111.12 1960.17,1107.27 1963.72,1103.24 1967.26,1098.95 1970.8,1094.35 1974.35,1089.43 1977.89,1084.18 1981.43,1078.65 1984.98,1072.89 1988.52,1066.97 1992.06,1060.94 1995.61,1054.86 1999.15,1048.77 2002.69,1042.71 2006.24,1036.7 2009.78,1030.73 2013.32,1024.78 2016.87,1018.84 2020.41,1012.85 2023.95,1006.78 2027.49,1000.58 2031.04,994.238 2034.58,987.761 2038.12,981.188 2041.67,974.588 2045.21,968.045 2048.75,961.643 2052.3,955.449 2055.84,949.502 2059.38,943.804 2062.93,938.324 2066.47,933.005 2070.01,927.779 2073.56,922.578 2077.1,917.349 2080.64,912.064 2084.19,906.719 2087.73,901.336 2091.27,895.949 2094.81,890.599 2098.36,885.324 2101.9,880.155 2105.44,875.114 2108.99,870.218 2112.53,865.475 2116.07,860.889 2119.62,856.455 2123.16,852.167 2126.7,848.026 2130.25,844.054 2133.79,840.303 2137.33,836.856 2140.88,833.82 2144.42,831.296 2147.96,829.357 2151.5,828.023 2155.05,827.253 2158.59,826.953 2162.13,826.998 2165.68,827.252 2169.22,827.601 2172.76,827.962 2176.31,828.299 2179.85,828.62 2183.39,828.977 2186.94,829.451 2190.48,830.138 2194.02,831.133 2197.57,832.507 2201.11,834.292 2204.65,836.477 2208.2,839.005 2211.74,841.784 2215.28,844.702 2218.82,847.645 2222.37,850.51 2225.91,853.225 2229.45,855.751 2233,858.091 2236.54,860.287 2240.08,862.416 2243.63,864.576 2247.17,866.868 2250.71,869.378 2254.26,872.151 2257.8,875.182 2261.34,878.407 2264.89,881.713 2268.43,884.952 2271.97,887.964 2275.52,890.594 2279.06,892.706 2282.6,894.194 2286.14,894.991 2289.69,895.069 2293.23,894.447 "/>
<polyline clip-path="url(#clip522)" style="stroke:#ff0000; stroke-linecap:round; stroke-linejoin:round; stroke-width:4; stroke-opacity:1; fill:none" stroke-dasharray="16, 10" points="588.976,2799.12 588.976,-1328.69 "/>
<path clip-path="url(#clip520)" d="M1705.25 248.629 L2282.65 248.629 L2282.65 93.1086 L1705.25 93.1086  Z" fill="#ffffff" fill-rule="evenodd" fill-opacity="1"/>
<polyline clip-path="url(#clip520)" style="stroke:#000000; stroke-linecap:round; stroke-linejoin:round; stroke-width:4; stroke-opacity:1; fill:none" points="1705.25,248.629 2282.65,248.629 2282.65,93.1086 1705.25,93.1086 1705.25,248.629 "/>
<polyline clip-path="url(#clip520)" style="stroke:#008000; stroke-linecap:round; stroke-linejoin:round; stroke-width:4; stroke-opacity:1; fill:none" points="1728.62,144.949 1868.84,144.949 "/>
<path clip-path="url(#clip520)" d="M1892.2 133.844 L1896.88 133.844 L1896.88 148.01 L1913.87 148.01 L1913.87 133.844 L1918.55 133.844 L1918.55 168.404 L1913.87 168.404 L1913.87 151.945 L1896.88 151.945 L1896.88 168.404 L1892.2 168.404 L1892.2 133.844 Z" fill="#000000" fill-rule="nonzero" fill-opacity="1" /><path clip-path="url(#clip520)" d="M1937.71 145.464 Q1934.29 145.464 1932.3 148.149 Q1930.31 150.811 1930.31 155.464 Q1930.31 160.117 1932.27 162.802 Q1934.26 165.464 1937.71 165.464 Q1941.12 165.464 1943.11 162.779 Q1945.1 160.094 1945.1 155.464 Q1945.1 150.857 1943.11 148.172 Q1941.12 145.464 1937.71 145.464 M1937.71 141.853 Q1943.27 141.853 1946.44 145.464 Q1949.61 149.075 1949.61 155.464 Q1949.61 161.83 1946.44 165.464 Q1943.27 169.075 1937.71 169.075 Q1932.13 169.075 1928.96 165.464 Q1925.82 161.83 1925.82 155.464 Q1925.82 149.075 1928.96 145.464 Q1932.13 141.853 1937.71 141.853 Z" fill="#000000" fill-rule="nonzero" fill-opacity="1" /><path clip-path="url(#clip520)" d="M1978.22 152.756 L1978.22 168.404 L1973.96 168.404 L1973.96 152.895 Q1973.96 149.214 1972.53 147.385 Q1971.09 145.557 1968.22 145.557 Q1964.77 145.557 1962.78 147.756 Q1960.79 149.955 1960.79 153.751 L1960.79 168.404 L1956.51 168.404 L1956.51 142.478 L1960.79 142.478 L1960.79 146.506 Q1962.32 144.168 1964.38 143.01 Q1966.46 141.853 1969.17 141.853 Q1973.64 141.853 1975.93 144.631 Q1978.22 147.385 1978.22 152.756 Z" fill="#000000" fill-rule="nonzero" fill-opacity="1" /><path clip-path="url(#clip520)" d="M2008.89 154.376 L2008.89 156.459 L1989.31 156.459 Q1989.59 160.857 1991.95 163.172 Q1994.33 165.464 1998.57 165.464 Q2001.02 165.464 2003.31 164.862 Q2005.63 164.26 2007.9 163.057 L2007.9 167.084 Q2005.61 168.056 2003.2 168.566 Q2000.79 169.075 1998.31 169.075 Q1992.11 169.075 1988.48 165.464 Q1984.87 161.853 1984.87 155.695 Q1984.87 149.33 1988.29 145.603 Q1991.74 141.853 1997.57 141.853 Q2002.81 141.853 2005.84 145.233 Q2008.89 148.589 2008.89 154.376 M2004.63 153.126 Q2004.59 149.631 2002.67 147.547 Q2000.77 145.464 1997.62 145.464 Q1994.06 145.464 1991.9 147.478 Q1989.77 149.492 1989.45 153.149 L2004.63 153.126 Z" fill="#000000" fill-rule="nonzero" fill-opacity="1" /><path clip-path="url(#clip520)" d="M2026.67 170.811 Q2024.87 175.441 2023.15 176.853 Q2021.44 178.265 2018.57 178.265 L2015.17 178.265 L2015.17 174.7 L2017.67 174.7 Q2019.43 174.7 2020.4 173.867 Q2021.37 173.033 2022.55 169.931 L2023.31 167.987 L2012.83 142.478 L2017.34 142.478 L2025.44 162.756 L2033.55 142.478 L2038.06 142.478 L2026.67 170.811 Z" fill="#000000" fill-rule="nonzero" fill-opacity="1" /><path clip-path="url(#clip520)" d="M2062.6 143.473 L2062.6 147.455 Q2060.79 146.459 2058.96 145.973 Q2057.16 145.464 2055.31 145.464 Q2051.16 145.464 2048.87 148.103 Q2046.58 150.719 2046.58 155.464 Q2046.58 160.209 2048.87 162.848 Q2051.16 165.464 2055.31 165.464 Q2057.16 165.464 2058.96 164.978 Q2060.79 164.469 2062.6 163.473 L2062.6 167.408 Q2060.81 168.242 2058.89 168.658 Q2057 169.075 2054.84 169.075 Q2048.99 169.075 2045.54 165.394 Q2042.09 161.714 2042.09 155.464 Q2042.09 149.121 2045.56 145.487 Q2049.06 141.853 2055.12 141.853 Q2057.09 141.853 2058.96 142.27 Q2060.84 142.663 2062.6 143.473 Z" fill="#000000" fill-rule="nonzero" fill-opacity="1" /><path clip-path="url(#clip520)" d="M2080.05 145.464 Q2076.62 145.464 2074.63 148.149 Q2072.64 150.811 2072.64 155.464 Q2072.64 160.117 2074.61 162.802 Q2076.6 165.464 2080.05 165.464 Q2083.45 165.464 2085.44 162.779 Q2087.43 160.094 2087.43 155.464 Q2087.43 150.857 2085.44 148.172 Q2083.45 145.464 2080.05 145.464 M2080.05 141.853 Q2085.61 141.853 2088.78 145.464 Q2091.95 149.075 2091.95 155.464 Q2091.95 161.83 2088.78 165.464 Q2085.61 169.075 2080.05 169.075 Q2074.47 169.075 2071.3 165.464 Q2068.15 161.83 2068.15 155.464 Q2068.15 149.075 2071.3 145.464 Q2074.47 141.853 2080.05 141.853 Z" fill="#000000" fill-rule="nonzero" fill-opacity="1" /><path clip-path="url(#clip520)" d="M2119.19 147.455 Q2120.79 144.584 2123.01 143.219 Q2125.24 141.853 2128.24 141.853 Q2132.3 141.853 2134.49 144.7 Q2136.69 147.524 2136.69 152.756 L2136.69 168.404 L2132.41 168.404 L2132.41 152.895 Q2132.41 149.168 2131.09 147.362 Q2129.77 145.557 2127.06 145.557 Q2123.75 145.557 2121.83 147.756 Q2119.91 149.955 2119.91 153.751 L2119.91 168.404 L2115.63 168.404 L2115.63 152.895 Q2115.63 149.145 2114.31 147.362 Q2112.99 145.557 2110.24 145.557 Q2106.97 145.557 2105.05 147.779 Q2103.13 149.978 2103.13 153.751 L2103.13 168.404 L2098.85 168.404 L2098.85 142.478 L2103.13 142.478 L2103.13 146.506 Q2104.59 144.121 2106.62 142.987 Q2108.66 141.853 2111.46 141.853 Q2114.29 141.853 2116.25 143.288 Q2118.24 144.723 2119.19 147.455 Z" fill="#000000" fill-rule="nonzero" fill-opacity="1" /><path clip-path="url(#clip520)" d="M2163.8 155.464 Q2163.8 150.765 2161.86 148.103 Q2159.93 145.418 2156.55 145.418 Q2153.18 145.418 2151.23 148.103 Q2149.31 150.765 2149.31 155.464 Q2149.31 160.163 2151.23 162.848 Q2153.18 165.51 2156.55 165.51 Q2159.93 165.51 2161.86 162.848 Q2163.8 160.163 2163.8 155.464 M2149.31 146.413 Q2150.65 144.098 2152.69 142.987 Q2154.75 141.853 2157.6 141.853 Q2162.32 141.853 2165.26 145.603 Q2168.22 149.353 2168.22 155.464 Q2168.22 161.575 2165.26 165.325 Q2162.32 169.075 2157.6 169.075 Q2154.75 169.075 2152.69 167.964 Q2150.65 166.83 2149.31 164.515 L2149.31 168.404 L2145.03 168.404 L2145.03 132.385 L2149.31 132.385 L2149.31 146.413 Z" fill="#000000" fill-rule="nonzero" fill-opacity="1" /><path clip-path="url(#clip520)" d="M2176.37 162.524 L2181.25 162.524 L2181.25 168.404 L2176.37 168.404 L2176.37 162.524 M2176.37 143.89 L2181.25 143.89 L2181.25 149.77 L2176.37 149.77 L2176.37 143.89 Z" fill="#000000" fill-rule="nonzero" fill-opacity="1" /><path clip-path="url(#clip520)" d="M2230.88 141.866 Q2230.88 141.093 2230.66 140.461 Q2230.48 139.805 2230.17 139.36 Q2229.89 138.891 2229.35 138.54 Q2228.81 138.165 2228.37 137.931 Q2227.92 137.697 2227.18 137.556 Q2226.43 137.392 2225.93 137.322 Q2225.44 137.228 2224.6 137.182 Q2223.76 137.135 2223.33 137.135 Q2222.94 137.135 2222.14 137.135 Q2219.63 137.135 2219.21 137.182 Q2218.58 137.275 2218.34 137.65 Q2218.11 138.001 2217.88 138.962 L2214.76 151.469 L2220.12 151.469 Q2223.05 151.469 2225.07 150.649 Q2227.08 149.83 2228.23 148.682 Q2229.49 147.417 2230.17 145.379 Q2230.88 143.342 2230.88 141.866 M2236.1 163.953 Q2236.1 164.211 2235.89 164.797 Q2235.7 165.382 2235.23 166.202 Q2234.76 166.998 2234.13 167.724 Q2233.5 168.451 2232.49 168.942 Q2231.48 169.458 2230.34 169.458 Q2230.06 169.458 2229.77 169.434 Q2229.49 169.434 2228.79 169.317 Q2228.11 169.223 2227.55 169.036 Q2226.99 168.872 2226.28 168.474 Q2225.58 168.099 2225.09 167.584 Q2224.62 167.045 2224.29 166.202 Q2223.97 165.335 2223.97 164.281 Q2223.97 163.344 2224.74 160.206 Q2225.42 157.536 2225.42 156.88 Q2225.42 156.154 2225.18 155.475 Q2224.97 154.795 2224.43 154.093 Q2223.92 153.39 2222.82 152.968 Q2221.72 152.523 2220.17 152.523 L2214.48 152.523 L2211.29 165.242 Q2211.29 165.265 2211.22 165.593 Q2211.15 165.897 2211.15 166.061 Q2211.15 166.366 2211.34 166.553 Q2211.55 166.741 2212.07 166.834 Q2212.58 166.905 2212.98 166.928 Q2213.4 166.928 2214.27 166.928 Q2215.35 166.928 2215.53 167.115 Q2215.63 167.233 2215.63 167.443 Q2215.63 167.771 2215.53 168.006 Q2215.46 168.216 2215.28 168.287 Q2215.11 168.357 2215 168.38 Q2214.88 168.404 2214.67 168.404 L2208.58 168.263 L2202.53 168.404 Q2201.86 168.404 2201.86 167.865 Q2201.86 167.397 2202.02 167.209 Q2202.18 166.998 2202.39 166.975 Q2202.6 166.928 2203.14 166.928 Q2204.31 166.928 2205.02 166.858 Q2205.72 166.788 2206.17 166.694 Q2206.63 166.577 2206.87 166.249 Q2207.13 165.921 2207.24 165.64 Q2207.36 165.335 2207.52 164.656 L2213.94 138.891 Q2214.13 138.118 2214.13 138.001 Q2214.13 137.556 2213.85 137.439 Q2213.59 137.299 2212.84 137.228 L2211.01 137.135 Q2210.45 137.135 2210.22 137.111 Q2210.01 137.088 2209.84 136.971 Q2209.68 136.854 2209.68 136.596 Q2209.68 135.94 2209.96 135.8 Q2210.24 135.636 2211.06 135.636 L2224.74 135.636 Q2229.4 135.636 2232.35 137.673 Q2235.33 139.711 2235.33 142.826 Q2235.33 144.232 2234.69 145.543 Q2234.06 146.855 2233.01 147.886 Q2231.98 148.916 2230.59 149.783 Q2229.21 150.626 2227.74 151.212 Q2226.28 151.774 2224.79 152.102 Q2225.44 152.336 2226.05 152.687 Q2226.68 153.039 2227.48 153.694 Q2228.3 154.35 2228.79 155.404 Q2229.28 156.458 2229.28 157.746 Q2229.28 158.66 2229.1 160.018 Q2228.63 163.883 2228.63 165.476 Q2228.63 166.998 2229.03 167.701 Q2229.42 168.404 2230.55 168.404 Q2231.65 168.404 2232.87 167.42 Q2234.11 166.413 2234.9 164.047 Q2235.09 163.368 2235.54 163.368 Q2235.56 163.368 2235.58 163.368 Q2235.63 163.368 2235.72 163.415 Q2235.82 163.438 2235.89 163.508 Q2235.98 163.555 2236.03 163.672 Q2236.1 163.789 2236.1 163.953 Z" fill="#000000" fill-rule="nonzero" fill-opacity="1" /><path clip-path="url(#clip520)" d="M2240.88 142.595 Q2240.88 141.988 2240.93 141.808 Q2241 141.628 2241.26 141.349 L2247.7 134.168 Q2251.23 130.2 2251.23 126.74 Q2251.23 124.494 2250.05 122.887 Q2248.88 121.281 2246.73 121.281 Q2245.26 121.281 2244.01 122.182 Q2242.77 123.084 2242.19 124.691 Q2242.29 124.658 2242.64 124.658 Q2243.47 124.658 2243.93 125.183 Q2244.41 125.708 2244.41 126.413 Q2244.41 127.314 2243.82 127.757 Q2243.24 128.183 2242.67 128.183 Q2242.44 128.183 2242.13 128.134 Q2241.83 128.085 2241.36 127.626 Q2240.88 127.15 2240.88 126.314 Q2240.88 123.97 2242.65 122.1 Q2244.44 120.231 2247.16 120.231 Q2250.24 120.231 2252.26 122.068 Q2254.29 123.888 2254.29 126.74 Q2254.29 127.741 2253.98 128.659 Q2253.69 129.561 2253.28 130.266 Q2252.88 130.971 2251.8 132.102 Q2250.72 133.233 2249.85 134.037 Q2248.98 134.84 2247.03 136.545 L2243.47 140.005 L2249.52 140.005 Q2252.47 140.005 2252.7 139.742 Q2253.03 139.267 2253.44 136.758 L2254.29 136.758 L2253.34 142.595 L2240.88 142.595 Z" fill="#000000" fill-rule="nonzero" fill-opacity="1" /><polyline clip-path="url(#clip520)" style="stroke:#ff0000; stroke-linecap:round; stroke-linejoin:round; stroke-width:4; stroke-opacity:1; fill:none" stroke-dasharray="16, 10" points="1728.62,196.789 1868.84,196.789 "/>
<path clip-path="url(#clip520)" d="M1917.27 184.548 Q1917.27 187.968 1915.53 191.271 Q1913.82 194.573 1911.13 196.611 Q1908.44 198.625 1905.7 198.625 Q1904.06 198.625 1902.96 197.735 Q1901.88 196.822 1901.29 195.534 Q1900.85 197.126 1899.89 200.944 Q1898.93 204.762 1898.93 205.137 Q1898.93 205.348 1898.97 205.441 Q1899.02 205.535 1899.23 205.652 Q1899.44 205.793 1899.96 205.839 Q1900.47 205.91 1901.34 205.91 Q1901.78 205.91 1901.95 205.91 Q1902.14 205.933 1902.3 206.05 Q1902.49 206.167 1902.49 206.425 Q1902.49 207.385 1901.62 207.385 Q1900.85 207.385 1899.25 207.315 Q1897.66 207.245 1896.87 207.245 Q1896.19 207.245 1894.83 207.315 Q1893.47 207.385 1892.84 207.385 Q1892.2 207.385 1892.2 206.823 Q1892.2 206.495 1892.3 206.284 Q1892.37 206.097 1892.56 206.003 Q1892.74 205.933 1892.91 205.91 Q1893.05 205.91 1893.33 205.91 Q1894.41 205.91 1894.87 205.722 Q1895.34 205.558 1895.51 205.207 Q1895.69 204.879 1895.9 203.942 L1901.29 182.581 Q1901.62 181.152 1901.62 180.145 Q1901.62 178.88 1901.22 178.412 Q1900.82 177.943 1900.12 177.943 Q1898.9 177.943 1898.11 179.395 Q1897.31 180.848 1896.63 183.658 Q1896.42 184.431 1896.28 184.595 Q1896.16 184.759 1895.81 184.759 Q1895.23 184.736 1895.23 184.267 Q1895.23 184.15 1895.41 183.401 Q1895.6 182.628 1895.95 181.503 Q1896.33 180.356 1896.72 179.63 Q1896.96 179.138 1897.17 178.81 Q1897.38 178.482 1897.8 177.967 Q1898.25 177.451 1898.88 177.17 Q1899.51 176.889 1900.28 176.889 Q1901.78 176.889 1903.03 177.779 Q1904.27 178.669 1904.59 180.473 Q1905.93 178.904 1907.57 177.896 Q1909.21 176.889 1910.87 176.889 Q1913.64 176.889 1915.44 179.044 Q1917.27 181.176 1917.27 184.548 M1913.8 182.44 Q1913.8 180.309 1912.98 179.138 Q1912.18 177.943 1910.73 177.943 Q1908.93 177.943 1906.84 179.77 Q1904.78 181.503 1904.36 183.12 L1901.99 192.512 L1901.85 193.285 Q1901.85 193.426 1901.92 193.847 Q1902.02 194.245 1902.28 194.901 Q1902.56 195.557 1902.93 196.143 Q1903.33 196.705 1904.03 197.126 Q1904.76 197.548 1905.65 197.548 Q1907.08 197.548 1908.62 196.283 Q1910.19 195.018 1911.36 192.629 Q1912.09 191.083 1912.93 187.757 Q1913.8 184.408 1913.8 182.44 Z" fill="#000000" fill-rule="nonzero" fill-opacity="1" /><path clip-path="url(#clip520)" d="M1935.07 212.217 Q1935.2 212.365 1935.2 212.512 Q1935.2 212.66 1934.88 213.086 Q1934.56 213.513 1933.89 214.086 Q1933.22 214.66 1932.35 215.201 Q1931.48 215.742 1930.2 216.103 Q1928.92 216.48 1927.58 216.48 Q1925.07 216.48 1923.6 214.824 Q1922.14 213.168 1922.14 210.791 Q1922.14 208.479 1923.43 206.266 Q1924.73 204.036 1926.83 202.659 Q1928.92 201.265 1931.14 201.265 Q1932.89 201.265 1933.99 202.085 Q1935.09 202.905 1935.09 204.151 Q1935.09 205.118 1934.53 205.708 Q1933.97 206.299 1933.22 206.299 Q1932.7 206.299 1932.33 206.003 Q1931.97 205.692 1931.97 205.118 Q1931.97 204.38 1932.58 203.806 Q1932.81 203.577 1933.07 203.478 Q1933.35 203.364 1933.52 203.364 Q1933.68 203.347 1934.06 203.347 Q1933.71 202.708 1932.89 202.364 Q1932.09 202.003 1931.17 202.003 Q1929.81 202.003 1928.51 202.954 Q1927.22 203.888 1926.43 205.364 Q1925.65 206.807 1925.14 208.856 Q1924.63 210.889 1924.63 212.07 Q1924.63 213.693 1925.38 214.71 Q1926.14 215.726 1927.65 215.726 Q1927.94 215.726 1928.25 215.71 Q1928.58 215.693 1929.4 215.513 Q1930.24 215.333 1930.97 215.021 Q1931.71 214.71 1932.65 214.037 Q1933.6 213.349 1934.35 212.414 Q1934.61 212.07 1934.79 212.07 Q1934.94 212.07 1935.07 212.217 Z" fill="#000000" fill-rule="nonzero" fill-opacity="1" /></svg>
