<?xml version="1.0" encoding="utf-8"?>
<svg xmlns="http://www.w3.org/2000/svg" xmlns:xlink="http://www.w3.org/1999/xlink" width="600" height="400" viewBox="0 0 2400 1600">
<defs>
  <clipPath id="clip840">
    <rect x="0" y="0" width="2400" height="1600"/>
  </clipPath>
</defs>
<path clip-path="url(#clip840)" d="M0 1600 L2400 1600 L2400 0 L0 0  Z" fill="#ffffff" fill-rule="evenodd" fill-opacity="1"/>
<defs>
  <clipPath id="clip841">
    <rect x="480" y="0" width="1681" height="1600"/>
  </clipPath>
</defs>
<path clip-path="url(#clip840)" d="M219.866 1423.18 L2352.76 1423.18 L2352.76 47.2441 L219.866 47.2441  Z" fill="#ffffff" fill-rule="evenodd" fill-opacity="1"/>
<defs>
  <clipPath id="clip842">
    <rect x="219" y="47" width="2134" height="1377"/>
  </clipPath>
</defs>
<polyline clip-path="url(#clip842)" style="stroke:#000000; stroke-linecap:round; stroke-linejoin:round; stroke-width:2; stroke-opacity:0.1; fill:none" points="285.362,1423.18 285.362,47.2441 "/>
<polyline clip-path="url(#clip842)" style="stroke:#000000; stroke-linecap:round; stroke-linejoin:round; stroke-width:2; stroke-opacity:0.1; fill:none" points="486.558,1423.18 486.558,47.2441 "/>
<polyline clip-path="url(#clip842)" style="stroke:#000000; stroke-linecap:round; stroke-linejoin:round; stroke-width:2; stroke-opacity:0.1; fill:none" points="687.754,1423.18 687.754,47.2441 "/>
<polyline clip-path="url(#clip842)" style="stroke:#000000; stroke-linecap:round; stroke-linejoin:round; stroke-width:2; stroke-opacity:0.1; fill:none" points="888.95,1423.18 888.95,47.2441 "/>
<polyline clip-path="url(#clip842)" style="stroke:#000000; stroke-linecap:round; stroke-linejoin:round; stroke-width:2; stroke-opacity:0.1; fill:none" points="1090.15,1423.18 1090.15,47.2441 "/>
<polyline clip-path="url(#clip842)" style="stroke:#000000; stroke-linecap:round; stroke-linejoin:round; stroke-width:2; stroke-opacity:0.1; fill:none" points="1291.34,1423.18 1291.34,47.2441 "/>
<polyline clip-path="url(#clip842)" style="stroke:#000000; stroke-linecap:round; stroke-linejoin:round; stroke-width:2; stroke-opacity:0.1; fill:none" points="1492.54,1423.18 1492.54,47.2441 "/>
<polyline clip-path="url(#clip842)" style="stroke:#000000; stroke-linecap:round; stroke-linejoin:round; stroke-width:2; stroke-opacity:0.1; fill:none" points="1693.73,1423.18 1693.73,47.2441 "/>
<polyline clip-path="url(#clip842)" style="stroke:#000000; stroke-linecap:round; stroke-linejoin:round; stroke-width:2; stroke-opacity:0.1; fill:none" points="1894.93,1423.18 1894.93,47.2441 "/>
<polyline clip-path="url(#clip842)" style="stroke:#000000; stroke-linecap:round; stroke-linejoin:round; stroke-width:2; stroke-opacity:0.1; fill:none" points="2096.13,1423.18 2096.13,47.2441 "/>
<polyline clip-path="url(#clip842)" style="stroke:#000000; stroke-linecap:round; stroke-linejoin:round; stroke-width:2; stroke-opacity:0.1; fill:none" points="2297.32,1423.18 2297.32,47.2441 "/>
<polyline clip-path="url(#clip842)" style="stroke:#000000; stroke-linecap:round; stroke-linejoin:round; stroke-width:2; stroke-opacity:0.1; fill:none" points="219.866,1384.24 2352.76,1384.24 "/>
<polyline clip-path="url(#clip842)" style="stroke:#000000; stroke-linecap:round; stroke-linejoin:round; stroke-width:2; stroke-opacity:0.1; fill:none" points="219.866,1251.12 2352.76,1251.12 "/>
<polyline clip-path="url(#clip842)" style="stroke:#000000; stroke-linecap:round; stroke-linejoin:round; stroke-width:2; stroke-opacity:0.1; fill:none" points="219.866,1117.99 2352.76,1117.99 "/>
<polyline clip-path="url(#clip842)" style="stroke:#000000; stroke-linecap:round; stroke-linejoin:round; stroke-width:2; stroke-opacity:0.1; fill:none" points="219.866,984.869 2352.76,984.869 "/>
<polyline clip-path="url(#clip842)" style="stroke:#000000; stroke-linecap:round; stroke-linejoin:round; stroke-width:2; stroke-opacity:0.1; fill:none" points="219.866,851.746 2352.76,851.746 "/>
<polyline clip-path="url(#clip842)" style="stroke:#000000; stroke-linecap:round; stroke-linejoin:round; stroke-width:2; stroke-opacity:0.1; fill:none" points="219.866,718.623 2352.76,718.623 "/>
<polyline clip-path="url(#clip842)" style="stroke:#000000; stroke-linecap:round; stroke-linejoin:round; stroke-width:2; stroke-opacity:0.1; fill:none" points="219.866,585.5 2352.76,585.5 "/>
<polyline clip-path="url(#clip842)" style="stroke:#000000; stroke-linecap:round; stroke-linejoin:round; stroke-width:2; stroke-opacity:0.1; fill:none" points="219.866,452.377 2352.76,452.377 "/>
<polyline clip-path="url(#clip842)" style="stroke:#000000; stroke-linecap:round; stroke-linejoin:round; stroke-width:2; stroke-opacity:0.1; fill:none" points="219.866,319.254 2352.76,319.254 "/>
<polyline clip-path="url(#clip842)" style="stroke:#000000; stroke-linecap:round; stroke-linejoin:round; stroke-width:2; stroke-opacity:0.1; fill:none" points="219.866,186.131 2352.76,186.131 "/>
<polyline clip-path="url(#clip842)" style="stroke:#000000; stroke-linecap:round; stroke-linejoin:round; stroke-width:2; stroke-opacity:0.1; fill:none" points="219.866,53.0084 2352.76,53.0084 "/>
<polyline clip-path="url(#clip840)" style="stroke:#000000; stroke-linecap:round; stroke-linejoin:round; stroke-width:4; stroke-opacity:1; fill:none" points="219.866,1423.18 2352.76,1423.18 "/>
<polyline clip-path="url(#clip840)" style="stroke:#000000; stroke-linecap:round; stroke-linejoin:round; stroke-width:4; stroke-opacity:1; fill:none" points="285.362,1423.18 285.362,1404.28 "/>
<polyline clip-path="url(#clip840)" style="stroke:#000000; stroke-linecap:round; stroke-linejoin:round; stroke-width:4; stroke-opacity:1; fill:none" points="486.558,1423.18 486.558,1404.28 "/>
<polyline clip-path="url(#clip840)" style="stroke:#000000; stroke-linecap:round; stroke-linejoin:round; stroke-width:4; stroke-opacity:1; fill:none" points="687.754,1423.18 687.754,1404.28 "/>
<polyline clip-path="url(#clip840)" style="stroke:#000000; stroke-linecap:round; stroke-linejoin:round; stroke-width:4; stroke-opacity:1; fill:none" points="888.95,1423.18 888.95,1404.28 "/>
<polyline clip-path="url(#clip840)" style="stroke:#000000; stroke-linecap:round; stroke-linejoin:round; stroke-width:4; stroke-opacity:1; fill:none" points="1090.15,1423.18 1090.15,1404.28 "/>
<polyline clip-path="url(#clip840)" style="stroke:#000000; stroke-linecap:round; stroke-linejoin:round; stroke-width:4; stroke-opacity:1; fill:none" points="1291.34,1423.18 1291.34,1404.28 "/>
<polyline clip-path="url(#clip840)" style="stroke:#000000; stroke-linecap:round; stroke-linejoin:round; stroke-width:4; stroke-opacity:1; fill:none" points="1492.54,1423.18 1492.54,1404.28 "/>
<polyline clip-path="url(#clip840)" style="stroke:#000000; stroke-linecap:round; stroke-linejoin:round; stroke-width:4; stroke-opacity:1; fill:none" points="1693.73,1423.18 1693.73,1404.28 "/>
<polyline clip-path="url(#clip840)" style="stroke:#000000; stroke-linecap:round; stroke-linejoin:round; stroke-width:4; stroke-opacity:1; fill:none" points="1894.93,1423.18 1894.93,1404.28 "/>
<polyline clip-path="url(#clip840)" style="stroke:#000000; stroke-linecap:round; stroke-linejoin:round; stroke-width:4; stroke-opacity:1; fill:none" points="2096.13,1423.18 2096.13,1404.28 "/>
<polyline clip-path="url(#clip840)" style="stroke:#000000; stroke-linecap:round; stroke-linejoin:round; stroke-width:4; stroke-opacity:1; fill:none" points="2297.32,1423.18 2297.32,1404.28 "/>
<path clip-path="url(#clip840)" d="M232.585 1454.1 Q228.973 1454.1 227.145 1457.66 Q225.339 1461.2 225.339 1468.33 Q225.339 1475.44 227.145 1479.01 Q228.973 1482.55 232.585 1482.55 Q236.219 1482.55 238.024 1479.01 Q239.853 1475.44 239.853 1468.33 Q239.853 1461.2 238.024 1457.66 Q236.219 1454.1 232.585 1454.1 M232.585 1450.39 Q238.395 1450.39 241.45 1455 Q244.529 1459.58 244.529 1468.33 Q244.529 1477.06 241.45 1481.67 Q238.395 1486.25 232.585 1486.25 Q226.774 1486.25 223.696 1481.67 Q220.64 1477.06 220.64 1468.33 Q220.64 1459.58 223.696 1455 Q226.774 1450.39 232.585 1450.39 Z" fill="#000000" fill-rule="nonzero" fill-opacity="1" /><path clip-path="url(#clip840)" d="M252.747 1479.7 L257.631 1479.7 L257.631 1485.58 L252.747 1485.58 L252.747 1479.7 Z" fill="#000000" fill-rule="nonzero" fill-opacity="1" /><path clip-path="url(#clip840)" d="M280.663 1455.09 L268.858 1473.54 L280.663 1473.54 L280.663 1455.09 M279.436 1451.02 L285.316 1451.02 L285.316 1473.54 L290.246 1473.54 L290.246 1477.43 L285.316 1477.43 L285.316 1485.58 L280.663 1485.58 L280.663 1477.43 L265.061 1477.43 L265.061 1472.92 L279.436 1451.02 Z" fill="#000000" fill-rule="nonzero" fill-opacity="1" /><path clip-path="url(#clip840)" d="M298.117 1484.86 L298.117 1480.6 Q299.876 1481.44 301.681 1481.88 Q303.487 1482.32 305.223 1482.32 Q309.853 1482.32 312.283 1479.21 Q314.737 1476.09 315.084 1469.75 Q313.742 1471.74 311.681 1472.8 Q309.621 1473.87 307.121 1473.87 Q301.936 1473.87 298.904 1470.74 Q295.894 1467.59 295.894 1462.15 Q295.894 1456.83 299.043 1453.61 Q302.191 1450.39 307.422 1450.39 Q313.417 1450.39 316.566 1455 Q319.737 1459.58 319.737 1468.33 Q319.737 1476.51 315.848 1481.39 Q311.982 1486.25 305.431 1486.25 Q303.672 1486.25 301.867 1485.9 Q300.061 1485.56 298.117 1484.86 M307.422 1470.21 Q310.57 1470.21 312.399 1468.06 Q314.251 1465.9 314.251 1462.15 Q314.251 1458.43 312.399 1456.27 Q310.57 1454.1 307.422 1454.1 Q304.274 1454.1 302.422 1456.27 Q300.593 1458.43 300.593 1462.15 Q300.593 1465.9 302.422 1468.06 Q304.274 1470.21 307.422 1470.21 Z" fill="#000000" fill-rule="nonzero" fill-opacity="1" /><path clip-path="url(#clip840)" d="M338.14 1454.1 Q334.528 1454.1 332.7 1457.66 Q330.894 1461.2 330.894 1468.33 Q330.894 1475.44 332.7 1479.01 Q334.528 1482.55 338.14 1482.55 Q341.774 1482.55 343.579 1479.01 Q345.408 1475.44 345.408 1468.33 Q345.408 1461.2 343.579 1457.66 Q341.774 1454.1 338.14 1454.1 M338.14 1450.39 Q343.95 1450.39 347.005 1455 Q350.084 1459.58 350.084 1468.33 Q350.084 1477.06 347.005 1481.67 Q343.95 1486.25 338.14 1486.25 Q332.329 1486.25 329.251 1481.67 Q326.195 1477.06 326.195 1468.33 Q326.195 1459.58 329.251 1455 Q332.329 1450.39 338.14 1450.39 Z" fill="#000000" fill-rule="nonzero" fill-opacity="1" /><path clip-path="url(#clip840)" d="M434.579 1454.1 Q430.968 1454.1 429.139 1457.66 Q427.334 1461.2 427.334 1468.33 Q427.334 1475.44 429.139 1479.01 Q430.968 1482.55 434.579 1482.55 Q438.213 1482.55 440.019 1479.01 Q441.848 1475.44 441.848 1468.33 Q441.848 1461.2 440.019 1457.66 Q438.213 1454.1 434.579 1454.1 M434.579 1450.39 Q440.389 1450.39 443.445 1455 Q446.523 1459.58 446.523 1468.33 Q446.523 1477.06 443.445 1481.67 Q440.389 1486.25 434.579 1486.25 Q428.769 1486.25 425.69 1481.67 Q422.635 1477.06 422.635 1468.33 Q422.635 1459.58 425.69 1455 Q428.769 1450.39 434.579 1450.39 Z" fill="#000000" fill-rule="nonzero" fill-opacity="1" /><path clip-path="url(#clip840)" d="M454.741 1479.7 L459.625 1479.7 L459.625 1485.58 L454.741 1485.58 L454.741 1479.7 Z" fill="#000000" fill-rule="nonzero" fill-opacity="1" /><path clip-path="url(#clip840)" d="M482.658 1455.09 L470.852 1473.54 L482.658 1473.54 L482.658 1455.09 M481.431 1451.02 L487.31 1451.02 L487.31 1473.54 L492.241 1473.54 L492.241 1477.43 L487.31 1477.43 L487.31 1485.58 L482.658 1485.58 L482.658 1477.43 L467.056 1477.43 L467.056 1472.92 L481.431 1451.02 Z" fill="#000000" fill-rule="nonzero" fill-opacity="1" /><path clip-path="url(#clip840)" d="M500.111 1484.86 L500.111 1480.6 Q501.87 1481.44 503.676 1481.88 Q505.481 1482.32 507.218 1482.32 Q511.847 1482.32 514.278 1479.21 Q516.731 1476.09 517.079 1469.75 Q515.736 1471.74 513.676 1472.8 Q511.616 1473.87 509.116 1473.87 Q503.931 1473.87 500.898 1470.74 Q497.889 1467.59 497.889 1462.15 Q497.889 1456.83 501.037 1453.61 Q504.185 1450.39 509.417 1450.39 Q515.412 1450.39 518.56 1455 Q521.731 1459.58 521.731 1468.33 Q521.731 1476.51 517.843 1481.39 Q513.977 1486.25 507.426 1486.25 Q505.667 1486.25 503.861 1485.9 Q502.056 1485.56 500.111 1484.86 M509.417 1470.21 Q512.565 1470.21 514.393 1468.06 Q516.245 1465.9 516.245 1462.15 Q516.245 1458.43 514.393 1456.27 Q512.565 1454.1 509.417 1454.1 Q506.268 1454.1 504.417 1456.27 Q502.588 1458.43 502.588 1462.15 Q502.588 1465.9 504.417 1468.06 Q506.268 1470.21 509.417 1470.21 Z" fill="#000000" fill-rule="nonzero" fill-opacity="1" /><path clip-path="url(#clip840)" d="M534.162 1481.64 L550.481 1481.64 L550.481 1485.58 L528.537 1485.58 L528.537 1481.64 Q531.199 1478.89 535.782 1474.26 Q540.389 1469.61 541.569 1468.27 Q543.815 1465.74 544.694 1464.01 Q545.597 1462.25 545.597 1460.56 Q545.597 1457.8 543.653 1456.07 Q541.731 1454.33 538.629 1454.33 Q536.43 1454.33 533.977 1455.09 Q531.546 1455.86 528.768 1457.41 L528.768 1452.69 Q531.592 1451.55 534.046 1450.97 Q536.5 1450.39 538.537 1450.39 Q543.907 1450.39 547.102 1453.08 Q550.296 1455.77 550.296 1460.26 Q550.296 1462.39 549.486 1464.31 Q548.699 1466.2 546.592 1468.8 Q546.014 1469.47 542.912 1472.69 Q539.81 1475.88 534.162 1481.64 Z" fill="#000000" fill-rule="nonzero" fill-opacity="1" /><path clip-path="url(#clip840)" d="M634.733 1454.1 Q631.122 1454.1 629.294 1457.66 Q627.488 1461.2 627.488 1468.33 Q627.488 1475.44 629.294 1479.01 Q631.122 1482.55 634.733 1482.55 Q638.368 1482.55 640.173 1479.01 Q642.002 1475.44 642.002 1468.33 Q642.002 1461.2 640.173 1457.66 Q638.368 1454.1 634.733 1454.1 M634.733 1450.39 Q640.543 1450.39 643.599 1455 Q646.678 1459.58 646.678 1468.33 Q646.678 1477.06 643.599 1481.67 Q640.543 1486.25 634.733 1486.25 Q628.923 1486.25 625.844 1481.67 Q622.789 1477.06 622.789 1468.33 Q622.789 1459.58 625.844 1455 Q628.923 1450.39 634.733 1450.39 Z" fill="#000000" fill-rule="nonzero" fill-opacity="1" /><path clip-path="url(#clip840)" d="M654.895 1479.7 L659.779 1479.7 L659.779 1485.58 L654.895 1485.58 L654.895 1479.7 Z" fill="#000000" fill-rule="nonzero" fill-opacity="1" /><path clip-path="url(#clip840)" d="M682.812 1455.09 L671.006 1473.54 L682.812 1473.54 L682.812 1455.09 M681.585 1451.02 L687.464 1451.02 L687.464 1473.54 L692.395 1473.54 L692.395 1477.43 L687.464 1477.43 L687.464 1485.58 L682.812 1485.58 L682.812 1477.43 L667.21 1477.43 L667.21 1472.92 L681.585 1451.02 Z" fill="#000000" fill-rule="nonzero" fill-opacity="1" /><path clip-path="url(#clip840)" d="M700.265 1484.86 L700.265 1480.6 Q702.025 1481.44 703.83 1481.88 Q705.636 1482.32 707.372 1482.32 Q712.001 1482.32 714.432 1479.21 Q716.886 1476.09 717.233 1469.75 Q715.89 1471.74 713.83 1472.8 Q711.77 1473.87 709.27 1473.87 Q704.085 1473.87 701.052 1470.74 Q698.043 1467.59 698.043 1462.15 Q698.043 1456.83 701.191 1453.61 Q704.339 1450.39 709.571 1450.39 Q715.566 1450.39 718.714 1455 Q721.886 1459.58 721.886 1468.33 Q721.886 1476.51 717.997 1481.39 Q714.131 1486.25 707.58 1486.25 Q705.821 1486.25 704.015 1485.9 Q702.21 1485.56 700.265 1484.86 M709.571 1470.21 Q712.719 1470.21 714.548 1468.06 Q716.4 1465.9 716.4 1462.15 Q716.4 1458.43 714.548 1456.27 Q712.719 1454.1 709.571 1454.1 Q706.423 1454.1 704.571 1456.27 Q702.742 1458.43 702.742 1462.15 Q702.742 1465.9 704.571 1468.06 Q706.423 1470.21 709.571 1470.21 Z" fill="#000000" fill-rule="nonzero" fill-opacity="1" /><path clip-path="url(#clip840)" d="M743.135 1455.09 L731.33 1473.54 L743.135 1473.54 L743.135 1455.09 M741.909 1451.02 L747.788 1451.02 L747.788 1473.54 L752.719 1473.54 L752.719 1477.43 L747.788 1477.43 L747.788 1485.58 L743.135 1485.58 L743.135 1477.43 L727.534 1477.43 L727.534 1472.92 L741.909 1451.02 Z" fill="#000000" fill-rule="nonzero" fill-opacity="1" /><path clip-path="url(#clip840)" d="M836.091 1454.1 Q832.48 1454.1 830.651 1457.66 Q828.846 1461.2 828.846 1468.33 Q828.846 1475.44 830.651 1479.01 Q832.48 1482.55 836.091 1482.55 Q839.725 1482.55 841.531 1479.01 Q843.36 1475.44 843.36 1468.33 Q843.36 1461.2 841.531 1457.66 Q839.725 1454.1 836.091 1454.1 M836.091 1450.39 Q841.901 1450.39 844.957 1455 Q848.036 1459.58 848.036 1468.33 Q848.036 1477.06 844.957 1481.67 Q841.901 1486.25 836.091 1486.25 Q830.281 1486.25 827.202 1481.67 Q824.147 1477.06 824.147 1468.33 Q824.147 1459.58 827.202 1455 Q830.281 1450.39 836.091 1450.39 Z" fill="#000000" fill-rule="nonzero" fill-opacity="1" /><path clip-path="url(#clip840)" d="M856.253 1479.7 L861.137 1479.7 L861.137 1485.58 L856.253 1485.58 L856.253 1479.7 Z" fill="#000000" fill-rule="nonzero" fill-opacity="1" /><path clip-path="url(#clip840)" d="M884.17 1455.09 L872.364 1473.54 L884.17 1473.54 L884.17 1455.09 M882.943 1451.02 L888.822 1451.02 L888.822 1473.54 L893.753 1473.54 L893.753 1477.43 L888.822 1477.43 L888.822 1485.58 L884.17 1485.58 L884.17 1477.43 L868.568 1477.43 L868.568 1472.92 L882.943 1451.02 Z" fill="#000000" fill-rule="nonzero" fill-opacity="1" /><path clip-path="url(#clip840)" d="M901.623 1484.86 L901.623 1480.6 Q903.383 1481.44 905.188 1481.88 Q906.994 1482.32 908.73 1482.32 Q913.359 1482.32 915.79 1479.21 Q918.244 1476.09 918.591 1469.75 Q917.248 1471.74 915.188 1472.8 Q913.128 1473.87 910.628 1473.87 Q905.443 1473.87 902.41 1470.74 Q899.401 1467.59 899.401 1462.15 Q899.401 1456.83 902.549 1453.61 Q905.697 1450.39 910.929 1450.39 Q916.924 1450.39 920.072 1455 Q923.244 1459.58 923.244 1468.33 Q923.244 1476.51 919.355 1481.39 Q915.489 1486.25 908.938 1486.25 Q907.179 1486.25 905.373 1485.9 Q903.568 1485.56 901.623 1484.86 M910.929 1470.21 Q914.077 1470.21 915.906 1468.06 Q917.757 1465.9 917.757 1462.15 Q917.757 1458.43 915.906 1456.27 Q914.077 1454.1 910.929 1454.1 Q907.781 1454.1 905.929 1456.27 Q904.1 1458.43 904.1 1462.15 Q904.1 1465.9 905.929 1468.06 Q907.781 1470.21 910.929 1470.21 Z" fill="#000000" fill-rule="nonzero" fill-opacity="1" /><path clip-path="url(#clip840)" d="M942.225 1466.44 Q939.077 1466.44 937.225 1468.59 Q935.396 1470.74 935.396 1474.49 Q935.396 1478.22 937.225 1480.39 Q939.077 1482.55 942.225 1482.55 Q945.373 1482.55 947.202 1480.39 Q949.054 1478.22 949.054 1474.49 Q949.054 1470.74 947.202 1468.59 Q945.373 1466.44 942.225 1466.44 M951.507 1451.78 L951.507 1456.04 Q949.748 1455.21 947.942 1454.77 Q946.16 1454.33 944.401 1454.33 Q939.771 1454.33 937.318 1457.45 Q934.887 1460.58 934.54 1466.9 Q935.905 1464.89 937.966 1463.82 Q940.026 1462.73 942.503 1462.73 Q947.711 1462.73 950.72 1465.9 Q953.753 1469.05 953.753 1474.49 Q953.753 1479.82 950.604 1483.03 Q947.456 1486.25 942.225 1486.25 Q936.23 1486.25 933.058 1481.67 Q929.887 1477.06 929.887 1468.33 Q929.887 1460.14 933.776 1455.28 Q937.665 1450.39 944.216 1450.39 Q945.975 1450.39 947.757 1450.74 Q949.563 1451.09 951.507 1451.78 Z" fill="#000000" fill-rule="nonzero" fill-opacity="1" /><path clip-path="url(#clip840)" d="M1037.41 1454.1 Q1033.8 1454.1 1031.97 1457.66 Q1030.17 1461.2 1030.17 1468.33 Q1030.17 1475.44 1031.97 1479.01 Q1033.8 1482.55 1037.41 1482.55 Q1041.05 1482.55 1042.85 1479.01 Q1044.68 1475.44 1044.68 1468.33 Q1044.68 1461.2 1042.85 1457.66 Q1041.05 1454.1 1037.41 1454.1 M1037.41 1450.39 Q1043.22 1450.39 1046.28 1455 Q1049.36 1459.58 1049.36 1468.33 Q1049.36 1477.06 1046.28 1481.67 Q1043.22 1486.25 1037.41 1486.25 Q1031.6 1486.25 1028.53 1481.67 Q1025.47 1477.06 1025.47 1468.33 Q1025.47 1459.58 1028.53 1455 Q1031.6 1450.39 1037.41 1450.39 Z" fill="#000000" fill-rule="nonzero" fill-opacity="1" /><path clip-path="url(#clip840)" d="M1057.58 1479.7 L1062.46 1479.7 L1062.46 1485.58 L1057.58 1485.58 L1057.58 1479.7 Z" fill="#000000" fill-rule="nonzero" fill-opacity="1" /><path clip-path="url(#clip840)" d="M1085.49 1455.09 L1073.69 1473.54 L1085.49 1473.54 L1085.49 1455.09 M1084.27 1451.02 L1090.15 1451.02 L1090.15 1473.54 L1095.08 1473.54 L1095.08 1477.43 L1090.15 1477.43 L1090.15 1485.58 L1085.49 1485.58 L1085.49 1477.43 L1069.89 1477.43 L1069.89 1472.92 L1084.27 1451.02 Z" fill="#000000" fill-rule="nonzero" fill-opacity="1" /><path clip-path="url(#clip840)" d="M1102.95 1484.86 L1102.95 1480.6 Q1104.71 1481.44 1106.51 1481.88 Q1108.32 1482.32 1110.05 1482.32 Q1114.68 1482.32 1117.11 1479.21 Q1119.57 1476.09 1119.91 1469.75 Q1118.57 1471.74 1116.51 1472.8 Q1114.45 1473.87 1111.95 1473.87 Q1106.77 1473.87 1103.73 1470.74 Q1100.72 1467.59 1100.72 1462.15 Q1100.72 1456.83 1103.87 1453.61 Q1107.02 1450.39 1112.25 1450.39 Q1118.25 1450.39 1121.4 1455 Q1124.57 1459.58 1124.57 1468.33 Q1124.57 1476.51 1120.68 1481.39 Q1116.81 1486.25 1110.26 1486.25 Q1108.5 1486.25 1106.7 1485.9 Q1104.89 1485.56 1102.95 1484.86 M1112.25 1470.21 Q1115.4 1470.21 1117.23 1468.06 Q1119.08 1465.9 1119.08 1462.15 Q1119.08 1458.43 1117.23 1456.27 Q1115.4 1454.1 1112.25 1454.1 Q1109.1 1454.1 1107.25 1456.27 Q1105.42 1458.43 1105.42 1462.15 Q1105.42 1465.9 1107.25 1468.06 Q1109.1 1470.21 1112.25 1470.21 Z" fill="#000000" fill-rule="nonzero" fill-opacity="1" /><path clip-path="url(#clip840)" d="M1142.97 1469.17 Q1139.64 1469.17 1137.71 1470.95 Q1135.82 1472.73 1135.82 1475.86 Q1135.82 1478.98 1137.71 1480.77 Q1139.64 1482.55 1142.97 1482.55 Q1146.3 1482.55 1148.22 1480.77 Q1150.15 1478.96 1150.15 1475.86 Q1150.15 1472.73 1148.22 1470.95 Q1146.33 1469.17 1142.97 1469.17 M1138.29 1467.18 Q1135.28 1466.44 1133.59 1464.38 Q1131.93 1462.32 1131.93 1459.35 Q1131.93 1455.21 1134.87 1452.8 Q1137.83 1450.39 1142.97 1450.39 Q1148.13 1450.39 1151.07 1452.8 Q1154.01 1455.21 1154.01 1459.35 Q1154.01 1462.32 1152.32 1464.38 Q1150.65 1466.44 1147.67 1467.18 Q1151.05 1467.96 1152.92 1470.26 Q1154.82 1472.55 1154.82 1475.86 Q1154.82 1480.88 1151.74 1483.57 Q1148.69 1486.25 1142.97 1486.25 Q1137.25 1486.25 1134.17 1483.57 Q1131.12 1480.88 1131.12 1475.86 Q1131.12 1472.55 1133.02 1470.26 Q1134.91 1467.96 1138.29 1467.18 M1136.58 1459.79 Q1136.58 1462.48 1138.25 1463.98 Q1139.94 1465.49 1142.97 1465.49 Q1145.98 1465.49 1147.67 1463.98 Q1149.38 1462.48 1149.38 1459.79 Q1149.38 1457.11 1147.67 1455.6 Q1145.98 1454.1 1142.97 1454.1 Q1139.94 1454.1 1138.25 1455.6 Q1136.58 1457.11 1136.58 1459.79 Z" fill="#000000" fill-rule="nonzero" fill-opacity="1" /><path clip-path="url(#clip840)" d="M1238.56 1454.1 Q1234.95 1454.1 1233.12 1457.66 Q1231.32 1461.2 1231.32 1468.33 Q1231.32 1475.44 1233.12 1479.01 Q1234.95 1482.55 1238.56 1482.55 Q1242.2 1482.55 1244 1479.01 Q1245.83 1475.44 1245.83 1468.33 Q1245.83 1461.2 1244 1457.66 Q1242.2 1454.1 1238.56 1454.1 M1238.56 1450.39 Q1244.37 1450.39 1247.43 1455 Q1250.51 1459.58 1250.51 1468.33 Q1250.51 1477.06 1247.43 1481.67 Q1244.37 1486.25 1238.56 1486.25 Q1232.75 1486.25 1229.68 1481.67 Q1226.62 1477.06 1226.62 1468.33 Q1226.62 1459.58 1229.68 1455 Q1232.75 1450.39 1238.56 1450.39 Z" fill="#000000" fill-rule="nonzero" fill-opacity="1" /><path clip-path="url(#clip840)" d="M1258.73 1479.7 L1263.61 1479.7 L1263.61 1485.58 L1258.73 1485.58 L1258.73 1479.7 Z" fill="#000000" fill-rule="nonzero" fill-opacity="1" /><path clip-path="url(#clip840)" d="M1273.84 1451.02 L1292.2 1451.02 L1292.2 1454.96 L1278.12 1454.96 L1278.12 1463.43 Q1279.14 1463.08 1280.16 1462.92 Q1281.18 1462.73 1282.2 1462.73 Q1287.99 1462.73 1291.36 1465.9 Q1294.74 1469.08 1294.74 1474.49 Q1294.74 1480.07 1291.27 1483.17 Q1287.8 1486.25 1281.48 1486.25 Q1279.3 1486.25 1277.04 1485.88 Q1274.79 1485.51 1272.38 1484.77 L1272.38 1480.07 Q1274.47 1481.2 1276.69 1481.76 Q1278.91 1482.32 1281.39 1482.32 Q1285.39 1482.32 1287.73 1480.21 Q1290.07 1478.1 1290.07 1474.49 Q1290.07 1470.88 1287.73 1468.77 Q1285.39 1466.67 1281.39 1466.67 Q1279.51 1466.67 1277.64 1467.08 Q1275.79 1467.5 1273.84 1468.38 L1273.84 1451.02 Z" fill="#000000" fill-rule="nonzero" fill-opacity="1" /><path clip-path="url(#clip840)" d="M1313.96 1454.1 Q1310.35 1454.1 1308.52 1457.66 Q1306.71 1461.2 1306.71 1468.33 Q1306.71 1475.44 1308.52 1479.01 Q1310.35 1482.55 1313.96 1482.55 Q1317.59 1482.55 1319.4 1479.01 Q1321.23 1475.44 1321.23 1468.33 Q1321.23 1461.2 1319.4 1457.66 Q1317.59 1454.1 1313.96 1454.1 M1313.96 1450.39 Q1319.77 1450.39 1322.82 1455 Q1325.9 1459.58 1325.9 1468.33 Q1325.9 1477.06 1322.82 1481.67 Q1319.77 1486.25 1313.96 1486.25 Q1308.15 1486.25 1305.07 1481.67 Q1302.01 1477.06 1302.01 1468.33 Q1302.01 1459.58 1305.07 1455 Q1308.15 1450.39 1313.96 1450.39 Z" fill="#000000" fill-rule="nonzero" fill-opacity="1" /><path clip-path="url(#clip840)" d="M1344.12 1454.1 Q1340.51 1454.1 1338.68 1457.66 Q1336.87 1461.2 1336.87 1468.33 Q1336.87 1475.44 1338.68 1479.01 Q1340.51 1482.55 1344.12 1482.55 Q1347.75 1482.55 1349.56 1479.01 Q1351.39 1475.44 1351.39 1468.33 Q1351.39 1461.2 1349.56 1457.66 Q1347.75 1454.1 1344.12 1454.1 M1344.12 1450.39 Q1349.93 1450.39 1352.98 1455 Q1356.06 1459.58 1356.06 1468.33 Q1356.06 1477.06 1352.98 1481.67 Q1349.93 1486.25 1344.12 1486.25 Q1338.31 1486.25 1335.23 1481.67 Q1332.17 1477.06 1332.17 1468.33 Q1332.17 1459.58 1335.23 1455 Q1338.31 1450.39 1344.12 1450.39 Z" fill="#000000" fill-rule="nonzero" fill-opacity="1" /><path clip-path="url(#clip840)" d="M1440.56 1454.1 Q1436.95 1454.1 1435.12 1457.66 Q1433.31 1461.2 1433.31 1468.33 Q1433.31 1475.44 1435.12 1479.01 Q1436.95 1482.55 1440.56 1482.55 Q1444.19 1482.55 1446 1479.01 Q1447.83 1475.44 1447.83 1468.33 Q1447.83 1461.2 1446 1457.66 Q1444.19 1454.1 1440.56 1454.1 M1440.56 1450.39 Q1446.37 1450.39 1449.42 1455 Q1452.5 1459.58 1452.5 1468.33 Q1452.5 1477.06 1449.42 1481.67 Q1446.37 1486.25 1440.56 1486.25 Q1434.75 1486.25 1431.67 1481.67 Q1428.61 1477.06 1428.61 1468.33 Q1428.61 1459.58 1431.67 1455 Q1434.75 1450.39 1440.56 1450.39 Z" fill="#000000" fill-rule="nonzero" fill-opacity="1" /><path clip-path="url(#clip840)" d="M1460.72 1479.7 L1465.6 1479.7 L1465.6 1485.58 L1460.72 1485.58 L1460.72 1479.7 Z" fill="#000000" fill-rule="nonzero" fill-opacity="1" /><path clip-path="url(#clip840)" d="M1475.84 1451.02 L1494.19 1451.02 L1494.19 1454.96 L1480.12 1454.96 L1480.12 1463.43 Q1481.14 1463.08 1482.16 1462.92 Q1483.17 1462.73 1484.19 1462.73 Q1489.98 1462.73 1493.36 1465.9 Q1496.74 1469.08 1496.74 1474.49 Q1496.74 1480.07 1493.27 1483.17 Q1489.79 1486.25 1483.47 1486.25 Q1481.3 1486.25 1479.03 1485.88 Q1476.79 1485.51 1474.38 1484.77 L1474.38 1480.07 Q1476.46 1481.2 1478.68 1481.76 Q1480.91 1482.32 1483.38 1482.32 Q1487.39 1482.32 1489.72 1480.21 Q1492.06 1478.1 1492.06 1474.49 Q1492.06 1470.88 1489.72 1468.77 Q1487.39 1466.67 1483.38 1466.67 Q1481.51 1466.67 1479.63 1467.08 Q1477.78 1467.5 1475.84 1468.38 L1475.84 1451.02 Z" fill="#000000" fill-rule="nonzero" fill-opacity="1" /><path clip-path="url(#clip840)" d="M1515.95 1454.1 Q1512.34 1454.1 1510.51 1457.66 Q1508.71 1461.2 1508.71 1468.33 Q1508.71 1475.44 1510.51 1479.01 Q1512.34 1482.55 1515.95 1482.55 Q1519.59 1482.55 1521.39 1479.01 Q1523.22 1475.44 1523.22 1468.33 Q1523.22 1461.2 1521.39 1457.66 Q1519.59 1454.1 1515.95 1454.1 M1515.95 1450.39 Q1521.76 1450.39 1524.82 1455 Q1527.9 1459.58 1527.9 1468.33 Q1527.9 1477.06 1524.82 1481.67 Q1521.76 1486.25 1515.95 1486.25 Q1510.14 1486.25 1507.06 1481.67 Q1504.01 1477.06 1504.01 1468.33 Q1504.01 1459.58 1507.06 1455 Q1510.14 1450.39 1515.95 1450.39 Z" fill="#000000" fill-rule="nonzero" fill-opacity="1" /><path clip-path="url(#clip840)" d="M1540.14 1481.64 L1556.46 1481.64 L1556.46 1485.58 L1534.52 1485.58 L1534.52 1481.64 Q1537.18 1478.89 1541.76 1474.26 Q1546.37 1469.61 1547.55 1468.27 Q1549.79 1465.74 1550.67 1464.01 Q1551.58 1462.25 1551.58 1460.56 Q1551.58 1457.8 1549.63 1456.07 Q1547.71 1454.33 1544.61 1454.33 Q1542.41 1454.33 1539.96 1455.09 Q1537.53 1455.86 1534.75 1457.41 L1534.75 1452.69 Q1537.57 1451.55 1540.03 1450.97 Q1542.48 1450.39 1544.52 1450.39 Q1549.89 1450.39 1553.08 1453.08 Q1556.28 1455.77 1556.28 1460.26 Q1556.28 1462.39 1555.47 1464.31 Q1554.68 1466.2 1552.57 1468.8 Q1551.99 1469.47 1548.89 1472.69 Q1545.79 1475.88 1540.14 1481.64 Z" fill="#000000" fill-rule="nonzero" fill-opacity="1" /><path clip-path="url(#clip840)" d="M1640.71 1454.1 Q1637.1 1454.1 1635.27 1457.66 Q1633.47 1461.2 1633.47 1468.33 Q1633.47 1475.44 1635.27 1479.01 Q1637.1 1482.55 1640.71 1482.55 Q1644.35 1482.55 1646.15 1479.01 Q1647.98 1475.44 1647.98 1468.33 Q1647.98 1461.2 1646.15 1457.66 Q1644.35 1454.1 1640.71 1454.1 M1640.71 1450.39 Q1646.52 1450.39 1649.58 1455 Q1652.66 1459.58 1652.66 1468.33 Q1652.66 1477.06 1649.58 1481.67 Q1646.52 1486.25 1640.71 1486.25 Q1634.9 1486.25 1631.82 1481.67 Q1628.77 1477.06 1628.77 1468.33 Q1628.77 1459.58 1631.82 1455 Q1634.9 1450.39 1640.71 1450.39 Z" fill="#000000" fill-rule="nonzero" fill-opacity="1" /><path clip-path="url(#clip840)" d="M1660.87 1479.7 L1665.76 1479.7 L1665.76 1485.58 L1660.87 1485.58 L1660.87 1479.7 Z" fill="#000000" fill-rule="nonzero" fill-opacity="1" /><path clip-path="url(#clip840)" d="M1675.99 1451.02 L1694.35 1451.02 L1694.35 1454.96 L1680.27 1454.96 L1680.27 1463.43 Q1681.29 1463.08 1682.31 1462.92 Q1683.33 1462.73 1684.35 1462.73 Q1690.13 1462.73 1693.51 1465.9 Q1696.89 1469.08 1696.89 1474.49 Q1696.89 1480.07 1693.42 1483.17 Q1689.95 1486.25 1683.63 1486.25 Q1681.45 1486.25 1679.18 1485.88 Q1676.94 1485.51 1674.53 1484.77 L1674.53 1480.07 Q1676.62 1481.2 1678.84 1481.76 Q1681.06 1482.32 1683.54 1482.32 Q1687.54 1482.32 1689.88 1480.21 Q1692.22 1478.1 1692.22 1474.49 Q1692.22 1470.88 1689.88 1468.77 Q1687.54 1466.67 1683.54 1466.67 Q1681.66 1466.67 1679.79 1467.08 Q1677.93 1467.5 1675.99 1468.38 L1675.99 1451.02 Z" fill="#000000" fill-rule="nonzero" fill-opacity="1" /><path clip-path="url(#clip840)" d="M1716.11 1454.1 Q1712.49 1454.1 1710.67 1457.66 Q1708.86 1461.2 1708.86 1468.33 Q1708.86 1475.44 1710.67 1479.01 Q1712.49 1482.55 1716.11 1482.55 Q1719.74 1482.55 1721.55 1479.01 Q1723.37 1475.44 1723.37 1468.33 Q1723.37 1461.2 1721.55 1457.66 Q1719.74 1454.1 1716.11 1454.1 M1716.11 1450.39 Q1721.92 1450.39 1724.97 1455 Q1728.05 1459.58 1728.05 1468.33 Q1728.05 1477.06 1724.97 1481.67 Q1721.92 1486.25 1716.11 1486.25 Q1710.3 1486.25 1707.22 1481.67 Q1704.16 1477.06 1704.16 1468.33 Q1704.16 1459.58 1707.22 1455 Q1710.3 1450.39 1716.11 1450.39 Z" fill="#000000" fill-rule="nonzero" fill-opacity="1" /><path clip-path="url(#clip840)" d="M1749.11 1455.09 L1737.31 1473.54 L1749.11 1473.54 L1749.11 1455.09 M1747.89 1451.02 L1753.77 1451.02 L1753.77 1473.54 L1758.7 1473.54 L1758.7 1477.43 L1753.77 1477.43 L1753.77 1485.58 L1749.11 1485.58 L1749.11 1477.43 L1733.51 1477.43 L1733.51 1472.92 L1747.89 1451.02 Z" fill="#000000" fill-rule="nonzero" fill-opacity="1" /><path clip-path="url(#clip840)" d="M1842.07 1454.1 Q1838.46 1454.1 1836.63 1457.66 Q1834.83 1461.2 1834.83 1468.33 Q1834.83 1475.44 1836.63 1479.01 Q1838.46 1482.55 1842.07 1482.55 Q1845.7 1482.55 1847.51 1479.01 Q1849.34 1475.44 1849.34 1468.33 Q1849.34 1461.2 1847.51 1457.66 Q1845.7 1454.1 1842.07 1454.1 M1842.07 1450.39 Q1847.88 1450.39 1850.94 1455 Q1854.01 1459.58 1854.01 1468.33 Q1854.01 1477.06 1850.94 1481.67 Q1847.88 1486.25 1842.07 1486.25 Q1836.26 1486.25 1833.18 1481.67 Q1830.13 1477.06 1830.13 1468.33 Q1830.13 1459.58 1833.18 1455 Q1836.26 1450.39 1842.07 1450.39 Z" fill="#000000" fill-rule="nonzero" fill-opacity="1" /><path clip-path="url(#clip840)" d="M1862.23 1479.7 L1867.12 1479.7 L1867.12 1485.58 L1862.23 1485.58 L1862.23 1479.7 Z" fill="#000000" fill-rule="nonzero" fill-opacity="1" /><path clip-path="url(#clip840)" d="M1877.35 1451.02 L1895.7 1451.02 L1895.7 1454.96 L1881.63 1454.96 L1881.63 1463.43 Q1882.65 1463.08 1883.67 1462.92 Q1884.69 1462.73 1885.7 1462.73 Q1891.49 1462.73 1894.87 1465.9 Q1898.25 1469.08 1898.25 1474.49 Q1898.25 1480.07 1894.78 1483.17 Q1891.31 1486.25 1884.99 1486.25 Q1882.81 1486.25 1880.54 1485.88 Q1878.3 1485.51 1875.89 1484.77 L1875.89 1480.07 Q1877.97 1481.2 1880.2 1481.76 Q1882.42 1482.32 1884.89 1482.32 Q1888.9 1482.32 1891.24 1480.21 Q1893.57 1478.1 1893.57 1474.49 Q1893.57 1470.88 1891.24 1468.77 Q1888.9 1466.67 1884.89 1466.67 Q1883.02 1466.67 1881.14 1467.08 Q1879.29 1467.5 1877.35 1468.38 L1877.35 1451.02 Z" fill="#000000" fill-rule="nonzero" fill-opacity="1" /><path clip-path="url(#clip840)" d="M1917.46 1454.1 Q1913.85 1454.1 1912.02 1457.66 Q1910.22 1461.2 1910.22 1468.33 Q1910.22 1475.44 1912.02 1479.01 Q1913.85 1482.55 1917.46 1482.55 Q1921.1 1482.55 1922.9 1479.01 Q1924.73 1475.44 1924.73 1468.33 Q1924.73 1461.2 1922.9 1457.66 Q1921.1 1454.1 1917.46 1454.1 M1917.46 1450.39 Q1923.27 1450.39 1926.33 1455 Q1929.41 1459.58 1929.41 1468.33 Q1929.41 1477.06 1926.33 1481.67 Q1923.27 1486.25 1917.46 1486.25 Q1911.65 1486.25 1908.57 1481.67 Q1905.52 1477.06 1905.52 1468.33 Q1905.52 1459.58 1908.57 1455 Q1911.65 1450.39 1917.46 1450.39 Z" fill="#000000" fill-rule="nonzero" fill-opacity="1" /><path clip-path="url(#clip840)" d="M1948.2 1466.44 Q1945.06 1466.44 1943.2 1468.59 Q1941.38 1470.74 1941.38 1474.49 Q1941.38 1478.22 1943.2 1480.39 Q1945.06 1482.55 1948.2 1482.55 Q1951.35 1482.55 1953.18 1480.39 Q1955.03 1478.22 1955.03 1474.49 Q1955.03 1470.74 1953.18 1468.59 Q1951.35 1466.44 1948.2 1466.44 M1957.49 1451.78 L1957.49 1456.04 Q1955.73 1455.21 1953.92 1454.77 Q1952.14 1454.33 1950.38 1454.33 Q1945.75 1454.33 1943.3 1457.45 Q1940.87 1460.58 1940.52 1466.9 Q1941.88 1464.89 1943.95 1463.82 Q1946.01 1462.73 1948.48 1462.73 Q1953.69 1462.73 1956.7 1465.9 Q1959.73 1469.05 1959.73 1474.49 Q1959.73 1479.82 1956.58 1483.03 Q1953.44 1486.25 1948.2 1486.25 Q1942.21 1486.25 1939.04 1481.67 Q1935.87 1477.06 1935.87 1468.33 Q1935.87 1460.14 1939.76 1455.28 Q1943.64 1450.39 1950.2 1450.39 Q1951.95 1450.39 1953.74 1450.74 Q1955.54 1451.09 1957.49 1451.78 Z" fill="#000000" fill-rule="nonzero" fill-opacity="1" /><path clip-path="url(#clip840)" d="M2043.39 1454.1 Q2039.78 1454.1 2037.95 1457.66 Q2036.15 1461.2 2036.15 1468.33 Q2036.15 1475.44 2037.95 1479.01 Q2039.78 1482.55 2043.39 1482.55 Q2047.03 1482.55 2048.83 1479.01 Q2050.66 1475.44 2050.66 1468.33 Q2050.66 1461.2 2048.83 1457.66 Q2047.03 1454.1 2043.39 1454.1 M2043.39 1450.39 Q2049.2 1450.39 2052.26 1455 Q2055.34 1459.58 2055.34 1468.33 Q2055.34 1477.06 2052.26 1481.67 Q2049.2 1486.25 2043.39 1486.25 Q2037.58 1486.25 2034.5 1481.67 Q2031.45 1477.06 2031.45 1468.33 Q2031.45 1459.58 2034.5 1455 Q2037.58 1450.39 2043.39 1450.39 Z" fill="#000000" fill-rule="nonzero" fill-opacity="1" /><path clip-path="url(#clip840)" d="M2063.56 1479.7 L2068.44 1479.7 L2068.44 1485.58 L2063.56 1485.58 L2063.56 1479.7 Z" fill="#000000" fill-rule="nonzero" fill-opacity="1" /><path clip-path="url(#clip840)" d="M2078.67 1451.02 L2097.03 1451.02 L2097.03 1454.96 L2082.95 1454.96 L2082.95 1463.43 Q2083.97 1463.08 2084.99 1462.92 Q2086.01 1462.73 2087.03 1462.73 Q2092.81 1462.73 2096.19 1465.9 Q2099.57 1469.08 2099.57 1474.49 Q2099.57 1480.07 2096.1 1483.17 Q2092.63 1486.25 2086.31 1486.25 Q2084.13 1486.25 2081.87 1485.88 Q2079.62 1485.51 2077.21 1484.77 L2077.21 1480.07 Q2079.3 1481.2 2081.52 1481.76 Q2083.74 1482.32 2086.22 1482.32 Q2090.22 1482.32 2092.56 1480.21 Q2094.9 1478.1 2094.9 1474.49 Q2094.9 1470.88 2092.56 1468.77 Q2090.22 1466.67 2086.22 1466.67 Q2084.34 1466.67 2082.47 1467.08 Q2080.62 1467.5 2078.67 1468.38 L2078.67 1451.02 Z" fill="#000000" fill-rule="nonzero" fill-opacity="1" /><path clip-path="url(#clip840)" d="M2118.79 1454.1 Q2115.18 1454.1 2113.35 1457.66 Q2111.54 1461.2 2111.54 1468.33 Q2111.54 1475.44 2113.35 1479.01 Q2115.18 1482.55 2118.79 1482.55 Q2122.42 1482.55 2124.23 1479.01 Q2126.06 1475.44 2126.06 1468.33 Q2126.06 1461.2 2124.23 1457.66 Q2122.42 1454.1 2118.79 1454.1 M2118.79 1450.39 Q2124.6 1450.39 2127.65 1455 Q2130.73 1459.58 2130.73 1468.33 Q2130.73 1477.06 2127.65 1481.67 Q2124.6 1486.25 2118.79 1486.25 Q2112.98 1486.25 2109.9 1481.67 Q2106.84 1477.06 2106.84 1468.33 Q2106.84 1459.58 2109.9 1455 Q2112.98 1450.39 2118.79 1450.39 Z" fill="#000000" fill-rule="nonzero" fill-opacity="1" /><path clip-path="url(#clip840)" d="M2148.95 1469.17 Q2145.62 1469.17 2143.69 1470.95 Q2141.8 1472.73 2141.8 1475.86 Q2141.8 1478.98 2143.69 1480.77 Q2145.62 1482.55 2148.95 1482.55 Q2152.28 1482.55 2154.2 1480.77 Q2156.12 1478.96 2156.12 1475.86 Q2156.12 1472.73 2154.2 1470.95 Q2152.31 1469.17 2148.95 1469.17 M2144.27 1467.18 Q2141.26 1466.44 2139.57 1464.38 Q2137.91 1462.32 2137.91 1459.35 Q2137.91 1455.21 2140.85 1452.8 Q2143.81 1450.39 2148.95 1450.39 Q2154.11 1450.39 2157.05 1452.8 Q2159.99 1455.21 2159.99 1459.35 Q2159.99 1462.32 2158.3 1464.38 Q2156.63 1466.44 2153.65 1467.18 Q2157.03 1467.96 2158.9 1470.26 Q2160.8 1472.55 2160.8 1475.86 Q2160.8 1480.88 2157.72 1483.57 Q2154.67 1486.25 2148.95 1486.25 Q2143.23 1486.25 2140.15 1483.57 Q2137.1 1480.88 2137.1 1475.86 Q2137.1 1472.55 2139 1470.26 Q2140.89 1467.96 2144.27 1467.18 M2142.56 1459.79 Q2142.56 1462.48 2144.23 1463.98 Q2145.92 1465.49 2148.95 1465.49 Q2151.96 1465.49 2153.65 1463.98 Q2155.36 1462.48 2155.36 1459.79 Q2155.36 1457.11 2153.65 1455.6 Q2151.96 1454.1 2148.95 1454.1 Q2145.92 1454.1 2144.23 1455.6 Q2142.56 1457.11 2142.56 1459.79 Z" fill="#000000" fill-rule="nonzero" fill-opacity="1" /><path clip-path="url(#clip840)" d="M2244.54 1454.1 Q2240.93 1454.1 2239.1 1457.66 Q2237.3 1461.2 2237.3 1468.33 Q2237.3 1475.44 2239.1 1479.01 Q2240.93 1482.55 2244.54 1482.55 Q2248.18 1482.55 2249.98 1479.01 Q2251.81 1475.44 2251.81 1468.33 Q2251.81 1461.2 2249.98 1457.66 Q2248.18 1454.1 2244.54 1454.1 M2244.54 1450.39 Q2250.35 1450.39 2253.41 1455 Q2256.49 1459.58 2256.49 1468.33 Q2256.49 1477.06 2253.41 1481.67 Q2250.35 1486.25 2244.54 1486.25 Q2238.73 1486.25 2235.65 1481.67 Q2232.6 1477.06 2232.6 1468.33 Q2232.6 1459.58 2235.65 1455 Q2238.73 1450.39 2244.54 1450.39 Z" fill="#000000" fill-rule="nonzero" fill-opacity="1" /><path clip-path="url(#clip840)" d="M2264.71 1479.7 L2269.59 1479.7 L2269.59 1485.58 L2264.71 1485.58 L2264.71 1479.7 Z" fill="#000000" fill-rule="nonzero" fill-opacity="1" /><path clip-path="url(#clip840)" d="M2279.82 1451.02 L2298.18 1451.02 L2298.18 1454.96 L2284.1 1454.96 L2284.1 1463.43 Q2285.12 1463.08 2286.14 1462.92 Q2287.16 1462.73 2288.18 1462.73 Q2293.96 1462.73 2297.34 1465.9 Q2300.72 1469.08 2300.72 1474.49 Q2300.72 1480.07 2297.25 1483.17 Q2293.78 1486.25 2287.46 1486.25 Q2285.28 1486.25 2283.02 1485.88 Q2280.77 1485.51 2278.36 1484.77 L2278.36 1480.07 Q2280.45 1481.2 2282.67 1481.76 Q2284.89 1482.32 2287.37 1482.32 Q2291.37 1482.32 2293.71 1480.21 Q2296.05 1478.1 2296.05 1474.49 Q2296.05 1470.88 2293.71 1468.77 Q2291.37 1466.67 2287.37 1466.67 Q2285.49 1466.67 2283.62 1467.08 Q2281.77 1467.5 2279.82 1468.38 L2279.82 1451.02 Z" fill="#000000" fill-rule="nonzero" fill-opacity="1" /><path clip-path="url(#clip840)" d="M2310.75 1481.64 L2318.39 1481.64 L2318.39 1455.28 L2310.08 1456.95 L2310.08 1452.69 L2318.34 1451.02 L2323.02 1451.02 L2323.02 1481.64 L2330.65 1481.64 L2330.65 1485.58 L2310.75 1485.58 L2310.75 1481.64 Z" fill="#000000" fill-rule="nonzero" fill-opacity="1" /><path clip-path="url(#clip840)" d="M2350.1 1454.1 Q2346.49 1454.1 2344.66 1457.66 Q2342.85 1461.2 2342.85 1468.33 Q2342.85 1475.44 2344.66 1479.01 Q2346.49 1482.55 2350.1 1482.55 Q2353.73 1482.55 2355.54 1479.01 Q2357.37 1475.44 2357.37 1468.33 Q2357.37 1461.2 2355.54 1457.66 Q2353.73 1454.1 2350.1 1454.1 M2350.1 1450.39 Q2355.91 1450.39 2358.96 1455 Q2362.04 1459.58 2362.04 1468.33 Q2362.04 1477.06 2358.96 1481.67 Q2355.91 1486.25 2350.1 1486.25 Q2344.29 1486.25 2341.21 1481.67 Q2338.15 1477.06 2338.15 1468.33 Q2338.15 1459.58 2341.21 1455 Q2344.29 1450.39 2350.1 1450.39 Z" fill="#000000" fill-rule="nonzero" fill-opacity="1" /><path clip-path="url(#clip840)" d="M1276.43 1550.25 Q1276.43 1556.71 1279.07 1560.4 Q1281.74 1564.07 1286.39 1564.07 Q1291.04 1564.07 1293.71 1560.4 Q1296.38 1556.71 1296.38 1550.25 Q1296.38 1543.79 1293.71 1540.13 Q1291.04 1536.44 1286.39 1536.44 Q1281.74 1536.44 1279.07 1540.13 Q1276.43 1543.79 1276.43 1550.25 M1296.38 1562.7 Q1294.54 1565.88 1291.71 1567.44 Q1288.91 1568.97 1284.96 1568.97 Q1278.5 1568.97 1274.42 1563.81 Q1270.38 1558.65 1270.38 1550.25 Q1270.38 1541.85 1274.42 1536.69 Q1278.5 1531.54 1284.96 1531.54 Q1288.91 1531.54 1291.71 1533.1 Q1294.54 1534.62 1296.38 1537.81 L1296.38 1532.4 L1302.24 1532.4 L1302.24 1581.6 L1296.38 1581.6 L1296.38 1562.7 Z" fill="#000000" fill-rule="nonzero" fill-opacity="1" /><polyline clip-path="url(#clip840)" style="stroke:#000000; stroke-linecap:round; stroke-linejoin:round; stroke-width:4; stroke-opacity:1; fill:none" points="219.866,1423.18 219.866,47.2441 "/>
<polyline clip-path="url(#clip840)" style="stroke:#000000; stroke-linecap:round; stroke-linejoin:round; stroke-width:4; stroke-opacity:1; fill:none" points="219.866,1384.24 238.764,1384.24 "/>
<polyline clip-path="url(#clip840)" style="stroke:#000000; stroke-linecap:round; stroke-linejoin:round; stroke-width:4; stroke-opacity:1; fill:none" points="219.866,1251.12 238.764,1251.12 "/>
<polyline clip-path="url(#clip840)" style="stroke:#000000; stroke-linecap:round; stroke-linejoin:round; stroke-width:4; stroke-opacity:1; fill:none" points="219.866,1117.99 238.764,1117.99 "/>
<polyline clip-path="url(#clip840)" style="stroke:#000000; stroke-linecap:round; stroke-linejoin:round; stroke-width:4; stroke-opacity:1; fill:none" points="219.866,984.869 238.764,984.869 "/>
<polyline clip-path="url(#clip840)" style="stroke:#000000; stroke-linecap:round; stroke-linejoin:round; stroke-width:4; stroke-opacity:1; fill:none" points="219.866,851.746 238.764,851.746 "/>
<polyline clip-path="url(#clip840)" style="stroke:#000000; stroke-linecap:round; stroke-linejoin:round; stroke-width:4; stroke-opacity:1; fill:none" points="219.866,718.623 238.764,718.623 "/>
<polyline clip-path="url(#clip840)" style="stroke:#000000; stroke-linecap:round; stroke-linejoin:round; stroke-width:4; stroke-opacity:1; fill:none" points="219.866,585.5 238.764,585.5 "/>
<polyline clip-path="url(#clip840)" style="stroke:#000000; stroke-linecap:round; stroke-linejoin:round; stroke-width:4; stroke-opacity:1; fill:none" points="219.866,452.377 238.764,452.377 "/>
<polyline clip-path="url(#clip840)" style="stroke:#000000; stroke-linecap:round; stroke-linejoin:round; stroke-width:4; stroke-opacity:1; fill:none" points="219.866,319.254 238.764,319.254 "/>
<polyline clip-path="url(#clip840)" style="stroke:#000000; stroke-linecap:round; stroke-linejoin:round; stroke-width:4; stroke-opacity:1; fill:none" points="219.866,186.131 238.764,186.131 "/>
<polyline clip-path="url(#clip840)" style="stroke:#000000; stroke-linecap:round; stroke-linejoin:round; stroke-width:4; stroke-opacity:1; fill:none" points="219.866,53.0084 238.764,53.0084 "/>
<path clip-path="url(#clip840)" d="M126.691 1370.04 Q123.08 1370.04 121.251 1373.6 Q119.445 1377.14 119.445 1384.27 Q119.445 1391.38 121.251 1394.94 Q123.08 1398.49 126.691 1398.49 Q130.325 1398.49 132.13 1394.94 Q133.959 1391.38 133.959 1384.27 Q133.959 1377.14 132.13 1373.6 Q130.325 1370.04 126.691 1370.04 M126.691 1366.33 Q132.501 1366.33 135.556 1370.94 Q138.635 1375.52 138.635 1384.27 Q138.635 1393 135.556 1397.61 Q132.501 1402.19 126.691 1402.19 Q120.88 1402.19 117.802 1397.61 Q114.746 1393 114.746 1384.27 Q114.746 1375.52 117.802 1370.94 Q120.88 1366.33 126.691 1366.33 Z" fill="#000000" fill-rule="nonzero" fill-opacity="1" /><path clip-path="url(#clip840)" d="M146.853 1395.64 L151.737 1395.64 L151.737 1401.52 L146.853 1401.52 L146.853 1395.64 Z" fill="#000000" fill-rule="nonzero" fill-opacity="1" /><path clip-path="url(#clip840)" d="M171.922 1370.04 Q168.311 1370.04 166.482 1373.6 Q164.677 1377.14 164.677 1384.27 Q164.677 1391.38 166.482 1394.94 Q168.311 1398.49 171.922 1398.49 Q175.556 1398.49 177.362 1394.94 Q179.19 1391.38 179.19 1384.27 Q179.19 1377.14 177.362 1373.6 Q175.556 1370.04 171.922 1370.04 M171.922 1366.33 Q177.732 1366.33 180.788 1370.94 Q183.866 1375.52 183.866 1384.27 Q183.866 1393 180.788 1397.61 Q177.732 1402.19 171.922 1402.19 Q166.112 1402.19 163.033 1397.61 Q159.978 1393 159.978 1384.27 Q159.978 1375.52 163.033 1370.94 Q166.112 1366.33 171.922 1366.33 Z" fill="#000000" fill-rule="nonzero" fill-opacity="1" /><path clip-path="url(#clip840)" d="M127.917 1236.91 Q124.306 1236.91 122.478 1240.48 Q120.672 1244.02 120.672 1251.15 Q120.672 1258.26 122.478 1261.82 Q124.306 1265.36 127.917 1265.36 Q131.552 1265.36 133.357 1261.82 Q135.186 1258.26 135.186 1251.15 Q135.186 1244.02 133.357 1240.48 Q131.552 1236.91 127.917 1236.91 M127.917 1233.21 Q133.728 1233.21 136.783 1237.82 Q139.862 1242.4 139.862 1251.15 Q139.862 1259.88 136.783 1264.48 Q133.728 1269.07 127.917 1269.07 Q122.107 1269.07 119.029 1264.48 Q115.973 1259.88 115.973 1251.15 Q115.973 1242.4 119.029 1237.82 Q122.107 1233.21 127.917 1233.21 Z" fill="#000000" fill-rule="nonzero" fill-opacity="1" /><path clip-path="url(#clip840)" d="M148.079 1262.52 L152.964 1262.52 L152.964 1268.4 L148.079 1268.4 L148.079 1262.52 Z" fill="#000000" fill-rule="nonzero" fill-opacity="1" /><path clip-path="url(#clip840)" d="M163.959 1264.46 L171.598 1264.46 L171.598 1238.09 L163.288 1239.76 L163.288 1235.5 L171.552 1233.84 L176.227 1233.84 L176.227 1264.46 L183.866 1264.46 L183.866 1268.4 L163.959 1268.4 L163.959 1264.46 Z" fill="#000000" fill-rule="nonzero" fill-opacity="1" /><path clip-path="url(#clip840)" d="M128.288 1103.79 Q124.677 1103.79 122.848 1107.36 Q121.043 1110.9 121.043 1118.03 Q121.043 1125.13 122.848 1128.7 Q124.677 1132.24 128.288 1132.24 Q131.922 1132.24 133.728 1128.7 Q135.556 1125.13 135.556 1118.03 Q135.556 1110.9 133.728 1107.36 Q131.922 1103.79 128.288 1103.79 M128.288 1100.09 Q134.098 1100.09 137.154 1104.69 Q140.232 1109.28 140.232 1118.03 Q140.232 1126.75 137.154 1131.36 Q134.098 1135.94 128.288 1135.94 Q122.478 1135.94 119.399 1131.36 Q116.343 1126.75 116.343 1118.03 Q116.343 1109.28 119.399 1104.69 Q122.478 1100.09 128.288 1100.09 Z" fill="#000000" fill-rule="nonzero" fill-opacity="1" /><path clip-path="url(#clip840)" d="M148.45 1129.39 L153.334 1129.39 L153.334 1135.27 L148.45 1135.27 L148.45 1129.39 Z" fill="#000000" fill-rule="nonzero" fill-opacity="1" /><path clip-path="url(#clip840)" d="M167.547 1131.34 L183.866 1131.34 L183.866 1135.27 L161.922 1135.27 L161.922 1131.34 Q164.584 1128.58 169.167 1123.95 Q173.774 1119.3 174.954 1117.96 Q177.2 1115.43 178.079 1113.7 Q178.982 1111.94 178.982 1110.25 Q178.982 1107.49 177.038 1105.76 Q175.116 1104.02 172.014 1104.02 Q169.815 1104.02 167.362 1104.79 Q164.931 1105.55 162.153 1107.1 L162.153 1102.38 Q164.977 1101.24 167.431 1100.67 Q169.885 1100.09 171.922 1100.09 Q177.292 1100.09 180.487 1102.77 Q183.681 1105.46 183.681 1109.95 Q183.681 1112.08 182.871 1114 Q182.084 1115.9 179.977 1118.49 Q179.399 1119.16 176.297 1122.38 Q173.195 1125.57 167.547 1131.34 Z" fill="#000000" fill-rule="nonzero" fill-opacity="1" /><path clip-path="url(#clip840)" d="M127.339 970.668 Q123.728 970.668 121.899 974.233 Q120.093 977.775 120.093 984.904 Q120.093 992.011 121.899 995.575 Q123.728 999.117 127.339 999.117 Q130.973 999.117 132.779 995.575 Q134.607 992.011 134.607 984.904 Q134.607 977.775 132.779 974.233 Q130.973 970.668 127.339 970.668 M127.339 966.964 Q133.149 966.964 136.204 971.571 Q139.283 976.154 139.283 984.904 Q139.283 993.631 136.204 998.237 Q133.149 1002.82 127.339 1002.82 Q121.529 1002.82 118.45 998.237 Q115.394 993.631 115.394 984.904 Q115.394 976.154 118.45 971.571 Q121.529 966.964 127.339 966.964 Z" fill="#000000" fill-rule="nonzero" fill-opacity="1" /><path clip-path="url(#clip840)" d="M147.501 996.27 L152.385 996.27 L152.385 1002.15 L147.501 1002.15 L147.501 996.27 Z" fill="#000000" fill-rule="nonzero" fill-opacity="1" /><path clip-path="url(#clip840)" d="M176.737 983.515 Q180.093 984.233 181.968 986.501 Q183.866 988.77 183.866 992.103 Q183.866 997.219 180.348 1000.02 Q176.829 1002.82 170.348 1002.82 Q168.172 1002.82 165.857 1002.38 Q163.565 1001.96 161.112 1001.11 L161.112 996.594 Q163.056 997.728 165.371 998.307 Q167.686 998.886 170.209 998.886 Q174.607 998.886 176.899 997.149 Q179.214 995.413 179.214 992.103 Q179.214 989.048 177.061 987.335 Q174.931 985.599 171.112 985.599 L167.084 985.599 L167.084 981.756 L171.297 981.756 Q174.746 981.756 176.575 980.39 Q178.403 979.001 178.403 976.409 Q178.403 973.747 176.505 972.335 Q174.63 970.9 171.112 970.9 Q169.19 970.9 166.991 971.316 Q164.792 971.733 162.153 972.613 L162.153 968.446 Q164.815 967.705 167.13 967.335 Q169.468 966.964 171.528 966.964 Q176.852 966.964 179.954 969.395 Q183.056 971.802 183.056 975.923 Q183.056 978.793 181.413 980.784 Q179.769 982.751 176.737 983.515 Z" fill="#000000" fill-rule="nonzero" fill-opacity="1" /><path clip-path="url(#clip840)" d="M126.205 837.545 Q122.593 837.545 120.765 841.11 Q118.959 844.652 118.959 851.781 Q118.959 858.888 120.765 862.452 Q122.593 865.994 126.205 865.994 Q129.839 865.994 131.644 862.452 Q133.473 858.888 133.473 851.781 Q133.473 844.652 131.644 841.11 Q129.839 837.545 126.205 837.545 M126.205 833.841 Q132.015 833.841 135.07 838.448 Q138.149 843.031 138.149 851.781 Q138.149 860.508 135.07 865.114 Q132.015 869.698 126.205 869.698 Q120.394 869.698 117.316 865.114 Q114.26 860.508 114.26 851.781 Q114.26 843.031 117.316 838.448 Q120.394 833.841 126.205 833.841 Z" fill="#000000" fill-rule="nonzero" fill-opacity="1" /><path clip-path="url(#clip840)" d="M146.366 863.147 L151.251 863.147 L151.251 869.026 L146.366 869.026 L146.366 863.147 Z" fill="#000000" fill-rule="nonzero" fill-opacity="1" /><path clip-path="url(#clip840)" d="M174.283 838.54 L162.477 856.989 L174.283 856.989 L174.283 838.54 M173.056 834.466 L178.936 834.466 L178.936 856.989 L183.866 856.989 L183.866 860.878 L178.936 860.878 L178.936 869.026 L174.283 869.026 L174.283 860.878 L158.681 860.878 L158.681 856.364 L173.056 834.466 Z" fill="#000000" fill-rule="nonzero" fill-opacity="1" /><path clip-path="url(#clip840)" d="M127.686 704.422 Q124.075 704.422 122.246 707.987 Q120.441 711.529 120.441 718.658 Q120.441 725.765 122.246 729.329 Q124.075 732.871 127.686 732.871 Q131.32 732.871 133.126 729.329 Q134.954 725.765 134.954 718.658 Q134.954 711.529 133.126 707.987 Q131.32 704.422 127.686 704.422 M127.686 700.718 Q133.496 700.718 136.552 705.325 Q139.63 709.908 139.63 718.658 Q139.63 727.385 136.552 731.991 Q133.496 736.575 127.686 736.575 Q121.876 736.575 118.797 731.991 Q115.742 727.385 115.742 718.658 Q115.742 709.908 118.797 705.325 Q121.876 700.718 127.686 700.718 Z" fill="#000000" fill-rule="nonzero" fill-opacity="1" /><path clip-path="url(#clip840)" d="M147.848 730.024 L152.732 730.024 L152.732 735.903 L147.848 735.903 L147.848 730.024 Z" fill="#000000" fill-rule="nonzero" fill-opacity="1" /><path clip-path="url(#clip840)" d="M162.964 701.343 L181.32 701.343 L181.32 705.279 L167.246 705.279 L167.246 713.751 Q168.264 713.404 169.283 713.242 Q170.302 713.056 171.32 713.056 Q177.107 713.056 180.487 716.228 Q183.866 719.399 183.866 724.816 Q183.866 730.394 180.394 733.496 Q176.922 736.575 170.602 736.575 Q168.427 736.575 166.158 736.204 Q163.913 735.834 161.505 735.093 L161.505 730.394 Q163.589 731.528 165.811 732.084 Q168.033 732.64 170.51 732.64 Q174.514 732.64 176.852 730.533 Q179.19 728.427 179.19 724.816 Q179.19 721.204 176.852 719.098 Q174.514 716.991 170.51 716.991 Q168.635 716.991 166.76 717.408 Q164.908 717.825 162.964 718.704 L162.964 701.343 Z" fill="#000000" fill-rule="nonzero" fill-opacity="1" /><path clip-path="url(#clip840)" d="M126.529 571.299 Q122.918 571.299 121.089 574.864 Q119.283 578.406 119.283 585.535 Q119.283 592.642 121.089 596.206 Q122.918 599.748 126.529 599.748 Q130.163 599.748 131.968 596.206 Q133.797 592.642 133.797 585.535 Q133.797 578.406 131.968 574.864 Q130.163 571.299 126.529 571.299 M126.529 567.595 Q132.339 567.595 135.394 572.202 Q138.473 576.785 138.473 585.535 Q138.473 594.262 135.394 598.868 Q132.339 603.452 126.529 603.452 Q120.718 603.452 117.64 598.868 Q114.584 594.262 114.584 585.535 Q114.584 576.785 117.64 572.202 Q120.718 567.595 126.529 567.595 Z" fill="#000000" fill-rule="nonzero" fill-opacity="1" /><path clip-path="url(#clip840)" d="M146.691 596.901 L151.575 596.901 L151.575 602.78 L146.691 602.78 L146.691 596.901 Z" fill="#000000" fill-rule="nonzero" fill-opacity="1" /><path clip-path="url(#clip840)" d="M172.339 583.637 Q169.19 583.637 167.339 585.79 Q165.51 587.943 165.51 591.693 Q165.51 595.419 167.339 597.595 Q169.19 599.748 172.339 599.748 Q175.487 599.748 177.315 597.595 Q179.167 595.419 179.167 591.693 Q179.167 587.943 177.315 585.79 Q175.487 583.637 172.339 583.637 M181.621 568.984 L181.621 573.244 Q179.862 572.41 178.056 571.97 Q176.274 571.531 174.514 571.531 Q169.885 571.531 167.431 574.656 Q165.001 577.781 164.653 584.1 Q166.019 582.086 168.079 581.021 Q170.139 579.933 172.616 579.933 Q177.825 579.933 180.834 583.105 Q183.866 586.253 183.866 591.693 Q183.866 597.017 180.718 600.234 Q177.57 603.452 172.339 603.452 Q166.343 603.452 163.172 598.868 Q160.001 594.262 160.001 585.535 Q160.001 577.341 163.89 572.48 Q167.778 567.595 174.329 567.595 Q176.089 567.595 177.871 567.943 Q179.676 568.29 181.621 568.984 Z" fill="#000000" fill-rule="nonzero" fill-opacity="1" /><path clip-path="url(#clip840)" d="M127.593 438.176 Q123.982 438.176 122.154 441.741 Q120.348 445.283 120.348 452.412 Q120.348 459.519 122.154 463.083 Q123.982 466.625 127.593 466.625 Q131.228 466.625 133.033 463.083 Q134.862 459.519 134.862 452.412 Q134.862 445.283 133.033 441.741 Q131.228 438.176 127.593 438.176 M127.593 434.472 Q133.404 434.472 136.459 439.079 Q139.538 443.662 139.538 452.412 Q139.538 461.139 136.459 465.745 Q133.404 470.329 127.593 470.329 Q121.783 470.329 118.705 465.745 Q115.649 461.139 115.649 452.412 Q115.649 443.662 118.705 439.079 Q121.783 434.472 127.593 434.472 Z" fill="#000000" fill-rule="nonzero" fill-opacity="1" /><path clip-path="url(#clip840)" d="M147.755 463.778 L152.64 463.778 L152.64 469.657 L147.755 469.657 L147.755 463.778 Z" fill="#000000" fill-rule="nonzero" fill-opacity="1" /><path clip-path="url(#clip840)" d="M161.644 435.097 L183.866 435.097 L183.866 437.088 L171.32 469.657 L166.436 469.657 L178.241 439.033 L161.644 439.033 L161.644 435.097 Z" fill="#000000" fill-rule="nonzero" fill-opacity="1" /><path clip-path="url(#clip840)" d="M126.783 305.053 Q123.172 305.053 121.343 308.618 Q119.538 312.16 119.538 319.289 Q119.538 326.396 121.343 329.96 Q123.172 333.502 126.783 333.502 Q130.417 333.502 132.223 329.96 Q134.052 326.396 134.052 319.289 Q134.052 312.16 132.223 308.618 Q130.417 305.053 126.783 305.053 M126.783 301.349 Q132.593 301.349 135.649 305.956 Q138.728 310.539 138.728 319.289 Q138.728 328.016 135.649 332.622 Q132.593 337.206 126.783 337.206 Q120.973 337.206 117.894 332.622 Q114.839 328.016 114.839 319.289 Q114.839 310.539 117.894 305.956 Q120.973 301.349 126.783 301.349 Z" fill="#000000" fill-rule="nonzero" fill-opacity="1" /><path clip-path="url(#clip840)" d="M146.945 330.655 L151.829 330.655 L151.829 336.534 L146.945 336.534 L146.945 330.655 Z" fill="#000000" fill-rule="nonzero" fill-opacity="1" /><path clip-path="url(#clip840)" d="M172.014 320.122 Q168.681 320.122 166.76 321.905 Q164.862 323.687 164.862 326.812 Q164.862 329.937 166.76 331.72 Q168.681 333.502 172.014 333.502 Q175.348 333.502 177.269 331.72 Q179.19 329.914 179.19 326.812 Q179.19 323.687 177.269 321.905 Q175.371 320.122 172.014 320.122 M167.339 318.132 Q164.329 317.391 162.64 315.331 Q160.973 313.271 160.973 310.308 Q160.973 306.164 163.913 303.757 Q166.876 301.349 172.014 301.349 Q177.176 301.349 180.116 303.757 Q183.056 306.164 183.056 310.308 Q183.056 313.271 181.366 315.331 Q179.7 317.391 176.714 318.132 Q180.093 318.919 181.968 321.21 Q183.866 323.502 183.866 326.812 Q183.866 331.835 180.788 334.521 Q177.732 337.206 172.014 337.206 Q166.297 337.206 163.218 334.521 Q160.163 331.835 160.163 326.812 Q160.163 323.502 162.061 321.21 Q163.959 318.919 167.339 318.132 M165.626 310.748 Q165.626 313.433 167.292 314.937 Q168.982 316.442 172.014 316.442 Q175.024 316.442 176.714 314.937 Q178.426 313.433 178.426 310.748 Q178.426 308.062 176.714 306.558 Q175.024 305.053 172.014 305.053 Q168.982 305.053 167.292 306.558 Q165.626 308.062 165.626 310.748 Z" fill="#000000" fill-rule="nonzero" fill-opacity="1" /><path clip-path="url(#clip840)" d="M126.876 171.93 Q123.265 171.93 121.436 175.495 Q119.63 179.037 119.63 186.166 Q119.63 193.273 121.436 196.837 Q123.265 200.379 126.876 200.379 Q130.51 200.379 132.316 196.837 Q134.144 193.273 134.144 186.166 Q134.144 179.037 132.316 175.495 Q130.51 171.93 126.876 171.93 M126.876 168.226 Q132.686 168.226 135.742 172.833 Q138.82 177.416 138.82 186.166 Q138.82 194.893 135.742 199.499 Q132.686 204.083 126.876 204.083 Q121.066 204.083 117.987 199.499 Q114.931 194.893 114.931 186.166 Q114.931 177.416 117.987 172.833 Q121.066 168.226 126.876 168.226 Z" fill="#000000" fill-rule="nonzero" fill-opacity="1" /><path clip-path="url(#clip840)" d="M147.038 197.532 L151.922 197.532 L151.922 203.411 L147.038 203.411 L147.038 197.532 Z" fill="#000000" fill-rule="nonzero" fill-opacity="1" /><path clip-path="url(#clip840)" d="M162.246 202.694 L162.246 198.435 Q164.005 199.268 165.811 199.708 Q167.616 200.148 169.352 200.148 Q173.982 200.148 176.413 197.046 Q178.866 193.921 179.214 187.578 Q177.871 189.569 175.811 190.634 Q173.751 191.699 171.251 191.699 Q166.065 191.699 163.033 188.574 Q160.024 185.425 160.024 179.986 Q160.024 174.662 163.172 171.444 Q166.32 168.226 171.552 168.226 Q177.547 168.226 180.695 172.833 Q183.866 177.416 183.866 186.166 Q183.866 194.337 179.977 199.222 Q176.112 204.083 169.561 204.083 Q167.802 204.083 165.996 203.736 Q164.19 203.388 162.246 202.694 M171.552 188.041 Q174.7 188.041 176.528 185.888 Q178.38 183.736 178.38 179.986 Q178.38 176.259 176.528 174.106 Q174.7 171.93 171.552 171.93 Q168.403 171.93 166.552 174.106 Q164.723 176.259 164.723 179.986 Q164.723 183.736 166.552 185.888 Q168.403 188.041 171.552 188.041 Z" fill="#000000" fill-rule="nonzero" fill-opacity="1" /><path clip-path="url(#clip840)" d="M117.501 66.3533 L125.14 66.3533 L125.14 39.9877 L116.83 41.6543 L116.83 37.3951 L125.093 35.7284 L129.769 35.7284 L129.769 66.3533 L137.408 66.3533 L137.408 70.2884 L117.501 70.2884 L117.501 66.3533 Z" fill="#000000" fill-rule="nonzero" fill-opacity="1" /><path clip-path="url(#clip840)" d="M146.853 64.4088 L151.737 64.4088 L151.737 70.2884 L146.853 70.2884 L146.853 64.4088 Z" fill="#000000" fill-rule="nonzero" fill-opacity="1" /><path clip-path="url(#clip840)" d="M171.922 38.8071 Q168.311 38.8071 166.482 42.3719 Q164.677 45.9136 164.677 53.0432 Q164.677 60.1496 166.482 63.7144 Q168.311 67.256 171.922 67.256 Q175.556 67.256 177.362 63.7144 Q179.19 60.1496 179.19 53.0432 Q179.19 45.9136 177.362 42.3719 Q175.556 38.8071 171.922 38.8071 M171.922 35.1034 Q177.732 35.1034 180.788 39.7099 Q183.866 44.2932 183.866 53.0432 Q183.866 61.77 180.788 66.3764 Q177.732 70.9597 171.922 70.9597 Q166.112 70.9597 163.033 66.3764 Q159.978 61.77 159.978 53.0432 Q159.978 44.2932 163.033 39.7099 Q166.112 35.1034 171.922 35.1034 Z" fill="#000000" fill-rule="nonzero" fill-opacity="1" /><path clip-path="url(#clip840)" d="M45.514 914.556 Q44.4512 914.556 43.5816 914.846 Q42.6799 915.104 42.068 915.522 Q41.4239 915.909 40.9408 916.65 Q40.4255 917.39 40.1034 918.002 Q39.7814 918.614 39.5881 919.645 Q39.3627 920.675 39.2661 921.352 Q39.1372 922.028 39.0728 923.187 Q39.0084 924.347 39.0084 924.927 Q39.0084 925.474 39.0084 926.569 Q39.0084 930.015 39.0728 930.595 Q39.2016 931.464 39.7169 931.786 Q40.2 932.108 41.5205 932.431 L58.7184 936.714 L58.7184 929.339 Q58.7184 925.313 57.5912 922.543 Q56.464 919.774 54.8859 918.196 Q53.1468 916.456 50.3449 915.522 Q47.543 914.556 45.514 914.556 M75.8841 907.374 Q76.2384 907.374 77.0435 907.664 Q77.8487 907.922 78.9759 908.566 Q80.0709 909.21 81.0693 910.08 Q82.0676 910.949 82.744 912.334 Q83.4525 913.719 83.4525 915.297 Q83.4525 915.684 83.4203 916.07 Q83.4203 916.456 83.2593 917.423 Q83.1304 918.357 82.8728 919.13 Q82.6474 919.902 82.0999 920.869 Q81.5846 921.835 80.876 922.511 Q80.1353 923.155 78.9759 923.606 Q77.7843 924.057 76.335 924.057 Q75.0468 924.057 70.7312 922.994 Q67.0597 922.06 66.158 922.06 Q65.1596 922.06 64.2256 922.382 Q63.2916 922.672 62.3255 923.413 Q61.3593 924.121 60.7796 925.635 Q60.1677 927.149 60.1677 929.274 L60.1677 937.1 L77.6554 941.48 Q77.6877 941.48 78.1385 941.577 Q78.5572 941.674 78.7826 941.674 Q79.2013 941.674 79.459 941.416 Q79.7166 941.126 79.8454 940.418 Q79.9421 939.709 79.9743 939.162 Q79.9743 938.582 79.9743 937.39 Q79.9743 935.909 80.2319 935.651 Q80.3929 935.522 80.6828 935.522 Q81.1337 935.522 81.4557 935.651 Q81.7456 935.748 81.8422 936.005 Q81.9388 936.231 81.971 936.392 Q82.0032 936.553 82.0032 936.843 L81.81 945.216 L82.0032 953.525 Q82.0032 954.459 81.2625 954.459 Q80.6184 954.459 80.3607 954.234 Q80.0709 954.008 80.0387 953.719 Q79.9743 953.429 79.9743 952.688 Q79.9743 951.078 79.8776 950.112 Q79.781 949.145 79.6522 948.533 Q79.4912 947.889 79.0403 947.567 Q78.5894 947.213 78.2029 947.052 Q77.7843 946.891 76.8503 946.666 L41.4239 937.841 Q40.3611 937.583 40.2 937.583 Q39.5881 937.583 39.4271 937.97 Q39.2339 938.324 39.1372 939.355 L39.0084 941.867 Q39.0084 942.64 38.9762 942.962 Q38.944 943.252 38.783 943.477 Q38.6219 943.703 38.2677 943.703 Q37.3659 943.703 37.1727 943.316 Q36.9472 942.93 36.9472 941.802 L36.9472 922.994 Q36.9472 916.585 39.7491 912.527 Q42.5511 908.437 46.8344 908.437 Q48.7668 908.437 50.5703 909.307 Q52.3738 910.176 53.7909 911.626 Q55.208 913.043 56.3996 914.943 Q57.559 916.843 58.3641 918.872 Q59.1371 920.869 59.588 922.93 Q59.91 922.028 60.3931 921.191 Q60.8762 920.321 61.778 919.226 Q62.6797 918.099 64.129 917.423 Q65.5782 916.746 67.3496 916.746 Q68.6056 916.746 70.4735 917.004 Q75.7875 917.648 77.9775 917.648 Q80.0709 917.648 81.0371 917.101 Q82.0032 916.553 82.0032 915.007 Q82.0032 913.494 80.6506 911.819 Q79.2657 910.112 76.0129 909.017 Q75.079 908.759 75.079 908.147 Q75.079 908.115 75.079 908.083 Q75.079 908.019 75.1434 907.89 Q75.1756 907.761 75.2722 907.664 Q75.3366 907.535 75.4977 907.471 Q75.6587 907.374 75.8841 907.374 Z" fill="#000000" fill-rule="nonzero" fill-opacity="1" /><path clip-path="url(#clip840)" d="M46.5165 900.794 Q45.6824 900.794 45.4344 900.727 Q45.1864 900.637 44.8032 900.276 L34.9288 891.416 Q29.4732 886.569 24.7164 886.569 Q21.6278 886.569 19.4185 888.192 Q17.2092 889.793 17.2092 892.746 Q17.2092 894.775 18.4491 896.488 Q19.689 898.202 21.8984 898.991 Q21.8533 898.856 21.8533 898.382 Q21.8533 897.232 22.5747 896.601 Q23.2961 895.947 24.2655 895.947 Q25.5054 895.947 26.1141 896.759 Q26.7003 897.548 26.7003 898.337 Q26.7003 898.653 26.6326 899.081 Q26.565 899.487 25.9338 900.141 Q25.28 900.794 24.1302 900.794 Q20.9064 900.794 18.3364 898.36 Q15.7664 895.902 15.7664 892.16 Q15.7664 887.922 18.2913 885.149 Q20.7937 882.353 24.7164 882.353 Q26.0916 882.353 27.354 882.782 Q28.594 883.187 29.5634 883.751 Q30.5327 884.292 32.0883 885.78 Q33.6438 887.268 34.7485 888.463 Q35.8532 889.658 38.1977 892.34 L42.9545 897.232 L42.9545 888.914 Q42.9545 884.856 42.5938 884.54 Q41.9401 884.089 38.4908 883.526 L38.4908 882.353 L46.5165 883.661 L46.5165 900.794 Z" fill="#000000" fill-rule="nonzero" fill-opacity="1" /><path clip-path="url(#clip840)" d="M61.5375 875.5 L61.5375 858.344 L66.7574 858.344 L66.7574 875.5 L61.5375 875.5 Z" fill="#000000" fill-rule="nonzero" fill-opacity="1" /><path clip-path="url(#clip840)" d="M47.7239 823.365 L53.1984 823.365 Q51.8298 825.847 51.1614 828.362 Q50.4612 830.844 50.4612 833.391 Q50.4612 839.088 54.0896 842.239 Q57.6862 845.39 64.2111 845.39 Q70.7359 845.39 74.3644 842.239 Q77.961 839.088 77.961 833.391 Q77.961 830.844 77.2926 828.362 Q76.5924 825.847 75.2238 823.365 L80.6346 823.365 Q81.7804 825.815 82.3533 828.457 Q82.9263 831.067 82.9263 834.027 Q82.9263 842.08 77.8655 846.822 Q72.8048 851.565 64.2111 851.565 Q55.4901 851.565 50.493 846.79 Q45.4959 841.984 45.4959 833.645 Q45.4959 830.94 46.0688 828.362 Q46.6099 825.784 47.7239 823.365 Z" fill="#000000" fill-rule="nonzero" fill-opacity="1" /><path clip-path="url(#clip840)" d="M50.4612 799.366 Q50.4612 804.076 54.1533 806.814 Q57.8136 809.551 64.2111 809.551 Q70.6086 809.551 74.3007 806.846 Q77.961 804.108 77.961 799.366 Q77.961 794.687 74.2689 791.95 Q70.5768 789.213 64.2111 789.213 Q57.8772 789.213 54.1851 791.95 Q50.4612 794.687 50.4612 799.366 M45.4959 799.366 Q45.4959 791.727 50.4612 787.366 Q55.4264 783.006 64.2111 783.006 Q72.9639 783.006 77.961 787.366 Q82.9263 791.727 82.9263 799.366 Q82.9263 807.037 77.961 811.397 Q72.9639 815.726 64.2111 815.726 Q55.4264 815.726 50.4612 811.397 Q45.4959 807.037 45.4959 799.366 Z" fill="#000000" fill-rule="nonzero" fill-opacity="1" /><path clip-path="url(#clip840)" d="M62.7151 742.807 L65.5797 742.807 L65.5797 769.733 Q71.6271 769.352 74.81 766.105 Q77.961 762.827 77.961 757.002 Q77.961 753.628 77.1335 750.477 Q76.3059 747.294 74.6508 744.175 L80.189 744.175 Q81.5258 747.326 82.226 750.636 Q82.9263 753.947 82.9263 757.352 Q82.9263 765.882 77.961 770.879 Q72.9958 775.845 64.5294 775.845 Q55.7765 775.845 50.6521 771.134 Q45.4959 766.391 45.4959 758.371 Q45.4959 751.177 50.1429 747.008 Q54.758 742.807 62.7151 742.807 M60.9964 748.663 Q56.1903 748.727 53.3257 751.368 Q50.4612 753.978 50.4612 758.307 Q50.4612 763.209 53.2302 766.169 Q55.9993 769.097 61.0282 769.542 L60.9964 748.663 Z" fill="#000000" fill-rule="nonzero" fill-opacity="1" /><path clip-path="url(#clip840)" d="M32.478 715.148 L37.3478 715.148 L37.3478 720.749 Q37.3478 723.9 38.6209 725.142 Q39.8941 726.351 43.2043 726.351 L46.3553 726.351 L46.3553 716.707 L50.9068 716.707 L50.9068 726.351 L82.0032 726.351 L82.0032 732.239 L50.9068 732.239 L50.9068 737.841 L46.3553 737.841 L46.3553 732.239 L43.8727 732.239 Q37.9207 732.239 35.2153 729.47 Q32.478 726.701 32.478 720.686 L32.478 715.148 Z" fill="#000000" fill-rule="nonzero" fill-opacity="1" /><path clip-path="url(#clip840)" d="M32.478 692.199 L37.3478 692.199 L37.3478 697.801 Q37.3478 700.952 38.6209 702.193 Q39.8941 703.403 43.2043 703.403 L46.3553 703.403 L46.3553 693.759 L50.9068 693.759 L50.9068 703.403 L82.0032 703.403 L82.0032 709.291 L50.9068 709.291 L50.9068 714.893 L46.3553 714.893 L46.3553 709.291 L43.8727 709.291 Q37.9207 709.291 35.2153 706.522 Q32.478 703.753 32.478 697.737 L32.478 692.199 Z" fill="#000000" fill-rule="nonzero" fill-opacity="1" /><path clip-path="url(#clip840)" d="M46.3553 687.298 L46.3553 681.441 L82.0032 681.441 L82.0032 687.298 L46.3553 687.298 M32.478 687.298 L32.478 681.441 L39.8941 681.441 L39.8941 687.298 L32.478 687.298 Z" fill="#000000" fill-rule="nonzero" fill-opacity="1" /><path clip-path="url(#clip840)" d="M47.7239 643.533 L53.1984 643.533 Q51.8298 646.016 51.1614 648.53 Q50.4612 651.013 50.4612 653.559 Q50.4612 659.257 54.0896 662.408 Q57.6862 665.559 64.2111 665.559 Q70.7359 665.559 74.3644 662.408 Q77.961 659.257 77.961 653.559 Q77.961 651.013 77.2926 648.53 Q76.5924 646.016 75.2238 643.533 L80.6346 643.533 Q81.7804 645.984 82.3533 648.626 Q82.9263 651.236 82.9263 654.196 Q82.9263 662.249 77.8655 666.991 Q72.8048 671.733 64.2111 671.733 Q55.4901 671.733 50.493 666.959 Q45.4959 662.153 45.4959 653.814 Q45.4959 651.109 46.0688 648.53 Q46.6099 645.952 47.7239 643.533 Z" fill="#000000" fill-rule="nonzero" fill-opacity="1" /><path clip-path="url(#clip840)" d="M46.3553 633.348 L46.3553 627.492 L82.0032 627.492 L82.0032 633.348 L46.3553 633.348 M32.478 633.348 L32.478 627.492 L39.8941 627.492 L39.8941 633.348 L32.478 633.348 Z" fill="#000000" fill-rule="nonzero" fill-opacity="1" /><path clip-path="url(#clip840)" d="M62.7151 584.746 L65.5797 584.746 L65.5797 611.673 Q71.6271 611.291 74.81 608.045 Q77.961 604.766 77.961 598.942 Q77.961 595.568 77.1335 592.417 Q76.3059 589.234 74.6508 586.115 L80.189 586.115 Q81.5258 589.266 82.226 592.576 Q82.9263 595.886 82.9263 599.292 Q82.9263 607.822 77.961 612.819 Q72.9958 617.784 64.5294 617.784 Q55.7765 617.784 50.6521 613.073 Q45.4959 608.331 45.4959 600.31 Q45.4959 593.117 50.1429 588.947 Q54.758 584.746 62.7151 584.746 M60.9964 590.602 Q56.1903 590.666 53.3257 593.308 Q50.4612 595.918 50.4612 600.247 Q50.4612 605.148 53.2302 608.108 Q55.9993 611.036 61.0282 611.482 L60.9964 590.602 Z" fill="#000000" fill-rule="nonzero" fill-opacity="1" /><path clip-path="url(#clip840)" d="M60.4871 545.501 L82.0032 545.501 L82.0032 551.358 L60.6781 551.358 Q55.6174 551.358 53.1029 553.331 Q50.5885 555.305 50.5885 559.251 Q50.5885 563.994 53.6122 566.731 Q56.6359 569.468 61.8558 569.468 L82.0032 569.468 L82.0032 575.357 L46.3553 575.357 L46.3553 569.468 L51.8934 569.468 Q48.6788 567.368 47.0873 564.535 Q45.4959 561.67 45.4959 557.946 Q45.4959 551.803 49.3153 548.652 Q53.1029 545.501 60.4871 545.501 Z" fill="#000000" fill-rule="nonzero" fill-opacity="1" /><path clip-path="url(#clip840)" d="M36.2338 528.028 L46.3553 528.028 L46.3553 515.965 L50.9068 515.965 L50.9068 528.028 L70.2585 528.028 Q74.619 528.028 75.8603 526.85 Q77.1016 525.64 77.1016 521.98 L77.1016 515.965 L82.0032 515.965 L82.0032 521.98 Q82.0032 528.76 79.4888 531.338 Q76.9425 533.916 70.2585 533.916 L50.9068 533.916 L50.9068 538.213 L46.3553 538.213 L46.3553 533.916 L36.2338 533.916 L36.2338 528.028 Z" fill="#000000" fill-rule="nonzero" fill-opacity="1" /><polyline clip-path="url(#clip842)" style="stroke:#008000; stroke-linecap:round; stroke-linejoin:round; stroke-width:4; stroke-opacity:1; fill:none" points="280.231,88.6515 290.292,89.432 300.353,90.1796 310.413,90.8969 320.474,91.5924 330.535,92.2811 340.596,92.9822 350.657,93.7163 360.717,94.5006 370.778,95.3458 380.839,96.2533 390.9,97.216 400.961,98.2203 411.021,99.2502 421.082,100.292 431.143,101.336 441.204,102.377 451.265,103.416 461.325,104.45 471.386,105.477 481.447,106.492 491.508,107.485 501.569,108.449 511.629,109.381 521.69,110.285 531.751,111.171 541.812,112.051 551.873,112.936 561.933,113.83 571.994,114.725 582.055,115.607 592.116,116.459 602.177,117.27 612.237,118.034 622.298,118.755 632.359,119.441 642.42,120.097 652.481,120.729 662.541,121.342 672.602,121.948 682.663,122.566 692.724,123.224 702.785,123.953 712.845,124.776 722.906,125.706 732.967,126.737 743.028,127.847 753.089,129 763.149,130.157 773.21,131.285 783.271,132.361 793.332,133.377 803.393,134.336 813.453,135.252 823.514,136.132 833.575,136.977 843.636,137.77 853.697,138.475 863.757,139.044 873.818,139.42 883.879,139.557 893.94,139.429 904.001,139.044 914.061,138.451 924.122,137.721 934.183,136.934 944.244,136.161 954.305,135.449 964.365,134.819 974.426,134.278 984.487,133.817 994.548,133.423 1004.61,133.08 1014.67,132.77 1024.73,132.476 1034.79,132.18 1044.85,131.879 1054.91,131.582 1064.97,131.313 1075.03,131.105 1085.1,130.977 1095.16,130.92 1105.22,130.882 1115.28,130.764 1125.34,130.439 1135.4,129.778 1145.46,128.68 1155.52,127.104 1165.58,125.073 1175.64,122.677 1185.7,120.053 1195.76,117.368 1205.82,114.795 1215.89,112.481 1225.95,110.525 1236.01,108.956 1246.07,107.727 1256.13,106.741 1266.19,105.879 1276.25,105.035 1286.31,104.121 1296.37,103.081 1306.43,101.872 1316.49,100.461 1326.55,98.8199 1336.62,96.9344 1346.68,94.8254 1356.74,92.5773 1366.8,90.3565 1376.86,88.3981 1386.92,86.9522 1396.98,86.201 1407.04,86.1857 1417.1,86.784 1427.16,87.7569 1437.22,88.8457 1447.28,89.8737 1457.34,90.8039 1467.41,91.7286 1477.47,92.8049 1487.53,94.1716 1497.59,95.8866 1507.65,97.9062 1517.71,100.11 1527.77,102.365 1537.83,104.605 1547.89,106.898 1557.95,109.455 1568.01,112.584 1578.07,116.603 1588.14,121.773 1598.2,128.277 1608.26,136.239 1618.32,145.753 1628.38,156.896 1638.44,169.708 1648.5,184.172 1658.56,200.222 1668.62,217.774 1678.68,236.769 1688.74,257.205 1698.8,279.135 1708.86,302.644 1718.93,327.833 1728.99,354.784 1739.05,383.532 1749.11,414.029 1759.17,446.124 1769.23,479.555 1779.29,513.979 1789.35,549.004 1799.41,584.233 1809.47,619.295 1819.53,653.884 1829.59,687.786 1839.66,720.917 1849.72,753.342 1859.78,785.264 1869.84,816.996 1879.9,848.896 1889.96,881.295 1900.02,914.433 1910.08,948.403 1920.14,983.138 1930.2,1018.41 1940.26,1053.85 1950.32,1088.98 1960.38,1123.25 1970.45,1156.05 1980.51,1186.78 1990.57,1214.94 2000.63,1240.21 2010.69,1262.48 2020.75,1281.89 2030.81,1298.77 2040.87,1313.49 2050.93,1326.4 2060.99,1337.77 2071.05,1347.77 2081.11,1356.48 2091.18,1363.95 2101.24,1370.21 2111.3,1375.28 2121.36,1379.2 2131.42,1381.99 2141.48,1383.67 2151.54,1384.24 2161.6,1383.7 2171.66,1382.03 2181.72,1379.19 2191.78,1375.15 2201.84,1369.86 2211.9,1363.33 2221.97,1355.6 2232.03,1346.76 2242.09,1336.97 2252.15,1326.38 2262.21,1315.2 2272.27,1303.65 2282.33,1291.96 2292.39,1280.38 "/>
<polyline clip-path="url(#clip842)" style="stroke:#ff0000; stroke-linecap:round; stroke-linejoin:round; stroke-width:4; stroke-opacity:1; fill:none" stroke-dasharray="16, 10" points="1407.04,2799.12 1407.04,-1328.69 "/>
<path clip-path="url(#clip840)" d="M1816.13 248.629 L2281.66 248.629 L2281.66 93.1086 L1816.13 93.1086  Z" fill="#ffffff" fill-rule="evenodd" fill-opacity="1"/>
<polyline clip-path="url(#clip840)" style="stroke:#000000; stroke-linecap:round; stroke-linejoin:round; stroke-width:4; stroke-opacity:1; fill:none" points="1816.13,248.629 2281.66,248.629 2281.66,93.1086 1816.13,93.1086 1816.13,248.629 "/>
<polyline clip-path="url(#clip840)" style="stroke:#008000; stroke-linecap:round; stroke-linejoin:round; stroke-width:4; stroke-opacity:1; fill:none" points="1839.83,144.949 1982.02,144.949 "/>
<path clip-path="url(#clip840)" d="M2027.97 134.978 L2027.97 139.538 Q2025.31 138.265 2022.94 137.64 Q2020.58 137.015 2018.38 137.015 Q2014.57 137.015 2012.48 138.496 Q2010.42 139.978 2010.42 142.709 Q2010.42 145.001 2011.79 146.182 Q2013.18 147.339 2017.02 148.057 L2019.84 148.635 Q2025.07 149.631 2027.55 152.154 Q2030.05 154.654 2030.05 158.867 Q2030.05 163.89 2026.67 166.482 Q2023.32 169.075 2016.81 169.075 Q2014.36 169.075 2011.58 168.519 Q2008.82 167.964 2005.86 166.876 L2005.86 162.061 Q2008.71 163.658 2011.44 164.469 Q2014.17 165.279 2016.81 165.279 Q2020.82 165.279 2022.99 163.705 Q2025.17 162.131 2025.17 159.214 Q2025.17 156.668 2023.59 155.232 Q2022.04 153.797 2018.48 153.08 L2015.63 152.524 Q2010.4 151.482 2008.06 149.26 Q2005.72 147.038 2005.72 143.08 Q2005.72 138.496 2008.94 135.858 Q2012.18 133.219 2017.85 133.219 Q2020.28 133.219 2022.81 133.659 Q2025.33 134.098 2027.97 134.978 Z" fill="#000000" fill-rule="nonzero" fill-opacity="1" /><path clip-path="url(#clip840)" d="M2039.7 155.464 Q2039.7 160.163 2041.63 162.848 Q2043.57 165.51 2046.95 165.51 Q2050.33 165.51 2052.27 162.848 Q2054.22 160.163 2054.22 155.464 Q2054.22 150.765 2052.27 148.103 Q2050.33 145.418 2046.95 145.418 Q2043.57 145.418 2041.63 148.103 Q2039.7 150.765 2039.7 155.464 M2054.22 164.515 Q2052.88 166.83 2050.82 167.964 Q2048.78 169.075 2045.91 169.075 Q2041.21 169.075 2038.25 165.325 Q2035.31 161.575 2035.31 155.464 Q2035.31 149.353 2038.25 145.603 Q2041.21 141.853 2045.91 141.853 Q2048.78 141.853 2050.82 142.987 Q2052.88 144.098 2054.22 146.413 L2054.22 142.478 L2058.48 142.478 L2058.48 178.265 L2054.22 178.265 L2054.22 164.515 Z" fill="#000000" fill-rule="nonzero" fill-opacity="1" /><path clip-path="url(#clip840)" d="M2066.81 158.172 L2066.81 142.478 L2071.07 142.478 L2071.07 158.01 Q2071.07 161.691 2072.5 163.543 Q2073.94 165.371 2076.81 165.371 Q2080.26 165.371 2082.25 163.172 Q2084.26 160.973 2084.26 157.177 L2084.26 142.478 L2088.52 142.478 L2088.52 168.404 L2084.26 168.404 L2084.26 164.422 Q2082.71 166.783 2080.65 167.941 Q2078.62 169.075 2075.91 169.075 Q2071.44 169.075 2069.13 166.297 Q2066.81 163.519 2066.81 158.172 M2077.53 141.853 L2077.53 141.853 Z" fill="#000000" fill-rule="nonzero" fill-opacity="1" /><path clip-path="url(#clip840)" d="M2109.08 155.371 Q2103.92 155.371 2101.93 156.552 Q2099.94 157.732 2099.94 160.58 Q2099.94 162.848 2101.42 164.191 Q2102.92 165.51 2105.49 165.51 Q2109.03 165.51 2111.16 163.01 Q2113.31 160.487 2113.31 156.32 L2113.31 155.371 L2109.08 155.371 M2117.57 153.612 L2117.57 168.404 L2113.31 168.404 L2113.31 164.469 Q2111.86 166.83 2109.68 167.964 Q2107.5 169.075 2104.36 169.075 Q2100.37 169.075 2098.01 166.853 Q2095.68 164.607 2095.68 160.857 Q2095.68 156.482 2098.59 154.26 Q2101.53 152.038 2107.34 152.038 L2113.31 152.038 L2113.31 151.621 Q2113.31 148.682 2111.37 147.084 Q2109.45 145.464 2105.95 145.464 Q2103.73 145.464 2101.62 145.996 Q2099.52 146.529 2097.57 147.594 L2097.57 143.658 Q2099.91 142.756 2102.11 142.316 Q2104.31 141.853 2106.39 141.853 Q2112.02 141.853 2114.8 144.77 Q2117.57 147.686 2117.57 153.612 Z" fill="#000000" fill-rule="nonzero" fill-opacity="1" /><path clip-path="url(#clip840)" d="M2141.37 146.459 Q2140.65 146.043 2139.8 145.858 Q2138.96 145.649 2137.94 145.649 Q2134.33 145.649 2132.39 148.01 Q2130.47 150.348 2130.47 154.746 L2130.47 168.404 L2126.18 168.404 L2126.18 142.478 L2130.47 142.478 L2130.47 146.506 Q2131.81 144.145 2133.96 143.01 Q2136.12 141.853 2139.19 141.853 Q2139.63 141.853 2140.17 141.922 Q2140.7 141.969 2141.35 142.084 L2141.37 146.459 Z" fill="#000000" fill-rule="nonzero" fill-opacity="1" /><path clip-path="url(#clip840)" d="M2166.97 154.376 L2166.97 156.459 L2147.39 156.459 Q2147.67 160.857 2150.03 163.172 Q2152.41 165.464 2156.65 165.464 Q2159.1 165.464 2161.39 164.862 Q2163.71 164.26 2165.98 163.057 L2165.98 167.084 Q2163.68 168.056 2161.28 168.566 Q2158.87 169.075 2156.39 169.075 Q2150.19 169.075 2146.56 165.464 Q2142.94 161.853 2142.94 155.695 Q2142.94 149.33 2146.37 145.603 Q2149.82 141.853 2155.65 141.853 Q2160.88 141.853 2163.92 145.233 Q2166.97 148.589 2166.97 154.376 M2162.71 153.126 Q2162.67 149.631 2160.74 147.547 Q2158.85 145.464 2155.7 145.464 Q2152.13 145.464 2149.98 147.478 Q2147.85 149.492 2147.53 153.149 L2162.71 153.126 Z" fill="#000000" fill-rule="nonzero" fill-opacity="1" /><path clip-path="url(#clip840)" d="M2175.05 162.524 L2179.93 162.524 L2179.93 168.404 L2175.05 168.404 L2175.05 162.524 M2175.05 143.89 L2179.93 143.89 L2179.93 149.77 L2175.05 149.77 L2175.05 143.89 Z" fill="#000000" fill-rule="nonzero" fill-opacity="1" /><path clip-path="url(#clip840)" d="M2229.56 141.866 Q2229.56 141.093 2229.35 140.461 Q2229.16 139.805 2228.85 139.36 Q2228.57 138.891 2228.03 138.54 Q2227.5 138.165 2227.05 137.931 Q2226.61 137.697 2225.86 137.556 Q2225.11 137.392 2224.61 137.322 Q2224.12 137.228 2223.28 137.182 Q2222.44 137.135 2222.01 137.135 Q2221.62 137.135 2220.82 137.135 Q2218.31 137.135 2217.89 137.182 Q2217.26 137.275 2217.03 137.65 Q2216.79 138.001 2216.56 138.962 L2213.44 151.469 L2218.81 151.469 Q2221.73 151.469 2223.75 150.649 Q2225.76 149.83 2226.91 148.682 Q2228.17 147.417 2228.85 145.379 Q2229.56 143.342 2229.56 141.866 M2234.78 163.953 Q2234.78 164.211 2234.57 164.797 Q2234.38 165.382 2233.91 166.202 Q2233.44 166.998 2232.81 167.724 Q2232.18 168.451 2231.17 168.942 Q2230.17 169.458 2229.02 169.458 Q2228.74 169.458 2228.46 169.434 Q2228.17 169.434 2227.47 169.317 Q2226.79 169.223 2226.23 169.036 Q2225.67 168.872 2224.97 168.474 Q2224.26 168.099 2223.77 167.584 Q2223.3 167.045 2222.98 166.202 Q2222.65 165.335 2222.65 164.281 Q2222.65 163.344 2223.42 160.206 Q2224.1 157.536 2224.1 156.88 Q2224.1 156.154 2223.87 155.475 Q2223.65 154.795 2223.12 154.093 Q2222.6 153.39 2221.5 152.968 Q2220.4 152.523 2218.85 152.523 L2213.16 152.523 L2209.98 165.242 Q2209.98 165.265 2209.91 165.593 Q2209.84 165.897 2209.84 166.061 Q2209.84 166.366 2210.02 166.553 Q2210.23 166.741 2210.75 166.834 Q2211.26 166.905 2211.66 166.928 Q2212.08 166.928 2212.95 166.928 Q2214.03 166.928 2214.22 167.115 Q2214.31 167.233 2214.31 167.443 Q2214.31 167.771 2214.22 168.006 Q2214.14 168.216 2213.96 168.287 Q2213.79 168.357 2213.68 168.38 Q2213.56 168.404 2213.35 168.404 L2207.26 168.263 L2201.22 168.404 Q2200.54 168.404 2200.54 167.865 Q2200.54 167.397 2200.7 167.209 Q2200.86 166.998 2201.08 166.975 Q2201.29 166.928 2201.82 166.928 Q2203 166.928 2203.7 166.858 Q2204.4 166.788 2204.85 166.694 Q2205.31 166.577 2205.55 166.249 Q2205.81 165.921 2205.92 165.64 Q2206.04 165.335 2206.2 164.656 L2212.62 138.891 Q2212.81 138.118 2212.81 138.001 Q2212.81 137.556 2212.53 137.439 Q2212.27 137.299 2211.52 137.228 L2209.69 137.135 Q2209.13 137.135 2208.9 137.111 Q2208.69 137.088 2208.52 136.971 Q2208.36 136.854 2208.36 136.596 Q2208.36 135.94 2208.64 135.8 Q2208.92 135.636 2209.74 135.636 L2223.42 135.636 Q2228.08 135.636 2231.03 137.673 Q2234.01 139.711 2234.01 142.826 Q2234.01 144.232 2233.37 145.543 Q2232.74 146.855 2231.69 147.886 Q2230.66 148.916 2229.28 149.783 Q2227.89 150.626 2226.42 151.212 Q2224.97 151.774 2223.47 152.102 Q2224.12 152.336 2224.73 152.687 Q2225.36 153.039 2226.16 153.694 Q2226.98 154.35 2227.47 155.404 Q2227.96 156.458 2227.96 157.746 Q2227.96 158.66 2227.78 160.018 Q2227.31 163.883 2227.31 165.476 Q2227.31 166.998 2227.71 167.701 Q2228.1 168.404 2229.23 168.404 Q2230.33 168.404 2231.55 167.42 Q2232.79 166.413 2233.59 164.047 Q2233.77 163.368 2234.22 163.368 Q2234.24 163.368 2234.26 163.368 Q2234.31 163.368 2234.41 163.415 Q2234.5 163.438 2234.57 163.508 Q2234.66 163.555 2234.71 163.672 Q2234.78 163.789 2234.78 163.953 Z" fill="#000000" fill-rule="nonzero" fill-opacity="1" /><path clip-path="url(#clip840)" d="M2239.56 142.595 Q2239.56 141.988 2239.61 141.808 Q2239.68 141.628 2239.94 141.349 L2246.38 134.168 Q2249.91 130.2 2249.91 126.74 Q2249.91 124.494 2248.73 122.887 Q2247.56 121.281 2245.42 121.281 Q2243.94 121.281 2242.69 122.182 Q2241.45 123.084 2240.87 124.691 Q2240.97 124.658 2241.32 124.658 Q2242.15 124.658 2242.61 125.183 Q2243.09 125.708 2243.09 126.413 Q2243.09 127.314 2242.5 127.757 Q2241.92 128.183 2241.35 128.183 Q2241.12 128.183 2240.81 128.134 Q2240.51 128.085 2240.04 127.626 Q2239.56 127.15 2239.56 126.314 Q2239.56 123.97 2241.33 122.1 Q2243.12 120.231 2245.84 120.231 Q2248.92 120.231 2250.94 122.068 Q2252.97 123.888 2252.97 126.74 Q2252.97 127.741 2252.66 128.659 Q2252.37 129.561 2251.96 130.266 Q2251.56 130.971 2250.48 132.102 Q2249.4 133.233 2248.53 134.037 Q2247.66 134.84 2245.71 136.545 L2242.15 140.005 L2248.2 140.005 Q2251.15 140.005 2251.38 139.742 Q2251.71 139.267 2252.12 136.758 L2252.97 136.758 L2252.02 142.595 L2239.56 142.595 Z" fill="#000000" fill-rule="nonzero" fill-opacity="1" /><polyline clip-path="url(#clip840)" style="stroke:#ff0000; stroke-linecap:round; stroke-linejoin:round; stroke-width:4; stroke-opacity:1; fill:none" stroke-dasharray="16, 10" points="1839.83,196.789 1982.02,196.789 "/>
<path clip-path="url(#clip840)" d="M2030.78 184.548 Q2030.78 187.968 2029.05 191.271 Q2027.34 194.573 2024.65 196.611 Q2021.95 198.625 2019.21 198.625 Q2017.57 198.625 2016.47 197.735 Q2015.4 196.822 2014.81 195.534 Q2014.37 197.126 2013.41 200.944 Q2012.44 204.762 2012.44 205.137 Q2012.44 205.348 2012.49 205.441 Q2012.54 205.535 2012.75 205.652 Q2012.96 205.793 2013.48 205.839 Q2013.99 205.91 2014.86 205.91 Q2015.3 205.91 2015.47 205.91 Q2015.65 205.933 2015.82 206.05 Q2016.01 206.167 2016.01 206.425 Q2016.01 207.385 2015.14 207.385 Q2014.37 207.385 2012.77 207.315 Q2011.18 207.245 2010.38 207.245 Q2009.7 207.245 2008.35 207.315 Q2006.99 207.385 2006.36 207.385 Q2005.72 207.385 2005.72 206.823 Q2005.72 206.495 2005.82 206.284 Q2005.89 206.097 2006.07 206.003 Q2006.26 205.933 2006.43 205.91 Q2006.57 205.91 2006.85 205.91 Q2007.92 205.91 2008.39 205.722 Q2008.86 205.558 2009.03 205.207 Q2009.21 204.879 2009.42 203.942 L2014.81 182.581 Q2015.14 181.152 2015.14 180.145 Q2015.14 178.88 2014.74 178.412 Q2014.34 177.943 2013.64 177.943 Q2012.42 177.943 2011.63 179.395 Q2010.83 180.848 2010.15 183.658 Q2009.94 184.431 2009.8 184.595 Q2009.68 184.759 2009.33 184.759 Q2008.74 184.736 2008.74 184.267 Q2008.74 184.15 2008.93 183.401 Q2009.12 182.628 2009.47 181.503 Q2009.85 180.356 2010.24 179.63 Q2010.48 179.138 2010.69 178.81 Q2010.9 178.482 2011.32 177.967 Q2011.77 177.451 2012.4 177.17 Q2013.03 176.889 2013.8 176.889 Q2015.3 176.889 2016.54 177.779 Q2017.79 178.669 2018.11 180.473 Q2019.45 178.904 2021.09 177.896 Q2022.73 176.889 2024.39 176.889 Q2027.15 176.889 2028.96 179.044 Q2030.78 181.176 2030.78 184.548 M2027.32 182.44 Q2027.32 180.309 2026.5 179.138 Q2025.7 177.943 2024.25 177.943 Q2022.45 177.943 2020.36 179.77 Q2018.3 181.503 2017.88 183.12 L2015.51 192.512 L2015.37 193.285 Q2015.37 193.426 2015.44 193.847 Q2015.54 194.245 2015.79 194.901 Q2016.08 195.557 2016.45 196.143 Q2016.85 196.705 2017.55 197.126 Q2018.28 197.548 2019.17 197.548 Q2020.6 197.548 2022.14 196.283 Q2023.71 195.018 2024.88 192.629 Q2025.61 191.083 2026.45 187.757 Q2027.32 184.408 2027.32 182.44 Z" fill="#000000" fill-rule="nonzero" fill-opacity="1" /><path clip-path="url(#clip840)" d="M2048.59 212.217 Q2048.72 212.365 2048.72 212.512 Q2048.72 212.66 2048.39 213.086 Q2048.08 213.513 2047.41 214.086 Q2046.74 214.66 2045.87 215.201 Q2045 215.742 2043.72 216.103 Q2042.44 216.48 2041.1 216.48 Q2038.59 216.48 2037.11 214.824 Q2035.66 213.168 2035.66 210.791 Q2035.66 208.479 2036.95 206.266 Q2038.25 204.036 2040.34 202.659 Q2042.44 201.265 2044.66 201.265 Q2046.41 201.265 2047.51 202.085 Q2048.61 202.905 2048.61 204.151 Q2048.61 205.118 2048.05 205.708 Q2047.49 206.299 2046.74 206.299 Q2046.21 206.299 2045.85 206.003 Q2045.49 205.692 2045.49 205.118 Q2045.49 204.38 2046.1 203.806 Q2046.33 203.577 2046.59 203.478 Q2046.87 203.364 2047.03 203.364 Q2047.2 203.347 2047.57 203.347 Q2047.23 202.708 2046.41 202.364 Q2045.61 202.003 2044.69 202.003 Q2043.33 202.003 2042.03 202.954 Q2040.74 203.888 2039.95 205.364 Q2039.16 206.807 2038.66 208.856 Q2038.15 210.889 2038.15 212.07 Q2038.15 213.693 2038.9 214.71 Q2039.66 215.726 2041.16 215.726 Q2041.46 215.726 2041.77 215.71 Q2042.1 215.693 2042.92 215.513 Q2043.75 215.333 2044.49 215.021 Q2045.23 214.71 2046.16 214.037 Q2047.12 213.349 2047.87 212.414 Q2048.13 212.07 2048.31 212.07 Q2048.46 212.07 2048.59 212.217 Z" fill="#000000" fill-rule="nonzero" fill-opacity="1" /></svg>
