<?xml version="1.0" encoding="utf-8"?>
<svg xmlns="http://www.w3.org/2000/svg" xmlns:xlink="http://www.w3.org/1999/xlink" width="600" height="400" viewBox="0 0 2400 1600">
<defs>
  <clipPath id="clip000">
    <rect x="0" y="0" width="2400" height="1600"/>
  </clipPath>
</defs>
<path clip-path="url(#clip000)" d="M0 1600 L2400 1600 L2400 0 L0 0  Z" fill="#ffffff" fill-rule="evenodd" fill-opacity="1"/>
<defs>
  <clipPath id="clip001">
    <rect x="480" y="0" width="1681" height="1600"/>
  </clipPath>
</defs>
<path clip-path="url(#clip000)" d="M259.702 1423.18 L2352.76 1423.18 L2352.76 47.2441 L259.702 47.2441  Z" fill="#ffffff" fill-rule="evenodd" fill-opacity="1"/>
<defs>
  <clipPath id="clip002">
    <rect x="259" y="47" width="2094" height="1377"/>
  </clipPath>
</defs>
<polyline clip-path="url(#clip002)" style="stroke:#000000; stroke-linecap:round; stroke-linejoin:round; stroke-width:2; stroke-opacity:0.1; fill:none" points="657.525,1423.18 657.525,47.2441 "/>
<polyline clip-path="url(#clip002)" style="stroke:#000000; stroke-linecap:round; stroke-linejoin:round; stroke-width:2; stroke-opacity:0.1; fill:none" points="1086.3,1423.18 1086.3,47.2441 "/>
<polyline clip-path="url(#clip002)" style="stroke:#000000; stroke-linecap:round; stroke-linejoin:round; stroke-width:2; stroke-opacity:0.1; fill:none" points="1515.07,1423.18 1515.07,47.2441 "/>
<polyline clip-path="url(#clip002)" style="stroke:#000000; stroke-linecap:round; stroke-linejoin:round; stroke-width:2; stroke-opacity:0.1; fill:none" points="1943.85,1423.18 1943.85,47.2441 "/>
<polyline clip-path="url(#clip002)" style="stroke:#000000; stroke-linecap:round; stroke-linejoin:round; stroke-width:2; stroke-opacity:0.1; fill:none" points="259.702,1218.02 2352.76,1218.02 "/>
<polyline clip-path="url(#clip002)" style="stroke:#000000; stroke-linecap:round; stroke-linejoin:round; stroke-width:2; stroke-opacity:0.1; fill:none" points="259.702,977.22 2352.76,977.22 "/>
<polyline clip-path="url(#clip002)" style="stroke:#000000; stroke-linecap:round; stroke-linejoin:round; stroke-width:2; stroke-opacity:0.1; fill:none" points="259.702,736.425 2352.76,736.425 "/>
<polyline clip-path="url(#clip002)" style="stroke:#000000; stroke-linecap:round; stroke-linejoin:round; stroke-width:2; stroke-opacity:0.1; fill:none" points="259.702,495.63 2352.76,495.63 "/>
<polyline clip-path="url(#clip002)" style="stroke:#000000; stroke-linecap:round; stroke-linejoin:round; stroke-width:2; stroke-opacity:0.1; fill:none" points="259.702,254.835 2352.76,254.835 "/>
<polyline clip-path="url(#clip000)" style="stroke:#000000; stroke-linecap:round; stroke-linejoin:round; stroke-width:4; stroke-opacity:1; fill:none" points="259.702,1423.18 2352.76,1423.18 "/>
<polyline clip-path="url(#clip000)" style="stroke:#000000; stroke-linecap:round; stroke-linejoin:round; stroke-width:4; stroke-opacity:1; fill:none" points="657.525,1423.18 657.525,1404.28 "/>
<polyline clip-path="url(#clip000)" style="stroke:#000000; stroke-linecap:round; stroke-linejoin:round; stroke-width:4; stroke-opacity:1; fill:none" points="1086.3,1423.18 1086.3,1404.28 "/>
<polyline clip-path="url(#clip000)" style="stroke:#000000; stroke-linecap:round; stroke-linejoin:round; stroke-width:4; stroke-opacity:1; fill:none" points="1515.07,1423.18 1515.07,1404.28 "/>
<polyline clip-path="url(#clip000)" style="stroke:#000000; stroke-linecap:round; stroke-linejoin:round; stroke-width:4; stroke-opacity:1; fill:none" points="1943.85,1423.18 1943.85,1404.28 "/>
<path clip-path="url(#clip000)" d="M624.69 1451.02 L643.046 1451.02 L643.046 1454.96 L628.972 1454.96 L628.972 1463.43 Q629.991 1463.08 631.009 1462.92 Q632.028 1462.73 633.046 1462.73 Q638.833 1462.73 642.213 1465.9 Q645.592 1469.08 645.592 1474.49 Q645.592 1480.07 642.12 1483.17 Q638.648 1486.25 632.329 1486.25 Q630.153 1486.25 627.884 1485.88 Q625.639 1485.51 623.231 1484.77 L623.231 1480.07 Q625.315 1481.2 627.537 1481.76 Q629.759 1482.32 632.236 1482.32 Q636.241 1482.32 638.579 1480.21 Q640.917 1478.1 640.917 1474.49 Q640.917 1470.88 638.579 1468.77 Q636.241 1466.67 632.236 1466.67 Q630.361 1466.67 628.486 1467.08 Q626.634 1467.5 624.69 1468.38 L624.69 1451.02 Z" fill="#000000" fill-rule="nonzero" fill-opacity="1" /><path clip-path="url(#clip000)" d="M654.805 1479.7 L659.69 1479.7 L659.69 1485.58 L654.805 1485.58 L654.805 1479.7 Z" fill="#000000" fill-rule="nonzero" fill-opacity="1" /><path clip-path="url(#clip000)" d="M679.875 1454.1 Q676.264 1454.1 674.435 1457.66 Q672.629 1461.2 672.629 1468.33 Q672.629 1475.44 674.435 1479.01 Q676.264 1482.55 679.875 1482.55 Q683.509 1482.55 685.314 1479.01 Q687.143 1475.44 687.143 1468.33 Q687.143 1461.2 685.314 1457.66 Q683.509 1454.1 679.875 1454.1 M679.875 1450.39 Q685.685 1450.39 688.74 1455 Q691.819 1459.58 691.819 1468.33 Q691.819 1477.06 688.74 1481.67 Q685.685 1486.25 679.875 1486.25 Q674.064 1486.25 670.986 1481.67 Q667.93 1477.06 667.93 1468.33 Q667.93 1459.58 670.986 1455 Q674.064 1450.39 679.875 1450.39 Z" fill="#000000" fill-rule="nonzero" fill-opacity="1" /><path clip-path="url(#clip000)" d="M1053.96 1451.02 L1072.32 1451.02 L1072.32 1454.96 L1058.24 1454.96 L1058.24 1463.43 Q1059.26 1463.08 1060.28 1462.92 Q1061.3 1462.73 1062.32 1462.73 Q1068.11 1462.73 1071.48 1465.9 Q1074.86 1469.08 1074.86 1474.49 Q1074.86 1480.07 1071.39 1483.17 Q1067.92 1486.25 1061.6 1486.25 Q1059.42 1486.25 1057.16 1485.88 Q1054.91 1485.51 1052.5 1484.77 L1052.5 1480.07 Q1054.59 1481.2 1056.81 1481.76 Q1059.03 1482.32 1061.51 1482.32 Q1065.51 1482.32 1067.85 1480.21 Q1070.19 1478.1 1070.19 1474.49 Q1070.19 1470.88 1067.85 1468.77 Q1065.51 1466.67 1061.51 1466.67 Q1059.63 1466.67 1057.76 1467.08 Q1055.91 1467.5 1053.96 1468.38 L1053.96 1451.02 Z" fill="#000000" fill-rule="nonzero" fill-opacity="1" /><path clip-path="url(#clip000)" d="M1084.08 1479.7 L1088.96 1479.7 L1088.96 1485.58 L1084.08 1485.58 L1084.08 1479.7 Z" fill="#000000" fill-rule="nonzero" fill-opacity="1" /><path clip-path="url(#clip000)" d="M1099.19 1451.02 L1117.55 1451.02 L1117.55 1454.96 L1103.48 1454.96 L1103.48 1463.43 Q1104.49 1463.08 1105.51 1462.92 Q1106.53 1462.73 1107.55 1462.73 Q1113.34 1462.73 1116.72 1465.9 Q1120.1 1469.08 1120.1 1474.49 Q1120.1 1480.07 1116.62 1483.17 Q1113.15 1486.25 1106.83 1486.25 Q1104.66 1486.25 1102.39 1485.88 Q1100.14 1485.51 1097.73 1484.77 L1097.73 1480.07 Q1099.82 1481.2 1102.04 1481.76 Q1104.26 1482.32 1106.74 1482.32 Q1110.74 1482.32 1113.08 1480.21 Q1115.42 1478.1 1115.42 1474.49 Q1115.42 1470.88 1113.08 1468.77 Q1110.74 1466.67 1106.74 1466.67 Q1104.86 1466.67 1102.99 1467.08 Q1101.14 1467.5 1099.19 1468.38 L1099.19 1451.02 Z" fill="#000000" fill-rule="nonzero" fill-opacity="1" /><path clip-path="url(#clip000)" d="M1492.94 1466.44 Q1489.8 1466.44 1487.94 1468.59 Q1486.12 1470.74 1486.12 1474.49 Q1486.12 1478.22 1487.94 1480.39 Q1489.8 1482.55 1492.94 1482.55 Q1496.09 1482.55 1497.92 1480.39 Q1499.77 1478.22 1499.77 1474.49 Q1499.77 1470.74 1497.92 1468.59 Q1496.09 1466.44 1492.94 1466.44 M1502.23 1451.78 L1502.23 1456.04 Q1500.47 1455.21 1498.66 1454.77 Q1496.88 1454.33 1495.12 1454.33 Q1490.49 1454.33 1488.04 1457.45 Q1485.61 1460.58 1485.26 1466.9 Q1486.63 1464.89 1488.69 1463.82 Q1490.75 1462.73 1493.22 1462.73 Q1498.43 1462.73 1501.44 1465.9 Q1504.47 1469.05 1504.47 1474.49 Q1504.47 1479.82 1501.32 1483.03 Q1498.18 1486.25 1492.94 1486.25 Q1486.95 1486.25 1483.78 1481.67 Q1480.61 1477.06 1480.61 1468.33 Q1480.61 1460.14 1484.5 1455.28 Q1488.38 1450.39 1494.94 1450.39 Q1496.69 1450.39 1498.48 1450.74 Q1500.28 1451.09 1502.23 1451.78 Z" fill="#000000" fill-rule="nonzero" fill-opacity="1" /><path clip-path="url(#clip000)" d="M1512.53 1479.7 L1517.41 1479.7 L1517.41 1485.58 L1512.53 1485.58 L1512.53 1479.7 Z" fill="#000000" fill-rule="nonzero" fill-opacity="1" /><path clip-path="url(#clip000)" d="M1537.6 1454.1 Q1533.99 1454.1 1532.16 1457.66 Q1530.35 1461.2 1530.35 1468.33 Q1530.35 1475.44 1532.16 1479.01 Q1533.99 1482.55 1537.6 1482.55 Q1541.23 1482.55 1543.04 1479.01 Q1544.87 1475.44 1544.87 1468.33 Q1544.87 1461.2 1543.04 1457.66 Q1541.23 1454.1 1537.6 1454.1 M1537.6 1450.39 Q1543.41 1450.39 1546.46 1455 Q1549.54 1459.58 1549.54 1468.33 Q1549.54 1477.06 1546.46 1481.67 Q1543.41 1486.25 1537.6 1486.25 Q1531.79 1486.25 1528.71 1481.67 Q1525.65 1477.06 1525.65 1468.33 Q1525.65 1459.58 1528.71 1455 Q1531.79 1450.39 1537.6 1450.39 Z" fill="#000000" fill-rule="nonzero" fill-opacity="1" /><path clip-path="url(#clip000)" d="M1922.22 1466.44 Q1919.07 1466.44 1917.22 1468.59 Q1915.39 1470.74 1915.39 1474.49 Q1915.39 1478.22 1917.22 1480.39 Q1919.07 1482.55 1922.22 1482.55 Q1925.36 1482.55 1927.19 1480.39 Q1929.05 1478.22 1929.05 1474.49 Q1929.05 1470.74 1927.19 1468.59 Q1925.36 1466.44 1922.22 1466.44 M1931.5 1451.78 L1931.5 1456.04 Q1929.74 1455.21 1927.93 1454.77 Q1926.15 1454.33 1924.39 1454.33 Q1919.76 1454.33 1917.31 1457.45 Q1914.88 1460.58 1914.53 1466.9 Q1915.9 1464.89 1917.96 1463.82 Q1920.02 1462.73 1922.49 1462.73 Q1927.7 1462.73 1930.71 1465.9 Q1933.74 1469.05 1933.74 1474.49 Q1933.74 1479.82 1930.6 1483.03 Q1927.45 1486.25 1922.22 1486.25 Q1916.22 1486.25 1913.05 1481.67 Q1909.88 1477.06 1909.88 1468.33 Q1909.88 1460.14 1913.77 1455.28 Q1917.66 1450.39 1924.21 1450.39 Q1925.97 1450.39 1927.75 1450.74 Q1929.55 1451.09 1931.5 1451.78 Z" fill="#000000" fill-rule="nonzero" fill-opacity="1" /><path clip-path="url(#clip000)" d="M1941.8 1479.7 L1946.68 1479.7 L1946.68 1485.58 L1941.8 1485.58 L1941.8 1479.7 Z" fill="#000000" fill-rule="nonzero" fill-opacity="1" /><path clip-path="url(#clip000)" d="M1956.92 1451.02 L1975.27 1451.02 L1975.27 1454.96 L1961.2 1454.96 L1961.2 1463.43 Q1962.22 1463.08 1963.23 1462.92 Q1964.25 1462.73 1965.27 1462.73 Q1971.06 1462.73 1974.44 1465.9 Q1977.82 1469.08 1977.82 1474.49 Q1977.82 1480.07 1974.35 1483.17 Q1970.87 1486.25 1964.55 1486.25 Q1962.38 1486.25 1960.11 1485.88 Q1957.86 1485.51 1955.46 1484.77 L1955.46 1480.07 Q1957.54 1481.2 1959.76 1481.76 Q1961.98 1482.32 1964.46 1482.32 Q1968.47 1482.32 1970.8 1480.21 Q1973.14 1478.1 1973.14 1474.49 Q1973.14 1470.88 1970.8 1468.77 Q1968.47 1466.67 1964.46 1466.67 Q1962.59 1466.67 1960.71 1467.08 Q1958.86 1467.5 1956.92 1468.38 L1956.92 1451.02 Z" fill="#000000" fill-rule="nonzero" fill-opacity="1" /><path clip-path="url(#clip000)" d="M1235.87 1510.81 L1226.37 1548.94 Q1225.98 1550.46 1225.98 1552.1 Q1225.98 1555.13 1227.98 1555.13 Q1228.92 1555.13 1229.69 1554.52 Q1230.46 1553.87 1231.04 1552.61 Q1231.65 1551.33 1232.04 1550.1 Q1232.46 1548.88 1232.97 1546.98 Q1233.13 1546.24 1233.3 1546.01 Q1233.46 1545.79 1233.91 1545.79 Q1234.71 1545.79 1234.71 1546.43 Q1233.91 1550.39 1232.72 1552.9 Q1230.98 1556.61 1227.76 1556.61 Q1225.34 1556.61 1223.54 1554.93 Q1221.77 1553.23 1221.77 1550.52 Q1221.77 1549.49 1222.09 1548.27 L1230.4 1515.29 L1230.62 1514 Q1230.62 1513.65 1230.49 1513.45 Q1230.36 1513.26 1229.59 1513.07 Q1228.85 1512.87 1227.37 1512.87 Q1226.76 1512.87 1226.47 1512.84 Q1226.21 1512.81 1225.95 1512.65 Q1225.73 1512.49 1225.73 1512.13 Q1225.73 1511.55 1225.95 1511.23 Q1226.21 1510.91 1226.4 1510.84 Q1226.6 1510.78 1226.98 1510.75 Q1227.53 1510.72 1229.37 1510.55 Q1231.2 1510.36 1232.78 1510.23 Q1234.36 1510.1 1235.03 1510.1 Q1235.42 1510.1 1235.61 1510.3 Q1235.84 1510.46 1235.87 1510.65 L1235.87 1510.81 Z" fill="#000000" fill-rule="nonzero" fill-opacity="1" /><path clip-path="url(#clip000)" d="M1271.58 1537.86 Q1271.58 1541.38 1270.03 1544.85 Q1268.49 1548.3 1266.01 1550.88 Q1263.56 1553.42 1260.34 1555.03 Q1257.12 1556.61 1253.9 1556.61 Q1249.29 1556.61 1246.3 1553.48 Q1243.34 1550.33 1243.34 1545.43 Q1243.34 1540.86 1245.88 1536.51 Q1248.46 1532.13 1252.58 1529.43 Q1256.7 1526.72 1261.02 1526.72 Q1265.56 1526.72 1268.55 1529.78 Q1271.58 1532.84 1271.58 1537.86 M1266.75 1535.29 Q1266.75 1532.16 1265.24 1530.17 Q1263.72 1528.17 1260.95 1528.17 Q1260.15 1528.17 1259.21 1528.43 Q1258.28 1528.65 1257.06 1529.27 Q1255.86 1529.88 1254.51 1531.17 Q1253.19 1532.42 1252.03 1534.23 Q1250.52 1536.61 1249.36 1540.99 Q1248.23 1545.34 1248.23 1547.95 Q1248.23 1551.55 1249.91 1553.36 Q1251.58 1555.13 1253.96 1555.13 Q1256.28 1555.13 1258.73 1553.52 Q1261.21 1551.87 1262.92 1549.07 Q1264.62 1546.17 1265.69 1541.92 Q1266.75 1537.64 1266.75 1535.29 Z" fill="#000000" fill-rule="nonzero" fill-opacity="1" /><path clip-path="url(#clip000)" d="M1302.91 1529.81 Q1302.91 1529.85 1302.72 1531 L1295.37 1560.28 Q1294.99 1561.83 1293.89 1563.37 Q1292.83 1564.95 1291.12 1566.3 Q1289.45 1567.69 1286.87 1568.52 Q1284.33 1569.39 1281.4 1569.39 Q1276.73 1569.39 1274.66 1568.4 Q1272.64 1567.43 1272.64 1565.37 Q1272.64 1563.56 1273.76 1562.53 Q1274.89 1561.54 1276.18 1561.54 Q1277.4 1561.54 1278.05 1562.24 Q1278.69 1562.95 1278.69 1563.85 Q1278.69 1564.85 1278.01 1565.85 Q1277.34 1566.88 1275.98 1567.27 Q1278.14 1567.94 1281.27 1567.94 Q1287.87 1567.94 1290.7 1560.96 Q1290.77 1560.86 1290.77 1560.83 L1292.96 1552.1 L1292.86 1552.04 Q1292.31 1552.68 1291.44 1553.42 Q1290.61 1554.13 1288.8 1555 Q1287 1555.87 1285.23 1555.87 Q1281.52 1555.87 1278.98 1553.03 Q1276.47 1550.17 1276.47 1545.43 Q1276.47 1541.99 1277.85 1538.54 Q1279.27 1535.06 1281.46 1532.52 Q1283.68 1529.94 1286.52 1528.33 Q1289.38 1526.72 1292.15 1526.72 Q1294.08 1526.72 1295.73 1527.88 Q1297.37 1529.01 1298.27 1530.88 Q1298.43 1529.33 1299.3 1528.69 Q1300.2 1528.04 1300.98 1528.04 Q1301.85 1528.04 1302.36 1528.53 Q1302.91 1528.98 1302.91 1529.81 M1297.5 1533.84 Q1297.5 1533.65 1297.37 1533.13 Q1297.24 1532.58 1296.85 1531.71 Q1296.5 1530.84 1295.95 1530.07 Q1295.4 1529.3 1294.41 1528.75 Q1293.44 1528.17 1292.22 1528.17 Q1290.22 1528.17 1288.22 1529.85 Q1286.23 1531.49 1284.84 1534.03 Q1283.55 1536.48 1282.33 1541.21 Q1281.14 1545.95 1281.14 1548.36 Q1281.14 1550.75 1282.17 1552.58 Q1283.2 1554.42 1285.42 1554.42 Q1288 1554.42 1290.77 1552.04 Q1293.63 1549.56 1294.12 1547.43 L1297.3 1534.84 Q1297.5 1534.06 1297.5 1533.84 Z" fill="#000000" fill-rule="nonzero" fill-opacity="1" /><path clip-path="url(#clip000)" d="M1311.95 1539.38 Q1311.95 1528.24 1316.11 1519.25 Q1317.88 1515.48 1320.36 1512.33 Q1322.84 1509.17 1324.48 1507.78 Q1326.12 1506.4 1326.57 1506.4 Q1327.22 1506.4 1327.25 1507.04 Q1327.25 1507.37 1326.38 1508.17 Q1315.75 1518.99 1315.78 1539.38 Q1315.78 1559.83 1326.12 1570.23 Q1327.25 1571.36 1327.25 1571.71 Q1327.25 1572.36 1326.57 1572.36 Q1326.12 1572.36 1324.54 1571.04 Q1322.97 1569.72 1320.52 1566.69 Q1318.07 1563.66 1316.3 1559.96 Q1311.95 1550.97 1311.95 1539.38 Z" fill="#000000" fill-rule="nonzero" fill-opacity="1" /><path clip-path="url(#clip000)" d="M1360.15 1516.83 Q1360.15 1518.86 1354.29 1518.86 Q1353.29 1518.86 1352.75 1518.83 Q1352.2 1518.77 1351.39 1518.44 Q1350.62 1518.09 1350.07 1517.41 Q1346.6 1519.12 1344.66 1522.34 Q1342.76 1525.56 1342.76 1528.62 Q1342.76 1531.81 1344.73 1533.77 Q1347.17 1532.97 1350.27 1532.97 Q1352.75 1532.97 1354.2 1533.32 Q1355.68 1533.68 1355.68 1534.77 Q1355.68 1535.26 1355.39 1535.64 Q1355.1 1536 1354.49 1536.22 Q1353.91 1536.42 1353.36 1536.54 Q1352.84 1536.67 1352.01 1536.74 Q1351.17 1536.77 1350.72 1536.8 Q1350.27 1536.8 1349.56 1536.8 Q1346.08 1536.8 1343.73 1535.96 Q1339.96 1537.86 1337.8 1541.31 Q1335.65 1544.72 1335.65 1547.17 Q1335.65 1551.04 1340.57 1553.03 L1344.53 1554.61 Q1345.44 1554.9 1348.56 1556.13 L1352.59 1557.64 Q1355.74 1559.02 1355.74 1562.34 Q1355.74 1564.92 1353.74 1567.14 Q1351.78 1569.39 1348.88 1569.39 Q1347.17 1569.39 1345.4 1568.75 Q1343.66 1568.14 1342.67 1567.4 Q1341.7 1566.66 1341.7 1566.24 Q1341.7 1565.5 1342.34 1565.5 Q1342.6 1565.5 1343.08 1565.82 Q1346.14 1567.94 1348.88 1567.94 Q1350.3 1567.94 1351.2 1566.82 Q1352.13 1565.69 1352.13 1564.43 Q1352.13 1563.76 1351.94 1563.28 Q1351.78 1562.79 1351.3 1562.44 Q1350.85 1562.12 1350.62 1561.99 Q1350.43 1561.89 1349.82 1561.6 Q1348.53 1561.12 1346.31 1560.25 Q1344.08 1559.41 1341.83 1558.51 Q1338.03 1557.09 1336.87 1556.45 Q1335.74 1555.84 1334.16 1554.23 L1334.03 1554.06 Q1333.87 1553.87 1333.71 1553.65 Q1333.58 1553.42 1333.36 1553.1 Q1333.17 1552.74 1332.97 1552.33 Q1332.78 1551.91 1332.62 1551.42 Q1332.46 1550.91 1332.36 1550.3 Q1332.26 1549.65 1332.26 1549.01 Q1332.26 1547.95 1332.62 1546.56 Q1333 1545.14 1333.84 1543.28 Q1334.71 1541.41 1336.55 1539.38 Q1338.38 1537.35 1340.89 1535.67 L1341.76 1535.03 Q1339.57 1533.77 1338.51 1531.91 Q1337.48 1530.04 1337.48 1528.04 Q1337.48 1524.15 1340.64 1520.67 Q1343.83 1517.16 1349.01 1515.71 Q1348.56 1513.9 1348.56 1513.13 Q1348.56 1512.84 1348.59 1512.52 Q1348.62 1512.16 1348.69 1511.49 Q1348.79 1510.78 1349.04 1510.36 Q1349.33 1509.91 1349.75 1509.91 Q1350.52 1509.91 1350.52 1510.75 Q1350.2 1512.26 1350.2 1513.2 Q1350.2 1514.42 1350.52 1515.39 Q1352.39 1515.03 1354.68 1515.03 Q1357.22 1515.03 1358.67 1515.39 Q1360.15 1515.71 1360.15 1516.83 M1358.45 1516.9 Q1356.9 1516.48 1354.74 1516.48 Q1352.75 1516.48 1351.59 1516.83 Q1352.1 1517.22 1352.65 1517.32 Q1353.23 1517.41 1354.36 1517.41 Q1357.06 1517.41 1358.45 1516.9 M1353.97 1534.84 Q1352.42 1534.42 1350.2 1534.42 Q1348.08 1534.42 1346.43 1534.84 Q1347.27 1535.19 1347.85 1535.29 Q1348.46 1535.35 1349.75 1535.35 Q1352.94 1535.35 1353.97 1534.84 Z" fill="#000000" fill-rule="nonzero" fill-opacity="1" /><path clip-path="url(#clip000)" d="M1365.36 1571.71 Q1365.36 1571.39 1366.2 1570.59 Q1376.83 1559.76 1376.83 1539.38 Q1376.83 1518.93 1366.62 1508.59 Q1365.36 1507.4 1365.36 1507.04 Q1365.36 1506.4 1366.01 1506.4 Q1366.46 1506.4 1368.04 1507.72 Q1369.65 1509.04 1372.06 1512.07 Q1374.51 1515.1 1376.31 1518.8 Q1380.66 1527.78 1380.66 1539.38 Q1380.66 1550.52 1376.51 1559.51 Q1374.74 1563.28 1372.26 1566.43 Q1369.78 1569.59 1368.13 1570.97 Q1366.49 1572.36 1366.01 1572.36 Q1365.36 1572.36 1365.36 1571.71 Z" fill="#000000" fill-rule="nonzero" fill-opacity="1" /><polyline clip-path="url(#clip000)" style="stroke:#000000; stroke-linecap:round; stroke-linejoin:round; stroke-width:4; stroke-opacity:1; fill:none" points="259.702,1423.18 259.702,47.2441 "/>
<polyline clip-path="url(#clip000)" style="stroke:#000000; stroke-linecap:round; stroke-linejoin:round; stroke-width:4; stroke-opacity:1; fill:none" points="259.702,1218.02 278.6,1218.02 "/>
<polyline clip-path="url(#clip000)" style="stroke:#000000; stroke-linecap:round; stroke-linejoin:round; stroke-width:4; stroke-opacity:1; fill:none" points="259.702,977.22 278.6,977.22 "/>
<polyline clip-path="url(#clip000)" style="stroke:#000000; stroke-linecap:round; stroke-linejoin:round; stroke-width:4; stroke-opacity:1; fill:none" points="259.702,736.425 278.6,736.425 "/>
<polyline clip-path="url(#clip000)" style="stroke:#000000; stroke-linecap:round; stroke-linejoin:round; stroke-width:4; stroke-opacity:1; fill:none" points="259.702,495.63 278.6,495.63 "/>
<polyline clip-path="url(#clip000)" style="stroke:#000000; stroke-linecap:round; stroke-linejoin:round; stroke-width:4; stroke-opacity:1; fill:none" points="259.702,254.835 278.6,254.835 "/>
<path clip-path="url(#clip000)" d="M116.272 1218.47 L145.948 1218.47 L145.948 1222.4 L116.272 1222.4 L116.272 1218.47 Z" fill="#000000" fill-rule="nonzero" fill-opacity="1" /><path clip-path="url(#clip000)" d="M156.087 1200.74 L174.443 1200.74 L174.443 1204.67 L160.369 1204.67 L160.369 1213.14 Q161.388 1212.8 162.406 1212.63 Q163.425 1212.45 164.443 1212.45 Q170.23 1212.45 173.61 1215.62 Q176.989 1218.79 176.989 1224.21 Q176.989 1229.79 173.517 1232.89 Q170.045 1235.97 163.725 1235.97 Q161.55 1235.97 159.281 1235.6 Q157.036 1235.23 154.628 1234.49 L154.628 1229.79 Q156.712 1230.92 158.934 1231.48 Q161.156 1232.03 163.633 1232.03 Q167.637 1232.03 169.975 1229.93 Q172.313 1227.82 172.313 1224.21 Q172.313 1220.6 169.975 1218.49 Q167.637 1216.38 163.633 1216.38 Q161.758 1216.38 159.883 1216.8 Q158.031 1217.22 156.087 1218.1 L156.087 1200.74 Z" fill="#000000" fill-rule="nonzero" fill-opacity="1" /><path clip-path="url(#clip000)" d="M186.202 1229.42 L191.086 1229.42 L191.086 1235.3 L186.202 1235.3 L186.202 1229.42 Z" fill="#000000" fill-rule="nonzero" fill-opacity="1" /><path clip-path="url(#clip000)" d="M214.119 1204.81 L202.313 1223.26 L214.119 1223.26 L214.119 1204.81 M212.892 1200.74 L218.771 1200.74 L218.771 1223.26 L223.702 1223.26 L223.702 1227.15 L218.771 1227.15 L218.771 1235.3 L214.119 1235.3 L214.119 1227.15 L198.517 1227.15 L198.517 1222.63 L212.892 1200.74 Z" fill="#000000" fill-rule="nonzero" fill-opacity="1" /><path clip-path="url(#clip000)" d="M117.985 977.672 L147.661 977.672 L147.661 981.607 L117.985 981.607 L117.985 977.672 Z" fill="#000000" fill-rule="nonzero" fill-opacity="1" /><path clip-path="url(#clip000)" d="M157.8 959.94 L176.156 959.94 L176.156 963.875 L162.082 963.875 L162.082 972.348 Q163.1 972 164.119 971.838 Q165.138 971.653 166.156 971.653 Q171.943 971.653 175.323 974.825 Q178.702 977.996 178.702 983.412 Q178.702 988.991 175.23 992.093 Q171.758 995.172 165.438 995.172 Q163.263 995.172 160.994 994.801 Q158.749 994.431 156.341 993.69 L156.341 988.991 Q158.425 990.125 160.647 990.681 Q162.869 991.236 165.346 991.236 Q169.35 991.236 171.688 989.13 Q174.026 987.024 174.026 983.412 Q174.026 979.801 171.688 977.695 Q169.35 975.588 165.346 975.588 Q163.471 975.588 161.596 976.005 Q159.744 976.422 157.8 977.301 L157.8 959.94 Z" fill="#000000" fill-rule="nonzero" fill-opacity="1" /><path clip-path="url(#clip000)" d="M187.915 988.621 L192.799 988.621 L192.799 994.5 L187.915 994.5 L187.915 988.621 Z" fill="#000000" fill-rule="nonzero" fill-opacity="1" /><path clip-path="url(#clip000)" d="M203.795 990.565 L211.434 990.565 L211.434 964.2 L203.123 965.866 L203.123 961.607 L211.387 959.94 L216.063 959.94 L216.063 990.565 L223.702 990.565 L223.702 994.5 L203.795 994.5 L203.795 990.565 Z" fill="#000000" fill-rule="nonzero" fill-opacity="1" /><path clip-path="url(#clip000)" d="M116.851 736.877 L146.526 736.877 L146.526 740.812 L116.851 740.812 L116.851 736.877 Z" fill="#000000" fill-rule="nonzero" fill-opacity="1" /><path clip-path="url(#clip000)" d="M169.466 723.219 L157.661 741.668 L169.466 741.668 L169.466 723.219 M168.239 719.145 L174.119 719.145 L174.119 741.668 L179.049 741.668 L179.049 745.557 L174.119 745.557 L174.119 753.705 L169.466 753.705 L169.466 745.557 L153.864 745.557 L153.864 741.043 L168.239 719.145 Z" fill="#000000" fill-rule="nonzero" fill-opacity="1" /><path clip-path="url(#clip000)" d="M186.781 747.826 L191.665 747.826 L191.665 753.705 L186.781 753.705 L186.781 747.826 Z" fill="#000000" fill-rule="nonzero" fill-opacity="1" /><path clip-path="url(#clip000)" d="M211.85 737.293 Q208.517 737.293 206.596 739.076 Q204.697 740.858 204.697 743.983 Q204.697 747.108 206.596 748.89 Q208.517 750.673 211.85 750.673 Q215.184 750.673 217.105 748.89 Q219.026 747.085 219.026 743.983 Q219.026 740.858 217.105 739.076 Q215.207 737.293 211.85 737.293 M207.174 735.303 Q204.165 734.562 202.475 732.502 Q200.809 730.441 200.809 727.478 Q200.809 723.335 203.748 720.928 Q206.711 718.52 211.85 718.52 Q217.012 718.52 219.952 720.928 Q222.892 723.335 222.892 727.478 Q222.892 730.441 221.202 732.502 Q219.535 734.562 216.549 735.303 Q219.929 736.09 221.804 738.381 Q223.702 740.673 223.702 743.983 Q223.702 749.006 220.623 751.691 Q217.568 754.376 211.85 754.376 Q206.133 754.376 203.054 751.691 Q199.998 749.006 199.998 743.983 Q199.998 740.673 201.897 738.381 Q203.795 736.09 207.174 735.303 M205.461 727.918 Q205.461 730.603 207.128 732.108 Q208.818 733.613 211.85 733.613 Q214.859 733.613 216.549 732.108 Q218.262 730.603 218.262 727.918 Q218.262 725.233 216.549 723.729 Q214.859 722.224 211.85 722.224 Q208.818 722.224 207.128 723.729 Q205.461 725.233 205.461 727.918 Z" fill="#000000" fill-rule="nonzero" fill-opacity="1" /><path clip-path="url(#clip000)" d="M117.754 496.081 L147.429 496.081 L147.429 500.017 L117.754 500.017 L117.754 496.081 Z" fill="#000000" fill-rule="nonzero" fill-opacity="1" /><path clip-path="url(#clip000)" d="M170.369 482.424 L158.563 500.873 L170.369 500.873 L170.369 482.424 M169.142 478.35 L175.022 478.35 L175.022 500.873 L179.952 500.873 L179.952 504.762 L175.022 504.762 L175.022 512.91 L170.369 512.91 L170.369 504.762 L154.767 504.762 L154.767 500.248 L169.142 478.35 Z" fill="#000000" fill-rule="nonzero" fill-opacity="1" /><path clip-path="url(#clip000)" d="M187.684 507.03 L192.568 507.03 L192.568 512.91 L187.684 512.91 L187.684 507.03 Z" fill="#000000" fill-rule="nonzero" fill-opacity="1" /><path clip-path="url(#clip000)" d="M202.799 478.35 L221.156 478.35 L221.156 482.285 L207.082 482.285 L207.082 490.757 Q208.1 490.41 209.119 490.248 Q210.137 490.063 211.156 490.063 Q216.943 490.063 220.322 493.234 Q223.702 496.406 223.702 501.822 Q223.702 507.401 220.23 510.503 Q216.758 513.581 210.438 513.581 Q208.262 513.581 205.994 513.211 Q203.748 512.841 201.341 512.1 L201.341 507.401 Q203.424 508.535 205.647 509.091 Q207.869 509.646 210.346 509.646 Q214.35 509.646 216.688 507.54 Q219.026 505.433 219.026 501.822 Q219.026 498.211 216.688 496.105 Q214.35 493.998 210.346 493.998 Q208.471 493.998 206.596 494.415 Q204.744 494.831 202.799 495.711 L202.799 478.35 Z" fill="#000000" fill-rule="nonzero" fill-opacity="1" /><path clip-path="url(#clip000)" d="M118.355 255.286 L148.031 255.286 L148.031 259.221 L118.355 259.221 L118.355 255.286 Z" fill="#000000" fill-rule="nonzero" fill-opacity="1" /><path clip-path="url(#clip000)" d="M170.971 241.629 L159.165 260.078 L170.971 260.078 L170.971 241.629 M169.744 237.555 L175.624 237.555 L175.624 260.078 L180.554 260.078 L180.554 263.967 L175.624 263.967 L175.624 272.115 L170.971 272.115 L170.971 263.967 L155.369 263.967 L155.369 259.453 L169.744 237.555 Z" fill="#000000" fill-rule="nonzero" fill-opacity="1" /><path clip-path="url(#clip000)" d="M188.286 266.235 L193.17 266.235 L193.17 272.115 L188.286 272.115 L188.286 266.235 Z" fill="#000000" fill-rule="nonzero" fill-opacity="1" /><path clip-path="url(#clip000)" d="M207.383 268.18 L223.702 268.18 L223.702 272.115 L201.758 272.115 L201.758 268.18 Q204.42 265.425 209.003 260.796 Q213.609 256.143 214.79 254.8 Q217.035 252.277 217.915 250.541 Q218.818 248.782 218.818 247.092 Q218.818 244.337 216.873 242.601 Q214.952 240.865 211.85 240.865 Q209.651 240.865 207.197 241.629 Q204.767 242.393 201.989 243.944 L201.989 239.222 Q204.813 238.087 207.267 237.509 Q209.721 236.93 211.758 236.93 Q217.128 236.93 220.322 239.615 Q223.517 242.3 223.517 246.791 Q223.517 248.921 222.707 250.842 Q221.92 252.74 219.813 255.333 Q219.234 256.004 216.133 259.221 Q213.031 262.416 207.383 268.18 Z" fill="#000000" fill-rule="nonzero" fill-opacity="1" /><path clip-path="url(#clip000)" d="M17.348 963.354 L55.4797 972.854 Q56.9934 973.241 58.6359 973.241 Q61.6633 973.241 61.6633 971.244 Q61.6633 970.31 61.0514 969.537 Q60.4072 968.764 59.1512 968.184 Q57.863 967.572 56.6392 967.186 Q55.4153 966.767 53.5152 966.252 Q52.7744 966.091 52.549 965.93 Q52.3236 965.769 52.3236 965.318 Q52.3236 964.513 52.9677 964.513 Q56.929 965.318 59.4411 966.51 Q63.1447 968.249 63.1447 971.469 Q63.1447 973.885 61.47 975.688 Q59.7631 977.46 57.0578 977.46 Q56.0272 977.46 54.8034 977.138 L21.8246 968.829 L20.5364 968.603 Q20.1821 968.603 19.9889 968.732 Q19.7956 968.861 19.6024 969.634 Q19.4092 970.374 19.4092 971.856 Q19.4092 972.468 19.377 972.758 Q19.3448 973.015 19.1837 973.273 Q19.0227 973.498 18.6684 973.498 Q18.0887 973.498 17.7667 973.273 Q17.4446 973.015 17.3802 972.822 Q17.3158 972.629 17.2836 972.242 Q17.2514 971.695 17.0904 969.859 Q16.8971 968.023 16.7683 966.445 Q16.6395 964.867 16.6395 964.191 Q16.6395 963.804 16.8327 963.611 Q16.9937 963.386 17.187 963.354 L17.348 963.354 Z" fill="#000000" fill-rule="nonzero" fill-opacity="1" /><path clip-path="url(#clip000)" d="M44.4009 927.645 Q47.9114 927.645 51.3896 929.191 Q54.8356 930.737 57.4121 933.217 Q59.9564 935.664 61.5666 938.885 Q63.1447 942.105 63.1447 945.326 Q63.1447 949.932 60.0208 952.927 Q56.8646 955.89 51.9693 955.89 Q47.3961 955.89 43.0483 953.345 Q38.6683 950.769 35.963 946.647 Q33.2577 942.524 33.2577 938.209 Q33.2577 933.668 36.3173 930.672 Q39.3768 927.645 44.4009 927.645 M41.8245 932.476 Q38.7005 932.476 36.7037 933.99 Q34.707 935.503 34.707 938.273 Q34.707 939.078 34.9646 940.012 Q35.19 940.946 35.802 942.17 Q36.4139 943.362 37.7021 944.714 Q38.9581 946.035 40.7617 947.194 Q43.1449 948.708 47.5249 949.867 Q51.8727 950.994 54.4814 950.994 Q58.0884 950.994 59.8919 949.32 Q61.6633 947.645 61.6633 945.262 Q61.6633 942.943 60.053 940.495 Q58.4105 938.015 55.6086 936.308 Q52.71 934.602 48.4589 933.539 Q44.1755 932.476 41.8245 932.476 Z" fill="#000000" fill-rule="nonzero" fill-opacity="1" /><path clip-path="url(#clip000)" d="M36.3495 896.317 Q36.3817 896.317 37.5411 896.51 L66.8162 903.853 Q68.3621 904.24 69.908 905.335 Q71.4861 906.397 72.8387 908.104 Q74.2236 909.779 75.0609 912.355 Q75.9305 914.9 75.9305 917.83 Q75.9305 922.5 74.9321 924.561 Q73.9659 926.59 71.9047 926.59 Q70.1012 926.59 69.0706 925.463 Q68.0722 924.336 68.0722 923.048 Q68.0722 921.824 68.7808 921.18 Q69.4893 920.536 70.3911 920.536 Q71.3894 920.536 72.3878 921.212 Q73.4184 921.888 73.8049 923.241 Q74.4812 921.083 74.4812 917.959 Q74.4812 911.357 67.4925 908.523 Q67.3959 908.458 67.3637 908.458 L58.6359 906.268 L58.5715 906.365 Q59.2156 906.913 59.9564 907.782 Q60.6649 908.62 61.5344 910.423 Q62.404 912.227 62.404 913.998 Q62.404 917.702 59.5699 920.246 Q56.7036 922.758 51.9693 922.758 Q48.5233 922.758 45.0772 921.373 Q41.599 919.956 39.0548 917.766 Q36.4783 915.544 34.868 912.71 Q33.2577 909.843 33.2577 907.074 Q33.2577 905.141 34.4171 903.499 Q35.5443 901.856 37.4123 900.955 Q35.8664 900.793 35.2223 899.924 Q34.5781 899.022 34.5781 898.249 Q34.5781 897.38 35.0612 896.864 Q35.5121 896.317 36.3495 896.317 M40.3752 901.727 Q40.182 901.727 39.6667 901.856 Q39.1192 901.985 38.2496 902.372 Q37.38 902.726 36.6071 903.273 Q35.8342 903.821 35.2867 904.819 Q34.707 905.785 34.707 907.009 Q34.707 909.006 36.3817 911.003 Q38.0242 913 40.5684 914.384 Q43.0161 915.673 47.7503 916.896 Q52.4846 918.088 54.9 918.088 Q57.2833 918.088 59.119 917.057 Q60.9547 916.027 60.9547 913.805 Q60.9547 911.228 58.5715 908.458 Q56.0917 905.592 53.9661 905.109 L41.3736 901.921 Q40.6006 901.727 40.3752 901.727 Z" fill="#000000" fill-rule="nonzero" fill-opacity="1" /><path clip-path="url(#clip000)" d="M45.9146 887.273 Q34.7714 887.273 25.7859 883.119 Q22.0179 881.348 18.8617 878.868 Q15.7055 876.388 14.3207 874.745 Q12.9358 873.103 12.9358 872.652 Q12.9358 872.008 13.5799 871.976 Q13.902 871.976 14.7071 872.845 Q25.5283 883.473 45.9146 883.441 Q66.3653 883.441 76.7678 873.103 Q77.895 871.976 78.2493 871.976 Q78.8934 871.976 78.8934 872.652 Q78.8934 873.103 77.573 874.681 Q76.2525 876.259 73.2252 878.707 Q70.1978 881.154 66.4941 882.926 Q57.5087 887.273 45.9146 887.273 Z" fill="#000000" fill-rule="nonzero" fill-opacity="1" /><path clip-path="url(#clip000)" d="M86.2004 861.946 L35.1735 861.946 Q33.14 861.946 33.14 860.849 Q33.14 859.752 34.7722 859.752 L85.799 859.752 Q87.8326 859.752 87.8326 860.849 Q87.8326 861.946 86.2004 861.946 Z" fill="#000000" fill-rule="nonzero" fill-opacity="1" /><path clip-path="url(#clip000)" d="M33.9662 805.109 L70.6487 814.223 Q71.8081 814.481 72.098 814.481 Q72.4844 814.481 72.6455 814.385 Q72.8387 814.256 72.9997 813.547 Q73.1608 812.806 73.1608 811.325 Q73.1608 810.777 73.1608 810.584 Q73.1608 810.391 73.2252 810.101 Q73.2896 809.811 73.4506 809.715 Q73.6116 809.618 73.8693 809.618 Q75.1897 809.618 75.1897 810.777 Q75.1897 811.872 75.0931 814.159 Q74.9965 816.446 74.9965 817.573 Q74.9965 818.668 75.0931 820.89 Q75.1897 823.112 75.1897 824.175 Q75.1897 824.562 74.9965 824.787 Q74.8355 825.012 74.6422 825.012 L74.4812 825.045 Q73.5794 825.045 73.354 824.69 Q73.1608 824.336 73.1608 823.531 Q73.1286 820.761 72.7421 819.956 Q72.3556 819.151 70.9708 818.764 L59.1834 815.802 Q63.1447 819.763 63.1447 823.595 Q63.1447 827.299 60.2462 829.811 Q57.3155 832.291 52.5812 832.291 Q49.0708 832.291 45.5281 830.906 Q41.9855 829.489 39.3124 827.299 Q36.6393 825.077 34.9646 822.178 Q33.2577 819.28 33.2577 816.413 Q33.2577 814.578 34.3205 812.935 Q35.3833 811.261 37.8631 810.262 Q36.4461 809.425 34.9002 807.879 Q33.3221 806.333 33.3221 805.786 Q33.3221 805.463 33.5475 805.302 Q33.7408 805.109 33.9662 805.109 M40.504 811.196 Q40.182 811.196 39.3768 811.454 Q38.5717 811.679 37.4767 812.195 Q36.3495 812.678 35.5443 813.805 Q34.707 814.932 34.707 816.413 Q34.707 818.539 36.7681 820.826 Q38.7971 823.08 42.3397 824.562 Q44.6586 825.496 48.9742 826.558 Q53.2897 827.621 55.4797 827.621 Q55.995 827.621 56.5747 827.589 Q57.1544 827.524 58.1206 827.267 Q59.0868 827.009 59.8275 826.623 Q60.5683 826.204 61.1158 825.367 Q61.6633 824.529 61.6633 823.402 Q61.6633 820.954 59.5699 818.507 Q57.4765 816.059 55.6086 815.029 Q55.4153 814.9 48.1046 813.064 Q40.7939 811.196 40.504 811.196 Z" fill="#000000" fill-rule="nonzero" fill-opacity="1" /><path clip-path="url(#clip000)" d="M80.5823 760.5 Q80.7627 760.5 81.4615 760.703 Q82.1604 760.906 83.2425 761.402 Q84.3247 761.875 85.3166 762.552 Q86.286 763.205 87.0074 764.287 Q87.7063 765.347 87.7063 766.564 Q87.7063 768.188 86.6241 769.27 Q85.542 770.352 83.9189 770.352 Q83.0396 770.352 81.3714 769.743 Q73.7515 766.88 71.0236 766.88 Q67.7998 766.88 67.7998 769.382 Q67.7998 770.803 68.386 772.088 Q68.9721 773.373 69.7837 774.207 Q70.5953 775.041 71.5196 775.695 Q72.4439 776.349 73.0526 776.642 Q73.6613 776.912 73.9318 776.98 L85.0686 779.753 Q86.0155 779.978 86.4663 780.136 Q86.9172 780.294 87.3005 780.722 Q87.7063 781.15 87.7063 781.827 Q87.7063 782.39 87.3681 782.796 Q87.0299 783.179 86.4438 783.179 Q86.3536 783.179 85.8802 783.067 Q85.4068 782.954 84.753 782.796 Q84.0992 782.638 83.716 782.571 Q80.65 781.759 80.2216 781.646 L74.8561 780.361 Q72.1959 779.663 71.0236 779.663 Q67.7998 779.663 67.7998 782.165 Q67.7998 783.405 68.2732 784.577 Q68.7241 785.727 69.3554 786.516 Q69.9866 787.305 70.8658 788.026 Q71.7225 788.725 72.3086 789.086 Q72.8722 789.424 73.4358 789.695 L75.7353 790.281 Q76.3666 790.416 78.8239 791.07 L82.9945 792.084 Q86.1056 792.806 86.3987 792.964 Q87.0299 793.189 87.3681 793.685 Q87.7063 794.181 87.7063 794.677 Q87.7063 795.241 87.3681 795.624 Q87.0299 796.007 86.4438 796.007 Q86.3536 796.007 86.0155 795.939 Q85.6773 795.872 85.2039 795.759 Q84.7304 795.646 84.4599 795.601 L73.7966 792.919 Q71.8578 792.423 71.2491 792.31 Q70.6178 792.175 69.919 792.175 Q67.7998 792.175 67.7998 793.617 Q67.7998 794.79 69.1976 795.556 Q70.5953 796.323 73.3006 796.976 Q74.0445 797.179 74.2023 797.315 Q74.3602 797.427 74.3602 797.765 Q74.3376 798.329 73.8867 798.329 Q73.774 798.329 73.0526 798.149 Q72.3312 797.968 71.2491 797.63 Q70.1444 797.27 69.423 796.886 Q68.9496 796.661 68.634 796.458 Q68.3183 796.255 67.8224 795.849 Q67.3264 795.443 67.0559 794.835 Q66.7853 794.226 66.7853 793.482 Q66.7853 791.836 67.8449 790.619 Q68.9045 789.379 70.7982 789.221 Q66.7853 786.223 66.7853 782.03 Q66.7853 779.663 67.9802 778.242 Q69.1299 776.912 71.2491 776.754 Q66.7853 773.643 66.7853 769.225 Q66.7853 766.677 68.1154 765.302 Q69.423 763.927 71.7225 763.927 Q72.9173 763.927 75.1943 764.535 Q77.4487 765.144 78.5759 765.55 Q79.7031 765.956 81.8673 766.745 Q83.9414 767.579 85.1588 767.579 Q85.9478 767.579 86.3085 767.308 Q86.6692 767.038 86.6692 766.452 Q86.6692 765.55 86.1507 764.761 Q85.6097 763.972 84.7304 763.408 Q83.8287 762.822 82.9269 762.439 Q82.0026 762.056 80.9656 761.763 Q80.402 761.582 80.2667 761.492 Q80.1314 761.379 80.1314 761.064 Q80.1314 760.5 80.5823 760.5 Z" fill="#000000" fill-rule="nonzero" fill-opacity="1" /><path clip-path="url(#clip000)" d="M80.5823 736.481 Q83.4905 737.09 85.1588 737.879 Q87.7063 739.141 87.7063 741.283 Q87.7063 742.906 86.7143 744.056 Q85.7224 745.205 84.2345 745.476 Q87.7063 748.429 87.7063 751.495 Q87.7063 754.201 85.6548 755.914 Q83.5807 757.627 80.3118 757.627 Q77.0204 757.627 73.8642 756.004 Q70.708 754.358 68.7467 751.766 Q66.7853 749.173 66.7853 746.513 Q66.7853 743.695 69.7386 742.252 Q68.927 742.139 68.3183 741.621 Q67.7096 741.102 67.7096 740.313 Q67.7096 739.705 68.0478 739.344 Q68.3634 738.983 68.9496 738.983 Q69.2426 738.983 70.5277 739.299 L76.9753 740.967 L81.1459 741.982 Q82.6789 742.365 83.2425 742.478 Q83.8061 742.568 84.5501 742.568 Q86.6692 742.568 86.6692 741.193 Q86.6692 740.516 86.2409 739.975 Q85.8126 739.434 84.9108 739.006 Q84.009 738.577 83.1749 738.307 Q82.3182 738.036 80.9656 737.676 Q80.4245 737.563 80.2893 737.473 Q80.1314 737.36 80.1314 737.044 Q80.1314 736.481 80.5823 736.481 M71.8578 742.816 Q71.6549 742.816 71.0913 742.974 Q70.5277 743.131 69.7386 743.492 Q68.9496 743.853 68.386 744.642 Q67.7998 745.408 67.7998 746.445 Q67.7998 747.843 68.9947 749.308 Q70.1895 750.751 72.2185 751.811 Q73.8416 752.622 77.2458 753.502 Q80.65 754.358 82.3408 754.358 Q83.3778 754.358 84.3021 754.133 Q85.2039 753.885 85.9478 753.186 Q86.6692 752.487 86.6692 751.405 Q86.6692 748.767 83.4003 746.175 Q82.8367 745.679 82.6113 745.566 Q82.3633 745.431 81.687 745.251 L72.6468 742.951 Q71.9705 742.816 71.8578 742.816 Z" fill="#000000" fill-rule="nonzero" fill-opacity="1" /><path clip-path="url(#clip000)" d="M69.8288 711.559 Q71.0913 711.559 71.8127 712.348 Q72.5115 713.137 72.5115 714.039 Q72.5115 714.895 72.0156 715.346 Q71.5196 715.797 70.8884 715.797 Q70.0317 715.797 69.2877 715.166 Q68.5438 714.535 68.386 713.588 Q67.7998 714.512 67.7998 715.887 Q67.7998 716.789 68.2732 717.578 Q68.7467 718.345 69.3554 718.818 Q69.9641 719.269 70.8433 719.675 Q71.7 720.058 72.2185 720.216 Q72.7144 720.351 73.2555 720.464 L79.5678 722.042 Q82.5662 722.808 83.6258 722.808 Q84.9333 722.808 85.8126 722.177 Q86.6692 721.546 86.6692 720.283 Q86.6692 719.787 86.534 719.224 Q86.3762 718.66 85.9704 717.939 Q85.542 717.195 84.9108 716.541 Q84.257 715.865 83.1524 715.211 Q82.0477 714.557 80.6274 714.129 Q80.1314 713.994 80.1314 713.543 Q80.1314 712.979 80.5823 712.979 Q80.9656 712.979 81.7772 713.295 Q82.5662 713.588 83.6032 714.242 Q84.6177 714.873 85.542 715.707 Q86.4438 716.541 87.075 717.781 Q87.7063 719.021 87.7063 720.374 Q87.7063 722.312 86.6692 723.597 Q85.6322 724.882 84.1894 725.356 Q84.3923 725.469 84.6628 725.626 Q84.9333 725.784 85.542 726.258 Q86.1282 726.708 86.5791 727.227 Q87.0074 727.745 87.3456 728.557 Q87.7063 729.346 87.7063 730.203 Q87.7063 731.285 87.3906 732.254 Q87.075 733.201 86.3536 733.877 Q85.6322 734.554 84.6403 734.554 Q83.5356 734.554 82.7691 733.81 Q81.9801 733.043 81.9801 732.006 Q81.9801 731.353 82.3633 730.834 Q82.7466 730.293 83.5807 730.293 Q84.505 730.293 85.2039 730.924 Q85.9027 731.555 86.0831 732.457 Q86.6692 731.533 86.6692 730.158 Q86.6692 728.67 85.3617 727.497 Q84.0541 726.325 81.8673 725.762 Q76.6146 724.364 74.27 723.823 Q71.9028 723.282 70.8884 723.282 Q69.9415 723.282 69.2877 723.53 Q68.634 723.778 68.3409 724.206 Q68.0253 724.612 67.9125 724.995 Q67.7998 725.356 67.7998 725.762 Q67.7998 726.438 68.0704 727.204 Q68.3409 727.948 68.9721 728.85 Q69.5808 729.729 70.8433 730.563 Q72.1057 731.398 73.8416 731.961 Q74.3602 732.074 74.3602 732.57 Q74.3376 733.111 73.8867 733.111 Q73.5035 733.111 72.7144 732.818 Q71.9028 732.502 70.8884 731.871 Q69.8739 731.217 68.9721 730.383 Q68.0478 729.526 67.4166 728.287 Q66.7853 727.024 66.7853 725.671 Q66.7853 725.063 66.9206 724.477 Q67.0333 723.868 67.3715 723.146 Q67.7096 722.403 68.4536 721.749 Q69.1976 721.095 70.2797 720.689 Q69.7612 720.419 69.2652 720.058 Q68.7692 719.675 68.1605 719.089 Q67.5293 718.48 67.1686 717.646 Q66.7853 716.789 66.7853 715.842 Q66.7853 714.918 67.0333 714.016 Q67.2588 713.114 68.0027 712.348 Q68.7241 711.559 69.8288 711.559 Z" fill="#000000" fill-rule="nonzero" fill-opacity="1" /><path clip-path="url(#clip000)" d="M44.9806 639.522 Q45.3671 639.135 45.9146 639.135 Q46.4621 639.135 46.8486 639.522 Q47.235 639.908 47.235 640.456 L47.235 681.744 Q47.235 682.291 46.8486 682.678 Q46.4621 683.064 45.9146 683.064 Q45.3671 683.064 44.9806 682.678 Q44.5942 682.291 44.5942 681.744 L44.5942 640.456 Q44.5942 639.908 44.9806 639.522 Z" fill="#000000" fill-rule="nonzero" fill-opacity="1" /><path clip-path="url(#clip000)" d="M43.789 579.487 Q48.4911 579.487 53.0321 581.87 Q57.5731 584.221 60.375 587.925 Q63.1447 591.628 63.1447 595.396 Q63.1447 597.651 61.9209 599.165 Q60.6649 600.646 58.8936 601.451 Q61.0836 602.063 66.3331 603.384 Q71.5827 604.704 72.098 604.704 Q72.3878 604.704 72.5166 604.64 Q72.6455 604.575 72.8065 604.285 Q72.9997 603.995 73.0641 603.287 Q73.1608 602.578 73.1608 601.387 Q73.1608 600.775 73.1608 600.549 Q73.193 600.292 73.354 600.066 Q73.515 599.809 73.8693 599.809 Q75.1897 599.809 75.1897 601 Q75.1897 602.063 75.0931 604.253 Q74.9965 606.443 74.9965 607.538 Q74.9965 608.472 75.0931 610.34 Q75.1897 612.208 75.1897 613.078 Q75.1897 613.947 74.4168 613.947 Q73.9659 613.947 73.6761 613.818 Q73.4184 613.722 73.2896 613.464 Q73.193 613.206 73.1608 612.981 Q73.1608 612.788 73.1608 612.401 Q73.1608 610.92 72.9031 610.276 Q72.6777 609.631 72.1946 609.406 Q71.7437 609.148 70.4555 608.859 L41.0837 601.451 Q39.1192 601 37.7343 601 Q35.9952 601 35.3511 601.548 Q34.707 602.095 34.707 603.061 Q34.707 604.736 36.7037 605.831 Q38.7005 606.926 42.5652 607.86 Q43.628 608.15 43.8534 608.343 Q44.0789 608.504 44.0789 608.987 Q44.0467 609.793 43.4025 609.793 Q43.2415 609.793 42.2109 609.535 Q41.1481 609.277 39.6023 608.794 Q38.0242 608.279 37.0258 607.731 Q36.3495 607.409 35.8986 607.119 Q35.4477 606.83 34.7392 606.25 Q34.0306 605.638 33.6442 604.768 Q33.2577 603.899 33.2577 602.836 Q33.2577 600.775 34.4815 599.068 Q35.7053 597.361 38.1852 596.91 Q36.0274 595.074 34.6425 592.82 Q33.2577 590.566 33.2577 588.279 Q33.2577 584.479 36.2206 581.999 Q39.1514 579.487 43.789 579.487 M40.8905 584.253 Q37.9598 584.253 36.3495 585.38 Q34.707 586.475 34.707 588.472 Q34.707 590.952 37.219 593.818 Q39.6023 596.653 41.8245 597.232 L54.739 600.485 L55.8018 600.678 Q55.995 600.678 56.5747 600.582 Q57.1222 600.453 58.024 600.099 Q58.9258 599.712 59.7309 599.197 Q60.5039 598.649 61.0836 597.683 Q61.6633 596.685 61.6633 595.461 Q61.6633 593.496 59.9241 591.371 Q58.185 589.213 54.9 587.603 Q52.7744 586.604 48.2012 585.445 Q43.5958 584.253 40.8905 584.253 Z" fill="#000000" fill-rule="nonzero" fill-opacity="1" /><path clip-path="url(#clip000)" d="M81.8448 554.995 Q82.0477 554.814 82.2506 554.814 Q82.4535 554.814 83.0396 555.265 Q83.6258 555.694 84.4148 556.618 Q85.2039 557.542 85.9478 558.737 Q86.6918 559.932 87.1878 561.69 Q87.7063 563.449 87.7063 565.297 Q87.7063 568.747 85.4293 570.776 Q83.1524 572.782 79.8835 572.782 Q76.7047 572.782 73.6613 571.001 Q70.5953 569.22 68.7016 566.334 Q66.7853 563.449 66.7853 560.405 Q66.7853 557.993 67.9125 556.483 Q69.0397 554.972 70.7531 554.972 Q72.0832 554.972 72.8948 555.739 Q73.7064 556.505 73.7064 557.542 Q73.7064 558.264 73.3006 558.76 Q72.8722 559.256 72.0832 559.256 Q71.0687 559.256 70.2797 558.421 Q69.9641 558.106 69.8288 557.745 Q69.671 557.362 69.671 557.136 Q69.6484 556.911 69.6484 556.393 Q68.7692 556.866 68.2958 557.993 Q67.7998 559.098 67.7998 560.36 Q67.7998 562.231 69.1074 564.012 Q70.3924 565.793 72.4214 566.876 Q74.4052 567.958 77.2233 568.656 Q80.0187 569.355 81.6419 569.355 Q83.8738 569.355 85.2715 568.318 Q86.6692 567.281 86.6692 565.207 Q86.6692 564.801 86.6467 564.373 Q86.6241 563.922 86.3762 562.795 Q86.1282 561.645 85.6998 560.631 Q85.2715 559.616 84.3472 558.331 Q83.4003 557.024 82.1153 555.987 Q81.6419 555.626 81.6419 555.378 Q81.6419 555.175 81.8448 554.995 Z" fill="#000000" fill-rule="nonzero" fill-opacity="1" /><path clip-path="url(#clip000)" d="M86.2004 540.907 L35.1735 540.907 Q33.14 540.907 33.14 539.81 Q33.14 538.713 34.7722 538.713 L85.799 538.713 Q87.8326 538.713 87.8326 539.81 Q87.8326 540.907 86.2004 540.907 Z" fill="#000000" fill-rule="nonzero" fill-opacity="1" /><path clip-path="url(#clip000)" d="M78.2493 518.292 Q77.9272 518.292 77.1221 517.454 Q66.3009 506.826 45.9146 506.826 Q25.4639 506.826 15.1258 517.036 Q13.9342 518.292 13.5799 518.292 Q12.9358 518.292 12.9358 517.648 Q12.9358 517.197 14.2562 515.619 Q15.5767 514.008 18.604 511.593 Q21.6314 509.145 25.3351 507.342 Q34.3205 502.994 45.9146 502.994 Q57.0578 502.994 66.0433 507.148 Q69.8113 508.92 72.9675 511.4 Q76.1237 513.879 77.5086 515.522 Q78.8934 517.164 78.8934 517.648 Q78.8934 518.292 78.2493 518.292 Z" fill="#000000" fill-rule="nonzero" fill-opacity="1" /><circle clip-path="url(#clip002)" cx="318.939" cy="86.1857" r="14.4" fill="#008000" fill-rule="evenodd" fill-opacity="1" stroke="#000000" stroke-opacity="1" stroke-width="3.2"/>
<circle clip-path="url(#clip002)" cx="913.347" cy="548.484" r="14.4" fill="#008000" fill-rule="evenodd" fill-opacity="1" stroke="#000000" stroke-opacity="1" stroke-width="3.2"/>
<circle clip-path="url(#clip002)" cx="1261.05" cy="682.57" r="14.4" fill="#008000" fill-rule="evenodd" fill-opacity="1" stroke="#000000" stroke-opacity="1" stroke-width="3.2"/>
<circle clip-path="url(#clip002)" cx="1507.75" cy="832.567" r="14.4" fill="#008000" fill-rule="evenodd" fill-opacity="1" stroke="#000000" stroke-opacity="1" stroke-width="3.2"/>
<circle clip-path="url(#clip002)" cx="1699.11" cy="1203.25" r="14.4" fill="#008000" fill-rule="evenodd" fill-opacity="1" stroke="#000000" stroke-opacity="1" stroke-width="3.2"/>
<circle clip-path="url(#clip002)" cx="1855.46" cy="1136.32" r="14.4" fill="#008000" fill-rule="evenodd" fill-opacity="1" stroke="#000000" stroke-opacity="1" stroke-width="3.2"/>
<circle clip-path="url(#clip002)" cx="1987.65" cy="1152.54" r="14.4" fill="#008000" fill-rule="evenodd" fill-opacity="1" stroke="#000000" stroke-opacity="1" stroke-width="3.2"/>
<circle clip-path="url(#clip002)" cx="2102.16" cy="1220.89" r="14.4" fill="#008000" fill-rule="evenodd" fill-opacity="1" stroke="#000000" stroke-opacity="1" stroke-width="3.2"/>
<circle clip-path="url(#clip002)" cx="2203.17" cy="1276.26" r="14.4" fill="#008000" fill-rule="evenodd" fill-opacity="1" stroke="#000000" stroke-opacity="1" stroke-width="3.2"/>
<circle clip-path="url(#clip002)" cx="2293.52" cy="1378" r="14.4" fill="#008000" fill-rule="evenodd" fill-opacity="1" stroke="#000000" stroke-opacity="1" stroke-width="3.2"/>
<polyline clip-path="url(#clip002)" style="stroke:#ff0000; stroke-linecap:round; stroke-linejoin:round; stroke-width:4; stroke-opacity:1; fill:none" points="318.939,126.964 913.347,505.441 1261.05,726.836 1507.75,883.919 1699.11,1005.76 1855.46,1105.31 1987.65,1189.48 2102.16,1262.4 2203.17,1326.71 2293.52,1384.24 "/>
<path clip-path="url(#clip000)" d="M1723.34 248.629 L2282.99 248.629 L2282.99 93.1086 L1723.34 93.1086  Z" fill="#ffffff" fill-rule="evenodd" fill-opacity="1"/>
<polyline clip-path="url(#clip000)" style="stroke:#000000; stroke-linecap:round; stroke-linejoin:round; stroke-width:4; stroke-opacity:1; fill:none" points="1723.34,248.629 2282.99,248.629 2282.99,93.1086 1723.34,93.1086 1723.34,248.629 "/>
<circle clip-path="url(#clip000)" cx="1816.36" cy="144.949" r="20.48" fill="#008000" fill-rule="evenodd" fill-opacity="1" stroke="#000000" stroke-opacity="1" stroke-width="4.55111"/>
<path clip-path="url(#clip000)" d="M1931.63 128.803 L1931.63 133.363 Q1928.97 132.09 1926.61 131.465 Q1924.25 130.84 1922.05 130.84 Q1918.23 130.84 1916.15 132.321 Q1914.08 133.803 1914.08 136.534 Q1914.08 138.826 1915.45 140.007 Q1916.84 141.164 1920.68 141.882 L1923.51 142.46 Q1928.74 143.456 1931.21 145.979 Q1933.71 148.479 1933.71 152.692 Q1933.71 157.715 1930.33 160.307 Q1926.98 162.9 1920.47 162.9 Q1918.02 162.9 1915.24 162.344 Q1912.49 161.789 1909.52 160.701 L1909.52 155.886 Q1912.37 157.483 1915.1 158.293 Q1917.83 159.104 1920.47 159.104 Q1924.48 159.104 1926.65 157.53 Q1928.83 155.956 1928.83 153.039 Q1928.83 150.493 1927.26 149.057 Q1925.71 147.622 1922.14 146.905 L1919.29 146.349 Q1914.06 145.307 1911.72 143.085 Q1909.39 140.863 1909.39 136.905 Q1909.39 132.321 1912.6 129.682 Q1915.84 127.044 1921.52 127.044 Q1923.95 127.044 1926.47 127.483 Q1928.99 127.923 1931.63 128.803 Z" fill="#000000" fill-rule="nonzero" fill-opacity="1" /><path clip-path="url(#clip000)" d="M1943.37 149.289 Q1943.37 153.988 1945.29 156.673 Q1947.23 159.335 1950.61 159.335 Q1953.99 159.335 1955.94 156.673 Q1957.88 153.988 1957.88 149.289 Q1957.88 144.59 1955.94 141.928 Q1953.99 139.243 1950.61 139.243 Q1947.23 139.243 1945.29 141.928 Q1943.37 144.59 1943.37 149.289 M1957.88 158.34 Q1956.54 160.655 1954.48 161.789 Q1952.44 162.9 1949.57 162.9 Q1944.87 162.9 1941.91 159.15 Q1938.97 155.4 1938.97 149.289 Q1938.97 143.178 1941.91 139.428 Q1944.87 135.678 1949.57 135.678 Q1952.44 135.678 1954.48 136.812 Q1956.54 137.923 1957.88 140.238 L1957.88 136.303 L1962.14 136.303 L1962.14 172.09 L1957.88 172.09 L1957.88 158.34 Z" fill="#000000" fill-rule="nonzero" fill-opacity="1" /><path clip-path="url(#clip000)" d="M1970.47 151.997 L1970.47 136.303 L1974.73 136.303 L1974.73 151.835 Q1974.73 155.516 1976.17 157.368 Q1977.6 159.196 1980.47 159.196 Q1983.92 159.196 1985.91 156.997 Q1987.93 154.798 1987.93 151.002 L1987.93 136.303 L1992.19 136.303 L1992.19 162.229 L1987.93 162.229 L1987.93 158.247 Q1986.38 160.608 1984.32 161.766 Q1982.28 162.9 1979.57 162.9 Q1975.1 162.9 1972.79 160.122 Q1970.47 157.344 1970.47 151.997 M1981.19 135.678 L1981.19 135.678 Z" fill="#000000" fill-rule="nonzero" fill-opacity="1" /><path clip-path="url(#clip000)" d="M2012.74 149.196 Q2007.58 149.196 2005.59 150.377 Q2003.6 151.557 2003.6 154.405 Q2003.6 156.673 2005.08 158.016 Q2006.58 159.335 2009.15 159.335 Q2012.7 159.335 2014.83 156.835 Q2016.98 154.312 2016.98 150.145 L2016.98 149.196 L2012.74 149.196 M2021.24 147.437 L2021.24 162.229 L2016.98 162.229 L2016.98 158.293 Q2015.52 160.655 2013.34 161.789 Q2011.17 162.9 2008.02 162.9 Q2004.04 162.9 2001.68 160.678 Q1999.34 158.432 1999.34 154.682 Q1999.34 150.307 2002.26 148.085 Q2005.2 145.863 2011.01 145.863 L2016.98 145.863 L2016.98 145.446 Q2016.98 142.507 2015.03 140.909 Q2013.11 139.289 2009.62 139.289 Q2007.39 139.289 2005.29 139.821 Q2003.18 140.354 2001.24 141.419 L2001.24 137.483 Q2003.58 136.581 2005.77 136.141 Q2007.97 135.678 2010.06 135.678 Q2015.68 135.678 2018.46 138.594 Q2021.24 141.511 2021.24 147.437 Z" fill="#000000" fill-rule="nonzero" fill-opacity="1" /><path clip-path="url(#clip000)" d="M2045.03 140.284 Q2044.32 139.868 2043.46 139.682 Q2042.63 139.474 2041.61 139.474 Q2038 139.474 2036.05 141.835 Q2034.13 144.173 2034.13 148.571 L2034.13 162.229 L2029.85 162.229 L2029.85 136.303 L2034.13 136.303 L2034.13 140.331 Q2035.47 137.969 2037.63 136.835 Q2039.78 135.678 2042.86 135.678 Q2043.3 135.678 2043.83 135.747 Q2044.36 135.794 2045.01 135.909 L2045.03 140.284 Z" fill="#000000" fill-rule="nonzero" fill-opacity="1" /><path clip-path="url(#clip000)" d="M2070.64 148.201 L2070.64 150.284 L2051.05 150.284 Q2051.33 154.682 2053.69 156.997 Q2056.07 159.289 2060.31 159.289 Q2062.76 159.289 2065.06 158.687 Q2067.37 158.085 2069.64 156.881 L2069.64 160.909 Q2067.35 161.881 2064.94 162.391 Q2062.53 162.9 2060.06 162.9 Q2053.85 162.9 2050.22 159.289 Q2046.61 155.678 2046.61 149.52 Q2046.61 143.155 2050.03 139.428 Q2053.48 135.678 2059.32 135.678 Q2064.55 135.678 2067.58 139.057 Q2070.64 142.414 2070.64 148.201 M2066.38 146.951 Q2066.33 143.456 2064.41 141.372 Q2062.51 139.289 2059.36 139.289 Q2055.8 139.289 2053.64 141.303 Q2051.51 143.317 2051.19 146.974 L2066.38 146.951 Z" fill="#000000" fill-rule="nonzero" fill-opacity="1" /><path clip-path="url(#clip000)" d="M2078.71 156.349 L2083.6 156.349 L2083.6 162.229 L2078.71 162.229 L2078.71 156.349 M2078.71 137.715 L2083.6 137.715 L2083.6 143.594 L2078.71 143.594 L2078.71 137.715 Z" fill="#000000" fill-rule="nonzero" fill-opacity="1" /><path clip-path="url(#clip000)" d="M2111.21 149.289 Q2111.21 153.988 2113.13 156.673 Q2115.08 159.335 2118.46 159.335 Q2121.84 159.335 2123.78 156.673 Q2125.73 153.988 2125.73 149.289 Q2125.73 144.59 2123.78 141.928 Q2121.84 139.243 2118.46 139.243 Q2115.08 139.243 2113.13 141.928 Q2111.21 144.59 2111.21 149.289 M2125.73 158.34 Q2124.38 160.655 2122.32 161.789 Q2120.29 162.9 2117.42 162.9 Q2112.72 162.9 2109.76 159.15 Q2106.82 155.4 2106.82 149.289 Q2106.82 143.178 2109.76 139.428 Q2112.72 135.678 2117.42 135.678 Q2120.29 135.678 2122.32 136.812 Q2124.38 137.923 2125.73 140.238 L2125.73 136.303 L2129.99 136.303 L2129.99 172.09 L2125.73 172.09 L2125.73 158.34 Z" fill="#000000" fill-rule="nonzero" fill-opacity="1" /><path clip-path="url(#clip000)" d="M2158.46 170.099 L2158.46 173.409 L2133.83 173.409 L2133.83 170.099 L2158.46 170.099 Z" fill="#000000" fill-rule="nonzero" fill-opacity="1" /><path clip-path="url(#clip000)" d="M2182.65 141.28 Q2184.25 138.409 2186.47 137.044 Q2188.69 135.678 2191.7 135.678 Q2195.75 135.678 2197.95 138.525 Q2200.15 141.349 2200.15 146.581 L2200.15 162.229 L2195.87 162.229 L2195.87 146.719 Q2195.87 142.993 2194.55 141.187 Q2193.23 139.382 2190.52 139.382 Q2187.21 139.382 2185.29 141.581 Q2183.37 143.78 2183.37 147.576 L2183.37 162.229 L2179.08 162.229 L2179.08 146.719 Q2179.08 142.969 2177.76 141.187 Q2176.44 139.382 2173.69 139.382 Q2170.43 139.382 2168.5 141.604 Q2166.58 143.803 2166.58 147.576 L2166.58 162.229 L2162.3 162.229 L2162.3 136.303 L2166.58 136.303 L2166.58 140.331 Q2168.04 137.946 2170.08 136.812 Q2172.12 135.678 2174.92 135.678 Q2177.74 135.678 2179.71 137.113 Q2181.7 138.548 2182.65 141.28 Z" fill="#000000" fill-rule="nonzero" fill-opacity="1" /><path clip-path="url(#clip000)" d="M2220.43 149.196 Q2215.26 149.196 2213.27 150.377 Q2211.28 151.557 2211.28 154.405 Q2211.28 156.673 2212.76 158.016 Q2214.27 159.335 2216.84 159.335 Q2220.38 159.335 2222.51 156.835 Q2224.66 154.312 2224.66 150.145 L2224.66 149.196 L2220.43 149.196 M2228.92 147.437 L2228.92 162.229 L2224.66 162.229 L2224.66 158.293 Q2223.2 160.655 2221.03 161.789 Q2218.85 162.9 2215.7 162.9 Q2211.72 162.9 2209.36 160.678 Q2207.02 158.432 2207.02 154.682 Q2207.02 150.307 2209.94 148.085 Q2212.88 145.863 2218.69 145.863 L2224.66 145.863 L2224.66 145.446 Q2224.66 142.507 2222.72 140.909 Q2220.8 139.289 2217.3 139.289 Q2215.08 139.289 2212.97 139.821 Q2210.87 140.354 2208.92 141.419 L2208.92 137.483 Q2211.26 136.581 2213.46 136.141 Q2215.66 135.678 2217.74 135.678 Q2223.37 135.678 2226.14 138.594 Q2228.92 141.511 2228.92 147.437 Z" fill="#000000" fill-rule="nonzero" fill-opacity="1" /><path clip-path="url(#clip000)" d="M2259.25 136.303 L2249.87 148.919 L2259.73 162.229 L2254.71 162.229 L2247.16 152.043 L2239.62 162.229 L2234.59 162.229 L2244.66 148.664 L2235.45 136.303 L2240.47 136.303 L2247.35 145.539 L2254.22 136.303 L2259.25 136.303 Z" fill="#000000" fill-rule="nonzero" fill-opacity="1" /><polyline clip-path="url(#clip000)" style="stroke:#ff0000; stroke-linecap:round; stroke-linejoin:round; stroke-width:4; stroke-opacity:1; fill:none" points="1746.59,196.789 1886.13,196.789 "/>
<path clip-path="url(#clip000)" d="M1914.06 197.564 L1914.06 210.226 L1921.56 210.226 Q1925.33 210.226 1927.14 208.675 Q1928.97 207.101 1928.97 203.883 Q1928.97 200.643 1927.14 199.115 Q1925.33 197.564 1921.56 197.564 L1914.06 197.564 M1914.06 183.351 L1914.06 193.768 L1920.98 193.768 Q1924.41 193.768 1926.08 192.495 Q1927.77 191.198 1927.77 188.559 Q1927.77 185.944 1926.08 184.647 Q1924.41 183.351 1920.98 183.351 L1914.06 183.351 M1909.39 179.509 L1921.33 179.509 Q1926.68 179.509 1929.57 181.731 Q1932.46 183.953 1932.46 188.05 Q1932.46 191.222 1930.98 193.097 Q1929.5 194.971 1926.63 195.434 Q1930.08 196.175 1931.98 198.536 Q1933.9 200.874 1933.9 204.393 Q1933.9 209.022 1930.75 211.545 Q1927.6 214.069 1921.79 214.069 L1909.39 214.069 L1909.39 179.509 Z" fill="#000000" fill-rule="nonzero" fill-opacity="1" /><path clip-path="url(#clip000)" d="M1963.9 200.041 L1963.9 202.124 L1944.32 202.124 Q1944.59 206.522 1946.96 208.837 Q1949.34 211.129 1953.58 211.129 Q1956.03 211.129 1958.32 210.527 Q1960.64 209.925 1962.9 208.721 L1962.9 212.749 Q1960.61 213.721 1958.21 214.231 Q1955.8 214.74 1953.32 214.74 Q1947.12 214.74 1943.48 211.129 Q1939.87 207.518 1939.87 201.36 Q1939.87 194.995 1943.3 191.268 Q1946.75 187.518 1952.58 187.518 Q1957.81 187.518 1960.84 190.897 Q1963.9 194.254 1963.9 200.041 M1959.64 198.791 Q1959.59 195.296 1957.67 193.212 Q1955.77 191.129 1952.63 191.129 Q1949.06 191.129 1946.91 193.143 Q1944.78 195.157 1944.46 198.814 L1959.64 198.791 Z" fill="#000000" fill-rule="nonzero" fill-opacity="1" /><path clip-path="url(#clip000)" d="M1987.42 188.907 L1987.42 192.934 Q1985.61 192.009 1983.67 191.546 Q1981.72 191.083 1979.64 191.083 Q1976.47 191.083 1974.87 192.055 Q1973.3 193.027 1973.3 194.971 Q1973.3 196.453 1974.43 197.309 Q1975.57 198.143 1978.99 198.907 L1980.45 199.231 Q1984.99 200.203 1986.89 201.985 Q1988.81 203.745 1988.81 206.916 Q1988.81 210.527 1985.94 212.633 Q1983.09 214.74 1978.09 214.74 Q1976.01 214.74 1973.74 214.323 Q1971.49 213.93 1968.99 213.12 L1968.99 208.721 Q1971.35 209.948 1973.64 210.573 Q1975.94 211.175 1978.18 211.175 Q1981.19 211.175 1982.81 210.157 Q1984.43 209.115 1984.43 207.24 Q1984.43 205.504 1983.25 204.578 Q1982.09 203.652 1978.14 202.796 L1976.65 202.448 Q1972.7 201.615 1970.94 199.902 Q1969.18 198.166 1969.18 195.157 Q1969.18 191.499 1971.77 189.509 Q1974.36 187.518 1979.13 187.518 Q1981.49 187.518 1983.58 187.865 Q1985.66 188.212 1987.42 188.907 Z" fill="#000000" fill-rule="nonzero" fill-opacity="1" /><path clip-path="url(#clip000)" d="M1999.8 180.782 L1999.8 188.143 L2008.58 188.143 L2008.58 191.453 L1999.8 191.453 L1999.8 205.527 Q1999.8 208.698 2000.66 209.601 Q2001.54 210.504 2004.2 210.504 L2008.58 210.504 L2008.58 214.069 L2004.2 214.069 Q1999.27 214.069 1997.39 212.24 Q1995.52 210.388 1995.52 205.527 L1995.52 191.453 L1992.39 191.453 L1992.39 188.143 L1995.52 188.143 L1995.52 180.782 L1999.8 180.782 Z" fill="#000000" fill-rule="nonzero" fill-opacity="1" /><path clip-path="url(#clip000)" d="M2042.37 178.05 L2042.37 181.592 L2038.3 181.592 Q2036.01 181.592 2035.1 182.518 Q2034.22 183.444 2034.22 185.851 L2034.22 188.143 L2041.24 188.143 L2041.24 191.453 L2034.22 191.453 L2034.22 214.069 L2029.94 214.069 L2029.94 191.453 L2025.87 191.453 L2025.87 188.143 L2029.94 188.143 L2029.94 186.337 Q2029.94 182.009 2031.95 180.041 Q2033.97 178.05 2038.34 178.05 L2042.37 178.05 Z" fill="#000000" fill-rule="nonzero" fill-opacity="1" /><path clip-path="url(#clip000)" d="M2045.94 188.143 L2050.2 188.143 L2050.2 214.069 L2045.94 214.069 L2045.94 188.143 M2045.94 178.05 L2050.2 178.05 L2050.2 183.444 L2045.94 183.444 L2045.94 178.05 Z" fill="#000000" fill-rule="nonzero" fill-opacity="1" /><path clip-path="url(#clip000)" d="M2063.32 180.782 L2063.32 188.143 L2072.09 188.143 L2072.09 191.453 L2063.32 191.453 L2063.32 205.527 Q2063.32 208.698 2064.18 209.601 Q2065.06 210.504 2067.72 210.504 L2072.09 210.504 L2072.09 214.069 L2067.72 214.069 Q2062.79 214.069 2060.91 212.24 Q2059.04 210.388 2059.04 205.527 L2059.04 191.453 L2055.91 191.453 L2055.91 188.143 L2059.04 188.143 L2059.04 180.782 L2063.32 180.782 Z" fill="#000000" fill-rule="nonzero" fill-opacity="1" /><path clip-path="url(#clip000)" d="M1814.88 296.044 Q1816.38 296.553 1817.8 298.22 Q1819.23 299.886 1820.67 302.803 L1825.41 312.247 L1820.39 312.247 L1815.97 303.382 Q1814.25 299.91 1812.63 298.775 Q1811.04 297.641 1808.26 297.641 L1803.17 297.641 L1803.17 312.247 L1798.49 312.247 L1798.49 277.687 L1809.05 277.687 Q1814.97 277.687 1817.89 280.164 Q1820.81 282.641 1820.81 287.641 Q1820.81 290.905 1819.28 293.058 Q1817.77 295.211 1814.88 296.044 M1803.17 281.53 L1803.17 293.798 L1809.05 293.798 Q1812.43 293.798 1814.14 292.248 Q1815.87 290.674 1815.87 287.641 Q1815.87 284.609 1814.14 283.081 Q1812.43 281.53 1809.05 281.53 L1803.17 281.53 Z" fill="#000000" fill-rule="nonzero" fill-opacity="1" /><path clip-path="url(#clip000)" d="M1848.91 277.687 L1861.48 290.581 L1856.82 290.581 L1846.64 281.437 L1836.45 290.581 L1831.8 290.581 L1844.37 277.687 L1848.91 277.687 Z" fill="#000000" fill-rule="nonzero" fill-opacity="1" /><path clip-path="url(#clip000)" d="M1875.6 308.312 L1891.92 308.312 L1891.92 312.247 L1869.97 312.247 L1869.97 308.312 Q1872.63 305.558 1877.22 300.928 Q1881.82 296.275 1883 294.933 Q1885.25 292.41 1886.13 290.674 Q1887.03 288.914 1887.03 287.224 Q1887.03 284.47 1885.09 282.734 Q1883.17 280.998 1880.06 280.998 Q1877.87 280.998 1875.41 281.762 Q1872.98 282.525 1870.2 284.076 L1870.2 279.354 Q1873.03 278.22 1875.48 277.641 Q1877.93 277.062 1879.97 277.062 Q1885.34 277.062 1888.54 279.748 Q1891.73 282.433 1891.73 286.924 Q1891.73 289.053 1890.92 290.974 Q1890.13 292.873 1888.03 295.465 Q1887.45 296.136 1884.35 299.354 Q1881.24 302.548 1875.6 308.312 Z" fill="#000000" fill-rule="nonzero" fill-opacity="1" /><path clip-path="url(#clip000)" d="M1902.22 306.368 L1907.1 306.368 L1907.1 312.247 L1902.22 312.247 L1902.22 306.368 M1902.22 287.734 L1907.1 287.734 L1907.1 293.613 L1902.22 293.613 L1902.22 287.734 Z" fill="#000000" fill-rule="nonzero" fill-opacity="1" /><path clip-path="url(#clip000)" d="M1942.77 280.766 Q1939.16 280.766 1937.33 284.331 Q1935.53 287.873 1935.53 295.002 Q1935.53 302.109 1937.33 305.673 Q1939.16 309.215 1942.77 309.215 Q1946.41 309.215 1948.21 305.673 Q1950.04 302.109 1950.04 295.002 Q1950.04 287.873 1948.21 284.331 Q1946.41 280.766 1942.77 280.766 M1942.77 277.062 Q1948.58 277.062 1951.64 281.669 Q1954.72 286.252 1954.72 295.002 Q1954.72 303.729 1951.64 308.335 Q1948.58 312.919 1942.77 312.919 Q1936.96 312.919 1933.88 308.335 Q1930.83 303.729 1930.83 295.002 Q1930.83 286.252 1933.88 281.669 Q1936.96 277.062 1942.77 277.062 Z" fill="#000000" fill-rule="nonzero" fill-opacity="1" /><path clip-path="url(#clip000)" d="M1962.93 306.368 L1967.82 306.368 L1967.82 312.247 L1962.93 312.247 L1962.93 306.368 Z" fill="#000000" fill-rule="nonzero" fill-opacity="1" /><path clip-path="url(#clip000)" d="M1978.14 311.53 L1978.14 307.271 Q1979.9 308.104 1981.71 308.544 Q1983.51 308.984 1985.25 308.984 Q1989.88 308.984 1992.31 305.882 Q1994.76 302.757 1995.11 296.414 Q1993.77 298.405 1991.71 299.47 Q1989.65 300.535 1987.15 300.535 Q1981.96 300.535 1978.93 297.41 Q1975.92 294.261 1975.92 288.822 Q1975.92 283.498 1979.07 280.28 Q1982.22 277.062 1987.45 277.062 Q1993.44 277.062 1996.59 281.669 Q1999.76 286.252 1999.76 295.002 Q1999.76 303.173 1995.87 308.058 Q1992.01 312.919 1985.46 312.919 Q1983.7 312.919 1981.89 312.572 Q1980.09 312.224 1978.14 311.53 M1987.45 296.877 Q1990.6 296.877 1992.42 294.724 Q1994.28 292.572 1994.28 288.822 Q1994.28 285.095 1992.42 282.942 Q1990.6 280.766 1987.45 280.766 Q1984.3 280.766 1982.45 282.942 Q1980.62 285.095 1980.62 288.822 Q1980.62 292.572 1982.45 294.724 Q1984.3 296.877 1987.45 296.877 Z" fill="#000000" fill-rule="nonzero" fill-opacity="1" /><path clip-path="url(#clip000)" d="M2018.74 293.104 Q2015.6 293.104 2013.74 295.257 Q2011.92 297.41 2011.92 301.16 Q2011.92 304.886 2013.74 307.062 Q2015.6 309.215 2018.74 309.215 Q2021.89 309.215 2023.72 307.062 Q2025.57 304.886 2025.57 301.16 Q2025.57 297.41 2023.72 295.257 Q2021.89 293.104 2018.74 293.104 M2028.03 278.451 L2028.03 282.711 Q2026.27 281.877 2024.46 281.437 Q2022.68 280.998 2020.92 280.998 Q2016.29 280.998 2013.84 284.123 Q2011.41 287.248 2011.06 293.567 Q2012.42 291.553 2014.48 290.488 Q2016.54 289.4 2019.02 289.4 Q2024.23 289.4 2027.24 292.572 Q2030.27 295.72 2030.27 301.16 Q2030.27 306.484 2027.12 309.701 Q2023.98 312.919 2018.74 312.919 Q2012.75 312.919 2009.58 308.335 Q2006.41 303.729 2006.41 295.002 Q2006.41 286.808 2010.29 281.947 Q2014.18 277.062 2020.73 277.062 Q2022.49 277.062 2024.28 277.41 Q2026.08 277.757 2028.03 278.451 Z" fill="#000000" fill-rule="nonzero" fill-opacity="1" /><path clip-path="url(#clip000)" d="M2051.17 281.762 L2039.37 300.21 L2051.17 300.21 L2051.17 281.762 M2049.95 277.687 L2055.83 277.687 L2055.83 300.21 L2060.76 300.21 L2060.76 304.099 L2055.83 304.099 L2055.83 312.247 L2051.17 312.247 L2051.17 304.099 L2035.57 304.099 L2035.57 299.585 L2049.95 277.687 Z" fill="#000000" fill-rule="nonzero" fill-opacity="1" /><path clip-path="url(#clip000)" d="M2069.3 308.312 L2076.94 308.312 L2076.94 281.947 L2068.63 283.613 L2068.63 279.354 L2076.89 277.687 L2081.57 277.687 L2081.57 308.312 L2089.21 308.312 L2089.21 312.247 L2069.3 312.247 L2069.3 308.312 Z" fill="#000000" fill-rule="nonzero" fill-opacity="1" /></svg>
