<?xml version="1.0" encoding="utf-8"?>
<svg xmlns="http://www.w3.org/2000/svg" xmlns:xlink="http://www.w3.org/1999/xlink" width="600" height="400" viewBox="0 0 2400 1600">
<defs>
  <clipPath id="clip920">
    <rect x="0" y="0" width="2400" height="1600"/>
  </clipPath>
</defs>
<path clip-path="url(#clip920)" d="M0 1600 L2400 1600 L2400 0 L0 0  Z" fill="#ffffff" fill-rule="evenodd" fill-opacity="1"/>
<defs>
  <clipPath id="clip921">
    <rect x="480" y="0" width="1681" height="1600"/>
  </clipPath>
</defs>
<path clip-path="url(#clip920)" d="M174.126 1423.18 L2352.76 1423.18 L2352.76 47.2441 L174.126 47.2441  Z" fill="#ffffff" fill-rule="evenodd" fill-opacity="1"/>
<defs>
  <clipPath id="clip922">
    <rect x="174" y="47" width="2180" height="1377"/>
  </clipPath>
</defs>
<polyline clip-path="url(#clip922)" style="stroke:#000000; stroke-linecap:round; stroke-linejoin:round; stroke-width:2; stroke-opacity:0.1; fill:none" points="588.214,1423.18 588.214,47.2441 "/>
<polyline clip-path="url(#clip922)" style="stroke:#000000; stroke-linecap:round; stroke-linejoin:round; stroke-width:2; stroke-opacity:0.1; fill:none" points="1034.52,1423.18 1034.52,47.2441 "/>
<polyline clip-path="url(#clip922)" style="stroke:#000000; stroke-linecap:round; stroke-linejoin:round; stroke-width:2; stroke-opacity:0.1; fill:none" points="1480.82,1423.18 1480.82,47.2441 "/>
<polyline clip-path="url(#clip922)" style="stroke:#000000; stroke-linecap:round; stroke-linejoin:round; stroke-width:2; stroke-opacity:0.1; fill:none" points="1927.13,1423.18 1927.13,47.2441 "/>
<polyline clip-path="url(#clip922)" style="stroke:#000000; stroke-linecap:round; stroke-linejoin:round; stroke-width:2; stroke-opacity:0.1; fill:none" points="174.126,1304.39 2352.76,1304.39 "/>
<polyline clip-path="url(#clip922)" style="stroke:#000000; stroke-linecap:round; stroke-linejoin:round; stroke-width:2; stroke-opacity:0.1; fill:none" points="174.126,987.144 2352.76,987.144 "/>
<polyline clip-path="url(#clip922)" style="stroke:#000000; stroke-linecap:round; stroke-linejoin:round; stroke-width:2; stroke-opacity:0.1; fill:none" points="174.126,669.898 2352.76,669.898 "/>
<polyline clip-path="url(#clip922)" style="stroke:#000000; stroke-linecap:round; stroke-linejoin:round; stroke-width:2; stroke-opacity:0.1; fill:none" points="174.126,352.653 2352.76,352.653 "/>
<polyline clip-path="url(#clip920)" style="stroke:#000000; stroke-linecap:round; stroke-linejoin:round; stroke-width:4; stroke-opacity:1; fill:none" points="174.126,1423.18 2352.76,1423.18 "/>
<polyline clip-path="url(#clip920)" style="stroke:#000000; stroke-linecap:round; stroke-linejoin:round; stroke-width:4; stroke-opacity:1; fill:none" points="588.214,1423.18 588.214,1404.28 "/>
<polyline clip-path="url(#clip920)" style="stroke:#000000; stroke-linecap:round; stroke-linejoin:round; stroke-width:4; stroke-opacity:1; fill:none" points="1034.52,1423.18 1034.52,1404.28 "/>
<polyline clip-path="url(#clip920)" style="stroke:#000000; stroke-linecap:round; stroke-linejoin:round; stroke-width:4; stroke-opacity:1; fill:none" points="1480.82,1423.18 1480.82,1404.28 "/>
<polyline clip-path="url(#clip920)" style="stroke:#000000; stroke-linecap:round; stroke-linejoin:round; stroke-width:4; stroke-opacity:1; fill:none" points="1927.13,1423.18 1927.13,1404.28 "/>
<path clip-path="url(#clip920)" d="M555.379 1451.02 L573.735 1451.02 L573.735 1454.96 L559.661 1454.96 L559.661 1463.43 Q560.68 1463.08 561.698 1462.92 Q562.717 1462.73 563.735 1462.73 Q569.522 1462.73 572.902 1465.9 Q576.282 1469.08 576.282 1474.49 Q576.282 1480.07 572.809 1483.17 Q569.337 1486.25 563.018 1486.25 Q560.842 1486.25 558.573 1485.88 Q556.328 1485.51 553.921 1484.77 L553.921 1480.07 Q556.004 1481.2 558.226 1481.76 Q560.448 1482.32 562.925 1482.32 Q566.93 1482.32 569.268 1480.21 Q571.606 1478.1 571.606 1474.49 Q571.606 1470.88 569.268 1468.77 Q566.93 1466.67 562.925 1466.67 Q561.05 1466.67 559.175 1467.08 Q557.323 1467.5 555.379 1468.38 L555.379 1451.02 Z" fill="#000000" fill-rule="nonzero" fill-opacity="1" /><path clip-path="url(#clip920)" d="M585.494 1479.7 L590.379 1479.7 L590.379 1485.58 L585.494 1485.58 L585.494 1479.7 Z" fill="#000000" fill-rule="nonzero" fill-opacity="1" /><path clip-path="url(#clip920)" d="M610.564 1454.1 Q606.953 1454.1 605.124 1457.66 Q603.318 1461.2 603.318 1468.33 Q603.318 1475.44 605.124 1479.01 Q606.953 1482.55 610.564 1482.55 Q614.198 1482.55 616.004 1479.01 Q617.832 1475.44 617.832 1468.33 Q617.832 1461.2 616.004 1457.66 Q614.198 1454.1 610.564 1454.1 M610.564 1450.39 Q616.374 1450.39 619.429 1455 Q622.508 1459.58 622.508 1468.33 Q622.508 1477.06 619.429 1481.67 Q616.374 1486.25 610.564 1486.25 Q604.754 1486.25 601.675 1481.67 Q598.619 1477.06 598.619 1468.33 Q598.619 1459.58 601.675 1455 Q604.754 1450.39 610.564 1450.39 Z" fill="#000000" fill-rule="nonzero" fill-opacity="1" /><path clip-path="url(#clip920)" d="M1002.18 1451.02 L1020.54 1451.02 L1020.54 1454.96 L1006.46 1454.96 L1006.46 1463.43 Q1007.48 1463.08 1008.5 1462.92 Q1009.52 1462.73 1010.54 1462.73 Q1016.33 1462.73 1019.7 1465.9 Q1023.08 1469.08 1023.08 1474.49 Q1023.08 1480.07 1019.61 1483.17 Q1016.14 1486.25 1009.82 1486.25 Q1007.64 1486.25 1005.38 1485.88 Q1003.13 1485.51 1000.72 1484.77 L1000.72 1480.07 Q1002.81 1481.2 1005.03 1481.76 Q1007.25 1482.32 1009.73 1482.32 Q1013.73 1482.32 1016.07 1480.21 Q1018.41 1478.1 1018.41 1474.49 Q1018.41 1470.88 1016.07 1468.77 Q1013.73 1466.67 1009.73 1466.67 Q1007.85 1466.67 1005.98 1467.08 Q1004.13 1467.5 1002.18 1468.38 L1002.18 1451.02 Z" fill="#000000" fill-rule="nonzero" fill-opacity="1" /><path clip-path="url(#clip920)" d="M1032.3 1479.7 L1037.18 1479.7 L1037.18 1485.58 L1032.3 1485.58 L1032.3 1479.7 Z" fill="#000000" fill-rule="nonzero" fill-opacity="1" /><path clip-path="url(#clip920)" d="M1047.41 1451.02 L1065.77 1451.02 L1065.77 1454.96 L1051.7 1454.96 L1051.7 1463.43 Q1052.71 1463.08 1053.73 1462.92 Q1054.75 1462.73 1055.77 1462.73 Q1061.56 1462.73 1064.94 1465.9 Q1068.32 1469.08 1068.32 1474.49 Q1068.32 1480.07 1064.84 1483.17 Q1061.37 1486.25 1055.05 1486.25 Q1052.88 1486.25 1050.61 1485.88 Q1048.36 1485.51 1045.95 1484.77 L1045.95 1480.07 Q1048.04 1481.2 1050.26 1481.76 Q1052.48 1482.32 1054.96 1482.32 Q1058.96 1482.32 1061.3 1480.21 Q1063.64 1478.1 1063.64 1474.49 Q1063.64 1470.88 1061.3 1468.77 Q1058.96 1466.67 1054.96 1466.67 Q1053.08 1466.67 1051.21 1467.08 Q1049.36 1467.5 1047.41 1468.38 L1047.41 1451.02 Z" fill="#000000" fill-rule="nonzero" fill-opacity="1" /><path clip-path="url(#clip920)" d="M1458.7 1466.44 Q1455.55 1466.44 1453.7 1468.59 Q1451.87 1470.74 1451.87 1474.49 Q1451.87 1478.22 1453.7 1480.39 Q1455.55 1482.55 1458.7 1482.55 Q1461.84 1482.55 1463.67 1480.39 Q1465.52 1478.22 1465.52 1474.49 Q1465.52 1470.74 1463.67 1468.59 Q1461.84 1466.44 1458.7 1466.44 M1467.98 1451.78 L1467.98 1456.04 Q1466.22 1455.21 1464.41 1454.77 Q1462.63 1454.33 1460.87 1454.33 Q1456.24 1454.33 1453.79 1457.45 Q1451.36 1460.58 1451.01 1466.9 Q1452.38 1464.89 1454.44 1463.82 Q1456.5 1462.73 1458.97 1462.73 Q1464.18 1462.73 1467.19 1465.9 Q1470.22 1469.05 1470.22 1474.49 Q1470.22 1479.82 1467.07 1483.03 Q1463.93 1486.25 1458.7 1486.25 Q1452.7 1486.25 1449.53 1481.67 Q1446.36 1477.06 1446.36 1468.33 Q1446.36 1460.14 1450.25 1455.28 Q1454.14 1450.39 1460.69 1450.39 Q1462.45 1450.39 1464.23 1450.74 Q1466.03 1451.09 1467.98 1451.78 Z" fill="#000000" fill-rule="nonzero" fill-opacity="1" /><path clip-path="url(#clip920)" d="M1478.28 1479.7 L1483.16 1479.7 L1483.16 1485.58 L1478.28 1485.58 L1478.28 1479.7 Z" fill="#000000" fill-rule="nonzero" fill-opacity="1" /><path clip-path="url(#clip920)" d="M1503.35 1454.1 Q1499.74 1454.1 1497.91 1457.66 Q1496.1 1461.2 1496.1 1468.33 Q1496.1 1475.44 1497.91 1479.01 Q1499.74 1482.55 1503.35 1482.55 Q1506.98 1482.55 1508.79 1479.01 Q1510.62 1475.44 1510.62 1468.33 Q1510.62 1461.2 1508.79 1457.66 Q1506.98 1454.1 1503.35 1454.1 M1503.35 1450.39 Q1509.16 1450.39 1512.21 1455 Q1515.29 1459.58 1515.29 1468.33 Q1515.29 1477.06 1512.21 1481.67 Q1509.16 1486.25 1503.35 1486.25 Q1497.54 1486.25 1494.46 1481.67 Q1491.4 1477.06 1491.4 1468.33 Q1491.4 1459.58 1494.46 1455 Q1497.54 1450.39 1503.35 1450.39 Z" fill="#000000" fill-rule="nonzero" fill-opacity="1" /><path clip-path="url(#clip920)" d="M1905.5 1466.44 Q1902.35 1466.44 1900.5 1468.59 Q1898.67 1470.74 1898.67 1474.49 Q1898.67 1478.22 1900.5 1480.39 Q1902.35 1482.55 1905.5 1482.55 Q1908.65 1482.55 1910.47 1480.39 Q1912.33 1478.22 1912.33 1474.49 Q1912.33 1470.74 1910.47 1468.59 Q1908.65 1466.44 1905.5 1466.44 M1914.78 1451.78 L1914.78 1456.04 Q1913.02 1455.21 1911.22 1454.77 Q1909.43 1454.33 1907.67 1454.33 Q1903.04 1454.33 1900.59 1457.45 Q1898.16 1460.58 1897.81 1466.9 Q1899.18 1464.89 1901.24 1463.82 Q1903.3 1462.73 1905.78 1462.73 Q1910.98 1462.73 1913.99 1465.9 Q1917.03 1469.05 1917.03 1474.49 Q1917.03 1479.82 1913.88 1483.03 Q1910.73 1486.25 1905.5 1486.25 Q1899.5 1486.25 1896.33 1481.67 Q1893.16 1477.06 1893.16 1468.33 Q1893.16 1460.14 1897.05 1455.28 Q1900.94 1450.39 1907.49 1450.39 Q1909.25 1450.39 1911.03 1450.74 Q1912.84 1451.09 1914.78 1451.78 Z" fill="#000000" fill-rule="nonzero" fill-opacity="1" /><path clip-path="url(#clip920)" d="M1925.08 1479.7 L1929.97 1479.7 L1929.97 1485.58 L1925.08 1485.58 L1925.08 1479.7 Z" fill="#000000" fill-rule="nonzero" fill-opacity="1" /><path clip-path="url(#clip920)" d="M1940.2 1451.02 L1958.55 1451.02 L1958.55 1454.96 L1944.48 1454.96 L1944.48 1463.43 Q1945.5 1463.08 1946.52 1462.92 Q1947.53 1462.73 1948.55 1462.73 Q1954.34 1462.73 1957.72 1465.9 Q1961.1 1469.08 1961.1 1474.49 Q1961.1 1480.07 1957.63 1483.17 Q1954.16 1486.25 1947.84 1486.25 Q1945.66 1486.25 1943.39 1485.88 Q1941.15 1485.51 1938.74 1484.77 L1938.74 1480.07 Q1940.82 1481.2 1943.04 1481.76 Q1945.27 1482.32 1947.74 1482.32 Q1951.75 1482.32 1954.09 1480.21 Q1956.42 1478.1 1956.42 1474.49 Q1956.42 1470.88 1954.09 1468.77 Q1951.75 1466.67 1947.74 1466.67 Q1945.87 1466.67 1943.99 1467.08 Q1942.14 1467.5 1940.2 1468.38 L1940.2 1451.02 Z" fill="#000000" fill-rule="nonzero" fill-opacity="1" /><path clip-path="url(#clip920)" d="M1193.08 1510.81 L1183.58 1548.94 Q1183.2 1550.46 1183.2 1552.1 Q1183.2 1555.13 1185.19 1555.13 Q1186.13 1555.13 1186.9 1554.52 Q1187.67 1553.87 1188.25 1552.61 Q1188.87 1551.33 1189.25 1550.1 Q1189.67 1548.88 1190.19 1546.98 Q1190.35 1546.24 1190.51 1546.01 Q1190.67 1545.79 1191.12 1545.79 Q1191.92 1545.79 1191.92 1546.43 Q1191.12 1550.39 1189.93 1552.9 Q1188.19 1556.61 1184.97 1556.61 Q1182.55 1556.61 1180.75 1554.93 Q1178.98 1553.23 1178.98 1550.52 Q1178.98 1549.49 1179.3 1548.27 L1187.61 1515.29 L1187.83 1514 Q1187.83 1513.65 1187.71 1513.45 Q1187.58 1513.26 1186.8 1513.07 Q1186.06 1512.87 1184.58 1512.87 Q1183.97 1512.87 1183.68 1512.84 Q1183.42 1512.81 1183.16 1512.65 Q1182.94 1512.49 1182.94 1512.13 Q1182.94 1511.55 1183.16 1511.23 Q1183.42 1510.91 1183.62 1510.84 Q1183.81 1510.78 1184.2 1510.75 Q1184.74 1510.72 1186.58 1510.55 Q1188.41 1510.36 1189.99 1510.23 Q1191.57 1510.1 1192.25 1510.1 Q1192.63 1510.1 1192.83 1510.3 Q1193.05 1510.46 1193.08 1510.65 L1193.08 1510.81 Z" fill="#000000" fill-rule="nonzero" fill-opacity="1" /><path clip-path="url(#clip920)" d="M1228.79 1537.86 Q1228.79 1541.38 1227.25 1544.85 Q1225.7 1548.3 1223.22 1550.88 Q1220.77 1553.42 1217.55 1555.03 Q1214.33 1556.61 1211.11 1556.61 Q1206.51 1556.61 1203.51 1553.48 Q1200.55 1550.33 1200.55 1545.43 Q1200.55 1540.86 1203.09 1536.51 Q1205.67 1532.13 1209.79 1529.43 Q1213.91 1526.72 1218.23 1526.72 Q1222.77 1526.72 1225.77 1529.78 Q1228.79 1532.84 1228.79 1537.86 M1223.96 1535.29 Q1223.96 1532.16 1222.45 1530.17 Q1220.93 1528.17 1218.16 1528.17 Q1217.36 1528.17 1216.43 1528.43 Q1215.49 1528.65 1214.27 1529.27 Q1213.08 1529.88 1211.72 1531.17 Q1210.4 1532.42 1209.24 1534.23 Q1207.73 1536.61 1206.57 1540.99 Q1205.44 1545.34 1205.44 1547.95 Q1205.44 1551.55 1207.12 1553.36 Q1208.79 1555.13 1211.18 1555.13 Q1213.49 1555.13 1215.94 1553.52 Q1218.42 1551.87 1220.13 1549.07 Q1221.84 1546.17 1222.9 1541.92 Q1223.96 1537.64 1223.96 1535.29 Z" fill="#000000" fill-rule="nonzero" fill-opacity="1" /><path clip-path="url(#clip920)" d="M1260.12 1529.81 Q1260.12 1529.85 1259.93 1531 L1252.58 1560.28 Q1252.2 1561.83 1251.1 1563.37 Q1250.04 1564.95 1248.33 1566.3 Q1246.66 1567.69 1244.08 1568.52 Q1241.54 1569.39 1238.61 1569.39 Q1233.94 1569.39 1231.88 1568.4 Q1229.85 1567.43 1229.85 1565.37 Q1229.85 1563.56 1230.97 1562.53 Q1232.1 1561.54 1233.39 1561.54 Q1234.61 1561.54 1235.26 1562.24 Q1235.9 1562.95 1235.9 1563.85 Q1235.9 1564.85 1235.23 1565.85 Q1234.55 1566.88 1233.2 1567.27 Q1235.35 1567.94 1238.48 1567.94 Q1245.08 1567.94 1247.91 1560.96 Q1247.98 1560.86 1247.98 1560.83 L1250.17 1552.1 L1250.07 1552.04 Q1249.52 1552.68 1248.66 1553.42 Q1247.82 1554.13 1246.01 1555 Q1244.21 1555.87 1242.44 1555.87 Q1238.74 1555.87 1236.19 1553.03 Q1233.68 1550.17 1233.68 1545.43 Q1233.68 1541.99 1235.06 1538.54 Q1236.48 1535.06 1238.67 1532.52 Q1240.89 1529.94 1243.73 1528.33 Q1246.59 1526.72 1249.36 1526.72 Q1251.3 1526.72 1252.94 1527.88 Q1254.58 1529.01 1255.48 1530.88 Q1255.64 1529.33 1256.51 1528.69 Q1257.42 1528.04 1258.19 1528.04 Q1259.06 1528.04 1259.57 1528.53 Q1260.12 1528.98 1260.12 1529.81 M1254.71 1533.84 Q1254.71 1533.65 1254.58 1533.13 Q1254.45 1532.58 1254.07 1531.71 Q1253.71 1530.84 1253.16 1530.07 Q1252.62 1529.3 1251.62 1528.75 Q1250.65 1528.17 1249.43 1528.17 Q1247.43 1528.17 1245.43 1529.85 Q1243.44 1531.49 1242.05 1534.03 Q1240.76 1536.48 1239.54 1541.21 Q1238.35 1545.95 1238.35 1548.36 Q1238.35 1550.75 1239.38 1552.58 Q1240.41 1554.42 1242.63 1554.42 Q1245.21 1554.42 1247.98 1552.04 Q1250.85 1549.56 1251.33 1547.43 L1254.52 1534.84 Q1254.71 1534.06 1254.71 1533.84 Z" fill="#000000" fill-rule="nonzero" fill-opacity="1" /><path clip-path="url(#clip920)" d="M1269.16 1539.38 Q1269.16 1528.24 1273.32 1519.25 Q1275.09 1515.48 1277.57 1512.33 Q1280.05 1509.17 1281.69 1507.78 Q1283.33 1506.4 1283.79 1506.4 Q1284.43 1506.4 1284.46 1507.04 Q1284.46 1507.37 1283.59 1508.17 Q1272.96 1518.99 1273 1539.38 Q1273 1559.83 1283.33 1570.23 Q1284.46 1571.36 1284.46 1571.71 Q1284.46 1572.36 1283.79 1572.36 Q1283.33 1572.36 1281.76 1571.04 Q1280.18 1569.72 1277.73 1566.69 Q1275.28 1563.66 1273.51 1559.96 Q1269.16 1550.97 1269.16 1539.38 Z" fill="#000000" fill-rule="nonzero" fill-opacity="1" /><path clip-path="url(#clip920)" d="M1317.37 1516.83 Q1317.37 1518.86 1311.5 1518.86 Q1310.51 1518.86 1309.96 1518.83 Q1309.41 1518.77 1308.61 1518.44 Q1307.83 1518.09 1307.29 1517.41 Q1303.81 1519.12 1301.87 1522.34 Q1299.97 1525.56 1299.97 1528.62 Q1299.97 1531.81 1301.94 1533.77 Q1304.39 1532.97 1307.48 1532.97 Q1309.96 1532.97 1311.41 1533.32 Q1312.89 1533.68 1312.89 1534.77 Q1312.89 1535.26 1312.6 1535.64 Q1312.31 1536 1311.7 1536.22 Q1311.12 1536.42 1310.57 1536.54 Q1310.06 1536.67 1309.22 1536.74 Q1308.38 1536.77 1307.93 1536.8 Q1307.48 1536.8 1306.77 1536.8 Q1303.29 1536.8 1300.94 1535.96 Q1297.17 1537.86 1295.01 1541.31 Q1292.86 1544.72 1292.86 1547.17 Q1292.86 1551.04 1297.78 1553.03 L1301.75 1554.61 Q1302.65 1554.9 1305.77 1556.13 L1309.8 1557.64 Q1312.95 1559.02 1312.95 1562.34 Q1312.95 1564.92 1310.96 1567.14 Q1308.99 1569.39 1306.09 1569.39 Q1304.39 1569.39 1302.62 1568.75 Q1300.88 1568.14 1299.88 1567.4 Q1298.91 1566.66 1298.91 1566.24 Q1298.91 1565.5 1299.56 1565.5 Q1299.81 1565.5 1300.3 1565.82 Q1303.36 1567.94 1306.09 1567.94 Q1307.51 1567.94 1308.41 1566.82 Q1309.35 1565.69 1309.35 1564.43 Q1309.35 1563.76 1309.15 1563.28 Q1308.99 1562.79 1308.51 1562.44 Q1308.06 1562.12 1307.83 1561.99 Q1307.64 1561.89 1307.03 1561.6 Q1305.74 1561.12 1303.52 1560.25 Q1301.3 1559.41 1299.04 1558.51 Q1295.24 1557.09 1294.08 1556.45 Q1292.95 1555.84 1291.38 1554.23 L1291.25 1554.06 Q1291.09 1553.87 1290.92 1553.65 Q1290.8 1553.42 1290.57 1553.1 Q1290.38 1552.74 1290.18 1552.33 Q1289.99 1551.91 1289.83 1551.42 Q1289.67 1550.91 1289.57 1550.3 Q1289.48 1549.65 1289.48 1549.01 Q1289.48 1547.95 1289.83 1546.56 Q1290.22 1545.14 1291.05 1543.28 Q1291.92 1541.41 1293.76 1539.38 Q1295.59 1537.35 1298.11 1535.67 L1298.98 1535.03 Q1296.79 1533.77 1295.72 1531.91 Q1294.69 1530.04 1294.69 1528.04 Q1294.69 1524.15 1297.85 1520.67 Q1301.04 1517.16 1306.22 1515.71 Q1305.77 1513.9 1305.77 1513.13 Q1305.77 1512.84 1305.8 1512.52 Q1305.84 1512.16 1305.9 1511.49 Q1306 1510.78 1306.25 1510.36 Q1306.54 1509.91 1306.96 1509.91 Q1307.74 1509.91 1307.74 1510.75 Q1307.41 1512.26 1307.41 1513.2 Q1307.41 1514.42 1307.74 1515.39 Q1309.6 1515.03 1311.89 1515.03 Q1314.44 1515.03 1315.88 1515.39 Q1317.37 1515.71 1317.37 1516.83 M1315.66 1516.9 Q1314.11 1516.48 1311.96 1516.48 Q1309.96 1516.48 1308.8 1516.83 Q1309.31 1517.22 1309.86 1517.32 Q1310.44 1517.41 1311.57 1517.41 Q1314.27 1517.41 1315.66 1516.9 M1311.18 1534.84 Q1309.64 1534.42 1307.41 1534.42 Q1305.29 1534.42 1303.65 1534.84 Q1304.48 1535.19 1305.06 1535.29 Q1305.68 1535.35 1306.96 1535.35 Q1310.15 1535.35 1311.18 1534.84 Z" fill="#000000" fill-rule="nonzero" fill-opacity="1" /><path clip-path="url(#clip920)" d="M1322.58 1571.71 Q1322.58 1571.39 1323.41 1570.59 Q1334.04 1559.76 1334.04 1539.38 Q1334.04 1518.93 1323.83 1508.59 Q1322.58 1507.4 1322.58 1507.04 Q1322.58 1506.4 1323.22 1506.4 Q1323.67 1506.4 1325.25 1507.72 Q1326.86 1509.04 1329.28 1512.07 Q1331.72 1515.1 1333.53 1518.8 Q1337.87 1527.78 1337.87 1539.38 Q1337.87 1550.52 1333.72 1559.51 Q1331.95 1563.28 1329.47 1566.43 Q1326.99 1569.59 1325.35 1570.97 Q1323.7 1572.36 1323.22 1572.36 Q1322.58 1572.36 1322.58 1571.71 Z" fill="#000000" fill-rule="nonzero" fill-opacity="1" /><polyline clip-path="url(#clip920)" style="stroke:#000000; stroke-linecap:round; stroke-linejoin:round; stroke-width:4; stroke-opacity:1; fill:none" points="174.126,1423.18 174.126,47.2441 "/>
<polyline clip-path="url(#clip920)" style="stroke:#000000; stroke-linecap:round; stroke-linejoin:round; stroke-width:4; stroke-opacity:1; fill:none" points="174.126,1304.39 193.023,1304.39 "/>
<polyline clip-path="url(#clip920)" style="stroke:#000000; stroke-linecap:round; stroke-linejoin:round; stroke-width:4; stroke-opacity:1; fill:none" points="174.126,987.144 193.023,987.144 "/>
<polyline clip-path="url(#clip920)" style="stroke:#000000; stroke-linecap:round; stroke-linejoin:round; stroke-width:4; stroke-opacity:1; fill:none" points="174.126,669.898 193.023,669.898 "/>
<polyline clip-path="url(#clip920)" style="stroke:#000000; stroke-linecap:round; stroke-linejoin:round; stroke-width:4; stroke-opacity:1; fill:none" points="174.126,352.653 193.023,352.653 "/>
<path clip-path="url(#clip920)" d="M126.598 1302.53 Q123.45 1302.53 121.598 1304.68 Q119.769 1306.83 119.769 1310.58 Q119.769 1314.31 121.598 1316.48 Q123.45 1318.64 126.598 1318.64 Q129.746 1318.64 131.575 1316.48 Q133.427 1314.31 133.427 1310.58 Q133.427 1306.83 131.575 1304.68 Q129.746 1302.53 126.598 1302.53 M135.88 1287.87 L135.88 1292.13 Q134.121 1291.3 132.316 1290.86 Q130.533 1290.42 128.774 1290.42 Q124.144 1290.42 121.691 1293.54 Q119.26 1296.67 118.913 1302.99 Q120.279 1300.98 122.339 1299.91 Q124.399 1298.82 126.876 1298.82 Q132.084 1298.82 135.093 1301.99 Q138.126 1305.14 138.126 1310.58 Q138.126 1315.91 134.978 1319.12 Q131.83 1322.34 126.598 1322.34 Q120.603 1322.34 117.431 1317.76 Q114.26 1313.15 114.26 1304.42 Q114.26 1296.23 118.149 1291.37 Q122.038 1286.48 128.589 1286.48 Q130.348 1286.48 132.13 1286.83 Q133.936 1287.18 135.88 1287.87 Z" fill="#000000" fill-rule="nonzero" fill-opacity="1" /><path clip-path="url(#clip920)" d="M115.904 969.864 L138.126 969.864 L138.126 971.855 L125.58 1004.42 L120.695 1004.42 L132.501 973.799 L115.904 973.799 L115.904 969.864 Z" fill="#000000" fill-rule="nonzero" fill-opacity="1" /><path clip-path="url(#clip920)" d="M126.274 670.767 Q122.941 670.767 121.019 672.549 Q119.121 674.331 119.121 677.456 Q119.121 680.581 121.019 682.364 Q122.941 684.146 126.274 684.146 Q129.607 684.146 131.529 682.364 Q133.45 680.558 133.45 677.456 Q133.45 674.331 131.529 672.549 Q129.63 670.767 126.274 670.767 M121.598 668.776 Q118.589 668.035 116.899 665.975 Q115.232 663.915 115.232 660.952 Q115.232 656.808 118.172 654.401 Q121.135 651.993 126.274 651.993 Q131.436 651.993 134.376 654.401 Q137.316 656.808 137.316 660.952 Q137.316 663.915 135.626 665.975 Q133.959 668.035 130.973 668.776 Q134.353 669.563 136.228 671.854 Q138.126 674.146 138.126 677.456 Q138.126 682.479 135.047 685.165 Q131.992 687.85 126.274 687.85 Q120.556 687.85 117.478 685.165 Q114.422 682.479 114.422 677.456 Q114.422 674.146 116.32 671.854 Q118.218 669.563 121.598 668.776 M119.885 661.392 Q119.885 664.077 121.552 665.581 Q123.242 667.086 126.274 667.086 Q129.283 667.086 130.973 665.581 Q132.686 664.077 132.686 661.392 Q132.686 658.706 130.973 657.202 Q129.283 655.697 126.274 655.697 Q123.242 655.697 121.552 657.202 Q119.885 658.706 119.885 661.392 Z" fill="#000000" fill-rule="nonzero" fill-opacity="1" /><path clip-path="url(#clip920)" d="M116.506 369.215 L116.506 364.956 Q118.265 365.789 120.07 366.229 Q121.876 366.669 123.612 366.669 Q128.242 366.669 130.672 363.567 Q133.126 360.442 133.473 354.1 Q132.13 356.09 130.07 357.155 Q128.01 358.22 125.51 358.22 Q120.325 358.22 117.293 355.095 Q114.283 351.947 114.283 346.507 Q114.283 341.183 117.431 337.965 Q120.58 334.748 125.811 334.748 Q131.806 334.748 134.954 339.354 Q138.126 343.938 138.126 352.688 Q138.126 360.859 134.237 365.743 Q130.371 370.604 123.82 370.604 Q122.061 370.604 120.255 370.257 Q118.45 369.91 116.506 369.215 M125.811 354.563 Q128.959 354.563 130.788 352.41 Q132.64 350.257 132.64 346.507 Q132.64 342.78 130.788 340.627 Q128.959 338.452 125.811 338.452 Q122.663 338.452 120.811 340.627 Q118.982 342.78 118.982 346.507 Q118.982 350.257 120.811 352.41 Q122.663 354.563 125.811 354.563 Z" fill="#000000" fill-rule="nonzero" fill-opacity="1" /><path clip-path="url(#clip920)" d="M21.0281 921.391 L59.1598 930.891 Q60.6735 931.278 62.316 931.278 Q65.3434 931.278 65.3434 929.281 Q65.3434 928.347 64.7314 927.574 Q64.0873 926.801 62.8313 926.221 Q61.5431 925.61 60.3192 925.223 Q59.0954 924.804 57.1953 924.289 Q56.4545 924.128 56.2291 923.967 Q56.0037 923.806 56.0037 923.355 Q56.0037 922.55 56.6478 922.55 Q60.6091 923.355 63.1212 924.547 Q66.8248 926.286 66.8248 929.506 Q66.8248 931.922 65.1501 933.725 Q63.4432 935.497 60.7379 935.497 Q59.7073 935.497 58.4835 935.175 L25.5047 926.866 L24.2165 926.64 Q23.8622 926.64 23.669 926.769 Q23.4757 926.898 23.2825 927.671 Q23.0893 928.411 23.0893 929.893 Q23.0893 930.505 23.0571 930.795 Q23.0249 931.052 22.8638 931.31 Q22.7028 931.535 22.3485 931.535 Q21.7688 931.535 21.4468 931.31 Q21.1247 931.052 21.0603 930.859 Q20.9959 930.666 20.9637 930.279 Q20.9315 929.732 20.7704 927.896 Q20.5772 926.06 20.4484 924.482 Q20.3196 922.904 20.3196 922.228 Q20.3196 921.841 20.5128 921.648 Q20.6738 921.423 20.8671 921.391 L21.0281 921.391 Z" fill="#000000" fill-rule="nonzero" fill-opacity="1" /><path clip-path="url(#clip920)" d="M48.081 885.682 Q51.5915 885.682 55.0697 887.228 Q58.5157 888.774 61.0922 891.254 Q63.6364 893.701 65.2467 896.922 Q66.8248 900.143 66.8248 903.363 Q66.8248 907.969 63.7009 910.964 Q60.5447 913.927 55.6494 913.927 Q51.0762 913.927 46.7284 911.382 Q42.3484 908.806 39.6431 904.684 Q36.9378 900.561 36.9378 896.246 Q36.9378 891.705 39.9973 888.709 Q43.0569 885.682 48.081 885.682 M45.5045 890.513 Q42.3806 890.513 40.3838 892.027 Q38.3871 893.54 38.3871 896.31 Q38.3871 897.115 38.6447 898.049 Q38.8701 898.983 39.4821 900.207 Q40.094 901.399 41.3822 902.751 Q42.6382 904.072 44.4418 905.231 Q46.825 906.745 51.205 907.904 Q55.5528 909.031 58.1615 909.031 Q61.7685 909.031 63.572 907.357 Q65.3434 905.682 65.3434 903.299 Q65.3434 900.98 63.7331 898.532 Q62.0906 896.052 59.2887 894.345 Q56.3901 892.639 52.139 891.576 Q47.8556 890.513 45.5045 890.513 Z" fill="#000000" fill-rule="nonzero" fill-opacity="1" /><path clip-path="url(#clip920)" d="M40.0296 854.354 Q40.0618 854.354 41.2212 854.547 L70.4963 861.89 Q72.0422 862.277 73.5881 863.372 Q75.1661 864.434 76.5188 866.141 Q77.9036 867.816 78.741 870.392 Q79.6106 872.937 79.6106 875.867 Q79.6106 880.537 78.6122 882.598 Q77.646 884.627 75.5848 884.627 Q73.7813 884.627 72.7507 883.5 Q71.7523 882.373 71.7523 881.085 Q71.7523 879.861 72.4609 879.217 Q73.1694 878.573 74.0711 878.573 Q75.0695 878.573 76.0679 879.249 Q77.0985 879.925 77.485 881.278 Q78.1613 879.12 78.1613 875.996 Q78.1613 869.394 71.1726 866.56 Q71.076 866.496 71.0438 866.496 L62.316 864.306 L62.2516 864.402 Q62.8957 864.95 63.6364 865.819 Q64.345 866.657 65.2145 868.46 Q66.0841 870.264 66.0841 872.035 Q66.0841 875.739 63.25 878.283 Q60.3837 880.795 55.6494 880.795 Q52.2034 880.795 48.7573 879.41 Q45.2791 877.993 42.7348 875.803 Q40.1584 873.581 38.5481 870.747 Q36.9378 867.88 36.9378 865.111 Q36.9378 863.178 38.0972 861.536 Q39.2244 859.893 41.0923 858.992 Q39.5465 858.831 38.9023 857.961 Q38.2582 857.059 38.2582 856.286 Q38.2582 855.417 38.7413 854.901 Q39.1922 854.354 40.0296 854.354 M44.0553 859.765 Q43.8621 859.765 43.3468 859.893 Q42.7993 860.022 41.9297 860.409 Q41.0601 860.763 40.2872 861.31 Q39.5143 861.858 38.9668 862.856 Q38.3871 863.822 38.3871 865.046 Q38.3871 867.043 40.0618 869.04 Q41.7043 871.037 44.2485 872.421 Q46.6962 873.71 51.4304 874.933 Q56.1647 876.125 58.5801 876.125 Q60.9634 876.125 62.7991 875.095 Q64.6348 874.064 64.6348 871.842 Q64.6348 869.265 62.2516 866.496 Q59.7717 863.629 57.6462 863.146 L45.0537 859.958 Q44.2807 859.765 44.0553 859.765 Z" fill="#000000" fill-rule="nonzero" fill-opacity="1" /><path clip-path="url(#clip920)" d="M49.5947 845.311 Q38.4515 845.311 29.466 841.156 Q25.6979 839.385 22.5418 836.905 Q19.3856 834.425 18.0007 832.782 Q16.6159 831.14 16.6159 830.689 Q16.6159 830.045 17.26 830.013 Q17.5821 830.013 18.3872 830.882 Q29.2084 841.51 49.5947 841.478 Q70.0454 841.478 80.4479 831.14 Q81.5751 830.013 81.9294 830.013 Q82.5735 830.013 82.5735 830.689 Q82.5735 831.14 81.2531 832.718 Q79.9326 834.296 76.9053 836.744 Q73.8779 839.191 70.1742 840.963 Q61.1888 845.311 49.5947 845.311 Z" fill="#000000" fill-rule="nonzero" fill-opacity="1" /><path clip-path="url(#clip920)" d="M56.6478 770.958 Q56.9054 770.958 57.9038 771.248 Q58.9022 771.537 60.4481 772.246 Q61.994 772.922 63.411 773.888 Q64.7959 774.822 65.8264 776.368 Q66.8248 777.882 66.8248 779.621 Q66.8248 781.94 65.2789 783.486 Q63.7331 785.032 61.4142 785.032 Q60.1582 785.032 57.775 784.162 Q46.8894 780.072 42.9925 780.072 Q38.3871 780.072 38.3871 783.647 Q38.3871 785.676 39.2244 787.511 Q40.0618 789.347 41.2212 790.539 Q42.3806 791.73 43.701 792.664 Q45.0215 793.598 45.891 794.017 Q46.7606 794.404 47.147 794.5 L63.0567 798.461 Q64.4094 798.784 65.0535 799.009 Q65.6976 799.234 66.2451 799.846 Q66.8248 800.458 66.8248 801.424 Q66.8248 802.23 66.3417 802.809 Q65.8587 803.357 65.0213 803.357 Q64.8925 803.357 64.2162 803.196 Q63.5398 803.035 62.6059 802.809 Q61.6719 802.584 61.1244 802.487 Q56.7444 801.328 56.1325 801.167 L48.4675 799.331 Q44.6672 798.333 42.9925 798.333 Q38.3871 798.333 38.3871 801.907 Q38.3871 803.679 39.0634 805.354 Q39.7075 806.996 40.6093 808.123 Q41.511 809.25 42.7671 810.281 Q43.9909 811.279 44.8282 811.795 Q45.6334 812.278 46.4385 812.664 L49.7235 813.502 Q50.6253 813.695 54.1357 814.629 L60.0938 816.078 Q64.5382 817.109 64.9569 817.334 Q65.8587 817.656 66.3417 818.365 Q66.8248 819.073 66.8248 819.782 Q66.8248 820.587 66.3417 821.134 Q65.8587 821.682 65.0213 821.682 Q64.8925 821.682 64.4094 821.585 Q63.9263 821.489 63.25 821.328 Q62.5737 821.167 62.1872 821.102 L46.9538 817.27 Q44.1841 816.561 43.3146 816.4 Q42.4128 816.207 41.4144 816.207 Q38.3871 816.207 38.3871 818.268 Q38.3871 819.943 40.3838 821.038 Q42.3806 822.133 46.2453 823.067 Q47.3081 823.357 47.5335 823.55 Q47.759 823.711 47.759 824.194 Q47.7268 824.999 47.0826 824.999 Q46.9216 824.999 45.891 824.741 Q44.8604 824.484 43.3146 824.001 Q41.7365 823.485 40.7059 822.938 Q40.0296 822.616 39.5787 822.326 Q39.1278 822.036 38.4193 821.456 Q37.7107 820.877 37.3243 820.007 Q36.9378 819.138 36.9378 818.075 Q36.9378 815.724 38.4515 813.985 Q39.9651 812.213 42.6704 811.988 Q36.9378 807.705 36.9378 801.714 Q36.9378 798.333 38.6447 796.304 Q40.2872 794.404 43.3146 794.178 Q36.9378 789.734 36.9378 783.421 Q36.9378 779.782 38.8379 777.818 Q40.7059 775.853 43.9909 775.853 Q45.6978 775.853 48.9506 776.723 Q52.1712 777.592 53.7815 778.172 Q55.3917 778.751 58.4835 779.879 Q61.4465 781.07 63.1856 781.07 Q64.3128 781.07 64.8281 780.684 Q65.3434 780.297 65.3434 779.46 Q65.3434 778.172 64.6026 777.045 Q63.8297 775.917 62.5737 775.112 Q61.2854 774.275 59.9972 773.727 Q58.6767 773.18 57.1953 772.761 Q56.3901 772.504 56.1969 772.375 Q56.0037 772.214 56.0037 771.763 Q56.0037 770.958 56.6478 770.958 Z" fill="#000000" fill-rule="nonzero" fill-opacity="1" /><path clip-path="url(#clip920)" d="M56.6478 736.645 Q60.8023 737.514 63.1856 738.641 Q66.8248 740.445 66.8248 743.504 Q66.8248 745.823 65.4078 747.466 Q63.9907 749.108 61.8651 749.495 Q66.8248 753.714 66.8248 758.094 Q66.8248 761.958 63.8941 764.406 Q60.9312 766.854 56.2613 766.854 Q51.5593 766.854 47.0504 764.535 Q42.5416 762.184 39.7397 758.48 Q36.9378 754.776 36.9378 750.976 Q36.9378 746.95 41.1568 744.889 Q39.9973 744.728 39.1278 743.987 Q38.2582 743.247 38.2582 742.119 Q38.2582 741.25 38.7413 740.735 Q39.1922 740.219 40.0296 740.219 Q40.4482 740.219 42.284 740.67 L51.4948 743.053 L57.4529 744.503 Q59.6429 745.05 60.4481 745.211 Q61.2532 745.34 62.316 745.34 Q65.3434 745.34 65.3434 743.376 Q65.3434 742.409 64.7314 741.636 Q64.1195 740.863 62.8313 740.252 Q61.5431 739.64 60.3515 739.253 Q59.1276 738.867 57.1953 738.351 Q56.4223 738.19 56.2291 738.062 Q56.0037 737.901 56.0037 737.45 Q56.0037 736.645 56.6478 736.645 M44.1841 745.694 Q43.8943 745.694 43.0891 745.92 Q42.284 746.145 41.1568 746.661 Q40.0296 747.176 39.2244 748.303 Q38.3871 749.398 38.3871 750.879 Q38.3871 752.876 40.094 754.97 Q41.8009 757.031 44.6994 758.544 Q47.0182 759.704 51.8813 760.96 Q56.7444 762.184 59.1598 762.184 Q60.6413 762.184 61.9617 761.862 Q63.25 761.507 64.3128 760.509 Q65.3434 759.511 65.3434 757.965 Q65.3434 754.197 60.6735 750.493 Q59.8684 749.784 59.5463 749.623 Q59.192 749.43 58.2259 749.173 L45.3113 745.888 Q44.3451 745.694 44.1841 745.694 Z" fill="#000000" fill-rule="nonzero" fill-opacity="1" /><path clip-path="url(#clip920)" d="M41.2856 701.042 Q43.0891 701.042 44.1197 702.169 Q45.1181 703.296 45.1181 704.584 Q45.1181 705.808 44.4096 706.452 Q43.701 707.096 42.7993 707.096 Q41.5754 707.096 40.5126 706.194 Q39.4498 705.293 39.2244 703.94 Q38.3871 705.261 38.3871 707.225 Q38.3871 708.513 39.0634 709.641 Q39.7397 710.736 40.6093 711.412 Q41.4788 712.056 42.7348 712.636 Q43.9587 713.183 44.6994 713.409 Q45.4079 713.602 46.1809 713.763 L55.1985 716.017 Q59.4819 717.112 60.9956 717.112 Q62.8635 717.112 64.1195 716.211 Q65.3434 715.309 65.3434 713.505 Q65.3434 712.797 65.1501 711.992 Q64.9247 711.186 64.345 710.156 Q63.7331 709.093 62.8313 708.159 Q61.8973 707.193 60.3192 706.259 Q58.7412 705.325 56.7122 704.713 Q56.0037 704.52 56.0037 703.876 Q56.0037 703.071 56.6478 703.071 Q57.1953 703.071 58.3547 703.521 Q59.4819 703.94 60.9634 704.874 Q62.4126 705.776 63.7331 706.967 Q65.0213 708.159 65.9231 709.93 Q66.8248 711.702 66.8248 713.634 Q66.8248 716.404 65.3434 718.239 Q63.8619 720.075 61.8007 720.752 Q62.0906 720.913 62.477 721.138 Q62.8635 721.363 63.7331 722.04 Q64.5704 722.684 65.2145 723.425 Q65.8264 724.165 66.3095 725.325 Q66.8248 726.452 66.8248 727.676 Q66.8248 729.222 66.3739 730.607 Q65.9231 731.959 64.8925 732.925 Q63.8619 733.892 62.4448 733.892 Q60.8667 733.892 59.7717 732.829 Q58.6445 731.734 58.6445 730.252 Q58.6445 729.318 59.192 728.578 Q59.7395 727.805 60.9312 727.805 Q62.2516 727.805 63.25 728.706 Q64.2484 729.608 64.506 730.896 Q65.3434 729.576 65.3434 727.611 Q65.3434 725.486 63.4754 723.811 Q61.6075 722.136 58.4835 721.331 Q50.9795 719.334 47.6301 718.562 Q44.2485 717.789 42.7993 717.789 Q41.4466 717.789 40.5126 718.143 Q39.5787 718.497 39.16 719.109 Q38.7091 719.689 38.5481 720.236 Q38.3871 720.752 38.3871 721.331 Q38.3871 722.297 38.7735 723.392 Q39.16 724.455 40.0618 725.743 Q40.9313 726.999 42.7348 728.191 Q44.5384 729.383 47.0182 730.188 Q47.759 730.349 47.759 731.057 Q47.7268 731.83 47.0826 731.83 Q46.5351 731.83 45.4079 731.412 Q44.2485 730.961 42.7993 730.059 Q41.35 729.125 40.0618 727.933 Q38.7413 726.71 37.8396 724.938 Q36.9378 723.135 36.9378 721.202 Q36.9378 720.333 37.131 719.496 Q37.2921 718.626 37.7751 717.595 Q38.2582 716.533 39.321 715.599 Q40.3838 714.665 41.9297 714.085 Q41.189 713.698 40.4804 713.183 Q39.7719 712.636 38.9023 711.798 Q38.0006 710.929 37.4853 709.737 Q36.9378 708.513 36.9378 707.161 Q36.9378 705.84 37.2921 704.552 Q37.6141 703.264 38.6769 702.169 Q39.7075 701.042 41.2856 701.042 Z" fill="#000000" fill-rule="nonzero" fill-opacity="1" /><path clip-path="url(#clip920)" d="M49.5947 692.314 Q38.4515 692.314 29.466 688.16 Q25.6979 686.389 22.5418 683.909 Q19.3856 681.429 18.0007 679.786 Q16.6159 678.144 16.6159 677.693 Q16.6159 677.049 17.26 677.017 Q17.5821 677.017 18.3872 677.886 Q29.2084 688.514 49.5947 688.482 Q70.0454 688.482 80.4479 678.144 Q81.5751 677.017 81.9294 677.017 Q82.5735 677.017 82.5735 677.693 Q82.5735 678.144 81.2531 679.722 Q79.9326 681.3 76.9053 683.748 Q73.8779 686.195 70.1742 687.967 Q61.1888 692.314 49.5947 692.314 Z" fill="#000000" fill-rule="nonzero" fill-opacity="1" /><path clip-path="url(#clip920)" d="M81.2531 652.076 Q81.8006 652.076 82.187 652.462 Q82.5735 652.849 82.5735 653.396 Q82.5735 654.33 81.7039 654.652 L50.0456 666.923 Q49.9168 666.987 49.5947 666.987 Q49.2726 666.987 49.1438 666.923 L17.4855 654.652 Q16.6159 654.33 16.6159 653.396 Q16.6159 652.849 17.0024 652.462 Q17.3888 652.076 17.9363 652.076 Q18.2584 652.076 18.3872 652.14 L49.5947 664.282 L80.8022 652.14 Q80.931 652.076 81.2531 652.076 Z" fill="#000000" fill-rule="nonzero" fill-opacity="1" /><path clip-path="url(#clip920)" d="M42.606 617.313 Q44.4096 617.313 45.3757 618.214 Q46.3097 619.116 46.3097 620.34 Q46.3097 621.338 45.73 621.886 Q45.1503 622.401 44.3773 622.401 Q43.2501 622.401 42.3484 621.499 Q41.4466 620.565 41.4144 619.213 Q40.2228 619.664 39.5143 620.855 Q38.7735 622.047 38.5803 623.11 Q38.3871 624.14 38.3871 625.171 Q38.3871 627.2 39.0312 628.746 Q39.6753 630.292 40.6737 631.064 Q41.6398 631.837 42.5738 632.192 Q43.5078 632.546 44.3129 632.546 Q45.0215 632.546 45.6012 632.385 Q46.1487 632.192 46.5673 631.741 Q46.9538 631.29 47.2115 630.968 Q47.4691 630.614 47.6945 629.841 Q47.92 629.068 48.0166 628.746 Q48.081 628.424 48.2743 627.522 Q48.6607 625.654 48.8862 624.817 Q49.0794 623.979 49.6269 622.884 Q50.1744 621.757 51.044 620.92 Q53.0729 618.891 55.8748 618.891 Q56.9054 618.891 58.1615 619.245 Q59.4175 619.567 60.9956 620.501 Q62.5737 621.435 63.8297 622.852 Q65.0857 624.269 65.9553 626.717 Q66.8248 629.132 66.8248 632.159 Q66.8248 636.378 65.0535 638.987 Q63.25 641.596 60.4159 641.596 Q58.3547 641.596 57.2275 640.469 Q56.0681 639.341 56.0681 637.892 Q56.0681 636.797 56.68 636.121 Q57.2597 635.444 58.3547 635.444 Q59.8362 635.444 60.9634 636.636 Q62.0906 637.828 61.8651 639.599 Q65.3434 638.085 65.3434 632.095 Q65.3434 629.841 64.7637 628.102 Q64.1517 626.33 63.3144 625.364 Q62.4448 624.366 61.382 623.722 Q60.3192 623.077 59.5141 622.884 Q58.709 622.659 58.097 622.659 Q57.0342 622.659 56.2291 623.077 Q55.424 623.496 54.9731 624.076 Q54.49 624.623 54.1035 625.686 Q53.6848 626.717 53.5238 627.457 Q53.3628 628.198 53.1051 629.519 Q52.9763 630.131 52.9119 630.517 Q52.8153 630.903 52.5576 631.709 Q52.2678 632.482 51.9779 633.029 Q51.6881 633.544 51.1728 634.221 Q50.6575 634.897 50.0456 635.316 Q49.4337 635.734 48.5319 636.024 Q47.6301 636.314 46.5673 636.314 Q45.6012 636.314 44.4418 636.024 Q43.2823 635.702 41.9297 634.897 Q40.5771 634.06 39.4821 632.868 Q38.3871 631.676 37.6785 629.68 Q36.9378 627.651 36.9378 625.171 Q36.9378 621.564 38.6125 619.438 Q40.255 617.313 42.606 617.313 Z" fill="#000000" fill-rule="nonzero" fill-opacity="1" /><path clip-path="url(#clip920)" d="M49.1438 596.159 Q49.2726 596.094 49.5947 596.094 Q49.9168 596.094 50.0456 596.159 L81.7039 608.429 Q82.5735 608.751 82.5735 609.653 Q82.5735 610.2 82.187 610.587 Q81.8006 610.973 81.2531 610.973 Q80.931 610.973 80.8022 610.909 L49.5947 598.799 L18.3872 610.909 Q18.2584 610.973 17.9363 610.973 Q17.3888 610.973 17.0024 610.587 Q16.6159 610.2 16.6159 609.653 Q16.6159 608.751 17.4855 608.429 L49.1438 596.159 Z" fill="#000000" fill-rule="nonzero" fill-opacity="1" /><path clip-path="url(#clip920)" d="M81.9294 585.582 Q81.6073 585.582 80.8022 584.745 Q69.981 574.117 49.5947 574.117 Q29.144 574.117 18.8059 584.326 Q17.6143 585.582 17.26 585.582 Q16.6159 585.582 16.6159 584.938 Q16.6159 584.487 17.9363 582.909 Q19.2568 581.299 22.2841 578.883 Q25.3115 576.436 29.0151 574.632 Q38.0006 570.284 49.5947 570.284 Q60.7379 570.284 69.7234 574.439 Q73.4914 576.21 76.6476 578.69 Q79.8038 581.17 81.1886 582.812 Q82.5735 584.455 82.5735 584.938 Q82.5735 585.582 81.9294 585.582 Z" fill="#000000" fill-rule="nonzero" fill-opacity="1" /><path clip-path="url(#clip920)" d="M81.9294 560.255 Q81.6073 560.255 80.8022 559.417 Q69.981 548.789 49.5947 548.789 Q29.144 548.789 18.8059 558.999 Q17.6143 560.255 17.26 560.255 Q16.6159 560.255 16.6159 559.61 Q16.6159 559.16 17.9363 557.582 Q19.2568 555.971 22.2841 553.556 Q25.3115 551.108 29.0151 549.305 Q38.0006 544.957 49.5947 544.957 Q60.7379 544.957 69.7234 549.111 Q73.4914 550.883 76.6476 553.363 Q79.8038 555.842 81.1886 557.485 Q82.5735 559.127 82.5735 559.61 Q82.5735 560.255 81.9294 560.255 Z" fill="#000000" fill-rule="nonzero" fill-opacity="1" /><circle clip-path="url(#clip922)" cx="235.785" cy="1384.24" r="14.4" fill="#008000" fill-rule="evenodd" fill-opacity="1" stroke="#000000" stroke-opacity="1" stroke-width="3.2"/>
<circle clip-path="url(#clip922)" cx="854.496" cy="986.525" r="14.4" fill="#008000" fill-rule="evenodd" fill-opacity="1" stroke="#000000" stroke-opacity="1" stroke-width="3.2"/>
<circle clip-path="url(#clip922)" cx="1216.42" cy="778.516" r="14.4" fill="#008000" fill-rule="evenodd" fill-opacity="1" stroke="#000000" stroke-opacity="1" stroke-width="3.2"/>
<circle clip-path="url(#clip922)" cx="1473.21" cy="586.389" r="14.4" fill="#008000" fill-rule="evenodd" fill-opacity="1" stroke="#000000" stroke-opacity="1" stroke-width="3.2"/>
<circle clip-path="url(#clip922)" cx="1672.39" cy="466.923" r="14.4" fill="#008000" fill-rule="evenodd" fill-opacity="1" stroke="#000000" stroke-opacity="1" stroke-width="3.2"/>
<circle clip-path="url(#clip922)" cx="1835.13" cy="365.645" r="14.4" fill="#008000" fill-rule="evenodd" fill-opacity="1" stroke="#000000" stroke-opacity="1" stroke-width="3.2"/>
<circle clip-path="url(#clip922)" cx="1972.72" cy="316.008" r="14.4" fill="#008000" fill-rule="evenodd" fill-opacity="1" stroke="#000000" stroke-opacity="1" stroke-width="3.2"/>
<circle clip-path="url(#clip922)" cx="2091.92" cy="224.179" r="14.4" fill="#008000" fill-rule="evenodd" fill-opacity="1" stroke="#000000" stroke-opacity="1" stroke-width="3.2"/>
<circle clip-path="url(#clip922)" cx="2197.05" cy="132.114" r="14.4" fill="#008000" fill-rule="evenodd" fill-opacity="1" stroke="#000000" stroke-opacity="1" stroke-width="3.2"/>
<circle clip-path="url(#clip922)" cx="2291.1" cy="86.1857" r="14.4" fill="#008000" fill-rule="evenodd" fill-opacity="1" stroke="#000000" stroke-opacity="1" stroke-width="3.2"/>
<polyline clip-path="url(#clip922)" style="stroke:#ff0000; stroke-linecap:round; stroke-linejoin:round; stroke-width:4; stroke-opacity:1; fill:none" points="235.785,1381.37 854.496,991.9 1216.42,764.074 1473.21,602.429 1672.39,477.047 1835.13,374.603 1972.72,287.987 2091.92,212.958 2197.05,146.777 2291.1,87.576 "/>
<path clip-path="url(#clip920)" d="M246.747 248.629 L885.404 248.629 L885.404 93.1086 L246.747 93.1086  Z" fill="#ffffff" fill-rule="evenodd" fill-opacity="1"/>
<polyline clip-path="url(#clip920)" style="stroke:#000000; stroke-linecap:round; stroke-linejoin:round; stroke-width:4; stroke-opacity:1; fill:none" points="246.747,248.629 885.404,248.629 885.404,93.1086 246.747,93.1086 246.747,248.629 "/>
<circle clip-path="url(#clip920)" cx="343.575" cy="144.949" r="20.48" fill="#008000" fill-rule="evenodd" fill-opacity="1" stroke="#000000" stroke-opacity="1" stroke-width="4.55111"/>
<path clip-path="url(#clip920)" d="M462.648 123.398 L462.648 127.958 Q459.986 126.685 457.625 126.06 Q455.264 125.435 453.065 125.435 Q449.245 125.435 447.162 126.916 Q445.102 128.398 445.102 131.129 Q445.102 133.421 446.468 134.602 Q447.856 135.759 451.699 136.477 L454.523 137.055 Q459.755 138.051 462.231 140.574 Q464.731 143.074 464.731 147.287 Q464.731 152.31 461.352 154.902 Q457.995 157.495 451.491 157.495 Q449.037 157.495 446.259 156.939 Q443.505 156.384 440.542 155.296 L440.542 150.481 Q443.389 152.078 446.12 152.888 Q448.852 153.699 451.491 153.699 Q455.495 153.699 457.671 152.125 Q459.847 150.551 459.847 147.634 Q459.847 145.088 458.273 143.652 Q456.722 142.217 453.157 141.5 L450.31 140.944 Q445.079 139.902 442.741 137.68 Q440.403 135.458 440.403 131.5 Q440.403 126.916 443.62 124.277 Q446.861 121.639 452.532 121.639 Q454.963 121.639 457.486 122.078 Q460.009 122.518 462.648 123.398 Z" fill="#000000" fill-rule="nonzero" fill-opacity="1" /><path clip-path="url(#clip920)" d="M474.384 143.884 Q474.384 148.583 476.305 151.268 Q478.25 153.93 481.629 153.93 Q485.009 153.93 486.953 151.268 Q488.898 148.583 488.898 143.884 Q488.898 139.185 486.953 136.523 Q485.009 133.838 481.629 133.838 Q478.25 133.838 476.305 136.523 Q474.384 139.185 474.384 143.884 M488.898 152.935 Q487.555 155.25 485.495 156.384 Q483.458 157.495 480.588 157.495 Q475.889 157.495 472.926 153.745 Q469.986 149.995 469.986 143.884 Q469.986 137.773 472.926 134.023 Q475.889 130.273 480.588 130.273 Q483.458 130.273 485.495 131.407 Q487.555 132.518 488.898 134.833 L488.898 130.898 L493.157 130.898 L493.157 166.685 L488.898 166.685 L488.898 152.935 Z" fill="#000000" fill-rule="nonzero" fill-opacity="1" /><path clip-path="url(#clip920)" d="M501.49 146.592 L501.49 130.898 L505.75 130.898 L505.75 146.43 Q505.75 150.111 507.185 151.963 Q508.62 153.791 511.49 153.791 Q514.939 153.791 516.93 151.592 Q518.944 149.393 518.944 145.597 L518.944 130.898 L523.203 130.898 L523.203 156.824 L518.944 156.824 L518.944 152.842 Q517.393 155.203 515.333 156.361 Q513.296 157.495 510.588 157.495 Q506.12 157.495 503.805 154.717 Q501.49 151.939 501.49 146.592 M512.208 130.273 L512.208 130.273 Z" fill="#000000" fill-rule="nonzero" fill-opacity="1" /><path clip-path="url(#clip920)" d="M543.759 143.791 Q538.597 143.791 536.606 144.972 Q534.615 146.152 534.615 149 Q534.615 151.268 536.097 152.611 Q537.601 153.93 540.171 153.93 Q543.712 153.93 545.842 151.43 Q547.995 148.907 547.995 144.74 L547.995 143.791 L543.759 143.791 M552.254 142.032 L552.254 156.824 L547.995 156.824 L547.995 152.888 Q546.536 155.25 544.361 156.384 Q542.185 157.495 539.037 157.495 Q535.055 157.495 532.694 155.273 Q530.356 153.027 530.356 149.277 Q530.356 144.902 533.273 142.68 Q536.212 140.458 542.023 140.458 L547.995 140.458 L547.995 140.041 Q547.995 137.102 546.05 135.504 Q544.129 133.884 540.634 133.884 Q538.412 133.884 536.305 134.416 Q534.199 134.949 532.254 136.014 L532.254 132.078 Q534.592 131.176 536.791 130.736 Q538.99 130.273 541.074 130.273 Q546.699 130.273 549.476 133.189 Q552.254 136.106 552.254 142.032 Z" fill="#000000" fill-rule="nonzero" fill-opacity="1" /><path clip-path="url(#clip920)" d="M576.05 134.879 Q575.333 134.463 574.476 134.277 Q573.643 134.069 572.624 134.069 Q569.013 134.069 567.069 136.43 Q565.147 138.768 565.147 143.166 L565.147 156.824 L560.865 156.824 L560.865 130.898 L565.147 130.898 L565.147 134.926 Q566.49 132.564 568.643 131.43 Q570.796 130.273 573.874 130.273 Q574.314 130.273 574.847 130.342 Q575.379 130.389 576.027 130.504 L576.05 134.879 Z" fill="#000000" fill-rule="nonzero" fill-opacity="1" /><path clip-path="url(#clip920)" d="M601.652 142.796 L601.652 144.879 L582.069 144.879 Q582.346 149.277 584.708 151.592 Q587.092 153.884 591.328 153.884 Q593.782 153.884 596.073 153.282 Q598.388 152.68 600.657 151.476 L600.657 155.504 Q598.365 156.476 595.958 156.986 Q593.55 157.495 591.073 157.495 Q584.87 157.495 581.235 153.884 Q577.624 150.273 577.624 144.115 Q577.624 137.75 581.05 134.023 Q584.499 130.273 590.333 130.273 Q595.564 130.273 598.596 133.652 Q601.652 137.009 601.652 142.796 M597.393 141.546 Q597.346 138.051 595.425 135.967 Q593.527 133.884 590.379 133.884 Q586.814 133.884 584.661 135.898 Q582.532 137.912 582.208 141.569 L597.393 141.546 Z" fill="#000000" fill-rule="nonzero" fill-opacity="1" /><path clip-path="url(#clip920)" d="M609.731 150.944 L614.615 150.944 L614.615 156.824 L609.731 156.824 L609.731 150.944 M609.731 132.31 L614.615 132.31 L614.615 138.189 L609.731 138.189 L609.731 132.31 Z" fill="#000000" fill-rule="nonzero" fill-opacity="1" /><path clip-path="url(#clip920)" d="M674.519 149.961 Q674.519 150.148 674.309 150.874 Q674.098 151.6 673.583 152.725 Q673.091 153.849 672.388 154.88 Q671.709 155.887 670.584 156.636 Q669.484 157.362 668.219 157.362 Q666.532 157.362 665.408 156.238 Q664.284 155.114 664.284 153.427 Q664.284 152.514 664.916 150.781 Q667.891 142.864 667.891 140.03 Q667.891 136.68 665.291 136.68 Q663.815 136.68 662.48 137.289 Q661.145 137.898 660.279 138.741 Q659.412 139.585 658.733 140.545 Q658.053 141.505 657.749 142.138 Q657.468 142.77 657.398 143.051 L654.517 154.622 Q654.282 155.606 654.118 156.074 Q653.955 156.543 653.509 156.941 Q653.064 157.362 652.362 157.362 Q651.776 157.362 651.355 157.011 Q650.956 156.66 650.956 156.051 Q650.956 155.957 651.074 155.465 Q651.191 154.973 651.355 154.294 Q651.519 153.615 651.589 153.217 Q652.432 150.031 652.549 149.586 L653.884 144.012 Q654.61 141.248 654.61 140.03 Q654.61 136.68 652.01 136.68 Q650.722 136.68 649.504 137.172 Q648.31 137.641 647.49 138.296 Q646.67 138.952 645.921 139.866 Q645.195 140.756 644.82 141.365 Q644.468 141.95 644.187 142.536 L643.578 144.925 Q643.438 145.581 642.759 148.134 L641.705 152.467 Q640.955 155.699 640.791 156.004 Q640.557 156.66 640.042 157.011 Q639.526 157.362 639.011 157.362 Q638.425 157.362 638.027 157.011 Q637.629 156.66 637.629 156.051 Q637.629 155.957 637.699 155.606 Q637.77 155.254 637.887 154.762 Q638.004 154.271 638.051 153.99 L640.838 142.911 Q641.353 140.896 641.47 140.264 Q641.611 139.608 641.611 138.882 Q641.611 136.68 640.112 136.68 Q638.894 136.68 638.098 138.133 Q637.301 139.585 636.622 142.395 Q636.411 143.168 636.271 143.332 Q636.153 143.496 635.802 143.496 Q635.217 143.473 635.217 143.004 Q635.217 142.887 635.404 142.138 Q635.591 141.388 635.943 140.264 Q636.317 139.116 636.716 138.367 Q636.95 137.875 637.161 137.547 Q637.371 137.219 637.793 136.704 Q638.215 136.188 638.847 135.907 Q639.479 135.626 640.252 135.626 Q641.962 135.626 643.227 136.727 Q644.515 137.828 644.679 139.796 Q647.794 135.626 652.151 135.626 Q654.61 135.626 656.086 136.868 Q657.468 138.062 657.632 140.264 Q660.864 135.626 665.455 135.626 Q668.102 135.626 669.53 137.008 Q670.959 138.367 670.959 140.756 Q670.959 141.997 670.327 144.363 Q669.694 146.705 669.273 147.876 Q668.851 149.047 668.031 151.296 Q667.165 153.451 667.165 154.716 Q667.165 155.535 667.446 155.91 Q667.727 156.285 668.336 156.285 Q669.273 156.285 670.093 155.746 Q670.912 155.184 671.498 154.271 Q672.107 153.334 672.505 152.397 Q672.903 151.436 673.208 150.359 Q673.395 149.773 673.489 149.633 Q673.606 149.492 673.934 149.492 Q674.519 149.492 674.519 149.961 Z" fill="#000000" fill-rule="nonzero" fill-opacity="1" /><path clip-path="url(#clip920)" d="M699.464 149.961 Q698.832 152.982 698.012 154.716 Q696.701 157.362 694.475 157.362 Q692.789 157.362 691.595 156.332 Q690.4 155.301 690.119 153.755 Q687.051 157.362 683.865 157.362 Q681.054 157.362 679.274 155.231 Q677.494 153.076 677.494 149.68 Q677.494 146.26 679.181 142.981 Q680.89 139.702 683.584 137.664 Q686.278 135.626 689.041 135.626 Q691.969 135.626 693.468 138.695 Q693.585 137.851 694.124 137.219 Q694.663 136.587 695.483 136.587 Q696.115 136.587 696.49 136.938 Q696.865 137.266 696.865 137.875 Q696.865 138.179 696.537 139.514 L694.803 146.213 L693.749 150.546 Q693.351 152.139 693.234 152.725 Q693.14 153.31 693.14 154.083 Q693.14 156.285 694.569 156.285 Q695.272 156.285 695.834 155.84 Q696.396 155.395 696.841 154.458 Q697.286 153.521 697.567 152.654 Q697.848 151.764 698.223 150.359 Q698.34 149.797 698.434 149.656 Q698.551 149.492 698.879 149.492 Q699.464 149.492 699.464 149.961 M692.883 140.896 Q692.883 140.686 692.719 140.1 Q692.555 139.514 692.18 138.695 Q691.805 137.875 690.986 137.289 Q690.189 136.68 689.112 136.68 Q687.66 136.68 686.137 137.922 Q684.638 139.163 683.537 141.271 Q682.694 142.958 681.781 146.494 Q680.89 150.031 680.89 151.788 Q680.89 152.865 681.125 153.826 Q681.382 154.762 682.108 155.535 Q682.835 156.285 683.959 156.285 Q686.699 156.285 689.393 152.889 Q689.908 152.303 690.025 152.069 Q690.166 151.811 690.353 151.109 L692.742 141.716 Q692.883 141.013 692.883 140.896 Z" fill="#000000" fill-rule="nonzero" fill-opacity="1" /><path clip-path="url(#clip920)" d="M725.352 138.788 Q725.352 140.1 724.532 140.85 Q723.712 141.576 722.775 141.576 Q721.885 141.576 721.417 141.06 Q720.948 140.545 720.948 139.889 Q720.948 138.999 721.604 138.226 Q722.26 137.453 723.243 137.289 Q722.283 136.68 720.854 136.68 Q719.918 136.68 719.098 137.172 Q718.301 137.664 717.809 138.296 Q717.341 138.929 716.919 139.842 Q716.521 140.732 716.357 141.271 Q716.217 141.786 716.1 142.349 L714.46 148.907 Q713.664 152.022 713.664 153.123 Q713.664 154.481 714.32 155.395 Q714.975 156.285 716.287 156.285 Q716.802 156.285 717.388 156.144 Q717.973 155.98 718.723 155.559 Q719.496 155.114 720.175 154.458 Q720.878 153.779 721.557 152.631 Q722.236 151.483 722.681 150.008 Q722.822 149.492 723.29 149.492 Q723.876 149.492 723.876 149.961 Q723.876 150.359 723.548 151.202 Q723.243 152.022 722.564 153.099 Q721.908 154.153 721.042 155.114 Q720.175 156.051 718.887 156.707 Q717.599 157.362 716.193 157.362 Q714.179 157.362 712.844 156.285 Q711.509 155.207 711.017 153.708 Q710.9 153.919 710.736 154.2 Q710.572 154.481 710.08 155.114 Q709.612 155.723 709.073 156.191 Q708.534 156.636 707.691 156.988 Q706.871 157.362 705.981 157.362 Q704.857 157.362 703.85 157.034 Q702.866 156.707 702.163 155.957 Q701.461 155.207 701.461 154.177 Q701.461 153.029 702.234 152.233 Q703.03 151.413 704.107 151.413 Q704.787 151.413 705.325 151.811 Q705.887 152.209 705.887 153.076 Q705.887 154.036 705.232 154.762 Q704.576 155.489 703.639 155.676 Q704.599 156.285 706.028 156.285 Q707.574 156.285 708.792 154.926 Q710.01 153.568 710.595 151.296 Q712.048 145.838 712.61 143.403 Q713.172 140.943 713.172 139.889 Q713.172 138.905 712.914 138.226 Q712.657 137.547 712.212 137.242 Q711.79 136.915 711.392 136.797 Q711.017 136.68 710.595 136.68 Q709.893 136.68 709.096 136.961 Q708.323 137.242 707.387 137.898 Q706.473 138.531 705.606 139.842 Q704.74 141.154 704.154 142.958 Q704.037 143.496 703.522 143.496 Q702.96 143.473 702.96 143.004 Q702.96 142.606 703.264 141.786 Q703.592 140.943 704.248 139.889 Q704.927 138.835 705.794 137.898 Q706.684 136.938 707.972 136.282 Q709.284 135.626 710.689 135.626 Q711.321 135.626 711.93 135.767 Q712.563 135.884 713.312 136.235 Q714.085 136.587 714.765 137.36 Q715.444 138.133 715.865 139.257 Q716.146 138.718 716.521 138.203 Q716.919 137.687 717.528 137.055 Q718.161 136.399 719.027 136.024 Q719.918 135.626 720.901 135.626 Q721.862 135.626 722.798 135.884 Q723.735 136.118 724.532 136.891 Q725.352 137.641 725.352 138.788 Z" fill="#000000" fill-rule="nonzero" fill-opacity="1" /><path clip-path="url(#clip920)" d="M731.692 144.831 Q731.692 136.727 734.714 130.192 Q736.002 127.452 737.805 125.156 Q739.609 122.861 740.803 121.854 Q741.998 120.847 742.326 120.847 Q742.794 120.847 742.818 121.315 Q742.818 121.549 742.185 122.135 Q734.456 130.005 734.479 144.831 Q734.479 159.705 741.998 167.27 Q742.818 168.09 742.818 168.347 Q742.818 168.816 742.326 168.816 Q741.998 168.816 740.85 167.856 Q739.703 166.895 737.922 164.694 Q736.142 162.492 734.854 159.798 Q731.692 153.263 731.692 144.831 Z" fill="#000000" fill-rule="nonzero" fill-opacity="1" /><path clip-path="url(#clip920)" d="M760.952 167.856 Q760.952 168.254 760.671 168.535 Q760.39 168.816 759.992 168.816 Q759.313 168.816 759.078 168.184 L750.154 145.159 Q750.108 145.066 750.108 144.831 Q750.108 144.597 750.154 144.503 L759.078 121.479 Q759.313 120.847 759.992 120.847 Q760.39 120.847 760.671 121.128 Q760.952 121.409 760.952 121.807 Q760.952 122.041 760.905 122.135 L752.075 144.831 L760.905 167.528 Q760.952 167.621 760.952 167.856 Z" fill="#000000" fill-rule="nonzero" fill-opacity="1" /><path clip-path="url(#clip920)" d="M786.23 139.749 Q786.23 141.06 785.574 141.763 Q784.918 142.442 784.028 142.442 Q783.302 142.442 782.904 142.021 Q782.529 141.599 782.529 141.037 Q782.529 140.217 783.185 139.561 Q783.864 138.905 784.848 138.882 Q784.52 138.015 783.654 137.5 Q782.787 136.961 782.014 136.821 Q781.264 136.68 780.515 136.68 Q779.039 136.68 777.915 137.149 Q776.791 137.617 776.229 138.343 Q775.666 139.046 775.409 139.725 Q775.151 140.404 775.151 140.99 Q775.151 141.505 775.268 141.927 Q775.409 142.325 775.737 142.63 Q776.065 142.911 776.299 143.098 Q776.557 143.285 777.119 143.449 Q777.681 143.613 777.915 143.684 Q778.149 143.73 778.805 143.871 Q780.164 144.152 780.773 144.316 Q781.382 144.457 782.178 144.855 Q782.998 145.253 783.607 145.885 Q785.082 147.361 785.082 149.399 Q785.082 150.148 784.825 151.062 Q784.59 151.975 783.911 153.123 Q783.232 154.271 782.201 155.184 Q781.171 156.098 779.391 156.73 Q777.634 157.362 775.432 157.362 Q772.364 157.362 770.467 156.074 Q768.569 154.762 768.569 152.701 Q768.569 151.202 769.389 150.382 Q770.209 149.539 771.263 149.539 Q772.059 149.539 772.551 149.984 Q773.043 150.406 773.043 151.202 Q773.043 152.28 772.177 153.099 Q771.31 153.919 770.022 153.755 Q771.123 156.285 775.479 156.285 Q777.119 156.285 778.383 155.863 Q779.672 155.418 780.374 154.809 Q781.1 154.177 781.569 153.404 Q782.037 152.631 782.178 152.045 Q782.342 151.46 782.342 151.015 Q782.342 150.242 782.037 149.656 Q781.733 149.071 781.311 148.743 Q780.913 148.392 780.14 148.11 Q779.391 147.806 778.852 147.689 Q778.313 147.572 777.353 147.384 Q776.908 147.291 776.627 147.244 Q776.346 147.174 775.76 146.986 Q775.198 146.775 774.8 146.565 Q774.425 146.354 773.933 145.979 Q773.441 145.604 773.137 145.159 Q772.832 144.714 772.622 144.058 Q772.411 143.403 772.411 142.63 Q772.411 141.927 772.622 141.084 Q772.856 140.241 773.441 139.257 Q774.05 138.273 774.917 137.477 Q775.784 136.68 777.236 136.165 Q778.711 135.626 780.515 135.626 Q783.138 135.626 784.684 136.844 Q786.23 138.039 786.23 139.749 Z" fill="#000000" fill-rule="nonzero" fill-opacity="1" /><path clip-path="url(#clip920)" d="M801.609 144.503 Q801.656 144.597 801.656 144.831 Q801.656 145.066 801.609 145.159 L792.685 168.184 Q792.451 168.816 791.795 168.816 Q791.397 168.816 791.116 168.535 Q790.835 168.254 790.835 167.856 Q790.835 167.621 790.882 167.528 L799.689 144.831 L790.882 122.135 Q790.835 122.041 790.835 121.807 Q790.835 121.409 791.116 121.128 Q791.397 120.847 791.795 120.847 Q792.451 120.847 792.685 121.479 L801.609 144.503 Z" fill="#000000" fill-rule="nonzero" fill-opacity="1" /><path clip-path="url(#clip920)" d="M809.297 168.347 Q809.297 168.113 809.906 167.528 Q817.635 159.658 817.635 144.831 Q817.635 129.958 810.211 122.439 Q809.297 121.573 809.297 121.315 Q809.297 120.847 809.765 120.847 Q810.093 120.847 811.241 121.807 Q812.412 122.767 814.169 124.969 Q815.949 127.171 817.261 129.864 Q820.423 136.399 820.423 144.831 Q820.423 152.935 817.401 159.47 Q816.113 162.211 814.309 164.506 Q812.506 166.802 811.311 167.809 Q810.117 168.816 809.765 168.816 Q809.297 168.816 809.297 168.347 Z" fill="#000000" fill-rule="nonzero" fill-opacity="1" /><path clip-path="url(#clip920)" d="M827.713 168.347 Q827.713 168.113 828.322 167.528 Q836.051 159.658 836.051 144.831 Q836.051 129.958 828.626 122.439 Q827.713 121.573 827.713 121.315 Q827.713 120.847 828.181 120.847 Q828.509 120.847 829.657 121.807 Q830.828 122.767 832.584 124.969 Q834.365 127.171 835.676 129.864 Q838.838 136.399 838.838 144.831 Q838.838 152.935 835.817 159.47 Q834.528 162.211 832.725 164.506 Q830.921 166.802 829.727 167.809 Q828.532 168.816 828.181 168.816 Q827.713 168.816 827.713 168.347 Z" fill="#000000" fill-rule="nonzero" fill-opacity="1" /><polyline clip-path="url(#clip920)" style="stroke:#ff0000; stroke-linecap:round; stroke-linejoin:round; stroke-width:4; stroke-opacity:1; fill:none" points="270.954,196.789 416.196,196.789 "/>
<path clip-path="url(#clip920)" d="M445.079 197.564 L445.079 210.226 L452.579 210.226 Q456.352 210.226 458.157 208.675 Q459.986 207.101 459.986 203.883 Q459.986 200.643 458.157 199.115 Q456.352 197.564 452.579 197.564 L445.079 197.564 M445.079 183.351 L445.079 193.768 L452 193.768 Q455.426 193.768 457.093 192.495 Q458.782 191.198 458.782 188.559 Q458.782 185.944 457.093 184.647 Q455.426 183.351 452 183.351 L445.079 183.351 M440.403 179.509 L452.347 179.509 Q457.694 179.509 460.588 181.731 Q463.481 183.953 463.481 188.05 Q463.481 191.222 462 193.097 Q460.518 194.971 457.648 195.434 Q461.097 196.175 462.995 198.536 Q464.917 200.874 464.917 204.393 Q464.917 209.022 461.768 211.545 Q458.62 214.069 452.81 214.069 L440.403 214.069 L440.403 179.509 Z" fill="#000000" fill-rule="nonzero" fill-opacity="1" /><path clip-path="url(#clip920)" d="M494.916 200.041 L494.916 202.124 L475.333 202.124 Q475.611 206.522 477.972 208.837 Q480.356 211.129 484.592 211.129 Q487.046 211.129 489.338 210.527 Q491.653 209.925 493.921 208.721 L493.921 212.749 Q491.629 213.721 489.222 214.231 Q486.815 214.74 484.338 214.74 Q478.134 214.74 474.5 211.129 Q470.889 207.518 470.889 201.36 Q470.889 194.995 474.315 191.268 Q477.764 187.518 483.597 187.518 Q488.828 187.518 491.861 190.897 Q494.916 194.254 494.916 200.041 M490.657 198.791 Q490.611 195.296 488.69 193.212 Q486.791 191.129 483.643 191.129 Q480.079 191.129 477.926 193.143 Q475.796 195.157 475.472 198.814 L490.657 198.791 Z" fill="#000000" fill-rule="nonzero" fill-opacity="1" /><path clip-path="url(#clip920)" d="M518.435 188.907 L518.435 192.934 Q516.629 192.009 514.685 191.546 Q512.74 191.083 510.657 191.083 Q507.486 191.083 505.889 192.055 Q504.314 193.027 504.314 194.971 Q504.314 196.453 505.449 197.309 Q506.583 198.143 510.009 198.907 L511.467 199.231 Q516.004 200.203 517.902 201.985 Q519.824 203.745 519.824 206.916 Q519.824 210.527 516.953 212.633 Q514.106 214.74 509.106 214.74 Q507.023 214.74 504.754 214.323 Q502.509 213.93 500.009 213.12 L500.009 208.721 Q502.37 209.948 504.662 210.573 Q506.953 211.175 509.199 211.175 Q512.208 211.175 513.828 210.157 Q515.449 209.115 515.449 207.24 Q515.449 205.504 514.268 204.578 Q513.111 203.652 509.152 202.796 L507.671 202.448 Q503.713 201.615 501.953 199.902 Q500.194 198.166 500.194 195.157 Q500.194 191.499 502.787 189.509 Q505.379 187.518 510.148 187.518 Q512.509 187.518 514.592 187.865 Q516.676 188.212 518.435 188.907 Z" fill="#000000" fill-rule="nonzero" fill-opacity="1" /><path clip-path="url(#clip920)" d="M530.819 180.782 L530.819 188.143 L539.592 188.143 L539.592 191.453 L530.819 191.453 L530.819 205.527 Q530.819 208.698 531.675 209.601 Q532.555 210.504 535.217 210.504 L539.592 210.504 L539.592 214.069 L535.217 214.069 Q530.287 214.069 528.412 212.24 Q526.537 210.388 526.537 205.527 L526.537 191.453 L523.412 191.453 L523.412 188.143 L526.537 188.143 L526.537 180.782 L530.819 180.782 Z" fill="#000000" fill-rule="nonzero" fill-opacity="1" /><path clip-path="url(#clip920)" d="M573.388 178.05 L573.388 181.592 L569.314 181.592 Q567.022 181.592 566.12 182.518 Q565.24 183.444 565.24 185.851 L565.24 188.143 L572.254 188.143 L572.254 191.453 L565.24 191.453 L565.24 214.069 L560.958 214.069 L560.958 191.453 L556.884 191.453 L556.884 188.143 L560.958 188.143 L560.958 186.337 Q560.958 182.009 562.972 180.041 Q564.985 178.05 569.36 178.05 L573.388 178.05 Z" fill="#000000" fill-rule="nonzero" fill-opacity="1" /><path clip-path="url(#clip920)" d="M576.953 188.143 L581.212 188.143 L581.212 214.069 L576.953 214.069 L576.953 188.143 M576.953 178.05 L581.212 178.05 L581.212 183.444 L576.953 183.444 L576.953 178.05 Z" fill="#000000" fill-rule="nonzero" fill-opacity="1" /><path clip-path="url(#clip920)" d="M594.337 180.782 L594.337 188.143 L603.11 188.143 L603.11 191.453 L594.337 191.453 L594.337 205.527 Q594.337 208.698 595.194 209.601 Q596.073 210.504 598.735 210.504 L603.11 210.504 L603.11 214.069 L598.735 214.069 Q593.805 214.069 591.93 212.24 Q590.055 210.388 590.055 205.527 L590.055 191.453 L586.93 191.453 L586.93 188.143 L590.055 188.143 L590.055 180.782 L594.337 180.782 Z" fill="#000000" fill-rule="nonzero" fill-opacity="1" /><path clip-path="url(#clip920)" d="M369.417 322.005 Q370.922 322.514 372.334 324.181 Q373.769 325.847 375.204 328.764 L379.949 338.208 L374.926 338.208 L370.505 329.343 Q368.792 325.87 367.172 324.736 Q365.574 323.602 362.797 323.602 L357.704 323.602 L357.704 338.208 L353.028 338.208 L353.028 303.648 L363.584 303.648 Q369.51 303.648 372.426 306.125 Q375.343 308.602 375.343 313.602 Q375.343 316.866 373.815 319.019 Q372.31 321.171 369.417 322.005 M357.704 307.491 L357.704 319.759 L363.584 319.759 Q366.963 319.759 368.676 318.208 Q370.412 316.634 370.412 313.602 Q370.412 310.57 368.676 309.042 Q366.963 307.491 363.584 307.491 L357.704 307.491 Z" fill="#000000" fill-rule="nonzero" fill-opacity="1" /><path clip-path="url(#clip920)" d="M403.445 303.648 L416.014 316.542 L411.361 316.542 L401.176 307.398 L390.991 316.542 L386.338 316.542 L398.908 303.648 L403.445 303.648 Z" fill="#000000" fill-rule="nonzero" fill-opacity="1" /><path clip-path="url(#clip920)" d="M430.134 334.273 L446.454 334.273 L446.454 338.208 L424.509 338.208 L424.509 334.273 Q427.171 331.519 431.755 326.889 Q436.361 322.236 437.542 320.894 Q439.787 318.37 440.667 316.634 Q441.569 314.875 441.569 313.185 Q441.569 310.431 439.625 308.695 Q437.704 306.958 434.602 306.958 Q432.403 306.958 429.949 307.722 Q427.518 308.486 424.741 310.037 L424.741 305.315 Q427.565 304.181 430.018 303.602 Q432.472 303.023 434.509 303.023 Q439.88 303.023 443.074 305.708 Q446.268 308.394 446.268 312.884 Q446.268 315.014 445.458 316.935 Q444.671 318.833 442.565 321.426 Q441.986 322.097 438.884 325.315 Q435.782 328.509 430.134 334.273 Z" fill="#000000" fill-rule="nonzero" fill-opacity="1" /><path clip-path="url(#clip920)" d="M456.754 332.329 L461.639 332.329 L461.639 338.208 L456.754 338.208 L456.754 332.329 M456.754 313.695 L461.639 313.695 L461.639 319.574 L456.754 319.574 L456.754 313.695 Z" fill="#000000" fill-rule="nonzero" fill-opacity="1" /><path clip-path="url(#clip920)" d="M497.31 306.727 Q493.699 306.727 491.87 310.292 Q490.064 313.833 490.064 320.963 Q490.064 328.069 491.87 331.634 Q493.699 335.176 497.31 335.176 Q500.944 335.176 502.75 331.634 Q504.578 328.069 504.578 320.963 Q504.578 313.833 502.75 310.292 Q500.944 306.727 497.31 306.727 M497.31 303.023 Q503.12 303.023 506.175 307.63 Q509.254 312.213 509.254 320.963 Q509.254 329.69 506.175 334.296 Q503.12 338.88 497.31 338.88 Q491.5 338.88 488.421 334.296 Q485.365 329.69 485.365 320.963 Q485.365 312.213 488.421 307.63 Q491.5 303.023 497.31 303.023 Z" fill="#000000" fill-rule="nonzero" fill-opacity="1" /><path clip-path="url(#clip920)" d="M517.472 332.329 L522.356 332.329 L522.356 338.208 L517.472 338.208 L517.472 332.329 Z" fill="#000000" fill-rule="nonzero" fill-opacity="1" /><path clip-path="url(#clip920)" d="M532.68 337.491 L532.68 333.231 Q534.439 334.065 536.245 334.505 Q538.05 334.944 539.786 334.944 Q544.416 334.944 546.847 331.843 Q549.3 328.718 549.647 322.375 Q548.305 324.366 546.245 325.431 Q544.185 326.495 541.685 326.495 Q536.499 326.495 533.467 323.37 Q530.458 320.222 530.458 314.783 Q530.458 309.458 533.606 306.241 Q536.754 303.023 541.985 303.023 Q547.981 303.023 551.129 307.63 Q554.3 312.213 554.3 320.963 Q554.3 329.134 550.411 334.019 Q546.546 338.88 539.995 338.88 Q538.235 338.88 536.43 338.532 Q534.624 338.185 532.68 337.491 M541.985 322.838 Q545.134 322.838 546.962 320.685 Q548.814 318.533 548.814 314.783 Q548.814 311.056 546.962 308.903 Q545.134 306.727 541.985 306.727 Q538.837 306.727 536.985 308.903 Q535.157 311.056 535.157 314.783 Q535.157 318.533 536.985 320.685 Q538.837 322.838 541.985 322.838 Z" fill="#000000" fill-rule="nonzero" fill-opacity="1" /><path clip-path="url(#clip920)" d="M562.842 337.491 L562.842 333.231 Q564.601 334.065 566.407 334.505 Q568.212 334.944 569.948 334.944 Q574.578 334.944 577.008 331.843 Q579.462 328.718 579.809 322.375 Q578.467 324.366 576.407 325.431 Q574.346 326.495 571.846 326.495 Q566.661 326.495 563.629 323.37 Q560.62 320.222 560.62 314.783 Q560.62 309.458 563.768 306.241 Q566.916 303.023 572.147 303.023 Q578.143 303.023 581.291 307.63 Q584.462 312.213 584.462 320.963 Q584.462 329.134 580.573 334.019 Q576.707 338.88 570.157 338.88 Q568.397 338.88 566.592 338.532 Q564.786 338.185 562.842 337.491 M572.147 322.838 Q575.295 322.838 577.124 320.685 Q578.976 318.533 578.976 314.783 Q578.976 311.056 577.124 308.903 Q575.295 306.727 572.147 306.727 Q568.999 306.727 567.147 308.903 Q565.319 311.056 565.319 314.783 Q565.319 318.533 567.147 320.685 Q568.999 322.838 572.147 322.838 Z" fill="#000000" fill-rule="nonzero" fill-opacity="1" /><path clip-path="url(#clip920)" d="M602.865 321.796 Q599.531 321.796 597.61 323.579 Q595.712 325.361 595.712 328.486 Q595.712 331.611 597.61 333.394 Q599.531 335.176 602.865 335.176 Q606.198 335.176 608.119 333.394 Q610.041 331.588 610.041 328.486 Q610.041 325.361 608.119 323.579 Q606.221 321.796 602.865 321.796 M598.189 319.806 Q595.18 319.065 593.49 317.005 Q591.823 314.945 591.823 311.982 Q591.823 307.838 594.763 305.431 Q597.726 303.023 602.865 303.023 Q608.027 303.023 610.967 305.431 Q613.906 307.838 613.906 311.982 Q613.906 314.945 612.217 317.005 Q610.55 319.065 607.564 319.806 Q610.943 320.593 612.818 322.884 Q614.717 325.176 614.717 328.486 Q614.717 333.509 611.638 336.194 Q608.582 338.88 602.865 338.88 Q597.147 338.88 594.069 336.194 Q591.013 333.509 591.013 328.486 Q591.013 325.176 592.911 322.884 Q594.809 320.593 598.189 319.806 M596.476 312.421 Q596.476 315.107 598.143 316.611 Q599.832 318.116 602.865 318.116 Q605.874 318.116 607.564 316.611 Q609.277 315.107 609.277 312.421 Q609.277 309.736 607.564 308.232 Q605.874 306.727 602.865 306.727 Q599.832 306.727 598.143 308.232 Q596.476 309.736 596.476 312.421 Z" fill="#000000" fill-rule="nonzero" fill-opacity="1" /><path clip-path="url(#clip920)" d="M633.027 321.796 Q629.693 321.796 627.772 323.579 Q625.874 325.361 625.874 328.486 Q625.874 331.611 627.772 333.394 Q629.693 335.176 633.027 335.176 Q636.36 335.176 638.281 333.394 Q640.203 331.588 640.203 328.486 Q640.203 325.361 638.281 323.579 Q636.383 321.796 633.027 321.796 M628.351 319.806 Q625.341 319.065 623.652 317.005 Q621.985 314.945 621.985 311.982 Q621.985 307.838 624.925 305.431 Q627.888 303.023 633.027 303.023 Q638.189 303.023 641.128 305.431 Q644.068 307.838 644.068 311.982 Q644.068 314.945 642.378 317.005 Q640.712 319.065 637.726 319.806 Q641.105 320.593 642.98 322.884 Q644.878 325.176 644.878 328.486 Q644.878 333.509 641.8 336.194 Q638.744 338.88 633.027 338.88 Q627.309 338.88 624.23 336.194 Q621.175 333.509 621.175 328.486 Q621.175 325.176 623.073 322.884 Q624.971 320.593 628.351 319.806 M626.638 312.421 Q626.638 315.107 628.304 316.611 Q629.994 318.116 633.027 318.116 Q636.036 318.116 637.726 316.611 Q639.439 315.107 639.439 312.421 Q639.439 309.736 637.726 308.232 Q636.036 306.727 633.027 306.727 Q629.994 306.727 628.304 308.232 Q626.638 309.736 626.638 312.421 Z" fill="#000000" fill-rule="nonzero" fill-opacity="1" /></svg>
