<?xml version="1.0" encoding="utf-8"?>
<svg xmlns="http://www.w3.org/2000/svg" xmlns:xlink="http://www.w3.org/1999/xlink" width="600" height="400" viewBox="0 0 2400 1600">
<defs>
  <clipPath id="clip280">
    <rect x="0" y="0" width="2400" height="1600"/>
  </clipPath>
</defs>
<path clip-path="url(#clip280)" d="M0 1600 L2400 1600 L2400 0 L0 0  Z" fill="#ffffff" fill-rule="evenodd" fill-opacity="1"/>
<defs>
  <clipPath id="clip281">
    <rect x="480" y="0" width="1681" height="1600"/>
  </clipPath>
</defs>
<path clip-path="url(#clip280)" d="M174.126 1423.18 L2352.76 1423.18 L2352.76 47.2441 L174.126 47.2441  Z" fill="#ffffff" fill-rule="evenodd" fill-opacity="1"/>
<defs>
  <clipPath id="clip282">
    <rect x="174" y="47" width="2180" height="1377"/>
  </clipPath>
</defs>
<polyline clip-path="url(#clip282)" style="stroke:#000000; stroke-linecap:round; stroke-linejoin:round; stroke-width:2; stroke-opacity:0.1; fill:none" points="588.214,1423.18 588.214,47.2441 "/>
<polyline clip-path="url(#clip282)" style="stroke:#000000; stroke-linecap:round; stroke-linejoin:round; stroke-width:2; stroke-opacity:0.1; fill:none" points="1034.52,1423.18 1034.52,47.2441 "/>
<polyline clip-path="url(#clip282)" style="stroke:#000000; stroke-linecap:round; stroke-linejoin:round; stroke-width:2; stroke-opacity:0.1; fill:none" points="1480.82,1423.18 1480.82,47.2441 "/>
<polyline clip-path="url(#clip282)" style="stroke:#000000; stroke-linecap:round; stroke-linejoin:round; stroke-width:2; stroke-opacity:0.1; fill:none" points="1927.13,1423.18 1927.13,47.2441 "/>
<polyline clip-path="url(#clip282)" style="stroke:#000000; stroke-linecap:round; stroke-linejoin:round; stroke-width:2; stroke-opacity:0.1; fill:none" points="174.126,1291.25 2352.76,1291.25 "/>
<polyline clip-path="url(#clip282)" style="stroke:#000000; stroke-linecap:round; stroke-linejoin:round; stroke-width:2; stroke-opacity:0.1; fill:none" points="174.126,969.73 2352.76,969.73 "/>
<polyline clip-path="url(#clip282)" style="stroke:#000000; stroke-linecap:round; stroke-linejoin:round; stroke-width:2; stroke-opacity:0.1; fill:none" points="174.126,648.205 2352.76,648.205 "/>
<polyline clip-path="url(#clip282)" style="stroke:#000000; stroke-linecap:round; stroke-linejoin:round; stroke-width:2; stroke-opacity:0.1; fill:none" points="174.126,326.681 2352.76,326.681 "/>
<polyline clip-path="url(#clip280)" style="stroke:#000000; stroke-linecap:round; stroke-linejoin:round; stroke-width:4; stroke-opacity:1; fill:none" points="174.126,1423.18 2352.76,1423.18 "/>
<polyline clip-path="url(#clip280)" style="stroke:#000000; stroke-linecap:round; stroke-linejoin:round; stroke-width:4; stroke-opacity:1; fill:none" points="588.214,1423.18 588.214,1404.28 "/>
<polyline clip-path="url(#clip280)" style="stroke:#000000; stroke-linecap:round; stroke-linejoin:round; stroke-width:4; stroke-opacity:1; fill:none" points="1034.52,1423.18 1034.52,1404.28 "/>
<polyline clip-path="url(#clip280)" style="stroke:#000000; stroke-linecap:round; stroke-linejoin:round; stroke-width:4; stroke-opacity:1; fill:none" points="1480.82,1423.18 1480.82,1404.28 "/>
<polyline clip-path="url(#clip280)" style="stroke:#000000; stroke-linecap:round; stroke-linejoin:round; stroke-width:4; stroke-opacity:1; fill:none" points="1927.13,1423.18 1927.13,1404.28 "/>
<path clip-path="url(#clip280)" d="M555.379 1451.02 L573.735 1451.02 L573.735 1454.96 L559.661 1454.96 L559.661 1463.43 Q560.68 1463.08 561.698 1462.92 Q562.717 1462.73 563.735 1462.73 Q569.522 1462.73 572.902 1465.9 Q576.282 1469.08 576.282 1474.49 Q576.282 1480.07 572.809 1483.17 Q569.337 1486.25 563.018 1486.25 Q560.842 1486.25 558.573 1485.88 Q556.328 1485.51 553.921 1484.77 L553.921 1480.07 Q556.004 1481.2 558.226 1481.76 Q560.448 1482.32 562.925 1482.32 Q566.93 1482.32 569.268 1480.21 Q571.606 1478.1 571.606 1474.49 Q571.606 1470.88 569.268 1468.77 Q566.93 1466.67 562.925 1466.67 Q561.05 1466.67 559.175 1467.08 Q557.323 1467.5 555.379 1468.38 L555.379 1451.02 Z" fill="#000000" fill-rule="nonzero" fill-opacity="1" /><path clip-path="url(#clip280)" d="M585.494 1479.7 L590.379 1479.7 L590.379 1485.58 L585.494 1485.58 L585.494 1479.7 Z" fill="#000000" fill-rule="nonzero" fill-opacity="1" /><path clip-path="url(#clip280)" d="M610.564 1454.1 Q606.953 1454.1 605.124 1457.66 Q603.318 1461.2 603.318 1468.33 Q603.318 1475.44 605.124 1479.01 Q606.953 1482.55 610.564 1482.55 Q614.198 1482.55 616.004 1479.01 Q617.832 1475.44 617.832 1468.33 Q617.832 1461.2 616.004 1457.66 Q614.198 1454.1 610.564 1454.1 M610.564 1450.39 Q616.374 1450.39 619.429 1455 Q622.508 1459.58 622.508 1468.33 Q622.508 1477.06 619.429 1481.67 Q616.374 1486.25 610.564 1486.25 Q604.754 1486.25 601.675 1481.67 Q598.619 1477.06 598.619 1468.33 Q598.619 1459.58 601.675 1455 Q604.754 1450.39 610.564 1450.39 Z" fill="#000000" fill-rule="nonzero" fill-opacity="1" /><path clip-path="url(#clip280)" d="M1002.18 1451.02 L1020.54 1451.02 L1020.54 1454.96 L1006.46 1454.96 L1006.46 1463.43 Q1007.48 1463.08 1008.5 1462.92 Q1009.52 1462.73 1010.54 1462.73 Q1016.33 1462.73 1019.7 1465.9 Q1023.08 1469.08 1023.08 1474.49 Q1023.08 1480.07 1019.61 1483.17 Q1016.14 1486.25 1009.82 1486.25 Q1007.64 1486.25 1005.38 1485.88 Q1003.13 1485.51 1000.72 1484.77 L1000.72 1480.07 Q1002.81 1481.2 1005.03 1481.76 Q1007.25 1482.32 1009.73 1482.32 Q1013.73 1482.32 1016.07 1480.21 Q1018.41 1478.1 1018.41 1474.49 Q1018.41 1470.88 1016.07 1468.77 Q1013.73 1466.67 1009.73 1466.67 Q1007.85 1466.67 1005.98 1467.08 Q1004.13 1467.5 1002.18 1468.38 L1002.18 1451.02 Z" fill="#000000" fill-rule="nonzero" fill-opacity="1" /><path clip-path="url(#clip280)" d="M1032.3 1479.7 L1037.18 1479.7 L1037.18 1485.58 L1032.3 1485.58 L1032.3 1479.7 Z" fill="#000000" fill-rule="nonzero" fill-opacity="1" /><path clip-path="url(#clip280)" d="M1047.41 1451.02 L1065.77 1451.02 L1065.77 1454.96 L1051.7 1454.96 L1051.7 1463.43 Q1052.71 1463.08 1053.73 1462.92 Q1054.75 1462.73 1055.77 1462.73 Q1061.56 1462.73 1064.94 1465.9 Q1068.32 1469.08 1068.32 1474.49 Q1068.32 1480.07 1064.84 1483.17 Q1061.37 1486.25 1055.05 1486.25 Q1052.88 1486.25 1050.61 1485.88 Q1048.36 1485.51 1045.95 1484.77 L1045.95 1480.07 Q1048.04 1481.2 1050.26 1481.76 Q1052.48 1482.32 1054.96 1482.32 Q1058.96 1482.32 1061.3 1480.21 Q1063.64 1478.1 1063.64 1474.49 Q1063.64 1470.88 1061.3 1468.77 Q1058.96 1466.67 1054.96 1466.67 Q1053.08 1466.67 1051.21 1467.08 Q1049.36 1467.5 1047.41 1468.38 L1047.41 1451.02 Z" fill="#000000" fill-rule="nonzero" fill-opacity="1" /><path clip-path="url(#clip280)" d="M1458.7 1466.44 Q1455.55 1466.44 1453.7 1468.59 Q1451.87 1470.74 1451.87 1474.49 Q1451.87 1478.22 1453.7 1480.39 Q1455.55 1482.55 1458.7 1482.55 Q1461.84 1482.55 1463.67 1480.39 Q1465.52 1478.22 1465.52 1474.49 Q1465.52 1470.74 1463.67 1468.59 Q1461.84 1466.44 1458.7 1466.44 M1467.98 1451.78 L1467.98 1456.04 Q1466.22 1455.21 1464.41 1454.77 Q1462.63 1454.33 1460.87 1454.33 Q1456.24 1454.33 1453.79 1457.45 Q1451.36 1460.58 1451.01 1466.9 Q1452.38 1464.89 1454.44 1463.82 Q1456.5 1462.73 1458.97 1462.73 Q1464.18 1462.73 1467.19 1465.9 Q1470.22 1469.05 1470.22 1474.49 Q1470.22 1479.82 1467.07 1483.03 Q1463.93 1486.25 1458.7 1486.25 Q1452.7 1486.25 1449.53 1481.67 Q1446.36 1477.06 1446.36 1468.33 Q1446.36 1460.14 1450.25 1455.28 Q1454.14 1450.39 1460.69 1450.39 Q1462.45 1450.39 1464.23 1450.74 Q1466.03 1451.09 1467.98 1451.78 Z" fill="#000000" fill-rule="nonzero" fill-opacity="1" /><path clip-path="url(#clip280)" d="M1478.28 1479.7 L1483.16 1479.7 L1483.16 1485.58 L1478.28 1485.58 L1478.28 1479.7 Z" fill="#000000" fill-rule="nonzero" fill-opacity="1" /><path clip-path="url(#clip280)" d="M1503.35 1454.1 Q1499.74 1454.1 1497.91 1457.66 Q1496.1 1461.2 1496.1 1468.33 Q1496.1 1475.44 1497.91 1479.01 Q1499.74 1482.55 1503.35 1482.55 Q1506.98 1482.55 1508.79 1479.01 Q1510.62 1475.44 1510.62 1468.33 Q1510.62 1461.2 1508.79 1457.66 Q1506.98 1454.1 1503.35 1454.1 M1503.35 1450.39 Q1509.16 1450.39 1512.21 1455 Q1515.29 1459.58 1515.29 1468.33 Q1515.29 1477.06 1512.21 1481.67 Q1509.16 1486.25 1503.35 1486.25 Q1497.54 1486.25 1494.46 1481.67 Q1491.4 1477.06 1491.4 1468.33 Q1491.4 1459.58 1494.46 1455 Q1497.54 1450.39 1503.35 1450.39 Z" fill="#000000" fill-rule="nonzero" fill-opacity="1" /><path clip-path="url(#clip280)" d="M1905.5 1466.44 Q1902.35 1466.44 1900.5 1468.59 Q1898.67 1470.74 1898.67 1474.49 Q1898.67 1478.22 1900.5 1480.39 Q1902.35 1482.55 1905.5 1482.55 Q1908.65 1482.55 1910.47 1480.39 Q1912.33 1478.22 1912.33 1474.49 Q1912.33 1470.74 1910.47 1468.59 Q1908.65 1466.44 1905.5 1466.44 M1914.78 1451.78 L1914.78 1456.04 Q1913.02 1455.21 1911.22 1454.77 Q1909.43 1454.33 1907.67 1454.33 Q1903.04 1454.33 1900.59 1457.45 Q1898.16 1460.58 1897.81 1466.9 Q1899.18 1464.89 1901.24 1463.82 Q1903.3 1462.73 1905.78 1462.73 Q1910.98 1462.73 1913.99 1465.9 Q1917.03 1469.05 1917.03 1474.49 Q1917.03 1479.82 1913.88 1483.03 Q1910.73 1486.25 1905.5 1486.25 Q1899.5 1486.25 1896.33 1481.67 Q1893.16 1477.06 1893.16 1468.33 Q1893.16 1460.14 1897.05 1455.28 Q1900.94 1450.39 1907.49 1450.39 Q1909.25 1450.39 1911.03 1450.74 Q1912.84 1451.09 1914.78 1451.78 Z" fill="#000000" fill-rule="nonzero" fill-opacity="1" /><path clip-path="url(#clip280)" d="M1925.08 1479.7 L1929.97 1479.7 L1929.97 1485.58 L1925.08 1485.58 L1925.08 1479.7 Z" fill="#000000" fill-rule="nonzero" fill-opacity="1" /><path clip-path="url(#clip280)" d="M1940.2 1451.02 L1958.55 1451.02 L1958.55 1454.96 L1944.48 1454.96 L1944.48 1463.43 Q1945.5 1463.08 1946.52 1462.92 Q1947.53 1462.73 1948.55 1462.73 Q1954.34 1462.73 1957.72 1465.9 Q1961.1 1469.08 1961.1 1474.49 Q1961.1 1480.07 1957.63 1483.17 Q1954.16 1486.25 1947.84 1486.25 Q1945.66 1486.25 1943.39 1485.88 Q1941.15 1485.51 1938.74 1484.77 L1938.74 1480.07 Q1940.82 1481.2 1943.04 1481.76 Q1945.27 1482.32 1947.74 1482.32 Q1951.75 1482.32 1954.09 1480.21 Q1956.42 1478.1 1956.42 1474.49 Q1956.42 1470.88 1954.09 1468.77 Q1951.75 1466.67 1947.74 1466.67 Q1945.87 1466.67 1943.99 1467.08 Q1942.14 1467.5 1940.2 1468.38 L1940.2 1451.02 Z" fill="#000000" fill-rule="nonzero" fill-opacity="1" /><path clip-path="url(#clip280)" d="M1193.08 1510.81 L1183.58 1548.94 Q1183.2 1550.46 1183.2 1552.1 Q1183.2 1555.13 1185.19 1555.13 Q1186.13 1555.13 1186.9 1554.52 Q1187.67 1553.87 1188.25 1552.61 Q1188.87 1551.33 1189.25 1550.1 Q1189.67 1548.88 1190.19 1546.98 Q1190.35 1546.24 1190.51 1546.01 Q1190.67 1545.79 1191.12 1545.79 Q1191.92 1545.79 1191.92 1546.43 Q1191.12 1550.39 1189.93 1552.9 Q1188.19 1556.61 1184.97 1556.61 Q1182.55 1556.61 1180.75 1554.93 Q1178.98 1553.23 1178.98 1550.52 Q1178.98 1549.49 1179.3 1548.27 L1187.61 1515.29 L1187.83 1514 Q1187.83 1513.65 1187.71 1513.45 Q1187.58 1513.26 1186.8 1513.07 Q1186.06 1512.87 1184.58 1512.87 Q1183.97 1512.87 1183.68 1512.84 Q1183.42 1512.81 1183.16 1512.65 Q1182.94 1512.49 1182.94 1512.13 Q1182.94 1511.55 1183.16 1511.23 Q1183.42 1510.91 1183.62 1510.84 Q1183.81 1510.78 1184.2 1510.75 Q1184.74 1510.72 1186.58 1510.55 Q1188.41 1510.36 1189.99 1510.23 Q1191.57 1510.1 1192.25 1510.1 Q1192.63 1510.1 1192.83 1510.3 Q1193.05 1510.46 1193.08 1510.65 L1193.08 1510.81 Z" fill="#000000" fill-rule="nonzero" fill-opacity="1" /><path clip-path="url(#clip280)" d="M1228.79 1537.86 Q1228.79 1541.38 1227.25 1544.85 Q1225.7 1548.3 1223.22 1550.88 Q1220.77 1553.42 1217.55 1555.03 Q1214.33 1556.61 1211.11 1556.61 Q1206.51 1556.61 1203.51 1553.48 Q1200.55 1550.33 1200.55 1545.43 Q1200.55 1540.86 1203.09 1536.51 Q1205.67 1532.13 1209.79 1529.43 Q1213.91 1526.72 1218.23 1526.72 Q1222.77 1526.72 1225.77 1529.78 Q1228.79 1532.84 1228.79 1537.86 M1223.96 1535.29 Q1223.96 1532.16 1222.45 1530.17 Q1220.93 1528.17 1218.16 1528.17 Q1217.36 1528.17 1216.43 1528.43 Q1215.49 1528.65 1214.27 1529.27 Q1213.08 1529.88 1211.72 1531.17 Q1210.4 1532.42 1209.24 1534.23 Q1207.73 1536.61 1206.57 1540.99 Q1205.44 1545.34 1205.44 1547.95 Q1205.44 1551.55 1207.12 1553.36 Q1208.79 1555.13 1211.18 1555.13 Q1213.49 1555.13 1215.94 1553.52 Q1218.42 1551.87 1220.13 1549.07 Q1221.84 1546.17 1222.9 1541.92 Q1223.96 1537.64 1223.96 1535.29 Z" fill="#000000" fill-rule="nonzero" fill-opacity="1" /><path clip-path="url(#clip280)" d="M1260.12 1529.81 Q1260.12 1529.85 1259.93 1531 L1252.58 1560.28 Q1252.2 1561.83 1251.1 1563.37 Q1250.04 1564.95 1248.33 1566.3 Q1246.66 1567.69 1244.08 1568.52 Q1241.54 1569.39 1238.61 1569.39 Q1233.94 1569.39 1231.88 1568.4 Q1229.85 1567.43 1229.85 1565.37 Q1229.85 1563.56 1230.97 1562.53 Q1232.1 1561.54 1233.39 1561.54 Q1234.61 1561.54 1235.26 1562.24 Q1235.9 1562.95 1235.9 1563.85 Q1235.9 1564.85 1235.23 1565.85 Q1234.55 1566.88 1233.2 1567.27 Q1235.35 1567.94 1238.48 1567.94 Q1245.08 1567.94 1247.91 1560.96 Q1247.98 1560.86 1247.98 1560.83 L1250.17 1552.1 L1250.07 1552.04 Q1249.52 1552.68 1248.66 1553.42 Q1247.82 1554.13 1246.01 1555 Q1244.21 1555.87 1242.44 1555.87 Q1238.74 1555.87 1236.19 1553.03 Q1233.68 1550.17 1233.68 1545.43 Q1233.68 1541.99 1235.06 1538.54 Q1236.48 1535.06 1238.67 1532.52 Q1240.89 1529.94 1243.73 1528.33 Q1246.59 1526.72 1249.36 1526.72 Q1251.3 1526.72 1252.94 1527.88 Q1254.58 1529.01 1255.48 1530.88 Q1255.64 1529.33 1256.51 1528.69 Q1257.42 1528.04 1258.19 1528.04 Q1259.06 1528.04 1259.57 1528.53 Q1260.12 1528.98 1260.12 1529.81 M1254.71 1533.84 Q1254.71 1533.65 1254.58 1533.13 Q1254.45 1532.58 1254.07 1531.71 Q1253.71 1530.84 1253.16 1530.07 Q1252.62 1529.3 1251.62 1528.75 Q1250.65 1528.17 1249.43 1528.17 Q1247.43 1528.17 1245.43 1529.85 Q1243.44 1531.49 1242.05 1534.03 Q1240.76 1536.48 1239.54 1541.21 Q1238.35 1545.95 1238.35 1548.36 Q1238.35 1550.75 1239.38 1552.58 Q1240.41 1554.42 1242.63 1554.42 Q1245.21 1554.42 1247.98 1552.04 Q1250.85 1549.56 1251.33 1547.43 L1254.52 1534.84 Q1254.71 1534.06 1254.71 1533.84 Z" fill="#000000" fill-rule="nonzero" fill-opacity="1" /><path clip-path="url(#clip280)" d="M1269.16 1539.38 Q1269.16 1528.24 1273.32 1519.25 Q1275.09 1515.48 1277.57 1512.33 Q1280.05 1509.17 1281.69 1507.78 Q1283.33 1506.4 1283.79 1506.4 Q1284.43 1506.4 1284.46 1507.04 Q1284.46 1507.37 1283.59 1508.17 Q1272.96 1518.99 1273 1539.38 Q1273 1559.83 1283.33 1570.23 Q1284.46 1571.36 1284.46 1571.71 Q1284.46 1572.36 1283.79 1572.36 Q1283.33 1572.36 1281.76 1571.04 Q1280.18 1569.72 1277.73 1566.69 Q1275.28 1563.66 1273.51 1559.96 Q1269.16 1550.97 1269.16 1539.38 Z" fill="#000000" fill-rule="nonzero" fill-opacity="1" /><path clip-path="url(#clip280)" d="M1317.37 1516.83 Q1317.37 1518.86 1311.5 1518.86 Q1310.51 1518.86 1309.96 1518.83 Q1309.41 1518.77 1308.61 1518.44 Q1307.83 1518.09 1307.29 1517.41 Q1303.81 1519.12 1301.87 1522.34 Q1299.97 1525.56 1299.97 1528.62 Q1299.97 1531.81 1301.94 1533.77 Q1304.39 1532.97 1307.48 1532.97 Q1309.96 1532.97 1311.41 1533.32 Q1312.89 1533.68 1312.89 1534.77 Q1312.89 1535.26 1312.6 1535.64 Q1312.31 1536 1311.7 1536.22 Q1311.12 1536.42 1310.57 1536.54 Q1310.06 1536.67 1309.22 1536.74 Q1308.38 1536.77 1307.93 1536.8 Q1307.48 1536.8 1306.77 1536.8 Q1303.29 1536.8 1300.94 1535.96 Q1297.17 1537.86 1295.01 1541.31 Q1292.86 1544.72 1292.86 1547.17 Q1292.86 1551.04 1297.78 1553.03 L1301.75 1554.61 Q1302.65 1554.9 1305.77 1556.13 L1309.8 1557.64 Q1312.95 1559.02 1312.95 1562.34 Q1312.95 1564.92 1310.96 1567.14 Q1308.99 1569.39 1306.09 1569.39 Q1304.39 1569.39 1302.62 1568.75 Q1300.88 1568.14 1299.88 1567.4 Q1298.91 1566.66 1298.91 1566.24 Q1298.91 1565.5 1299.56 1565.5 Q1299.81 1565.5 1300.3 1565.82 Q1303.36 1567.94 1306.09 1567.94 Q1307.51 1567.94 1308.41 1566.82 Q1309.35 1565.69 1309.35 1564.43 Q1309.35 1563.76 1309.15 1563.28 Q1308.99 1562.79 1308.51 1562.44 Q1308.06 1562.12 1307.83 1561.99 Q1307.64 1561.89 1307.03 1561.6 Q1305.74 1561.12 1303.52 1560.25 Q1301.3 1559.41 1299.04 1558.51 Q1295.24 1557.09 1294.08 1556.45 Q1292.95 1555.84 1291.38 1554.23 L1291.25 1554.06 Q1291.09 1553.87 1290.92 1553.65 Q1290.8 1553.42 1290.57 1553.1 Q1290.38 1552.74 1290.18 1552.33 Q1289.99 1551.91 1289.83 1551.42 Q1289.67 1550.91 1289.57 1550.3 Q1289.48 1549.65 1289.48 1549.01 Q1289.48 1547.95 1289.83 1546.56 Q1290.22 1545.14 1291.05 1543.28 Q1291.92 1541.41 1293.76 1539.38 Q1295.59 1537.35 1298.11 1535.67 L1298.98 1535.03 Q1296.79 1533.77 1295.72 1531.91 Q1294.69 1530.04 1294.69 1528.04 Q1294.69 1524.15 1297.85 1520.67 Q1301.04 1517.16 1306.22 1515.71 Q1305.77 1513.9 1305.77 1513.13 Q1305.77 1512.84 1305.8 1512.52 Q1305.84 1512.16 1305.9 1511.49 Q1306 1510.78 1306.25 1510.36 Q1306.54 1509.91 1306.96 1509.91 Q1307.74 1509.91 1307.74 1510.75 Q1307.41 1512.26 1307.41 1513.2 Q1307.41 1514.42 1307.74 1515.39 Q1309.6 1515.03 1311.89 1515.03 Q1314.44 1515.03 1315.88 1515.39 Q1317.37 1515.71 1317.37 1516.83 M1315.66 1516.9 Q1314.11 1516.48 1311.96 1516.48 Q1309.96 1516.48 1308.8 1516.83 Q1309.31 1517.22 1309.86 1517.32 Q1310.44 1517.41 1311.57 1517.41 Q1314.27 1517.41 1315.66 1516.9 M1311.18 1534.84 Q1309.64 1534.42 1307.41 1534.42 Q1305.29 1534.42 1303.65 1534.84 Q1304.48 1535.19 1305.06 1535.29 Q1305.68 1535.35 1306.96 1535.35 Q1310.15 1535.35 1311.18 1534.84 Z" fill="#000000" fill-rule="nonzero" fill-opacity="1" /><path clip-path="url(#clip280)" d="M1322.58 1571.71 Q1322.58 1571.39 1323.41 1570.59 Q1334.04 1559.76 1334.04 1539.38 Q1334.04 1518.93 1323.83 1508.59 Q1322.58 1507.4 1322.58 1507.04 Q1322.58 1506.4 1323.22 1506.4 Q1323.67 1506.4 1325.25 1507.72 Q1326.86 1509.04 1329.28 1512.07 Q1331.72 1515.1 1333.53 1518.8 Q1337.87 1527.78 1337.87 1539.38 Q1337.87 1550.52 1333.72 1559.51 Q1331.95 1563.28 1329.47 1566.43 Q1326.99 1569.59 1325.35 1570.97 Q1323.7 1572.36 1323.22 1572.36 Q1322.58 1572.36 1322.58 1571.71 Z" fill="#000000" fill-rule="nonzero" fill-opacity="1" /><polyline clip-path="url(#clip280)" style="stroke:#000000; stroke-linecap:round; stroke-linejoin:round; stroke-width:4; stroke-opacity:1; fill:none" points="174.126,1423.18 174.126,47.2441 "/>
<polyline clip-path="url(#clip280)" style="stroke:#000000; stroke-linecap:round; stroke-linejoin:round; stroke-width:4; stroke-opacity:1; fill:none" points="174.126,1291.25 193.023,1291.25 "/>
<polyline clip-path="url(#clip280)" style="stroke:#000000; stroke-linecap:round; stroke-linejoin:round; stroke-width:4; stroke-opacity:1; fill:none" points="174.126,969.73 193.023,969.73 "/>
<polyline clip-path="url(#clip280)" style="stroke:#000000; stroke-linecap:round; stroke-linejoin:round; stroke-width:4; stroke-opacity:1; fill:none" points="174.126,648.205 193.023,648.205 "/>
<polyline clip-path="url(#clip280)" style="stroke:#000000; stroke-linecap:round; stroke-linejoin:round; stroke-width:4; stroke-opacity:1; fill:none" points="174.126,326.681 193.023,326.681 "/>
<path clip-path="url(#clip280)" d="M126.598 1289.39 Q123.45 1289.39 121.598 1291.54 Q119.769 1293.7 119.769 1297.45 Q119.769 1301.17 121.598 1303.35 Q123.45 1305.5 126.598 1305.5 Q129.746 1305.5 131.575 1303.35 Q133.427 1301.17 133.427 1297.45 Q133.427 1293.7 131.575 1291.54 Q129.746 1289.39 126.598 1289.39 M135.88 1274.74 L135.88 1279 Q134.121 1278.16 132.316 1277.72 Q130.533 1277.28 128.774 1277.28 Q124.144 1277.28 121.691 1280.41 Q119.26 1283.53 118.913 1289.85 Q120.279 1287.84 122.339 1286.77 Q124.399 1285.69 126.876 1285.69 Q132.084 1285.69 135.093 1288.86 Q138.126 1292.01 138.126 1297.45 Q138.126 1302.77 134.978 1305.99 Q131.83 1309.21 126.598 1309.21 Q120.603 1309.21 117.431 1304.62 Q114.26 1300.02 114.26 1291.29 Q114.26 1283.09 118.149 1278.23 Q122.038 1273.35 128.589 1273.35 Q130.348 1273.35 132.13 1273.7 Q133.936 1274.04 135.88 1274.74 Z" fill="#000000" fill-rule="nonzero" fill-opacity="1" /><path clip-path="url(#clip280)" d="M115.904 952.45 L138.126 952.45 L138.126 954.44 L125.58 987.01 L120.695 987.01 L132.501 956.385 L115.904 956.385 L115.904 952.45 Z" fill="#000000" fill-rule="nonzero" fill-opacity="1" /><path clip-path="url(#clip280)" d="M126.274 649.073 Q122.941 649.073 121.019 650.856 Q119.121 652.638 119.121 655.763 Q119.121 658.888 121.019 660.671 Q122.941 662.453 126.274 662.453 Q129.607 662.453 131.529 660.671 Q133.45 658.865 133.45 655.763 Q133.45 652.638 131.529 650.856 Q129.63 649.073 126.274 649.073 M121.598 647.083 Q118.589 646.342 116.899 644.282 Q115.232 642.222 115.232 639.259 Q115.232 635.115 118.172 632.708 Q121.135 630.3 126.274 630.3 Q131.436 630.3 134.376 632.708 Q137.316 635.115 137.316 639.259 Q137.316 642.222 135.626 644.282 Q133.959 646.342 130.973 647.083 Q134.353 647.87 136.228 650.161 Q138.126 652.453 138.126 655.763 Q138.126 660.786 135.047 663.472 Q131.992 666.157 126.274 666.157 Q120.556 666.157 117.478 663.472 Q114.422 660.786 114.422 655.763 Q114.422 652.453 116.32 650.161 Q118.218 647.87 121.598 647.083 M119.885 639.699 Q119.885 642.384 121.552 643.888 Q123.242 645.393 126.274 645.393 Q129.283 645.393 130.973 643.888 Q132.686 642.384 132.686 639.699 Q132.686 637.013 130.973 635.509 Q129.283 634.004 126.274 634.004 Q123.242 634.004 121.552 635.509 Q119.885 637.013 119.885 639.699 Z" fill="#000000" fill-rule="nonzero" fill-opacity="1" /><path clip-path="url(#clip280)" d="M116.506 343.244 L116.506 338.984 Q118.265 339.818 120.07 340.257 Q121.876 340.697 123.612 340.697 Q128.242 340.697 130.672 337.595 Q133.126 334.47 133.473 328.128 Q132.13 330.119 130.07 331.183 Q128.01 332.248 125.51 332.248 Q120.325 332.248 117.293 329.123 Q114.283 325.975 114.283 320.535 Q114.283 315.211 117.431 311.994 Q120.58 308.776 125.811 308.776 Q131.806 308.776 134.954 313.383 Q138.126 317.966 138.126 326.716 Q138.126 334.887 134.237 339.771 Q130.371 344.632 123.82 344.632 Q122.061 344.632 120.255 344.285 Q118.45 343.938 116.506 343.244 M125.811 328.591 Q128.959 328.591 130.788 326.438 Q132.64 324.285 132.64 320.535 Q132.64 316.809 130.788 314.656 Q128.959 312.48 125.811 312.48 Q122.663 312.48 120.811 314.656 Q118.982 316.809 118.982 320.535 Q118.982 324.285 120.811 326.438 Q122.663 328.591 125.811 328.591 Z" fill="#000000" fill-rule="nonzero" fill-opacity="1" /><path clip-path="url(#clip280)" d="M21.0281 921.391 L59.1598 930.891 Q60.6735 931.278 62.316 931.278 Q65.3434 931.278 65.3434 929.281 Q65.3434 928.347 64.7314 927.574 Q64.0873 926.801 62.8313 926.221 Q61.5431 925.61 60.3192 925.223 Q59.0954 924.804 57.1953 924.289 Q56.4545 924.128 56.2291 923.967 Q56.0037 923.806 56.0037 923.355 Q56.0037 922.55 56.6478 922.55 Q60.6091 923.355 63.1212 924.547 Q66.8248 926.286 66.8248 929.506 Q66.8248 931.922 65.1501 933.725 Q63.4432 935.497 60.7379 935.497 Q59.7073 935.497 58.4835 935.175 L25.5047 926.866 L24.2165 926.64 Q23.8622 926.64 23.669 926.769 Q23.4757 926.898 23.2825 927.671 Q23.0893 928.411 23.0893 929.893 Q23.0893 930.505 23.0571 930.795 Q23.0249 931.052 22.8638 931.31 Q22.7028 931.535 22.3485 931.535 Q21.7688 931.535 21.4468 931.31 Q21.1247 931.052 21.0603 930.859 Q20.9959 930.666 20.9637 930.279 Q20.9315 929.732 20.7704 927.896 Q20.5772 926.06 20.4484 924.482 Q20.3196 922.904 20.3196 922.228 Q20.3196 921.841 20.5128 921.648 Q20.6738 921.423 20.8671 921.391 L21.0281 921.391 Z" fill="#000000" fill-rule="nonzero" fill-opacity="1" /><path clip-path="url(#clip280)" d="M48.081 885.682 Q51.5915 885.682 55.0697 887.228 Q58.5157 888.774 61.0922 891.254 Q63.6364 893.701 65.2467 896.922 Q66.8248 900.143 66.8248 903.363 Q66.8248 907.969 63.7009 910.964 Q60.5447 913.927 55.6494 913.927 Q51.0762 913.927 46.7284 911.382 Q42.3484 908.806 39.6431 904.684 Q36.9378 900.561 36.9378 896.246 Q36.9378 891.705 39.9973 888.709 Q43.0569 885.682 48.081 885.682 M45.5045 890.513 Q42.3806 890.513 40.3838 892.027 Q38.3871 893.54 38.3871 896.31 Q38.3871 897.115 38.6447 898.049 Q38.8701 898.983 39.4821 900.207 Q40.094 901.399 41.3822 902.751 Q42.6382 904.072 44.4418 905.231 Q46.825 906.745 51.205 907.904 Q55.5528 909.031 58.1615 909.031 Q61.7685 909.031 63.572 907.357 Q65.3434 905.682 65.3434 903.299 Q65.3434 900.98 63.7331 898.532 Q62.0906 896.052 59.2887 894.345 Q56.3901 892.639 52.139 891.576 Q47.8556 890.513 45.5045 890.513 Z" fill="#000000" fill-rule="nonzero" fill-opacity="1" /><path clip-path="url(#clip280)" d="M40.0296 854.354 Q40.0618 854.354 41.2212 854.547 L70.4963 861.89 Q72.0422 862.277 73.5881 863.372 Q75.1661 864.434 76.5188 866.141 Q77.9036 867.816 78.741 870.392 Q79.6106 872.937 79.6106 875.867 Q79.6106 880.537 78.6122 882.598 Q77.646 884.627 75.5848 884.627 Q73.7813 884.627 72.7507 883.5 Q71.7523 882.373 71.7523 881.085 Q71.7523 879.861 72.4609 879.217 Q73.1694 878.573 74.0711 878.573 Q75.0695 878.573 76.0679 879.249 Q77.0985 879.925 77.485 881.278 Q78.1613 879.12 78.1613 875.996 Q78.1613 869.394 71.1726 866.56 Q71.076 866.496 71.0438 866.496 L62.316 864.306 L62.2516 864.402 Q62.8957 864.95 63.6364 865.819 Q64.345 866.657 65.2145 868.46 Q66.0841 870.264 66.0841 872.035 Q66.0841 875.739 63.25 878.283 Q60.3837 880.795 55.6494 880.795 Q52.2034 880.795 48.7573 879.41 Q45.2791 877.993 42.7348 875.803 Q40.1584 873.581 38.5481 870.747 Q36.9378 867.88 36.9378 865.111 Q36.9378 863.178 38.0972 861.536 Q39.2244 859.893 41.0923 858.992 Q39.5465 858.831 38.9023 857.961 Q38.2582 857.059 38.2582 856.286 Q38.2582 855.417 38.7413 854.901 Q39.1922 854.354 40.0296 854.354 M44.0553 859.765 Q43.8621 859.765 43.3468 859.893 Q42.7993 860.022 41.9297 860.409 Q41.0601 860.763 40.2872 861.31 Q39.5143 861.858 38.9668 862.856 Q38.3871 863.822 38.3871 865.046 Q38.3871 867.043 40.0618 869.04 Q41.7043 871.037 44.2485 872.421 Q46.6962 873.71 51.4304 874.933 Q56.1647 876.125 58.5801 876.125 Q60.9634 876.125 62.7991 875.095 Q64.6348 874.064 64.6348 871.842 Q64.6348 869.265 62.2516 866.496 Q59.7717 863.629 57.6462 863.146 L45.0537 859.958 Q44.2807 859.765 44.0553 859.765 Z" fill="#000000" fill-rule="nonzero" fill-opacity="1" /><path clip-path="url(#clip280)" d="M49.5947 845.311 Q38.4515 845.311 29.466 841.156 Q25.6979 839.385 22.5418 836.905 Q19.3856 834.425 18.0007 832.782 Q16.6159 831.14 16.6159 830.689 Q16.6159 830.045 17.26 830.013 Q17.5821 830.013 18.3872 830.882 Q29.2084 841.51 49.5947 841.478 Q70.0454 841.478 80.4479 831.14 Q81.5751 830.013 81.9294 830.013 Q82.5735 830.013 82.5735 830.689 Q82.5735 831.14 81.2531 832.718 Q79.9326 834.296 76.9053 836.744 Q73.8779 839.191 70.1742 840.963 Q61.1888 845.311 49.5947 845.311 Z" fill="#000000" fill-rule="nonzero" fill-opacity="1" /><path clip-path="url(#clip280)" d="M56.6478 770.958 Q56.9054 770.958 57.9038 771.248 Q58.9022 771.537 60.4481 772.246 Q61.994 772.922 63.411 773.888 Q64.7959 774.822 65.8264 776.368 Q66.8248 777.882 66.8248 779.621 Q66.8248 781.94 65.2789 783.486 Q63.7331 785.032 61.4142 785.032 Q60.1582 785.032 57.775 784.162 Q46.8894 780.072 42.9925 780.072 Q38.3871 780.072 38.3871 783.647 Q38.3871 785.676 39.2244 787.511 Q40.0618 789.347 41.2212 790.539 Q42.3806 791.73 43.701 792.664 Q45.0215 793.598 45.891 794.017 Q46.7606 794.404 47.147 794.5 L63.0567 798.461 Q64.4094 798.784 65.0535 799.009 Q65.6976 799.234 66.2451 799.846 Q66.8248 800.458 66.8248 801.424 Q66.8248 802.23 66.3417 802.809 Q65.8587 803.357 65.0213 803.357 Q64.8925 803.357 64.2162 803.196 Q63.5398 803.035 62.6059 802.809 Q61.6719 802.584 61.1244 802.487 Q56.7444 801.328 56.1325 801.167 L48.4675 799.331 Q44.6672 798.333 42.9925 798.333 Q38.3871 798.333 38.3871 801.907 Q38.3871 803.679 39.0634 805.354 Q39.7075 806.996 40.6093 808.123 Q41.511 809.25 42.7671 810.281 Q43.9909 811.279 44.8282 811.795 Q45.6334 812.278 46.4385 812.664 L49.7235 813.502 Q50.6253 813.695 54.1357 814.629 L60.0938 816.078 Q64.5382 817.109 64.9569 817.334 Q65.8587 817.656 66.3417 818.365 Q66.8248 819.073 66.8248 819.782 Q66.8248 820.587 66.3417 821.134 Q65.8587 821.682 65.0213 821.682 Q64.8925 821.682 64.4094 821.585 Q63.9263 821.489 63.25 821.328 Q62.5737 821.167 62.1872 821.102 L46.9538 817.27 Q44.1841 816.561 43.3146 816.4 Q42.4128 816.207 41.4144 816.207 Q38.3871 816.207 38.3871 818.268 Q38.3871 819.943 40.3838 821.038 Q42.3806 822.133 46.2453 823.067 Q47.3081 823.357 47.5335 823.55 Q47.759 823.711 47.759 824.194 Q47.7268 824.999 47.0826 824.999 Q46.9216 824.999 45.891 824.741 Q44.8604 824.484 43.3146 824.001 Q41.7365 823.485 40.7059 822.938 Q40.0296 822.616 39.5787 822.326 Q39.1278 822.036 38.4193 821.456 Q37.7107 820.877 37.3243 820.007 Q36.9378 819.138 36.9378 818.075 Q36.9378 815.724 38.4515 813.985 Q39.9651 812.213 42.6704 811.988 Q36.9378 807.705 36.9378 801.714 Q36.9378 798.333 38.6447 796.304 Q40.2872 794.404 43.3146 794.178 Q36.9378 789.734 36.9378 783.421 Q36.9378 779.782 38.8379 777.818 Q40.7059 775.853 43.9909 775.853 Q45.6978 775.853 48.9506 776.723 Q52.1712 777.592 53.7815 778.172 Q55.3917 778.751 58.4835 779.879 Q61.4465 781.07 63.1856 781.07 Q64.3128 781.07 64.8281 780.684 Q65.3434 780.297 65.3434 779.46 Q65.3434 778.172 64.6026 777.045 Q63.8297 775.917 62.5737 775.112 Q61.2854 774.275 59.9972 773.727 Q58.6767 773.18 57.1953 772.761 Q56.3901 772.504 56.1969 772.375 Q56.0037 772.214 56.0037 771.763 Q56.0037 770.958 56.6478 770.958 Z" fill="#000000" fill-rule="nonzero" fill-opacity="1" /><path clip-path="url(#clip280)" d="M56.6478 736.645 Q60.8023 737.514 63.1856 738.641 Q66.8248 740.445 66.8248 743.504 Q66.8248 745.823 65.4078 747.466 Q63.9907 749.108 61.8651 749.495 Q66.8248 753.714 66.8248 758.094 Q66.8248 761.958 63.8941 764.406 Q60.9312 766.854 56.2613 766.854 Q51.5593 766.854 47.0504 764.535 Q42.5416 762.184 39.7397 758.48 Q36.9378 754.776 36.9378 750.976 Q36.9378 746.95 41.1568 744.889 Q39.9973 744.728 39.1278 743.987 Q38.2582 743.247 38.2582 742.119 Q38.2582 741.25 38.7413 740.735 Q39.1922 740.219 40.0296 740.219 Q40.4482 740.219 42.284 740.67 L51.4948 743.053 L57.4529 744.503 Q59.6429 745.05 60.4481 745.211 Q61.2532 745.34 62.316 745.34 Q65.3434 745.34 65.3434 743.376 Q65.3434 742.409 64.7314 741.636 Q64.1195 740.863 62.8313 740.252 Q61.5431 739.64 60.3515 739.253 Q59.1276 738.867 57.1953 738.351 Q56.4223 738.19 56.2291 738.062 Q56.0037 737.901 56.0037 737.45 Q56.0037 736.645 56.6478 736.645 M44.1841 745.694 Q43.8943 745.694 43.0891 745.92 Q42.284 746.145 41.1568 746.661 Q40.0296 747.176 39.2244 748.303 Q38.3871 749.398 38.3871 750.879 Q38.3871 752.876 40.094 754.97 Q41.8009 757.031 44.6994 758.544 Q47.0182 759.704 51.8813 760.96 Q56.7444 762.184 59.1598 762.184 Q60.6413 762.184 61.9617 761.862 Q63.25 761.507 64.3128 760.509 Q65.3434 759.511 65.3434 757.965 Q65.3434 754.197 60.6735 750.493 Q59.8684 749.784 59.5463 749.623 Q59.192 749.43 58.2259 749.173 L45.3113 745.888 Q44.3451 745.694 44.1841 745.694 Z" fill="#000000" fill-rule="nonzero" fill-opacity="1" /><path clip-path="url(#clip280)" d="M41.2856 701.042 Q43.0891 701.042 44.1197 702.169 Q45.1181 703.296 45.1181 704.584 Q45.1181 705.808 44.4096 706.452 Q43.701 707.096 42.7993 707.096 Q41.5754 707.096 40.5126 706.194 Q39.4498 705.293 39.2244 703.94 Q38.3871 705.261 38.3871 707.225 Q38.3871 708.513 39.0634 709.641 Q39.7397 710.736 40.6093 711.412 Q41.4788 712.056 42.7348 712.636 Q43.9587 713.183 44.6994 713.409 Q45.4079 713.602 46.1809 713.763 L55.1985 716.017 Q59.4819 717.112 60.9956 717.112 Q62.8635 717.112 64.1195 716.211 Q65.3434 715.309 65.3434 713.505 Q65.3434 712.797 65.1501 711.992 Q64.9247 711.186 64.345 710.156 Q63.7331 709.093 62.8313 708.159 Q61.8973 707.193 60.3192 706.259 Q58.7412 705.325 56.7122 704.713 Q56.0037 704.52 56.0037 703.876 Q56.0037 703.071 56.6478 703.071 Q57.1953 703.071 58.3547 703.521 Q59.4819 703.94 60.9634 704.874 Q62.4126 705.776 63.7331 706.967 Q65.0213 708.159 65.9231 709.93 Q66.8248 711.702 66.8248 713.634 Q66.8248 716.404 65.3434 718.239 Q63.8619 720.075 61.8007 720.752 Q62.0906 720.913 62.477 721.138 Q62.8635 721.363 63.7331 722.04 Q64.5704 722.684 65.2145 723.425 Q65.8264 724.165 66.3095 725.325 Q66.8248 726.452 66.8248 727.676 Q66.8248 729.222 66.3739 730.607 Q65.9231 731.959 64.8925 732.925 Q63.8619 733.892 62.4448 733.892 Q60.8667 733.892 59.7717 732.829 Q58.6445 731.734 58.6445 730.252 Q58.6445 729.318 59.192 728.578 Q59.7395 727.805 60.9312 727.805 Q62.2516 727.805 63.25 728.706 Q64.2484 729.608 64.506 730.896 Q65.3434 729.576 65.3434 727.611 Q65.3434 725.486 63.4754 723.811 Q61.6075 722.136 58.4835 721.331 Q50.9795 719.334 47.6301 718.562 Q44.2485 717.789 42.7993 717.789 Q41.4466 717.789 40.5126 718.143 Q39.5787 718.497 39.16 719.109 Q38.7091 719.689 38.5481 720.236 Q38.3871 720.752 38.3871 721.331 Q38.3871 722.297 38.7735 723.392 Q39.16 724.455 40.0618 725.743 Q40.9313 726.999 42.7348 728.191 Q44.5384 729.383 47.0182 730.188 Q47.759 730.349 47.759 731.057 Q47.7268 731.83 47.0826 731.83 Q46.5351 731.83 45.4079 731.412 Q44.2485 730.961 42.7993 730.059 Q41.35 729.125 40.0618 727.933 Q38.7413 726.71 37.8396 724.938 Q36.9378 723.135 36.9378 721.202 Q36.9378 720.333 37.131 719.496 Q37.2921 718.626 37.7751 717.595 Q38.2582 716.533 39.321 715.599 Q40.3838 714.665 41.9297 714.085 Q41.189 713.698 40.4804 713.183 Q39.7719 712.636 38.9023 711.798 Q38.0006 710.929 37.4853 709.737 Q36.9378 708.513 36.9378 707.161 Q36.9378 705.84 37.2921 704.552 Q37.6141 703.264 38.6769 702.169 Q39.7075 701.042 41.2856 701.042 Z" fill="#000000" fill-rule="nonzero" fill-opacity="1" /><path clip-path="url(#clip280)" d="M49.5947 692.314 Q38.4515 692.314 29.466 688.16 Q25.6979 686.389 22.5418 683.909 Q19.3856 681.429 18.0007 679.786 Q16.6159 678.144 16.6159 677.693 Q16.6159 677.049 17.26 677.017 Q17.5821 677.017 18.3872 677.886 Q29.2084 688.514 49.5947 688.482 Q70.0454 688.482 80.4479 678.144 Q81.5751 677.017 81.9294 677.017 Q82.5735 677.017 82.5735 677.693 Q82.5735 678.144 81.2531 679.722 Q79.9326 681.3 76.9053 683.748 Q73.8779 686.195 70.1742 687.967 Q61.1888 692.314 49.5947 692.314 Z" fill="#000000" fill-rule="nonzero" fill-opacity="1" /><path clip-path="url(#clip280)" d="M81.2531 652.076 Q81.8006 652.076 82.187 652.462 Q82.5735 652.849 82.5735 653.396 Q82.5735 654.33 81.7039 654.652 L50.0456 666.923 Q49.9168 666.987 49.5947 666.987 Q49.2726 666.987 49.1438 666.923 L17.4855 654.652 Q16.6159 654.33 16.6159 653.396 Q16.6159 652.849 17.0024 652.462 Q17.3888 652.076 17.9363 652.076 Q18.2584 652.076 18.3872 652.14 L49.5947 664.282 L80.8022 652.14 Q80.931 652.076 81.2531 652.076 Z" fill="#000000" fill-rule="nonzero" fill-opacity="1" /><path clip-path="url(#clip280)" d="M42.606 617.313 Q44.4096 617.313 45.3757 618.214 Q46.3097 619.116 46.3097 620.34 Q46.3097 621.338 45.73 621.886 Q45.1503 622.401 44.3773 622.401 Q43.2501 622.401 42.3484 621.499 Q41.4466 620.565 41.4144 619.213 Q40.2228 619.664 39.5143 620.855 Q38.7735 622.047 38.5803 623.11 Q38.3871 624.14 38.3871 625.171 Q38.3871 627.2 39.0312 628.746 Q39.6753 630.292 40.6737 631.064 Q41.6398 631.837 42.5738 632.192 Q43.5078 632.546 44.3129 632.546 Q45.0215 632.546 45.6012 632.385 Q46.1487 632.192 46.5673 631.741 Q46.9538 631.29 47.2115 630.968 Q47.4691 630.614 47.6945 629.841 Q47.92 629.068 48.0166 628.746 Q48.081 628.424 48.2743 627.522 Q48.6607 625.654 48.8862 624.817 Q49.0794 623.979 49.6269 622.884 Q50.1744 621.757 51.044 620.92 Q53.0729 618.891 55.8748 618.891 Q56.9054 618.891 58.1615 619.245 Q59.4175 619.567 60.9956 620.501 Q62.5737 621.435 63.8297 622.852 Q65.0857 624.269 65.9553 626.717 Q66.8248 629.132 66.8248 632.159 Q66.8248 636.378 65.0535 638.987 Q63.25 641.596 60.4159 641.596 Q58.3547 641.596 57.2275 640.469 Q56.0681 639.341 56.0681 637.892 Q56.0681 636.797 56.68 636.121 Q57.2597 635.444 58.3547 635.444 Q59.8362 635.444 60.9634 636.636 Q62.0906 637.828 61.8651 639.599 Q65.3434 638.085 65.3434 632.095 Q65.3434 629.841 64.7637 628.102 Q64.1517 626.33 63.3144 625.364 Q62.4448 624.366 61.382 623.722 Q60.3192 623.077 59.5141 622.884 Q58.709 622.659 58.097 622.659 Q57.0342 622.659 56.2291 623.077 Q55.424 623.496 54.9731 624.076 Q54.49 624.623 54.1035 625.686 Q53.6848 626.717 53.5238 627.457 Q53.3628 628.198 53.1051 629.519 Q52.9763 630.131 52.9119 630.517 Q52.8153 630.903 52.5576 631.709 Q52.2678 632.482 51.9779 633.029 Q51.6881 633.544 51.1728 634.221 Q50.6575 634.897 50.0456 635.316 Q49.4337 635.734 48.5319 636.024 Q47.6301 636.314 46.5673 636.314 Q45.6012 636.314 44.4418 636.024 Q43.2823 635.702 41.9297 634.897 Q40.5771 634.06 39.4821 632.868 Q38.3871 631.676 37.6785 629.68 Q36.9378 627.651 36.9378 625.171 Q36.9378 621.564 38.6125 619.438 Q40.255 617.313 42.606 617.313 Z" fill="#000000" fill-rule="nonzero" fill-opacity="1" /><path clip-path="url(#clip280)" d="M49.1438 596.159 Q49.2726 596.094 49.5947 596.094 Q49.9168 596.094 50.0456 596.159 L81.7039 608.429 Q82.5735 608.751 82.5735 609.653 Q82.5735 610.2 82.187 610.587 Q81.8006 610.973 81.2531 610.973 Q80.931 610.973 80.8022 610.909 L49.5947 598.799 L18.3872 610.909 Q18.2584 610.973 17.9363 610.973 Q17.3888 610.973 17.0024 610.587 Q16.6159 610.2 16.6159 609.653 Q16.6159 608.751 17.4855 608.429 L49.1438 596.159 Z" fill="#000000" fill-rule="nonzero" fill-opacity="1" /><path clip-path="url(#clip280)" d="M81.9294 585.582 Q81.6073 585.582 80.8022 584.745 Q69.981 574.117 49.5947 574.117 Q29.144 574.117 18.8059 584.326 Q17.6143 585.582 17.26 585.582 Q16.6159 585.582 16.6159 584.938 Q16.6159 584.487 17.9363 582.909 Q19.2568 581.299 22.2841 578.883 Q25.3115 576.436 29.0151 574.632 Q38.0006 570.284 49.5947 570.284 Q60.7379 570.284 69.7234 574.439 Q73.4914 576.21 76.6476 578.69 Q79.8038 581.17 81.1886 582.812 Q82.5735 584.455 82.5735 584.938 Q82.5735 585.582 81.9294 585.582 Z" fill="#000000" fill-rule="nonzero" fill-opacity="1" /><path clip-path="url(#clip280)" d="M81.9294 560.255 Q81.6073 560.255 80.8022 559.417 Q69.981 548.789 49.5947 548.789 Q29.144 548.789 18.8059 558.999 Q17.6143 560.255 17.26 560.255 Q16.6159 560.255 16.6159 559.61 Q16.6159 559.16 17.9363 557.582 Q19.2568 555.971 22.2841 553.556 Q25.3115 551.108 29.0151 549.305 Q38.0006 544.957 49.5947 544.957 Q60.7379 544.957 69.7234 549.111 Q73.4914 550.883 76.6476 553.363 Q79.8038 555.842 81.1886 557.485 Q82.5735 559.127 82.5735 559.61 Q82.5735 560.255 81.9294 560.255 Z" fill="#000000" fill-rule="nonzero" fill-opacity="1" /><circle clip-path="url(#clip282)" cx="235.785" cy="1384.24" r="14.4" fill="#008000" fill-rule="evenodd" fill-opacity="1" stroke="#000000" stroke-opacity="1" stroke-width="3.2"/>
<circle clip-path="url(#clip282)" cx="854.496" cy="986.225" r="14.4" fill="#008000" fill-rule="evenodd" fill-opacity="1" stroke="#000000" stroke-opacity="1" stroke-width="3.2"/>
<circle clip-path="url(#clip282)" cx="1216.42" cy="735.42" r="14.4" fill="#008000" fill-rule="evenodd" fill-opacity="1" stroke="#000000" stroke-opacity="1" stroke-width="3.2"/>
<circle clip-path="url(#clip282)" cx="1473.21" cy="603.848" r="14.4" fill="#008000" fill-rule="evenodd" fill-opacity="1" stroke="#000000" stroke-opacity="1" stroke-width="3.2"/>
<circle clip-path="url(#clip282)" cx="1672.39" cy="446.767" r="14.4" fill="#008000" fill-rule="evenodd" fill-opacity="1" stroke="#000000" stroke-opacity="1" stroke-width="3.2"/>
<circle clip-path="url(#clip282)" cx="1835.13" cy="389.329" r="14.4" fill="#008000" fill-rule="evenodd" fill-opacity="1" stroke="#000000" stroke-opacity="1" stroke-width="3.2"/>
<circle clip-path="url(#clip282)" cx="1972.72" cy="268.991" r="14.4" fill="#008000" fill-rule="evenodd" fill-opacity="1" stroke="#000000" stroke-opacity="1" stroke-width="3.2"/>
<circle clip-path="url(#clip282)" cx="2091.92" cy="204" r="14.4" fill="#008000" fill-rule="evenodd" fill-opacity="1" stroke="#000000" stroke-opacity="1" stroke-width="3.2"/>
<circle clip-path="url(#clip282)" cx="2197.05" cy="153.91" r="14.4" fill="#008000" fill-rule="evenodd" fill-opacity="1" stroke="#000000" stroke-opacity="1" stroke-width="3.2"/>
<circle clip-path="url(#clip282)" cx="2291.1" cy="107.148" r="14.4" fill="#008000" fill-rule="evenodd" fill-opacity="1" stroke="#000000" stroke-opacity="1" stroke-width="3.2"/>
<polyline clip-path="url(#clip282)" style="stroke:#ff0000; stroke-linecap:round; stroke-linejoin:round; stroke-width:4; stroke-opacity:1; fill:none" points="235.785,1370.41 854.496,983.817 1216.42,757.677 1473.21,597.228 1672.39,472.774 1835.13,371.088 1972.72,285.114 2091.92,210.639 2197.05,144.948 2291.1,86.1857 "/>
<path clip-path="url(#clip280)" d="M246.747 248.629 L923.053 248.629 L923.053 93.1086 L246.747 93.1086  Z" fill="#ffffff" fill-rule="evenodd" fill-opacity="1"/>
<polyline clip-path="url(#clip280)" style="stroke:#000000; stroke-linecap:round; stroke-linejoin:round; stroke-width:4; stroke-opacity:1; fill:none" points="246.747,248.629 923.053,248.629 923.053,93.1086 246.747,93.1086 246.747,248.629 "/>
<circle clip-path="url(#clip280)" cx="343.575" cy="144.949" r="20.48" fill="#008000" fill-rule="evenodd" fill-opacity="1" stroke="#000000" stroke-opacity="1" stroke-width="4.55111"/>
<path clip-path="url(#clip280)" d="M440.403 122.264 L469.639 122.264 L469.639 126.199 L457.37 126.199 L457.37 156.824 L452.671 156.824 L452.671 126.199 L440.403 126.199 L440.403 122.264 Z" fill="#000000" fill-rule="nonzero" fill-opacity="1" /><path clip-path="url(#clip280)" d="M482.023 134.879 Q481.305 134.463 480.449 134.277 Q479.616 134.069 478.597 134.069 Q474.986 134.069 473.042 136.43 Q471.12 138.768 471.12 143.166 L471.12 156.824 L466.838 156.824 L466.838 130.898 L471.12 130.898 L471.12 134.926 Q472.463 132.564 474.616 131.43 Q476.768 130.273 479.847 130.273 Q480.287 130.273 480.819 130.342 Q481.352 130.389 482 130.504 L482.023 134.879 Z" fill="#000000" fill-rule="nonzero" fill-opacity="1" /><path clip-path="url(#clip280)" d="M486.491 130.898 L490.75 130.898 L490.75 156.824 L486.491 156.824 L486.491 130.898 M486.491 120.805 L490.75 120.805 L490.75 126.199 L486.491 126.199 L486.491 120.805 Z" fill="#000000" fill-rule="nonzero" fill-opacity="1" /><path clip-path="url(#clip280)" d="M511.444 143.791 Q506.282 143.791 504.291 144.972 Q502.301 146.152 502.301 149 Q502.301 151.268 503.782 152.611 Q505.287 153.93 507.856 153.93 Q511.398 153.93 513.527 151.43 Q515.68 148.907 515.68 144.74 L515.68 143.791 L511.444 143.791 M519.939 142.032 L519.939 156.824 L515.68 156.824 L515.68 152.888 Q514.222 155.25 512.046 156.384 Q509.87 157.495 506.722 157.495 Q502.74 157.495 500.379 155.273 Q498.041 153.027 498.041 149.277 Q498.041 144.902 500.958 142.68 Q503.898 140.458 509.708 140.458 L515.68 140.458 L515.68 140.041 Q515.68 137.102 513.736 135.504 Q511.814 133.884 508.319 133.884 Q506.097 133.884 503.99 134.416 Q501.884 134.949 499.94 136.014 L499.94 132.078 Q502.277 131.176 504.477 130.736 Q506.676 130.273 508.759 130.273 Q514.384 130.273 517.162 133.189 Q519.939 136.106 519.939 142.032 Z" fill="#000000" fill-rule="nonzero" fill-opacity="1" /><path clip-path="url(#clip280)" d="M550.263 141.176 L550.263 156.824 L546.004 156.824 L546.004 141.314 Q546.004 137.634 544.569 135.805 Q543.134 133.977 540.263 133.977 Q536.814 133.977 534.824 136.176 Q532.833 138.375 532.833 142.171 L532.833 156.824 L528.55 156.824 L528.55 130.898 L532.833 130.898 L532.833 134.926 Q534.361 132.588 536.421 131.43 Q538.504 130.273 541.212 130.273 Q545.68 130.273 547.972 133.051 Q550.263 135.805 550.263 141.176 Z" fill="#000000" fill-rule="nonzero" fill-opacity="1" /><path clip-path="url(#clip280)" d="M575.819 143.56 Q575.819 138.93 573.897 136.384 Q571.999 133.838 568.55 133.838 Q565.124 133.838 563.203 136.384 Q561.305 138.93 561.305 143.56 Q561.305 148.166 563.203 150.713 Q565.124 153.259 568.55 153.259 Q571.999 153.259 573.897 150.713 Q575.819 148.166 575.819 143.56 M580.078 153.606 Q580.078 160.226 577.138 163.444 Q574.198 166.685 568.134 166.685 Q565.888 166.685 563.897 166.337 Q561.907 166.013 560.032 165.319 L560.032 161.175 Q561.907 162.194 563.735 162.68 Q565.564 163.166 567.462 163.166 Q571.652 163.166 573.735 160.967 Q575.819 158.791 575.819 154.37 L575.819 152.263 Q574.499 154.555 572.439 155.689 Q570.379 156.824 567.509 156.824 Q562.74 156.824 559.823 153.189 Q556.907 149.555 556.907 143.56 Q556.907 137.541 559.823 133.907 Q562.74 130.273 567.509 130.273 Q570.379 130.273 572.439 131.407 Q574.499 132.541 575.819 134.833 L575.819 130.898 L580.078 130.898 L580.078 153.606 Z" fill="#000000" fill-rule="nonzero" fill-opacity="1" /><path clip-path="url(#clip280)" d="M588.411 146.592 L588.411 130.898 L592.67 130.898 L592.67 146.43 Q592.67 150.111 594.106 151.963 Q595.541 153.791 598.411 153.791 Q601.86 153.791 603.851 151.592 Q605.865 149.393 605.865 145.597 L605.865 130.898 L610.124 130.898 L610.124 156.824 L605.865 156.824 L605.865 152.842 Q604.314 155.203 602.254 156.361 Q600.217 157.495 597.508 157.495 Q593.041 157.495 590.726 154.717 Q588.411 151.939 588.411 146.592 M599.129 130.273 L599.129 130.273 Z" fill="#000000" fill-rule="nonzero" fill-opacity="1" /><path clip-path="url(#clip280)" d="M618.897 120.805 L623.156 120.805 L623.156 156.824 L618.897 156.824 L618.897 120.805 Z" fill="#000000" fill-rule="nonzero" fill-opacity="1" /><path clip-path="url(#clip280)" d="M643.851 143.791 Q638.689 143.791 636.698 144.972 Q634.707 146.152 634.707 149 Q634.707 151.268 636.189 152.611 Q637.693 153.93 640.263 153.93 Q643.804 153.93 645.934 151.43 Q648.087 148.907 648.087 144.74 L648.087 143.791 L643.851 143.791 M652.346 142.032 L652.346 156.824 L648.087 156.824 L648.087 152.888 Q646.629 155.25 644.453 156.384 Q642.277 157.495 639.129 157.495 Q635.147 157.495 632.786 155.273 Q630.448 153.027 630.448 149.277 Q630.448 144.902 633.365 142.68 Q636.305 140.458 642.115 140.458 L648.087 140.458 L648.087 140.041 Q648.087 137.102 646.142 135.504 Q644.221 133.884 640.726 133.884 Q638.504 133.884 636.397 134.416 Q634.291 134.949 632.346 136.014 L632.346 132.078 Q634.684 131.176 636.883 130.736 Q639.082 130.273 641.166 130.273 Q646.791 130.273 649.568 133.189 Q652.346 136.106 652.346 142.032 Z" fill="#000000" fill-rule="nonzero" fill-opacity="1" /><path clip-path="url(#clip280)" d="M676.142 134.879 Q675.425 134.463 674.568 134.277 Q673.735 134.069 672.716 134.069 Q669.105 134.069 667.161 136.43 Q665.24 138.768 665.24 143.166 L665.24 156.824 L660.957 156.824 L660.957 130.898 L665.24 130.898 L665.24 134.926 Q666.582 132.564 668.735 131.43 Q670.888 130.273 673.966 130.273 Q674.406 130.273 674.939 130.342 Q675.471 130.389 676.119 130.504 L676.142 134.879 Z" fill="#000000" fill-rule="nonzero" fill-opacity="1" /><path clip-path="url(#clip280)" d="M680.864 150.944 L685.749 150.944 L685.749 156.824 L680.864 156.824 L680.864 150.944 M680.864 132.31 L685.749 132.31 L685.749 138.189 L680.864 138.189 L680.864 132.31 Z" fill="#000000" fill-rule="nonzero" fill-opacity="1" /><path clip-path="url(#clip280)" d="M745.653 149.961 Q745.653 150.148 745.442 150.874 Q745.232 151.6 744.716 152.725 Q744.225 153.849 743.522 154.88 Q742.843 155.887 741.718 156.636 Q740.617 157.362 739.353 157.362 Q737.666 157.362 736.542 156.238 Q735.418 155.114 735.418 153.427 Q735.418 152.514 736.05 150.781 Q739.025 142.864 739.025 140.03 Q739.025 136.68 736.425 136.68 Q734.949 136.68 733.614 137.289 Q732.279 137.898 731.412 138.741 Q730.546 139.585 729.867 140.545 Q729.187 141.505 728.883 142.138 Q728.602 142.77 728.531 143.051 L725.651 154.622 Q725.416 155.606 725.252 156.074 Q725.088 156.543 724.643 156.941 Q724.198 157.362 723.496 157.362 Q722.91 157.362 722.489 157.011 Q722.09 156.66 722.09 156.051 Q722.09 155.957 722.207 155.465 Q722.325 154.973 722.489 154.294 Q722.652 153.615 722.723 153.217 Q723.566 150.031 723.683 149.586 L725.018 144.012 Q725.744 141.248 725.744 140.03 Q725.744 136.68 723.144 136.68 Q721.856 136.68 720.638 137.172 Q719.444 137.641 718.624 138.296 Q717.804 138.952 717.054 139.866 Q716.328 140.756 715.954 141.365 Q715.602 141.95 715.321 142.536 L714.712 144.925 Q714.572 145.581 713.892 148.134 L712.838 152.467 Q712.089 155.699 711.925 156.004 Q711.691 156.66 711.175 157.011 Q710.66 157.362 710.145 157.362 Q709.559 157.362 709.161 157.011 Q708.763 156.66 708.763 156.051 Q708.763 155.957 708.833 155.606 Q708.903 155.254 709.021 154.762 Q709.138 154.271 709.185 153.99 L711.972 142.911 Q712.487 140.896 712.604 140.264 Q712.745 139.608 712.745 138.882 Q712.745 136.68 711.246 136.68 Q710.028 136.68 709.231 138.133 Q708.435 139.585 707.756 142.395 Q707.545 143.168 707.404 143.332 Q707.287 143.496 706.936 143.496 Q706.35 143.473 706.35 143.004 Q706.35 142.887 706.538 142.138 Q706.725 141.388 707.077 140.264 Q707.451 139.116 707.849 138.367 Q708.084 137.875 708.294 137.547 Q708.505 137.219 708.927 136.704 Q709.349 136.188 709.981 135.907 Q710.613 135.626 711.386 135.626 Q713.096 135.626 714.361 136.727 Q715.649 137.828 715.813 139.796 Q718.928 135.626 723.285 135.626 Q725.744 135.626 727.22 136.868 Q728.602 138.062 728.766 140.264 Q731.998 135.626 736.589 135.626 Q739.236 135.626 740.664 137.008 Q742.093 138.367 742.093 140.756 Q742.093 141.997 741.461 144.363 Q740.828 146.705 740.407 147.876 Q739.985 149.047 739.165 151.296 Q738.299 153.451 738.299 154.716 Q738.299 155.535 738.58 155.91 Q738.861 156.285 739.47 156.285 Q740.407 156.285 741.226 155.746 Q742.046 155.184 742.632 154.271 Q743.241 153.334 743.639 152.397 Q744.037 151.436 744.342 150.359 Q744.529 149.773 744.623 149.633 Q744.74 149.492 745.068 149.492 Q745.653 149.492 745.653 149.961 Z" fill="#000000" fill-rule="nonzero" fill-opacity="1" /><path clip-path="url(#clip280)" d="M770.598 149.961 Q769.966 152.982 769.146 154.716 Q767.835 157.362 765.609 157.362 Q763.923 157.362 762.728 156.332 Q761.534 155.301 761.253 153.755 Q758.184 157.362 754.999 157.362 Q752.188 157.362 750.408 155.231 Q748.628 153.076 748.628 149.68 Q748.628 146.26 750.315 142.981 Q752.024 139.702 754.718 137.664 Q757.412 135.626 760.175 135.626 Q763.103 135.626 764.602 138.695 Q764.719 137.851 765.258 137.219 Q765.797 136.587 766.617 136.587 Q767.249 136.587 767.624 136.938 Q767.998 137.266 767.998 137.875 Q767.998 138.179 767.671 139.514 L765.937 146.213 L764.883 150.546 Q764.485 152.139 764.368 152.725 Q764.274 153.31 764.274 154.083 Q764.274 156.285 765.703 156.285 Q766.406 156.285 766.968 155.84 Q767.53 155.395 767.975 154.458 Q768.42 153.521 768.701 152.654 Q768.982 151.764 769.357 150.359 Q769.474 149.797 769.568 149.656 Q769.685 149.492 770.013 149.492 Q770.598 149.492 770.598 149.961 M764.017 140.896 Q764.017 140.686 763.853 140.1 Q763.689 139.514 763.314 138.695 Q762.939 137.875 762.119 137.289 Q761.323 136.68 760.246 136.68 Q758.793 136.68 757.271 137.922 Q755.772 139.163 754.671 141.271 Q753.828 142.958 752.914 146.494 Q752.024 150.031 752.024 151.788 Q752.024 152.865 752.259 153.826 Q752.516 154.762 753.242 155.535 Q753.968 156.285 755.093 156.285 Q757.833 156.285 760.527 152.889 Q761.042 152.303 761.159 152.069 Q761.3 151.811 761.487 151.109 L763.876 141.716 Q764.017 141.013 764.017 140.896 Z" fill="#000000" fill-rule="nonzero" fill-opacity="1" /><path clip-path="url(#clip280)" d="M796.485 138.788 Q796.485 140.1 795.666 140.85 Q794.846 141.576 793.909 141.576 Q793.019 141.576 792.55 141.06 Q792.082 140.545 792.082 139.889 Q792.082 138.999 792.738 138.226 Q793.394 137.453 794.377 137.289 Q793.417 136.68 791.988 136.68 Q791.051 136.68 790.232 137.172 Q789.435 137.664 788.943 138.296 Q788.475 138.929 788.053 139.842 Q787.655 140.732 787.491 141.271 Q787.351 141.786 787.234 142.349 L785.594 148.907 Q784.798 152.022 784.798 153.123 Q784.798 154.481 785.453 155.395 Q786.109 156.285 787.421 156.285 Q787.936 156.285 788.522 156.144 Q789.107 155.98 789.857 155.559 Q790.63 155.114 791.309 154.458 Q792.012 153.779 792.691 152.631 Q793.37 151.483 793.815 150.008 Q793.956 149.492 794.424 149.492 Q795.01 149.492 795.01 149.961 Q795.01 150.359 794.682 151.202 Q794.377 152.022 793.698 153.099 Q793.042 154.153 792.176 155.114 Q791.309 156.051 790.021 156.707 Q788.733 157.362 787.327 157.362 Q785.313 157.362 783.978 156.285 Q782.643 155.207 782.151 153.708 Q782.034 153.919 781.87 154.2 Q781.706 154.481 781.214 155.114 Q780.746 155.723 780.207 156.191 Q779.668 156.636 778.825 156.988 Q778.005 157.362 777.115 157.362 Q775.991 157.362 774.984 157.034 Q774 156.707 773.297 155.957 Q772.595 155.207 772.595 154.177 Q772.595 153.029 773.367 152.233 Q774.164 151.413 775.241 151.413 Q775.92 151.413 776.459 151.811 Q777.021 152.209 777.021 153.076 Q777.021 154.036 776.366 154.762 Q775.71 155.489 774.773 155.676 Q775.733 156.285 777.162 156.285 Q778.708 156.285 779.926 154.926 Q781.144 153.568 781.729 151.296 Q783.181 145.838 783.744 143.403 Q784.306 140.943 784.306 139.889 Q784.306 138.905 784.048 138.226 Q783.79 137.547 783.345 137.242 Q782.924 136.915 782.526 136.797 Q782.151 136.68 781.729 136.68 Q781.027 136.68 780.23 136.961 Q779.457 137.242 778.52 137.898 Q777.607 138.531 776.74 139.842 Q775.874 141.154 775.288 142.958 Q775.171 143.496 774.656 143.496 Q774.094 143.473 774.094 143.004 Q774.094 142.606 774.398 141.786 Q774.726 140.943 775.382 139.889 Q776.061 138.835 776.928 137.898 Q777.818 136.938 779.106 136.282 Q780.418 135.626 781.823 135.626 Q782.455 135.626 783.064 135.767 Q783.697 135.884 784.446 136.235 Q785.219 136.587 785.898 137.36 Q786.578 138.133 786.999 139.257 Q787.28 138.718 787.655 138.203 Q788.053 137.687 788.662 137.055 Q789.295 136.399 790.161 136.024 Q791.051 135.626 792.035 135.626 Q792.995 135.626 793.932 135.884 Q794.869 136.118 795.666 136.891 Q796.485 137.641 796.485 138.788 Z" fill="#000000" fill-rule="nonzero" fill-opacity="1" /><path clip-path="url(#clip280)" d="M802.826 144.831 Q802.826 136.727 805.847 130.192 Q807.136 127.452 808.939 125.156 Q810.743 122.861 811.937 121.854 Q813.132 120.847 813.46 120.847 Q813.928 120.847 813.952 121.315 Q813.952 121.549 813.319 122.135 Q805.59 130.005 805.613 144.831 Q805.613 159.705 813.132 167.27 Q813.952 168.09 813.952 168.347 Q813.952 168.816 813.46 168.816 Q813.132 168.816 811.984 167.856 Q810.836 166.895 809.056 164.694 Q807.276 162.492 805.988 159.798 Q802.826 153.263 802.826 144.831 Z" fill="#000000" fill-rule="nonzero" fill-opacity="1" /><path clip-path="url(#clip280)" d="M832.086 167.856 Q832.086 168.254 831.805 168.535 Q831.524 168.816 831.126 168.816 Q830.446 168.816 830.212 168.184 L821.288 145.159 Q821.241 145.066 821.241 144.831 Q821.241 144.597 821.288 144.503 L830.212 121.479 Q830.446 120.847 831.126 120.847 Q831.524 120.847 831.805 121.128 Q832.086 121.409 832.086 121.807 Q832.086 122.041 832.039 122.135 L823.209 144.831 L832.039 167.528 Q832.086 167.621 832.086 167.856 Z" fill="#000000" fill-rule="nonzero" fill-opacity="1" /><path clip-path="url(#clip280)" d="M857.364 139.749 Q857.364 141.06 856.708 141.763 Q856.052 142.442 855.162 142.442 Q854.436 142.442 854.038 142.021 Q853.663 141.599 853.663 141.037 Q853.663 140.217 854.319 139.561 Q854.998 138.905 855.982 138.882 Q855.654 138.015 854.787 137.5 Q853.921 136.961 853.148 136.821 Q852.398 136.68 851.649 136.68 Q850.173 136.68 849.049 137.149 Q847.925 137.617 847.363 138.343 Q846.8 139.046 846.543 139.725 Q846.285 140.404 846.285 140.99 Q846.285 141.505 846.402 141.927 Q846.543 142.325 846.871 142.63 Q847.199 142.911 847.433 143.098 Q847.69 143.285 848.253 143.449 Q848.815 143.613 849.049 143.684 Q849.283 143.73 849.939 143.871 Q851.297 144.152 851.906 144.316 Q852.515 144.457 853.312 144.855 Q854.132 145.253 854.741 145.885 Q856.216 147.361 856.216 149.399 Q856.216 150.148 855.959 151.062 Q855.724 151.975 855.045 153.123 Q854.366 154.271 853.335 155.184 Q852.305 156.098 850.525 156.73 Q848.768 157.362 846.566 157.362 Q843.498 157.362 841.601 156.074 Q839.703 154.762 839.703 152.701 Q839.703 151.202 840.523 150.382 Q841.343 149.539 842.397 149.539 Q843.193 149.539 843.685 149.984 Q844.177 150.406 844.177 151.202 Q844.177 152.28 843.31 153.099 Q842.444 153.919 841.156 153.755 Q842.256 156.285 846.613 156.285 Q848.253 156.285 849.517 155.863 Q850.806 155.418 851.508 154.809 Q852.234 154.177 852.703 153.404 Q853.171 152.631 853.312 152.045 Q853.476 151.46 853.476 151.015 Q853.476 150.242 853.171 149.656 Q852.867 149.071 852.445 148.743 Q852.047 148.392 851.274 148.11 Q850.525 147.806 849.986 147.689 Q849.447 147.572 848.487 147.384 Q848.042 147.291 847.761 147.244 Q847.48 147.174 846.894 146.986 Q846.332 146.775 845.934 146.565 Q845.559 146.354 845.067 145.979 Q844.575 145.604 844.271 145.159 Q843.966 144.714 843.755 144.058 Q843.545 143.403 843.545 142.63 Q843.545 141.927 843.755 141.084 Q843.99 140.241 844.575 139.257 Q845.184 138.273 846.051 137.477 Q846.917 136.68 848.37 136.165 Q849.845 135.626 851.649 135.626 Q854.272 135.626 855.818 136.844 Q857.364 138.039 857.364 139.749 Z" fill="#000000" fill-rule="nonzero" fill-opacity="1" /><path clip-path="url(#clip280)" d="M872.743 144.503 Q872.79 144.597 872.79 144.831 Q872.79 145.066 872.743 145.159 L863.819 168.184 Q863.585 168.816 862.929 168.816 Q862.531 168.816 862.25 168.535 Q861.969 168.254 861.969 167.856 Q861.969 167.621 862.016 167.528 L870.823 144.831 L862.016 122.135 Q861.969 122.041 861.969 121.807 Q861.969 121.409 862.25 121.128 Q862.531 120.847 862.929 120.847 Q863.585 120.847 863.819 121.479 L872.743 144.503 Z" fill="#000000" fill-rule="nonzero" fill-opacity="1" /><path clip-path="url(#clip280)" d="M880.431 168.347 Q880.431 168.113 881.04 167.528 Q888.769 159.658 888.769 144.831 Q888.769 129.958 881.344 122.439 Q880.431 121.573 880.431 121.315 Q880.431 120.847 880.899 120.847 Q881.227 120.847 882.375 121.807 Q883.546 122.767 885.303 124.969 Q887.083 127.171 888.395 129.864 Q891.557 136.399 891.557 144.831 Q891.557 152.935 888.535 159.47 Q887.247 162.211 885.443 164.506 Q883.64 166.802 882.445 167.809 Q881.251 168.816 880.899 168.816 Q880.431 168.816 880.431 168.347 Z" fill="#000000" fill-rule="nonzero" fill-opacity="1" /><polyline clip-path="url(#clip280)" style="stroke:#ff0000; stroke-linecap:round; stroke-linejoin:round; stroke-width:4; stroke-opacity:1; fill:none" points="270.954,196.789 416.196,196.789 "/>
<path clip-path="url(#clip280)" d="M445.079 197.564 L445.079 210.226 L452.579 210.226 Q456.352 210.226 458.157 208.675 Q459.986 207.101 459.986 203.883 Q459.986 200.643 458.157 199.115 Q456.352 197.564 452.579 197.564 L445.079 197.564 M445.079 183.351 L445.079 193.768 L452 193.768 Q455.426 193.768 457.093 192.495 Q458.782 191.198 458.782 188.559 Q458.782 185.944 457.093 184.647 Q455.426 183.351 452 183.351 L445.079 183.351 M440.403 179.509 L452.347 179.509 Q457.694 179.509 460.588 181.731 Q463.481 183.953 463.481 188.05 Q463.481 191.222 462 193.097 Q460.518 194.971 457.648 195.434 Q461.097 196.175 462.995 198.536 Q464.917 200.874 464.917 204.393 Q464.917 209.022 461.768 211.545 Q458.62 214.069 452.81 214.069 L440.403 214.069 L440.403 179.509 Z" fill="#000000" fill-rule="nonzero" fill-opacity="1" /><path clip-path="url(#clip280)" d="M494.916 200.041 L494.916 202.124 L475.333 202.124 Q475.611 206.522 477.972 208.837 Q480.356 211.129 484.592 211.129 Q487.046 211.129 489.338 210.527 Q491.653 209.925 493.921 208.721 L493.921 212.749 Q491.629 213.721 489.222 214.231 Q486.815 214.74 484.338 214.74 Q478.134 214.74 474.5 211.129 Q470.889 207.518 470.889 201.36 Q470.889 194.995 474.315 191.268 Q477.764 187.518 483.597 187.518 Q488.828 187.518 491.861 190.897 Q494.916 194.254 494.916 200.041 M490.657 198.791 Q490.611 195.296 488.69 193.212 Q486.791 191.129 483.643 191.129 Q480.079 191.129 477.926 193.143 Q475.796 195.157 475.472 198.814 L490.657 198.791 Z" fill="#000000" fill-rule="nonzero" fill-opacity="1" /><path clip-path="url(#clip280)" d="M518.435 188.907 L518.435 192.934 Q516.629 192.009 514.685 191.546 Q512.74 191.083 510.657 191.083 Q507.486 191.083 505.889 192.055 Q504.314 193.027 504.314 194.971 Q504.314 196.453 505.449 197.309 Q506.583 198.143 510.009 198.907 L511.467 199.231 Q516.004 200.203 517.902 201.985 Q519.824 203.745 519.824 206.916 Q519.824 210.527 516.953 212.633 Q514.106 214.74 509.106 214.74 Q507.023 214.74 504.754 214.323 Q502.509 213.93 500.009 213.12 L500.009 208.721 Q502.37 209.948 504.662 210.573 Q506.953 211.175 509.199 211.175 Q512.208 211.175 513.828 210.157 Q515.449 209.115 515.449 207.24 Q515.449 205.504 514.268 204.578 Q513.111 203.652 509.152 202.796 L507.671 202.448 Q503.713 201.615 501.953 199.902 Q500.194 198.166 500.194 195.157 Q500.194 191.499 502.787 189.509 Q505.379 187.518 510.148 187.518 Q512.509 187.518 514.592 187.865 Q516.676 188.212 518.435 188.907 Z" fill="#000000" fill-rule="nonzero" fill-opacity="1" /><path clip-path="url(#clip280)" d="M530.819 180.782 L530.819 188.143 L539.592 188.143 L539.592 191.453 L530.819 191.453 L530.819 205.527 Q530.819 208.698 531.675 209.601 Q532.555 210.504 535.217 210.504 L539.592 210.504 L539.592 214.069 L535.217 214.069 Q530.287 214.069 528.412 212.24 Q526.537 210.388 526.537 205.527 L526.537 191.453 L523.412 191.453 L523.412 188.143 L526.537 188.143 L526.537 180.782 L530.819 180.782 Z" fill="#000000" fill-rule="nonzero" fill-opacity="1" /><path clip-path="url(#clip280)" d="M573.388 178.05 L573.388 181.592 L569.314 181.592 Q567.022 181.592 566.12 182.518 Q565.24 183.444 565.24 185.851 L565.24 188.143 L572.254 188.143 L572.254 191.453 L565.24 191.453 L565.24 214.069 L560.958 214.069 L560.958 191.453 L556.884 191.453 L556.884 188.143 L560.958 188.143 L560.958 186.337 Q560.958 182.009 562.972 180.041 Q564.985 178.05 569.36 178.05 L573.388 178.05 Z" fill="#000000" fill-rule="nonzero" fill-opacity="1" /><path clip-path="url(#clip280)" d="M576.953 188.143 L581.212 188.143 L581.212 214.069 L576.953 214.069 L576.953 188.143 M576.953 178.05 L581.212 178.05 L581.212 183.444 L576.953 183.444 L576.953 178.05 Z" fill="#000000" fill-rule="nonzero" fill-opacity="1" /><path clip-path="url(#clip280)" d="M594.337 180.782 L594.337 188.143 L603.11 188.143 L603.11 191.453 L594.337 191.453 L594.337 205.527 Q594.337 208.698 595.194 209.601 Q596.073 210.504 598.735 210.504 L603.11 210.504 L603.11 214.069 L598.735 214.069 Q593.805 214.069 591.93 212.24 Q590.055 210.388 590.055 205.527 L590.055 191.453 L586.93 191.453 L586.93 188.143 L590.055 188.143 L590.055 180.782 L594.337 180.782 Z" fill="#000000" fill-rule="nonzero" fill-opacity="1" /><path clip-path="url(#clip280)" d="M369.695 343.834 Q371.199 344.343 372.611 346.01 Q374.047 347.676 375.482 350.593 L380.227 360.037 L375.204 360.037 L370.783 351.172 Q369.07 347.699 367.449 346.565 Q365.852 345.431 363.074 345.431 L357.982 345.431 L357.982 360.037 L353.306 360.037 L353.306 325.477 L363.861 325.477 Q369.787 325.477 372.704 327.954 Q375.621 330.431 375.621 335.431 Q375.621 338.695 374.093 340.848 Q372.588 343 369.695 343.834 M357.982 329.32 L357.982 341.588 L363.861 341.588 Q367.241 341.588 368.954 340.037 Q370.69 338.463 370.69 335.431 Q370.69 332.399 368.954 330.871 Q367.241 329.32 363.861 329.32 L357.982 329.32 Z" fill="#000000" fill-rule="nonzero" fill-opacity="1" /><path clip-path="url(#clip280)" d="M403.722 325.477 L416.292 338.371 L411.639 338.371 L401.454 329.227 L391.269 338.371 L386.616 338.371 L399.185 325.477 L403.722 325.477 Z" fill="#000000" fill-rule="nonzero" fill-opacity="1" /><path clip-path="url(#clip280)" d="M430.412 356.102 L446.731 356.102 L446.731 360.037 L424.787 360.037 L424.787 356.102 Q427.449 353.348 432.032 348.718 Q436.639 344.065 437.819 342.723 Q440.065 340.2 440.944 338.463 Q441.847 336.704 441.847 335.014 Q441.847 332.26 439.903 330.524 Q437.981 328.788 434.88 328.788 Q432.68 328.788 430.227 329.551 Q427.796 330.315 425.018 331.866 L425.018 327.144 Q427.843 326.01 430.296 325.431 Q432.75 324.852 434.787 324.852 Q440.157 324.852 443.352 327.538 Q446.546 330.223 446.546 334.713 Q446.546 336.843 445.736 338.764 Q444.949 340.662 442.842 343.255 Q442.264 343.926 439.162 347.144 Q436.06 350.338 430.412 356.102 Z" fill="#000000" fill-rule="nonzero" fill-opacity="1" /><path clip-path="url(#clip280)" d="M457.032 354.158 L461.916 354.158 L461.916 360.037 L457.032 360.037 L457.032 354.158 M457.032 335.524 L461.916 335.524 L461.916 341.403 L457.032 341.403 L457.032 335.524 Z" fill="#000000" fill-rule="nonzero" fill-opacity="1" /><path clip-path="url(#clip280)" d="M497.588 328.556 Q493.976 328.556 492.148 332.121 Q490.342 335.663 490.342 342.792 Q490.342 349.899 492.148 353.463 Q493.976 357.005 497.588 357.005 Q501.222 357.005 503.027 353.463 Q504.856 349.899 504.856 342.792 Q504.856 335.663 503.027 332.121 Q501.222 328.556 497.588 328.556 M497.588 324.852 Q503.398 324.852 506.453 329.459 Q509.532 334.042 509.532 342.792 Q509.532 351.519 506.453 356.125 Q503.398 360.709 497.588 360.709 Q491.777 360.709 488.699 356.125 Q485.643 351.519 485.643 342.792 Q485.643 334.042 488.699 329.459 Q491.777 324.852 497.588 324.852 Z" fill="#000000" fill-rule="nonzero" fill-opacity="1" /><path clip-path="url(#clip280)" d="M517.749 354.158 L522.634 354.158 L522.634 360.037 L517.749 360.037 L517.749 354.158 Z" fill="#000000" fill-rule="nonzero" fill-opacity="1" /><path clip-path="url(#clip280)" d="M532.958 359.32 L532.958 355.061 Q534.717 355.894 536.523 356.334 Q538.328 356.774 540.064 356.774 Q544.694 356.774 547.124 353.672 Q549.578 350.547 549.925 344.204 Q548.583 346.195 546.522 347.26 Q544.462 348.324 541.962 348.324 Q536.777 348.324 533.745 345.199 Q530.736 342.051 530.736 336.612 Q530.736 331.288 533.884 328.07 Q537.032 324.852 542.263 324.852 Q548.259 324.852 551.407 329.459 Q554.578 334.042 554.578 342.792 Q554.578 350.963 550.689 355.848 Q546.823 360.709 540.273 360.709 Q538.513 360.709 536.708 360.361 Q534.902 360.014 532.958 359.32 M542.263 344.667 Q545.411 344.667 547.24 342.514 Q549.092 340.362 549.092 336.612 Q549.092 332.885 547.24 330.732 Q545.411 328.556 542.263 328.556 Q539.115 328.556 537.263 330.732 Q535.435 332.885 535.435 336.612 Q535.435 340.362 537.263 342.514 Q539.115 344.667 542.263 344.667 Z" fill="#000000" fill-rule="nonzero" fill-opacity="1" /><path clip-path="url(#clip280)" d="M563.12 359.32 L563.12 355.061 Q564.879 355.894 566.684 356.334 Q568.49 356.774 570.226 356.774 Q574.856 356.774 577.286 353.672 Q579.74 350.547 580.087 344.204 Q578.745 346.195 576.684 347.26 Q574.624 348.324 572.124 348.324 Q566.939 348.324 563.907 345.199 Q560.897 342.051 560.897 336.612 Q560.897 331.288 564.046 328.07 Q567.194 324.852 572.425 324.852 Q578.42 324.852 581.569 329.459 Q584.74 334.042 584.74 342.792 Q584.74 350.963 580.851 355.848 Q576.985 360.709 570.434 360.709 Q568.675 360.709 566.87 360.361 Q565.064 360.014 563.12 359.32 M572.425 344.667 Q575.573 344.667 577.402 342.514 Q579.254 340.362 579.254 336.612 Q579.254 332.885 577.402 330.732 Q575.573 328.556 572.425 328.556 Q569.277 328.556 567.425 330.732 Q565.596 332.885 565.596 336.612 Q565.596 340.362 567.425 342.514 Q569.277 344.667 572.425 344.667 Z" fill="#000000" fill-rule="nonzero" fill-opacity="1" /><path clip-path="url(#clip280)" d="M603.143 343.625 Q599.809 343.625 597.888 345.408 Q595.99 347.19 595.99 350.315 Q595.99 353.44 597.888 355.223 Q599.809 357.005 603.143 357.005 Q606.476 357.005 608.397 355.223 Q610.318 353.417 610.318 350.315 Q610.318 347.19 608.397 345.408 Q606.499 343.625 603.143 343.625 M598.467 341.635 Q595.457 340.894 593.768 338.834 Q592.101 336.774 592.101 333.811 Q592.101 329.667 595.041 327.26 Q598.004 324.852 603.143 324.852 Q608.305 324.852 611.244 327.26 Q614.184 329.667 614.184 333.811 Q614.184 336.774 612.494 338.834 Q610.828 340.894 607.842 341.635 Q611.221 342.422 613.096 344.713 Q614.994 347.005 614.994 350.315 Q614.994 355.338 611.916 358.023 Q608.86 360.709 603.143 360.709 Q597.425 360.709 594.346 358.023 Q591.291 355.338 591.291 350.315 Q591.291 347.005 593.189 344.713 Q595.087 342.422 598.467 341.635 M596.754 334.25 Q596.754 336.936 598.42 338.44 Q600.11 339.945 603.143 339.945 Q606.152 339.945 607.842 338.44 Q609.555 336.936 609.555 334.25 Q609.555 331.565 607.842 330.061 Q606.152 328.556 603.143 328.556 Q600.11 328.556 598.42 330.061 Q596.754 331.565 596.754 334.25 Z" fill="#000000" fill-rule="nonzero" fill-opacity="1" /><path clip-path="url(#clip280)" d="M637.471 341.403 Q640.828 342.121 642.703 344.389 Q644.601 346.658 644.601 349.991 Q644.601 355.107 641.082 357.908 Q637.564 360.709 631.082 360.709 Q628.906 360.709 626.591 360.269 Q624.3 359.852 621.846 358.996 L621.846 354.482 Q623.791 355.616 626.105 356.195 Q628.42 356.774 630.943 356.774 Q635.341 356.774 637.633 355.037 Q639.948 353.301 639.948 349.991 Q639.948 346.936 637.795 345.223 Q635.666 343.487 631.846 343.487 L627.818 343.487 L627.818 339.644 L632.031 339.644 Q635.48 339.644 637.309 338.278 Q639.138 336.889 639.138 334.297 Q639.138 331.635 637.24 330.223 Q635.365 328.788 631.846 328.788 Q629.925 328.788 627.726 329.204 Q625.527 329.621 622.888 330.5 L622.888 326.334 Q625.55 325.593 627.865 325.223 Q630.203 324.852 632.263 324.852 Q637.587 324.852 640.689 327.283 Q643.79 329.69 643.79 333.811 Q643.79 336.681 642.147 338.672 Q640.503 340.639 637.471 341.403 Z" fill="#000000" fill-rule="nonzero" fill-opacity="1" /></svg>
