<?xml version="1.0" encoding="utf-8"?>
<svg xmlns="http://www.w3.org/2000/svg" xmlns:xlink="http://www.w3.org/1999/xlink" width="600" height="400" viewBox="0 0 2400 1600">
<defs>
  <clipPath id="clip680">
    <rect x="0" y="0" width="2400" height="1600"/>
  </clipPath>
</defs>
<path clip-path="url(#clip680)" d="M0 1600 L2400 1600 L2400 0 L0 0  Z" fill="#ffffff" fill-rule="evenodd" fill-opacity="1"/>
<defs>
  <clipPath id="clip681">
    <rect x="480" y="0" width="1681" height="1600"/>
  </clipPath>
</defs>
<path clip-path="url(#clip680)" d="M259.216 1423.18 L2352.76 1423.18 L2352.76 47.2441 L259.216 47.2441  Z" fill="#ffffff" fill-rule="evenodd" fill-opacity="1"/>
<defs>
  <clipPath id="clip682">
    <rect x="259" y="47" width="2095" height="1377"/>
  </clipPath>
</defs>
<polyline clip-path="url(#clip682)" style="stroke:#000000; stroke-linecap:round; stroke-linejoin:round; stroke-width:2; stroke-opacity:0.1; fill:none" points="657.132,1423.18 657.132,47.2441 "/>
<polyline clip-path="url(#clip682)" style="stroke:#000000; stroke-linecap:round; stroke-linejoin:round; stroke-width:2; stroke-opacity:0.1; fill:none" points="1086.01,1423.18 1086.01,47.2441 "/>
<polyline clip-path="url(#clip682)" style="stroke:#000000; stroke-linecap:round; stroke-linejoin:round; stroke-width:2; stroke-opacity:0.1; fill:none" points="1514.88,1423.18 1514.88,47.2441 "/>
<polyline clip-path="url(#clip682)" style="stroke:#000000; stroke-linecap:round; stroke-linejoin:round; stroke-width:2; stroke-opacity:0.1; fill:none" points="1943.75,1423.18 1943.75,47.2441 "/>
<polyline clip-path="url(#clip682)" style="stroke:#000000; stroke-linecap:round; stroke-linejoin:round; stroke-width:2; stroke-opacity:0.1; fill:none" points="259.216,1293.96 2352.76,1293.96 "/>
<polyline clip-path="url(#clip682)" style="stroke:#000000; stroke-linecap:round; stroke-linejoin:round; stroke-width:2; stroke-opacity:0.1; fill:none" points="259.216,946.603 2352.76,946.603 "/>
<polyline clip-path="url(#clip682)" style="stroke:#000000; stroke-linecap:round; stroke-linejoin:round; stroke-width:2; stroke-opacity:0.1; fill:none" points="259.216,599.246 2352.76,599.246 "/>
<polyline clip-path="url(#clip682)" style="stroke:#000000; stroke-linecap:round; stroke-linejoin:round; stroke-width:2; stroke-opacity:0.1; fill:none" points="259.216,251.889 2352.76,251.889 "/>
<polyline clip-path="url(#clip680)" style="stroke:#000000; stroke-linecap:round; stroke-linejoin:round; stroke-width:4; stroke-opacity:1; fill:none" points="259.216,1423.18 2352.76,1423.18 "/>
<polyline clip-path="url(#clip680)" style="stroke:#000000; stroke-linecap:round; stroke-linejoin:round; stroke-width:4; stroke-opacity:1; fill:none" points="657.132,1423.18 657.132,1404.28 "/>
<polyline clip-path="url(#clip680)" style="stroke:#000000; stroke-linecap:round; stroke-linejoin:round; stroke-width:4; stroke-opacity:1; fill:none" points="1086.01,1423.18 1086.01,1404.28 "/>
<polyline clip-path="url(#clip680)" style="stroke:#000000; stroke-linecap:round; stroke-linejoin:round; stroke-width:4; stroke-opacity:1; fill:none" points="1514.88,1423.18 1514.88,1404.28 "/>
<polyline clip-path="url(#clip680)" style="stroke:#000000; stroke-linecap:round; stroke-linejoin:round; stroke-width:4; stroke-opacity:1; fill:none" points="1943.75,1423.18 1943.75,1404.28 "/>
<path clip-path="url(#clip680)" d="M624.296 1451.02 L642.652 1451.02 L642.652 1454.96 L628.578 1454.96 L628.578 1463.43 Q629.597 1463.08 630.615 1462.92 Q631.634 1462.73 632.652 1462.73 Q638.439 1462.73 641.819 1465.9 Q645.199 1469.08 645.199 1474.49 Q645.199 1480.07 641.727 1483.17 Q638.254 1486.25 631.935 1486.25 Q629.759 1486.25 627.49 1485.88 Q625.245 1485.51 622.838 1484.77 L622.838 1480.07 Q624.921 1481.2 627.143 1481.76 Q629.365 1482.32 631.842 1482.32 Q635.847 1482.32 638.185 1480.21 Q640.523 1478.1 640.523 1474.49 Q640.523 1470.88 638.185 1468.77 Q635.847 1466.67 631.842 1466.67 Q629.967 1466.67 628.092 1467.08 Q626.24 1467.5 624.296 1468.38 L624.296 1451.02 Z" fill="#000000" fill-rule="nonzero" fill-opacity="1" /><path clip-path="url(#clip680)" d="M654.412 1479.7 L659.296 1479.7 L659.296 1485.58 L654.412 1485.58 L654.412 1479.7 Z" fill="#000000" fill-rule="nonzero" fill-opacity="1" /><path clip-path="url(#clip680)" d="M679.481 1454.1 Q675.87 1454.1 674.041 1457.66 Q672.236 1461.2 672.236 1468.33 Q672.236 1475.44 674.041 1479.01 Q675.87 1482.55 679.481 1482.55 Q683.115 1482.55 684.921 1479.01 Q686.749 1475.44 686.749 1468.33 Q686.749 1461.2 684.921 1457.66 Q683.115 1454.1 679.481 1454.1 M679.481 1450.39 Q685.291 1450.39 688.347 1455 Q691.425 1459.58 691.425 1468.33 Q691.425 1477.06 688.347 1481.67 Q685.291 1486.25 679.481 1486.25 Q673.671 1486.25 670.592 1481.67 Q667.537 1477.06 667.537 1468.33 Q667.537 1459.58 670.592 1455 Q673.671 1450.39 679.481 1450.39 Z" fill="#000000" fill-rule="nonzero" fill-opacity="1" /><path clip-path="url(#clip680)" d="M1053.67 1451.02 L1072.02 1451.02 L1072.02 1454.96 L1057.95 1454.96 L1057.95 1463.43 Q1058.97 1463.08 1059.99 1462.92 Q1061.01 1462.73 1062.02 1462.73 Q1067.81 1462.73 1071.19 1465.9 Q1074.57 1469.08 1074.57 1474.49 Q1074.57 1480.07 1071.1 1483.17 Q1067.63 1486.25 1061.31 1486.25 Q1059.13 1486.25 1056.86 1485.88 Q1054.62 1485.51 1052.21 1484.77 L1052.21 1480.07 Q1054.29 1481.2 1056.51 1481.76 Q1058.74 1482.32 1061.21 1482.32 Q1065.22 1482.32 1067.56 1480.21 Q1069.89 1478.1 1069.89 1474.49 Q1069.89 1470.88 1067.56 1468.77 Q1065.22 1466.67 1061.21 1466.67 Q1059.34 1466.67 1057.46 1467.08 Q1055.61 1467.5 1053.67 1468.38 L1053.67 1451.02 Z" fill="#000000" fill-rule="nonzero" fill-opacity="1" /><path clip-path="url(#clip680)" d="M1083.78 1479.7 L1088.67 1479.7 L1088.67 1485.58 L1083.78 1485.58 L1083.78 1479.7 Z" fill="#000000" fill-rule="nonzero" fill-opacity="1" /><path clip-path="url(#clip680)" d="M1098.9 1451.02 L1117.26 1451.02 L1117.26 1454.96 L1103.18 1454.96 L1103.18 1463.43 Q1104.2 1463.08 1105.22 1462.92 Q1106.24 1462.73 1107.26 1462.73 Q1113.04 1462.73 1116.42 1465.9 Q1119.8 1469.08 1119.8 1474.49 Q1119.8 1480.07 1116.33 1483.17 Q1112.86 1486.25 1106.54 1486.25 Q1104.36 1486.25 1102.09 1485.88 Q1099.85 1485.51 1097.44 1484.77 L1097.44 1480.07 Q1099.52 1481.2 1101.75 1481.76 Q1103.97 1482.32 1106.45 1482.32 Q1110.45 1482.32 1112.79 1480.21 Q1115.13 1478.1 1115.13 1474.49 Q1115.13 1470.88 1112.79 1468.77 Q1110.45 1466.67 1106.45 1466.67 Q1104.57 1466.67 1102.7 1467.08 Q1100.84 1467.5 1098.9 1468.38 L1098.9 1451.02 Z" fill="#000000" fill-rule="nonzero" fill-opacity="1" /><path clip-path="url(#clip680)" d="M1492.75 1466.44 Q1489.6 1466.44 1487.75 1468.59 Q1485.92 1470.74 1485.92 1474.49 Q1485.92 1478.22 1487.75 1480.39 Q1489.6 1482.55 1492.75 1482.55 Q1495.9 1482.55 1497.73 1480.39 Q1499.58 1478.22 1499.58 1474.49 Q1499.58 1470.74 1497.73 1468.59 Q1495.9 1466.44 1492.75 1466.44 M1502.03 1451.78 L1502.03 1456.04 Q1500.27 1455.21 1498.47 1454.77 Q1496.69 1454.33 1494.93 1454.33 Q1490.3 1454.33 1487.84 1457.45 Q1485.41 1460.58 1485.06 1466.9 Q1486.43 1464.89 1488.49 1463.82 Q1490.55 1462.73 1493.03 1462.73 Q1498.24 1462.73 1501.25 1465.9 Q1504.28 1469.05 1504.28 1474.49 Q1504.28 1479.82 1501.13 1483.03 Q1497.98 1486.25 1492.75 1486.25 Q1486.75 1486.25 1483.58 1481.67 Q1480.41 1477.06 1480.41 1468.33 Q1480.41 1460.14 1484.3 1455.28 Q1488.19 1450.39 1494.74 1450.39 Q1496.5 1450.39 1498.28 1450.74 Q1500.09 1451.09 1502.03 1451.78 Z" fill="#000000" fill-rule="nonzero" fill-opacity="1" /><path clip-path="url(#clip680)" d="M1512.33 1479.7 L1517.22 1479.7 L1517.22 1485.58 L1512.33 1485.58 L1512.33 1479.7 Z" fill="#000000" fill-rule="nonzero" fill-opacity="1" /><path clip-path="url(#clip680)" d="M1537.4 1454.1 Q1533.79 1454.1 1531.96 1457.66 Q1530.16 1461.2 1530.16 1468.33 Q1530.16 1475.44 1531.96 1479.01 Q1533.79 1482.55 1537.4 1482.55 Q1541.04 1482.55 1542.84 1479.01 Q1544.67 1475.44 1544.67 1468.33 Q1544.67 1461.2 1542.84 1457.66 Q1541.04 1454.1 1537.4 1454.1 M1537.4 1450.39 Q1543.21 1450.39 1546.27 1455 Q1549.35 1459.58 1549.35 1468.33 Q1549.35 1477.06 1546.27 1481.67 Q1543.21 1486.25 1537.4 1486.25 Q1531.59 1486.25 1528.51 1481.67 Q1525.46 1477.06 1525.46 1468.33 Q1525.46 1459.58 1528.51 1455 Q1531.59 1450.39 1537.4 1450.39 Z" fill="#000000" fill-rule="nonzero" fill-opacity="1" /><path clip-path="url(#clip680)" d="M1922.12 1466.44 Q1918.97 1466.44 1917.12 1468.59 Q1915.29 1470.74 1915.29 1474.49 Q1915.29 1478.22 1917.12 1480.39 Q1918.97 1482.55 1922.12 1482.55 Q1925.27 1482.55 1927.1 1480.39 Q1928.95 1478.22 1928.95 1474.49 Q1928.95 1470.74 1927.1 1468.59 Q1925.27 1466.44 1922.12 1466.44 M1931.4 1451.78 L1931.4 1456.04 Q1929.64 1455.21 1927.84 1454.77 Q1926.06 1454.33 1924.3 1454.33 Q1919.67 1454.33 1917.21 1457.45 Q1914.78 1460.58 1914.44 1466.9 Q1915.8 1464.89 1917.86 1463.82 Q1919.92 1462.73 1922.4 1462.73 Q1927.61 1462.73 1930.62 1465.9 Q1933.65 1469.05 1933.65 1474.49 Q1933.65 1479.82 1930.5 1483.03 Q1927.35 1486.25 1922.12 1486.25 Q1916.13 1486.25 1912.96 1481.67 Q1909.78 1477.06 1909.78 1468.33 Q1909.78 1460.14 1913.67 1455.28 Q1917.56 1450.39 1924.11 1450.39 Q1925.87 1450.39 1927.65 1450.74 Q1929.46 1451.09 1931.4 1451.78 Z" fill="#000000" fill-rule="nonzero" fill-opacity="1" /><path clip-path="url(#clip680)" d="M1941.7 1479.7 L1946.59 1479.7 L1946.59 1485.58 L1941.7 1485.58 L1941.7 1479.7 Z" fill="#000000" fill-rule="nonzero" fill-opacity="1" /><path clip-path="url(#clip680)" d="M1956.82 1451.02 L1975.18 1451.02 L1975.18 1454.96 L1961.1 1454.96 L1961.1 1463.43 Q1962.12 1463.08 1963.14 1462.92 Q1964.16 1462.73 1965.18 1462.73 Q1970.96 1462.73 1974.34 1465.9 Q1977.72 1469.08 1977.72 1474.49 Q1977.72 1480.07 1974.25 1483.17 Q1970.78 1486.25 1964.46 1486.25 Q1962.28 1486.25 1960.01 1485.88 Q1957.77 1485.51 1955.36 1484.77 L1955.36 1480.07 Q1957.45 1481.2 1959.67 1481.76 Q1961.89 1482.32 1964.37 1482.32 Q1968.37 1482.32 1970.71 1480.21 Q1973.05 1478.1 1973.05 1474.49 Q1973.05 1470.88 1970.71 1468.77 Q1968.37 1466.67 1964.37 1466.67 Q1962.49 1466.67 1960.62 1467.08 Q1958.76 1467.5 1956.82 1468.38 L1956.82 1451.02 Z" fill="#000000" fill-rule="nonzero" fill-opacity="1" /><path clip-path="url(#clip680)" d="M1235.63 1510.81 L1226.13 1548.94 Q1225.74 1550.46 1225.74 1552.1 Q1225.74 1555.13 1227.74 1555.13 Q1228.67 1555.13 1229.45 1554.52 Q1230.22 1553.87 1230.8 1552.61 Q1231.41 1551.33 1231.8 1550.1 Q1232.22 1548.88 1232.73 1546.98 Q1232.89 1546.24 1233.05 1546.01 Q1233.21 1545.79 1233.66 1545.79 Q1234.47 1545.79 1234.47 1546.43 Q1233.66 1550.39 1232.47 1552.9 Q1230.73 1556.61 1227.51 1556.61 Q1225.1 1556.61 1223.29 1554.93 Q1221.52 1553.23 1221.52 1550.52 Q1221.52 1549.49 1221.84 1548.27 L1230.15 1515.29 L1230.38 1514 Q1230.38 1513.65 1230.25 1513.45 Q1230.12 1513.26 1229.35 1513.07 Q1228.61 1512.87 1227.13 1512.87 Q1226.51 1512.87 1226.22 1512.84 Q1225.97 1512.81 1225.71 1512.65 Q1225.48 1512.49 1225.48 1512.13 Q1225.48 1511.55 1225.71 1511.23 Q1225.97 1510.91 1226.16 1510.84 Q1226.35 1510.78 1226.74 1510.75 Q1227.29 1510.72 1229.12 1510.55 Q1230.96 1510.36 1232.54 1510.23 Q1234.12 1510.1 1234.79 1510.1 Q1235.18 1510.1 1235.37 1510.3 Q1235.6 1510.46 1235.63 1510.65 L1235.63 1510.81 Z" fill="#000000" fill-rule="nonzero" fill-opacity="1" /><path clip-path="url(#clip680)" d="M1271.34 1537.86 Q1271.34 1541.38 1269.79 1544.85 Q1268.25 1548.3 1265.77 1550.88 Q1263.32 1553.42 1260.1 1555.03 Q1256.88 1556.61 1253.66 1556.61 Q1249.05 1556.61 1246.06 1553.48 Q1243.09 1550.33 1243.09 1545.43 Q1243.09 1540.86 1245.64 1536.51 Q1248.21 1532.13 1252.34 1529.43 Q1256.46 1526.72 1260.77 1526.72 Q1265.32 1526.72 1268.31 1529.78 Q1271.34 1532.84 1271.34 1537.86 M1266.51 1535.29 Q1266.51 1532.16 1264.99 1530.17 Q1263.48 1528.17 1260.71 1528.17 Q1259.9 1528.17 1258.97 1528.43 Q1258.04 1528.65 1256.81 1529.27 Q1255.62 1529.88 1254.27 1531.17 Q1252.95 1532.42 1251.79 1534.23 Q1250.27 1536.61 1249.12 1540.99 Q1247.99 1545.34 1247.99 1547.95 Q1247.99 1551.55 1249.66 1553.36 Q1251.34 1555.13 1253.72 1555.13 Q1256.04 1555.13 1258.49 1553.52 Q1260.97 1551.87 1262.67 1549.07 Q1264.38 1546.17 1265.44 1541.92 Q1266.51 1537.64 1266.51 1535.29 Z" fill="#000000" fill-rule="nonzero" fill-opacity="1" /><path clip-path="url(#clip680)" d="M1302.67 1529.81 Q1302.67 1529.85 1302.47 1531 L1295.13 1560.28 Q1294.74 1561.83 1293.65 1563.37 Q1292.59 1564.95 1290.88 1566.3 Q1289.2 1567.69 1286.63 1568.52 Q1284.08 1569.39 1281.15 1569.39 Q1276.48 1569.39 1274.42 1568.4 Q1272.39 1567.43 1272.39 1565.37 Q1272.39 1563.56 1273.52 1562.53 Q1274.65 1561.54 1275.93 1561.54 Q1277.16 1561.54 1277.8 1562.24 Q1278.45 1562.95 1278.45 1563.85 Q1278.45 1564.85 1277.77 1565.85 Q1277.09 1566.88 1275.74 1567.27 Q1277.9 1567.94 1281.02 1567.94 Q1287.63 1567.94 1290.46 1560.96 Q1290.52 1560.86 1290.52 1560.83 L1292.71 1552.1 L1292.62 1552.04 Q1292.07 1552.68 1291.2 1553.42 Q1290.36 1554.13 1288.56 1555 Q1286.76 1555.87 1284.98 1555.87 Q1281.28 1555.87 1278.74 1553.03 Q1276.22 1550.17 1276.22 1545.43 Q1276.22 1541.99 1277.61 1538.54 Q1279.03 1535.06 1281.22 1532.52 Q1283.44 1529.94 1286.27 1528.33 Q1289.14 1526.72 1291.91 1526.72 Q1293.84 1526.72 1295.48 1527.88 Q1297.13 1529.01 1298.03 1530.88 Q1298.19 1529.33 1299.06 1528.69 Q1299.96 1528.04 1300.73 1528.04 Q1301.6 1528.04 1302.12 1528.53 Q1302.67 1528.98 1302.67 1529.81 M1297.26 1533.84 Q1297.26 1533.65 1297.13 1533.13 Q1297 1532.58 1296.61 1531.71 Q1296.26 1530.84 1295.71 1530.07 Q1295.16 1529.3 1294.16 1528.75 Q1293.2 1528.17 1291.97 1528.17 Q1289.98 1528.17 1287.98 1529.85 Q1285.98 1531.49 1284.6 1534.03 Q1283.31 1536.48 1282.09 1541.21 Q1280.89 1545.95 1280.89 1548.36 Q1280.89 1550.75 1281.93 1552.58 Q1282.96 1554.42 1285.18 1554.42 Q1287.75 1554.42 1290.52 1552.04 Q1293.39 1549.56 1293.87 1547.43 L1297.06 1534.84 Q1297.26 1534.06 1297.26 1533.84 Z" fill="#000000" fill-rule="nonzero" fill-opacity="1" /><path clip-path="url(#clip680)" d="M1311.71 1539.38 Q1311.71 1528.24 1315.86 1519.25 Q1317.64 1515.48 1320.11 1512.33 Q1322.59 1509.17 1324.24 1507.78 Q1325.88 1506.4 1326.33 1506.4 Q1326.97 1506.4 1327.01 1507.04 Q1327.01 1507.37 1326.14 1508.17 Q1315.51 1518.99 1315.54 1539.38 Q1315.54 1559.83 1325.88 1570.23 Q1327.01 1571.36 1327.01 1571.71 Q1327.01 1572.36 1326.33 1572.36 Q1325.88 1572.36 1324.3 1571.04 Q1322.72 1569.72 1320.28 1566.69 Q1317.83 1563.66 1316.06 1559.96 Q1311.71 1550.97 1311.71 1539.38 Z" fill="#000000" fill-rule="nonzero" fill-opacity="1" /><path clip-path="url(#clip680)" d="M1359.91 1516.83 Q1359.91 1518.86 1354.05 1518.86 Q1353.05 1518.86 1352.5 1518.83 Q1351.96 1518.77 1351.15 1518.44 Q1350.38 1518.09 1349.83 1517.41 Q1346.35 1519.12 1344.42 1522.34 Q1342.52 1525.56 1342.52 1528.62 Q1342.52 1531.81 1344.48 1533.77 Q1346.93 1532.97 1350.02 1532.97 Q1352.5 1532.97 1353.95 1533.32 Q1355.43 1533.68 1355.43 1534.77 Q1355.43 1535.26 1355.14 1535.64 Q1354.85 1536 1354.24 1536.22 Q1353.66 1536.42 1353.12 1536.54 Q1352.6 1536.67 1351.76 1536.74 Q1350.93 1536.77 1350.47 1536.8 Q1350.02 1536.8 1349.32 1536.8 Q1345.84 1536.8 1343.49 1535.96 Q1339.72 1537.86 1337.56 1541.31 Q1335.4 1544.72 1335.4 1547.17 Q1335.4 1551.04 1340.33 1553.03 L1344.29 1554.61 Q1345.19 1554.9 1348.32 1556.13 L1352.34 1557.64 Q1355.5 1559.02 1355.5 1562.34 Q1355.5 1564.92 1353.5 1567.14 Q1351.54 1569.39 1348.64 1569.39 Q1346.93 1569.39 1345.16 1568.75 Q1343.42 1568.14 1342.42 1567.4 Q1341.46 1566.66 1341.46 1566.24 Q1341.46 1565.5 1342.1 1565.5 Q1342.36 1565.5 1342.84 1565.82 Q1345.9 1567.94 1348.64 1567.94 Q1350.06 1567.94 1350.96 1566.82 Q1351.89 1565.69 1351.89 1564.43 Q1351.89 1563.76 1351.7 1563.28 Q1351.54 1562.79 1351.05 1562.44 Q1350.6 1562.12 1350.38 1561.99 Q1350.18 1561.89 1349.57 1561.6 Q1348.28 1561.12 1346.06 1560.25 Q1343.84 1559.41 1341.59 1558.51 Q1337.79 1557.09 1336.63 1556.45 Q1335.5 1555.84 1333.92 1554.23 L1333.79 1554.06 Q1333.63 1553.87 1333.47 1553.65 Q1333.34 1553.42 1333.12 1553.1 Q1332.92 1552.74 1332.73 1552.33 Q1332.54 1551.91 1332.37 1551.42 Q1332.21 1550.91 1332.12 1550.3 Q1332.02 1549.65 1332.02 1549.01 Q1332.02 1547.95 1332.37 1546.56 Q1332.76 1545.14 1333.6 1543.28 Q1334.47 1541.41 1336.3 1539.38 Q1338.14 1537.35 1340.65 1535.67 L1341.52 1535.03 Q1339.33 1533.77 1338.27 1531.91 Q1337.24 1530.04 1337.24 1528.04 Q1337.24 1524.15 1340.39 1520.67 Q1343.58 1517.16 1348.77 1515.71 Q1348.32 1513.9 1348.32 1513.13 Q1348.32 1512.84 1348.35 1512.52 Q1348.38 1512.16 1348.45 1511.49 Q1348.54 1510.78 1348.8 1510.36 Q1349.09 1509.91 1349.51 1509.91 Q1350.28 1509.91 1350.28 1510.75 Q1349.96 1512.26 1349.96 1513.2 Q1349.96 1514.42 1350.28 1515.39 Q1352.15 1515.03 1354.44 1515.03 Q1356.98 1515.03 1358.43 1515.39 Q1359.91 1515.71 1359.91 1516.83 M1358.2 1516.9 Q1356.66 1516.48 1354.5 1516.48 Q1352.5 1516.48 1351.34 1516.83 Q1351.86 1517.22 1352.41 1517.32 Q1352.99 1517.41 1354.11 1517.41 Q1356.82 1517.41 1358.2 1516.9 M1353.73 1534.84 Q1352.18 1534.42 1349.96 1534.42 Q1347.83 1534.42 1346.19 1534.84 Q1347.03 1535.19 1347.61 1535.29 Q1348.22 1535.35 1349.51 1535.35 Q1352.7 1535.35 1353.73 1534.84 Z" fill="#000000" fill-rule="nonzero" fill-opacity="1" /><path clip-path="url(#clip680)" d="M1365.12 1571.71 Q1365.12 1571.39 1365.96 1570.59 Q1376.59 1559.76 1376.59 1539.38 Q1376.59 1518.93 1366.38 1508.59 Q1365.12 1507.4 1365.12 1507.04 Q1365.12 1506.4 1365.77 1506.4 Q1366.22 1506.4 1367.79 1507.72 Q1369.4 1509.04 1371.82 1512.07 Q1374.27 1515.1 1376.07 1518.8 Q1380.42 1527.78 1380.42 1539.38 Q1380.42 1550.52 1376.26 1559.51 Q1374.49 1563.28 1372.01 1566.43 Q1369.53 1569.59 1367.89 1570.97 Q1366.25 1572.36 1365.77 1572.36 Q1365.12 1572.36 1365.12 1571.71 Z" fill="#000000" fill-rule="nonzero" fill-opacity="1" /><polyline clip-path="url(#clip680)" style="stroke:#000000; stroke-linecap:round; stroke-linejoin:round; stroke-width:4; stroke-opacity:1; fill:none" points="259.216,1423.18 259.216,47.2441 "/>
<polyline clip-path="url(#clip680)" style="stroke:#000000; stroke-linecap:round; stroke-linejoin:round; stroke-width:4; stroke-opacity:1; fill:none" points="259.216,1293.96 278.114,1293.96 "/>
<polyline clip-path="url(#clip680)" style="stroke:#000000; stroke-linecap:round; stroke-linejoin:round; stroke-width:4; stroke-opacity:1; fill:none" points="259.216,946.603 278.114,946.603 "/>
<polyline clip-path="url(#clip680)" style="stroke:#000000; stroke-linecap:round; stroke-linejoin:round; stroke-width:4; stroke-opacity:1; fill:none" points="259.216,599.246 278.114,599.246 "/>
<polyline clip-path="url(#clip680)" style="stroke:#000000; stroke-linecap:round; stroke-linejoin:round; stroke-width:4; stroke-opacity:1; fill:none" points="259.216,251.889 278.114,251.889 "/>
<path clip-path="url(#clip680)" d="M116.272 1294.41 L145.948 1294.41 L145.948 1298.35 L116.272 1298.35 L116.272 1294.41 Z" fill="#000000" fill-rule="nonzero" fill-opacity="1" /><path clip-path="url(#clip680)" d="M166.619 1292.1 Q163.471 1292.1 161.619 1294.25 Q159.79 1296.4 159.79 1300.15 Q159.79 1303.88 161.619 1306.05 Q163.471 1308.21 166.619 1308.21 Q169.767 1308.21 171.596 1306.05 Q173.448 1303.88 173.448 1300.15 Q173.448 1296.4 171.596 1294.25 Q169.767 1292.1 166.619 1292.1 M175.901 1277.44 L175.901 1281.7 Q174.142 1280.87 172.337 1280.43 Q170.554 1279.99 168.795 1279.99 Q164.165 1279.99 161.712 1283.11 Q159.281 1286.24 158.934 1292.56 Q160.3 1290.55 162.36 1289.48 Q164.42 1288.39 166.897 1288.39 Q172.105 1288.39 175.114 1291.56 Q178.147 1294.71 178.147 1300.15 Q178.147 1305.48 174.999 1308.69 Q171.85 1311.91 166.619 1311.91 Q160.624 1311.91 157.452 1307.33 Q154.281 1302.72 154.281 1293.99 Q154.281 1285.8 158.17 1280.94 Q162.059 1276.05 168.61 1276.05 Q170.369 1276.05 172.151 1276.4 Q173.957 1276.75 175.901 1277.44 Z" fill="#000000" fill-rule="nonzero" fill-opacity="1" /><path clip-path="url(#clip680)" d="M186.202 1305.36 L191.086 1305.36 L191.086 1311.24 L186.202 1311.24 L186.202 1305.36 Z" fill="#000000" fill-rule="nonzero" fill-opacity="1" /><path clip-path="url(#clip680)" d="M211.272 1279.76 Q207.66 1279.76 205.832 1283.32 Q204.026 1286.86 204.026 1293.99 Q204.026 1301.1 205.832 1304.67 Q207.66 1308.21 211.272 1308.21 Q214.906 1308.21 216.711 1304.67 Q218.54 1301.1 218.54 1293.99 Q218.54 1286.86 216.711 1283.32 Q214.906 1279.76 211.272 1279.76 M211.272 1276.05 Q217.082 1276.05 220.137 1280.66 Q223.216 1285.24 223.216 1293.99 Q223.216 1302.72 220.137 1307.33 Q217.082 1311.91 211.272 1311.91 Q205.461 1311.91 202.383 1307.33 Q199.327 1302.72 199.327 1293.99 Q199.327 1285.24 202.383 1280.66 Q205.461 1276.05 211.272 1276.05 Z" fill="#000000" fill-rule="nonzero" fill-opacity="1" /><path clip-path="url(#clip680)" d="M117.267 947.054 L146.943 947.054 L146.943 950.989 L117.267 950.989 L117.267 947.054 Z" fill="#000000" fill-rule="nonzero" fill-opacity="1" /><path clip-path="url(#clip680)" d="M157.082 929.323 L175.438 929.323 L175.438 933.258 L161.364 933.258 L161.364 941.73 Q162.383 941.383 163.401 941.221 Q164.42 941.036 165.438 941.036 Q171.225 941.036 174.605 944.207 Q177.985 947.378 177.985 952.795 Q177.985 958.373 174.512 961.475 Q171.04 964.554 164.721 964.554 Q162.545 964.554 160.276 964.184 Q158.031 963.813 155.624 963.072 L155.624 958.373 Q157.707 959.508 159.929 960.063 Q162.151 960.619 164.628 960.619 Q168.633 960.619 170.971 958.512 Q173.309 956.406 173.309 952.795 Q173.309 949.184 170.971 947.077 Q168.633 944.971 164.628 944.971 Q162.753 944.971 160.878 945.387 Q159.026 945.804 157.082 946.684 L157.082 929.323 Z" fill="#000000" fill-rule="nonzero" fill-opacity="1" /><path clip-path="url(#clip680)" d="M187.198 958.003 L192.082 958.003 L192.082 963.883 L187.198 963.883 L187.198 958.003 Z" fill="#000000" fill-rule="nonzero" fill-opacity="1" /><path clip-path="url(#clip680)" d="M202.313 929.323 L220.67 929.323 L220.67 933.258 L206.596 933.258 L206.596 941.73 Q207.614 941.383 208.633 941.221 Q209.651 941.036 210.67 941.036 Q216.457 941.036 219.836 944.207 Q223.216 947.378 223.216 952.795 Q223.216 958.373 219.744 961.475 Q216.271 964.554 209.952 964.554 Q207.776 964.554 205.508 964.184 Q203.262 963.813 200.855 963.072 L200.855 958.373 Q202.938 959.508 205.16 960.063 Q207.383 960.619 209.859 960.619 Q213.864 960.619 216.202 958.512 Q218.54 956.406 218.54 952.795 Q218.54 949.184 216.202 947.077 Q213.864 944.971 209.859 944.971 Q207.985 944.971 206.11 945.387 Q204.258 945.804 202.313 946.684 L202.313 929.323 Z" fill="#000000" fill-rule="nonzero" fill-opacity="1" /><path clip-path="url(#clip680)" d="M116.272 599.697 L145.948 599.697 L145.948 603.632 L116.272 603.632 L116.272 599.697 Z" fill="#000000" fill-rule="nonzero" fill-opacity="1" /><path clip-path="url(#clip680)" d="M156.087 581.966 L174.443 581.966 L174.443 585.901 L160.369 585.901 L160.369 594.373 Q161.388 594.026 162.406 593.864 Q163.425 593.678 164.443 593.678 Q170.23 593.678 173.61 596.85 Q176.989 600.021 176.989 605.438 Q176.989 611.016 173.517 614.118 Q170.045 617.197 163.725 617.197 Q161.55 617.197 159.281 616.826 Q157.036 616.456 154.628 615.715 L154.628 611.016 Q156.712 612.151 158.934 612.706 Q161.156 613.262 163.633 613.262 Q167.637 613.262 169.975 611.155 Q172.313 609.049 172.313 605.438 Q172.313 601.827 169.975 599.72 Q167.637 597.614 163.633 597.614 Q161.758 597.614 159.883 598.03 Q158.031 598.447 156.087 599.327 L156.087 581.966 Z" fill="#000000" fill-rule="nonzero" fill-opacity="1" /><path clip-path="url(#clip680)" d="M186.202 610.646 L191.086 610.646 L191.086 616.526 L186.202 616.526 L186.202 610.646 Z" fill="#000000" fill-rule="nonzero" fill-opacity="1" /><path clip-path="url(#clip680)" d="M211.272 585.044 Q207.66 585.044 205.832 588.609 Q204.026 592.151 204.026 599.28 Q204.026 606.387 205.832 609.952 Q207.66 613.493 211.272 613.493 Q214.906 613.493 216.711 609.952 Q218.54 606.387 218.54 599.28 Q218.54 592.151 216.711 588.609 Q214.906 585.044 211.272 585.044 M211.272 581.341 Q217.082 581.341 220.137 585.947 Q223.216 590.53 223.216 599.28 Q223.216 608.007 220.137 612.614 Q217.082 617.197 211.272 617.197 Q205.461 617.197 202.383 612.614 Q199.327 608.007 199.327 599.28 Q199.327 590.53 202.383 585.947 Q205.461 581.341 211.272 581.341 Z" fill="#000000" fill-rule="nonzero" fill-opacity="1" /><path clip-path="url(#clip680)" d="M117.267 252.34 L146.943 252.34 L146.943 256.275 L117.267 256.275 L117.267 252.34 Z" fill="#000000" fill-rule="nonzero" fill-opacity="1" /><path clip-path="url(#clip680)" d="M169.883 238.683 L158.077 257.132 L169.883 257.132 L169.883 238.683 M168.656 234.609 L174.536 234.609 L174.536 257.132 L179.466 257.132 L179.466 261.02 L174.536 261.02 L174.536 269.169 L169.883 269.169 L169.883 261.02 L154.281 261.02 L154.281 256.507 L168.656 234.609 Z" fill="#000000" fill-rule="nonzero" fill-opacity="1" /><path clip-path="url(#clip680)" d="M187.198 263.289 L192.082 263.289 L192.082 269.169 L187.198 269.169 L187.198 263.289 Z" fill="#000000" fill-rule="nonzero" fill-opacity="1" /><path clip-path="url(#clip680)" d="M202.313 234.609 L220.67 234.609 L220.67 238.544 L206.596 238.544 L206.596 247.016 Q207.614 246.669 208.633 246.507 Q209.651 246.321 210.67 246.321 Q216.457 246.321 219.836 249.493 Q223.216 252.664 223.216 258.081 Q223.216 263.659 219.744 266.761 Q216.271 269.84 209.952 269.84 Q207.776 269.84 205.508 269.469 Q203.262 269.099 200.855 268.358 L200.855 263.659 Q202.938 264.794 205.16 265.349 Q207.383 265.905 209.859 265.905 Q213.864 265.905 216.202 263.798 Q218.54 261.692 218.54 258.081 Q218.54 254.47 216.202 252.363 Q213.864 250.257 209.859 250.257 Q207.985 250.257 206.11 250.673 Q204.258 251.09 202.313 251.97 L202.313 234.609 Z" fill="#000000" fill-rule="nonzero" fill-opacity="1" /><path clip-path="url(#clip680)" d="M17.348 963.354 L55.4797 972.854 Q56.9934 973.241 58.6359 973.241 Q61.6633 973.241 61.6633 971.244 Q61.6633 970.31 61.0514 969.537 Q60.4072 968.764 59.1512 968.184 Q57.863 967.572 56.6392 967.186 Q55.4153 966.767 53.5152 966.252 Q52.7744 966.091 52.549 965.93 Q52.3236 965.769 52.3236 965.318 Q52.3236 964.513 52.9677 964.513 Q56.929 965.318 59.4411 966.51 Q63.1447 968.249 63.1447 971.469 Q63.1447 973.885 61.47 975.688 Q59.7631 977.46 57.0578 977.46 Q56.0272 977.46 54.8034 977.138 L21.8246 968.829 L20.5364 968.603 Q20.1821 968.603 19.9889 968.732 Q19.7956 968.861 19.6024 969.634 Q19.4092 970.374 19.4092 971.856 Q19.4092 972.468 19.377 972.758 Q19.3448 973.015 19.1837 973.273 Q19.0227 973.498 18.6684 973.498 Q18.0887 973.498 17.7667 973.273 Q17.4446 973.015 17.3802 972.822 Q17.3158 972.629 17.2836 972.242 Q17.2514 971.695 17.0904 969.859 Q16.8971 968.023 16.7683 966.445 Q16.6395 964.867 16.6395 964.191 Q16.6395 963.804 16.8327 963.611 Q16.9937 963.386 17.187 963.354 L17.348 963.354 Z" fill="#000000" fill-rule="nonzero" fill-opacity="1" /><path clip-path="url(#clip680)" d="M44.4009 927.645 Q47.9114 927.645 51.3896 929.191 Q54.8356 930.737 57.4121 933.217 Q59.9564 935.664 61.5666 938.885 Q63.1447 942.105 63.1447 945.326 Q63.1447 949.932 60.0208 952.927 Q56.8646 955.89 51.9693 955.89 Q47.3961 955.89 43.0483 953.345 Q38.6683 950.769 35.963 946.647 Q33.2577 942.524 33.2577 938.209 Q33.2577 933.668 36.3173 930.672 Q39.3768 927.645 44.4009 927.645 M41.8245 932.476 Q38.7005 932.476 36.7037 933.99 Q34.707 935.503 34.707 938.273 Q34.707 939.078 34.9646 940.012 Q35.19 940.946 35.802 942.17 Q36.4139 943.362 37.7021 944.714 Q38.9581 946.035 40.7617 947.194 Q43.1449 948.708 47.5249 949.867 Q51.8727 950.994 54.4814 950.994 Q58.0884 950.994 59.8919 949.32 Q61.6633 947.645 61.6633 945.262 Q61.6633 942.943 60.053 940.495 Q58.4105 938.015 55.6086 936.308 Q52.71 934.602 48.4589 933.539 Q44.1755 932.476 41.8245 932.476 Z" fill="#000000" fill-rule="nonzero" fill-opacity="1" /><path clip-path="url(#clip680)" d="M36.3495 896.317 Q36.3817 896.317 37.5411 896.51 L66.8162 903.853 Q68.3621 904.24 69.908 905.335 Q71.4861 906.397 72.8387 908.104 Q74.2236 909.779 75.0609 912.355 Q75.9305 914.9 75.9305 917.83 Q75.9305 922.5 74.9321 924.561 Q73.9659 926.59 71.9047 926.59 Q70.1012 926.59 69.0706 925.463 Q68.0722 924.336 68.0722 923.048 Q68.0722 921.824 68.7808 921.18 Q69.4893 920.536 70.3911 920.536 Q71.3894 920.536 72.3878 921.212 Q73.4184 921.888 73.8049 923.241 Q74.4812 921.083 74.4812 917.959 Q74.4812 911.357 67.4925 908.523 Q67.3959 908.458 67.3637 908.458 L58.6359 906.268 L58.5715 906.365 Q59.2156 906.913 59.9564 907.782 Q60.6649 908.62 61.5344 910.423 Q62.404 912.227 62.404 913.998 Q62.404 917.702 59.5699 920.246 Q56.7036 922.758 51.9693 922.758 Q48.5233 922.758 45.0772 921.373 Q41.599 919.956 39.0548 917.766 Q36.4783 915.544 34.868 912.71 Q33.2577 909.843 33.2577 907.074 Q33.2577 905.141 34.4171 903.499 Q35.5443 901.856 37.4123 900.955 Q35.8664 900.793 35.2223 899.924 Q34.5781 899.022 34.5781 898.249 Q34.5781 897.38 35.0612 896.864 Q35.5121 896.317 36.3495 896.317 M40.3752 901.727 Q40.182 901.727 39.6667 901.856 Q39.1192 901.985 38.2496 902.372 Q37.38 902.726 36.6071 903.273 Q35.8342 903.821 35.2867 904.819 Q34.707 905.785 34.707 907.009 Q34.707 909.006 36.3817 911.003 Q38.0242 913 40.5684 914.384 Q43.0161 915.673 47.7503 916.896 Q52.4846 918.088 54.9 918.088 Q57.2833 918.088 59.119 917.057 Q60.9547 916.027 60.9547 913.805 Q60.9547 911.228 58.5715 908.458 Q56.0917 905.592 53.9661 905.109 L41.3736 901.921 Q40.6006 901.727 40.3752 901.727 Z" fill="#000000" fill-rule="nonzero" fill-opacity="1" /><path clip-path="url(#clip680)" d="M45.9146 887.273 Q34.7714 887.273 25.7859 883.119 Q22.0179 881.348 18.8617 878.868 Q15.7055 876.388 14.3207 874.745 Q12.9358 873.103 12.9358 872.652 Q12.9358 872.008 13.5799 871.976 Q13.902 871.976 14.7071 872.845 Q25.5283 883.473 45.9146 883.441 Q66.3653 883.441 76.7678 873.103 Q77.895 871.976 78.2493 871.976 Q78.8934 871.976 78.8934 872.652 Q78.8934 873.103 77.573 874.681 Q76.2525 876.259 73.2252 878.707 Q70.1978 881.154 66.4941 882.926 Q57.5087 887.273 45.9146 887.273 Z" fill="#000000" fill-rule="nonzero" fill-opacity="1" /><path clip-path="url(#clip680)" d="M86.2004 861.946 L35.1735 861.946 Q33.14 861.946 33.14 860.849 Q33.14 859.752 34.7722 859.752 L85.799 859.752 Q87.8326 859.752 87.8326 860.849 Q87.8326 861.946 86.2004 861.946 Z" fill="#000000" fill-rule="nonzero" fill-opacity="1" /><path clip-path="url(#clip680)" d="M33.9662 805.109 L70.6487 814.223 Q71.8081 814.481 72.098 814.481 Q72.4844 814.481 72.6455 814.385 Q72.8387 814.256 72.9997 813.547 Q73.1608 812.806 73.1608 811.325 Q73.1608 810.777 73.1608 810.584 Q73.1608 810.391 73.2252 810.101 Q73.2896 809.811 73.4506 809.715 Q73.6116 809.618 73.8693 809.618 Q75.1897 809.618 75.1897 810.777 Q75.1897 811.872 75.0931 814.159 Q74.9965 816.446 74.9965 817.573 Q74.9965 818.668 75.0931 820.89 Q75.1897 823.112 75.1897 824.175 Q75.1897 824.562 74.9965 824.787 Q74.8355 825.012 74.6422 825.012 L74.4812 825.045 Q73.5794 825.045 73.354 824.69 Q73.1608 824.336 73.1608 823.531 Q73.1286 820.761 72.7421 819.956 Q72.3556 819.151 70.9708 818.764 L59.1834 815.802 Q63.1447 819.763 63.1447 823.595 Q63.1447 827.299 60.2462 829.811 Q57.3155 832.291 52.5812 832.291 Q49.0708 832.291 45.5281 830.906 Q41.9855 829.489 39.3124 827.299 Q36.6393 825.077 34.9646 822.178 Q33.2577 819.28 33.2577 816.413 Q33.2577 814.578 34.3205 812.935 Q35.3833 811.261 37.8631 810.262 Q36.4461 809.425 34.9002 807.879 Q33.3221 806.333 33.3221 805.786 Q33.3221 805.463 33.5475 805.302 Q33.7408 805.109 33.9662 805.109 M40.504 811.196 Q40.182 811.196 39.3768 811.454 Q38.5717 811.679 37.4767 812.195 Q36.3495 812.678 35.5443 813.805 Q34.707 814.932 34.707 816.413 Q34.707 818.539 36.7681 820.826 Q38.7971 823.08 42.3397 824.562 Q44.6586 825.496 48.9742 826.558 Q53.2897 827.621 55.4797 827.621 Q55.995 827.621 56.5747 827.589 Q57.1544 827.524 58.1206 827.267 Q59.0868 827.009 59.8275 826.623 Q60.5683 826.204 61.1158 825.367 Q61.6633 824.529 61.6633 823.402 Q61.6633 820.954 59.5699 818.507 Q57.4765 816.059 55.6086 815.029 Q55.4153 814.9 48.1046 813.064 Q40.7939 811.196 40.504 811.196 Z" fill="#000000" fill-rule="nonzero" fill-opacity="1" /><path clip-path="url(#clip680)" d="M80.5823 760.5 Q80.7627 760.5 81.4615 760.703 Q82.1604 760.906 83.2425 761.402 Q84.3247 761.875 85.3166 762.552 Q86.286 763.205 87.0074 764.287 Q87.7063 765.347 87.7063 766.564 Q87.7063 768.188 86.6241 769.27 Q85.542 770.352 83.9189 770.352 Q83.0396 770.352 81.3714 769.743 Q73.7515 766.88 71.0236 766.88 Q67.7998 766.88 67.7998 769.382 Q67.7998 770.803 68.386 772.088 Q68.9721 773.373 69.7837 774.207 Q70.5953 775.041 71.5196 775.695 Q72.4439 776.349 73.0526 776.642 Q73.6613 776.912 73.9318 776.98 L85.0686 779.753 Q86.0155 779.978 86.4663 780.136 Q86.9172 780.294 87.3005 780.722 Q87.7063 781.15 87.7063 781.827 Q87.7063 782.39 87.3681 782.796 Q87.0299 783.179 86.4438 783.179 Q86.3536 783.179 85.8802 783.067 Q85.4068 782.954 84.753 782.796 Q84.0992 782.638 83.716 782.571 Q80.65 781.759 80.2216 781.646 L74.8561 780.361 Q72.1959 779.663 71.0236 779.663 Q67.7998 779.663 67.7998 782.165 Q67.7998 783.405 68.2732 784.577 Q68.7241 785.727 69.3554 786.516 Q69.9866 787.305 70.8658 788.026 Q71.7225 788.725 72.3086 789.086 Q72.8722 789.424 73.4358 789.695 L75.7353 790.281 Q76.3666 790.416 78.8239 791.07 L82.9945 792.084 Q86.1056 792.806 86.3987 792.964 Q87.0299 793.189 87.3681 793.685 Q87.7063 794.181 87.7063 794.677 Q87.7063 795.241 87.3681 795.624 Q87.0299 796.007 86.4438 796.007 Q86.3536 796.007 86.0155 795.939 Q85.6773 795.872 85.2039 795.759 Q84.7304 795.646 84.4599 795.601 L73.7966 792.919 Q71.8578 792.423 71.2491 792.31 Q70.6178 792.175 69.919 792.175 Q67.7998 792.175 67.7998 793.617 Q67.7998 794.79 69.1976 795.556 Q70.5953 796.323 73.3006 796.976 Q74.0445 797.179 74.2023 797.315 Q74.3602 797.427 74.3602 797.765 Q74.3376 798.329 73.8867 798.329 Q73.774 798.329 73.0526 798.149 Q72.3312 797.968 71.2491 797.63 Q70.1444 797.27 69.423 796.886 Q68.9496 796.661 68.634 796.458 Q68.3183 796.255 67.8224 795.849 Q67.3264 795.443 67.0559 794.835 Q66.7853 794.226 66.7853 793.482 Q66.7853 791.836 67.8449 790.619 Q68.9045 789.379 70.7982 789.221 Q66.7853 786.223 66.7853 782.03 Q66.7853 779.663 67.9802 778.242 Q69.1299 776.912 71.2491 776.754 Q66.7853 773.643 66.7853 769.225 Q66.7853 766.677 68.1154 765.302 Q69.423 763.927 71.7225 763.927 Q72.9173 763.927 75.1943 764.535 Q77.4487 765.144 78.5759 765.55 Q79.7031 765.956 81.8673 766.745 Q83.9414 767.579 85.1588 767.579 Q85.9478 767.579 86.3085 767.308 Q86.6692 767.038 86.6692 766.452 Q86.6692 765.55 86.1507 764.761 Q85.6097 763.972 84.7304 763.408 Q83.8287 762.822 82.9269 762.439 Q82.0026 762.056 80.9656 761.763 Q80.402 761.582 80.2667 761.492 Q80.1314 761.379 80.1314 761.064 Q80.1314 760.5 80.5823 760.5 Z" fill="#000000" fill-rule="nonzero" fill-opacity="1" /><path clip-path="url(#clip680)" d="M80.5823 736.481 Q83.4905 737.09 85.1588 737.879 Q87.7063 739.141 87.7063 741.283 Q87.7063 742.906 86.7143 744.056 Q85.7224 745.205 84.2345 745.476 Q87.7063 748.429 87.7063 751.495 Q87.7063 754.201 85.6548 755.914 Q83.5807 757.627 80.3118 757.627 Q77.0204 757.627 73.8642 756.004 Q70.708 754.358 68.7467 751.766 Q66.7853 749.173 66.7853 746.513 Q66.7853 743.695 69.7386 742.252 Q68.927 742.139 68.3183 741.621 Q67.7096 741.102 67.7096 740.313 Q67.7096 739.705 68.0478 739.344 Q68.3634 738.983 68.9496 738.983 Q69.2426 738.983 70.5277 739.299 L76.9753 740.967 L81.1459 741.982 Q82.6789 742.365 83.2425 742.478 Q83.8061 742.568 84.5501 742.568 Q86.6692 742.568 86.6692 741.193 Q86.6692 740.516 86.2409 739.975 Q85.8126 739.434 84.9108 739.006 Q84.009 738.577 83.1749 738.307 Q82.3182 738.036 80.9656 737.676 Q80.4245 737.563 80.2893 737.473 Q80.1314 737.36 80.1314 737.044 Q80.1314 736.481 80.5823 736.481 M71.8578 742.816 Q71.6549 742.816 71.0913 742.974 Q70.5277 743.131 69.7386 743.492 Q68.9496 743.853 68.386 744.642 Q67.7998 745.408 67.7998 746.445 Q67.7998 747.843 68.9947 749.308 Q70.1895 750.751 72.2185 751.811 Q73.8416 752.622 77.2458 753.502 Q80.65 754.358 82.3408 754.358 Q83.3778 754.358 84.3021 754.133 Q85.2039 753.885 85.9478 753.186 Q86.6692 752.487 86.6692 751.405 Q86.6692 748.767 83.4003 746.175 Q82.8367 745.679 82.6113 745.566 Q82.3633 745.431 81.687 745.251 L72.6468 742.951 Q71.9705 742.816 71.8578 742.816 Z" fill="#000000" fill-rule="nonzero" fill-opacity="1" /><path clip-path="url(#clip680)" d="M69.8288 711.559 Q71.0913 711.559 71.8127 712.348 Q72.5115 713.137 72.5115 714.039 Q72.5115 714.895 72.0156 715.346 Q71.5196 715.797 70.8884 715.797 Q70.0317 715.797 69.2877 715.166 Q68.5438 714.535 68.386 713.588 Q67.7998 714.512 67.7998 715.887 Q67.7998 716.789 68.2732 717.578 Q68.7467 718.345 69.3554 718.818 Q69.9641 719.269 70.8433 719.675 Q71.7 720.058 72.2185 720.216 Q72.7144 720.351 73.2555 720.464 L79.5678 722.042 Q82.5662 722.808 83.6258 722.808 Q84.9333 722.808 85.8126 722.177 Q86.6692 721.546 86.6692 720.283 Q86.6692 719.787 86.534 719.224 Q86.3762 718.66 85.9704 717.939 Q85.542 717.195 84.9108 716.541 Q84.257 715.865 83.1524 715.211 Q82.0477 714.557 80.6274 714.129 Q80.1314 713.994 80.1314 713.543 Q80.1314 712.979 80.5823 712.979 Q80.9656 712.979 81.7772 713.295 Q82.5662 713.588 83.6032 714.242 Q84.6177 714.873 85.542 715.707 Q86.4438 716.541 87.075 717.781 Q87.7063 719.021 87.7063 720.374 Q87.7063 722.312 86.6692 723.597 Q85.6322 724.882 84.1894 725.356 Q84.3923 725.469 84.6628 725.626 Q84.9333 725.784 85.542 726.258 Q86.1282 726.708 86.5791 727.227 Q87.0074 727.745 87.3456 728.557 Q87.7063 729.346 87.7063 730.203 Q87.7063 731.285 87.3906 732.254 Q87.075 733.201 86.3536 733.877 Q85.6322 734.554 84.6403 734.554 Q83.5356 734.554 82.7691 733.81 Q81.9801 733.043 81.9801 732.006 Q81.9801 731.353 82.3633 730.834 Q82.7466 730.293 83.5807 730.293 Q84.505 730.293 85.2039 730.924 Q85.9027 731.555 86.0831 732.457 Q86.6692 731.533 86.6692 730.158 Q86.6692 728.67 85.3617 727.497 Q84.0541 726.325 81.8673 725.762 Q76.6146 724.364 74.27 723.823 Q71.9028 723.282 70.8884 723.282 Q69.9415 723.282 69.2877 723.53 Q68.634 723.778 68.3409 724.206 Q68.0253 724.612 67.9125 724.995 Q67.7998 725.356 67.7998 725.762 Q67.7998 726.438 68.0704 727.204 Q68.3409 727.948 68.9721 728.85 Q69.5808 729.729 70.8433 730.563 Q72.1057 731.398 73.8416 731.961 Q74.3602 732.074 74.3602 732.57 Q74.3376 733.111 73.8867 733.111 Q73.5035 733.111 72.7144 732.818 Q71.9028 732.502 70.8884 731.871 Q69.8739 731.217 68.9721 730.383 Q68.0478 729.526 67.4166 728.287 Q66.7853 727.024 66.7853 725.671 Q66.7853 725.063 66.9206 724.477 Q67.0333 723.868 67.3715 723.146 Q67.7096 722.403 68.4536 721.749 Q69.1976 721.095 70.2797 720.689 Q69.7612 720.419 69.2652 720.058 Q68.7692 719.675 68.1605 719.089 Q67.5293 718.48 67.1686 717.646 Q66.7853 716.789 66.7853 715.842 Q66.7853 714.918 67.0333 714.016 Q67.2588 713.114 68.0027 712.348 Q68.7241 711.559 69.8288 711.559 Z" fill="#000000" fill-rule="nonzero" fill-opacity="1" /><path clip-path="url(#clip680)" d="M44.9806 639.522 Q45.3671 639.135 45.9146 639.135 Q46.4621 639.135 46.8486 639.522 Q47.235 639.908 47.235 640.456 L47.235 681.744 Q47.235 682.291 46.8486 682.678 Q46.4621 683.064 45.9146 683.064 Q45.3671 683.064 44.9806 682.678 Q44.5942 682.291 44.5942 681.744 L44.5942 640.456 Q44.5942 639.908 44.9806 639.522 Z" fill="#000000" fill-rule="nonzero" fill-opacity="1" /><path clip-path="url(#clip680)" d="M43.789 579.487 Q48.4911 579.487 53.0321 581.87 Q57.5731 584.221 60.375 587.925 Q63.1447 591.628 63.1447 595.396 Q63.1447 597.651 61.9209 599.165 Q60.6649 600.646 58.8936 601.451 Q61.0836 602.063 66.3331 603.384 Q71.5827 604.704 72.098 604.704 Q72.3878 604.704 72.5166 604.64 Q72.6455 604.575 72.8065 604.285 Q72.9997 603.995 73.0641 603.287 Q73.1608 602.578 73.1608 601.387 Q73.1608 600.775 73.1608 600.549 Q73.193 600.292 73.354 600.066 Q73.515 599.809 73.8693 599.809 Q75.1897 599.809 75.1897 601 Q75.1897 602.063 75.0931 604.253 Q74.9965 606.443 74.9965 607.538 Q74.9965 608.472 75.0931 610.34 Q75.1897 612.208 75.1897 613.078 Q75.1897 613.947 74.4168 613.947 Q73.9659 613.947 73.6761 613.818 Q73.4184 613.722 73.2896 613.464 Q73.193 613.206 73.1608 612.981 Q73.1608 612.788 73.1608 612.401 Q73.1608 610.92 72.9031 610.276 Q72.6777 609.631 72.1946 609.406 Q71.7437 609.148 70.4555 608.859 L41.0837 601.451 Q39.1192 601 37.7343 601 Q35.9952 601 35.3511 601.548 Q34.707 602.095 34.707 603.061 Q34.707 604.736 36.7037 605.831 Q38.7005 606.926 42.5652 607.86 Q43.628 608.15 43.8534 608.343 Q44.0789 608.504 44.0789 608.987 Q44.0467 609.793 43.4025 609.793 Q43.2415 609.793 42.2109 609.535 Q41.1481 609.277 39.6023 608.794 Q38.0242 608.279 37.0258 607.731 Q36.3495 607.409 35.8986 607.119 Q35.4477 606.83 34.7392 606.25 Q34.0306 605.638 33.6442 604.768 Q33.2577 603.899 33.2577 602.836 Q33.2577 600.775 34.4815 599.068 Q35.7053 597.361 38.1852 596.91 Q36.0274 595.074 34.6425 592.82 Q33.2577 590.566 33.2577 588.279 Q33.2577 584.479 36.2206 581.999 Q39.1514 579.487 43.789 579.487 M40.8905 584.253 Q37.9598 584.253 36.3495 585.38 Q34.707 586.475 34.707 588.472 Q34.707 590.952 37.219 593.818 Q39.6023 596.653 41.8245 597.232 L54.739 600.485 L55.8018 600.678 Q55.995 600.678 56.5747 600.582 Q57.1222 600.453 58.024 600.099 Q58.9258 599.712 59.7309 599.197 Q60.5039 598.649 61.0836 597.683 Q61.6633 596.685 61.6633 595.461 Q61.6633 593.496 59.9241 591.371 Q58.185 589.213 54.9 587.603 Q52.7744 586.604 48.2012 585.445 Q43.5958 584.253 40.8905 584.253 Z" fill="#000000" fill-rule="nonzero" fill-opacity="1" /><path clip-path="url(#clip680)" d="M81.8448 554.995 Q82.0477 554.814 82.2506 554.814 Q82.4535 554.814 83.0396 555.265 Q83.6258 555.694 84.4148 556.618 Q85.2039 557.542 85.9478 558.737 Q86.6918 559.932 87.1878 561.69 Q87.7063 563.449 87.7063 565.297 Q87.7063 568.747 85.4293 570.776 Q83.1524 572.782 79.8835 572.782 Q76.7047 572.782 73.6613 571.001 Q70.5953 569.22 68.7016 566.334 Q66.7853 563.449 66.7853 560.405 Q66.7853 557.993 67.9125 556.483 Q69.0397 554.972 70.7531 554.972 Q72.0832 554.972 72.8948 555.739 Q73.7064 556.505 73.7064 557.542 Q73.7064 558.264 73.3006 558.76 Q72.8722 559.256 72.0832 559.256 Q71.0687 559.256 70.2797 558.421 Q69.9641 558.106 69.8288 557.745 Q69.671 557.362 69.671 557.136 Q69.6484 556.911 69.6484 556.393 Q68.7692 556.866 68.2958 557.993 Q67.7998 559.098 67.7998 560.36 Q67.7998 562.231 69.1074 564.012 Q70.3924 565.793 72.4214 566.876 Q74.4052 567.958 77.2233 568.656 Q80.0187 569.355 81.6419 569.355 Q83.8738 569.355 85.2715 568.318 Q86.6692 567.281 86.6692 565.207 Q86.6692 564.801 86.6467 564.373 Q86.6241 563.922 86.3762 562.795 Q86.1282 561.645 85.6998 560.631 Q85.2715 559.616 84.3472 558.331 Q83.4003 557.024 82.1153 555.987 Q81.6419 555.626 81.6419 555.378 Q81.6419 555.175 81.8448 554.995 Z" fill="#000000" fill-rule="nonzero" fill-opacity="1" /><path clip-path="url(#clip680)" d="M86.2004 540.907 L35.1735 540.907 Q33.14 540.907 33.14 539.81 Q33.14 538.713 34.7722 538.713 L85.799 538.713 Q87.8326 538.713 87.8326 539.81 Q87.8326 540.907 86.2004 540.907 Z" fill="#000000" fill-rule="nonzero" fill-opacity="1" /><path clip-path="url(#clip680)" d="M78.2493 518.292 Q77.9272 518.292 77.1221 517.454 Q66.3009 506.826 45.9146 506.826 Q25.4639 506.826 15.1258 517.036 Q13.9342 518.292 13.5799 518.292 Q12.9358 518.292 12.9358 517.648 Q12.9358 517.197 14.2562 515.619 Q15.5767 514.008 18.604 511.593 Q21.6314 509.145 25.3351 507.342 Q34.3205 502.994 45.9146 502.994 Q57.0578 502.994 66.0433 507.148 Q69.8113 508.92 72.9675 511.4 Q76.1237 513.879 77.5086 515.522 Q78.8934 517.164 78.8934 517.648 Q78.8934 518.292 78.2493 518.292 Z" fill="#000000" fill-rule="nonzero" fill-opacity="1" /><circle clip-path="url(#clip682)" cx="318.467" cy="86.1857" r="14.4" fill="#008000" fill-rule="evenodd" fill-opacity="1" stroke="#000000" stroke-opacity="1" stroke-width="3.2"/>
<circle clip-path="url(#clip682)" cx="913.013" cy="668.277" r="14.4" fill="#008000" fill-rule="evenodd" fill-opacity="1" stroke="#000000" stroke-opacity="1" stroke-width="3.2"/>
<circle clip-path="url(#clip682)" cx="1260.8" cy="765.941" r="14.4" fill="#008000" fill-rule="evenodd" fill-opacity="1" stroke="#000000" stroke-opacity="1" stroke-width="3.2"/>
<circle clip-path="url(#clip682)" cx="1507.56" cy="961.442" r="14.4" fill="#008000" fill-rule="evenodd" fill-opacity="1" stroke="#000000" stroke-opacity="1" stroke-width="3.2"/>
<circle clip-path="url(#clip682)" cx="1698.96" cy="927.547" r="14.4" fill="#008000" fill-rule="evenodd" fill-opacity="1" stroke="#000000" stroke-opacity="1" stroke-width="3.2"/>
<circle clip-path="url(#clip682)" cx="1855.35" cy="1161.3" r="14.4" fill="#008000" fill-rule="evenodd" fill-opacity="1" stroke="#000000" stroke-opacity="1" stroke-width="3.2"/>
<circle clip-path="url(#clip682)" cx="2102.1" cy="1209.23" r="14.4" fill="#008000" fill-rule="evenodd" fill-opacity="1" stroke="#000000" stroke-opacity="1" stroke-width="3.2"/>
<circle clip-path="url(#clip682)" cx="2203.13" cy="1376.77" r="14.4" fill="#008000" fill-rule="evenodd" fill-opacity="1" stroke="#000000" stroke-opacity="1" stroke-width="3.2"/>
<circle clip-path="url(#clip682)" cx="2293.5" cy="1345.89" r="14.4" fill="#008000" fill-rule="evenodd" fill-opacity="1" stroke="#000000" stroke-opacity="1" stroke-width="3.2"/>
<polyline clip-path="url(#clip682)" style="stroke:#ff0000; stroke-linecap:round; stroke-linejoin:round; stroke-width:4; stroke-opacity:1; fill:none" points="318.467,180.231 913.013,542.673 1260.8,754.688 1507.56,905.116 1698.96,1021.8 1855.35,1117.13 2102.1,1267.56 2203.13,1329.15 2293.5,1384.24 "/>
<path clip-path="url(#clip680)" d="M1608.43 248.629 L2282.97 248.629 L2282.97 93.1086 L1608.43 93.1086  Z" fill="#ffffff" fill-rule="evenodd" fill-opacity="1"/>
<polyline clip-path="url(#clip680)" style="stroke:#000000; stroke-linecap:round; stroke-linejoin:round; stroke-width:4; stroke-opacity:1; fill:none" points="1608.43,248.629 2282.97,248.629 2282.97,93.1086 1608.43,93.1086 1608.43,248.629 "/>
<circle clip-path="url(#clip680)" cx="1701.48" cy="144.949" r="20.48" fill="#008000" fill-rule="evenodd" fill-opacity="1" stroke="#000000" stroke-opacity="1" stroke-width="4.55111"/>
<path clip-path="url(#clip680)" d="M1794.53 127.669 L1799.2 127.669 L1799.2 141.835 L1816.19 141.835 L1816.19 127.669 L1820.87 127.669 L1820.87 162.229 L1816.19 162.229 L1816.19 145.77 L1799.2 145.77 L1799.2 162.229 L1794.53 162.229 L1794.53 127.669 Z" fill="#000000" fill-rule="nonzero" fill-opacity="1" /><path clip-path="url(#clip680)" d="M1840.04 139.289 Q1836.61 139.289 1834.62 141.974 Q1832.63 144.636 1832.63 149.289 Q1832.63 153.942 1834.6 156.627 Q1836.59 159.289 1840.04 159.289 Q1843.44 159.289 1845.43 156.604 Q1847.42 153.918 1847.42 149.289 Q1847.42 144.682 1845.43 141.997 Q1843.44 139.289 1840.04 139.289 M1840.04 135.678 Q1845.59 135.678 1848.76 139.289 Q1851.93 142.9 1851.93 149.289 Q1851.93 155.655 1848.76 159.289 Q1845.59 162.9 1840.04 162.9 Q1834.46 162.9 1831.29 159.289 Q1828.14 155.655 1828.14 149.289 Q1828.14 142.9 1831.29 139.289 Q1834.46 135.678 1840.04 135.678 Z" fill="#000000" fill-rule="nonzero" fill-opacity="1" /><path clip-path="url(#clip680)" d="M1880.55 146.581 L1880.55 162.229 L1876.29 162.229 L1876.29 146.719 Q1876.29 143.039 1874.85 141.21 Q1873.42 139.382 1870.55 139.382 Q1867.1 139.382 1865.11 141.581 Q1863.11 143.78 1863.11 147.576 L1863.11 162.229 L1858.83 162.229 L1858.83 136.303 L1863.11 136.303 L1863.11 140.331 Q1864.64 137.993 1866.7 136.835 Q1868.79 135.678 1871.49 135.678 Q1875.96 135.678 1878.25 138.456 Q1880.55 141.21 1880.55 146.581 Z" fill="#000000" fill-rule="nonzero" fill-opacity="1" /><path clip-path="url(#clip680)" d="M1911.22 148.201 L1911.22 150.284 L1891.63 150.284 Q1891.91 154.682 1894.27 156.997 Q1896.66 159.289 1900.89 159.289 Q1903.35 159.289 1905.64 158.687 Q1907.95 158.085 1910.22 156.881 L1910.22 160.909 Q1907.93 161.881 1905.52 162.391 Q1903.11 162.9 1900.64 162.9 Q1894.43 162.9 1890.8 159.289 Q1887.19 155.678 1887.19 149.52 Q1887.19 143.155 1890.61 139.428 Q1894.06 135.678 1899.9 135.678 Q1905.13 135.678 1908.16 139.057 Q1911.22 142.414 1911.22 148.201 M1906.96 146.951 Q1906.91 143.456 1904.99 141.372 Q1903.09 139.289 1899.94 139.289 Q1896.38 139.289 1894.23 141.303 Q1892.1 143.317 1891.77 146.974 L1906.96 146.951 Z" fill="#000000" fill-rule="nonzero" fill-opacity="1" /><path clip-path="url(#clip680)" d="M1928.99 164.636 Q1927.19 169.266 1925.48 170.678 Q1923.76 172.09 1920.89 172.09 L1917.49 172.09 L1917.49 168.525 L1919.99 168.525 Q1921.75 168.525 1922.72 167.692 Q1923.69 166.858 1924.87 163.756 L1925.64 161.812 L1915.15 136.303 L1919.67 136.303 L1927.77 156.581 L1935.87 136.303 L1940.38 136.303 L1928.99 164.636 Z" fill="#000000" fill-rule="nonzero" fill-opacity="1" /><path clip-path="url(#clip680)" d="M1964.92 137.298 L1964.92 141.28 Q1963.11 140.284 1961.29 139.798 Q1959.48 139.289 1957.63 139.289 Q1953.48 139.289 1951.19 141.928 Q1948.9 144.544 1948.9 149.289 Q1948.9 154.034 1951.19 156.673 Q1953.48 159.289 1957.63 159.289 Q1959.48 159.289 1961.29 158.803 Q1963.11 158.293 1964.92 157.298 L1964.92 161.233 Q1963.14 162.067 1961.22 162.483 Q1959.32 162.9 1957.17 162.9 Q1951.31 162.9 1947.86 159.219 Q1944.41 155.539 1944.41 149.289 Q1944.41 142.946 1947.88 139.312 Q1951.38 135.678 1957.44 135.678 Q1959.41 135.678 1961.29 136.095 Q1963.16 136.488 1964.92 137.298 Z" fill="#000000" fill-rule="nonzero" fill-opacity="1" /><path clip-path="url(#clip680)" d="M1982.37 139.289 Q1978.95 139.289 1976.96 141.974 Q1974.97 144.636 1974.97 149.289 Q1974.97 153.942 1976.93 156.627 Q1978.92 159.289 1982.37 159.289 Q1985.78 159.289 1987.77 156.604 Q1989.76 153.918 1989.76 149.289 Q1989.76 144.682 1987.77 141.997 Q1985.78 139.289 1982.37 139.289 M1982.37 135.678 Q1987.93 135.678 1991.1 139.289 Q1994.27 142.9 1994.27 149.289 Q1994.27 155.655 1991.1 159.289 Q1987.93 162.9 1982.37 162.9 Q1976.79 162.9 1973.62 159.289 Q1970.48 155.655 1970.48 149.289 Q1970.48 142.9 1973.62 139.289 Q1976.79 135.678 1982.37 135.678 Z" fill="#000000" fill-rule="nonzero" fill-opacity="1" /><path clip-path="url(#clip680)" d="M2021.52 141.28 Q2023.11 138.409 2025.34 137.044 Q2027.56 135.678 2030.57 135.678 Q2034.62 135.678 2036.82 138.525 Q2039.02 141.349 2039.02 146.581 L2039.02 162.229 L2034.73 162.229 L2034.73 146.719 Q2034.73 142.993 2033.41 141.187 Q2032.1 139.382 2029.39 139.382 Q2026.08 139.382 2024.16 141.581 Q2022.23 143.78 2022.23 147.576 L2022.23 162.229 L2017.95 162.229 L2017.95 146.719 Q2017.95 142.969 2016.63 141.187 Q2015.31 139.382 2012.56 139.382 Q2009.29 139.382 2007.37 141.604 Q2005.45 143.803 2005.45 147.576 L2005.45 162.229 L2001.17 162.229 L2001.17 136.303 L2005.45 136.303 L2005.45 140.331 Q2006.91 137.946 2008.95 136.812 Q2010.98 135.678 2013.79 135.678 Q2016.61 135.678 2018.58 137.113 Q2020.57 138.548 2021.52 141.28 Z" fill="#000000" fill-rule="nonzero" fill-opacity="1" /><path clip-path="url(#clip680)" d="M2066.12 149.289 Q2066.12 144.59 2064.18 141.928 Q2062.26 139.243 2058.88 139.243 Q2055.5 139.243 2053.55 141.928 Q2051.63 144.59 2051.63 149.289 Q2051.63 153.988 2053.55 156.673 Q2055.5 159.335 2058.88 159.335 Q2062.26 159.335 2064.18 156.673 Q2066.12 153.988 2066.12 149.289 M2051.63 140.238 Q2052.97 137.923 2055.01 136.812 Q2057.07 135.678 2059.92 135.678 Q2064.64 135.678 2067.58 139.428 Q2070.54 143.178 2070.54 149.289 Q2070.54 155.4 2067.58 159.15 Q2064.64 162.9 2059.92 162.9 Q2057.07 162.9 2055.01 161.789 Q2052.97 160.655 2051.63 158.34 L2051.63 162.229 L2047.35 162.229 L2047.35 126.21 L2051.63 126.21 L2051.63 140.238 Z" fill="#000000" fill-rule="nonzero" fill-opacity="1" /><path clip-path="url(#clip680)" d="M2078.69 156.349 L2083.58 156.349 L2083.58 162.229 L2078.69 162.229 L2078.69 156.349 M2078.69 137.715 L2083.58 137.715 L2083.58 143.594 L2078.69 143.594 L2078.69 137.715 Z" fill="#000000" fill-rule="nonzero" fill-opacity="1" /><path clip-path="url(#clip680)" d="M2111.19 149.289 Q2111.19 153.988 2113.11 156.673 Q2115.06 159.335 2118.44 159.335 Q2121.82 159.335 2123.76 156.673 Q2125.71 153.988 2125.71 149.289 Q2125.71 144.59 2123.76 141.928 Q2121.82 139.243 2118.44 139.243 Q2115.06 139.243 2113.11 141.928 Q2111.19 144.59 2111.19 149.289 M2125.71 158.34 Q2124.36 160.655 2122.3 161.789 Q2120.27 162.9 2117.4 162.9 Q2112.7 162.9 2109.73 159.15 Q2106.79 155.4 2106.79 149.289 Q2106.79 143.178 2109.73 139.428 Q2112.7 135.678 2117.4 135.678 Q2120.27 135.678 2122.3 136.812 Q2124.36 137.923 2125.71 140.238 L2125.71 136.303 L2129.97 136.303 L2129.97 172.09 L2125.71 172.09 L2125.71 158.34 Z" fill="#000000" fill-rule="nonzero" fill-opacity="1" /><path clip-path="url(#clip680)" d="M2158.44 170.099 L2158.44 173.409 L2133.81 173.409 L2133.81 170.099 L2158.44 170.099 Z" fill="#000000" fill-rule="nonzero" fill-opacity="1" /><path clip-path="url(#clip680)" d="M2182.63 141.28 Q2184.22 138.409 2186.45 137.044 Q2188.67 135.678 2191.68 135.678 Q2195.73 135.678 2197.93 138.525 Q2200.13 141.349 2200.13 146.581 L2200.13 162.229 L2195.84 162.229 L2195.84 146.719 Q2195.84 142.993 2194.52 141.187 Q2193.21 139.382 2190.5 139.382 Q2187.19 139.382 2185.27 141.581 Q2183.34 143.78 2183.34 147.576 L2183.34 162.229 L2179.06 162.229 L2179.06 146.719 Q2179.06 142.969 2177.74 141.187 Q2176.42 139.382 2173.67 139.382 Q2170.4 139.382 2168.48 141.604 Q2166.56 143.803 2166.56 147.576 L2166.56 162.229 L2162.28 162.229 L2162.28 136.303 L2166.56 136.303 L2166.56 140.331 Q2168.02 137.946 2170.06 136.812 Q2172.09 135.678 2174.9 135.678 Q2177.72 135.678 2179.69 137.113 Q2181.68 138.548 2182.63 141.28 Z" fill="#000000" fill-rule="nonzero" fill-opacity="1" /><path clip-path="url(#clip680)" d="M2220.4 149.196 Q2215.24 149.196 2213.25 150.377 Q2211.26 151.557 2211.26 154.405 Q2211.26 156.673 2212.74 158.016 Q2214.25 159.335 2216.82 159.335 Q2220.36 159.335 2222.49 156.835 Q2224.64 154.312 2224.64 150.145 L2224.64 149.196 L2220.4 149.196 M2228.9 147.437 L2228.9 162.229 L2224.64 162.229 L2224.64 158.293 Q2223.18 160.655 2221.01 161.789 Q2218.83 162.9 2215.68 162.9 Q2211.7 162.9 2209.34 160.678 Q2207 158.432 2207 154.682 Q2207 150.307 2209.92 148.085 Q2212.86 145.863 2218.67 145.863 L2224.64 145.863 L2224.64 145.446 Q2224.64 142.507 2222.7 140.909 Q2220.77 139.289 2217.28 139.289 Q2215.06 139.289 2212.95 139.821 Q2210.84 140.354 2208.9 141.419 L2208.9 137.483 Q2211.24 136.581 2213.44 136.141 Q2215.64 135.678 2217.72 135.678 Q2223.34 135.678 2226.12 138.594 Q2228.9 141.511 2228.9 147.437 Z" fill="#000000" fill-rule="nonzero" fill-opacity="1" /><path clip-path="url(#clip680)" d="M2259.22 136.303 L2249.85 148.919 L2259.71 162.229 L2254.69 162.229 L2247.14 152.043 L2239.59 162.229 L2234.57 162.229 L2244.64 148.664 L2235.43 136.303 L2240.45 136.303 L2247.33 145.539 L2254.2 136.303 L2259.22 136.303 Z" fill="#000000" fill-rule="nonzero" fill-opacity="1" /><polyline clip-path="url(#clip680)" style="stroke:#ff0000; stroke-linecap:round; stroke-linejoin:round; stroke-width:4; stroke-opacity:1; fill:none" points="1631.7,196.789 1771.27,196.789 "/>
<path clip-path="url(#clip680)" d="M1799.2 197.564 L1799.2 210.226 L1806.7 210.226 Q1810.48 210.226 1812.28 208.675 Q1814.11 207.101 1814.11 203.883 Q1814.11 200.643 1812.28 199.115 Q1810.48 197.564 1806.7 197.564 L1799.2 197.564 M1799.2 183.351 L1799.2 193.768 L1806.12 193.768 Q1809.55 193.768 1811.22 192.495 Q1812.91 191.198 1812.91 188.559 Q1812.91 185.944 1811.22 184.647 Q1809.55 183.351 1806.12 183.351 L1799.2 183.351 M1794.53 179.509 L1806.47 179.509 Q1811.82 179.509 1814.71 181.731 Q1817.61 183.953 1817.61 188.05 Q1817.61 191.222 1816.12 193.097 Q1814.64 194.971 1811.77 195.434 Q1815.22 196.175 1817.12 198.536 Q1819.04 200.874 1819.04 204.393 Q1819.04 209.022 1815.89 211.545 Q1812.74 214.069 1806.93 214.069 L1794.53 214.069 L1794.53 179.509 Z" fill="#000000" fill-rule="nonzero" fill-opacity="1" /><path clip-path="url(#clip680)" d="M1849.04 200.041 L1849.04 202.124 L1829.46 202.124 Q1829.74 206.522 1832.1 208.837 Q1834.48 211.129 1838.72 211.129 Q1841.17 211.129 1843.46 210.527 Q1845.78 209.925 1848.05 208.721 L1848.05 212.749 Q1845.75 213.721 1843.35 214.231 Q1840.94 214.74 1838.46 214.74 Q1832.26 214.74 1828.62 211.129 Q1825.01 207.518 1825.01 201.36 Q1825.01 194.995 1828.44 191.268 Q1831.89 187.518 1837.72 187.518 Q1842.95 187.518 1845.99 190.897 Q1849.04 194.254 1849.04 200.041 M1844.78 198.791 Q1844.74 195.296 1842.81 193.212 Q1840.92 191.129 1837.77 191.129 Q1834.2 191.129 1832.05 193.143 Q1829.92 195.157 1829.6 198.814 L1844.78 198.791 Z" fill="#000000" fill-rule="nonzero" fill-opacity="1" /><path clip-path="url(#clip680)" d="M1872.56 188.907 L1872.56 192.934 Q1870.75 192.009 1868.81 191.546 Q1866.86 191.083 1864.78 191.083 Q1861.61 191.083 1860.01 192.055 Q1858.44 193.027 1858.44 194.971 Q1858.44 196.453 1859.57 197.309 Q1860.71 198.143 1864.13 198.907 L1865.59 199.231 Q1870.13 200.203 1872.03 201.985 Q1873.95 203.745 1873.95 206.916 Q1873.95 210.527 1871.08 212.633 Q1868.23 214.74 1863.23 214.74 Q1861.15 214.74 1858.88 214.323 Q1856.63 213.93 1854.13 213.12 L1854.13 208.721 Q1856.49 209.948 1858.79 210.573 Q1861.08 211.175 1863.32 211.175 Q1866.33 211.175 1867.95 210.157 Q1869.57 209.115 1869.57 207.24 Q1869.57 205.504 1868.39 204.578 Q1867.23 203.652 1863.28 202.796 L1861.8 202.448 Q1857.84 201.615 1856.08 199.902 Q1854.32 198.166 1854.32 195.157 Q1854.32 191.499 1856.91 189.509 Q1859.5 187.518 1864.27 187.518 Q1866.63 187.518 1868.72 187.865 Q1870.8 188.212 1872.56 188.907 Z" fill="#000000" fill-rule="nonzero" fill-opacity="1" /><path clip-path="url(#clip680)" d="M1884.94 180.782 L1884.94 188.143 L1893.72 188.143 L1893.72 191.453 L1884.94 191.453 L1884.94 205.527 Q1884.94 208.698 1885.8 209.601 Q1886.68 210.504 1889.34 210.504 L1893.72 210.504 L1893.72 214.069 L1889.34 214.069 Q1884.41 214.069 1882.54 212.24 Q1880.66 210.388 1880.66 205.527 L1880.66 191.453 L1877.54 191.453 L1877.54 188.143 L1880.66 188.143 L1880.66 180.782 L1884.94 180.782 Z" fill="#000000" fill-rule="nonzero" fill-opacity="1" /><path clip-path="url(#clip680)" d="M1927.51 178.05 L1927.51 181.592 L1923.44 181.592 Q1921.15 181.592 1920.24 182.518 Q1919.36 183.444 1919.36 185.851 L1919.36 188.143 L1926.38 188.143 L1926.38 191.453 L1919.36 191.453 L1919.36 214.069 L1915.08 214.069 L1915.08 191.453 L1911.01 191.453 L1911.01 188.143 L1915.08 188.143 L1915.08 186.337 Q1915.08 182.009 1917.1 180.041 Q1919.11 178.05 1923.48 178.05 L1927.51 178.05 Z" fill="#000000" fill-rule="nonzero" fill-opacity="1" /><path clip-path="url(#clip680)" d="M1931.08 188.143 L1935.34 188.143 L1935.34 214.069 L1931.08 214.069 L1931.08 188.143 M1931.08 178.05 L1935.34 178.05 L1935.34 183.444 L1931.08 183.444 L1931.08 178.05 Z" fill="#000000" fill-rule="nonzero" fill-opacity="1" /><path clip-path="url(#clip680)" d="M1948.46 180.782 L1948.46 188.143 L1957.23 188.143 L1957.23 191.453 L1948.46 191.453 L1948.46 205.527 Q1948.46 208.698 1949.32 209.601 Q1950.2 210.504 1952.86 210.504 L1957.23 210.504 L1957.23 214.069 L1952.86 214.069 Q1947.93 214.069 1946.05 212.24 Q1944.18 210.388 1944.18 205.527 L1944.18 191.453 L1941.05 191.453 L1941.05 188.143 L1944.18 188.143 L1944.18 180.782 L1948.46 180.782 Z" fill="#000000" fill-rule="nonzero" fill-opacity="1" /><path clip-path="url(#clip680)" d="M1743.97 287.701 Q1745.48 288.21 1746.89 289.877 Q1748.33 291.543 1749.76 294.46 L1754.51 303.904 L1749.48 303.904 L1745.06 295.039 Q1743.35 291.566 1741.73 290.432 Q1740.13 289.298 1737.35 289.298 L1732.26 289.298 L1732.26 303.904 L1727.59 303.904 L1727.59 269.344 L1738.14 269.344 Q1744.07 269.344 1746.98 271.821 Q1749.9 274.298 1749.9 279.298 Q1749.9 282.562 1748.37 284.715 Q1746.87 286.867 1743.97 287.701 M1732.26 273.187 L1732.26 285.455 L1738.14 285.455 Q1741.52 285.455 1743.23 283.904 Q1744.97 282.33 1744.97 279.298 Q1744.97 276.266 1743.23 274.738 Q1741.52 273.187 1738.14 273.187 L1732.26 273.187 Z" fill="#000000" fill-rule="nonzero" fill-opacity="1" /><path clip-path="url(#clip680)" d="M1778 269.344 L1790.57 282.238 L1785.92 282.238 L1775.73 273.094 L1765.55 282.238 L1760.9 282.238 L1773.47 269.344 L1778 269.344 Z" fill="#000000" fill-rule="nonzero" fill-opacity="1" /><path clip-path="url(#clip680)" d="M1804.69 299.969 L1821.01 299.969 L1821.01 303.904 L1799.07 303.904 L1799.07 299.969 Q1801.73 297.214 1806.31 292.585 Q1810.92 287.932 1812.1 286.59 Q1814.34 284.066 1815.22 282.33 Q1816.13 280.571 1816.13 278.881 Q1816.13 276.127 1814.18 274.391 Q1812.26 272.654 1809.16 272.654 Q1806.96 272.654 1804.51 273.418 Q1802.08 274.182 1799.3 275.733 L1799.3 271.011 Q1802.12 269.877 1804.58 269.298 Q1807.03 268.719 1809.07 268.719 Q1814.44 268.719 1817.63 271.404 Q1820.83 274.09 1820.83 278.58 Q1820.83 280.71 1820.02 282.631 Q1819.23 284.529 1817.12 287.122 Q1816.54 287.793 1813.44 291.011 Q1810.34 294.205 1804.69 299.969 Z" fill="#000000" fill-rule="nonzero" fill-opacity="1" /><path clip-path="url(#clip680)" d="M1831.31 298.025 L1836.2 298.025 L1836.2 303.904 L1831.31 303.904 L1831.31 298.025 M1831.31 279.39 L1836.2 279.39 L1836.2 285.27 L1831.31 285.27 L1831.31 279.39 Z" fill="#000000" fill-rule="nonzero" fill-opacity="1" /><path clip-path="url(#clip680)" d="M1871.87 272.423 Q1868.26 272.423 1866.43 275.988 Q1864.62 279.529 1864.62 286.659 Q1864.62 293.765 1866.43 297.33 Q1868.26 300.872 1871.87 300.872 Q1875.5 300.872 1877.31 297.33 Q1879.14 293.765 1879.14 286.659 Q1879.14 279.529 1877.31 275.988 Q1875.5 272.423 1871.87 272.423 M1871.87 268.719 Q1877.68 268.719 1880.73 273.326 Q1883.81 277.909 1883.81 286.659 Q1883.81 295.386 1880.73 299.992 Q1877.68 304.576 1871.87 304.576 Q1866.06 304.576 1862.98 299.992 Q1859.92 295.386 1859.92 286.659 Q1859.92 277.909 1862.98 273.326 Q1866.06 268.719 1871.87 268.719 Z" fill="#000000" fill-rule="nonzero" fill-opacity="1" /><path clip-path="url(#clip680)" d="M1892.03 298.025 L1896.91 298.025 L1896.91 303.904 L1892.03 303.904 L1892.03 298.025 Z" fill="#000000" fill-rule="nonzero" fill-opacity="1" /><path clip-path="url(#clip680)" d="M1907.24 303.187 L1907.24 298.927 Q1909 299.761 1910.8 300.201 Q1912.61 300.64 1914.34 300.64 Q1918.97 300.64 1921.4 297.539 Q1923.86 294.414 1924.21 288.071 Q1922.86 290.062 1920.8 291.127 Q1918.74 292.191 1916.24 292.191 Q1911.06 292.191 1908.02 289.066 Q1905.02 285.918 1905.02 280.478 Q1905.02 275.154 1908.16 271.937 Q1911.31 268.719 1916.54 268.719 Q1922.54 268.719 1925.69 273.326 Q1928.86 277.909 1928.86 286.659 Q1928.86 294.83 1924.97 299.714 Q1921.1 304.576 1914.55 304.576 Q1912.79 304.576 1910.99 304.228 Q1909.18 303.881 1907.24 303.187 M1916.54 288.534 Q1919.69 288.534 1921.52 286.381 Q1923.37 284.228 1923.37 280.478 Q1923.37 276.752 1921.52 274.599 Q1919.69 272.423 1916.54 272.423 Q1913.4 272.423 1911.54 274.599 Q1909.71 276.752 1909.71 280.478 Q1909.71 284.228 1911.54 286.381 Q1913.4 288.534 1916.54 288.534 Z" fill="#000000" fill-rule="nonzero" fill-opacity="1" /><path clip-path="url(#clip680)" d="M1947.84 284.761 Q1944.69 284.761 1942.84 286.914 Q1941.01 289.066 1941.01 292.816 Q1941.01 296.543 1942.84 298.719 Q1944.69 300.872 1947.84 300.872 Q1950.99 300.872 1952.82 298.719 Q1954.67 296.543 1954.67 292.816 Q1954.67 289.066 1952.82 286.914 Q1950.99 284.761 1947.84 284.761 M1957.12 270.108 L1957.12 274.367 Q1955.36 273.534 1953.56 273.094 Q1951.77 272.654 1950.02 272.654 Q1945.39 272.654 1942.93 275.779 Q1940.5 278.904 1940.15 285.224 Q1941.52 283.21 1943.58 282.145 Q1945.64 281.057 1948.12 281.057 Q1953.33 281.057 1956.33 284.228 Q1959.37 287.377 1959.37 292.816 Q1959.37 298.14 1956.22 301.358 Q1953.07 304.576 1947.84 304.576 Q1941.84 304.576 1938.67 299.992 Q1935.5 295.386 1935.5 286.659 Q1935.5 278.465 1939.39 273.603 Q1943.28 268.719 1949.83 268.719 Q1951.59 268.719 1953.37 269.066 Q1955.18 269.414 1957.12 270.108 Z" fill="#000000" fill-rule="nonzero" fill-opacity="1" /><path clip-path="url(#clip680)" d="M1967.47 269.344 L1985.83 269.344 L1985.83 273.279 L1971.75 273.279 L1971.75 281.752 Q1972.77 281.404 1973.79 281.242 Q1974.81 281.057 1975.83 281.057 Q1981.61 281.057 1984.99 284.228 Q1988.37 287.4 1988.37 292.816 Q1988.37 298.395 1984.9 301.497 Q1981.43 304.576 1975.11 304.576 Q1972.93 304.576 1970.66 304.205 Q1968.42 303.835 1966.01 303.094 L1966.01 298.395 Q1968.09 299.529 1970.32 300.085 Q1972.54 300.64 1975.02 300.64 Q1979.02 300.64 1981.36 298.534 Q1983.7 296.427 1983.7 292.816 Q1983.7 289.205 1981.36 287.099 Q1979.02 284.992 1975.02 284.992 Q1973.14 284.992 1971.27 285.409 Q1969.41 285.826 1967.47 286.705 L1967.47 269.344 Z" fill="#000000" fill-rule="nonzero" fill-opacity="1" /></svg>
