<?xml version="1.0" encoding="utf-8"?>
<svg xmlns="http://www.w3.org/2000/svg" xmlns:xlink="http://www.w3.org/1999/xlink" width="600" height="400" viewBox="0 0 2400 1600">
<defs>
  <clipPath id="clip400">
    <rect x="0" y="0" width="2400" height="1600"/>
  </clipPath>
</defs>
<path clip-path="url(#clip400)" d="M0 1600 L2400 1600 L2400 0 L0 0  Z" fill="#ffffff" fill-rule="evenodd" fill-opacity="1"/>
<defs>
  <clipPath id="clip401">
    <rect x="480" y="0" width="1681" height="1600"/>
  </clipPath>
</defs>
<path clip-path="url(#clip400)" d="M257.204 1423.18 L2352.76 1423.18 L2352.76 47.2441 L257.204 47.2441  Z" fill="#ffffff" fill-rule="evenodd" fill-opacity="1"/>
<defs>
  <clipPath id="clip402">
    <rect x="257" y="47" width="2097" height="1377"/>
  </clipPath>
</defs>
<polyline clip-path="url(#clip402)" style="stroke:#000000; stroke-linecap:round; stroke-linejoin:round; stroke-width:2; stroke-opacity:0.1; fill:none" points="655.502,1423.18 655.502,47.2441 "/>
<polyline clip-path="url(#clip402)" style="stroke:#000000; stroke-linecap:round; stroke-linejoin:round; stroke-width:2; stroke-opacity:0.1; fill:none" points="1084.79,1423.18 1084.79,47.2441 "/>
<polyline clip-path="url(#clip402)" style="stroke:#000000; stroke-linecap:round; stroke-linejoin:round; stroke-width:2; stroke-opacity:0.1; fill:none" points="1514.07,1423.18 1514.07,47.2441 "/>
<polyline clip-path="url(#clip402)" style="stroke:#000000; stroke-linecap:round; stroke-linejoin:round; stroke-width:2; stroke-opacity:0.1; fill:none" points="1943.36,1423.18 1943.36,47.2441 "/>
<polyline clip-path="url(#clip402)" style="stroke:#000000; stroke-linecap:round; stroke-linejoin:round; stroke-width:2; stroke-opacity:0.1; fill:none" points="257.204,1267.71 2352.76,1267.71 "/>
<polyline clip-path="url(#clip402)" style="stroke:#000000; stroke-linecap:round; stroke-linejoin:round; stroke-width:2; stroke-opacity:0.1; fill:none" points="257.204,1047.28 2352.76,1047.28 "/>
<polyline clip-path="url(#clip402)" style="stroke:#000000; stroke-linecap:round; stroke-linejoin:round; stroke-width:2; stroke-opacity:0.1; fill:none" points="257.204,826.86 2352.76,826.86 "/>
<polyline clip-path="url(#clip402)" style="stroke:#000000; stroke-linecap:round; stroke-linejoin:round; stroke-width:2; stroke-opacity:0.1; fill:none" points="257.204,606.435 2352.76,606.435 "/>
<polyline clip-path="url(#clip402)" style="stroke:#000000; stroke-linecap:round; stroke-linejoin:round; stroke-width:2; stroke-opacity:0.1; fill:none" points="257.204,386.011 2352.76,386.011 "/>
<polyline clip-path="url(#clip402)" style="stroke:#000000; stroke-linecap:round; stroke-linejoin:round; stroke-width:2; stroke-opacity:0.1; fill:none" points="257.204,165.586 2352.76,165.586 "/>
<polyline clip-path="url(#clip400)" style="stroke:#000000; stroke-linecap:round; stroke-linejoin:round; stroke-width:4; stroke-opacity:1; fill:none" points="257.204,1423.18 2352.76,1423.18 "/>
<polyline clip-path="url(#clip400)" style="stroke:#000000; stroke-linecap:round; stroke-linejoin:round; stroke-width:4; stroke-opacity:1; fill:none" points="655.502,1423.18 655.502,1404.28 "/>
<polyline clip-path="url(#clip400)" style="stroke:#000000; stroke-linecap:round; stroke-linejoin:round; stroke-width:4; stroke-opacity:1; fill:none" points="1084.79,1423.18 1084.79,1404.28 "/>
<polyline clip-path="url(#clip400)" style="stroke:#000000; stroke-linecap:round; stroke-linejoin:round; stroke-width:4; stroke-opacity:1; fill:none" points="1514.07,1423.18 1514.07,1404.28 "/>
<polyline clip-path="url(#clip400)" style="stroke:#000000; stroke-linecap:round; stroke-linejoin:round; stroke-width:4; stroke-opacity:1; fill:none" points="1943.36,1423.18 1943.36,1404.28 "/>
<path clip-path="url(#clip400)" d="M622.667 1451.02 L641.023 1451.02 L641.023 1454.96 L626.949 1454.96 L626.949 1463.43 Q627.967 1463.08 628.986 1462.92 Q630.004 1462.73 631.023 1462.73 Q636.81 1462.73 640.19 1465.9 Q643.569 1469.08 643.569 1474.49 Q643.569 1480.07 640.097 1483.17 Q636.625 1486.25 630.305 1486.25 Q628.129 1486.25 625.861 1485.88 Q623.616 1485.51 621.208 1484.77 L621.208 1480.07 Q623.292 1481.2 625.514 1481.76 Q627.736 1482.32 630.213 1482.32 Q634.217 1482.32 636.555 1480.21 Q638.893 1478.1 638.893 1474.49 Q638.893 1470.88 636.555 1468.77 Q634.217 1466.67 630.213 1466.67 Q628.338 1466.67 626.463 1467.08 Q624.611 1467.5 622.667 1468.38 L622.667 1451.02 Z" fill="#000000" fill-rule="nonzero" fill-opacity="1" /><path clip-path="url(#clip400)" d="M652.782 1479.7 L657.666 1479.7 L657.666 1485.58 L652.782 1485.58 L652.782 1479.7 Z" fill="#000000" fill-rule="nonzero" fill-opacity="1" /><path clip-path="url(#clip400)" d="M677.851 1454.1 Q674.24 1454.1 672.412 1457.66 Q670.606 1461.2 670.606 1468.33 Q670.606 1475.44 672.412 1479.01 Q674.24 1482.55 677.851 1482.55 Q681.486 1482.55 683.291 1479.01 Q685.12 1475.44 685.12 1468.33 Q685.12 1461.2 683.291 1457.66 Q681.486 1454.1 677.851 1454.1 M677.851 1450.39 Q683.662 1450.39 686.717 1455 Q689.796 1459.58 689.796 1468.33 Q689.796 1477.06 686.717 1481.67 Q683.662 1486.25 677.851 1486.25 Q672.041 1486.25 668.963 1481.67 Q665.907 1477.06 665.907 1468.33 Q665.907 1459.58 668.963 1455 Q672.041 1450.39 677.851 1450.39 Z" fill="#000000" fill-rule="nonzero" fill-opacity="1" /><path clip-path="url(#clip400)" d="M1052.45 1451.02 L1070.81 1451.02 L1070.81 1454.96 L1056.73 1454.96 L1056.73 1463.43 Q1057.75 1463.08 1058.77 1462.92 Q1059.79 1462.73 1060.81 1462.73 Q1066.59 1462.73 1069.97 1465.9 Q1073.35 1469.08 1073.35 1474.49 Q1073.35 1480.07 1069.88 1483.17 Q1066.41 1486.25 1060.09 1486.25 Q1057.91 1486.25 1055.64 1485.88 Q1053.4 1485.51 1050.99 1484.77 L1050.99 1480.07 Q1053.08 1481.2 1055.3 1481.76 Q1057.52 1482.32 1060 1482.32 Q1064 1482.32 1066.34 1480.21 Q1068.68 1478.1 1068.68 1474.49 Q1068.68 1470.88 1066.34 1468.77 Q1064 1466.67 1060 1466.67 Q1058.12 1466.67 1056.25 1467.08 Q1054.39 1467.5 1052.45 1468.38 L1052.45 1451.02 Z" fill="#000000" fill-rule="nonzero" fill-opacity="1" /><path clip-path="url(#clip400)" d="M1082.57 1479.7 L1087.45 1479.7 L1087.45 1485.58 L1082.57 1485.58 L1082.57 1479.7 Z" fill="#000000" fill-rule="nonzero" fill-opacity="1" /><path clip-path="url(#clip400)" d="M1097.68 1451.02 L1116.04 1451.02 L1116.04 1454.96 L1101.96 1454.96 L1101.96 1463.43 Q1102.98 1463.08 1104 1462.92 Q1105.02 1462.73 1106.04 1462.73 Q1111.83 1462.73 1115.2 1465.9 Q1118.58 1469.08 1118.58 1474.49 Q1118.58 1480.07 1115.11 1483.17 Q1111.64 1486.25 1105.32 1486.25 Q1103.14 1486.25 1100.88 1485.88 Q1098.63 1485.51 1096.22 1484.77 L1096.22 1480.07 Q1098.31 1481.2 1100.53 1481.76 Q1102.75 1482.32 1105.23 1482.32 Q1109.23 1482.32 1111.57 1480.21 Q1113.91 1478.1 1113.91 1474.49 Q1113.91 1470.88 1111.57 1468.77 Q1109.23 1466.67 1105.23 1466.67 Q1103.35 1466.67 1101.48 1467.08 Q1099.63 1467.5 1097.68 1468.38 L1097.68 1451.02 Z" fill="#000000" fill-rule="nonzero" fill-opacity="1" /><path clip-path="url(#clip400)" d="M1491.94 1466.44 Q1488.8 1466.44 1486.94 1468.59 Q1485.12 1470.74 1485.12 1474.49 Q1485.12 1478.22 1486.94 1480.39 Q1488.8 1482.55 1491.94 1482.55 Q1495.09 1482.55 1496.92 1480.39 Q1498.77 1478.22 1498.77 1474.49 Q1498.77 1470.74 1496.92 1468.59 Q1495.09 1466.44 1491.94 1466.44 M1501.23 1451.78 L1501.23 1456.04 Q1499.47 1455.21 1497.66 1454.77 Q1495.88 1454.33 1494.12 1454.33 Q1489.49 1454.33 1487.04 1457.45 Q1484.61 1460.58 1484.26 1466.9 Q1485.63 1464.89 1487.69 1463.82 Q1489.75 1462.73 1492.22 1462.73 Q1497.43 1462.73 1500.44 1465.9 Q1503.47 1469.05 1503.47 1474.49 Q1503.47 1479.82 1500.32 1483.03 Q1497.18 1486.25 1491.94 1486.25 Q1485.95 1486.25 1482.78 1481.67 Q1479.61 1477.06 1479.61 1468.33 Q1479.61 1460.14 1483.5 1455.28 Q1487.38 1450.39 1493.94 1450.39 Q1495.69 1450.39 1497.48 1450.74 Q1499.28 1451.09 1501.23 1451.78 Z" fill="#000000" fill-rule="nonzero" fill-opacity="1" /><path clip-path="url(#clip400)" d="M1511.53 1479.7 L1516.41 1479.7 L1516.41 1485.58 L1511.53 1485.58 L1511.53 1479.7 Z" fill="#000000" fill-rule="nonzero" fill-opacity="1" /><path clip-path="url(#clip400)" d="M1536.6 1454.1 Q1532.99 1454.1 1531.16 1457.66 Q1529.35 1461.2 1529.35 1468.33 Q1529.35 1475.44 1531.16 1479.01 Q1532.99 1482.55 1536.6 1482.55 Q1540.23 1482.55 1542.04 1479.01 Q1543.87 1475.44 1543.87 1468.33 Q1543.87 1461.2 1542.04 1457.66 Q1540.23 1454.1 1536.6 1454.1 M1536.6 1450.39 Q1542.41 1450.39 1545.46 1455 Q1548.54 1459.58 1548.54 1468.33 Q1548.54 1477.06 1545.46 1481.67 Q1542.41 1486.25 1536.6 1486.25 Q1530.79 1486.25 1527.71 1481.67 Q1524.65 1477.06 1524.65 1468.33 Q1524.65 1459.58 1527.71 1455 Q1530.79 1450.39 1536.6 1450.39 Z" fill="#000000" fill-rule="nonzero" fill-opacity="1" /><path clip-path="url(#clip400)" d="M1921.73 1466.44 Q1918.58 1466.44 1916.73 1468.59 Q1914.9 1470.74 1914.9 1474.49 Q1914.9 1478.22 1916.73 1480.39 Q1918.58 1482.55 1921.73 1482.55 Q1924.88 1482.55 1926.71 1480.39 Q1928.56 1478.22 1928.56 1474.49 Q1928.56 1470.74 1926.71 1468.59 Q1924.88 1466.44 1921.73 1466.44 M1931.01 1451.78 L1931.01 1456.04 Q1929.25 1455.21 1927.45 1454.77 Q1925.66 1454.33 1923.9 1454.33 Q1919.27 1454.33 1916.82 1457.45 Q1914.39 1460.58 1914.04 1466.9 Q1915.41 1464.89 1917.47 1463.82 Q1919.53 1462.73 1922.01 1462.73 Q1927.21 1462.73 1930.22 1465.9 Q1933.26 1469.05 1933.26 1474.49 Q1933.26 1479.82 1930.11 1483.03 Q1926.96 1486.25 1921.73 1486.25 Q1915.73 1486.25 1912.56 1481.67 Q1909.39 1477.06 1909.39 1468.33 Q1909.39 1460.14 1913.28 1455.28 Q1917.17 1450.39 1923.72 1450.39 Q1925.48 1450.39 1927.26 1450.74 Q1929.07 1451.09 1931.01 1451.78 Z" fill="#000000" fill-rule="nonzero" fill-opacity="1" /><path clip-path="url(#clip400)" d="M1941.31 1479.7 L1946.2 1479.7 L1946.2 1485.58 L1941.31 1485.58 L1941.31 1479.7 Z" fill="#000000" fill-rule="nonzero" fill-opacity="1" /><path clip-path="url(#clip400)" d="M1956.43 1451.02 L1974.78 1451.02 L1974.78 1454.96 L1960.71 1454.96 L1960.71 1463.43 Q1961.73 1463.08 1962.75 1462.92 Q1963.77 1462.73 1964.78 1462.73 Q1970.57 1462.73 1973.95 1465.9 Q1977.33 1469.08 1977.33 1474.49 Q1977.33 1480.07 1973.86 1483.17 Q1970.39 1486.25 1964.07 1486.25 Q1961.89 1486.25 1959.62 1485.88 Q1957.38 1485.51 1954.97 1484.77 L1954.97 1480.07 Q1957.05 1481.2 1959.27 1481.76 Q1961.5 1482.32 1963.97 1482.32 Q1967.98 1482.32 1970.32 1480.21 Q1972.65 1478.1 1972.65 1474.49 Q1972.65 1470.88 1970.32 1468.77 Q1967.98 1466.67 1963.97 1466.67 Q1962.1 1466.67 1960.22 1467.08 Q1958.37 1467.5 1956.43 1468.38 L1956.43 1451.02 Z" fill="#000000" fill-rule="nonzero" fill-opacity="1" /><path clip-path="url(#clip400)" d="M1234.62 1510.81 L1225.12 1548.94 Q1224.74 1550.46 1224.74 1552.1 Q1224.74 1555.13 1226.73 1555.13 Q1227.67 1555.13 1228.44 1554.52 Q1229.21 1553.87 1229.79 1552.61 Q1230.4 1551.33 1230.79 1550.1 Q1231.21 1548.88 1231.72 1546.98 Q1231.89 1546.24 1232.05 1546.01 Q1232.21 1545.79 1232.66 1545.79 Q1233.46 1545.79 1233.46 1546.43 Q1232.66 1550.39 1231.47 1552.9 Q1229.73 1556.61 1226.51 1556.61 Q1224.09 1556.61 1222.29 1554.93 Q1220.52 1553.23 1220.52 1550.52 Q1220.52 1549.49 1220.84 1548.27 L1229.15 1515.29 L1229.37 1514 Q1229.37 1513.65 1229.24 1513.45 Q1229.12 1513.26 1228.34 1513.07 Q1227.6 1512.87 1226.12 1512.87 Q1225.51 1512.87 1225.22 1512.84 Q1224.96 1512.81 1224.7 1512.65 Q1224.48 1512.49 1224.48 1512.13 Q1224.48 1511.55 1224.7 1511.23 Q1224.96 1510.91 1225.15 1510.84 Q1225.35 1510.78 1225.73 1510.75 Q1226.28 1510.72 1228.12 1510.55 Q1229.95 1510.36 1231.53 1510.23 Q1233.11 1510.1 1233.79 1510.1 Q1234.17 1510.1 1234.37 1510.3 Q1234.59 1510.46 1234.62 1510.65 L1234.62 1510.81 Z" fill="#000000" fill-rule="nonzero" fill-opacity="1" /><path clip-path="url(#clip400)" d="M1270.33 1537.86 Q1270.33 1541.38 1268.79 1544.85 Q1267.24 1548.3 1264.76 1550.88 Q1262.31 1553.42 1259.09 1555.03 Q1255.87 1556.61 1252.65 1556.61 Q1248.05 1556.61 1245.05 1553.48 Q1242.09 1550.33 1242.09 1545.43 Q1242.09 1540.86 1244.63 1536.51 Q1247.21 1532.13 1251.33 1529.43 Q1255.45 1526.72 1259.77 1526.72 Q1264.31 1526.72 1267.3 1529.78 Q1270.33 1532.84 1270.33 1537.86 M1265.5 1535.29 Q1265.5 1532.16 1263.99 1530.17 Q1262.47 1528.17 1259.7 1528.17 Q1258.9 1528.17 1257.96 1528.43 Q1257.03 1528.65 1255.81 1529.27 Q1254.62 1529.88 1253.26 1531.17 Q1251.94 1532.42 1250.78 1534.23 Q1249.27 1536.61 1248.11 1540.99 Q1246.98 1545.34 1246.98 1547.95 Q1246.98 1551.55 1248.66 1553.36 Q1250.33 1555.13 1252.71 1555.13 Q1255.03 1555.13 1257.48 1553.52 Q1259.96 1551.87 1261.67 1549.07 Q1263.38 1546.17 1264.44 1541.92 Q1265.5 1537.64 1265.5 1535.29 Z" fill="#000000" fill-rule="nonzero" fill-opacity="1" /><path clip-path="url(#clip400)" d="M1301.66 1529.81 Q1301.66 1529.85 1301.47 1531 L1294.12 1560.28 Q1293.74 1561.83 1292.64 1563.37 Q1291.58 1564.95 1289.87 1566.3 Q1288.2 1567.69 1285.62 1568.52 Q1283.08 1569.39 1280.15 1569.39 Q1275.48 1569.39 1273.42 1568.4 Q1271.39 1567.43 1271.39 1565.37 Q1271.39 1563.56 1272.51 1562.53 Q1273.64 1561.54 1274.93 1561.54 Q1276.15 1561.54 1276.8 1562.24 Q1277.44 1562.95 1277.44 1563.85 Q1277.44 1564.85 1276.76 1565.85 Q1276.09 1566.88 1274.74 1567.27 Q1276.89 1567.94 1280.02 1567.94 Q1286.62 1567.94 1289.45 1560.96 Q1289.52 1560.86 1289.52 1560.83 L1291.71 1552.1 L1291.61 1552.04 Q1291.06 1552.68 1290.19 1553.42 Q1289.36 1554.13 1287.55 1555 Q1285.75 1555.87 1283.98 1555.87 Q1280.28 1555.87 1277.73 1553.03 Q1275.22 1550.17 1275.22 1545.43 Q1275.22 1541.99 1276.6 1538.54 Q1278.02 1535.06 1280.21 1532.52 Q1282.43 1529.94 1285.27 1528.33 Q1288.13 1526.72 1290.9 1526.72 Q1292.84 1526.72 1294.48 1527.88 Q1296.12 1529.01 1297.02 1530.88 Q1297.18 1529.33 1298.05 1528.69 Q1298.95 1528.04 1299.73 1528.04 Q1300.6 1528.04 1301.11 1528.53 Q1301.66 1528.98 1301.66 1529.81 M1296.25 1533.84 Q1296.25 1533.65 1296.12 1533.13 Q1295.99 1532.58 1295.61 1531.71 Q1295.25 1530.84 1294.7 1530.07 Q1294.16 1529.3 1293.16 1528.75 Q1292.19 1528.17 1290.97 1528.17 Q1288.97 1528.17 1286.97 1529.85 Q1284.98 1531.49 1283.59 1534.03 Q1282.3 1536.48 1281.08 1541.21 Q1279.89 1545.95 1279.89 1548.36 Q1279.89 1550.75 1280.92 1552.58 Q1281.95 1554.42 1284.17 1554.42 Q1286.75 1554.42 1289.52 1552.04 Q1292.38 1549.56 1292.87 1547.43 L1296.06 1534.84 Q1296.25 1534.06 1296.25 1533.84 Z" fill="#000000" fill-rule="nonzero" fill-opacity="1" /><path clip-path="url(#clip400)" d="M1310.7 1539.38 Q1310.7 1528.24 1314.86 1519.25 Q1316.63 1515.48 1319.11 1512.33 Q1321.59 1509.17 1323.23 1507.78 Q1324.87 1506.4 1325.32 1506.4 Q1325.97 1506.4 1326 1507.04 Q1326 1507.37 1325.13 1508.17 Q1314.5 1518.99 1314.54 1539.38 Q1314.54 1559.83 1324.87 1570.23 Q1326 1571.36 1326 1571.71 Q1326 1572.36 1325.32 1572.36 Q1324.87 1572.36 1323.3 1571.04 Q1321.72 1569.72 1319.27 1566.69 Q1316.82 1563.66 1315.05 1559.96 Q1310.7 1550.97 1310.7 1539.38 Z" fill="#000000" fill-rule="nonzero" fill-opacity="1" /><path clip-path="url(#clip400)" d="M1358.9 1516.83 Q1358.9 1518.86 1353.04 1518.86 Q1352.05 1518.86 1351.5 1518.83 Q1350.95 1518.77 1350.14 1518.44 Q1349.37 1518.09 1348.82 1517.41 Q1345.35 1519.12 1343.41 1522.34 Q1341.51 1525.56 1341.51 1528.62 Q1341.51 1531.81 1343.48 1533.77 Q1345.93 1532.97 1349.02 1532.97 Q1351.5 1532.97 1352.95 1533.32 Q1354.43 1533.68 1354.43 1534.77 Q1354.43 1535.26 1354.14 1535.64 Q1353.85 1536 1353.24 1536.22 Q1352.66 1536.42 1352.11 1536.54 Q1351.59 1536.67 1350.76 1536.74 Q1349.92 1536.77 1349.47 1536.8 Q1349.02 1536.8 1348.31 1536.8 Q1344.83 1536.8 1342.48 1535.96 Q1338.71 1537.86 1336.55 1541.31 Q1334.4 1544.72 1334.4 1547.17 Q1334.4 1551.04 1339.32 1553.03 L1343.29 1554.61 Q1344.19 1554.9 1347.31 1556.13 L1351.34 1557.64 Q1354.49 1559.02 1354.49 1562.34 Q1354.49 1564.92 1352.5 1567.14 Q1350.53 1569.39 1347.63 1569.39 Q1345.93 1569.39 1344.15 1568.75 Q1342.42 1568.14 1341.42 1567.4 Q1340.45 1566.66 1340.45 1566.24 Q1340.45 1565.5 1341.1 1565.5 Q1341.35 1565.5 1341.84 1565.82 Q1344.9 1567.94 1347.63 1567.94 Q1349.05 1567.94 1349.95 1566.82 Q1350.89 1565.69 1350.89 1564.43 Q1350.89 1563.76 1350.69 1563.28 Q1350.53 1562.79 1350.05 1562.44 Q1349.6 1562.12 1349.37 1561.99 Q1349.18 1561.89 1348.57 1561.6 Q1347.28 1561.12 1345.06 1560.25 Q1342.83 1559.41 1340.58 1558.51 Q1336.78 1557.09 1335.62 1556.45 Q1334.49 1555.84 1332.91 1554.23 L1332.79 1554.06 Q1332.62 1553.87 1332.46 1553.65 Q1332.34 1553.42 1332.11 1553.1 Q1331.92 1552.74 1331.72 1552.33 Q1331.53 1551.91 1331.37 1551.42 Q1331.21 1550.91 1331.11 1550.3 Q1331.01 1549.65 1331.01 1549.01 Q1331.01 1547.95 1331.37 1546.56 Q1331.76 1545.14 1332.59 1543.28 Q1333.46 1541.41 1335.3 1539.38 Q1337.13 1537.35 1339.65 1535.67 L1340.52 1535.03 Q1338.33 1533.77 1337.26 1531.91 Q1336.23 1530.04 1336.23 1528.04 Q1336.23 1524.15 1339.39 1520.67 Q1342.58 1517.16 1347.76 1515.71 Q1347.31 1513.9 1347.31 1513.13 Q1347.31 1512.84 1347.34 1512.52 Q1347.38 1512.16 1347.44 1511.49 Q1347.54 1510.78 1347.79 1510.36 Q1348.08 1509.91 1348.5 1509.91 Q1349.28 1509.91 1349.28 1510.75 Q1348.95 1512.26 1348.95 1513.2 Q1348.95 1514.42 1349.28 1515.39 Q1351.14 1515.03 1353.43 1515.03 Q1355.97 1515.03 1357.42 1515.39 Q1358.9 1515.71 1358.9 1516.83 M1357.2 1516.9 Q1355.65 1516.48 1353.49 1516.48 Q1351.5 1516.48 1350.34 1516.83 Q1350.85 1517.22 1351.4 1517.32 Q1351.98 1517.41 1353.11 1517.41 Q1355.81 1517.41 1357.2 1516.9 M1352.72 1534.84 Q1351.18 1534.42 1348.95 1534.42 Q1346.83 1534.42 1345.19 1534.84 Q1346.02 1535.19 1346.6 1535.29 Q1347.21 1535.35 1348.5 1535.35 Q1351.69 1535.35 1352.72 1534.84 Z" fill="#000000" fill-rule="nonzero" fill-opacity="1" /><path clip-path="url(#clip400)" d="M1364.12 1571.71 Q1364.12 1571.39 1364.95 1570.59 Q1375.58 1559.76 1375.58 1539.38 Q1375.58 1518.93 1365.37 1508.59 Q1364.12 1507.4 1364.12 1507.04 Q1364.12 1506.4 1364.76 1506.4 Q1365.21 1506.4 1366.79 1507.72 Q1368.4 1509.04 1370.81 1512.07 Q1373.26 1515.1 1375.07 1518.8 Q1379.41 1527.78 1379.41 1539.38 Q1379.41 1550.52 1375.26 1559.51 Q1373.49 1563.28 1371.01 1566.43 Q1368.53 1569.59 1366.89 1570.97 Q1365.24 1572.36 1364.76 1572.36 Q1364.12 1572.36 1364.12 1571.71 Z" fill="#000000" fill-rule="nonzero" fill-opacity="1" /><polyline clip-path="url(#clip400)" style="stroke:#000000; stroke-linecap:round; stroke-linejoin:round; stroke-width:4; stroke-opacity:1; fill:none" points="257.204,1423.18 257.204,47.2441 "/>
<polyline clip-path="url(#clip400)" style="stroke:#000000; stroke-linecap:round; stroke-linejoin:round; stroke-width:4; stroke-opacity:1; fill:none" points="257.204,1267.71 276.102,1267.71 "/>
<polyline clip-path="url(#clip400)" style="stroke:#000000; stroke-linecap:round; stroke-linejoin:round; stroke-width:4; stroke-opacity:1; fill:none" points="257.204,1047.28 276.102,1047.28 "/>
<polyline clip-path="url(#clip400)" style="stroke:#000000; stroke-linecap:round; stroke-linejoin:round; stroke-width:4; stroke-opacity:1; fill:none" points="257.204,826.86 276.102,826.86 "/>
<polyline clip-path="url(#clip400)" style="stroke:#000000; stroke-linecap:round; stroke-linejoin:round; stroke-width:4; stroke-opacity:1; fill:none" points="257.204,606.435 276.102,606.435 "/>
<polyline clip-path="url(#clip400)" style="stroke:#000000; stroke-linecap:round; stroke-linejoin:round; stroke-width:4; stroke-opacity:1; fill:none" points="257.204,386.011 276.102,386.011 "/>
<polyline clip-path="url(#clip400)" style="stroke:#000000; stroke-linecap:round; stroke-linejoin:round; stroke-width:4; stroke-opacity:1; fill:none" points="257.204,165.586 276.102,165.586 "/>
<path clip-path="url(#clip400)" d="M114.26 1268.16 L143.936 1268.16 L143.936 1272.1 L114.26 1272.1 L114.26 1268.16 Z" fill="#000000" fill-rule="nonzero" fill-opacity="1" /><path clip-path="url(#clip400)" d="M152.848 1250.43 L175.07 1250.43 L175.07 1252.42 L162.524 1284.99 L157.64 1284.99 L169.445 1254.36 L152.848 1254.36 L152.848 1250.43 Z" fill="#000000" fill-rule="nonzero" fill-opacity="1" /><path clip-path="url(#clip400)" d="M184.19 1279.11 L189.075 1279.11 L189.075 1284.99 L184.19 1284.99 L184.19 1279.11 Z" fill="#000000" fill-rule="nonzero" fill-opacity="1" /><path clip-path="url(#clip400)" d="M209.26 1253.51 Q205.649 1253.51 203.82 1257.07 Q202.014 1260.61 202.014 1267.74 Q202.014 1274.85 203.82 1278.41 Q205.649 1281.96 209.26 1281.96 Q212.894 1281.96 214.699 1278.41 Q216.528 1274.85 216.528 1267.74 Q216.528 1260.61 214.699 1257.07 Q212.894 1253.51 209.26 1253.51 M209.26 1249.8 Q215.07 1249.8 218.125 1254.41 Q221.204 1258.99 221.204 1267.74 Q221.204 1276.47 218.125 1281.08 Q215.07 1285.66 209.26 1285.66 Q203.449 1285.66 200.371 1281.08 Q197.315 1276.47 197.315 1267.74 Q197.315 1258.99 200.371 1254.41 Q203.449 1249.8 209.26 1249.8 Z" fill="#000000" fill-rule="nonzero" fill-opacity="1" /><path clip-path="url(#clip400)" d="M115.256 1047.74 L144.931 1047.74 L144.931 1051.67 L115.256 1051.67 L115.256 1047.74 Z" fill="#000000" fill-rule="nonzero" fill-opacity="1" /><path clip-path="url(#clip400)" d="M165.602 1045.42 Q162.454 1045.42 160.603 1047.57 Q158.774 1049.73 158.774 1053.48 Q158.774 1057.2 160.603 1059.38 Q162.454 1061.53 165.602 1061.53 Q168.751 1061.53 170.579 1059.38 Q172.431 1057.2 172.431 1053.48 Q172.431 1049.73 170.579 1047.57 Q168.751 1045.42 165.602 1045.42 M174.885 1030.77 L174.885 1035.03 Q173.126 1034.19 171.32 1033.75 Q169.538 1033.31 167.778 1033.31 Q163.149 1033.31 160.695 1036.44 Q158.265 1039.56 157.917 1045.88 Q159.283 1043.87 161.343 1042.81 Q163.403 1041.72 165.88 1041.72 Q171.089 1041.72 174.098 1044.89 Q177.13 1048.04 177.13 1053.48 Q177.13 1058.8 173.982 1062.02 Q170.834 1065.24 165.602 1065.24 Q159.607 1065.24 156.436 1060.65 Q153.265 1056.05 153.265 1047.32 Q153.265 1039.12 157.153 1034.26 Q161.042 1029.38 167.593 1029.38 Q169.352 1029.38 171.135 1029.73 Q172.94 1030.07 174.885 1030.77 Z" fill="#000000" fill-rule="nonzero" fill-opacity="1" /><path clip-path="url(#clip400)" d="M185.186 1058.68 L190.07 1058.68 L190.07 1064.56 L185.186 1064.56 L185.186 1058.68 Z" fill="#000000" fill-rule="nonzero" fill-opacity="1" /><path clip-path="url(#clip400)" d="M200.301 1030 L218.658 1030 L218.658 1033.94 L204.584 1033.94 L204.584 1042.41 Q205.602 1042.06 206.621 1041.9 Q207.639 1041.72 208.658 1041.72 Q214.445 1041.72 217.824 1044.89 Q221.204 1048.06 221.204 1053.48 Q221.204 1059.05 217.732 1062.16 Q214.26 1065.24 207.94 1065.24 Q205.764 1065.24 203.496 1064.87 Q201.25 1064.49 198.843 1063.75 L198.843 1059.05 Q200.926 1060.19 203.149 1060.74 Q205.371 1061.3 207.848 1061.3 Q211.852 1061.3 214.19 1059.19 Q216.528 1057.09 216.528 1053.48 Q216.528 1049.87 214.19 1047.76 Q211.852 1045.65 207.848 1045.65 Q205.973 1045.65 204.098 1046.07 Q202.246 1046.49 200.301 1047.37 L200.301 1030 Z" fill="#000000" fill-rule="nonzero" fill-opacity="1" /><path clip-path="url(#clip400)" d="M114.26 827.311 L143.936 827.311 L143.936 831.246 L114.26 831.246 L114.26 827.311 Z" fill="#000000" fill-rule="nonzero" fill-opacity="1" /><path clip-path="url(#clip400)" d="M164.607 824.996 Q161.459 824.996 159.607 827.149 Q157.778 829.302 157.778 833.052 Q157.778 836.779 159.607 838.955 Q161.459 841.107 164.607 841.107 Q167.755 841.107 169.584 838.955 Q171.436 836.779 171.436 833.052 Q171.436 829.302 169.584 827.149 Q167.755 824.996 164.607 824.996 M173.889 810.344 L173.889 814.603 Q172.13 813.77 170.325 813.33 Q168.542 812.89 166.783 812.89 Q162.153 812.89 159.7 816.015 Q157.269 819.14 156.922 825.459 Q158.288 823.445 160.348 822.381 Q162.408 821.293 164.885 821.293 Q170.093 821.293 173.102 824.464 Q176.135 827.612 176.135 833.052 Q176.135 838.376 172.987 841.593 Q169.839 844.811 164.607 844.811 Q158.612 844.811 155.44 840.228 Q152.269 835.621 152.269 826.894 Q152.269 818.7 156.158 813.839 Q160.047 808.955 166.598 808.955 Q168.357 808.955 170.139 809.302 Q171.945 809.649 173.889 810.344 Z" fill="#000000" fill-rule="nonzero" fill-opacity="1" /><path clip-path="url(#clip400)" d="M184.19 838.26 L189.075 838.26 L189.075 844.14 L184.19 844.14 L184.19 838.26 Z" fill="#000000" fill-rule="nonzero" fill-opacity="1" /><path clip-path="url(#clip400)" d="M209.26 812.658 Q205.649 812.658 203.82 816.223 Q202.014 819.765 202.014 826.894 Q202.014 834.001 203.82 837.566 Q205.649 841.107 209.26 841.107 Q212.894 841.107 214.699 837.566 Q216.528 834.001 216.528 826.894 Q216.528 819.765 214.699 816.223 Q212.894 812.658 209.26 812.658 M209.26 808.955 Q215.07 808.955 218.125 813.561 Q221.204 818.144 221.204 826.894 Q221.204 835.621 218.125 840.228 Q215.07 844.811 209.26 844.811 Q203.449 844.811 200.371 840.228 Q197.315 835.621 197.315 826.894 Q197.315 818.144 200.371 813.561 Q203.449 808.955 209.26 808.955 Z" fill="#000000" fill-rule="nonzero" fill-opacity="1" /><path clip-path="url(#clip400)" d="M115.256 606.887 L144.931 606.887 L144.931 610.822 L115.256 610.822 L115.256 606.887 Z" fill="#000000" fill-rule="nonzero" fill-opacity="1" /><path clip-path="url(#clip400)" d="M155.07 589.155 L173.427 589.155 L173.427 593.09 L159.353 593.09 L159.353 601.563 Q160.371 601.215 161.39 601.053 Q162.408 600.868 163.427 600.868 Q169.214 600.868 172.593 604.039 Q175.973 607.211 175.973 612.627 Q175.973 618.206 172.501 621.308 Q169.028 624.387 162.709 624.387 Q160.533 624.387 158.265 624.016 Q156.019 623.646 153.612 622.905 L153.612 618.206 Q155.695 619.34 157.917 619.896 Q160.14 620.451 162.616 620.451 Q166.621 620.451 168.959 618.345 Q171.297 616.238 171.297 612.627 Q171.297 609.016 168.959 606.91 Q166.621 604.803 162.616 604.803 Q160.741 604.803 158.866 605.22 Q157.015 605.637 155.07 606.516 L155.07 589.155 Z" fill="#000000" fill-rule="nonzero" fill-opacity="1" /><path clip-path="url(#clip400)" d="M185.186 617.836 L190.07 617.836 L190.07 623.715 L185.186 623.715 L185.186 617.836 Z" fill="#000000" fill-rule="nonzero" fill-opacity="1" /><path clip-path="url(#clip400)" d="M200.301 589.155 L218.658 589.155 L218.658 593.09 L204.584 593.09 L204.584 601.563 Q205.602 601.215 206.621 601.053 Q207.639 600.868 208.658 600.868 Q214.445 600.868 217.824 604.039 Q221.204 607.211 221.204 612.627 Q221.204 618.206 217.732 621.308 Q214.26 624.387 207.94 624.387 Q205.764 624.387 203.496 624.016 Q201.25 623.646 198.843 622.905 L198.843 618.206 Q200.926 619.34 203.149 619.896 Q205.371 620.451 207.848 620.451 Q211.852 620.451 214.19 618.345 Q216.528 616.238 216.528 612.627 Q216.528 609.016 214.19 606.91 Q211.852 604.803 207.848 604.803 Q205.973 604.803 204.098 605.22 Q202.246 605.637 200.301 606.516 L200.301 589.155 Z" fill="#000000" fill-rule="nonzero" fill-opacity="1" /><path clip-path="url(#clip400)" d="M114.26 386.462 L143.936 386.462 L143.936 390.397 L114.26 390.397 L114.26 386.462 Z" fill="#000000" fill-rule="nonzero" fill-opacity="1" /><path clip-path="url(#clip400)" d="M154.075 368.731 L172.431 368.731 L172.431 372.666 L158.357 372.666 L158.357 381.138 Q159.376 380.791 160.394 380.629 Q161.413 380.444 162.431 380.444 Q168.218 380.444 171.598 383.615 Q174.977 386.786 174.977 392.203 Q174.977 397.782 171.505 400.883 Q168.033 403.962 161.714 403.962 Q159.538 403.962 157.269 403.592 Q155.024 403.221 152.616 402.481 L152.616 397.782 Q154.7 398.916 156.922 399.471 Q159.144 400.027 161.621 400.027 Q165.626 400.027 167.964 397.921 Q170.302 395.814 170.302 392.203 Q170.302 388.592 167.964 386.485 Q165.626 384.379 161.621 384.379 Q159.746 384.379 157.871 384.796 Q156.019 385.212 154.075 386.092 L154.075 368.731 Z" fill="#000000" fill-rule="nonzero" fill-opacity="1" /><path clip-path="url(#clip400)" d="M184.19 397.411 L189.075 397.411 L189.075 403.291 L184.19 403.291 L184.19 397.411 Z" fill="#000000" fill-rule="nonzero" fill-opacity="1" /><path clip-path="url(#clip400)" d="M209.26 371.81 Q205.649 371.81 203.82 375.374 Q202.014 378.916 202.014 386.046 Q202.014 393.152 203.82 396.717 Q205.649 400.258 209.26 400.258 Q212.894 400.258 214.699 396.717 Q216.528 393.152 216.528 386.046 Q216.528 378.916 214.699 375.374 Q212.894 371.81 209.26 371.81 M209.26 368.106 Q215.07 368.106 218.125 372.712 Q221.204 377.296 221.204 386.046 Q221.204 394.772 218.125 399.379 Q215.07 403.962 209.26 403.962 Q203.449 403.962 200.371 399.379 Q197.315 394.772 197.315 386.046 Q197.315 377.296 200.371 372.712 Q203.449 368.106 209.26 368.106 Z" fill="#000000" fill-rule="nonzero" fill-opacity="1" /><path clip-path="url(#clip400)" d="M115.256 166.038 L144.931 166.038 L144.931 169.973 L115.256 169.973 L115.256 166.038 Z" fill="#000000" fill-rule="nonzero" fill-opacity="1" /><path clip-path="url(#clip400)" d="M167.871 152.38 L156.065 170.829 L167.871 170.829 L167.871 152.38 M166.644 148.306 L172.524 148.306 L172.524 170.829 L177.454 170.829 L177.454 174.718 L172.524 174.718 L172.524 182.866 L167.871 182.866 L167.871 174.718 L152.269 174.718 L152.269 170.204 L166.644 148.306 Z" fill="#000000" fill-rule="nonzero" fill-opacity="1" /><path clip-path="url(#clip400)" d="M185.186 176.987 L190.07 176.987 L190.07 182.866 L185.186 182.866 L185.186 176.987 Z" fill="#000000" fill-rule="nonzero" fill-opacity="1" /><path clip-path="url(#clip400)" d="M200.301 148.306 L218.658 148.306 L218.658 152.242 L204.584 152.242 L204.584 160.714 Q205.602 160.367 206.621 160.205 Q207.639 160.019 208.658 160.019 Q214.445 160.019 217.824 163.191 Q221.204 166.362 221.204 171.779 Q221.204 177.357 217.732 180.459 Q214.26 183.538 207.94 183.538 Q205.764 183.538 203.496 183.167 Q201.25 182.797 198.843 182.056 L198.843 177.357 Q200.926 178.491 203.149 179.047 Q205.371 179.603 207.848 179.603 Q211.852 179.603 214.19 177.496 Q216.528 175.39 216.528 171.779 Q216.528 168.167 214.19 166.061 Q211.852 163.954 207.848 163.954 Q205.973 163.954 204.098 164.371 Q202.246 164.788 200.301 165.667 L200.301 148.306 Z" fill="#000000" fill-rule="nonzero" fill-opacity="1" /><path clip-path="url(#clip400)" d="M75.3331 907.039 L24.3063 907.039 Q22.2727 907.039 22.2727 905.942 Q22.2727 904.845 23.9049 904.845 L74.9318 904.845 Q76.9653 904.845 76.9653 905.942 Q76.9653 907.039 75.3331 907.039 Z" fill="#000000" fill-rule="nonzero" fill-opacity="1" /><path clip-path="url(#clip400)" d="M23.099 850.202 L59.7815 859.317 Q60.9409 859.574 61.2307 859.574 Q61.6172 859.574 61.7782 859.478 Q61.9715 859.349 62.1325 858.64 Q62.2935 857.9 62.2935 856.418 Q62.2935 855.871 62.2935 855.677 Q62.2935 855.484 62.3579 855.194 Q62.4223 854.904 62.5834 854.808 Q62.7444 854.711 63.002 854.711 Q64.3225 854.711 64.3225 855.871 Q64.3225 856.966 64.2259 859.252 Q64.1292 861.539 64.1292 862.666 Q64.1292 863.761 64.2259 865.983 Q64.3225 868.205 64.3225 869.268 Q64.3225 869.655 64.1292 869.88 Q63.9682 870.106 63.775 870.106 L63.6139 870.138 Q62.7122 870.138 62.4867 869.783 Q62.2935 869.429 62.2935 868.624 Q62.2613 865.854 61.8748 865.049 Q61.4884 864.244 60.1035 863.858 L48.3162 860.895 Q52.2775 864.856 52.2775 868.688 Q52.2775 872.392 49.379 874.904 Q46.4482 877.384 41.714 877.384 Q38.2035 877.384 34.6609 875.999 Q31.1182 874.582 28.4451 872.392 Q25.7721 870.17 24.0974 867.271 Q22.3904 864.373 22.3904 861.507 Q22.3904 859.671 23.4532 858.028 Q24.516 856.354 26.9959 855.355 Q25.5788 854.518 24.0329 852.972 Q22.4549 851.426 22.4549 850.879 Q22.4549 850.557 22.6803 850.396 Q22.8735 850.202 23.099 850.202 M29.6368 856.289 Q29.3147 856.289 28.5096 856.547 Q27.7044 856.772 26.6094 857.288 Q25.4822 857.771 24.6771 858.898 Q23.8397 860.025 23.8397 861.507 Q23.8397 863.632 25.9009 865.919 Q27.9299 868.173 31.4725 869.655 Q33.7913 870.589 38.1069 871.651 Q42.4225 872.714 44.6125 872.714 Q45.1278 872.714 45.7075 872.682 Q46.2872 872.618 47.2534 872.36 Q48.2195 872.102 48.9603 871.716 Q49.701 871.297 50.2485 870.46 Q50.796 869.622 50.796 868.495 Q50.796 866.048 48.7026 863.6 Q46.6093 861.152 44.7413 860.122 Q44.5481 859.993 37.2373 858.157 Q29.9266 856.289 29.6368 856.289 Z" fill="#000000" fill-rule="nonzero" fill-opacity="1" /><path clip-path="url(#clip400)" d="M69.7151 805.593 Q69.8954 805.593 70.5943 805.796 Q71.2932 805.999 72.3753 806.495 Q73.4574 806.968 74.4493 807.645 Q75.4187 808.298 76.1401 809.381 Q76.839 810.44 76.839 811.658 Q76.839 813.281 75.7569 814.363 Q74.6748 815.445 73.0516 815.445 Q72.1724 815.445 70.5041 814.836 Q62.8842 811.973 60.1564 811.973 Q56.9326 811.973 56.9326 814.476 Q56.9326 815.896 57.5187 817.181 Q58.1049 818.466 58.9165 819.3 Q59.728 820.134 60.6523 820.788 Q61.5767 821.442 62.1853 821.735 Q62.794 822.005 63.0646 822.073 L74.2014 824.846 Q75.1482 825.071 75.5991 825.229 Q76.05 825.387 76.4332 825.815 Q76.839 826.244 76.839 826.92 Q76.839 827.484 76.5009 827.889 Q76.1627 828.273 75.5765 828.273 Q75.4864 828.273 75.0129 828.16 Q74.5395 828.047 73.8857 827.889 Q73.232 827.732 72.8487 827.664 Q69.7827 826.852 69.3544 826.74 L63.9889 825.455 Q61.3287 824.756 60.1564 824.756 Q56.9326 824.756 56.9326 827.258 Q56.9326 828.498 57.406 829.67 Q57.8569 830.82 58.4881 831.609 Q59.1194 832.398 59.9986 833.12 Q60.8552 833.818 61.4414 834.179 Q62.005 834.517 62.5686 834.788 L64.8681 835.374 Q65.4993 835.509 67.9566 836.163 L72.1273 837.177 Q75.2384 837.899 75.5315 838.057 Q76.1627 838.282 76.5009 838.778 Q76.839 839.274 76.839 839.77 Q76.839 840.334 76.5009 840.717 Q76.1627 841.1 75.5765 841.1 Q75.4864 841.1 75.1482 841.033 Q74.81 840.965 74.3366 840.852 Q73.8632 840.739 73.5927 840.694 L62.9293 838.012 Q60.9905 837.516 60.3818 837.403 Q59.7506 837.268 59.0517 837.268 Q56.9326 837.268 56.9326 838.71 Q56.9326 839.883 58.3303 840.649 Q59.728 841.416 62.4333 842.07 Q63.1773 842.272 63.3351 842.408 Q63.4929 842.52 63.4929 842.859 Q63.4704 843.422 63.0195 843.422 Q62.9068 843.422 62.1853 843.242 Q61.4639 843.061 60.3818 842.723 Q59.2772 842.363 58.5557 841.979 Q58.0823 841.754 57.7667 841.551 Q57.4511 841.348 56.9551 840.942 Q56.4591 840.537 56.1886 839.928 Q55.9181 839.319 55.9181 838.575 Q55.9181 836.929 56.9777 835.712 Q58.0372 834.472 59.9309 834.314 Q55.9181 831.316 55.9181 827.123 Q55.9181 824.756 57.1129 823.335 Q58.2627 822.005 60.3818 821.847 Q55.9181 818.736 55.9181 814.318 Q55.9181 811.77 57.2482 810.395 Q58.5557 809.02 60.8552 809.02 Q62.0501 809.02 64.327 809.629 Q66.5814 810.237 67.7087 810.643 Q68.8359 811.049 71.0001 811.838 Q73.0742 812.672 74.2915 812.672 Q75.0806 812.672 75.4413 812.402 Q75.802 812.131 75.802 811.545 Q75.802 810.643 75.2835 809.854 Q74.7424 809.065 73.8632 808.501 Q72.9614 807.915 72.0597 807.532 Q71.1354 807.149 70.0983 806.856 Q69.5347 806.675 69.3995 806.585 Q69.2642 806.472 69.2642 806.157 Q69.2642 805.593 69.7151 805.593 Z" fill="#000000" fill-rule="nonzero" fill-opacity="1" /><path clip-path="url(#clip400)" d="M69.7151 781.574 Q72.6233 782.183 74.2915 782.972 Q76.839 784.234 76.839 786.376 Q76.839 787.999 75.8471 789.149 Q74.8551 790.299 73.3672 790.569 Q76.839 793.522 76.839 796.588 Q76.839 799.294 74.7875 801.007 Q72.7134 802.72 69.4445 802.72 Q66.1531 802.72 62.9969 801.097 Q59.8408 799.451 57.8794 796.859 Q55.9181 794.266 55.9181 791.606 Q55.9181 788.788 58.8714 787.345 Q58.0598 787.233 57.4511 786.714 Q56.8424 786.196 56.8424 785.406 Q56.8424 784.798 57.1806 784.437 Q57.4962 784.076 58.0823 784.076 Q58.3754 784.076 59.6604 784.392 L66.108 786.06 L70.2787 787.075 Q71.8117 787.458 72.3753 787.571 Q72.9389 787.661 73.6828 787.661 Q75.802 787.661 75.802 786.286 Q75.802 785.609 75.3736 785.068 Q74.9453 784.527 74.0435 784.099 Q73.1418 783.671 72.3077 783.4 Q71.451 783.13 70.0983 782.769 Q69.5573 782.656 69.422 782.566 Q69.2642 782.453 69.2642 782.138 Q69.2642 781.574 69.7151 781.574 M60.9905 787.909 Q60.7876 787.909 60.224 788.067 Q59.6604 788.224 58.8714 788.585 Q58.0823 788.946 57.5187 789.735 Q56.9326 790.501 56.9326 791.538 Q56.9326 792.936 58.1274 794.402 Q59.3222 795.844 61.3512 796.904 Q62.9744 797.716 66.3786 798.595 Q69.7827 799.451 71.4735 799.451 Q72.5105 799.451 73.4349 799.226 Q74.3366 798.978 75.0806 798.279 Q75.802 797.58 75.802 796.498 Q75.802 793.861 72.5331 791.268 Q71.9695 790.772 71.744 790.659 Q71.4961 790.524 70.8197 790.344 L61.7796 788.044 Q61.1032 787.909 60.9905 787.909 Z" fill="#000000" fill-rule="nonzero" fill-opacity="1" /><path clip-path="url(#clip400)" d="M58.9615 756.652 Q60.224 756.652 60.9454 757.441 Q61.6443 758.23 61.6443 759.132 Q61.6443 759.988 61.1483 760.439 Q60.6523 760.89 60.0211 760.89 Q59.1644 760.89 58.4205 760.259 Q57.6765 759.628 57.5187 758.681 Q56.9326 759.605 56.9326 760.98 Q56.9326 761.882 57.406 762.671 Q57.8794 763.438 58.4881 763.911 Q59.0968 764.362 59.976 764.768 Q60.8327 765.151 61.3512 765.309 Q61.8472 765.444 62.3882 765.557 L68.7006 767.135 Q71.699 767.901 72.7585 767.901 Q74.0661 767.901 74.9453 767.27 Q75.802 766.639 75.802 765.376 Q75.802 764.881 75.6667 764.317 Q75.5089 763.753 75.1031 763.032 Q74.6748 762.288 74.0435 761.634 Q73.3898 760.958 72.2851 760.304 Q71.1804 759.65 69.7602 759.222 Q69.2642 759.087 69.2642 758.636 Q69.2642 758.072 69.7151 758.072 Q70.0983 758.072 70.9099 758.388 Q71.699 758.681 72.736 759.335 Q73.7505 759.966 74.6748 760.8 Q75.5765 761.634 76.2078 762.874 Q76.839 764.114 76.839 765.467 Q76.839 767.405 75.802 768.69 Q74.765 769.975 73.3221 770.449 Q73.525 770.562 73.7956 770.719 Q74.0661 770.877 74.6748 771.351 Q75.2609 771.802 75.7118 772.32 Q76.1401 772.839 76.4783 773.65 Q76.839 774.439 76.839 775.296 Q76.839 776.378 76.5234 777.347 Q76.2078 778.294 75.4864 778.971 Q74.765 779.647 73.773 779.647 Q72.6684 779.647 71.9019 778.903 Q71.1128 778.136 71.1128 777.099 Q71.1128 776.446 71.4961 775.927 Q71.8793 775.386 72.7134 775.386 Q73.6378 775.386 74.3366 776.017 Q75.0355 776.649 75.2158 777.55 Q75.802 776.626 75.802 775.251 Q75.802 773.763 74.4944 772.591 Q73.1869 771.418 71.0001 770.855 Q65.7473 769.457 63.4027 768.916 Q61.0356 768.375 60.0211 768.375 Q59.0743 768.375 58.4205 768.623 Q57.7667 768.871 57.4736 769.299 Q57.158 769.705 57.0453 770.088 Q56.9326 770.449 56.9326 770.855 Q56.9326 771.531 57.2031 772.298 Q57.4736 773.041 58.1049 773.943 Q58.7136 774.822 59.976 775.657 Q61.2385 776.491 62.9744 777.054 Q63.4929 777.167 63.4929 777.663 Q63.4704 778.204 63.0195 778.204 Q62.6362 778.204 61.8472 777.911 Q61.0356 777.595 60.0211 776.964 Q59.0066 776.31 58.1049 775.476 Q57.1806 774.62 56.5493 773.38 Q55.9181 772.117 55.9181 770.765 Q55.9181 770.156 56.0534 769.57 Q56.1661 768.961 56.5042 768.24 Q56.8424 767.496 57.5864 766.842 Q58.3303 766.188 59.4124 765.782 Q58.8939 765.512 58.3979 765.151 Q57.902 764.768 57.2933 764.182 Q56.662 763.573 56.3013 762.739 Q55.9181 761.882 55.9181 760.935 Q55.9181 760.011 56.1661 759.109 Q56.3915 758.207 57.1355 757.441 Q57.8569 756.652 58.9615 756.652 Z" fill="#000000" fill-rule="nonzero" fill-opacity="1" /><path clip-path="url(#clip400)" d="M34.1134 684.615 Q34.4999 684.228 35.0474 684.228 Q35.5948 684.228 35.9813 684.615 Q36.3678 685.001 36.3678 685.549 L36.3678 726.837 Q36.3678 727.384 35.9813 727.771 Q35.5948 728.157 35.0474 728.157 Q34.4999 728.157 34.1134 727.771 Q33.7269 727.384 33.7269 726.837 L33.7269 685.549 Q33.7269 685.001 34.1134 684.615 Z" fill="#000000" fill-rule="nonzero" fill-opacity="1" /><path clip-path="url(#clip400)" d="M32.9218 624.58 Q37.6238 624.58 42.1648 626.963 Q46.7059 629.314 49.5078 633.018 Q52.2775 636.722 52.2775 640.49 Q52.2775 642.744 51.0537 644.258 Q49.7976 645.739 48.0263 646.544 Q50.2163 647.156 55.4659 648.477 Q60.7154 649.797 61.2307 649.797 Q61.5206 649.797 61.6494 649.733 Q61.7782 649.668 61.9392 649.378 Q62.1325 649.089 62.1969 648.38 Q62.2935 647.672 62.2935 646.48 Q62.2935 645.868 62.2935 645.643 Q62.3257 645.385 62.4867 645.159 Q62.6478 644.902 63.002 644.902 Q64.3225 644.902 64.3225 646.093 Q64.3225 647.156 64.2259 649.346 Q64.1292 651.536 64.1292 652.631 Q64.1292 653.565 64.2259 655.433 Q64.3225 657.301 64.3225 658.171 Q64.3225 659.04 63.5495 659.04 Q63.0987 659.04 62.8088 658.911 Q62.5512 658.815 62.4223 658.557 Q62.3257 658.299 62.2935 658.074 Q62.2935 657.881 62.2935 657.494 Q62.2935 656.013 62.0359 655.369 Q61.8104 654.725 61.3273 654.499 Q60.8765 654.242 59.5882 653.952 L30.2165 646.544 Q28.2519 646.093 26.8671 646.093 Q25.1279 646.093 24.4838 646.641 Q23.8397 647.188 23.8397 648.155 Q23.8397 649.829 25.8365 650.924 Q27.8332 652.019 31.6979 652.953 Q32.7607 653.243 32.9862 653.436 Q33.2116 653.597 33.2116 654.08 Q33.1794 654.886 32.5353 654.886 Q32.3743 654.886 31.3437 654.628 Q30.2809 654.37 28.735 653.887 Q27.1569 653.372 26.1585 652.824 Q25.4822 652.502 25.0313 652.213 Q24.5804 651.923 23.8719 651.343 Q23.1634 650.731 22.7769 649.862 Q22.3904 648.992 22.3904 647.929 Q22.3904 645.868 23.6143 644.161 Q24.8381 642.454 27.3179 642.003 Q25.1602 640.168 23.7753 637.913 Q22.3904 635.659 22.3904 633.372 Q22.3904 629.572 25.3534 627.092 Q28.2841 624.58 32.9218 624.58 M30.0232 629.346 Q27.0925 629.346 25.4822 630.474 Q23.8397 631.569 23.8397 633.565 Q23.8397 636.045 26.3518 638.912 Q28.735 641.746 30.9572 642.325 L43.8718 645.578 L44.9345 645.771 Q45.1278 645.771 45.7075 645.675 Q46.255 645.546 47.1568 645.192 Q48.0585 644.805 48.8637 644.29 Q49.6366 643.742 50.2163 642.776 Q50.796 641.778 50.796 640.554 Q50.796 638.589 49.0569 636.464 Q47.3178 634.306 44.0328 632.696 Q41.9072 631.697 37.334 630.538 Q32.7285 629.346 30.0232 629.346 Z" fill="#000000" fill-rule="nonzero" fill-opacity="1" /><path clip-path="url(#clip400)" d="M70.9775 600.088 Q71.1804 599.908 71.3833 599.908 Q71.5862 599.908 72.1724 600.358 Q72.7585 600.787 73.5476 601.711 Q74.3366 602.635 75.0806 603.83 Q75.8245 605.025 76.3205 606.783 Q76.839 608.542 76.839 610.391 Q76.839 613.84 74.5621 615.869 Q72.2851 617.875 69.0162 617.875 Q65.8375 617.875 62.794 616.094 Q59.728 614.313 57.8343 611.428 Q55.9181 608.542 55.9181 605.498 Q55.9181 603.086 57.0453 601.576 Q58.1725 600.065 59.8859 600.065 Q61.216 600.065 62.0275 600.832 Q62.8391 601.598 62.8391 602.635 Q62.8391 603.357 62.4333 603.853 Q62.005 604.349 61.216 604.349 Q60.2015 604.349 59.4124 603.515 Q59.0968 603.199 58.9615 602.838 Q58.8037 602.455 58.8037 602.23 Q58.7812 602.004 58.7812 601.486 Q57.902 601.959 57.4285 603.086 Q56.9326 604.191 56.9326 605.453 Q56.9326 607.325 58.2401 609.106 Q59.5251 610.887 61.5541 611.969 Q63.538 613.051 66.356 613.75 Q69.1515 614.448 70.7747 614.448 Q73.0065 614.448 74.4043 613.411 Q75.802 612.374 75.802 610.3 Q75.802 609.895 75.7794 609.466 Q75.7569 609.015 75.5089 607.888 Q75.2609 606.738 74.8326 605.724 Q74.4043 604.709 73.4799 603.424 Q72.5331 602.117 71.2481 601.08 Q70.7747 600.719 70.7747 600.471 Q70.7747 600.268 70.9775 600.088 Z" fill="#000000" fill-rule="nonzero" fill-opacity="1" /><path clip-path="url(#clip400)" d="M75.3331 586 L24.3063 586 Q22.2727 586 22.2727 584.903 Q22.2727 583.806 23.9049 583.806 L74.9318 583.806 Q76.9653 583.806 76.9653 584.903 Q76.9653 586 75.3331 586 Z" fill="#000000" fill-rule="nonzero" fill-opacity="1" /><circle clip-path="url(#clip402)" cx="316.512" cy="86.1857" r="14.4" fill="#008000" fill-rule="evenodd" fill-opacity="1" stroke="#000000" stroke-opacity="1" stroke-width="3.2"/>
<circle clip-path="url(#clip402)" cx="911.629" cy="395.086" r="14.4" fill="#008000" fill-rule="evenodd" fill-opacity="1" stroke="#000000" stroke-opacity="1" stroke-width="3.2"/>
<circle clip-path="url(#clip402)" cx="1259.75" cy="650.221" r="14.4" fill="#008000" fill-rule="evenodd" fill-opacity="1" stroke="#000000" stroke-opacity="1" stroke-width="3.2"/>
<circle clip-path="url(#clip402)" cx="1506.75" cy="944.038" r="14.4" fill="#008000" fill-rule="evenodd" fill-opacity="1" stroke="#000000" stroke-opacity="1" stroke-width="3.2"/>
<circle clip-path="url(#clip402)" cx="1698.33" cy="967.873" r="14.4" fill="#008000" fill-rule="evenodd" fill-opacity="1" stroke="#000000" stroke-opacity="1" stroke-width="3.2"/>
<circle clip-path="url(#clip402)" cx="1854.87" cy="1111.34" r="14.4" fill="#008000" fill-rule="evenodd" fill-opacity="1" stroke="#000000" stroke-opacity="1" stroke-width="3.2"/>
<circle clip-path="url(#clip402)" cx="1987.22" cy="1227" r="14.4" fill="#008000" fill-rule="evenodd" fill-opacity="1" stroke="#000000" stroke-opacity="1" stroke-width="3.2"/>
<circle clip-path="url(#clip402)" cx="2101.86" cy="1146.62" r="14.4" fill="#008000" fill-rule="evenodd" fill-opacity="1" stroke="#000000" stroke-opacity="1" stroke-width="3.2"/>
<circle clip-path="url(#clip402)" cx="2202.99" cy="899.916" r="14.4" fill="#008000" fill-rule="evenodd" fill-opacity="1" stroke="#000000" stroke-opacity="1" stroke-width="3.2"/>
<circle clip-path="url(#clip402)" cx="2293.45" cy="1384.24" r="14.4" fill="#008000" fill-rule="evenodd" fill-opacity="1" stroke="#000000" stroke-opacity="1" stroke-width="3.2"/>
<polyline clip-path="url(#clip402)" style="stroke:#ff0000; stroke-linecap:round; stroke-linejoin:round; stroke-width:4; stroke-opacity:1; fill:none" points="316.512,109.243 911.629,463.521 1259.75,670.76 1506.75,817.798 1698.33,931.85 1854.87,1025.04 1987.22,1103.83 2101.86,1172.08 2202.99,1232.28 2293.45,1286.13 "/>
<path clip-path="url(#clip400)" d="M1651.87 248.629 L2282.9 248.629 L2282.9 93.1086 L1651.87 93.1086  Z" fill="#ffffff" fill-rule="evenodd" fill-opacity="1"/>
<polyline clip-path="url(#clip400)" style="stroke:#000000; stroke-linecap:round; stroke-linejoin:round; stroke-width:4; stroke-opacity:1; fill:none" points="1651.87,248.629 2282.9,248.629 2282.9,93.1086 1651.87,93.1086 1651.87,248.629 "/>
<circle clip-path="url(#clip400)" cx="1745.01" cy="144.949" r="20.48" fill="#008000" fill-rule="evenodd" fill-opacity="1" stroke="#000000" stroke-opacity="1" stroke-width="4.55111"/>
<path clip-path="url(#clip400)" d="M1838.14 127.669 L1867.38 127.669 L1867.38 131.604 L1855.11 131.604 L1855.11 162.229 L1850.41 162.229 L1850.41 131.604 L1838.14 131.604 L1838.14 127.669 Z" fill="#000000" fill-rule="nonzero" fill-opacity="1" /><path clip-path="url(#clip400)" d="M1879.76 140.284 Q1879.04 139.868 1878.19 139.682 Q1877.35 139.474 1876.34 139.474 Q1872.72 139.474 1870.78 141.835 Q1868.86 144.173 1868.86 148.571 L1868.86 162.229 L1864.58 162.229 L1864.58 136.303 L1868.86 136.303 L1868.86 140.331 Q1870.2 137.969 1872.35 136.835 Q1874.51 135.678 1877.59 135.678 Q1878.03 135.678 1878.56 135.747 Q1879.09 135.794 1879.74 135.909 L1879.76 140.284 Z" fill="#000000" fill-rule="nonzero" fill-opacity="1" /><path clip-path="url(#clip400)" d="M1884.23 136.303 L1888.49 136.303 L1888.49 162.229 L1884.23 162.229 L1884.23 136.303 M1884.23 126.21 L1888.49 126.21 L1888.49 131.604 L1884.23 131.604 L1884.23 126.21 Z" fill="#000000" fill-rule="nonzero" fill-opacity="1" /><path clip-path="url(#clip400)" d="M1909.18 149.196 Q1904.02 149.196 1902.03 150.377 Q1900.04 151.557 1900.04 154.405 Q1900.04 156.673 1901.52 158.016 Q1903.02 159.335 1905.59 159.335 Q1909.14 159.335 1911.27 156.835 Q1913.42 154.312 1913.42 150.145 L1913.42 149.196 L1909.18 149.196 M1917.68 147.437 L1917.68 162.229 L1913.42 162.229 L1913.42 158.293 Q1911.96 160.655 1909.78 161.789 Q1907.61 162.9 1904.46 162.9 Q1900.48 162.9 1898.12 160.678 Q1895.78 158.432 1895.78 154.682 Q1895.78 150.307 1898.7 148.085 Q1901.64 145.863 1907.45 145.863 L1913.42 145.863 L1913.42 145.446 Q1913.42 142.507 1911.47 140.909 Q1909.55 139.289 1906.06 139.289 Q1903.84 139.289 1901.73 139.821 Q1899.62 140.354 1897.68 141.419 L1897.68 137.483 Q1900.02 136.581 1902.21 136.141 Q1904.41 135.678 1906.5 135.678 Q1912.12 135.678 1914.9 138.594 Q1917.68 141.511 1917.68 147.437 Z" fill="#000000" fill-rule="nonzero" fill-opacity="1" /><path clip-path="url(#clip400)" d="M1948 146.581 L1948 162.229 L1943.74 162.229 L1943.74 146.719 Q1943.74 143.039 1942.31 141.21 Q1940.87 139.382 1938 139.382 Q1934.55 139.382 1932.56 141.581 Q1930.57 143.78 1930.57 147.576 L1930.57 162.229 L1926.29 162.229 L1926.29 136.303 L1930.57 136.303 L1930.57 140.331 Q1932.1 137.993 1934.16 136.835 Q1936.24 135.678 1938.95 135.678 Q1943.42 135.678 1945.71 138.456 Q1948 141.21 1948 146.581 Z" fill="#000000" fill-rule="nonzero" fill-opacity="1" /><path clip-path="url(#clip400)" d="M1973.56 148.965 Q1973.56 144.335 1971.64 141.789 Q1969.74 139.243 1966.29 139.243 Q1962.86 139.243 1960.94 141.789 Q1959.04 144.335 1959.04 148.965 Q1959.04 153.571 1960.94 156.118 Q1962.86 158.664 1966.29 158.664 Q1969.74 158.664 1971.64 156.118 Q1973.56 153.571 1973.56 148.965 M1977.82 159.011 Q1977.82 165.631 1974.88 168.849 Q1971.94 172.09 1965.87 172.09 Q1963.63 172.09 1961.64 171.742 Q1959.65 171.418 1957.77 170.724 L1957.77 166.58 Q1959.65 167.599 1961.47 168.085 Q1963.3 168.571 1965.2 168.571 Q1969.39 168.571 1971.47 166.372 Q1973.56 164.196 1973.56 159.775 L1973.56 157.668 Q1972.24 159.96 1970.18 161.094 Q1968.12 162.229 1965.25 162.229 Q1960.48 162.229 1957.56 158.594 Q1954.65 154.96 1954.65 148.965 Q1954.65 142.946 1957.56 139.312 Q1960.48 135.678 1965.25 135.678 Q1968.12 135.678 1970.18 136.812 Q1972.24 137.946 1973.56 140.238 L1973.56 136.303 L1977.82 136.303 L1977.82 159.011 Z" fill="#000000" fill-rule="nonzero" fill-opacity="1" /><path clip-path="url(#clip400)" d="M1986.15 151.997 L1986.15 136.303 L1990.41 136.303 L1990.41 151.835 Q1990.41 155.516 1991.84 157.368 Q1993.28 159.196 1996.15 159.196 Q1999.6 159.196 2001.59 156.997 Q2003.6 154.798 2003.6 151.002 L2003.6 136.303 L2007.86 136.303 L2007.86 162.229 L2003.6 162.229 L2003.6 158.247 Q2002.05 160.608 1999.99 161.766 Q1997.96 162.9 1995.25 162.9 Q1990.78 162.9 1988.46 160.122 Q1986.15 157.344 1986.15 151.997 M1996.87 135.678 L1996.87 135.678 Z" fill="#000000" fill-rule="nonzero" fill-opacity="1" /><path clip-path="url(#clip400)" d="M2016.64 126.21 L2020.89 126.21 L2020.89 162.229 L2016.64 162.229 L2016.64 126.21 Z" fill="#000000" fill-rule="nonzero" fill-opacity="1" /><path clip-path="url(#clip400)" d="M2041.59 149.196 Q2036.43 149.196 2034.44 150.377 Q2032.45 151.557 2032.45 154.405 Q2032.45 156.673 2033.93 158.016 Q2035.43 159.335 2038 159.335 Q2041.54 159.335 2043.67 156.835 Q2045.83 154.312 2045.83 150.145 L2045.83 149.196 L2041.59 149.196 M2050.08 147.437 L2050.08 162.229 L2045.83 162.229 L2045.83 158.293 Q2044.37 160.655 2042.19 161.789 Q2040.01 162.9 2036.87 162.9 Q2032.89 162.9 2030.52 160.678 Q2028.19 158.432 2028.19 154.682 Q2028.19 150.307 2031.1 148.085 Q2034.04 145.863 2039.85 145.863 L2045.83 145.863 L2045.83 145.446 Q2045.83 142.507 2043.88 140.909 Q2041.96 139.289 2038.46 139.289 Q2036.24 139.289 2034.14 139.821 Q2032.03 140.354 2030.08 141.419 L2030.08 137.483 Q2032.42 136.581 2034.62 136.141 Q2036.82 135.678 2038.9 135.678 Q2044.53 135.678 2047.31 138.594 Q2050.08 141.511 2050.08 147.437 Z" fill="#000000" fill-rule="nonzero" fill-opacity="1" /><path clip-path="url(#clip400)" d="M2073.88 140.284 Q2073.16 139.868 2072.31 139.682 Q2071.47 139.474 2070.45 139.474 Q2066.84 139.474 2064.9 141.835 Q2062.98 144.173 2062.98 148.571 L2062.98 162.229 L2058.7 162.229 L2058.7 136.303 L2062.98 136.303 L2062.98 140.331 Q2064.32 137.969 2066.47 136.835 Q2068.63 135.678 2071.7 135.678 Q2072.14 135.678 2072.68 135.747 Q2073.21 135.794 2073.86 135.909 L2073.88 140.284 Z" fill="#000000" fill-rule="nonzero" fill-opacity="1" /><path clip-path="url(#clip400)" d="M2078.6 156.349 L2083.49 156.349 L2083.49 162.229 L2078.6 162.229 L2078.6 156.349 M2078.6 137.715 L2083.49 137.715 L2083.49 143.594 L2078.6 143.594 L2078.6 137.715 Z" fill="#000000" fill-rule="nonzero" fill-opacity="1" /><path clip-path="url(#clip400)" d="M2111.1 149.289 Q2111.1 153.988 2113.02 156.673 Q2114.97 159.335 2118.35 159.335 Q2121.73 159.335 2123.67 156.673 Q2125.62 153.988 2125.62 149.289 Q2125.62 144.59 2123.67 141.928 Q2121.73 139.243 2118.35 139.243 Q2114.97 139.243 2113.02 141.928 Q2111.1 144.59 2111.1 149.289 M2125.62 158.34 Q2124.27 160.655 2122.21 161.789 Q2120.18 162.9 2117.31 162.9 Q2112.61 162.9 2109.64 159.15 Q2106.7 155.4 2106.7 149.289 Q2106.7 143.178 2109.64 139.428 Q2112.61 135.678 2117.31 135.678 Q2120.18 135.678 2122.21 136.812 Q2124.27 137.923 2125.62 140.238 L2125.62 136.303 L2129.88 136.303 L2129.88 172.09 L2125.62 172.09 L2125.62 158.34 Z" fill="#000000" fill-rule="nonzero" fill-opacity="1" /><path clip-path="url(#clip400)" d="M2158.35 170.099 L2158.35 173.409 L2133.72 173.409 L2133.72 170.099 L2158.35 170.099 Z" fill="#000000" fill-rule="nonzero" fill-opacity="1" /><path clip-path="url(#clip400)" d="M2182.54 141.28 Q2184.13 138.409 2186.36 137.044 Q2188.58 135.678 2191.59 135.678 Q2195.64 135.678 2197.84 138.525 Q2200.04 141.349 2200.04 146.581 L2200.04 162.229 L2195.75 162.229 L2195.75 146.719 Q2195.75 142.993 2194.44 141.187 Q2193.12 139.382 2190.41 139.382 Q2187.1 139.382 2185.18 141.581 Q2183.25 143.78 2183.25 147.576 L2183.25 162.229 L2178.97 162.229 L2178.97 146.719 Q2178.97 142.969 2177.65 141.187 Q2176.33 139.382 2173.58 139.382 Q2170.32 139.382 2168.39 141.604 Q2166.47 143.803 2166.47 147.576 L2166.47 162.229 L2162.19 162.229 L2162.19 136.303 L2166.47 136.303 L2166.47 140.331 Q2167.93 137.946 2169.97 136.812 Q2172 135.678 2174.81 135.678 Q2177.63 135.678 2179.6 137.113 Q2181.59 138.548 2182.54 141.28 Z" fill="#000000" fill-rule="nonzero" fill-opacity="1" /><path clip-path="url(#clip400)" d="M2220.31 149.196 Q2215.15 149.196 2213.16 150.377 Q2211.17 151.557 2211.17 154.405 Q2211.17 156.673 2212.65 158.016 Q2214.16 159.335 2216.73 159.335 Q2220.27 159.335 2222.4 156.835 Q2224.55 154.312 2224.55 150.145 L2224.55 149.196 L2220.31 149.196 M2228.81 147.437 L2228.81 162.229 L2224.55 162.229 L2224.55 158.293 Q2223.09 160.655 2220.92 161.789 Q2218.74 162.9 2215.59 162.9 Q2211.61 162.9 2209.25 160.678 Q2206.91 158.432 2206.91 154.682 Q2206.91 150.307 2209.83 148.085 Q2212.77 145.863 2218.58 145.863 L2224.55 145.863 L2224.55 145.446 Q2224.55 142.507 2222.61 140.909 Q2220.69 139.289 2217.19 139.289 Q2214.97 139.289 2212.86 139.821 Q2210.75 140.354 2208.81 141.419 L2208.81 137.483 Q2211.15 136.581 2213.35 136.141 Q2215.55 135.678 2217.63 135.678 Q2223.25 135.678 2226.03 138.594 Q2228.81 141.511 2228.81 147.437 Z" fill="#000000" fill-rule="nonzero" fill-opacity="1" /><path clip-path="url(#clip400)" d="M2259.13 136.303 L2249.76 148.919 L2259.62 162.229 L2254.6 162.229 L2247.05 152.043 L2239.5 162.229 L2234.48 162.229 L2244.55 148.664 L2235.34 136.303 L2240.36 136.303 L2247.24 145.539 L2254.11 136.303 L2259.13 136.303 Z" fill="#000000" fill-rule="nonzero" fill-opacity="1" /><polyline clip-path="url(#clip400)" style="stroke:#ff0000; stroke-linecap:round; stroke-linejoin:round; stroke-width:4; stroke-opacity:1; fill:none" points="1675.15,196.789 1814.86,196.789 "/>
<path clip-path="url(#clip400)" d="M1842.82 197.564 L1842.82 210.226 L1850.32 210.226 Q1854.09 210.226 1855.9 208.675 Q1857.72 207.101 1857.72 203.883 Q1857.72 200.643 1855.9 199.115 Q1854.09 197.564 1850.32 197.564 L1842.82 197.564 M1842.82 183.351 L1842.82 193.768 L1849.74 193.768 Q1853.16 193.768 1854.83 192.495 Q1856.52 191.198 1856.52 188.559 Q1856.52 185.944 1854.83 184.647 Q1853.16 183.351 1849.74 183.351 L1842.82 183.351 M1838.14 179.509 L1850.09 179.509 Q1855.43 179.509 1858.33 181.731 Q1861.22 183.953 1861.22 188.05 Q1861.22 191.222 1859.74 193.097 Q1858.26 194.971 1855.39 195.434 Q1858.84 196.175 1860.73 198.536 Q1862.65 200.874 1862.65 204.393 Q1862.65 209.022 1859.51 211.545 Q1856.36 214.069 1850.55 214.069 L1838.14 214.069 L1838.14 179.509 Z" fill="#000000" fill-rule="nonzero" fill-opacity="1" /><path clip-path="url(#clip400)" d="M1892.65 200.041 L1892.65 202.124 L1873.07 202.124 Q1873.35 206.522 1875.71 208.837 Q1878.09 211.129 1882.33 211.129 Q1884.78 211.129 1887.08 210.527 Q1889.39 209.925 1891.66 208.721 L1891.66 212.749 Q1889.37 213.721 1886.96 214.231 Q1884.55 214.74 1882.08 214.74 Q1875.87 214.74 1872.24 211.129 Q1868.63 207.518 1868.63 201.36 Q1868.63 194.995 1872.05 191.268 Q1875.5 187.518 1881.34 187.518 Q1886.57 187.518 1889.6 190.897 Q1892.65 194.254 1892.65 200.041 M1888.4 198.791 Q1888.35 195.296 1886.43 193.212 Q1884.53 191.129 1881.38 191.129 Q1877.82 191.129 1875.66 193.143 Q1873.53 195.157 1873.21 198.814 L1888.4 198.791 Z" fill="#000000" fill-rule="nonzero" fill-opacity="1" /><path clip-path="url(#clip400)" d="M1916.17 188.907 L1916.17 192.934 Q1914.37 192.009 1912.42 191.546 Q1910.48 191.083 1908.4 191.083 Q1905.22 191.083 1903.63 192.055 Q1902.05 193.027 1902.05 194.971 Q1902.05 196.453 1903.19 197.309 Q1904.32 198.143 1907.75 198.907 L1909.21 199.231 Q1913.74 200.203 1915.64 201.985 Q1917.56 203.745 1917.56 206.916 Q1917.56 210.527 1914.69 212.633 Q1911.84 214.74 1906.84 214.74 Q1904.76 214.74 1902.49 214.323 Q1900.25 213.93 1897.75 213.12 L1897.75 208.721 Q1900.11 209.948 1902.4 210.573 Q1904.69 211.175 1906.94 211.175 Q1909.95 211.175 1911.57 210.157 Q1913.19 209.115 1913.19 207.24 Q1913.19 205.504 1912.01 204.578 Q1910.85 203.652 1906.89 202.796 L1905.41 202.448 Q1901.45 201.615 1899.69 199.902 Q1897.93 198.166 1897.93 195.157 Q1897.93 191.499 1900.52 189.509 Q1903.12 187.518 1907.89 187.518 Q1910.25 187.518 1912.33 187.865 Q1914.41 188.212 1916.17 188.907 Z" fill="#000000" fill-rule="nonzero" fill-opacity="1" /><path clip-path="url(#clip400)" d="M1928.56 180.782 L1928.56 188.143 L1937.33 188.143 L1937.33 191.453 L1928.56 191.453 L1928.56 205.527 Q1928.56 208.698 1929.41 209.601 Q1930.29 210.504 1932.96 210.504 L1937.33 210.504 L1937.33 214.069 L1932.96 214.069 Q1928.02 214.069 1926.15 212.24 Q1924.27 210.388 1924.27 205.527 L1924.27 191.453 L1921.15 191.453 L1921.15 188.143 L1924.27 188.143 L1924.27 180.782 L1928.56 180.782 Z" fill="#000000" fill-rule="nonzero" fill-opacity="1" /><path clip-path="url(#clip400)" d="M1971.13 178.05 L1971.13 181.592 L1967.05 181.592 Q1964.76 181.592 1963.86 182.518 Q1962.98 183.444 1962.98 185.851 L1962.98 188.143 L1969.99 188.143 L1969.99 191.453 L1962.98 191.453 L1962.98 214.069 L1958.7 214.069 L1958.7 191.453 L1954.62 191.453 L1954.62 188.143 L1958.7 188.143 L1958.7 186.337 Q1958.7 182.009 1960.71 180.041 Q1962.72 178.05 1967.1 178.05 L1971.13 178.05 Z" fill="#000000" fill-rule="nonzero" fill-opacity="1" /><path clip-path="url(#clip400)" d="M1974.69 188.143 L1978.95 188.143 L1978.95 214.069 L1974.69 214.069 L1974.69 188.143 M1974.69 178.05 L1978.95 178.05 L1978.95 183.444 L1974.69 183.444 L1974.69 178.05 Z" fill="#000000" fill-rule="nonzero" fill-opacity="1" /><path clip-path="url(#clip400)" d="M1992.08 180.782 L1992.08 188.143 L2000.85 188.143 L2000.85 191.453 L1992.08 191.453 L1992.08 205.527 Q1992.08 208.698 1992.93 209.601 Q1993.81 210.504 1996.47 210.504 L2000.85 210.504 L2000.85 214.069 L1996.47 214.069 Q1991.54 214.069 1989.67 212.24 Q1987.79 210.388 1987.79 205.527 L1987.79 191.453 L1984.67 191.453 L1984.67 188.143 L1987.79 188.143 L1987.79 180.782 L1992.08 180.782 Z" fill="#000000" fill-rule="nonzero" fill-opacity="1" /><path clip-path="url(#clip400)" d="M1857.16 268.058 Q1858.66 268.567 1860.07 270.234 Q1861.51 271.901 1862.94 274.817 L1867.69 284.262 L1862.67 284.262 L1858.25 275.396 Q1856.53 271.924 1854.91 270.79 Q1853.32 269.655 1850.54 269.655 L1845.44 269.655 L1845.44 284.262 L1840.77 284.262 L1840.77 249.702 L1851.32 249.702 Q1857.25 249.702 1860.17 252.178 Q1863.08 254.655 1863.08 259.655 Q1863.08 262.919 1861.56 265.072 Q1860.05 267.225 1857.16 268.058 M1845.44 253.544 L1845.44 265.813 L1851.32 265.813 Q1854.7 265.813 1856.42 264.262 Q1858.15 262.688 1858.15 259.655 Q1858.15 256.623 1856.42 255.095 Q1854.7 253.544 1851.32 253.544 L1845.44 253.544 Z" fill="#000000" fill-rule="nonzero" fill-opacity="1" /><path clip-path="url(#clip400)" d="M1891.19 249.702 L1903.75 262.595 L1899.1 262.595 L1888.92 253.452 L1878.73 262.595 L1874.08 262.595 L1886.65 249.702 L1891.19 249.702 Z" fill="#000000" fill-rule="nonzero" fill-opacity="1" /><path clip-path="url(#clip400)" d="M1917.88 280.326 L1934.19 280.326 L1934.19 284.262 L1912.25 284.262 L1912.25 280.326 Q1914.91 277.572 1919.5 272.942 Q1924.1 268.29 1925.28 266.947 Q1927.53 264.424 1928.41 262.688 Q1929.31 260.928 1929.31 259.239 Q1929.31 256.484 1927.37 254.748 Q1925.44 253.012 1922.34 253.012 Q1920.14 253.012 1917.69 253.776 Q1915.26 254.54 1912.48 256.091 L1912.48 251.368 Q1915.31 250.234 1917.76 249.655 Q1920.21 249.077 1922.25 249.077 Q1927.62 249.077 1930.81 251.762 Q1934.01 254.447 1934.01 258.938 Q1934.01 261.067 1933.2 262.989 Q1932.41 264.887 1930.31 267.479 Q1929.73 268.151 1926.63 271.368 Q1923.52 274.563 1917.88 280.326 Z" fill="#000000" fill-rule="nonzero" fill-opacity="1" /><path clip-path="url(#clip400)" d="M1944.5 278.382 L1949.38 278.382 L1949.38 284.262 L1944.5 284.262 L1944.5 278.382 M1944.5 259.748 L1949.38 259.748 L1949.38 265.627 L1944.5 265.627 L1944.5 259.748 Z" fill="#000000" fill-rule="nonzero" fill-opacity="1" /><path clip-path="url(#clip400)" d="M1985.05 252.78 Q1981.44 252.78 1979.61 256.345 Q1977.81 259.887 1977.81 267.016 Q1977.81 274.123 1979.61 277.688 Q1981.44 281.229 1985.05 281.229 Q1988.68 281.229 1990.49 277.688 Q1992.32 274.123 1992.32 267.016 Q1992.32 259.887 1990.49 256.345 Q1988.68 252.78 1985.05 252.78 M1985.05 249.077 Q1990.86 249.077 1993.92 253.683 Q1997 258.266 1997 267.016 Q1997 275.743 1993.92 280.35 Q1990.86 284.933 1985.05 284.933 Q1979.24 284.933 1976.16 280.35 Q1973.11 275.743 1973.11 267.016 Q1973.11 258.266 1976.16 253.683 Q1979.24 249.077 1985.05 249.077 Z" fill="#000000" fill-rule="nonzero" fill-opacity="1" /><path clip-path="url(#clip400)" d="M2005.21 278.382 L2010.1 278.382 L2010.1 284.262 L2005.21 284.262 L2005.21 278.382 Z" fill="#000000" fill-rule="nonzero" fill-opacity="1" /><path clip-path="url(#clip400)" d="M2030.28 267.85 Q2026.95 267.85 2025.03 269.632 Q2023.13 271.415 2023.13 274.539 Q2023.13 277.664 2025.03 279.447 Q2026.95 281.229 2030.28 281.229 Q2033.62 281.229 2035.54 279.447 Q2037.46 277.641 2037.46 274.539 Q2037.46 271.415 2035.54 269.632 Q2033.64 267.85 2030.28 267.85 M2025.61 265.859 Q2022.6 265.118 2020.91 263.058 Q2019.24 260.998 2019.24 258.035 Q2019.24 253.891 2022.18 251.484 Q2025.14 249.077 2030.28 249.077 Q2035.44 249.077 2038.38 251.484 Q2041.32 253.891 2041.32 258.035 Q2041.32 260.998 2039.63 263.058 Q2037.97 265.118 2034.98 265.859 Q2038.36 266.646 2040.24 268.938 Q2042.13 271.229 2042.13 274.539 Q2042.13 279.563 2039.05 282.248 Q2036 284.933 2030.28 284.933 Q2024.56 284.933 2021.49 282.248 Q2018.43 279.563 2018.43 274.539 Q2018.43 271.229 2020.33 268.938 Q2022.23 266.646 2025.61 265.859 M2023.89 258.475 Q2023.89 261.16 2025.56 262.665 Q2027.25 264.169 2030.28 264.169 Q2033.29 264.169 2034.98 262.665 Q2036.69 261.16 2036.69 258.475 Q2036.69 255.79 2034.98 254.285 Q2033.29 252.78 2030.28 252.78 Q2027.25 252.78 2025.56 254.285 Q2023.89 255.79 2023.89 258.475 Z" fill="#000000" fill-rule="nonzero" fill-opacity="1" /><path clip-path="url(#clip400)" d="M2060.44 267.85 Q2057.11 267.85 2055.19 269.632 Q2053.29 271.415 2053.29 274.539 Q2053.29 277.664 2055.19 279.447 Q2057.11 281.229 2060.44 281.229 Q2063.78 281.229 2065.7 279.447 Q2067.62 277.641 2067.62 274.539 Q2067.62 271.415 2065.7 269.632 Q2063.8 267.85 2060.44 267.85 M2055.77 265.859 Q2052.76 265.118 2051.07 263.058 Q2049.4 260.998 2049.4 258.035 Q2049.4 253.891 2052.34 251.484 Q2055.3 249.077 2060.44 249.077 Q2065.61 249.077 2068.55 251.484 Q2071.49 253.891 2071.49 258.035 Q2071.49 260.998 2069.8 263.058 Q2068.13 265.118 2065.14 265.859 Q2068.52 266.646 2070.4 268.938 Q2072.3 271.229 2072.3 274.539 Q2072.3 279.563 2069.22 282.248 Q2066.16 284.933 2060.44 284.933 Q2054.73 284.933 2051.65 282.248 Q2048.59 279.563 2048.59 274.539 Q2048.59 271.229 2050.49 268.938 Q2052.39 266.646 2055.77 265.859 M2054.05 258.475 Q2054.05 261.16 2055.72 262.665 Q2057.41 264.169 2060.44 264.169 Q2063.45 264.169 2065.14 262.665 Q2066.86 261.16 2066.86 258.475 Q2066.86 255.79 2065.14 254.285 Q2063.45 252.78 2060.44 252.78 Q2057.41 252.78 2055.72 254.285 Q2054.05 255.79 2054.05 258.475 Z" fill="#000000" fill-rule="nonzero" fill-opacity="1" /><path clip-path="url(#clip400)" d="M2094.77 265.627 Q2098.13 266.345 2100 268.614 Q2101.9 270.882 2101.9 274.215 Q2101.9 279.331 2098.38 282.132 Q2094.86 284.933 2088.38 284.933 Q2086.21 284.933 2083.89 284.493 Q2081.6 284.076 2079.15 283.22 L2079.15 278.706 Q2081.09 279.84 2083.41 280.419 Q2085.72 280.998 2088.24 280.998 Q2092.64 280.998 2094.93 279.262 Q2097.25 277.526 2097.25 274.215 Q2097.25 271.16 2095.1 269.447 Q2092.97 267.711 2089.15 267.711 L2085.12 267.711 L2085.12 263.868 L2089.33 263.868 Q2092.78 263.868 2094.61 262.503 Q2096.44 261.114 2096.44 258.521 Q2096.44 255.859 2094.54 254.447 Q2092.67 253.012 2089.15 253.012 Q2087.23 253.012 2085.03 253.428 Q2082.83 253.845 2080.19 254.725 L2080.19 250.558 Q2082.85 249.817 2085.17 249.447 Q2087.5 249.077 2089.56 249.077 Q2094.89 249.077 2097.99 251.507 Q2101.09 253.915 2101.09 258.035 Q2101.09 260.905 2099.45 262.896 Q2097.8 264.864 2094.77 265.627 Z" fill="#000000" fill-rule="nonzero" fill-opacity="1" /><path clip-path="url(#clip400)" d="M2109.59 249.702 L2131.81 249.702 L2131.81 251.692 L2119.26 284.262 L2114.38 284.262 L2126.18 253.637 L2109.59 253.637 L2109.59 249.702 Z" fill="#000000" fill-rule="nonzero" fill-opacity="1" /></svg>
