<?xml version="1.0" encoding="utf-8"?>
<svg xmlns="http://www.w3.org/2000/svg" xmlns:xlink="http://www.w3.org/1999/xlink" width="600" height="400" viewBox="0 0 2400 1600">
<defs>
  <clipPath id="clip920">
    <rect x="0" y="0" width="2400" height="1600"/>
  </clipPath>
</defs>
<path clip-path="url(#clip920)" d="M0 1600 L2400 1600 L2400 0 L0 0  Z" fill="#ffffff" fill-rule="evenodd" fill-opacity="1"/>
<defs>
  <clipPath id="clip921">
    <rect x="480" y="0" width="1681" height="1600"/>
  </clipPath>
</defs>
<path clip-path="url(#clip920)" d="M194.098 1486.45 L2352.76 1486.45 L2352.76 47.2441 L194.098 47.2441  Z" fill="#ffffff" fill-rule="evenodd" fill-opacity="1"/>
<defs>
  <clipPath id="clip922">
    <rect x="194" y="47" width="2160" height="1440"/>
  </clipPath>
</defs>
<polyline clip-path="url(#clip922)" style="stroke:#000000; stroke-linecap:round; stroke-linejoin:round; stroke-width:2; stroke-opacity:0.1; fill:none" points="521.5,1486.45 521.5,47.2441 "/>
<polyline clip-path="url(#clip922)" style="stroke:#000000; stroke-linecap:round; stroke-linejoin:round; stroke-width:2; stroke-opacity:0.1; fill:none" points="897.463,1486.45 897.463,47.2441 "/>
<polyline clip-path="url(#clip922)" style="stroke:#000000; stroke-linecap:round; stroke-linejoin:round; stroke-width:2; stroke-opacity:0.1; fill:none" points="1273.43,1486.45 1273.43,47.2441 "/>
<polyline clip-path="url(#clip922)" style="stroke:#000000; stroke-linecap:round; stroke-linejoin:round; stroke-width:2; stroke-opacity:0.1; fill:none" points="1649.39,1486.45 1649.39,47.2441 "/>
<polyline clip-path="url(#clip922)" style="stroke:#000000; stroke-linecap:round; stroke-linejoin:round; stroke-width:2; stroke-opacity:0.1; fill:none" points="2025.35,1486.45 2025.35,47.2441 "/>
<polyline clip-path="url(#clip922)" style="stroke:#000000; stroke-linecap:round; stroke-linejoin:round; stroke-width:2; stroke-opacity:0.1; fill:none" points="194.098,1268.17 2352.76,1268.17 "/>
<polyline clip-path="url(#clip922)" style="stroke:#000000; stroke-linecap:round; stroke-linejoin:round; stroke-width:2; stroke-opacity:0.1; fill:none" points="194.098,1017.51 2352.76,1017.51 "/>
<polyline clip-path="url(#clip922)" style="stroke:#000000; stroke-linecap:round; stroke-linejoin:round; stroke-width:2; stroke-opacity:0.1; fill:none" points="194.098,766.846 2352.76,766.846 "/>
<polyline clip-path="url(#clip922)" style="stroke:#000000; stroke-linecap:round; stroke-linejoin:round; stroke-width:2; stroke-opacity:0.1; fill:none" points="194.098,516.186 2352.76,516.186 "/>
<polyline clip-path="url(#clip922)" style="stroke:#000000; stroke-linecap:round; stroke-linejoin:round; stroke-width:2; stroke-opacity:0.1; fill:none" points="194.098,265.527 2352.76,265.527 "/>
<polyline clip-path="url(#clip920)" style="stroke:#000000; stroke-linecap:round; stroke-linejoin:round; stroke-width:4; stroke-opacity:1; fill:none" points="194.098,1486.45 2352.76,1486.45 "/>
<polyline clip-path="url(#clip920)" style="stroke:#000000; stroke-linecap:round; stroke-linejoin:round; stroke-width:4; stroke-opacity:1; fill:none" points="521.5,1486.45 521.5,1467.55 "/>
<polyline clip-path="url(#clip920)" style="stroke:#000000; stroke-linecap:round; stroke-linejoin:round; stroke-width:4; stroke-opacity:1; fill:none" points="897.463,1486.45 897.463,1467.55 "/>
<polyline clip-path="url(#clip920)" style="stroke:#000000; stroke-linecap:round; stroke-linejoin:round; stroke-width:4; stroke-opacity:1; fill:none" points="1273.43,1486.45 1273.43,1467.55 "/>
<polyline clip-path="url(#clip920)" style="stroke:#000000; stroke-linecap:round; stroke-linejoin:round; stroke-width:4; stroke-opacity:1; fill:none" points="1649.39,1486.45 1649.39,1467.55 "/>
<polyline clip-path="url(#clip920)" style="stroke:#000000; stroke-linecap:round; stroke-linejoin:round; stroke-width:4; stroke-opacity:1; fill:none" points="2025.35,1486.45 2025.35,1467.55 "/>
<path clip-path="url(#clip920)" d="M467.947 1532.02 L497.623 1532.02 L497.623 1535.95 L467.947 1535.95 L467.947 1532.02 Z" fill="#000000" fill-rule="nonzero" fill-opacity="1" /><path clip-path="url(#clip920)" d="M517.715 1517.37 Q514.104 1517.37 512.275 1520.93 Q510.47 1524.47 510.47 1531.6 Q510.47 1538.71 512.275 1542.27 Q514.104 1545.82 517.715 1545.82 Q521.349 1545.82 523.155 1542.27 Q524.983 1538.71 524.983 1531.6 Q524.983 1524.47 523.155 1520.93 Q521.349 1517.37 517.715 1517.37 M517.715 1513.66 Q523.525 1513.66 526.581 1518.27 Q529.659 1522.85 529.659 1531.6 Q529.659 1540.33 526.581 1544.94 Q523.525 1549.52 517.715 1549.52 Q511.905 1549.52 508.826 1544.94 Q505.771 1540.33 505.771 1531.6 Q505.771 1522.85 508.826 1518.27 Q511.905 1513.66 517.715 1513.66 Z" fill="#000000" fill-rule="nonzero" fill-opacity="1" /><path clip-path="url(#clip920)" d="M537.877 1542.97 L542.761 1542.97 L542.761 1548.85 L537.877 1548.85 L537.877 1542.97 Z" fill="#000000" fill-rule="nonzero" fill-opacity="1" /><path clip-path="url(#clip920)" d="M563.525 1529.7 Q560.377 1529.7 558.525 1531.86 Q556.696 1534.01 556.696 1537.76 Q556.696 1541.49 558.525 1543.66 Q560.377 1545.82 563.525 1545.82 Q566.673 1545.82 568.502 1543.66 Q570.354 1541.49 570.354 1537.76 Q570.354 1534.01 568.502 1531.86 Q566.673 1529.7 563.525 1529.7 M572.807 1515.05 L572.807 1519.31 Q571.048 1518.48 569.242 1518.04 Q567.46 1517.6 565.701 1517.6 Q561.071 1517.6 558.618 1520.72 Q556.187 1523.85 555.84 1530.17 Q557.206 1528.15 559.266 1527.09 Q561.326 1526 563.803 1526 Q569.011 1526 572.02 1529.17 Q575.053 1532.32 575.053 1537.76 Q575.053 1543.08 571.905 1546.3 Q568.756 1549.52 563.525 1549.52 Q557.53 1549.52 554.358 1544.94 Q551.187 1540.33 551.187 1531.6 Q551.187 1523.41 555.076 1518.55 Q558.965 1513.66 565.516 1513.66 Q567.275 1513.66 569.057 1514.01 Q570.863 1514.36 572.807 1515.05 Z" fill="#000000" fill-rule="nonzero" fill-opacity="1" /><path clip-path="url(#clip920)" d="M844.315 1532.02 L873.991 1532.02 L873.991 1535.95 L844.315 1535.95 L844.315 1532.02 Z" fill="#000000" fill-rule="nonzero" fill-opacity="1" /><path clip-path="url(#clip920)" d="M894.084 1517.37 Q890.473 1517.37 888.644 1520.93 Q886.838 1524.47 886.838 1531.6 Q886.838 1538.71 888.644 1542.27 Q890.473 1545.82 894.084 1545.82 Q897.718 1545.82 899.524 1542.27 Q901.352 1538.71 901.352 1531.6 Q901.352 1524.47 899.524 1520.93 Q897.718 1517.37 894.084 1517.37 M894.084 1513.66 Q899.894 1513.66 902.949 1518.27 Q906.028 1522.85 906.028 1531.6 Q906.028 1540.33 902.949 1544.94 Q899.894 1549.52 894.084 1549.52 Q888.274 1549.52 885.195 1544.94 Q882.139 1540.33 882.139 1531.6 Q882.139 1522.85 885.195 1518.27 Q888.274 1513.66 894.084 1513.66 Z" fill="#000000" fill-rule="nonzero" fill-opacity="1" /><path clip-path="url(#clip920)" d="M914.246 1542.97 L919.13 1542.97 L919.13 1548.85 L914.246 1548.85 L914.246 1542.97 Z" fill="#000000" fill-rule="nonzero" fill-opacity="1" /><path clip-path="url(#clip920)" d="M943.482 1530.21 Q946.838 1530.93 948.713 1533.2 Q950.611 1535.47 950.611 1538.8 Q950.611 1543.92 947.093 1546.72 Q943.574 1549.52 937.093 1549.52 Q934.917 1549.52 932.602 1549.08 Q930.31 1548.66 927.857 1547.81 L927.857 1543.29 Q929.801 1544.43 932.116 1545.01 Q934.431 1545.58 936.954 1545.58 Q941.352 1545.58 943.644 1543.85 Q945.958 1542.11 945.958 1538.8 Q945.958 1535.75 943.806 1534.03 Q941.676 1532.3 937.857 1532.3 L933.829 1532.3 L933.829 1528.45 L938.042 1528.45 Q941.491 1528.45 943.32 1527.09 Q945.148 1525.7 945.148 1523.11 Q945.148 1520.45 943.25 1519.03 Q941.375 1517.6 937.857 1517.6 Q935.935 1517.6 933.736 1518.01 Q931.537 1518.43 928.898 1519.31 L928.898 1515.14 Q931.56 1514.4 933.875 1514.03 Q936.213 1513.66 938.273 1513.66 Q943.597 1513.66 946.699 1516.09 Q949.801 1518.5 949.801 1522.62 Q949.801 1525.49 948.158 1527.48 Q946.514 1529.45 943.482 1530.21 Z" fill="#000000" fill-rule="nonzero" fill-opacity="1" /><path clip-path="url(#clip920)" d="M1250.81 1517.37 Q1247.2 1517.37 1245.37 1520.93 Q1243.57 1524.47 1243.57 1531.6 Q1243.57 1538.71 1245.37 1542.27 Q1247.2 1545.82 1250.81 1545.82 Q1254.45 1545.82 1256.25 1542.27 Q1258.08 1538.71 1258.08 1531.6 Q1258.08 1524.47 1256.25 1520.93 Q1254.45 1517.37 1250.81 1517.37 M1250.81 1513.66 Q1256.62 1513.66 1259.68 1518.27 Q1262.76 1522.85 1262.76 1531.6 Q1262.76 1540.33 1259.68 1544.94 Q1256.62 1549.52 1250.81 1549.52 Q1245 1549.52 1241.92 1544.94 Q1238.87 1540.33 1238.87 1531.6 Q1238.87 1522.85 1241.92 1518.27 Q1245 1513.66 1250.81 1513.66 Z" fill="#000000" fill-rule="nonzero" fill-opacity="1" /><path clip-path="url(#clip920)" d="M1270.97 1542.97 L1275.86 1542.97 L1275.86 1548.85 L1270.97 1548.85 L1270.97 1542.97 Z" fill="#000000" fill-rule="nonzero" fill-opacity="1" /><path clip-path="url(#clip920)" d="M1296.04 1517.37 Q1292.43 1517.37 1290.6 1520.93 Q1288.8 1524.47 1288.8 1531.6 Q1288.8 1538.71 1290.6 1542.27 Q1292.43 1545.82 1296.04 1545.82 Q1299.68 1545.82 1301.48 1542.27 Q1303.31 1538.71 1303.31 1531.6 Q1303.31 1524.47 1301.48 1520.93 Q1299.68 1517.37 1296.04 1517.37 M1296.04 1513.66 Q1301.85 1513.66 1304.91 1518.27 Q1307.99 1522.85 1307.99 1531.6 Q1307.99 1540.33 1304.91 1544.94 Q1301.85 1549.52 1296.04 1549.52 Q1290.23 1549.52 1287.15 1544.94 Q1284.1 1540.33 1284.1 1531.6 Q1284.1 1522.85 1287.15 1518.27 Q1290.23 1513.66 1296.04 1513.66 Z" fill="#000000" fill-rule="nonzero" fill-opacity="1" /><path clip-path="url(#clip920)" d="M1627.1 1517.37 Q1623.49 1517.37 1621.66 1520.93 Q1619.85 1524.47 1619.85 1531.6 Q1619.85 1538.71 1621.66 1542.27 Q1623.49 1545.82 1627.1 1545.82 Q1630.73 1545.82 1632.54 1542.27 Q1634.37 1538.71 1634.37 1531.6 Q1634.37 1524.47 1632.54 1520.93 Q1630.73 1517.37 1627.1 1517.37 M1627.1 1513.66 Q1632.91 1513.66 1635.96 1518.27 Q1639.04 1522.85 1639.04 1531.6 Q1639.04 1540.33 1635.96 1544.94 Q1632.91 1549.52 1627.1 1549.52 Q1621.29 1549.52 1618.21 1544.94 Q1615.15 1540.33 1615.15 1531.6 Q1615.15 1522.85 1618.21 1518.27 Q1621.29 1513.66 1627.1 1513.66 Z" fill="#000000" fill-rule="nonzero" fill-opacity="1" /><path clip-path="url(#clip920)" d="M1647.26 1542.97 L1652.15 1542.97 L1652.15 1548.85 L1647.26 1548.85 L1647.26 1542.97 Z" fill="#000000" fill-rule="nonzero" fill-opacity="1" /><path clip-path="url(#clip920)" d="M1676.5 1530.21 Q1679.85 1530.93 1681.73 1533.2 Q1683.63 1535.47 1683.63 1538.8 Q1683.63 1543.92 1680.11 1546.72 Q1676.59 1549.52 1670.11 1549.52 Q1667.93 1549.52 1665.62 1549.08 Q1663.33 1548.66 1660.87 1547.81 L1660.87 1543.29 Q1662.82 1544.43 1665.13 1545.01 Q1667.45 1545.58 1669.97 1545.58 Q1674.37 1545.58 1676.66 1543.85 Q1678.97 1542.11 1678.97 1538.8 Q1678.97 1535.75 1676.82 1534.03 Q1674.69 1532.3 1670.87 1532.3 L1666.84 1532.3 L1666.84 1528.45 L1671.06 1528.45 Q1674.51 1528.45 1676.33 1527.09 Q1678.16 1525.7 1678.16 1523.11 Q1678.16 1520.45 1676.27 1519.03 Q1674.39 1517.6 1670.87 1517.6 Q1668.95 1517.6 1666.75 1518.01 Q1664.55 1518.43 1661.91 1519.31 L1661.91 1515.14 Q1664.58 1514.4 1666.89 1514.03 Q1669.23 1513.66 1671.29 1513.66 Q1676.61 1513.66 1679.71 1516.09 Q1682.82 1518.5 1682.82 1522.62 Q1682.82 1525.49 1681.17 1527.48 Q1679.53 1529.45 1676.5 1530.21 Z" fill="#000000" fill-rule="nonzero" fill-opacity="1" /><path clip-path="url(#clip920)" d="M2002.66 1517.37 Q1999.05 1517.37 1997.22 1520.93 Q1995.41 1524.47 1995.41 1531.6 Q1995.41 1538.71 1997.22 1542.27 Q1999.05 1545.82 2002.66 1545.82 Q2006.29 1545.82 2008.1 1542.27 Q2009.93 1538.71 2009.93 1531.6 Q2009.93 1524.47 2008.1 1520.93 Q2006.29 1517.37 2002.66 1517.37 M2002.66 1513.66 Q2008.47 1513.66 2011.52 1518.27 Q2014.6 1522.85 2014.6 1531.6 Q2014.6 1540.33 2011.52 1544.94 Q2008.47 1549.52 2002.66 1549.52 Q1996.85 1549.52 1993.77 1544.94 Q1990.71 1540.33 1990.71 1531.6 Q1990.71 1522.85 1993.77 1518.27 Q1996.85 1513.66 2002.66 1513.66 Z" fill="#000000" fill-rule="nonzero" fill-opacity="1" /><path clip-path="url(#clip920)" d="M2022.82 1542.97 L2027.7 1542.97 L2027.7 1548.85 L2022.82 1548.85 L2022.82 1542.97 Z" fill="#000000" fill-rule="nonzero" fill-opacity="1" /><path clip-path="url(#clip920)" d="M2048.47 1529.7 Q2045.32 1529.7 2043.47 1531.86 Q2041.64 1534.01 2041.64 1537.76 Q2041.64 1541.49 2043.47 1543.66 Q2045.32 1545.82 2048.47 1545.82 Q2051.62 1545.82 2053.44 1543.66 Q2055.3 1541.49 2055.3 1537.76 Q2055.3 1534.01 2053.44 1531.86 Q2051.62 1529.7 2048.47 1529.7 M2057.75 1515.05 L2057.75 1519.31 Q2055.99 1518.48 2054.19 1518.04 Q2052.4 1517.6 2050.64 1517.6 Q2046.01 1517.6 2043.56 1520.72 Q2041.13 1523.85 2040.78 1530.17 Q2042.15 1528.15 2044.21 1527.09 Q2046.27 1526 2048.75 1526 Q2053.95 1526 2056.96 1529.17 Q2060 1532.32 2060 1537.76 Q2060 1543.08 2056.85 1546.3 Q2053.7 1549.52 2048.47 1549.52 Q2042.47 1549.52 2039.3 1544.94 Q2036.13 1540.33 2036.13 1531.6 Q2036.13 1523.41 2040.02 1518.55 Q2043.91 1513.66 2050.46 1513.66 Q2052.22 1513.66 2054 1514.01 Q2055.81 1514.36 2057.75 1515.05 Z" fill="#000000" fill-rule="nonzero" fill-opacity="1" /><polyline clip-path="url(#clip920)" style="stroke:#000000; stroke-linecap:round; stroke-linejoin:round; stroke-width:4; stroke-opacity:1; fill:none" points="194.098,1486.45 194.098,47.2441 "/>
<polyline clip-path="url(#clip920)" style="stroke:#000000; stroke-linecap:round; stroke-linejoin:round; stroke-width:4; stroke-opacity:1; fill:none" points="194.098,1268.17 212.996,1268.17 "/>
<polyline clip-path="url(#clip920)" style="stroke:#000000; stroke-linecap:round; stroke-linejoin:round; stroke-width:4; stroke-opacity:1; fill:none" points="194.098,1017.51 212.996,1017.51 "/>
<polyline clip-path="url(#clip920)" style="stroke:#000000; stroke-linecap:round; stroke-linejoin:round; stroke-width:4; stroke-opacity:1; fill:none" points="194.098,766.846 212.996,766.846 "/>
<polyline clip-path="url(#clip920)" style="stroke:#000000; stroke-linecap:round; stroke-linejoin:round; stroke-width:4; stroke-opacity:1; fill:none" points="194.098,516.186 212.996,516.186 "/>
<polyline clip-path="url(#clip920)" style="stroke:#000000; stroke-linecap:round; stroke-linejoin:round; stroke-width:4; stroke-opacity:1; fill:none" points="194.098,265.527 212.996,265.527 "/>
<path clip-path="url(#clip920)" d="M50.9921 1268.62 L80.6679 1268.62 L80.6679 1272.55 L50.9921 1272.55 L50.9921 1268.62 Z" fill="#000000" fill-rule="nonzero" fill-opacity="1" /><path clip-path="url(#clip920)" d="M100.76 1253.96 Q97.1493 1253.96 95.3206 1257.53 Q93.515 1261.07 93.515 1268.2 Q93.515 1275.31 95.3206 1278.87 Q97.1493 1282.41 100.76 1282.41 Q104.395 1282.41 106.2 1278.87 Q108.029 1275.31 108.029 1268.2 Q108.029 1261.07 106.2 1257.53 Q104.395 1253.96 100.76 1253.96 M100.76 1250.26 Q106.571 1250.26 109.626 1254.87 Q112.705 1259.45 112.705 1268.2 Q112.705 1276.93 109.626 1281.53 Q106.571 1286.12 100.76 1286.12 Q94.9502 1286.12 91.8715 1281.53 Q88.816 1276.93 88.816 1268.2 Q88.816 1259.45 91.8715 1254.87 Q94.9502 1250.26 100.76 1250.26 Z" fill="#000000" fill-rule="nonzero" fill-opacity="1" /><path clip-path="url(#clip920)" d="M120.922 1279.57 L125.807 1279.57 L125.807 1285.45 L120.922 1285.45 L120.922 1279.57 Z" fill="#000000" fill-rule="nonzero" fill-opacity="1" /><path clip-path="url(#clip920)" d="M146.57 1266.3 Q143.422 1266.3 141.57 1268.45 Q139.742 1270.61 139.742 1274.36 Q139.742 1278.08 141.57 1280.26 Q143.422 1282.41 146.57 1282.41 Q149.718 1282.41 151.547 1280.26 Q153.399 1278.08 153.399 1274.36 Q153.399 1270.61 151.547 1268.45 Q149.718 1266.3 146.57 1266.3 M155.853 1251.65 L155.853 1255.91 Q154.093 1255.07 152.288 1254.64 Q150.505 1254.2 148.746 1254.2 Q144.117 1254.2 141.663 1257.32 Q139.232 1260.45 138.885 1266.76 Q140.251 1264.75 142.311 1263.69 Q144.371 1262.6 146.848 1262.6 Q152.056 1262.6 155.066 1265.77 Q158.098 1268.92 158.098 1274.36 Q158.098 1279.68 154.95 1282.9 Q151.802 1286.12 146.57 1286.12 Q140.575 1286.12 137.404 1281.53 Q134.232 1276.93 134.232 1268.2 Q134.232 1260.01 138.121 1255.14 Q142.01 1250.26 148.561 1250.26 Q150.32 1250.26 152.103 1250.61 Q153.908 1250.95 155.853 1251.65 Z" fill="#000000" fill-rule="nonzero" fill-opacity="1" /><path clip-path="url(#clip920)" d="M51.8023 1017.96 L81.4781 1017.96 L81.4781 1021.89 L51.8023 1021.89 L51.8023 1017.96 Z" fill="#000000" fill-rule="nonzero" fill-opacity="1" /><path clip-path="url(#clip920)" d="M101.571 1003.3 Q97.9595 1003.3 96.1308 1006.87 Q94.3252 1010.41 94.3252 1017.54 Q94.3252 1024.65 96.1308 1028.21 Q97.9595 1031.75 101.571 1031.75 Q105.205 1031.75 107.01 1028.21 Q108.839 1024.65 108.839 1017.54 Q108.839 1010.41 107.01 1006.87 Q105.205 1003.3 101.571 1003.3 M101.571 999.601 Q107.381 999.601 110.436 1004.21 Q113.515 1008.79 113.515 1017.54 Q113.515 1026.27 110.436 1030.87 Q107.381 1035.46 101.571 1035.46 Q95.7604 1035.46 92.6817 1030.87 Q89.6262 1026.27 89.6262 1017.54 Q89.6262 1008.79 92.6817 1004.21 Q95.7604 999.601 101.571 999.601 Z" fill="#000000" fill-rule="nonzero" fill-opacity="1" /><path clip-path="url(#clip920)" d="M121.732 1028.91 L126.617 1028.91 L126.617 1034.79 L121.732 1034.79 L121.732 1028.91 Z" fill="#000000" fill-rule="nonzero" fill-opacity="1" /><path clip-path="url(#clip920)" d="M150.968 1016.15 Q154.325 1016.87 156.2 1019.14 Q158.098 1021.41 158.098 1024.74 Q158.098 1029.86 154.58 1032.66 Q151.061 1035.46 144.58 1035.46 Q142.404 1035.46 140.089 1035.02 Q137.797 1034.6 135.344 1033.74 L135.344 1029.23 Q137.288 1030.36 139.603 1030.94 Q141.918 1031.52 144.441 1031.52 Q148.839 1031.52 151.13 1029.79 Q153.445 1028.05 153.445 1024.74 Q153.445 1021.68 151.293 1019.97 Q149.163 1018.23 145.343 1018.23 L141.316 1018.23 L141.316 1014.39 L145.529 1014.39 Q148.978 1014.39 150.806 1013.03 Q152.635 1011.64 152.635 1009.04 Q152.635 1006.38 150.737 1004.97 Q148.862 1003.54 145.343 1003.54 Q143.422 1003.54 141.223 1003.95 Q139.024 1004.37 136.385 1005.25 L136.385 1001.08 Q139.047 1000.34 141.362 999.971 Q143.7 999.601 145.76 999.601 Q151.084 999.601 154.186 1002.03 Q157.288 1004.44 157.288 1008.56 Q157.288 1011.43 155.644 1013.42 Q154.001 1015.39 150.968 1016.15 Z" fill="#000000" fill-rule="nonzero" fill-opacity="1" /><path clip-path="url(#clip920)" d="M100.922 752.645 Q97.3113 752.645 95.4826 756.209 Q93.6771 759.751 93.6771 766.881 Q93.6771 773.987 95.4826 777.552 Q97.3113 781.094 100.922 781.094 Q104.557 781.094 106.362 777.552 Q108.191 773.987 108.191 766.881 Q108.191 759.751 106.362 756.209 Q104.557 752.645 100.922 752.645 M100.922 748.941 Q106.733 748.941 109.788 753.547 Q112.867 758.131 112.867 766.881 Q112.867 775.608 109.788 780.214 Q106.733 784.797 100.922 784.797 Q95.1123 784.797 92.0336 780.214 Q88.978 775.608 88.978 766.881 Q88.978 758.131 92.0336 753.547 Q95.1123 748.941 100.922 748.941 Z" fill="#000000" fill-rule="nonzero" fill-opacity="1" /><path clip-path="url(#clip920)" d="M121.084 778.246 L125.969 778.246 L125.969 784.126 L121.084 784.126 L121.084 778.246 Z" fill="#000000" fill-rule="nonzero" fill-opacity="1" /><path clip-path="url(#clip920)" d="M146.154 752.645 Q142.543 752.645 140.714 756.209 Q138.908 759.751 138.908 766.881 Q138.908 773.987 140.714 777.552 Q142.543 781.094 146.154 781.094 Q149.788 781.094 151.593 777.552 Q153.422 773.987 153.422 766.881 Q153.422 759.751 151.593 756.209 Q149.788 752.645 146.154 752.645 M146.154 748.941 Q151.964 748.941 155.019 753.547 Q158.098 758.131 158.098 766.881 Q158.098 775.608 155.019 780.214 Q151.964 784.797 146.154 784.797 Q140.343 784.797 137.265 780.214 Q134.209 775.608 134.209 766.881 Q134.209 758.131 137.265 753.547 Q140.343 748.941 146.154 748.941 Z" fill="#000000" fill-rule="nonzero" fill-opacity="1" /><path clip-path="url(#clip920)" d="M101.571 501.985 Q97.9595 501.985 96.1308 505.55 Q94.3252 509.092 94.3252 516.221 Q94.3252 523.328 96.1308 526.892 Q97.9595 530.434 101.571 530.434 Q105.205 530.434 107.01 526.892 Q108.839 523.328 108.839 516.221 Q108.839 509.092 107.01 505.55 Q105.205 501.985 101.571 501.985 M101.571 498.281 Q107.381 498.281 110.436 502.888 Q113.515 507.471 113.515 516.221 Q113.515 524.948 110.436 529.554 Q107.381 534.138 101.571 534.138 Q95.7604 534.138 92.6817 529.554 Q89.6262 524.948 89.6262 516.221 Q89.6262 507.471 92.6817 502.888 Q95.7604 498.281 101.571 498.281 Z" fill="#000000" fill-rule="nonzero" fill-opacity="1" /><path clip-path="url(#clip920)" d="M121.732 527.587 L126.617 527.587 L126.617 533.466 L121.732 533.466 L121.732 527.587 Z" fill="#000000" fill-rule="nonzero" fill-opacity="1" /><path clip-path="url(#clip920)" d="M150.968 514.832 Q154.325 515.55 156.2 517.818 Q158.098 520.087 158.098 523.42 Q158.098 528.536 154.58 531.337 Q151.061 534.138 144.58 534.138 Q142.404 534.138 140.089 533.698 Q137.797 533.281 135.344 532.425 L135.344 527.911 Q137.288 529.045 139.603 529.624 Q141.918 530.203 144.441 530.203 Q148.839 530.203 151.13 528.466 Q153.445 526.73 153.445 523.42 Q153.445 520.365 151.293 518.652 Q149.163 516.916 145.343 516.916 L141.316 516.916 L141.316 513.073 L145.529 513.073 Q148.978 513.073 150.806 511.707 Q152.635 510.318 152.635 507.726 Q152.635 505.064 150.737 503.652 Q148.862 502.217 145.343 502.217 Q143.422 502.217 141.223 502.633 Q139.024 503.05 136.385 503.93 L136.385 499.763 Q139.047 499.022 141.362 498.652 Q143.7 498.281 145.76 498.281 Q151.084 498.281 154.186 500.712 Q157.288 503.119 157.288 507.24 Q157.288 510.11 155.644 512.101 Q154.001 514.068 150.968 514.832 Z" fill="#000000" fill-rule="nonzero" fill-opacity="1" /><path clip-path="url(#clip920)" d="M100.76 251.326 Q97.1493 251.326 95.3206 254.89 Q93.515 258.432 93.515 265.562 Q93.515 272.668 95.3206 276.233 Q97.1493 279.774 100.76 279.774 Q104.395 279.774 106.2 276.233 Q108.029 272.668 108.029 265.562 Q108.029 258.432 106.2 254.89 Q104.395 251.326 100.76 251.326 M100.76 247.622 Q106.571 247.622 109.626 252.228 Q112.705 256.812 112.705 265.562 Q112.705 274.288 109.626 278.895 Q106.571 283.478 100.76 283.478 Q94.9502 283.478 91.8715 278.895 Q88.816 274.288 88.816 265.562 Q88.816 256.812 91.8715 252.228 Q94.9502 247.622 100.76 247.622 Z" fill="#000000" fill-rule="nonzero" fill-opacity="1" /><path clip-path="url(#clip920)" d="M120.922 276.927 L125.807 276.927 L125.807 282.807 L120.922 282.807 L120.922 276.927 Z" fill="#000000" fill-rule="nonzero" fill-opacity="1" /><path clip-path="url(#clip920)" d="M146.57 263.663 Q143.422 263.663 141.57 265.816 Q139.742 267.969 139.742 271.719 Q139.742 275.446 141.57 277.622 Q143.422 279.774 146.57 279.774 Q149.718 279.774 151.547 277.622 Q153.399 275.446 153.399 271.719 Q153.399 267.969 151.547 265.816 Q149.718 263.663 146.57 263.663 M155.853 249.011 L155.853 253.27 Q154.093 252.437 152.288 251.997 Q150.505 251.557 148.746 251.557 Q144.117 251.557 141.663 254.682 Q139.232 257.807 138.885 264.126 Q140.251 262.112 142.311 261.048 Q144.371 259.96 146.848 259.96 Q152.056 259.96 155.066 263.131 Q158.098 266.279 158.098 271.719 Q158.098 277.043 154.95 280.261 Q151.802 283.478 146.57 283.478 Q140.575 283.478 137.404 278.895 Q134.232 274.288 134.232 265.562 Q134.232 257.367 138.121 252.506 Q142.01 247.622 148.561 247.622 Q150.32 247.622 152.103 247.969 Q153.908 248.316 155.853 249.011 Z" fill="#000000" fill-rule="nonzero" fill-opacity="1" /><polyline clip-path="url(#clip922)" style="stroke:#008000; stroke-linecap:round; stroke-linejoin:round; stroke-width:8; stroke-opacity:1; fill:none" points="646.821,1184.61 725.147,1184.61 725.147,1132.39 803.472,1132.39 803.472,1184.61 803.472,1236.83 881.798,1236.83 881.798,1184.61 960.124,1184.61 960.124,1132.39 881.798,1132.39 881.798,1080.17 960.124,1080.17 1038.45,1080.17 1038.45,1027.95 960.124,1027.95 960.124,975.729 1038.45,975.729 1038.45,923.508 1116.78,923.508 1116.78,975.729 1116.78,1027.95 1195.1,1027.95 1195.1,975.729 1273.43,975.729 1273.43,1027.95 1351.75,1027.95 1351.75,1080.17 1273.43,1080.17 1195.1,1080.17 1195.1,1132.39 1273.43,1132.39 1273.43,1184.61 1273.43,1236.83 1351.75,1236.83 1351.75,1289.05 1273.43,1289.05 1195.1,1289.05 1195.1,1341.27 1273.43,1341.27 1273.43,1393.49 1351.75,1393.49 1351.75,1341.27 1430.08,1341.27 1430.08,1393.49 1430.08,1445.72 1508.4,1445.72 1508.4,1393.49 1586.73,1393.49 1586.73,1341.27 1508.4,1341.27 1508.4,1289.05 1586.73,1289.05 1665.06,1289.05 1665.06,1236.83 1586.73,1236.83 1586.73,1184.61 1665.06,1184.61 1665.06,1132.39 1743.38,1132.39 1743.38,1184.61 1743.38,1236.83 1821.71,1236.83 1821.71,1184.61 1900.03,1184.61 1900.03,1132.39 1821.71,1132.39 1821.71,1080.17 1900.03,1080.17 1978.36,1080.17 1978.36,1027.95 1900.03,1027.95 1900.03,975.729 1821.71,975.729 1821.71,1027.95 1743.38,1027.95 1743.38,975.729 1743.38,923.508 1665.06,923.508 1665.06,975.729 1586.73,975.729 1586.73,923.508 1508.4,923.508 1508.4,871.287 1586.73,871.287 1665.06,871.287 1665.06,819.067 1586.73,819.067 1586.73,766.846 1665.06,766.846 1665.06,714.625 1743.38,714.625 1743.38,766.846 1743.38,819.067 1821.71,819.067 1821.71,766.846 1900.03,766.846 1978.36,766.846 1978.36,714.625 2056.68,714.625 2056.68,766.846 2056.68,819.067 2135.01,819.067 2135.01,766.846 2213.34,766.846 2213.34,714.625 2135.01,714.625 2135.01,662.404 2213.34,662.404 2291.66,662.404 2291.66,610.184 2213.34,610.184 2213.34,557.963 2135.01,557.963 2135.01,610.184 2056.68,610.184 2056.68,557.963 2056.68,505.742 1978.36,505.742 1978.36,557.963 1900.03,557.963 1900.03,505.742 1821.71,505.742 1821.71,453.522 1900.03,453.522 1978.36,453.522 1978.36,401.301 1900.03,401.301 1900.03,349.08 1821.71,349.08 1821.71,401.301 1743.38,401.301 1743.38,349.08 1743.38,296.859 1665.06,296.859 1665.06,349.08 1586.73,349.08 1586.73,401.301 1665.06,401.301 1665.06,453.522 1586.73,453.522 1508.4,453.522 1508.4,505.742 1586.73,505.742 1586.73,557.963 1508.4,557.963 1508.4,610.184 1430.08,610.184 1430.08,557.963 1430.08,505.742 1351.75,505.742 1351.75,557.963 1273.43,557.963 1273.43,505.742 1195.1,505.742 1195.1,453.522 1273.43,453.522 1351.75,453.522 1351.75,401.301 1273.43,401.301 1273.43,349.08 1273.43,296.859 1195.1,296.859 1195.1,244.639 1273.43,244.639 1351.75,244.639 1351.75,192.418 1273.43,192.418 1273.43,140.197 1195.1,140.197 1195.1,192.418 1116.78,192.418 1116.78,140.197 1116.78,87.9763 1038.45,87.9763 1038.45,140.197 960.124,140.197 960.124,192.418 1038.45,192.418 1038.45,244.639 960.124,244.639 881.798,244.639 881.798,296.859 960.124,296.859 960.124,349.08 881.798,349.08 881.798,401.301 803.472,401.301 803.472,349.08 803.472,296.859 725.147,296.859 725.147,349.08 646.821,349.08 646.821,401.301 725.147,401.301 725.147,453.522 646.821,453.522 568.495,453.522 568.495,505.742 646.821,505.742 646.821,557.963 725.147,557.963 725.147,505.742 803.472,505.742 803.472,557.963 803.472,610.184 881.798,610.184 881.798,557.963 960.124,557.963 960.124,610.184 1038.45,610.184 1038.45,662.404 960.124,662.404 881.798,662.404 881.798,714.625 960.124,714.625 960.124,766.846 881.798,766.846 881.798,819.067 803.472,819.067 803.472,766.846 803.472,714.625 725.147,714.625 725.147,766.846 646.821,766.846 568.495,766.846 568.495,819.067 490.169,819.067 490.169,766.846 490.169,714.625 411.844,714.625 411.844,766.846 333.518,766.846 333.518,819.067 411.844,819.067 411.844,871.287 333.518,871.287 255.192,871.287 255.192,923.508 333.518,923.508 333.518,975.729 411.844,975.729 411.844,923.508 490.169,923.508 490.169,975.729 490.169,1027.95 568.495,1027.95 568.495,975.729 646.821,975.729 646.821,1027.95 725.147,1027.95 725.147,1080.17 646.821,1080.17 568.495,1080.17 568.495,1132.39 646.821,1132.39 646.821,1184.61 "/>
<polyline clip-path="url(#clip922)" style="stroke:#0000ff; stroke-linecap:round; stroke-linejoin:round; stroke-width:8; stroke-opacity:1; fill:none" points="646.821,1184.61 1900.03,1184.61 1900.03,349.08 646.821,349.08 646.821,1184.61 "/>
<path clip-path="url(#clip920)" d="M266.053 1438.47 L632.057 1438.47 L632.057 1282.95 L266.053 1282.95  Z" fill="#ffffff" fill-rule="evenodd" fill-opacity="1"/>
<polyline clip-path="url(#clip920)" style="stroke:#000000; stroke-linecap:round; stroke-linejoin:round; stroke-width:4; stroke-opacity:1; fill:none" points="266.053,1438.47 632.057,1438.47 632.057,1282.95 266.053,1282.95 266.053,1438.47 "/>
<polyline clip-path="url(#clip920)" style="stroke:#008000; stroke-linecap:round; stroke-linejoin:round; stroke-width:8; stroke-opacity:1; fill:none" points="290.038,1334.79 433.949,1334.79 "/>
<path clip-path="url(#clip920)" d="M457.934 1317.51 L477.795 1317.51 L477.795 1321.45 L462.61 1321.45 L462.61 1331.63 L476.314 1331.63 L476.314 1335.57 L462.61 1335.57 L462.61 1352.07 L457.934 1352.07 L457.934 1317.51 Z" fill="#000000" fill-rule="nonzero" fill-opacity="1" /><path clip-path="url(#clip920)" d="M496.591 1330.13 Q495.874 1329.71 495.017 1329.53 Q494.184 1329.32 493.165 1329.32 Q489.554 1329.32 487.61 1331.68 Q485.688 1334.02 485.688 1338.42 L485.688 1352.07 L481.406 1352.07 L481.406 1326.15 L485.688 1326.15 L485.688 1330.18 Q487.031 1327.82 489.184 1326.68 Q491.337 1325.52 494.415 1325.52 Q494.855 1325.52 495.387 1325.59 Q495.92 1325.64 496.568 1325.76 L496.591 1330.13 Z" fill="#000000" fill-rule="nonzero" fill-opacity="1" /><path clip-path="url(#clip920)" d="M512.841 1339.04 Q507.679 1339.04 505.688 1340.22 Q503.698 1341.4 503.698 1344.25 Q503.698 1346.52 505.179 1347.86 Q506.684 1349.18 509.253 1349.18 Q512.795 1349.18 514.924 1346.68 Q517.077 1344.16 517.077 1339.99 L517.077 1339.04 L512.841 1339.04 M521.336 1337.28 L521.336 1352.07 L517.077 1352.07 L517.077 1348.14 Q515.619 1350.5 513.443 1351.63 Q511.267 1352.75 508.119 1352.75 Q504.137 1352.75 501.776 1350.52 Q499.438 1348.28 499.438 1344.53 Q499.438 1340.15 502.355 1337.93 Q505.295 1335.71 511.105 1335.71 L517.077 1335.71 L517.077 1335.29 Q517.077 1332.35 515.133 1330.76 Q513.211 1329.13 509.716 1329.13 Q507.494 1329.13 505.387 1329.67 Q503.281 1330.2 501.337 1331.26 L501.337 1327.33 Q503.674 1326.43 505.874 1325.99 Q508.073 1325.52 510.156 1325.52 Q515.781 1325.52 518.559 1328.44 Q521.336 1331.36 521.336 1337.28 Z" fill="#000000" fill-rule="nonzero" fill-opacity="1" /><path clip-path="url(#clip920)" d="M548.767 1327.14 L548.767 1331.13 Q546.961 1330.13 545.133 1329.64 Q543.327 1329.13 541.475 1329.13 Q537.332 1329.13 535.04 1331.77 Q532.748 1334.39 532.748 1339.13 Q532.748 1343.88 535.04 1346.52 Q537.332 1349.13 541.475 1349.13 Q543.327 1349.13 545.133 1348.65 Q546.961 1348.14 548.767 1347.14 L548.767 1351.08 Q546.984 1351.91 545.063 1352.33 Q543.165 1352.75 541.012 1352.75 Q535.156 1352.75 531.707 1349.07 Q528.258 1345.38 528.258 1339.13 Q528.258 1332.79 531.73 1329.16 Q535.225 1325.52 541.29 1325.52 Q543.258 1325.52 545.133 1325.94 Q547.008 1326.33 548.767 1327.14 Z" fill="#000000" fill-rule="nonzero" fill-opacity="1" /><path clip-path="url(#clip920)" d="M560.387 1318.79 L560.387 1326.15 L569.16 1326.15 L569.16 1329.46 L560.387 1329.46 L560.387 1343.53 Q560.387 1346.7 561.244 1347.61 Q562.123 1348.51 564.785 1348.51 L569.16 1348.51 L569.16 1352.07 L564.785 1352.07 Q559.855 1352.07 557.98 1350.25 Q556.105 1348.39 556.105 1343.53 L556.105 1329.46 L552.98 1329.46 L552.98 1326.15 L556.105 1326.15 L556.105 1318.79 L560.387 1318.79 Z" fill="#000000" fill-rule="nonzero" fill-opacity="1" /><path clip-path="url(#clip920)" d="M586.544 1339.04 Q581.382 1339.04 579.392 1340.22 Q577.401 1341.4 577.401 1344.25 Q577.401 1346.52 578.882 1347.86 Q580.387 1349.18 582.956 1349.18 Q586.498 1349.18 588.628 1346.68 Q590.781 1344.16 590.781 1339.99 L590.781 1339.04 L586.544 1339.04 M595.04 1337.28 L595.04 1352.07 L590.781 1352.07 L590.781 1348.14 Q589.322 1350.5 587.146 1351.63 Q584.97 1352.75 581.822 1352.75 Q577.841 1352.75 575.48 1350.52 Q573.142 1348.28 573.142 1344.53 Q573.142 1340.15 576.058 1337.93 Q578.998 1335.71 584.808 1335.71 L590.781 1335.71 L590.781 1335.29 Q590.781 1332.35 588.836 1330.76 Q586.915 1329.13 583.419 1329.13 Q581.197 1329.13 579.091 1329.67 Q576.984 1330.2 575.04 1331.26 L575.04 1327.33 Q577.378 1326.43 579.577 1325.99 Q581.776 1325.52 583.859 1325.52 Q589.484 1325.52 592.262 1328.44 Q595.04 1331.36 595.04 1337.28 Z" fill="#000000" fill-rule="nonzero" fill-opacity="1" /><path clip-path="url(#clip920)" d="M603.813 1316.06 L608.072 1316.06 L608.072 1352.07 L603.813 1352.07 L603.813 1316.06 Z" fill="#000000" fill-rule="nonzero" fill-opacity="1" /><polyline clip-path="url(#clip920)" style="stroke:#0000ff; stroke-linecap:round; stroke-linejoin:round; stroke-width:8; stroke-opacity:1; fill:none" points="290.038,1386.63 433.949,1386.63 "/>
<path clip-path="url(#clip920)" d="M476.707 1390.97 Q476.707 1386.28 474.763 1383.61 Q472.841 1380.93 469.462 1380.93 Q466.082 1380.93 464.138 1383.61 Q462.216 1386.28 462.216 1390.97 Q462.216 1395.67 464.138 1398.36 Q466.082 1401.02 469.462 1401.02 Q472.841 1401.02 474.763 1398.36 Q476.707 1395.67 476.707 1390.97 M462.216 1381.92 Q463.559 1379.61 465.596 1378.5 Q467.656 1377.36 470.503 1377.36 Q475.226 1377.36 478.165 1381.11 Q481.128 1384.86 481.128 1390.97 Q481.128 1397.09 478.165 1400.84 Q475.226 1404.59 470.503 1404.59 Q467.656 1404.59 465.596 1403.47 Q463.559 1402.34 462.216 1400.03 L462.216 1403.91 L457.934 1403.91 L457.934 1367.9 L462.216 1367.9 L462.216 1381.92 Z" fill="#000000" fill-rule="nonzero" fill-opacity="1" /><path clip-path="url(#clip920)" d="M498.235 1380.97 Q494.809 1380.97 492.818 1383.66 Q490.827 1386.32 490.827 1390.97 Q490.827 1395.63 492.795 1398.31 Q494.786 1400.97 498.235 1400.97 Q501.637 1400.97 503.628 1398.29 Q505.619 1395.6 505.619 1390.97 Q505.619 1386.37 503.628 1383.68 Q501.637 1380.97 498.235 1380.97 M498.235 1377.36 Q503.79 1377.36 506.962 1380.97 Q510.133 1384.59 510.133 1390.97 Q510.133 1397.34 506.962 1400.97 Q503.79 1404.59 498.235 1404.59 Q492.656 1404.59 489.485 1400.97 Q486.337 1397.34 486.337 1390.97 Q486.337 1384.59 489.485 1380.97 Q492.656 1377.36 498.235 1377.36 Z" fill="#000000" fill-rule="nonzero" fill-opacity="1" /><path clip-path="url(#clip920)" d="M537.285 1377.99 L527.91 1390.6 L537.772 1403.91 L532.748 1403.91 L525.202 1393.73 L517.656 1403.91 L512.633 1403.91 L522.702 1390.35 L513.489 1377.99 L518.512 1377.99 L525.387 1387.22 L532.262 1377.99 L537.285 1377.99 Z" fill="#000000" fill-rule="nonzero" fill-opacity="1" /></svg>
